<?xml version="1.0" encoding="utf-8"?>
<!-- Generator: Adobe Illustrator 26.3.1, SVG Export Plug-In . SVG Version: 6.00 Build 0)  -->
<svg version="1.1" id="Layer_1" xmlns="http://www.w3.org/2000/svg" xmlns:xlink="http://www.w3.org/1999/xlink" x="0px" y="0px"
	 viewBox="0 0 1024 1024" style="enable-background:new 0 0 1024 1024;" xml:space="preserve">
<style type="text/css">
	.st0{fill:#F26522;}
	.st1{fill:#FFFFFF;}
</style>
<path class="st0" d="M512,178.7c-131.9,0-238.6,117.1-238.6,261.9C273.4,637.1,512,927,512,927s238.6-290,238.6-486.4
	C750.6,295.8,643.9,178.7,512,178.7L512,178.7z"/>
<path class="st1" d="M588.6,409.1c-0.4-2.8-1.6-5.1-3.7-6.7c-2.2-1.6-4.6-2-7.1-2l-59.2,1l18.5-85.3c1-4.7,0.5-8.4-1.7-11.2
	s-6.1-3.7-9.3-3.4c-2.9,0.3-6,2.8-8.3,6.6l-79.9,127.8c-1.7,2.6-2.8,6.1-2.4,9.1c0.4,2.8,1.6,5.1,3.7,6.7c2.2,1.6,4.6,2,7.1,2
	l59.2-1L486.9,538c-1,4.7-0.5,8.4,1.6,11.2s6.1,3.7,9.4,3.4c2.9-0.3,6-2.8,8.3-6.6l79.9-127.8C587.9,415.5,589,412.1,588.6,409.1
	L588.6,409.1z"/>
</svg>
