<?xml version="1.0" encoding="utf-8"?>
<!-- Generator: Adobe Illustrator 26.3.1, SVG Export Plug-In . SVG Version: 6.00 Build 0)  -->
<svg version="1.1" id="Layer_1" xmlns="http://www.w3.org/2000/svg" xmlns:xlink="http://www.w3.org/1999/xlink" x="0px" y="0px"
	 viewBox="0 0 1024 1024" style="enable-background:new 0 0 1024 1024;" xml:space="preserve">
<style type="text/css">
	.st0{fill:#FFDE17;}
	.st1{fill:#FFFFFF;}
</style>
<path class="st0" d="M512,178.7c-131.9,0-238.6,117.1-238.6,261.9C273.4,637.1,512,927,512,927s238.6-290,238.6-486.4
	C750.6,295.8,643.9,178.7,512,178.7L512,178.7z"/>
<path class="st1" d="M519,305.5l34.7,79.6c1.1,2.3,4.3,3.2,6.8,3.6l76.7,2.8c6.4,0.9,8.9,8.8,4.3,13.2l-62.9,54.8
	c-1.8,1.8-2.7,4.4-2.2,6.9l20,77.4c1.1,6.3-5.6,11.2-11.3,8.2L515.6,508c-2.3-1.2-5-1.2-7.2,0L438.9,552c-5.7,3-12.4-1.8-11.3-8.2
	l19.8-77.4c0.4-2.5-0.4-5.1-2.2-6.9l-62.7-54.8c-4.6-4.5-2.1-12.3,4.3-13.2l78.6-2.8c2.5-0.4,3.8-1.3,4.9-3.6l34.7-79.6
	C507.9,299.8,516.1,299.8,519,305.5L519,305.5z"/>
</svg>
