<?xml version="1.0" encoding="UTF-8"?><svg id="Layer_1" xmlns="http://www.w3.org/2000/svg" viewBox="0 0 178.58 249.45"><defs><style>.cls-1{fill:#fff;}.cls-2{fill:#ffa914;}.cls-3{fill:gray;}.cls-4{fill:#4d4d4d;}.cls-5{opacity:.9;}</style></defs><g><rect class="cls-1" x="3.09" y="3.09" width="172.41" height="243.27" rx="10.86" ry="10.86"/><path class="cls-2" d="M164.63,6.18c4.29,0,7.77,3.49,7.77,7.77V235.5c0,4.29-3.49,7.77-7.77,7.77H13.95c-4.29,0-7.77-3.49-7.77-7.77V13.95c0-4.29,3.49-7.77,7.77-7.77H164.63m0-6.18H13.95C6.25,0,0,6.25,0,13.95V235.5C0,243.2,6.25,249.45,13.95,249.45H164.63c7.71,0,13.95-6.25,13.95-13.95V13.95c0-7.71-6.25-13.95-13.95-13.95h0Z"/></g><g><path class="cls-2" d="M37.18,15.88c-1.05,0-1.5,.01-2.05,.06v-2.23c.7,.08,1.09,.1,2.09,.1h6.94c.41-.01,.61-.05,.87-.14l1.22,1.37c-.2,.19-.27,.28-.58,.81-1.3,2.19-2.34,3.45-4.02,4.85,.54,.65,.9,1.1,1.51,1.93l-1.9,1.48c-.76-1.24-1.39-2.12-2.45-3.31-1.03-1.18-1.62-1.76-2.55-2.52l1.74-1.22c1.04,.85,1.46,1.24,2.19,2.01,.72-.6,1.52-1.41,1.98-2,.32-.39,.66-.94,.81-1.23l-5.8,.03Z"/><path class="cls-2" d="M56.56,24.11c-1.1-1.39-2.22-2.5-3.64-3.6-1.19,1.41-2.7,2.52-4.66,3.47-.44-.89-.71-1.27-1.42-2,1.65-.63,2.95-1.46,4.1-2.56,1.18-1.13,1.95-2.25,2.55-3.72l-3.29,.05c-1.09,.02-1.49,.05-2.01,.13l-.06-2.25c.49,.06,.84,.09,1.33,.09,.1,0,.34,0,.71-.01l4.33-.06c.6-.01,.67-.01,1.01-.14l1.11,1.14c-.19,.19-.27,.32-.46,.75-.67,1.58-1.15,2.47-1.86,3.42,1.53,1.1,2.05,1.55,4.03,3.43l-1.77,1.88Z"/><path class="cls-2" d="M63.15,15.06c.04-.49,.06-1.23,.06-1.62,0-.27,0-.37-.04-.63l2.38,.06c-.06,.29-.06,.33-.14,1.53q-.01,.34-.04,.65h2.76c.42,0,.57-.03,.85-.14l.99,.86c-.14,.25-.17,.36-.18,.94-.09,2.71-.28,4.83-.53,5.66-.37,1.18-.98,1.58-2.38,1.58-.49,0-.68-.01-1.66-.1-.05-1.01-.14-1.43-.43-2.23,.63,.17,1.25,.25,1.65,.25,.61,0,.76-.2,.92-1.3,.13-.85,.24-2.45,.24-3.53h-2.42q-.1,.84-.19,1.27c-.56,2.56-1.76,4.21-4.33,5.9-.57-.9-.95-1.33-1.65-1.93,1.69-.89,2.66-1.79,3.29-3.07,.32-.65,.46-1.1,.63-2.17h-1.58c-.85,0-1.11,.01-1.71,.08v-2.17c.62,.09,.85,.1,1.75,.1h1.75Z"/><path class="cls-2" d="M71.53,17.25c.6,.09,1.28,.11,2.6,.11h6.06c1.27,0,1.75-.03,2.6-.11v2.44c-.61-.06-1.16-.08-2.61-.08h-6.03c-1.42,0-1.84,.01-2.61,.08v-2.44Z"/><path class="cls-2" d="M85.38,24.05c.05-.53,.06-.9,.08-1.94v-7.37c-.01-1.09-.01-1.15-.09-1.84h2.45c-.05,.33-.05,.53-.06,1.85v1.74c2,.65,3.99,1.55,5.76,2.64l-1.2,2.15c-1.05-.75-2.52-1.56-3.99-2.2-.38-.15-.42-.16-.46-.19-.04-.01-.06-.03-.11-.06v3.29c0,.94,.03,1.61,.08,1.94h-2.44Zm5.73-10.44c.49,.56,.9,1.14,1.25,1.81l-1.2,.58c-.42-.8-.75-1.27-1.25-1.85l1.2-.54Zm1.69-.76c.47,.51,.82,.99,1.27,1.76l-1.17,.57c-.44-.8-.8-1.31-1.24-1.81l1.14-.52Z"/></g><path class="cls-2" d="M13.95,0H30V16.05c0,7.7-6.25,13.95-13.95,13.95H0V13.95C0,6.25,6.25,0,13.95,0Z"/><g class="cls-5"><path class="cls-1" d="M15,19.78c-.1,0-.19-.04-.26-.11l-6.73-4.47s-.03-.1-.03-.2,.04-.19,.11-.26l6.58-4.37c.14-.13,.23-.16,.33-.16s.19,.04,.26,.11l6.73,4.49s.03,.1,.03,.2-.04,.19-.11,.26l-6.58,4.35c-.14,.13-.23,.17-.33,.17Z"/><path class="cls-1" d="M15.08,10.66h0m-.08,.07s.04,.03,.07,.05l6.36,4.23-6.36,4.21s-.05,.03-.07,.05c-.02-.02-.05-.03-.07-.05l-6.36-4.21,6.36-4.23s.05-.03,.07-.05m0-.98c-.21,0-.43,.08-.59,.24l-6.65,4.43c-.32,.32-.32,.86,0,1.18l6.65,4.41c.16,.16,.38,.24,.59,.24s.43-.08,.59-.24l6.65-4.41c.32-.32,.32-.86,0-1.18l-6.65-4.43c-.16-.16-.38-.24-.59-.24h0Z"/></g><g><path d="M17.63,161.53h-.73c-.36,0-.61,.01-.94,.04,.04-.3,.05-.68,.05-1.29v-1.42c0-.6-.01-.96-.05-1.28,.32,.04,.62,.05,1.08,.05h1.63c.53,0,.8-.01,1.09-.05-.04,.34-.05,.67-.05,1.27v1.42c0,.67,.01,1.04,.04,1.26,.72-.47,1.18-1.04,1.52-1.86h-.58c-.23,0-.43,.01-.61,.05v-1.21c.2,.05,.4,.06,.72,.06h.58c.31,0,.47-.01,.64-.05l.59,.59v-1c0-.32-.02-.58-.07-.8h1.32c-.05,.16-.07,.47-.07,.78v.25c.16,.43,.2,.53,.49,.97,.5-.44,.83-.82,1.19-1.37l1.02,.76c-.76,.86-.95,1.06-1.52,1.51,.54,.62,1.07,1.04,1.86,1.45-.37,.42-.52,.65-.71,1.1-.34-.2-.76-.56-1.2-1.02-.43-.44-.83-1.03-1.21-1.76,.04,.2,.06,.53,.08,.97v1.1c0,.37-.13,.62-.38,.74-.22,.11-.62,.16-1.3,.16h-.49c-.05-.49-.11-.73-.31-1.13,.38,.05,.61,.07,.83,.07,.43,0,.48-.02,.48-.26v-2.46c-.35,.97-.56,1.46-.88,1.94-.42,.65-.88,1.12-1.51,1.54-.24-.4-.41-.6-.79-.94,.12-.06,.16-.08,.26-.16-.23-.01-.49-.02-.92-.02v1.48h.25c.47,0,.68-.01,.92-.05v1.24c-.3-.04-.55-.05-.92-.05h-.25v1.9c.49-.14,.66-.2,1.28-.4l.05,1.19c-1.46,.48-1.86,.6-3.73,1.09-.32,.08-.48,.13-.7,.23l-.22-1.39c.18,0,.22,0,.6-.07v-3.12c0-.48-.01-.79-.06-1.13h1.19c-.05,.36-.06,.61-.06,1.06v2.97c.22-.05,.3-.07,.5-.12v-4.82Zm-.46-1.12h1.4v-1.63h-1.4v1.63Zm3.27,3.71c0-.44-.01-.66-.05-.91,.31,.04,.56,.05,1.09,.05h3.38c.56,0,.84-.01,1.1-.05-.04,.26-.05,.54-.05,1.03v2.79c0,.7,.01,1.01,.06,1.3h-1.28v-.46h-3.05v.47h-1.27c.05-.32,.06-.64,.06-1.28v-2.94Zm1.21,.89h3.05v-.66h-3.05v.66Zm0,1.77h3.05v-.73h-3.05v.73Z"/><path d="M33.44,160.04c-.13,.01-.18,.01-.36,.05-.76,.13-1.22,.19-1.79,.23-.01,.83-.01,.89-.01,1.27,.41,.35,.58,.72,.58,1.33,0,.41-.08,.77-.28,1.14-.07,.14-.12,.23-.41,.67-.3,.47-.43,.8-.43,1.09,0,.47,.58,.66,1.96,.66,.67,0,1.42-.08,1.98-.23,.65-.16,.91-.46,.91-1.03,0-.43-.07-.78-.26-1.38-.18-.56-.19-.6-.3-.84,.67,.25,.94,.31,1.61,.38q.05,.16,.11,.41t.13,.47c.11,.37,.17,.78,.17,1.2,0,.85-.3,1.43-.94,1.76-.48,.26-.96,.38-1.86,.49-.55,.07-1.2,.11-1.73,.11-1.08,0-1.98-.14-2.45-.4-.55-.3-.79-.68-.79-1.29,0-.37,.1-.67,.35-1.07h-.02c-.11,.07-.23,.11-.36,.11-.47,0-.95-.28-1.21-.7-.18-.29-.29-.73-.29-1.13,0-1.15,.92-2.09,2.07-2.09h.13c0-.08,0-.28,.01-.54v-.37h-.78c-.32,0-.58-.01-.92-.02-.12-.01-.2-.01-.26-.01-.04,0-.11,0-.19,.01v-1.32c.35,.1,.83,.13,1.67,.13h.52c0-.11,0-.2,.01-.25v-.44c0-.47-.01-.62-.06-.91h1.52c-.06,.26-.07,.34-.11,.84q-.01,.12-.01,.41c0,.11,0,.14-.01,.29,.83-.07,1.65-.22,2.05-.36l.06,1.33Zm-3.6,2.28c-.44,0-.83,.44-.83,.96,0,.47,.25,.77,.65,.77,.47,0,.85-.44,.85-1,0-.47-.19-.7-.62-.72-.02-.01-.04-.01-.05-.01Zm5.48-3.89c1.1,.82,1.93,1.64,2.73,2.71l-1.15,.92c-.65-1.02-1.73-2.16-2.66-2.81l1.08-.83Z"/><path d="M42.66,157.48c.05,.8,.41,2.53,.79,3.75q.78-.29,3.11-1.06c.22-.07,.28-.1,.46-.18l.52,1.51c-1.04,.2-2.61,.66-3.96,1.15-1.75,.65-2.63,1.42-2.63,2.28s.82,1.25,2.75,1.25c1.5,0,2.97-.18,3.87-.49l.13,1.64c-.26,0-.32,.01-.97,.08-1.29,.13-1.97,.18-2.81,.18-1.67,0-2.71-.2-3.48-.66-.66-.4-1.04-1.14-1.04-2,0-.8,.38-1.57,1.07-2.15,.47-.4,.85-.64,1.63-1.03-.3-.97-.5-1.77-.8-3.25-.12-.58-.13-.6-.19-.78l1.56-.25Z"/><path d="M57.98,160.4c.14,.53,.18,.64,.31,.96h.89c.54,0,.8-.01,1.18-.07v1.24c-.35-.06-.61-.07-1.13-.07h-.32c.4,.53,.96,1.01,1.69,1.45-.25,.4-.41,.77-.54,1.27-.37-.26-.5-.37-.83-.67-.1,1.69-.17,2.29-.36,2.88-.18,.59-.59,.8-1.46,.8-.24,0-.49-.01-.95-.06-.05-.62-.08-.79-.26-1.24,.55,.11,.8,.13,1.13,.13s.42-.07,.49-.32c.1-.4,.16-.85,.2-1.61h-1.25c-.23,.76-.53,1.34-.98,1.88-.5,.6-1,.96-1.83,1.37-.16-.37-.42-.73-.78-1.06,.79-.3,1.3-.65,1.78-1.2,.25-.29,.36-.48,.56-1h-.32c-.4,0-.58,.01-.82,.05v-.8c-.22,.24-.4,.41-.85,.8-.12-.3-.23-.48-.44-.76v2.6c0,.92-.3,1.21-1.25,1.21-.18,0-.38-.01-.67-.04-.04-.55-.1-.8-.28-1.25,.3,.06,.56,.1,.71,.1,.31,0,.37-.05,.37-.31v-2.29h-1c-.11,1.87-.36,2.93-.92,3.97-.28-.41-.52-.66-.94-1.03,.29-.54,.42-.96,.54-1.7,.16-1.03,.25-3.03,.25-5.54,0-1.6-.01-1.97-.07-2.51,.32,.04,.67,.05,1.09,.05h1.18c.49,0,.77-.01,1.02-.05-.02,.26-.04,.48-.04,1.04v5.28c.59-.44,1.02-.9,1.4-1.46h-.2c-.4,0-.65,.01-.94,.05v-1.2c.36,.05,.61,.06,1.08,.06h.66c.14-.34,.22-.53,.36-.96h-.84c-.53,0-.72,.01-1.07,.04v-1.14c.25,.04,.48,.05,.78,.05-.22-.49-.4-.8-.79-1.37l1.02-.47c.42,.67,.67,1.19,.91,1.83h.29c.17-.77,.26-1.46,.26-1.94v-.17l1.25,.08c-.01,.08-.08,.48-.22,1.21-.08,.49-.1,.59-.16,.82h.79c.36-.55,.61-1.12,.83-1.85l1.18,.4q-.05,.1-.23,.47c-.08,.17-.48,.84-.59,.98h.23c.49,0,.71-.01,.98-.06v1.16c-.36-.04-.54-.05-1.13-.05h-.96Zm-6.94,1.19l-.02,1.67h.95v-1.67h-.92Zm.92-2.73h-.91v1.6h.91v-1.6Zm3.83,3.6c-.29,.52-.62,1-1.12,1.54,.11,.01,.36,.01,.58,.01h.56c.02-.19,.05-.55,.05-.77,0-.13-.01-.24-.02-.38l1.27,.04q-.01,.08-.02,.28c0,.16-.05,.6-.08,.84h1.75c-.55-.6-.9-1.07-1.14-1.55h-1.82Zm.83-2.05c-.16,.48-.19,.6-.32,.96h.88c-.06-.22-.17-.59-.26-.96h-.29Z"/><path d="M63.72,159.28c-.78,.16-1.03,.19-1.75,.3-.1-.41-.22-.7-.44-1.15,1.98-.2,3.87-.67,4.62-1.15l.78,1.1c-.86,.3-1.42,.47-1.94,.61v1.55h.96c.43,0,.73-.01,1.01-.06v1.31c-.3-.05-.59-.06-1.03-.06h-.88c.47,.86,1.03,1.52,1.92,2.24-.24,.32-.48,.78-.64,1.18-.71-.72-.97-1.09-1.4-1.92,.04,.41,.06,.9,.06,1.51v2.09c0,.76,.01,1.1,.07,1.52h-1.43c.06-.44,.08-.84,.08-1.52v-2c0-.48,.02-1.03,.06-1.44-.35,.88-.52,1.21-.82,1.69-.34,.52-.59,.84-1.04,1.32-.24-.56-.42-.9-.67-1.26,.52-.48,.9-.95,1.31-1.61,.31-.5,.78-1.39,.94-1.8h-.86c-.47,0-.77,.02-1.1,.07v-1.33c.31,.06,.59,.07,1.13,.07h1.08v-1.26Zm5.28-1.13c-.06,.4-.07,.74-.07,1.45v4.53c0,.77,.01,1.07,.06,1.43h-1.42c.05-.35,.06-.6,.06-1.4v-4.56c0-.7-.01-1.03-.07-1.45h1.44Zm2.85-.72c-.06,.48-.08,.95-.08,1.63v7.71c0,.64-.16,.98-.54,1.19-.29,.16-.7,.2-1.67,.2-.3,0-.48,0-.89-.02-.1-.54-.19-.82-.41-1.33,.68,.07,1.14,.11,1.58,.11,.53,0,.61-.05,.61-.36v-7.5c0-.6-.02-1.1-.07-1.63h1.46Z"/></g><g><path class="cls-3" d="M17.33,179.36c-.52,.42-.74,.77-.74,1.13,0,.33,.21,.55,.62,.69,.28,.08,.81,.14,1.42,.14,.97,0,1.96-.14,2.45-.33l.08,.92c-.13,0-.17,0-.31,.03-.84,.12-1.48,.18-2.16,.18-.83,0-1.52-.09-1.94-.26-.66-.26-.98-.68-.98-1.27s.29-1.07,.98-1.66l.58,.44Zm-1.06-3.14c.46,.12,1.24,.19,2.17,.19,1.09,0,1.69-.04,2.18-.15l.04,.75c-.5,.22-1.29,.7-2.09,1.28l-.58-.46c.5-.33,.62-.39,.9-.56,.09-.05,.11-.06,.21-.11,.06-.04,.08-.05,.16-.1-.42,.06-.74,.08-1.17,.08-.5,0-1.17-.04-1.62-.1-.14-.02-.17-.02-.28-.02l.06-.8Z"/><path class="cls-3" d="M25.34,180.17c-.46,1.06-.95,1.52-1.58,1.52-.85,0-1.47-.89-1.47-2.1,0-.86,.3-1.66,.86-2.28,.66-.72,1.58-1.1,2.69-1.1,1.86,0,3.09,1.14,3.09,2.87,0,1.34-.7,2.41-1.9,2.9-.38,.15-.69,.24-1.23,.34-.12-.37-.19-.5-.41-.78,.62-.1,.98-.18,1.33-.33,.86-.37,1.39-1.21,1.39-2.17,0-.83-.39-1.5-1.1-1.87-.27-.14-.49-.2-.86-.22-.14,1.19-.43,2.36-.82,3.22Zm-1.1-2.83c-.73,.49-1.18,1.34-1.18,2.25,0,.7,.3,1.25,.69,1.25,.29,0,.58-.35,.9-1.08,.31-.74,.58-1.85,.69-2.81-.44,.05-.75,.15-1.1,.38Z"/><path class="cls-3" d="M32.42,177.22c.03-.38,.05-.8,.05-1.14,0-.2,0-.26-.02-.42l.9,.02c-.03,.17-.03,.22-.07,1,0,.14,0,.24-.03,.54h1.86c.36-.02,.42-.02,.59-.08l.39,.35c-.06,.13-.07,.22-.08,.5-.05,1.76-.19,3.04-.41,3.61-.2,.51-.5,.7-1.12,.7-.3,0-.57-.03-1-.11,0-.41-.02-.54-.14-.85,.46,.14,.78,.2,1.05,.2,.36,0,.48-.18,.62-.92,.11-.58,.19-1.68,.19-2.68h-2.01c-.06,.57-.07,.62-.14,.91-.22,1.03-.65,1.83-1.36,2.57-.41,.42-.74,.69-1.28,1.02-.22-.34-.31-.44-.59-.69,.98-.52,1.65-1.18,2.08-2.05,.26-.53,.35-.88,.46-1.74h-1.38c-.5,0-.58,0-.86,.05v-.83c.27,.05,.46,.06,.86,.06h1.44Z"/><path class="cls-3" d="M37.42,178.61c.3,.04,.64,.06,1.23,.06h4.33c.69,0,.88,0,1.19-.05v.93c-.35-.03-.61-.04-1.2-.04h-4.31c-.67,0-.91,0-1.24,.04v-.94Z"/><path class="cls-3" d="M46.14,182.46c.04-.34,.05-.54,.05-1.02v-4.77c0-.55,0-.73-.05-.95h.95c-.04,.26-.05,.53-.05,.98v1.35c1.14,.4,2.26,.93,3.6,1.69l-.47,.79c-.35-.24-.57-.38-.98-.61-.61-.33-1.48-.76-1.92-.94q-.13-.06-.26-.14l.02,.31c0,.07,0,.32,0,.4v1.9c0,.42,.02,.72,.05,1.02h-.94Zm3.37-6.36c.38,.42,.55,.68,.83,1.2l-.5,.27c-.26-.5-.49-.83-.83-1.22l.5-.25Zm.94-.46c.38,.42,.55,.66,.82,1.17l-.49,.28c-.25-.46-.47-.8-.82-1.2l.48-.25Z"/><path class="cls-3" d="M54.06,176.6c.22-.5,.32-.78,.34-1.03l.88,.11c-.05,.07-.06,.1-.1,.18q-.09,.21-.25,.58s-.05,.1-.06,.14t.06,0h.04s.18,0,.4-.02c.86-.03,1.7-.14,2.13-.27l.05,.76q-.18,.02-.62,.07c-.56,.07-1.59,.14-2.38,.16-.28,.54-.53,.9-.86,1.25v.02q.06-.05,.18-.13c.35-.27,.78-.42,1.22-.42,.3,0,.59,.1,.78,.26,.18,.15,.27,.32,.33,.61,.65-.24,1.08-.4,1.29-.47,.41-.14,.44-.15,.57-.23l.33,.77c-.45,.08-.98,.25-2.1,.66q0,.29,0,.43v.38c0,.14,0,.22,0,.28,0,.15,0,.27,.02,.39l-.78,.02c.02-.16,.05-.61,.05-1.04v-.19c-.98,.45-1.34,.77-1.34,1.19,0,.48,.42,.66,1.54,.66,.84,0,1.71-.13,2.21-.33l.08,.86c-.14,0-.18,0-.35,.04-.59,.09-1.34,.14-1.99,.14-.81,0-1.34-.1-1.73-.32-.35-.2-.56-.56-.56-.98,0-.74,.66-1.38,2.05-1.97-.04-.34-.22-.51-.54-.51-.48,0-1.07,.29-1.7,.83-.32,.27-.5,.47-.66,.7l-.62-.62c.38-.28,.86-.83,1.29-1.46,.1-.15,.26-.42,.5-.81h-.91c-.2-.02-.35-.02-.46-.02h-.05s-.06,0-.12,0l.02-.76c.4,.07,.83,.1,1.56,.1h.29Z"/><path class="cls-3" d="M60.7,178.24h-.48c-.25,0-.4,0-.63,.03,.02-.2,.03-.46,.03-.84v-.92c0-.38,0-.62-.03-.83,.23,.02,.41,.03,.72,.03h1.02c.36,0,.54,0,.73-.03-.02,.22-.03,.45-.03,.82v.92c0,.46,0,.69,.02,.84-.17-.02-.35-.02-.64-.02h-.07v1.08h.22c.31,0,.5,0,.64-.03v.7c-.19-.02-.38-.03-.64-.03h-.22v1.42c.35-.1,.5-.16,.94-.31l.03,.66q-.66,.23-2.48,.75c-.26,.07-.3,.09-.46,.14l-.14-.78c.17-.02,.22-.02,.44-.06v-2.12c0-.3,0-.5-.04-.73h.68c-.03,.25-.04,.41-.04,.7v2.02q.23-.06,.43-.1v-3.3Zm-.43-.62h1.12v-1.27h-1.12v1.27Zm2.03-1.3c.14,.03,.27,.04,.51,.04h.38c.22,0,.3,0,.42-.03l.35,.35c-.23,.6-.42,.98-.62,1.28-.27,.42-.58,.72-1.03,1.01-.13-.22-.24-.34-.45-.52,.66-.35,1.05-.79,1.33-1.48h-.46c-.17,0-.32,0-.46,.03v-.68Zm.27,3.66c0-.3,0-.41-.02-.58,.19,.02,.37,.03,.7,.03h2.18c.38,0,.54,0,.73-.03-.02,.18-.03,.37-.03,.67v1.85c0,.45,0,.65,.04,.84h-.72v-.33h-2.21v.34h-.71c.03-.2,.04-.41,.04-.83v-1.97Zm3.91-3.61c-.46,.51-.66,.7-1.05,1.01,.39,.46,.77,.76,1.33,1.05-.2,.22-.29,.36-.41,.61-.3-.18-.55-.39-.87-.71-.32-.33-.58-.71-.85-1.23,.02,.21,.04,.42,.05,.67,0,.16,0,.32,0,.49,0,.56-.05,.71-.24,.82-.13,.06-.41,.1-.82,.1t-.34,0c-.03-.3-.06-.42-.18-.64,.27,.04,.44,.06,.58,.06,.3,0,.33-.02,.33-.18v-2.37c0-.22-.02-.39-.05-.54h.74c-.03,.12-.05,.31-.05,.52v.18c.13,.32,.18,.42,.38,.72,.36-.29,.6-.55,.86-.94l.56,.43Zm-3.24,4.25h2.21v-.58h-2.21v.58Zm0,1.22h2.21v-.64h-2.21v.64Z"/><path class="cls-3" d="M70.44,175.93c-.11,.2-.14,.28-.39,.91-.51,1.34-.85,2.13-1.08,2.62l.02,.02q.05-.06,.16-.2c.3-.38,.73-.61,1.14-.61,.37,0,.7,.18,.86,.46,.14,.25,.18,.51,.18,1.45,0,.52,.04,.7,.16,.83,.1,.1,.26,.16,.48,.16,.5,0,.87-.3,1.13-.91,.15-.35,.26-.81,.3-1.22,.22,.22,.3,.29,.74,.52-.14,.66-.33,1.14-.61,1.54-.37,.55-.97,.86-1.65,.86-.62,0-1.05-.25-1.22-.71-.09-.22-.11-.46-.11-1.05,0-.54,0-.72-.06-.86-.06-.2-.18-.29-.38-.29-.46,0-.95,.42-1.36,1.15-.25,.44-.6,1.37-.7,1.82l-.86-.28q.12-.24,1.26-3.34c.85-2.31,1.02-2.79,1.08-3.13l.91,.24Z"/><path class="cls-3" d="M76.37,177.09c.1-.5,.17-1.05,.17-1.29,0-.02,0-.06,0-.11l.89,.08q-.06,.18-.15,.76c-.04,.24-.05,.32-.09,.53,.61-.06,1.02-.14,1.39-.26l.04,.77-.24,.04c-.38,.08-.94,.15-1.33,.18-.1,.54-.31,1.42-.52,2.15-.24,.83-.43,1.38-.9,2.57l-.84-.34c.57-1.03,1.15-2.77,1.46-4.35-.07,0-.48,0-.65,0l-.69-.02v-.78c.3,.06,.53,.07,.99,.07h.47Zm2.36,2.96c-.21,.26-.27,.34-.33,.46-.06,.14-.1,.3-.1,.42,0,.42,.46,.65,1.28,.65,.59,0,1.33-.12,1.79-.29l.06,.83c-.13,.02-.18,.02-.38,.06-.63,.1-1,.14-1.46,.14-.68,0-1.18-.1-1.54-.3-.34-.2-.56-.56-.56-.97,0-.38,.14-.7,.58-1.28l.66,.28Zm2.41-1.18c-.38-.04-.61-.06-.98-.06-.76,0-1.28,.06-2.06,.25l-.06-.74c1.06-.22,1.46-.26,2.27-.26h.82l.02,.81Zm-1.22-3.02c.38,.42,.55,.68,.83,1.2l-.5,.27c-.26-.5-.49-.83-.83-1.22l.5-.25Zm.94-.46c.38,.42,.55,.66,.82,1.17l-.49,.28c-.25-.46-.47-.8-.82-1.2l.48-.25Z"/><path class="cls-3" d="M85.53,180.24c-.31,.3-.6,.52-1.02,.76-.08-.14-.12-.19-.29-.38-.26,.14-1.02,.47-1.33,.59-.22,.09-.42,.18-.46,.2l-.15-.79c.31-.06,.42-.09,.94-.27v-2.25h-.28c-.24,0-.44,.02-.64,.04v-.73c.2,.03,.38,.04,.66,.04h.26v-1.04c0-.39-.02-.64-.05-.88h.79c-.04,.26-.05,.48-.05,.89v1.03h.16c.29,0,.46,0,.61-.03v.71c-.22-.02-.38-.03-.6-.03h-.17v1.98c.23-.1,.32-.14,.57-.27v.5c.5-.32,.87-.66,1.1-1.06h-.3c-.34,0-.57,.02-.74,.04v-.68c.18,.03,.38,.04,.74,.04h3.46c.38,0,.62-.02,.82-.05v.68c-.2-.02-.46-.03-.82-.03h-2.44c-.1,.17-.14,.23-.29,.43h2.59c.38,0,.56,0,.78-.03-.02,.13-.02,.15-.04,.48-.06,1.08-.19,1.89-.36,2.19-.16,.3-.39,.39-.98,.39-.22,0-.45,0-.7-.02-.03-.29-.09-.46-.22-.71,.39,.06,.69,.08,.94,.08,.22,0,.34-.05,.39-.14,.1-.23,.2-.87,.25-1.66h-.39c-.21,.47-.46,.89-.77,1.24-.25,.28-.68,.67-1.01,.91-.2,.14-.35,.24-.68,.42-.18-.25-.24-.32-.5-.51,.68-.33,1.01-.54,1.44-.94,.34-.31,.62-.69,.82-1.13h-.61c-.48,.76-1.18,1.34-2.21,1.85-.12-.2-.22-.33-.44-.51,.89-.37,1.54-.82,1.92-1.33h-.72Zm.23-2.02c-.31,0-.55,0-.73,.03,.02-.22,.03-.44,.03-.75v-1.11c0-.35,0-.48-.03-.72,.24,.03,.43,.04,.79,.04h2.24c.38,0,.62,0,.85-.04-.03,.22-.03,.38-.03,.77v1.06c0,.35,0,.58,.03,.74-.18-.02-.41-.02-.73-.02h-2.42Zm0-1.5h2.43v-.43h-2.43v.43Zm0,.97h2.43v-.45h-2.43v.45Z"/><path class="cls-3" d="M92,177.95c-.56,.37-.87,.54-1.44,.81-.09-.25-.19-.42-.42-.67,.75-.3,1.46-.73,2.09-1.25,.56-.46,.91-.84,1.24-1.36h.82c.34,.53,.7,.9,1.33,1.39,.66,.51,1.33,.89,2.1,1.18-.18,.26-.27,.43-.38,.73-.58-.27-.9-.46-1.48-.85v.64c-.19-.02-.41-.03-.7-.03h-2.5c-.23,0-.46,0-.66,.03v-.62Zm-.71,4.77c.03-.24,.05-.48,.05-.81v-1.83c0-.31-.02-.54-.04-.77,.17,.02,.36,.03,.66,.03h3.89c.3,0,.5,0,.67-.03-.03,.22-.04,.44-.04,.77v1.83c0,.34,0,.56,.05,.81h-.8v-.42h-3.64v.42h-.8Zm.8-1.07h3.64v-1.65h-3.64v1.65Zm3.07-3.79c.25,0,.38,0,.55-.02-.83-.6-1.3-1.04-1.81-1.73-.53,.74-.96,1.17-1.74,1.73,.17,0,.3,.02,.51,.02h2.49Z"/><path class="cls-3" d="M98.85,180.39c.71,.55,1.13,.98,1.72,1.73l-.66,.61c-.56-.78-1.02-1.26-1.67-1.79l.61-.55Z"/><path class="cls-3" d="M16.62,185.65c.26,.03,.41,.04,.76,.04,.79,0,1.9-.05,2.5-.11,.22-.02,.4-.06,.53-.1l.44,.56c-.15,.11-.2,.15-.43,.37-.65,.62-1.54,1.31-2.35,1.86,.38-.05,.93-.1,1.92-.19,.52-.04,.94-.07,1.2-.1,.31-.03,.54-.05,.63-.06,.12-.02,.15-.02,.26-.04l.06,.78c-.08,0-.14,0-.18,0-.86,0-1.65,.15-2.25,.42-.38,.18-.72,.43-.93,.7-.17,.22-.23,.38-.23,.6,0,.58,.62,.9,1.74,.9,.27,0,.46-.02,.67-.06l.03,.86c-.12,0-.18-.02-.24-.02h-.47c-.78,0-1.55-.18-1.94-.46-.38-.27-.59-.66-.59-1.1s.22-.87,.66-1.25c.21-.18,.39-.3,.78-.5-.44,.08-.62,.1-1.6,.22-1.26,.15-1.85,.24-2.14,.32l-.08-.82h.16c.24,0,.9-.07,1.37-.15,.74-.45,1.96-1.42,2.64-2.11-.55,.1-.97,.13-2.34,.19-.22,0-.35,.02-.5,.04l-.05-.79Z"/><path class="cls-3" d="M26.04,189.77c-.46,1.06-.95,1.52-1.58,1.52-.85,0-1.47-.89-1.47-2.1,0-.86,.3-1.66,.86-2.28,.66-.72,1.58-1.1,2.69-1.1,1.86,0,3.09,1.14,3.09,2.87,0,1.34-.7,2.41-1.9,2.9-.38,.15-.69,.24-1.23,.34-.12-.37-.19-.5-.41-.78,.62-.1,.98-.18,1.33-.33,.86-.37,1.39-1.21,1.39-2.17,0-.83-.39-1.5-1.1-1.87-.27-.14-.49-.2-.86-.22-.14,1.19-.43,2.36-.82,3.22Zm-1.1-2.83c-.73,.49-1.18,1.34-1.18,2.25,0,.7,.3,1.25,.69,1.25,.29,0,.58-.35,.9-1.08,.31-.74,.58-1.85,.69-2.81-.44,.05-.75,.15-1.1,.38Z"/><path class="cls-3" d="M35.73,186.03s0-.09,0-.13c0-.51,.41-.93,.92-.93s.93,.42,.93,.93-.42,.93-.93,.93c-.09,0-.18-.02-.26-.04-.02,.04-.03,.1-.05,.17-.4,1.52-1.02,2.61-1.99,3.51-.72,.67-1.42,1.1-2.54,1.57-.18-.36-.27-.48-.58-.78,.71-.22,1.18-.44,1.77-.83,1.26-.83,2.05-1.98,2.46-3.61h-3.81c-.54,0-.75,.02-1.06,.06v-.9c.32,.05,.54,.06,1.08,.06h4.06Zm.38-.13c0,.3,.24,.54,.54,.54s.54-.25,.54-.54-.24-.54-.54-.54-.54,.25-.54,.54Z"/><path class="cls-3" d="M39.61,185.52c-.03,.23-.04,.4-.04,.95l-.03,4.49c.86-.15,1.6-.44,2.22-.84,.76-.5,1.27-1.06,1.69-1.87,.26,.36,.34,.46,.63,.69-.54,.82-1.05,1.35-1.73,1.81-.77,.52-1.61,.84-2.85,1.08-.24,.05-.34,.07-.46,.13l-.44-.54c.06-.18,.06-.3,.06-.7l.02-4.24v-.22c0-.39,0-.56-.03-.76h.95Z"/><path class="cls-3" d="M51.23,185.85c-.14,.12-.15,.13-.36,.34-.52,.55-1.17,1.11-1.84,1.59v3.22c0,.55,.02,.81,.05,1.06h-.95c.04-.3,.05-.47,.05-1.06v-2.69c-.98,.6-1.48,.82-2.94,1.34-.14-.34-.22-.46-.45-.77,1.54-.41,2.9-1.08,4.17-2.07,.72-.56,1.27-1.11,1.5-1.5l.77,.54Z"/><path class="cls-3" d="M58.68,186.57c-.07,.1-.09,.13-.21,.44-.21,.54-.59,1.16-1,1.62-.26,.3-.5,.5-.94,.85-.22-.24-.32-.31-.67-.53,.51-.33,.78-.55,1.09-.9,.27-.31,.45-.59,.61-.95t.02-.06s.02-.02,.02-.05c-.03,0-.04,0-.07,.02,0,0-.06,.02-.13,.02l-2.82,.48,.64,3.49c.1,.55,.14,.71,.23,1.01l-.9,.16c-.02-.3-.06-.6-.14-1.04l-.65-3.49-.96,.16c-.42,.07-.58,.1-.84,.18l-.14-.85c.31,0,.54-.03,.88-.09l.93-.15-.14-.81c-.07-.36-.1-.5-.18-.77l.9-.14c.02,.23,.03,.38,.11,.78l.14,.8,3.29-.54c.22-.04,.3-.06,.43-.13l.51,.46Z"/><path class="cls-3" d="M59.58,188.21c.3,.04,.64,.06,1.23,.06h4.33c.69,0,.88,0,1.19-.05v.93c-.35-.03-.61-.04-1.2-.04h-4.31c-.67,0-.91,0-1.24,.04v-.94Z"/><path class="cls-3" d="M67.38,187.28c.29,0,1.06-.08,1.73-.18,.14-.75,.22-1.38,.22-1.64,0-.03,0-.08,0-.14l.88,.09c-.02,.1-.04,.16-.06,.26l-.19,1.06c-.03,.18-.03,.2-.06,.3,.22-.02,.34-.02,.52-.02,.51,0,.88,.13,1.13,.39,.28,.29,.38,.66,.38,1.37,0,1.32-.22,2.4-.58,2.85-.22,.26-.45,.36-.85,.36-.33,0-.68-.08-1.22-.26,.02-.14,.02-.24,.02-.3,0-.15,0-.28-.06-.55,.43,.2,.9,.34,1.17,.34,.26,0,.4-.18,.53-.62,.13-.42,.21-1.18,.21-1.87,0-.75-.22-.99-.88-.99-.17,0-.3,0-.51,.03-.32,1.33-.63,2.22-1.14,3.29-.06,.13-.24,.48-.53,1.06l-.78-.43c.24-.3,.56-.88,.83-1.48,.35-.78,.54-1.32,.82-2.38-.62,.08-1.2,.18-1.51,.27l-.08-.8Zm5.36-.73c.81,.92,1.3,1.81,1.66,3l-.75,.39c-.15-.64-.34-1.15-.66-1.73-.3-.57-.55-.92-.93-1.32l.67-.34Zm.29-1.37c.38,.42,.55,.68,.83,1.2l-.5,.27c-.26-.5-.49-.83-.83-1.22l.5-.25Zm.94-.46c.38,.42,.55,.66,.82,1.17l-.49,.28c-.25-.46-.47-.8-.82-1.2l.48-.25Z"/><path class="cls-3" d="M80.75,187.12c.09,.32,.14,.48,.26,.74h.62c.35,0,.54-.02,.78-.06v.71c-.24-.04-.42-.05-.76-.05h-.29c.33,.42,.67,.72,1.21,1.04-.18,.22-.3,.4-.42,.64-.24-.18-.33-.26-.52-.44,0,.16-.02,.22-.02,.34-.06,1.13-.16,1.66-.34,1.94-.14,.22-.35,.3-.79,.3-.18,0-.38,0-.67-.04-.02-.33-.05-.45-.14-.7,.34,.07,.55,.1,.78,.1s.3-.06,.35-.24c.08-.29,.12-.64,.15-1.2h-.98c-.14,.48-.34,.87-.63,1.23-.32,.4-.67,.66-1.26,.95-.1-.21-.23-.4-.44-.59,.58-.23,.94-.48,1.26-.88,.16-.2,.26-.39,.38-.71h-.29c-.28,0-.41,0-.58,.03v-.58c-.17,.18-.26,.26-.51,.5-.13-.19-.22-.31-.37-.46v1.87c0,.57-.18,.74-.76,.74-.14,0-.27,0-.49-.02-.02-.31-.05-.44-.15-.7,.21,.05,.39,.07,.51,.07,.22,0,.26-.03,.26-.22v-1.67h-.79c-.07,1.22-.25,2-.6,2.67-.16-.22-.3-.37-.54-.57,.2-.38,.28-.65,.37-1.17,.12-.75,.18-2.07,.18-4.13,0-.66,0-.96-.04-1.24,.21,.02,.42,.03,.7,.03h.7c.3,0,.5,0,.67-.03-.02,.18-.02,.34-.02,.74v3.49c.46-.34,.73-.62,1.03-1.06h-.22c-.26,0-.43,0-.64,.03v-.69c.26,.04,.41,.05,.71,.05h.48c.13-.29,.21-.48,.29-.74h-.62c-.33,0-.46,0-.7,.03v-.66c.19,.03,.32,.04,.6,.04-.19-.44-.29-.61-.58-1.02l.58-.26c.29,.47,.45,.78,.64,1.28h.26c.12-.5,.19-1.02,.19-1.38,0-.02,0-.06,0-.1l.72,.04c-.03,.16-.04,.19-.06,.32-.07,.45-.14,.82-.22,1.12h.64c.3-.46,.45-.78,.6-1.29l.66,.22c-.19,.42-.41,.8-.59,1.06h.24c.32,0,.49,0,.68-.04v.66c-.22-.03-.38-.04-.74-.04h-.72Zm-4.59,.72l-.02,1.25h.76v-1.25h-.74Zm.74-1.85h-.74v1.22h.74v-1.22Zm2.37,2.47c-.25,.43-.4,.65-.8,1.09,.12,.02,.3,.02,.54,.02h.42c.03-.19,.05-.39,.05-.58,0-.08,0-.14-.02-.25l.72,.02c0,.06-.02,.07-.02,.18-.02,.19-.04,.41-.08,.62h1.02c.18,0,.26,0,.4,0-.42-.42-.66-.74-.86-1.1h-1.37Zm.56-1.34c-.12,.37-.18,.53-.26,.74h.8c-.07-.18-.12-.34-.23-.74h-.3Z"/><path class="cls-3" d="M84.75,186.31c-.5,.11-.7,.15-1.23,.23-.07-.24-.14-.4-.27-.64,.92-.1,1.51-.23,2.34-.49,.38-.13,.58-.21,.73-.3l.46,.61c-.54,.18-.97,.32-1.33,.42v1.13h.7c.29,0,.49,0,.68-.04v.73c-.19-.03-.38-.04-.7-.04h-.65c.33,.63,.7,1.09,1.31,1.61-.15,.19-.26,.4-.37,.64-.51-.54-.72-.83-1.02-1.42,.02,.32,.04,.73,.04,1.15v1.52c0,.5,0,.74,.05,1h-.82c.04-.29,.06-.55,.06-1v-1.47c0-.37,.02-.81,.04-1.12-.21,.56-.34,.83-.58,1.22-.24,.4-.43,.66-.76,1-.14-.3-.25-.49-.4-.68,.38-.36,.65-.7,.94-1.18,.22-.38,.5-.92,.62-1.26h-.63c-.31,0-.52,.02-.74,.05v-.74c.2,.04,.38,.05,.76,.05h.76v-.95Zm3.37-.66c-.04,.26-.05,.48-.05,.95v3.04c0,.53,0,.7,.04,.94h-.81c.03-.23,.04-.39,.04-.93v-3.05c0-.46,0-.69-.05-.95h.82Zm1.93-.47c-.04,.3-.06,.61-.06,1.06v5.19c0,.42-.1,.62-.38,.74-.17,.07-.39,.1-.86,.1-.24,0-.47,0-.7-.02-.06-.3-.1-.46-.22-.74,.44,.05,.78,.07,1.04,.07,.33,0,.39-.04,.39-.24v-5.09c0-.42-.02-.76-.05-1.06h.84Z"/><path class="cls-3" d="M91.05,186.35c.17,.02,.23,.02,.36,.02,.22,0,.54,0,1.43-.05q.52-.02,1.93-.06c0-.68-.02-.82-.05-1.02h.85c-.03,.24-.04,.38-.04,1.01,1.46,0,2.06-.02,2.34-.06v.78c-.29-.03-.66-.04-1.34-.04-.22,0-.35,0-.99,.02v1.47c.16,.34,.22,.66,.22,1.06,0,.86-.41,1.61-1.13,2.13-.32,.22-.68,.4-1.38,.65-.18-.38-.26-.49-.49-.74,.66-.15,.98-.28,1.35-.52,.56-.38,.85-.81,.9-1.35-.22,.43-.64,.67-1.19,.67-.81,0-1.41-.57-1.41-1.34,0-.82,.64-1.4,1.54-1.4,.37,0,.66,.1,.85,.27t0-.1v-.78c-1.28,.02-3.21,.12-3.71,.2l-.02-.8Zm2.14,2.54c0,.42,.3,.7,.73,.7,.49,0,.84-.34,.84-.81,0-.18-.05-.3-.16-.39-.14-.14-.35-.22-.59-.22-.46,0-.82,.3-.82,.71Z"/><path class="cls-3" d="M99.51,185.64c.26,.04,.41,.05,.85,.05,.73,0,1.67-.04,2.45-.1,.26-.02,.34-.03,.45-.1l.43,.6c-.12,.06-.17,.1-.41,.33-1.11,1.06-1.98,1.77-2.54,2.1l.02,.02c.68-.31,1.16-.42,1.8-.42,1.34,0,2.21,.69,2.21,1.75,0,.74-.38,1.34-1.07,1.72-.52,.29-1.16,.44-1.88,.44-.64,0-1.17-.12-1.48-.34-.3-.21-.48-.54-.48-.9,0-.61,.55-1.06,1.29-1.06,.55,0,1.04,.24,1.36,.66,.16,.21,.25,.38,.37,.74,.27-.09,.43-.17,.6-.29,.31-.23,.49-.57,.49-.95,0-.7-.62-1.13-1.64-1.13-1.17,0-2.38,.5-3.33,1.35l-.46-.71c.72-.38,2.6-1.93,3.64-2.99,.02-.02,.11-.11,.14-.14h0c-.29,.03-1.14,.09-2.36,.14-.18,0-.24,.02-.4,.04l-.04-.82Zm1.65,4.73c-.33,0-.54,.16-.54,.42,0,.35,.41,.57,1.08,.57,.16,0,.21,0,.46-.03-.16-.63-.5-.95-1-.95Z"/></g><path class="cls-4" d="M106.79,80.66h-5v-2.5c0-1.38-1.13-2.5-2.5-2.5h-20c-1.38,0-2.5,1.13-2.5,2.5v2.5h-5c-2.75,0-5,2.25-5,5v2.5c0,6.37,4.8,11.57,10.97,12.35,1.57,3.75,4.95,6.57,9.03,7.4v7.75h-7.5c-1.38,0-2.5,1.13-2.5,2.5h0c0,1.38,1.13,2.5,2.5,2.5h20c1.38,0,2.5-1.13,2.5-2.5h0c0-1.37-1.13-2.5-2.5-2.5h-7.5v-7.75c4.08-.82,7.45-3.65,9.03-7.4,6.17-.77,10.97-5.97,10.97-12.35v-2.5c0-2.75-2.25-5-5-5Zm-35,7.5v-2.5h5v9.55c-2.9-1.05-5-3.8-5-7.05Zm35,0c0,3.25-2.1,6-5,7.05v-9.55h5v2.5Z"/></svg>