<?xml version="1.0" encoding="UTF-8"?><svg id="Layer_1" xmlns="http://www.w3.org/2000/svg" viewBox="0 0 178.58 249.45"><defs><style>.cls-1{fill:#e6e6e6;}.cls-2{fill:#fff;}.cls-3{fill:#ffa914;}.cls-4{fill:#b3b3b3;}.cls-5{fill:#ccc;}.cls-6{fill:gray;}.cls-7{fill:#4d4d4d;}.cls-8{opacity:.9;}</style></defs><g><path class="cls-2" d="M13.95,3.09H164.63c6,0,10.86,4.87,10.86,10.86V235.5c0,6-4.87,10.86-10.86,10.86H13.95c-6,0-10.86-4.87-10.86-10.86V13.95C3.09,7.96,7.96,3.09,13.95,3.09Z"/><path class="cls-3" d="M164.63,6.18c4.29,0,7.77,3.49,7.77,7.77V235.5c0,4.29-3.49,7.77-7.77,7.77H13.95c-4.29,0-7.77-3.49-7.77-7.77V13.95c0-4.29,3.49-7.77,7.77-7.77H164.63M164.63,0H13.95C6.25,0,0,6.25,0,13.95V235.5C0,243.2,6.25,249.45,13.95,249.45H164.63c7.71,0,13.95-6.25,13.95-13.95V13.95C178.58,6.25,172.34,0,164.63,0h0Z"/></g><g><path class="cls-3" d="M37.18,15.88c-1.05,0-1.5,.01-2.05,.06v-2.23c.7,.08,1.09,.1,2.09,.1h6.94c.41-.01,.61-.05,.87-.14l1.22,1.37c-.2,.19-.27,.28-.58,.81-1.3,2.19-2.34,3.45-4.02,4.85,.54,.65,.9,1.1,1.51,1.93l-1.9,1.48c-.76-1.24-1.39-2.12-2.45-3.31-1.03-1.18-1.62-1.76-2.55-2.52l1.74-1.22c1.04,.85,1.46,1.24,2.19,2.01,.72-.6,1.52-1.41,1.98-2,.32-.39,.66-.94,.81-1.23l-5.8,.03Z"/><path class="cls-3" d="M56.56,24.11c-1.1-1.39-2.22-2.5-3.64-3.6-1.19,1.41-2.7,2.52-4.66,3.47-.44-.89-.71-1.27-1.42-2,1.65-.63,2.95-1.46,4.1-2.56,1.18-1.13,1.95-2.25,2.55-3.72l-3.29,.05c-1.09,.02-1.49,.05-2.01,.13l-.06-2.25c.49,.06,.84,.09,1.33,.09,.1,0,.34,0,.71-.01l4.33-.06c.6-.01,.67-.01,1.01-.14l1.11,1.14c-.19,.19-.27,.32-.46,.75-.67,1.58-1.15,2.47-1.86,3.42,1.53,1.1,2.05,1.55,4.03,3.43l-1.77,1.88Z"/><path class="cls-3" d="M63.15,15.06c.04-.49,.06-1.23,.06-1.62,0-.27,0-.37-.04-.63l2.38,.06c-.06,.29-.06,.33-.14,1.53q-.01,.34-.04,.65h2.76c.42,0,.57-.03,.85-.14l.99,.86c-.14,.25-.17,.36-.18,.94-.09,2.71-.28,4.83-.53,5.66-.37,1.18-.98,1.58-2.38,1.58-.49,0-.68-.01-1.66-.1-.05-1.01-.14-1.43-.43-2.23,.63,.17,1.25,.25,1.65,.25,.61,0,.76-.2,.92-1.3,.13-.85,.24-2.45,.24-3.53h-2.42q-.1,.84-.19,1.27c-.56,2.56-1.76,4.21-4.33,5.9-.57-.9-.95-1.33-1.65-1.93,1.69-.89,2.66-1.79,3.29-3.07,.32-.65,.46-1.1,.63-2.17h-1.58c-.85,0-1.11,.01-1.71,.08v-2.17c.62,.09,.85,.1,1.75,.1h1.75Z"/><path class="cls-3" d="M71.53,17.25c.6,.09,1.28,.11,2.6,.11h6.06c1.27,0,1.75-.03,2.6-.11v2.44c-.61-.06-1.16-.08-2.61-.08h-6.03c-1.42,0-1.84,.01-2.61,.08v-2.44Z"/><path class="cls-3" d="M85.38,24.05c.05-.53,.06-.9,.08-1.94v-7.37c-.01-1.09-.01-1.15-.09-1.84h2.45c-.05,.33-.05,.53-.06,1.85v1.74c2,.65,3.99,1.55,5.76,2.64l-1.2,2.15c-1.05-.75-2.52-1.56-3.99-2.2-.38-.15-.42-.16-.46-.19-.04-.01-.06-.03-.11-.06v3.29c0,.94,.03,1.61,.08,1.94h-2.44Zm5.73-10.44c.49,.56,.9,1.14,1.25,1.81l-1.2,.58c-.42-.8-.75-1.27-1.25-1.85l1.2-.54Zm1.69-.76c.47,.51,.82,.99,1.27,1.76l-1.17,.57c-.44-.8-.8-1.31-1.24-1.81l1.14-.52Z"/></g><path class="cls-3" d="M13.95,0H30V16.05c0,7.7-6.25,13.95-13.95,13.95H0V13.95C0,6.25,6.25,0,13.95,0Z"/><g class="cls-8"><path class="cls-2" d="M15,19.78c-.1,0-.19-.04-.26-.11l-6.73-4.47s-.03-.1-.03-.2,.04-.19,.11-.26l6.58-4.37c.14-.13,.23-.17,.33-.17s.19,.04,.26,.11l6.73,4.49c.07,.08,.07,.31-.07,.45l-6.58,4.35c-.14,.13-.23,.17-.33,.17Z"/><path class="cls-2" d="M15.08,10.66h0m-.08,.07s.04,.03,.07,.05l6.36,4.23-6.36,4.21s-.05,.03-.07,.05c-.02-.02-.05-.03-.07-.05l-6.36-4.21,6.36-4.23s.05-.03,.07-.05m0-.98c-.21,0-.43,.08-.59,.24l-6.65,4.43c-.32,.32-.32,.86,0,1.18l6.65,4.41c.16,.16,.38,.24,.59,.24s.43-.08,.59-.24l6.65-4.41c.32-.32,.32-.86,0-1.18l-6.65-4.43c-.16-.16-.38-.24-.59-.24h0Z"/></g><g><path d="M18.69,162.47c-.58,0-.98,.02-1.31,.06v-.85c-.58,.34-.79,.46-1.31,.68q-.36-.67-.79-1.27c1.14-.44,2.11-.97,2.9-1.58,.4-.31,.95-.83,1.32-1.26,.25-.28,.38-.44,.65-.86h1.52c.67,.91,1.25,1.49,2.13,2.12,1,.71,1.79,1.12,2.94,1.52-.43,.62-.58,.89-.77,1.38-.54-.25-.89-.44-1.43-.76v.88c-.35-.04-.72-.06-1.27-.06h-1.69v1.35h1.94c.62,0,1.01-.02,1.32-.06v1.34c-.32-.04-.73-.06-1.32-.06h-1.94v1.62h3.12c.63,0,1.15-.02,1.52-.07v1.4c-.4-.06-.9-.08-1.51-.08h-7.48c-.61,0-1.1,.02-1.5,.08v-1.4c.35,.05,.86,.07,1.54,.07h2.97v-1.62h-1.76c-.6,0-1.01,.02-1.33,.06v-1.34c.37,.05,.73,.06,1.33,.06h1.76v-1.35h-1.56Zm4.65-1.21c.25,0,.34,0,.56-.01-1.32-.88-2.08-1.57-2.95-2.72-.7,1.03-1.56,1.85-2.89,2.72,.24,.01,.35,.01,.53,.01h4.75Z"/><path d="M29.64,166.26c-.6,0-.95,.01-1.33,.05,.02-.3,.05-.66,.05-1.26v-3.03c0-.61-.01-.92-.05-1.28,.36,.04,.77,.05,1.33,.05h6.38c.59,0,.92-.01,1.34-.05-.04,.32-.05,.61-.05,1.28v3.03c0,.47,.01,.73,.01,.78,0,.23,0,.26,.04,.48-.37-.04-.74-.05-1.34-.05h-.96c1.02,.54,2.04,.84,3.45,1.02-.43,.54-.58,.76-.74,1.18-1.86-.37-2.61-.67-4.01-1.61l.65-.59h-3.26l.76,.64c-.84,.52-1.38,.78-2.18,1.07-.48,.17-.85,.26-1.83,.48-.2-.49-.4-.8-.73-1.19,1.71-.26,2.54-.5,3.41-1h-.92Zm7.23-6.87c0,.36,.01,.62,.04,.9-.36-.02-.77-.04-1.29-.04h-5.53c-.54,0-.96,.01-1.32,.04,.02-.3,.05-.58,.05-.9v-.92c0-.36-.01-.56-.06-.92,.42,.05,.72,.06,1.37,.06h5.44c.65,0,.94-.01,1.36-.06-.04,.32-.05,.54-.05,.92v.92Zm-7.23,2.94h6.38v-.55h-6.38v.55Zm0,1.45h6.38v-.55h-6.38v.55Zm0,1.49h6.38v-.59h-6.38v.59Zm.49-6.64v.66h5.41v-.66h-5.41Z"/><path d="M44.15,164.54c-.68,1.55-1.45,2.25-2.44,2.25-1.37,0-2.35-1.39-2.35-3.32,0-1.32,.47-2.55,1.32-3.49,1.01-1.1,2.42-1.68,4.13-1.68,2.88,0,4.75,1.75,4.75,4.45,0,2.07-1.08,3.73-2.91,4.47-.58,.24-1.04,.36-1.88,.5-.2-.64-.35-.9-.73-1.4,1.1-.14,1.82-.34,2.39-.66,1.04-.58,1.67-1.72,1.67-3,0-1.15-.52-2.09-1.48-2.66-.37-.22-.68-.31-1.21-.36-.23,1.88-.65,3.54-1.25,4.89Zm-1.76-4.29c-1.01,.72-1.63,1.95-1.63,3.24,0,.98,.42,1.76,.95,1.76,.4,0,.8-.5,1.24-1.54,.46-1.08,.85-2.7,1-4.05-.62,.07-1.05,.24-1.55,.59Z"/><path d="M55.69,159.22c-1.57,.14-2.17,.18-3.74,.22q-.13-.49-.44-1.24h.59c1.71,0,3.93-.17,5.37-.41,1.14-.19,1.57-.3,2.22-.58l.98,1.2c-1.03,.26-2.66,.56-3.63,.67v1.56h2.48c.68,0,1.1-.02,1.5-.07v1.34c-.41-.05-.86-.07-1.47-.07h-2.51v1.45h3.07c.67,0,1.07-.02,1.46-.07v1.36c-.42-.05-.82-.07-1.46-.07h-3.07v2.35c0,.53-.17,.9-.47,1.03-.28,.12-.79,.19-1.34,.19-.36,0-.95-.02-1.63-.08-.06-.53-.13-.8-.36-1.31,.86,.12,1.51,.17,2,.17,.35,0,.46-.08,.46-.37v-1.98h-3.35c-.66,0-1.06,.02-1.48,.07v-1.36c.4,.05,.79,.07,1.48,.07h3.35v-1.45h-2.67c-.53,0-1.09,.02-1.5,.07v-1.34c.4,.05,.8,.07,1.49,.07h2.69v-1.43Z"/><path d="M66.43,160.67c.59,1.19,1.03,1.81,1.98,2.76-.24,.36-.43,.76-.61,1.32-.74-.94-1.08-1.45-1.5-2.39,.04,.42,.05,.86,.05,1.98v2.7c0,.55,.02,.94,.07,1.31h-1.43c.05-.36,.07-.78,.07-1.3v-2.49c0-.68,.04-1.55,.08-2-.49,1.37-1.03,2.36-1.8,3.31-.18-.5-.36-.86-.7-1.33,.85-.83,1.66-2.22,2.22-3.86h-.94c-.42,0-.6,.01-.86,.06v-1.31c.25,.05,.47,.06,.94,.06h1.06v-1.12c0-.46-.02-.76-.07-1.09h1.43c-.05,.34-.07,.62-.07,1.1v1.1h.92c.43,0,.65-.01,.96-.06v1.31c-.3-.05-.54-.06-.94-.06h-.86Zm3.99-3.33c-.06,.41-.08,.9-.08,1.35v7.74c0,.3,.18,.36,1.03,.36,.47,0,.75-.08,.89-.24,.19-.26,.23-.66,.24-2.43,.55,.26,.7,.32,1.31,.44-.06,1.95-.18,2.6-.55,3.05-.29,.34-.88,.48-1.99,.48-.9,0-1.37-.05-1.67-.18-.42-.18-.61-.5-.61-1.04v-8.17c0-.46-.02-.94-.08-1.35h1.52Z"/><path d="M75.22,158.71c.49,.11,1.26,.16,2.78,.16,.32-.72,.43-1.08,.48-1.49l1.57,.17q-.07,.12-.48,1.08c-.06,.13-.08,.17-.11,.22q.1-.01,.76-.05c1.39-.08,2.48-.22,3.14-.41l.08,1.37q-.34,.02-.95,.1c-.88,.11-2.4,.2-3.61,.24-.35,.68-.68,1.16-1.1,1.6v.02q.1-.06,.25-.18c.44-.34,1.08-.54,1.69-.54,.94,0,1.52,.44,1.72,1.27,.92-.34,1.54-.55,1.83-.65,.65-.23,.7-.24,.89-.36l.56,1.38c-.34,.05-.7,.14-1.33,.32-.17,.05-.77,.25-1.8,.61v.13q.01,.31,.01,.48v.48c-.01,.2-.01,.31-.01,.4,0,.26,.01,.43,.04,.64l-1.39,.04c.05-.22,.07-.83,.07-1.39v-.29c-.59,.28-.9,.44-1.15,.62-.42,.31-.62,.64-.62,.98,0,.62,.58,.88,2.03,.88s2.67-.18,3.53-.5l.12,1.55c-.2,0-.26,.01-.55,.05-.86,.13-2.02,.22-3.07,.22-1.27,0-2.06-.14-2.67-.5-.55-.31-.88-.89-.88-1.55,0-.49,.14-.88,.53-1.33,.54-.67,1.22-1.13,2.58-1.69-.06-.44-.3-.65-.73-.65-.7,0-1.54,.42-2.46,1.24-.5,.42-.78,.72-1.04,1.09l-1.09-1.08c.31-.24,.66-.58,1.08-1.07,.47-.55,1.2-1.6,1.44-2.05q.05-.1,.1-.16s-.2,.01-.2,.01c-.19,0-1.25-.02-1.51-.02q-.23-.01-.34-.01s-.11,0-.19,.01l.02-1.37Z"/><path d="M91.64,161.67c-.49,0-.67,.01-.94,.05v-.82c-.3,.23-.47,.34-.88,.59-.22-.44-.3-.59-.5-.86-.14-.02-.26-.02-.53-.02h-.18v1.92c.2-.08,.36-.14,.79-.32v1.19c-.29,.11-.38,.14-.59,.23-.05,.01-.11,.05-.2,.08v3.41c0,.92-.28,1.15-1.4,1.15-.22,0-.42,0-.92-.02-.04-.49-.1-.77-.26-1.22,.38,.06,.77,.08,1.01,.08,.26,0,.32-.06,.32-.32v-2.61c-.72,.23-1.13,.36-1.24,.41l-.17-1.31c.4-.04,.74-.12,1.4-.31v-2.34h-.46c-.3,0-.55,.01-.83,.05v-1.27c.28,.05,.48,.06,.84,.06h.44v-.92c0-.59-.02-.89-.07-1.24h1.39c-.05,.34-.06,.65-.06,1.22v.94h.18c.25,0,.43-.01,.62-.04v.84c1.27-.7,2.28-1.72,2.87-2.91h1.38c.37,.64,.78,1.12,1.43,1.65,.65,.55,1.07,.8,2.16,1.27-.28,.42-.35,.55-.64,1.22-.5-.25-.7-.36-1.1-.64v.88c-.26-.04-.42-.05-.91-.05h-1.02v.85h2.03c.59,0,.82-.01,1.16-.06v1.21c-.35-.05-.61-.06-1.16-.06h-4.84c-.53,0-.79,.01-1.12,.06v-1.2c.26,.04,.5,.05,1.02,.05h1.73v-.85h-.76Zm-1.64,6.69c.04-.38,.06-.68,.06-1.19v-2c0-.37-.02-.64-.05-.94,.29,.04,.54,.05,1.01,.05h4.04c.47,0,.7-.01,.94-.05-.04,.25-.05,.55-.05,.91v2.07c0,.5,.01,.78,.06,1.14h-1.32v-.58h-3.41v.58h-1.28Zm2.4-8.25c0-.32-.01-.48-.04-.64h1.26c-.04,.14-.04,.32-.04,.64v.5h1.01c.26,0,.41,0,.58-.01-1-.74-1.6-1.35-2.16-2.21-.55,.9-1.08,1.51-1.93,2.21,.22,.01,.29,.01,.56,.01h.76v-.5Zm-1.12,6.57h3.42v-1.34h-3.42v1.34Z"/><path d="M97.93,159c.26,.01,.4,.01,.46,.01q.22,0,1.98-.12c.67-.04,2.66-.14,5.99-.3,.98-.05,1.16-.06,1.38-.12l.08,1.54q-.13-.01-.25-.01c-.72,0-1.61,.24-2.38,.65-1.52,.79-2.42,1.99-2.42,3.2,0,.94,.59,1.66,1.59,1.96,.59,.18,1.36,.31,1.79,.31,.01,0,.12,0,.24-.01l-.22,1.63c-.14-.04-.2-.05-.41-.07-1.32-.17-2.08-.38-2.81-.79-1.1-.62-1.71-1.64-1.71-2.89,0-1.02,.41-2.03,1.14-2.83,.46-.49,.89-.8,1.67-1.2-.97,.14-1.44,.18-4.04,.37-.8,.06-1.52,.14-1.99,.24l-.08-1.56Z"/><path d="M109.37,164.59c1.1,.84,1.77,1.5,2.7,2.64l-1.12,1.04c-.88-1.19-1.56-1.91-2.6-2.73l1.02-.95Z"/><path d="M117,164.93c.16,.56,.26,.74,.56,.98,.4,.31,.88,.47,1.45,.47,1.19,0,1.94-.61,1.94-1.56,0-.55-.24-1.01-.67-1.26-.29-.17-.85-.29-1.38-.29s-.88,.01-1.28,.06v-1.49c.38,.05,.65,.06,1.16,.06,1.2,0,1.91-.55,1.91-1.48,0-.83-.56-1.3-1.58-1.3-.59,0-1.02,.13-1.31,.37-.24,.23-.36,.43-.5,.92l-1.71-.29c.3-.89,.58-1.31,1.14-1.71,.61-.44,1.39-.66,2.35-.66,2,0,3.3,1.01,3.3,2.57,0,.72-.31,1.38-.83,1.76-.26,.2-.53,.3-1.16,.47,.85,.13,1.3,.34,1.71,.8,.4,.44,.58,.95,.58,1.65,0,.65-.28,1.31-.72,1.75-.66,.64-1.67,.97-2.95,.97-1.4,0-2.36-.36-3.05-1.14-.3-.34-.46-.65-.67-1.33l1.71-.35Z"/><path d="M127.68,160.62c.44,1,.77,1.46,1.57,2.3-.3,.37-.54,.76-.74,1.18-.47-.68-.67-1.07-.94-1.7,.06,.6,.07,.92,.07,1.32v3.35c0,.55,.02,.94,.07,1.31h-1.4c.05-.35,.07-.76,.07-1.29v-2.19c0-.79,.01-1.13,.06-1.88-.42,1.3-.73,2-1.29,2.83-.22-.49-.42-.82-.76-1.19,.89-1.14,1.56-2.59,1.88-4.02h-.41c-.4,0-.68,.01-.96,.06v-1.28c.3,.05,.54,.06,.98,.06h.48v-1.12c0-.48-.01-.77-.07-1.09h1.42c-.06,.34-.07,.62-.07,1.1v1.1h.54c.38,0,.6-.01,.9-.06v1.27c-.34-.04-.59-.05-.88-.05h-.53Zm7.96-.06c-.31-.04-.55-.05-1.09-.06-.28,2.09-.66,3.26-1.46,4.52,.78,.84,1.55,1.37,2.78,1.93-.28,.36-.47,.76-.68,1.32-1.42-.83-1.96-1.25-2.88-2.22-.86,.92-1.8,1.57-3.25,2.24-.23-.48-.4-.76-.74-1.18,1.42-.54,2.33-1.13,3.19-2.07-.6-.89-1.07-1.9-1.36-2.87-.2,.34-.29,.46-.56,.83-.28-.4-.48-.62-.9-1.04,.55-.66,1-1.48,1.35-2.48,.25-.7,.5-1.74,.54-2.27l1.39,.25c-.07,.18-.12,.34-.2,.68-.1,.35-.2,.73-.34,1.16h2.88c.61,0,.98-.02,1.33-.07v1.32Zm-4.74,.14c.26,1.26,.66,2.23,1.37,3.29,.54-.97,.82-1.93,1.02-3.49h-2.3l-.08,.2Z"/><path d="M139.35,165.73c.36,.66,.76,.94,1.49,1.07-.14-.23-.44-.55-.78-.83,.84-.28,1.33-.53,1.81-.94h-1.35c-.44,0-.65,.01-.92,.06v-1.1c.26,.05,.46,.06,.92,.06h.9v-.74h-.26c-.6,0-.82,.01-1.12,.05v-1.06c.29,.04,.49,.05,1.12,.05h.25c-.01-.29-.02-.41-.05-.61h1.32c-.02,.19-.04,.35-.05,.61h1.62c-.01-.29-.02-.41-.05-.61h1.32c-.04,.2-.05,.34-.06,.61h.63c.61,0,.82-.01,1.12-.05v1.06c-.31-.04-.53-.05-1.13-.05h-.62v.74h.92c.64,0,.85-.01,1.15-.05v1.08c-.31-.04-.54-.05-1.15-.05h-1.28c.62,.4,1.2,.61,2.23,.84-.3,.31-.5,.58-.7,.91q.32-.02,1.22-.14c-.22,.58-.25,.71-.36,1.38-1.05,.05-2.59,.07-4.12,.07-1.87,0-2.57-.06-3.17-.25s-1.04-.53-1.47-1.09c-.49,.47-.68,.64-1.16,1.01-.24,.19-.33,.26-.54,.43l-.59-1.37c.46-.19,.94-.53,1.66-1.16v-2.59h-.62c-.32,0-.49,.01-.8,.06v-1.3c.31,.05,.52,.06,.96,.06h.86c.42,0,.59-.01,.9-.05-.04,.38-.04,.56-.04,1.3v2.59Zm-1.67-8.29c.88,.78,1.26,1.2,1.83,1.92l-1,.97c-.62-.88-.94-1.22-1.8-1.99l.96-.9Zm5.48,1.86c0,.3,0,.48,.02,.65-.3-.02-.48-.04-.77-.04h-1.54v.36c0,.25,.04,.28,.52,.28,.94,0,.95-.01,.98-.56,.3,.19,.6,.31,.98,.38-.07,.66-.19,.9-.52,1.02-.24,.08-.61,.11-1.58,.11-1.25,0-1.47-.12-1.47-.77v-1.02c0-.32-.01-.48-.04-.71,.22,.02,.42,.04,.84,.04h1.43v-.49h-1.39c-.48,0-.68,.01-.97,.05v-1.06c.25,.04,.61,.05,.98,.05h1.49c.58,0,.84-.01,1.05-.04-.02,.18-.02,.26-.02,.66v1.09Zm-.12,6.21c-.85,.77-1.19,.98-1.96,1.32,.58,.06,1.26,.08,2.08,.08,.88,0,1.93-.04,3.02-.1-.89-.3-1.58-.7-2.27-1.28l.73-.5h-2.35l.74,.48Zm-.42-1.46h1.63v-.74h-1.63v.74Zm4.56-4.75c0,.29,0,.48,.02,.65-.3-.02-.48-.04-.77-.04h-1.52v.36c0,.17,.01,.2,.11,.24,.08,.04,.26,.05,.55,.05,.86,0,.89-.01,.91-.59,.36,.2,.61,.29,1.05,.4-.1,.66-.18,.86-.44,.98-.24,.11-.71,.14-1.66,.14-.83,0-1.12-.02-1.32-.12-.25-.11-.35-.31-.35-.68v-.92q-.01-.49-.02-.52t-.01-.25c.22,.02,.42,.04,.83,.04h1.44v-.49h-1.33c-.48,0-.68,.01-.97,.05v-1.06c.26,.04,.61,.05,.98,.05h1.46c.58,0,.84-.01,1.06-.04-.02,.17-.02,.3-.02,.66v1.09Z"/><path d="M151.37,162.98c-.02,.07-.04,.14-.05,.17-.01,.04-.05,.17-.1,.36-.47,1.7-.96,2.94-1.54,3.85-.47-.38-.76-.56-1.28-.79,.6-.8,1.36-2.76,1.57-4.03l1.39,.44Zm5.67-3.79c.52,.56,.84,1.02,1.26,1.76l-.84,.44c-.41-.73-.73-1.21-1.26-1.79v.47c-.34,.06-.62,.18-1.03,.43-.77,.48-1.19,1-1.19,1.44,0,.13,.05,.32,.11,.43,.12,.24,.17,.29,.89,1.06,.43,.48,.67,.79,.83,1.14,.16,.36,.24,.72,.24,1.06,0,.62-.29,1.25-.77,1.64-.42,.36-.96,.53-1.63,.53-.85,0-1.67-.3-2.52-.94,.18-.5,.24-.77,.34-1.45,.67,.62,1.42,.98,2.06,.98,.55,0,.94-.34,.94-.83,0-.2-.06-.42-.19-.67-.14-.3-.28-.47-.74-1-.7-.78-.91-1.22-.91-1.82,0-.55,.23-1.08,.66-1.57,.24-.26,.37-.38,.86-.71l-.16-.02-.24-.02c-.73-.07-1.4-.25-2.41-.64-.22-.07-.23-.08-.41-.13l.53-1.34c.35,.2,.84,.38,1.59,.59,.88,.24,2.24,.44,2.93,.44,.04,0,.12,0,.24-.01v.95l.83-.42Zm.48,3.12c.89,1.31,1.55,2.71,1.96,4.15l-1.42,.67c-.19-1.19-1.25-3.65-1.83-4.27l1.3-.55Zm1.38-1.67c-.37-.66-.77-1.22-1.22-1.74l.8-.42c.54,.55,.86,1.01,1.25,1.69l-.83,.47Z"/></g><g><path class="cls-6" d="M15.32,176.75c.17,.02,.23,.02,.36,.02,.22,0,.54,0,1.43-.05q.52-.02,1.93-.06c0-.68-.02-.82-.05-1.02h.85c-.03,.24-.04,.38-.04,1.01,1.46,0,2.06-.02,2.34-.06v.78c-.29-.03-.66-.04-1.34-.04-.22,0-.35,0-.99,.02v1.47c.16,.34,.22,.66,.22,1.06,0,.86-.41,1.61-1.13,2.13-.32,.22-.68,.4-1.38,.65-.18-.38-.26-.49-.49-.74,.66-.15,.98-.28,1.35-.52,.56-.38,.85-.81,.9-1.35-.22,.43-.64,.67-1.19,.67-.81,0-1.41-.57-1.41-1.34,0-.82,.64-1.4,1.54-1.4,.37,0,.66,.1,.85,.27t0-.1v-.78c-1.28,.02-3.21,.12-3.71,.2l-.02-.8Zm2.14,2.54c0,.42,.3,.7,.73,.7,.49,0,.84-.34,.84-.81,0-.18-.05-.3-.16-.39-.14-.14-.35-.22-.59-.22-.46,0-.82,.3-.82,.71Z"/><path class="cls-6" d="M22.02,179.68c.13-.09,.19-.14,.37-.33,.4-.41,.5-.52,1.32-1.57,.47-.59,.71-.76,1.1-.76,.26,0,.46,.1,.7,.33,.09,.08,.26,.28,.55,.61,.82,.94,1.59,1.71,2.46,2.45,.39,.33,.56,.46,.78,.57l-.4,.95c-.09-.1-.11-.12-.26-.24-.46-.39-1.54-1.41-2.06-1.95-.28-.29-.96-1.05-1.35-1.51-.18-.22-.3-.29-.43-.29-.14,0-.19,.05-.53,.49-.73,.95-.99,1.27-1.55,1.89-.07,.08-.1,.1-.15,.19l-.54-.83Zm5.29-3.13c.38,.42,.55,.68,.83,1.2l-.5,.27c-.26-.5-.49-.83-.83-1.22l.5-.25Zm.94-.46c.38,.42,.55,.66,.82,1.17l-.49,.28c-.25-.46-.47-.8-.82-1.2l.48-.25Z"/><path class="cls-6" d="M29.88,176.69q.15,0,.28,0c.17,0,.26,0,.49-.02,.93-.06,2.84-.18,4.72-.26,.55-.02,.79-.05,.93-.08l.06,.84h-.14c-.45,0-1.01,.14-1.5,.38-1.09,.54-1.76,1.41-1.76,2.27,0,.64,.4,1.14,1.09,1.38,.37,.12,.9,.22,1.18,.22,.03,0,.08,0,.14,0l-.12,.9c-.1-.02-.14-.02-.26-.05-.87-.13-1.33-.27-1.81-.56-.67-.41-1.04-1.05-1.04-1.81s.35-1.47,1.05-2.12c.32-.3,.5-.42,.96-.64-.56,.09-.88,.12-1.73,.18-1.39,.1-2.07,.16-2.49,.25l-.05-.88Z"/><path class="cls-6" d="M40.06,180.17c-.46,1.06-.95,1.52-1.58,1.52-.85,0-1.47-.89-1.47-2.1,0-.86,.3-1.66,.86-2.28,.66-.72,1.58-1.1,2.69-1.1,1.86,0,3.09,1.14,3.09,2.87,0,1.34-.7,2.41-1.9,2.9-.38,.15-.69,.24-1.23,.34-.12-.37-.19-.5-.41-.78,.62-.1,.98-.18,1.33-.33,.86-.37,1.39-1.21,1.39-2.17,0-.83-.39-1.5-1.09-1.87-.27-.14-.49-.2-.86-.22-.14,1.19-.43,2.36-.82,3.22Zm-1.1-2.83c-.73,.49-1.18,1.34-1.18,2.25,0,.7,.3,1.25,.69,1.25,.29,0,.58-.35,.9-1.08,.31-.74,.58-1.85,.69-2.81-.44,.05-.75,.15-1.1,.38Z"/><path class="cls-6" d="M49.76,176.43s0-.09,0-.13c0-.51,.41-.93,.92-.93s.93,.42,.93,.93-.42,.93-.93,.93c-.09,0-.18-.02-.26-.04-.02,.04-.03,.1-.05,.17-.4,1.52-1.02,2.61-1.99,3.51-.72,.67-1.42,1.1-2.54,1.57-.18-.36-.27-.48-.58-.78,.71-.22,1.18-.44,1.78-.83,1.26-.83,2.05-1.98,2.46-3.61h-3.81c-.54,0-.75,.02-1.06,.06v-.9c.32,.05,.54,.06,1.08,.06h4.06Zm.38-.13c0,.3,.24,.54,.54,.54s.54-.25,.54-.54-.24-.54-.54-.54-.54,.25-.54,.54Z"/><path class="cls-6" d="M53.63,175.92c-.03,.23-.04,.4-.04,.95l-.03,4.49c.86-.15,1.6-.44,2.22-.84,.76-.5,1.27-1.06,1.69-1.87,.26,.36,.34,.46,.63,.69-.54,.82-1.05,1.35-1.73,1.81-.77,.52-1.61,.84-2.85,1.08-.24,.05-.34,.07-.46,.13l-.44-.54c.06-.18,.06-.3,.06-.7l.02-4.24v-.22c0-.39,0-.56-.03-.76h.95Z"/><path class="cls-6" d="M59.18,178.61c.3,.04,.64,.06,1.23,.06h4.33c.69,0,.88,0,1.19-.05v.93c-.35-.03-.61-.04-1.2-.04h-4.31c-.67,0-.91,0-1.24,.04v-.94Z"/><path class="cls-6" d="M73.72,176.97c-.07,.1-.09,.13-.21,.44-.21,.54-.59,1.16-1,1.62-.26,.3-.5,.5-.94,.85-.22-.24-.32-.31-.67-.53,.51-.33,.78-.55,1.09-.9,.27-.31,.45-.59,.61-.95t.02-.06s.02-.02,.02-.05c-.03,0-.04,0-.07,.02,0,0-.06,.02-.13,.02l-2.82,.48,.64,3.49c.1,.55,.14,.71,.23,1.01l-.9,.16c-.02-.3-.06-.6-.14-1.04l-.65-3.49-.96,.16c-.42,.07-.58,.1-.84,.18l-.14-.85c.31,0,.54-.03,.88-.09l.93-.15-.14-.81c-.07-.36-.1-.5-.18-.77l.9-.14c.02,.23,.03,.38,.11,.78l.14,.8,3.29-.54c.22-.04,.3-.06,.43-.13l.51,.46Z"/><path class="cls-6" d="M74.41,177.68c.29,0,1.05-.08,1.73-.18,.14-.75,.22-1.38,.22-1.64,0-.03,0-.08,0-.14l.88,.09c-.02,.1-.04,.16-.06,.26l-.19,1.06c-.03,.18-.03,.2-.06,.3,.22-.02,.34-.02,.52-.02,.51,0,.88,.13,1.13,.39,.28,.29,.38,.66,.38,1.37,0,1.32-.22,2.4-.58,2.85-.22,.26-.45,.36-.85,.36-.33,0-.68-.08-1.22-.26,.02-.14,.02-.24,.02-.3,0-.15,0-.28-.06-.55,.43,.2,.9,.34,1.17,.34,.26,0,.4-.18,.53-.62,.13-.42,.21-1.18,.21-1.87,0-.75-.22-.99-.88-.99-.17,0-.3,0-.51,.03-.32,1.33-.63,2.22-1.13,3.29-.06,.13-.24,.48-.53,1.06l-.78-.43c.24-.3,.56-.88,.83-1.48,.35-.78,.54-1.32,.82-2.37-.62,.08-1.2,.18-1.51,.27l-.08-.8Zm5.36-.73c.81,.92,1.3,1.81,1.66,3l-.75,.39c-.15-.64-.34-1.15-.66-1.73-.3-.57-.55-.92-.93-1.32l.67-.34Zm.29-1.37c.38,.42,.55,.68,.83,1.2l-.5,.27c-.26-.5-.49-.83-.83-1.22l.5-.25Zm.94-.46c.38,.42,.55,.66,.82,1.17l-.49,.28c-.25-.46-.47-.8-.82-1.2l.48-.25Z"/><path class="cls-6" d="M85.45,179.24c0,.31,0,.44,.02,.62-.12-.02-.18-.02-.22-.02h-1.93c-.06,1.29-.25,2.04-.72,2.85-.21-.24-.35-.36-.6-.5,.52-.86,.66-1.71,.66-3.89,0-.54,0-.81-.04-1.1,.27,.02,.46,.03,.84,.03h1.22c.37,0,.54,0,.78-.03-.02,.16-.02,.39-.02,.67v1.36Zm-3.16-3.45c.22,.04,.43,.05,.82,.05h1.8c.44,0,.62,0,.82-.04v.75c-.18-.03-.4-.04-.79-.04h-1.85c-.34,0-.57,0-.79,.04v-.76Zm2.47,3.41v-1.34h-1.42v.69c0,.32,0,.42,0,.66h1.42Zm2-.63c-.06,1.08-.16,1.7-.38,2.32-.24,.7-.54,1.16-1.19,1.84-.18-.25-.33-.38-.56-.54,1.17-1.1,1.43-2.01,1.43-5.02,0-.5,0-.74-.03-.99,.9,0,2.35-.34,2.95-.7l.41,.67c-.14,.03-.18,.05-.35,.1-.83,.27-1.38,.4-2.26,.53v1.1h1.93c.35,0,.54,0,.76-.05v.78c-.22-.03-.41-.04-.71-.04h-.18v3.28c0,.42,0,.6,.05,.85h-.8c.03-.24,.05-.46,.05-.86v-3.27h-1.1Z"/><path class="cls-6" d="M93.56,179.99c-.37,0-.6,.02-.86,.05v-.7c-.38,.18-.42,.2-.77,.34v2.36c0,.56-.2,.7-.98,.7-.16,0-.28,0-.54-.02-.02-.27-.06-.42-.15-.69,.32,.03,.5,.05,.69,.05,.22,0,.28-.05,.28-.23v-1.89c-.56,.22-.86,.33-.91,.34l-.14-.74c.26-.04,.53-.12,1.05-.3v-1.62h-.41c-.22,0-.4,0-.58,.03v-.72c.2,.03,.37,.05,.6,.05h.39v-.7c0-.37,0-.54-.05-.81h.79c-.03,.25-.05,.45-.05,.8v.71h.26c.22,0,.34,0,.49-.03v.7c-.15-.02-.28-.02-.48-.02h-.26v1.36c.34-.14,.45-.18,.77-.34v.64c.25,.03,.48,.04,.86,.04h2.11v-.8h-2.2c-.34,0-.67,.02-.86,.04v-.72c.21,.03,.52,.05,.86,.05h1.06v-.9h-.81c-.34,0-.56,0-.79,.04v-.72c.22,.03,.44,.05,.79,.05h.81v-.27c0-.22-.02-.42-.05-.62h.79c-.04,.21-.05,.37-.05,.62v.27h1.03c.36,0,.58-.02,.8-.05v.72c-.23-.03-.44-.04-.79-.04h-1.04v.9h1.26c.37,0,.66-.02,.87-.05v.72c-.22-.02-.5-.04-.87-.04h-.1v.8h.18c.34,0,.56-.02,.78-.04v.73c-.25-.03-.46-.05-.78-.05h-.18v2.06c0,.51-.25,.69-1,.69-.19,0-.39,0-.77-.03-.04-.3-.09-.49-.19-.73,.34,.06,.63,.09,.9,.09,.29,0,.36-.05,.36-.22v-1.86h-2.11Zm.11,.2c.51,.52,.6,.63,1.02,1.22l-.59,.44c-.32-.54-.53-.8-1-1.27l.57-.38Z"/><path class="cls-6" d="M99.89,175.83c-.04,.22-.06,.45-.09,1.03-.03,.69-.08,2.45-.08,3,0,.74,.05,1.04,.22,1.3,.19,.29,.59,.45,1.13,.45,.88,0,1.59-.5,2-1.38,.18-.4,.28-.74,.38-1.31,.35,.3,.48,.38,.81,.53-.32,1.03-.55,1.53-.92,1.95-.59,.67-1.37,1.01-2.33,1.01-.55,0-1.05-.13-1.37-.35-.52-.37-.74-.94-.74-1.97,0-.46,0-.9,.06-3.24,0-.25,0-.4,0-.54,0-.19,0-.3-.03-.48l.95,.02Z"/><path class="cls-6" d="M104.62,176.69q.15,0,.28,0c.17,0,.26,0,.49-.02,.94-.06,2.84-.18,4.72-.26,.55-.02,.79-.05,.93-.08l.06,.84h-.14c-.45,0-1.01,.14-1.5,.38-1.09,.54-1.76,1.41-1.76,2.27,0,.64,.4,1.14,1.09,1.38,.37,.12,.9,.22,1.18,.22,.03,0,.08,0,.14,0l-.12,.9c-.1-.02-.14-.02-.26-.05-.87-.13-1.33-.27-1.81-.56-.67-.41-1.04-1.05-1.04-1.81s.35-1.47,1.05-2.12c.32-.3,.5-.42,.96-.64-.56,.09-.88,.12-1.73,.18-1.39,.1-2.07,.16-2.49,.25l-.05-.88Z"/><path class="cls-6" d="M113.14,176.35c-.05,.29-.06,.59-.06,1.06,0,.82,.07,1.82,.17,2.33,.16,.83,.44,1.36,.72,1.36,.13,0,.25-.13,.36-.37,.18-.42,.32-.87,.42-1.42,.23,.27,.34,.37,.66,.62-.41,1.5-.82,2.09-1.46,2.09-.53,0-1.01-.51-1.29-1.37-.26-.82-.38-1.88-.42-3.82,0-.27,0-.32-.02-.49h.93Zm3.81,.38c1.01,1.21,1.54,2.45,1.78,4.17l-.82,.32c-.06-.74-.24-1.54-.53-2.25-.27-.7-.65-1.32-1.13-1.9l.7-.34Z"/><path class="cls-6" d="M120.43,176.04c.26,.04,.41,.05,.85,.05,.73,0,1.67-.04,2.46-.1,.26-.02,.33-.03,.45-.1l.43,.6c-.12,.06-.17,.1-.41,.33-1.11,1.06-1.98,1.77-2.54,2.1l.02,.02c.68-.31,1.16-.42,1.8-.42,1.34,0,2.21,.69,2.21,1.75,0,.74-.38,1.33-1.07,1.72-.52,.29-1.16,.44-1.88,.44-.64,0-1.17-.12-1.48-.34-.3-.21-.48-.54-.48-.9,0-.61,.55-1.06,1.29-1.06,.55,0,1.04,.24,1.36,.66,.16,.21,.25,.38,.37,.74,.27-.09,.43-.17,.6-.29,.31-.23,.49-.57,.49-.95,0-.7-.62-1.13-1.64-1.13-1.17,0-2.38,.5-3.33,1.35l-.46-.71c.72-.38,2.6-1.93,3.64-2.99,.02-.02,.11-.11,.14-.14h0c-.29,.03-1.14,.09-2.36,.14-.18,0-.24,.02-.4,.04l-.04-.82Zm1.65,4.73c-.33,0-.54,.16-.54,.42,0,.35,.41,.57,1.08,.57,.16,0,.21,0,.46-.03-.16-.63-.5-.95-1-.95Z"/><path class="cls-6" d="M129.26,177.22c.03-.38,.05-.8,.05-1.14,0-.2,0-.26-.02-.42l.9,.02c-.03,.17-.03,.22-.07,1,0,.14,0,.24-.03,.54h1.86c.36-.02,.42-.02,.59-.08l.39,.35c-.06,.13-.07,.22-.08,.5-.05,1.76-.19,3.04-.41,3.61-.2,.51-.5,.7-1.12,.7-.3,0-.57-.03-1-.11,0-.41-.02-.54-.14-.85,.46,.14,.78,.2,1.05,.2,.36,0,.48-.18,.62-.92,.11-.58,.19-1.68,.19-2.68h-2.01c-.06,.57-.07,.62-.14,.91-.22,1.03-.65,1.83-1.36,2.57-.41,.42-.74,.69-1.28,1.02-.22-.34-.31-.44-.59-.69,.98-.52,1.65-1.18,2.08-2.05,.26-.53,.35-.88,.46-1.74h-1.38c-.5,0-.58,0-.86,.05v-.83c.27,.05,.46,.06,.86,.06h1.44Z"/><path class="cls-6" d="M134.26,178.61c.3,.04,.64,.06,1.23,.06h4.33c.69,0,.88,0,1.19-.05v.93c-.35-.03-.61-.04-1.2-.04h-4.31c-.67,0-.91,0-1.24,.04v-.94Z"/><path class="cls-6" d="M142.98,182.46c.04-.34,.05-.54,.05-1.02v-4.77c0-.55,0-.73-.05-.95h.95c-.04,.26-.05,.53-.05,.98v1.35c1.14,.4,2.26,.93,3.6,1.69l-.47,.79c-.35-.24-.57-.38-.98-.61-.61-.33-1.48-.76-1.92-.94q-.13-.06-.26-.14l.02,.31c0,.07,0,.32,0,.4v1.9c0,.42,.02,.72,.05,1.02h-.94Zm3.37-6.36c.38,.42,.55,.68,.83,1.2l-.5,.27c-.26-.5-.49-.83-.83-1.22l.5-.25Zm.94-.46c.38,.42,.55,.66,.82,1.17l-.49,.28c-.25-.46-.47-.8-.82-1.2l.48-.25Z"/><path class="cls-6" d="M150.9,176.6c.22-.5,.32-.78,.34-1.03l.88,.11c-.05,.07-.06,.1-.1,.18q-.09,.21-.25,.58s-.05,.1-.06,.14t.06,0h.04s.18,0,.4-.02c.86-.03,1.7-.14,2.13-.27l.05,.76q-.18,.02-.62,.07c-.56,.07-1.59,.14-2.37,.16-.28,.54-.53,.9-.86,1.25v.02q.06-.05,.18-.13c.35-.27,.78-.42,1.22-.42,.3,0,.59,.1,.78,.26,.18,.15,.27,.32,.33,.61,.65-.24,1.08-.4,1.29-.47,.41-.14,.44-.15,.57-.23l.33,.77c-.45,.08-.98,.25-2.1,.66q0,.29,0,.43v.38c0,.14,0,.22,0,.28,0,.15,0,.27,.02,.39l-.78,.02c.02-.16,.05-.61,.05-1.04v-.19c-.98,.45-1.34,.77-1.34,1.19,0,.48,.42,.66,1.54,.66,.84,0,1.71-.13,2.21-.33l.08,.86c-.14,0-.18,0-.35,.04-.59,.09-1.34,.14-1.99,.14-.81,0-1.34-.1-1.73-.32-.35-.2-.56-.56-.56-.98,0-.74,.66-1.38,2.05-1.97-.04-.34-.22-.51-.54-.51-.48,0-1.07,.29-1.7,.83-.32,.27-.5,.47-.66,.7l-.62-.62c.38-.28,.86-.83,1.29-1.46,.1-.15,.26-.42,.5-.81h-.91c-.2-.02-.35-.02-.46-.02h-.05s-.06,0-.12,0l.02-.76c.4,.07,.83,.1,1.56,.1h.29Z"/><path class="cls-6" d="M18.45,185.92c0-.3-.02-.53-.06-.78h.89c-.04,.26-.06,.46-.06,.78v5.05h2.11v-3.62c0-.33-.02-.53-.05-.76h.85c-.03,.28-.05,.49-.05,.76v4.03c0,.35,.02,.61,.06,.92h-.81v-.61h-4.87v.61h-.8c.03-.3,.05-.54,.05-.9v-4.02c0-.28-.02-.56-.05-.79h.84c-.03,.22-.04,.44-.04,.78v3.61h1.98v-5.05Z"/><path class="cls-6" d="M26.17,186.59c.27,0,.41,0,.62-.04v.73c-.2-.03-.34-.04-.6-.04h-.66c.35,.82,.78,1.42,1.37,1.94-.16,.22-.25,.4-.37,.73-.54-.64-.76-.99-1.08-1.74,.02,.3,.02,.46,.02,.57q0,.39,.02,.86v1.98c0,.36,0,.59,.05,.82h-.82c.03-.22,.05-.47,.05-.82v-1.88c0-.3,.02-1.13,.05-1.45-.34,1.01-.7,1.7-1.28,2.41-.11-.27-.22-.46-.42-.71,.42-.42,.72-.86,1.07-1.55,.17-.34,.3-.66,.46-1.16h-.7c-.26,0-.38,0-.54,.04v-.73c.16,.03,.3,.04,.59,.04h.75v-.82c0-.3,0-.48-.05-.7h.83c-.04,.22-.05,.4-.05,.71v.82h.68Zm1.96-1.49c-.03,.26-.05,.58-.05,.88v5.23c0,.22,.11,.26,.78,.26,.42,0,.62-.04,.71-.14,.12-.16,.15-.5,.17-1.61,.27,.14,.45,.2,.74,.26-.04,1.14-.12,1.62-.34,1.89-.2,.26-.54,.33-1.47,.33-.46,0-.84-.04-.99-.1-.26-.11-.35-.26-.35-.59v-5.52c0-.3-.02-.61-.06-.88h.86Z"/><path class="cls-6" d="M32.97,185.51c-.17,.41-.34,1.18-.44,1.95-.09,.64-.14,1.49-.15,2.18v.72h.02c.07-.35,.12-.5,.43-1.23l.55,.25c-.41,.86-.69,1.81-.69,2.33,0,.03,0,.1,0,.18l-.82,.06c0-.14-.02-.18-.04-.35-.15-.93-.21-1.52-.21-2.36,0-1.06,.1-1.93,.34-3.12,.08-.42,.1-.5,.11-.71l.89,.11Zm2.1,3.3c-.4,.46-.58,.82-.58,1.17,0,.5,.47,.76,1.38,.76,.71,0,1.4-.1,1.88-.3l.07,.86c-.1,.02-.13,.02-.3,.05-.61,.1-1.11,.15-1.65,.15-.96,0-1.58-.22-1.92-.66-.16-.2-.25-.5-.25-.78,0-.48,.23-.98,.72-1.57l.65,.32Zm-1.2-2.53c.42,.1,.75,.13,1.36,.13,.98,0,1.78-.08,2.24-.22l.04,.82c-.06,0-.1,0-.56,.06-.5,.06-1.11,.1-1.69,.1-.46,0-.82-.02-1.17-.06-.11,0-.14-.02-.22-.02v-.8Z"/><path class="cls-6" d="M40.12,188.43c-.05,1.9-.3,2.81-1.06,3.9-.18-.21-.34-.36-.59-.54,.74-1.02,.95-1.97,.95-4.29,0-.54,0-.73-.03-1.02,.22,.02,.51,.03,.88,.03h4.29c.36,0,.54,0,.74-.03-.02,.15-.02,.31-.02,.58v.81c0,.27,0,.41,.02,.59-.22-.02-.42-.03-.74-.03h-4.44Zm5.68-2.38c-.26-.03-.46-.04-.92-.04h-5.18c-.4,0-.62,0-.9,.04v-.74c.26,.03,.52,.05,.9,.05h5.19c.41,0,.65-.02,.91-.05v.74Zm-2.59,3.97c.32,.54,.62,.84,1.13,1.11,.45,.23,.82,.34,1.57,.47-.15,.3-.16,.31-.29,.74-.86-.22-1.34-.42-1.84-.75-.46-.32-.8-.7-1.06-1.18-.25,.52-.54,.86-1.03,1.2-.45,.31-.88,.5-1.66,.73-.06-.23-.16-.41-.36-.69,.82-.19,1.17-.32,1.57-.56,.46-.29,.75-.62,.92-1.06h-1.11c-.34,0-.55,0-.81,.04v-.7c.21,.03,.42,.04,.81,.04h1.26c.02-.18,.04-.38,.04-.46,0-.14,0-.22-.02-.32h.78q-.02,.06-.03,.22s0,.07-.02,.13q0,.11-.02,.26t-.02,.18h1.87c.38,0,.61,0,.83-.04v.71c-.26-.03-.51-.05-.83-.05h-1.68Zm1.36-2.17v-.74h-4.44v.36c0,.23,0,.27,0,.38h4.45Z"/><path class="cls-6" d="M48.42,185.43c-.04,.22-.06,.45-.09,1.03-.03,.69-.08,2.45-.08,3,0,.74,.05,1.04,.22,1.29,.19,.29,.59,.45,1.13,.45,.88,0,1.59-.5,2-1.38,.18-.4,.28-.74,.38-1.31,.35,.3,.48,.38,.81,.53-.32,1.03-.55,1.53-.92,1.95-.59,.67-1.37,1.01-2.33,1.01-.55,0-1.05-.13-1.37-.35-.52-.37-.74-.94-.74-1.97,0-.46,0-.9,.06-3.24,0-.25,0-.4,0-.54,0-.19,0-.3-.03-.48l.95,.02Z"/><path class="cls-6" d="M54.21,189.99c.71,.55,1.13,.98,1.72,1.74l-.66,.61c-.56-.78-1.01-1.26-1.67-1.79l.61-.55Z"/><path class="cls-6" d="M59.14,190.19c.1,.37,.2,.52,.42,.69,.27,.2,.6,.3,1,.3,.84,0,1.38-.44,1.38-1.12,0-.72-.52-1.11-1.47-1.11-.3,0-.52,.02-.78,.05v-.85c.19,.02,.44,.04,.64,.04,.41,0,.78-.08,.98-.22,.3-.19,.45-.48,.45-.84,0-.62-.42-.94-1.21-.94-.44,0-.76,.14-.97,.4-.11,.14-.16,.26-.23,.51l-.95-.18c.14-.44,.26-.66,.52-.91,.39-.38,.97-.58,1.69-.58,1.26,0,2.08,.65,2.08,1.65,0,.49-.21,.92-.56,1.18-.19,.14-.36,.21-.76,.3,.55,.07,.86,.21,1.14,.51,.26,.29,.38,.63,.38,1.1,0,.43-.18,.86-.47,1.15-.42,.41-1.06,.62-1.86,.62-.88,0-1.51-.23-1.94-.71-.19-.22-.29-.42-.43-.85l.95-.2Z"/><path class="cls-6" d="M66.29,187.2c.28,.7,.52,1.06,1.06,1.61-.17,.18-.29,.37-.42,.64-.34-.46-.51-.76-.7-1.26,.02,.42,.04,.7,.04,1.02v2.38c0,.36,0,.6,.05,.82h-.79c.03-.22,.05-.47,.05-.82v-1.77c0-.54,0-.85,.03-1.35-.28,.95-.54,1.54-.96,2.17-.14-.28-.26-.44-.45-.65,.59-.75,1.08-1.81,1.3-2.8h-.32c-.28,0-.47,0-.65,.04v-.72c.2,.03,.37,.04,.66,.04h.37v-.82c0-.3,0-.49-.05-.7h.8c-.03,.22-.04,.4-.04,.71v.81h.38c.26,0,.42,0,.64-.04v.71c-.22-.02-.41-.03-.62-.03h-.38Zm5.32-.05c-.2-.02-.4-.04-.78-.04-.09,.7-.16,1.05-.33,1.58-.18,.59-.38,1.01-.69,1.49,.53,.62,1.08,1.02,1.94,1.43-.15,.18-.27,.4-.41,.72-.93-.55-1.37-.9-1.97-1.57-.57,.66-1.18,1.1-2.2,1.58-.13-.27-.25-.46-.43-.66,.56-.22,.86-.37,1.24-.63,.37-.26,.68-.54,.96-.86-.44-.66-.76-1.34-.96-2.05-.16,.26-.22,.37-.43,.65-.15-.22-.26-.34-.51-.56,.38-.46,.66-.99,.91-1.67,.18-.5,.34-1.16,.35-1.52l.78,.14c-.04,.11-.07,.21-.14,.46-.06,.23-.15,.57-.23,.82h2.02c.4,0,.64-.02,.86-.05v.74Zm-3.12-.04c-.04,.09-.05,.11-.09,.2,.2,.88,.47,1.52,.98,2.28,.42-.74,.62-1.38,.76-2.48h-1.65Z"/><path class="cls-6" d="M75.97,186.4c0-.67-.02-.82-.05-1.02h.85c-.03,.24-.04,.38-.04,1.01,1.46,0,2.06-.02,2.34-.06v.78c-.29-.02-.66-.04-1.34-.04-.22,0-.35,0-.99,.02v1.47c.16,.34,.22,.66,.22,1.06,0,.85-.4,1.61-1.14,2.12-.32,.23-.68,.4-1.38,.66-.18-.38-.26-.5-.49-.75,.66-.15,.98-.27,1.35-.52,.56-.37,.85-.81,.9-1.35-.22,.43-.64,.67-1.2,.67-.81,0-1.4-.57-1.4-1.34,0-.82,.64-1.4,1.54-1.4,.37,0,.66,.1,.85,.28l-.02-.89c-1.27,.02-3.2,.12-3.7,.21l-.02-.81c.17,.02,.23,.02,.36,.02l3.36-.1Zm-1.58,2.63c0,.42,.3,.7,.73,.7,.49,0,.84-.34,.84-.8,0-.18-.04-.3-.15-.4-.15-.14-.36-.22-.6-.22-.47,0-.82,.3-.82,.71Zm3.36-4.18c.36,.42,.54,.7,.77,1.14l-.5,.26c-.26-.51-.45-.78-.77-1.15l.5-.25Zm1.17-.12c.35,.41,.55,.71,.78,1.14l-.49,.26c-.27-.52-.45-.78-.76-1.16l.47-.24Z"/><path class="cls-6" d="M79.96,186.97q.22-.02,1.74-.35c.92-.2,1.61-.28,2.32-.28,1.54,0,2.52,.84,2.52,2.14,0,1.06-.62,1.93-1.73,2.48-.73,.36-1.38,.51-2.74,.65-.09-.36-.14-.5-.34-.86,.97-.03,1.58-.12,2.16-.31,1.12-.37,1.77-1.07,1.77-1.94s-.62-1.37-1.67-1.37c-.84,0-1.88,.18-3.21,.57-.38,.11-.46,.14-.62,.22l-.2-.94Z"/><path class="cls-6" d="M87.7,187.48c.36,.04,.58,.06,1.1,.06h3.82c.42,0,.54,0,.74-.06l.39,.45c-.07,.13-.11,.22-.22,.5-.44,1.19-1.04,2.05-1.9,2.69-.57,.42-1.09,.68-2.02,1.02-.14-.33-.22-.44-.51-.78,.98-.24,1.64-.55,2.26-1.1,.61-.52,.95-1.03,1.31-1.98h-3.9c-.63,0-.81,0-1.09,.04v-.83Zm.68-1.9c.34,.05,.43,.06,1,.06h2.53c.48,0,.64,0,1.01-.06v.84c-.31-.03-.53-.04-1-.04h-2.55c-.42,0-.6,0-.99,.04v-.84Z"/><path class="cls-6" d="M94.81,190.89c.65-.02,1.62-.27,2.35-.6,1-.44,1.75-1.05,2.38-1.94,.36-.53,.59-.96,.84-1.62,.26,.33,.37,.42,.7,.66-.66,1.45-1.42,2.37-2.49,3.1-.81,.55-1.8,.94-3.02,1.2-.3,.06-.34,.07-.5,.13l-.25-.93Zm.61-4.96c.91,.57,1.42,.95,2.01,1.53l-.58,.71c-.62-.66-1.26-1.18-1.99-1.6l.55-.64Z"/><path class="cls-6" d="M107.88,186.69c-.1,.13-.11,.18-.24,.53-.22,.61-.65,1.52-1,2.08-.81,1.29-1.9,2.2-3.6,2.98-.21-.35-.29-.47-.55-.7,.69-.27,1.09-.49,1.6-.82,.58-.39,.94-.7,1.33-1.18-.57-.5-1.09-.87-1.7-1.21l.52-.58c.67,.38,1.05,.64,1.67,1.14,.4-.62,.73-1.3,.97-2.03l-2.6,.02c-.56,.86-1.1,1.47-1.88,2.11-.22-.25-.32-.33-.67-.54,.86-.64,1.52-1.38,2.02-2.29,.24-.43,.4-.81,.46-1.1l.88,.21q-.09,.14-.26,.49c-.1,.22-.16,.32-.22,.4,.05,0,.16,0,.33-.02l2.4-.03c-.2-.34-.4-.62-.67-.94l.5-.25c.38,.42,.55,.68,.83,1.2l-.35,.19,.22,.31Zm.37-1.96c.38,.42,.55,.66,.82,1.17l-.49,.28c-.25-.46-.47-.8-.82-1.2l.48-.25Z"/><path class="cls-6" d="M112.14,185.57c-.09,.17-.1,.22-.21,.56-.54,1.79-1.1,3.38-1.62,4.62,1.29-.1,2.73-.28,3.55-.45-.36-.73-.83-1.55-1.18-2.04l.75-.3c.74,1.06,1.45,2.39,1.95,3.65l-.8,.42q-.1-.32-.42-1.02-.1,.02-.28,.06c-.88,.18-2.18,.35-4.57,.58-.48,.05-.57,.06-.72,.1l-.11-.91q.1,0,.19,0c.16,0,.25,0,.71-.03,.45-1.06,.77-1.94,1.17-3.2,.38-1.21,.54-1.78,.6-2.25l.97,.2Z"/><path class="cls-6" d="M117.81,185.51c-.17,.41-.34,1.18-.44,1.95-.09,.64-.14,1.49-.15,2.18v.72h.02c.07-.35,.12-.5,.43-1.23l.55,.25c-.41,.86-.69,1.81-.69,2.33,0,.03,0,.1,0,.18l-.82,.06c0-.14-.02-.18-.04-.35-.15-.93-.21-1.52-.21-2.36,0-1.06,.1-1.93,.34-3.12,.08-.42,.1-.5,.11-.71l.89,.11Zm2.1,3.3c-.4,.46-.58,.82-.58,1.17,0,.5,.47,.76,1.38,.76,.71,0,1.4-.1,1.88-.3l.07,.86c-.1,.02-.13,.02-.3,.05-.61,.1-1.11,.15-1.65,.15-.96,0-1.58-.22-1.92-.66-.16-.2-.25-.5-.25-.78,0-.48,.23-.98,.72-1.57l.65,.32Zm-1.2-2.53c.42,.1,.75,.13,1.36,.13,.98,0,1.78-.08,2.24-.22l.04,.82c-.06,0-.1,0-.56,.06-.5,.06-1.11,.1-1.7,.1-.46,0-.82-.02-1.17-.06-.11,0-.14-.02-.22-.02v-.8Z"/><path class="cls-6" d="M124.44,185.96c-.33,0-.62,.02-.84,.04v-.73c.22,.03,.52,.05,.85,.05h1.95c.34,0,.63-.02,.86-.05v.73c-.21-.02-.51-.04-.81-.04h-.28v.76h.1c.4,0,.61,0,.83-.03-.02,.25-.02,.5-.02,.85v3.84c0,.36,0,.66,.03,.86h-.66v-.33h-2.01v.48h-.68c.03-.3,.05-.58,.05-1.05v-3.75c0-.38,0-.64-.03-.9,.22,.02,.42,.03,.81,.03h.17v-.76h-.32Zm0,4.02h2.01v-.74h-.14c-.62,0-.7-.03-.7-.35v-1.61h-.31c0,.54-.05,1.04-.13,1.43-.09,.43-.17,.64-.42,1.05-.08-.19-.18-.34-.32-.49v.7Zm0-.74c.3-.53,.38-.91,.39-1.96h-.39v1.96Zm0,2.05h2.01v-.74h-2.01v.74Zm.86-4.57h.31v-.76h-.31v.76Zm.78,1.84c0,.12,.02,.13,.38,.13v-1.4h-.38v1.27Zm4.36-.83c0,.34,0,.55,.03,.77-.24-.02-.44-.03-.79-.03h-1.37v2.79c0,.14,.02,.18,.06,.22,.08,.05,.3,.07,.65,.07,.62,0,.83-.04,.91-.18,.1-.16,.14-.58,.15-1.26,.3,.17,.44,.23,.7,.3-.05,.82-.11,1.19-.24,1.42-.17,.3-.55,.4-1.62,.4-1.13,0-1.33-.11-1.33-.76v-2.91c0-.38,0-.54-.03-.78,.24,.02,.44,.03,.79,.03h1.37v-1.8h-1.39c-.41,0-.61,0-.86,.04v-.76c.24,.03,.51,.05,.86,.05h1.33c.34,0,.58,0,.8-.03-.02,.26-.03,.38-.03,.8v1.64Z"/><path class="cls-6" d="M133.68,188.93v2c0,.45,0,.66,.04,.89h-.82c.03-.26,.05-.5,.05-.89v-1.76c-.36,.36-.67,.63-1.17,.98-.1-.24-.24-.47-.41-.66,1.05-.67,1.82-1.51,2.41-2.61h-1.29c-.42,0-.7,.02-.98,.05v-.77c.23,.03,.5,.05,.98,.05h1.6c.19-.51,.27-.81,.32-1.19l.83,.1c-.06,.15-.07,.16-.15,.41-.06,.18-.14,.42-.23,.68h2.89c.46,0,.74-.02,.96-.05v.77c-.25-.03-.5-.05-.96-.05h-3.17c-.25,.5-.51,.94-.86,1.41h1.37v-.09c0-.44-.02-.68-.05-.9h.82c-.04,.22-.05,.43-.05,.9v.09h1.57c.3,0,.51,0,.75-.04-.02,.21-.03,.4-.03,.68v1.98c0,.62-.24,.78-1.15,.78-.14,0-.26,0-.54-.02-.03-.29-.08-.45-.21-.73,.33,.06,.59,.09,.79,.09,.3,0,.38-.06,.38-.26v-1.82h-1.56v2.55c0,.42,.02,.72,.06,.94h-.84c.04-.22,.06-.52,.06-.94v-2.54h-1.41Z"/></g><rect class="cls-4" x="80.95" y="72.74" width="17.36" height="24.24" rx="3" ry="3" transform="translate(32.51 -24.56) rotate(19)"/><rect class="cls-1" x="108.62" y="47.4" width="17.36" height="24.24" rx="3" ry="3" transform="translate(9.43 -15.75) rotate(8)"/><rect class="cls-5" x="76.69" y="41.5" width="17.36" height="24.24" rx="3" ry="3" transform="translate(-9.28 18.92) rotate(-12)"/><path class="cls-7" d="M104.77,83.04h-30.95c-.66,0-1.19,.54-1.19,1.19v32.14c0,3.06,2.5,5.56,5.56,5.56h22.22c3.06,0,5.56-2.5,5.56-5.56v-32.14c0-.66-.54-1.19-1.19-1.19Z"/><path class="cls-7" d="M47.6,56l4.45,5.11-.19,2.78c-.05,.71,.19,1.45,.67,2l7.62,8.76c.47,.55,1.18,.89,1.88,.94l2.78,.19,4.45,5.11c.91,1.05,2.46,1.41,3.65,.68,1.5-.92,1.76-2.93,.66-4.2l-21.87-25.16c-1.1-1.27-3.13-1.29-4.25,.07-.88,1.07-.74,2.66,.17,3.7Z"/></svg>