<?xml version="1.0" encoding="UTF-8"?><svg id="Layer_1" xmlns="http://www.w3.org/2000/svg" viewBox="0 0 178.58 249.45"><defs><style>.cls-1{fill:#f2f2f2;}.cls-2{fill:#fff;}.cls-3{fill:#ffa914;}.cls-4{fill:gray;}.cls-5{fill:#4d4d4d;}.cls-6{opacity:.9;}</style></defs><g><path class="cls-2" d="M13.95,3.09H164.63c6,0,10.86,4.87,10.86,10.86V235.5c0,6-4.87,10.86-10.86,10.86H13.95c-6,0-10.86-4.87-10.86-10.86V13.95C3.09,7.96,7.96,3.09,13.95,3.09Z"/><path class="cls-3" d="M164.63,6.18c4.29,0,7.77,3.49,7.77,7.77V235.5c0,4.29-3.49,7.77-7.77,7.77H13.95c-4.29,0-7.77-3.49-7.77-7.77V13.95c0-4.29,3.49-7.77,7.77-7.77H164.63M164.63,0H13.95C6.25,0,0,6.25,0,13.95V235.5C0,243.2,6.25,249.45,13.95,249.45H164.63c7.71,0,13.95-6.25,13.95-13.95V13.95C178.58,6.25,172.34,0,164.63,0h0Z"/></g><g><path class="cls-3" d="M37.18,15.88c-1.05,0-1.5,.01-2.05,.06v-2.23c.7,.08,1.09,.1,2.09,.1h6.94c.41-.01,.61-.05,.87-.14l1.22,1.37c-.2,.19-.27,.28-.58,.81-1.3,2.19-2.34,3.45-4.02,4.85,.54,.65,.9,1.1,1.51,1.93l-1.9,1.48c-.76-1.24-1.39-2.12-2.45-3.31-1.03-1.18-1.62-1.76-2.55-2.52l1.74-1.22c1.04,.85,1.46,1.24,2.19,2.01,.72-.6,1.52-1.41,1.98-2,.32-.39,.66-.94,.81-1.23l-5.8,.03Z"/><path class="cls-3" d="M56.56,24.11c-1.1-1.39-2.22-2.5-3.64-3.6-1.19,1.41-2.7,2.52-4.66,3.47-.44-.89-.71-1.27-1.42-2,1.65-.63,2.95-1.46,4.1-2.56,1.18-1.13,1.95-2.25,2.55-3.72l-3.29,.05c-1.09,.02-1.49,.05-2.01,.13l-.06-2.25c.49,.06,.84,.09,1.33,.09,.1,0,.34,0,.71-.01l4.33-.06c.6-.01,.67-.01,1.01-.14l1.11,1.14c-.19,.19-.27,.32-.46,.75-.67,1.58-1.15,2.47-1.86,3.42,1.53,1.1,2.05,1.55,4.03,3.43l-1.77,1.88Z"/><path class="cls-3" d="M63.15,15.06c.04-.49,.06-1.23,.06-1.62,0-.27,0-.37-.04-.63l2.38,.06c-.06,.29-.06,.33-.14,1.53q-.01,.34-.04,.65h2.76c.42,0,.57-.03,.85-.14l.99,.86c-.14,.25-.17,.36-.18,.94-.09,2.71-.28,4.83-.53,5.66-.37,1.18-.98,1.58-2.38,1.58-.49,0-.68-.01-1.66-.1-.05-1.01-.14-1.43-.43-2.23,.63,.17,1.25,.25,1.65,.25,.61,0,.76-.2,.92-1.3,.13-.85,.24-2.45,.24-3.53h-2.42q-.1,.84-.19,1.27c-.56,2.56-1.76,4.21-4.33,5.9-.57-.9-.95-1.33-1.65-1.93,1.69-.89,2.66-1.79,3.29-3.07,.32-.65,.46-1.1,.63-2.17h-1.58c-.85,0-1.11,.01-1.71,.08v-2.17c.62,.09,.85,.1,1.75,.1h1.75Z"/><path class="cls-3" d="M71.53,17.25c.6,.09,1.28,.11,2.6,.11h6.06c1.27,0,1.75-.03,2.6-.11v2.44c-.61-.06-1.16-.08-2.61-.08h-6.03c-1.42,0-1.84,.01-2.61,.08v-2.44Z"/><path class="cls-3" d="M85.38,24.05c.05-.53,.06-.9,.08-1.94v-7.37c-.01-1.09-.01-1.15-.09-1.84h2.45c-.05,.33-.05,.53-.06,1.85v1.74c2,.65,3.99,1.55,5.76,2.64l-1.2,2.15c-1.05-.75-2.52-1.56-3.99-2.2-.38-.15-.42-.16-.46-.19-.04-.01-.06-.03-.11-.06v3.29c0,.94,.03,1.61,.08,1.94h-2.44Zm5.73-10.44c.49,.56,.9,1.14,1.25,1.81l-1.2,.58c-.42-.8-.75-1.27-1.25-1.85l1.2-.54Zm1.69-.76c.47,.51,.82,.99,1.27,1.76l-1.17,.57c-.44-.8-.8-1.31-1.24-1.81l1.14-.52Z"/></g><path class="cls-3" d="M13.95,0H30V16.05c0,7.7-6.25,13.95-13.95,13.95H0V13.95C0,6.25,6.25,0,13.95,0Z"/><g class="cls-6"><path class="cls-2" d="M15,19.78c-.1,0-.19-.04-.26-.1l-6.73-4.47c-.07-.08-.07-.31,.07-.45l6.58-4.37c.14-.13,.23-.16,.33-.16s.19,.04,.26,.1l6.73,4.49s.03,.1,.03,.2-.04,.19-.11,.26l-6.58,4.35c-.14,.13-.23,.17-.33,.17Z"/><path class="cls-2" d="M15.08,10.66h0m-.08,.07s.04,.03,.07,.05l6.36,4.23-6.36,4.21s-.05,.03-.07,.05c-.02-.02-.05-.03-.07-.05l-6.36-4.21,6.36-4.23s.05-.03,.07-.05m0-.98c-.21,0-.43,.08-.59,.24l-6.65,4.43c-.32,.32-.32,.86,0,1.18l6.65,4.41c.16,.16,.38,.24,.59,.24s.43-.08,.59-.24l6.65-4.41c.32-.32,.32-.86,0-1.18l-6.65-4.43c-.16-.16-.38-.24-.59-.24h0Z"/></g><g><path d="M19.77,169.25c-.56-.62-.78-.86-1.19-1.22-.64,.92-1.28,1.56-2.27,2.23-.24-.38-.5-.74-.86-1.12,.96-.58,1.56-1.13,2.15-1.96-.62-.5-.95-.73-1.83-1.28,.43-1.01,.73-1.98,1.04-3.24h-.29c-.31,0-.6,.02-.86,.06v-1.3c.31,.06,.6,.07,1.06,.07h.34c.16-.95,.25-1.72,.25-2.16v-.13l1.42,.11c-.05,.18-.06,.25-.13,.77-.07,.49-.13,.86-.24,1.42h1.04c.43,0,.71-.01,1.01-.05q-.01,.24-.05,.73c-.1,1.74-.47,3.35-1.09,4.68,.55,.46,.77,.64,1.34,1.22l-.83,1.16Zm-1.68-6.58q-.04,.18-.13,.54c-.13,.56-.35,1.29-.66,2.19,.48,.32,.66,.46,.95,.66,.47-1.01,.67-1.77,.86-3.39h-1.02Zm6.01,6.25c0,1.06-.31,1.3-1.64,1.3-.35,0-.72-.01-1.25-.05-.06-.55-.12-.82-.32-1.36,.58,.08,1.03,.13,1.36,.13,.42,0,.52-.04,.52-.23v-3.21h-1.21c-.47,0-.85,.02-1.22,.07v-1.37c.29,.05,.55,.06,1.19,.06h1.25v-.41c0-.47-.02-.71-.07-1.14h.48c.66-.58,.96-.92,1.43-1.63h-2.66c-.48,0-.94,.02-1.29,.06v-1.37c.31,.05,.74,.07,1.33,.07h2.77c.54,0,.8-.01,1.04-.06l.66,.84c-.1,.1-.13,.14-.24,.29-1,1.37-1.29,1.74-2.1,2.49v.85h1.46c.52,0,.83-.02,1.19-.07v1.38c-.37-.05-.7-.07-1.19-.07h-1.46v3.42Z"/><path d="M28.16,161.16c.35,.04,.62,.05,1.15,.05,.91,0,1.56-.04,2.47-.13q-.04-.1-.13-.31c-.3-.7-.47-1.07-.48-1.09l1.5-.2c.05,.3,.17,.66,.49,1.45,1.02-.13,2.41-.44,3.24-.72l.12,1.27q-.12,.02-.41,.08c-.8,.19-2.13,.46-2.51,.5,.19,.44,.26,.6,.47,.98,1.03-.22,1.58-.34,1.65-.35,.68-.17,.83-.22,1.14-.35l.12,1.31c-.23,.04-.48,.08-.76,.16-.49,.12-.89,.2-1.17,.26q-.3,.06-.44,.1c.62,1.03,.82,1.28,1.61,2.19l-1.06,.76c-.86-.36-1.58-.49-2.76-.49-.91,0-1.61,.12-2.01,.34-.34,.19-.52,.44-.52,.73s.2,.56,.52,.7c.38,.17,1.02,.26,1.71,.26,1.25,0,2.94-.36,3.69-.78l.22,1.48q-.23,.04-.78,.18c-1.02,.28-2.01,.41-3.07,.41-1.38,0-2.25-.18-2.93-.59-.58-.36-.92-.97-.92-1.64s.36-1.25,1.01-1.67c.62-.4,1.58-.6,2.79-.6,.73,0,1.43,.08,2.07,.25-.19-.18-.42-.52-.92-1.34-1.27,.19-2.04,.24-4.64,.32-.2,.01-.29,.01-.49,.04l-.05-1.31c.35,.05,.42,.05,1.24,.05,1.26,0,2.25-.07,3.39-.23-.07-.14-.12-.22-.22-.44-.12-.25-.16-.32-.25-.54-.96,.11-1.82,.16-3.21,.17-.5,0-.56,.01-.82,.02l-.06-1.27Z"/><path d="M42.9,159.55q-.07,.23-.19,.8c-.06,.29-.12,.53-.25,1.06,.83-.08,1.45-.19,1.92-.34l.04,1.38c-.13,.01-.16,.01-.38,.06-.43,.07-1.16,.16-1.91,.22-.35,1.2-.78,2.34-1.32,3.48-.28,.59-.38,.8-.84,1.64q-.16,.29-.23,.43l-1.38-.77c.42-.55,.76-1.09,1.16-1.92,.47-.96,.67-1.45,1.13-2.83-.54,.01-.61,.01-.76,.01-.16,0-.23,0-.48-.01h-.64v-1.38c.43,.08,.89,.11,1.62,.11,.14,0,.35,0,.61-.01,.2-.85,.34-1.57,.36-2.09l1.54,.16Zm5.43,9.71c-.43-.52-1.13-1.08-1.83-1.49,.01,.11,.02,.19,.02,.24,0,.44-.2,.96-.52,1.27-.42,.43-1.14,.67-1.99,.67-1.58,0-2.62-.79-2.62-2.01s1.07-2.06,2.59-2.06c.36,0,.61,.02,1.12,.11-.04-.55-.06-1.02-.06-1.38,0-.47,.02-.82,.1-1.21l1.39,.07c-.12,.44-.14,.72-.14,1.21s.02,.96,.11,1.64c.86,.38,.98,.44,1.89,1.1,.18,.12,.23,.17,.42,.32q.1,.1,.18,.17l-.66,1.34Zm-4.26-2.19c-.78,0-1.28,.32-1.28,.83s.43,.78,1.18,.78c.82,0,1.21-.34,1.21-1.01,0-.12-.02-.41-.02-.41-.42-.14-.71-.19-1.08-.19Zm4.32-3.32c-1.04-.7-2.11-1.21-3.45-1.68l.72-1.16c1.42,.54,2.31,.96,3.38,1.61l-.65,1.24Z"/><path d="M59.72,162.25c-.1,.22-.12,.38-.13,.8-.04,1.36-.17,3.2-.29,3.99-.31,2.07-.73,2.57-2.17,2.57-.46,0-.86-.04-1.49-.13-.02-.76-.06-.98-.28-1.54,.71,.19,1.19,.28,1.58,.28,.52,0,.7-.26,.89-1.31,.14-.83,.26-2.46,.26-3.84h-2.79c-.17,1.51-.42,2.41-.96,3.44-.66,1.27-1.73,2.36-3.24,3.32-.41-.64-.58-.83-1.08-1.27,1.5-.79,2.48-1.74,3.12-3.02,.32-.66,.5-1.25,.61-2.09,.02-.17,.05-.29,.06-.37h-1.99c-.73,.01-.9,.02-1.29,.07v-1.48c.4,.07,.72,.1,1.32,.1h2.1c.04-.47,.06-1.16,.06-1.51v-.3c0-.16,0-.25-.04-.47l1.61,.04c-.02,.16-.04,.2-.05,.37,0,.07-.01,.14-.01,.23q-.02,.25-.05,.88c-.01,.26-.01,.37-.05,.76h2.66c.54-.01,.65-.02,.95-.12l.68,.6Z"/><path d="M61.56,163.9c.53,.07,.76,.08,1.94,.08h6.39c1.19,0,1.42-.01,1.94-.08v1.67c-.48-.06-.61-.06-1.96-.06h-6.37c-1.34,0-1.48,0-1.96,.06v-1.67Z"/><path d="M74.64,169.88c.05-.34,.07-.66,.07-1.34v-7.69c-.01-.7-.02-.94-.07-1.22h1.64c-.04,.32-.05,.55-.05,1.26v2.23c1.39,.46,3.55,1.46,5.45,2.53l-.84,1.42c-.84-.6-2.54-1.52-4.25-2.29-.28-.13-.31-.14-.41-.2,.04,.34,.05,.54,.05,.82v3.17c0,.65,.01,.98,.05,1.33h-1.64Zm4.94-9.63c.53,.56,.85,1.02,1.26,1.76l-.84,.44c-.4-.73-.73-1.21-1.26-1.79l.84-.42Zm1.86,1.45c-.36-.66-.75-1.22-1.22-1.74l.8-.42c.54,.55,.88,1.01,1.25,1.69l-.83,.47Z"/><path d="M83.87,160.71c.49,.11,1.26,.16,2.78,.16,.32-.72,.43-1.08,.48-1.49l1.57,.17q-.07,.12-.48,1.08c-.06,.13-.08,.17-.11,.22q.1-.01,.75-.05c1.39-.08,2.48-.22,3.14-.41l.08,1.37q-.34,.02-.95,.1c-.88,.11-2.4,.2-3.61,.24-.35,.68-.68,1.16-1.1,1.6v.02q.1-.06,.25-.18c.44-.34,1.08-.54,1.69-.54,.94,0,1.52,.44,1.71,1.27,.92-.34,1.54-.55,1.83-.65,.65-.23,.7-.24,.89-.36l.56,1.38c-.34,.05-.7,.14-1.33,.32-.17,.05-.77,.25-1.8,.61v.13q.01,.31,.01,.48v.48c-.01,.2-.01,.31-.01,.4,0,.26,.01,.43,.04,.64l-1.39,.04c.05-.22,.07-.83,.07-1.39v-.29c-.59,.28-.9,.44-1.15,.62-.42,.31-.62,.64-.62,.98,0,.62,.58,.88,2.03,.88s2.67-.18,3.53-.5l.12,1.55c-.2,0-.26,.01-.55,.05-.86,.13-2.01,.22-3.07,.22-1.27,0-2.06-.14-2.67-.5-.55-.31-.88-.89-.88-1.55,0-.49,.14-.88,.53-1.33,.54-.67,1.22-1.13,2.58-1.69-.06-.44-.3-.65-.73-.65-.7,0-1.54,.42-2.46,1.24-.5,.42-.78,.72-1.04,1.09l-1.09-1.08c.31-.24,.66-.58,1.08-1.07,.47-.55,1.2-1.6,1.44-2.05q.05-.1,.1-.16s-.2,.01-.2,.01c-.19,0-1.25-.02-1.51-.02q-.23-.01-.34-.01s-.11,0-.19,.01l.02-1.37Z"/><path d="M97.32,167.73c.36,.66,.76,.94,1.49,1.07-.14-.23-.44-.55-.78-.83,.84-.28,1.33-.53,1.81-.94h-1.35c-.44,0-.65,.01-.92,.06v-1.1c.26,.05,.46,.06,.92,.06h.9v-.74h-.26c-.6,0-.82,.01-1.12,.05v-1.06c.29,.04,.49,.05,1.12,.05h.25c-.01-.29-.02-.41-.05-.61h1.32c-.02,.19-.04,.35-.05,.61h1.62c-.01-.29-.02-.41-.05-.61h1.32c-.04,.2-.05,.34-.06,.61h.63c.61,0,.82-.01,1.12-.05v1.06c-.31-.04-.53-.05-1.13-.05h-.62v.74h.92c.64,0,.85-.01,1.15-.05v1.08c-.31-.04-.54-.05-1.15-.05h-1.28c.62,.4,1.2,.61,2.23,.84-.3,.31-.5,.58-.7,.91q.32-.02,1.22-.14c-.22,.58-.25,.71-.36,1.38-1.05,.05-2.59,.07-4.12,.07-1.87,0-2.57-.06-3.17-.25s-1.04-.53-1.47-1.09c-.49,.47-.68,.64-1.16,1.01-.24,.19-.33,.26-.54,.43l-.59-1.37c.46-.19,.94-.53,1.66-1.16v-2.59h-.62c-.32,0-.49,.01-.8,.06v-1.3c.31,.05,.52,.06,.96,.06h.86c.42,0,.59-.01,.9-.05-.04,.38-.04,.56-.04,1.3v2.59Zm-1.67-8.29c.88,.78,1.26,1.2,1.83,1.92l-1,.97c-.62-.88-.94-1.22-1.8-1.99l.96-.9Zm5.48,1.86c0,.3,0,.48,.02,.65-.3-.02-.48-.04-.77-.04h-1.54v.36c0,.25,.04,.28,.52,.28,.94,0,.95-.01,.98-.56,.3,.19,.6,.31,.98,.38-.07,.66-.19,.9-.52,1.02-.24,.08-.61,.11-1.58,.11-1.25,0-1.47-.12-1.47-.77v-1.02c0-.32-.01-.48-.04-.71,.22,.02,.42,.04,.84,.04h1.43v-.49h-1.39c-.48,0-.68,.01-.97,.05v-1.06c.25,.04,.61,.05,.98,.05h1.49c.58,0,.84-.01,1.05-.04-.02,.18-.02,.26-.02,.66v1.09Zm-.12,6.21c-.85,.77-1.19,.98-1.96,1.32,.58,.06,1.26,.08,2.08,.08,.88,0,1.93-.04,3.02-.1-.89-.3-1.58-.7-2.27-1.28l.73-.5h-2.35l.74,.48Zm-.42-1.46h1.63v-.74h-1.63v.74Zm4.56-4.75c0,.29,0,.48,.02,.65-.3-.02-.48-.04-.77-.04h-1.52v.36c0,.17,.01,.2,.11,.24,.08,.04,.26,.05,.55,.05,.86,0,.89-.01,.91-.59,.36,.2,.61,.29,1.05,.4-.1,.66-.18,.86-.44,.98-.24,.11-.71,.14-1.66,.14-.83,0-1.12-.02-1.32-.12-.25-.11-.35-.31-.35-.68v-.92q-.01-.49-.02-.52t-.01-.25c.22,.02,.42,.04,.83,.04h1.44v-.49h-1.33c-.48,0-.68,.01-.97,.05v-1.06c.26,.04,.61,.05,.98,.05h1.46c.58,0,.84-.01,1.06-.04-.02,.17-.02,.3-.02,.66v1.09Z"/><path d="M109.33,164.98c-.02,.07-.04,.14-.05,.17-.01,.04-.05,.17-.1,.36-.47,1.7-.96,2.94-1.54,3.85-.47-.38-.76-.56-1.28-.79,.6-.8,1.36-2.76,1.57-4.03l1.39,.44Zm5.67-3.79c.52,.56,.84,1.02,1.26,1.76l-.84,.44c-.41-.73-.73-1.21-1.26-1.79v.47c-.34,.06-.62,.18-1.03,.43-.77,.48-1.19,1-1.19,1.44,0,.13,.05,.32,.11,.43,.12,.24,.17,.29,.89,1.06,.43,.48,.67,.79,.83,1.14,.16,.36,.24,.72,.24,1.06,0,.62-.29,1.25-.77,1.64-.42,.36-.96,.53-1.63,.53-.85,0-1.67-.3-2.52-.94,.18-.5,.24-.77,.34-1.45,.67,.62,1.42,.98,2.06,.98,.55,0,.94-.34,.94-.83,0-.2-.06-.42-.19-.67-.14-.3-.28-.47-.74-1-.7-.78-.91-1.22-.91-1.82,0-.55,.23-1.08,.66-1.57,.24-.26,.37-.38,.86-.71l-.16-.02-.24-.02c-.73-.07-1.4-.25-2.41-.64-.22-.07-.23-.08-.41-.13l.53-1.34c.35,.2,.84,.38,1.59,.59,.88,.24,2.24,.44,2.93,.44,.04,0,.12,0,.24-.01v.95l.83-.42Zm.48,3.12c.89,1.31,1.55,2.71,1.96,4.15l-1.42,.67c-.19-1.19-1.25-3.65-1.83-4.27l1.3-.55Zm1.38-1.67c-.37-.66-.77-1.22-1.22-1.74l.8-.42c.54,.55,.86,1.01,1.25,1.69l-.83,.47Z"/></g><g><path class="cls-4" d="M18.45,178.32c0-.3-.02-.53-.06-.78h.89c-.04,.26-.06,.46-.06,.78v5.05h2.11v-3.62c0-.33-.02-.53-.05-.76h.85c-.03,.28-.05,.49-.05,.76v4.03c0,.35,.02,.61,.06,.92h-.81v-.61h-4.87v.61h-.8c.03-.3,.05-.54,.05-.9v-4.02c0-.28-.02-.56-.05-.79h.84c-.03,.22-.04,.44-.04,.78v3.61h1.98v-5.05Z"/><path class="cls-4" d="M26.17,178.99c.27,0,.41,0,.62-.04v.73c-.2-.03-.34-.04-.6-.04h-.66c.35,.82,.78,1.42,1.37,1.94-.16,.22-.25,.4-.37,.73-.54-.64-.76-.99-1.08-1.74,.02,.3,.02,.46,.02,.57q0,.39,.02,.86v1.98c0,.36,0,.59,.05,.82h-.82c.03-.22,.05-.47,.05-.82v-1.88c0-.3,.02-1.13,.05-1.45-.34,1.01-.7,1.7-1.28,2.41-.11-.27-.22-.46-.42-.71,.42-.42,.72-.86,1.07-1.55,.17-.34,.3-.66,.46-1.16h-.7c-.26,0-.38,0-.54,.04v-.73c.16,.03,.3,.04,.59,.04h.75v-.82c0-.3,0-.48-.05-.7h.83c-.04,.22-.05,.4-.05,.71v.82h.68Zm1.96-1.49c-.03,.26-.05,.58-.05,.88v5.23c0,.22,.11,.26,.78,.26,.42,0,.62-.04,.71-.14,.12-.16,.15-.5,.17-1.61,.27,.14,.45,.2,.74,.26-.04,1.14-.12,1.62-.34,1.89-.2,.26-.54,.33-1.47,.33-.46,0-.84-.04-.99-.1-.26-.11-.35-.26-.35-.59v-5.52c0-.3-.02-.61-.06-.88h.86Z"/><path class="cls-4" d="M32.97,177.91c-.17,.41-.34,1.18-.44,1.95-.09,.64-.14,1.49-.15,2.18v.72h.02c.07-.35,.12-.5,.43-1.23l.55,.25c-.41,.86-.69,1.81-.69,2.33,0,.03,0,.1,0,.18l-.82,.06c0-.14-.02-.18-.04-.35-.15-.93-.21-1.52-.21-2.36,0-1.06,.1-1.93,.34-3.12,.08-.42,.1-.5,.11-.71l.89,.11Zm2.1,3.3c-.4,.46-.58,.82-.58,1.17,0,.5,.47,.76,1.38,.76,.71,0,1.4-.1,1.88-.3l.07,.86c-.1,.02-.13,.02-.3,.05-.61,.1-1.11,.15-1.65,.15-.96,0-1.58-.22-1.92-.66-.16-.2-.25-.5-.25-.78,0-.48,.23-.98,.72-1.57l.65,.32Zm-1.2-2.53c.42,.1,.75,.13,1.36,.13,.98,0,1.78-.08,2.24-.22l.04,.82c-.06,0-.1,0-.56,.06-.5,.06-1.11,.1-1.7,.1-.46,0-.82-.02-1.17-.06-.11,0-.14-.02-.22-.02v-.8Z"/><path class="cls-4" d="M39.06,178.57c.35,.08,.82,.12,1.5,.12h.18q.02-.18,.04-.53c0-.1,.02-.37,.02-.46,0-.03,0-.07,0-.13l.84,.05c-.06,.21-.1,.46-.15,1.04,1.28-.07,2.42-.23,3.04-.44l.04,.78c-.11,0-.15,.02-.3,.04-.96,.15-2.11,.27-2.82,.29q-.04,.59-.05,.9c.42-.09,.68-.12,1.05-.12,.14,0,.24,0,.45,0,.1-.25,.15-.46,.18-.65l.76,.22q-.03,.07-.12,.3c-.06,.17-.07,.19-.1,.29,.33,.07,.57,.18,.85,.38,.54,.38,.8,.87,.8,1.51,0,.84-.46,1.5-1.33,1.94-.47,.24-.93,.36-1.63,.44-.09-.3-.14-.43-.36-.76,.49-.02,.8-.06,1.18-.18,.86-.3,1.34-.82,1.34-1.49,0-.58-.38-1.01-1.08-1.22-.47,1.07-.94,1.76-1.6,2.4-.64,.62-1.24,.92-1.82,.92-.66,0-1.14-.55-1.14-1.32,0-.64,.28-1.25,.78-1.75,.32-.31,.62-.51,1.09-.71q0-.48,.04-1.06h-.26c-.15,0-.3,0-.52-.02-.3,0-.66-.02-.71-.02-.03,0-.09,0-.16,0v-.75Zm.9,3.18c-.27,.34-.42,.7-.42,1.06,0,.38,.2,.64,.5,.64,.26,0,.5-.1,.79-.34-.1-.56-.14-1.07-.15-1.96-.34,.21-.54,.36-.72,.59Zm1.49,.7q0,.06,.02,.1s0,.04,0,.07q.07-.09,.13-.16c.47-.56,.78-1.06,1.06-1.71-.1-.02-.13-.02-.21-.02-.42,0-.75,.06-1.08,.18,.02,.83,.02,1.14,.07,1.54Z"/><path class="cls-4" d="M47.14,178.04c.26,.04,.41,.05,.85,.05,.73,0,1.67-.04,2.45-.1,.26-.02,.34-.03,.45-.1l.43,.6c-.12,.06-.17,.1-.41,.33-1.11,1.06-1.98,1.77-2.53,2.1l.02,.02c.68-.31,1.16-.42,1.8-.42,1.34,0,2.21,.69,2.21,1.75,0,.74-.38,1.33-1.07,1.72-.52,.29-1.16,.44-1.88,.44-.64,0-1.17-.12-1.48-.34-.3-.21-.48-.54-.48-.9,0-.61,.55-1.06,1.29-1.06,.55,0,1.04,.24,1.36,.66,.16,.21,.25,.38,.37,.74,.27-.09,.43-.17,.6-.29,.31-.23,.49-.57,.49-.95,0-.7-.62-1.13-1.64-1.13-1.18,0-2.38,.5-3.33,1.35l-.46-.71c.72-.38,2.6-1.93,3.64-2.99,.02-.02,.11-.11,.14-.14h0c-.29,.03-1.14,.09-2.36,.14-.18,0-.24,.02-.4,.04l-.04-.82Zm1.65,4.73c-.33,0-.54,.16-.54,.42,0,.35,.41,.57,1.08,.57,.16,0,.21,0,.46-.03-.16-.63-.5-.95-1-.95Z"/><path class="cls-4" d="M55.97,179.22c.03-.38,.05-.8,.05-1.14,0-.2,0-.26-.02-.42l.9,.02c-.03,.17-.03,.22-.07,1,0,.14,0,.24-.03,.54h1.86c.36-.02,.42-.02,.59-.08l.39,.35c-.06,.13-.07,.22-.08,.5-.05,1.76-.19,3.04-.41,3.61-.2,.51-.5,.7-1.12,.7-.3,0-.57-.03-1-.11,0-.41-.02-.54-.14-.85,.46,.14,.78,.2,1.05,.2,.36,0,.48-.18,.62-.92,.11-.58,.19-1.68,.19-2.68h-2.01c-.06,.57-.07,.62-.14,.91-.22,1.03-.65,1.83-1.36,2.57-.41,.42-.74,.69-1.28,1.02-.22-.34-.31-.44-.59-.69,.98-.52,1.65-1.18,2.08-2.05,.26-.53,.35-.88,.46-1.74h-1.38c-.5,0-.58,0-.86,.05v-.83c.27,.05,.46,.06,.86,.06h1.44Z"/><path class="cls-4" d="M60.97,180.61c.3,.04,.64,.06,1.23,.06h4.33c.69,0,.88,0,1.19-.05v.93c-.35-.03-.61-.04-1.2-.04h-4.31c-.67,0-.91,0-1.24,.04v-.94Z"/><path class="cls-4" d="M69.68,184.46c.04-.34,.05-.54,.05-1.02v-4.77c0-.55,0-.73-.05-.95h.95c-.04,.26-.05,.53-.05,.98v1.35c1.14,.4,2.26,.93,3.6,1.69l-.47,.79c-.35-.24-.57-.38-.98-.61-.61-.33-1.48-.76-1.92-.94q-.13-.06-.26-.14l.02,.31c0,.07,0,.32,0,.4v1.9c0,.42,.02,.72,.05,1.02h-.94Zm3.37-6.36c.38,.42,.55,.68,.83,1.2l-.5,.27c-.26-.5-.49-.83-.83-1.22l.5-.25Zm.94-.46c.38,.42,.55,.66,.82,1.17l-.49,.28c-.25-.46-.47-.8-.82-1.2l.48-.25Z"/><path class="cls-4" d="M78.58,182.17c-.46,1.06-.95,1.52-1.58,1.52-.85,0-1.47-.89-1.47-2.1,0-.86,.3-1.66,.86-2.28,.66-.72,1.58-1.1,2.69-1.1,1.86,0,3.09,1.14,3.09,2.87,0,1.34-.7,2.41-1.9,2.9-.38,.15-.69,.24-1.23,.34-.12-.37-.19-.5-.41-.78,.62-.1,.98-.18,1.33-.33,.86-.37,1.39-1.21,1.39-2.17,0-.83-.39-1.5-1.1-1.87-.27-.14-.49-.2-.86-.22-.14,1.19-.43,2.36-.82,3.22Zm-1.1-2.83c-.73,.49-1.18,1.34-1.18,2.25,0,.7,.3,1.25,.69,1.25,.29,0,.58-.35,.9-1.08,.31-.74,.58-1.85,.69-2.81-.44,.05-.75,.15-1.1,.38Z"/><path class="cls-4" d="M86.15,178.29c0-.42-.02-.59-.06-.86h.86c-.04,.24-.05,.46-.05,.83v.59h2.24c.31,0,.48,0,.68-.03-.02,.22-.03,.38-.03,.67v2.34c0,.31,0,.52,.04,.76h-.79v-.5h-2.13v1.72c0,.47,0,.7,.06,.96h-.87c.04-.28,.06-.51,.06-.96v-1.72h-2.03v.5h-.8c.03-.27,.05-.45,.05-.76v-2.34c0-.28,0-.44-.04-.67,.22,.02,.38,.03,.67,.03h2.15v-.57Zm-2.03,1.26v1.85h2.03v-1.85h-2.03Zm4.93,1.85v-1.85h-2.13v1.85h2.13Z"/><path class="cls-4" d="M90.86,179.64c.29,0,1.05-.09,1.73-.18,.14-.75,.22-1.37,.22-1.63,0-.03,0-.08,0-.14l.88,.09c-.02,.1-.04,.16-.06,.26q-.03,.15-.06,.28t-.14,.78c-.03,.18-.03,.2-.06,.31,.22-.02,.34-.02,.52-.02,.5,0,.88,.13,1.13,.38,.28,.29,.38,.66,.38,1.37,0,1.33-.22,2.41-.58,2.85-.22,.26-.45,.36-.85,.36-.33,0-.69-.08-1.22-.27,0-.13,.02-.23,.02-.3,0-.14-.02-.27-.06-.55,.43,.21,.9,.34,1.17,.34,.26,0,.4-.18,.53-.62,.13-.42,.21-1.18,.21-1.88,0-.74-.22-.99-.88-.99-.17,0-.3,0-.51,.03-.32,1.33-.63,2.23-1.13,3.29-.06,.13-.24,.48-.53,1.06l-.78-.44c.24-.3,.56-.88,.83-1.48,.35-.78,.54-1.31,.82-2.37-.62,.09-1.2,.19-1.51,.27l-.08-.79Zm5.45-.77c.81,.92,1.3,1.81,1.66,3l-.75,.39c-.15-.65-.34-1.15-.66-1.74-.3-.56-.55-.91-.93-1.31l.67-.34Z"/><path class="cls-4" d="M100.25,179.21c-.11,.44-.23,1.1-.37,2.05-.02,.14-.02,.18-.06,.28,.5-.5,1.51-.83,2.51-.83,1.33,0,2.2,.64,2.2,1.62,0,.58-.3,1.14-.79,1.48-.53,.36-1.18,.53-2.05,.53-.69,0-1.11-.06-2.03-.29,0-.4-.02-.54-.09-.86,.72,.26,1.43,.4,2.1,.4,1.18,0,2.01-.5,2.01-1.24,0-.58-.54-.93-1.43-.93-.99,0-2.01,.4-2.43,.96l-.86-.02c.02-.14,.02-.18,.06-.47,.08-.58,.18-1.29,.34-2.28,.03-.18,.04-.28,.06-.45l.83,.05Zm.21-1.49c.52,.3,2.01,.75,2.87,.89l-.28,.76c-1.42-.34-2.05-.55-2.98-.98l.39-.66Z"/><path class="cls-4" d="M106.08,182.39c.71,.55,1.13,.98,1.72,1.73l-.66,.61c-.56-.78-1.02-1.26-1.67-1.79l.61-.55Z"/><path class="cls-4" d="M17.82,188.05c.19-.36,.3-.68,.39-1.08l.83,.1c-.15,.41-.27,.68-.42,.98h1.89c.45,0,.69,0,.98-.04-.03,.27-.04,.49-.04,.98v4.39c0,.48,0,.69,.05,.93h-.78v-.43h-4.05v.43h-.77c.03-.21,.05-.51,.05-.93v-4.39c0-.47,0-.7-.04-.98,.29,.03,.51,.04,.97,.04h.95Zm-1.16,1.7h4.06v-1.02h-4.06v1.02Zm0,1.69h4.06v-1.04h-4.06v1.04Zm0,1.77h4.06v-1.11h-4.06v1.11Z"/><path class="cls-4" d="M24.92,190.53c-.28,0-.52,.02-.74,.04v-.65c-.37,.39-.62,.62-1.06,.94-.13-.22-.29-.42-.53-.64,.98-.66,1.66-1.4,2.13-2.31,.19-.36,.28-.6,.32-.82l.82,.3c-.07,.1-.12,.19-.22,.41-.35,.75-.76,1.36-1.37,2.03,.18,.02,.4,.03,.65,.03h2.81c.32,0,.5,0,.74-.02-.59-.63-1.06-1.32-1.43-2.09-.04-.08-.13-.25-.18-.34l.75-.29c.06,.2,.13,.38,.3,.69,.55,.98,1.26,1.73,2.27,2.38-.19,.2-.33,.38-.51,.71-.48-.36-.75-.59-1.11-.96q0,.14-.02,.5c-.02,1.74-.14,2.91-.34,3.32-.16,.3-.42,.41-1.01,.41-.2,0-.36,0-.92-.04-.03-.3-.08-.46-.19-.79,.42,.07,.78,.11,1.03,.11,.3,0,.38-.04,.45-.2,.09-.26,.14-.65,.19-1.3,.03-.4,.05-.82,.05-1.14v-.26h-1.67c-.06,.86-.24,1.43-.62,2.06-.44,.73-1.09,1.29-2.03,1.76-.13-.26-.24-.4-.48-.65,.49-.2,.83-.41,1.23-.76,.58-.5,.95-1.15,1.1-1.92,.02-.15,.04-.23,.06-.5h-.46Z"/><path class="cls-4" d="M33.92,191.77c-.46,1.06-.95,1.52-1.58,1.52-.85,0-1.47-.89-1.47-2.1,0-.86,.3-1.66,.86-2.28,.66-.72,1.58-1.1,2.69-1.1,1.86,0,3.09,1.14,3.09,2.87,0,1.34-.7,2.41-1.9,2.9-.38,.15-.69,.24-1.23,.34-.12-.37-.19-.5-.41-.78,.62-.1,.98-.18,1.33-.33,.86-.37,1.39-1.21,1.39-2.17,0-.83-.39-1.5-1.1-1.87-.27-.14-.49-.2-.86-.22-.14,1.19-.43,2.36-.82,3.22Zm-1.1-2.83c-.73,.49-1.17,1.34-1.17,2.25,0,.7,.3,1.25,.69,1.25,.29,0,.58-.35,.9-1.08,.31-.74,.58-1.85,.69-2.81-.44,.05-.75,.15-1.1,.38Z"/><path class="cls-4" d="M41.07,193.64c-.37-.43-.51-.58-.79-.85-.43,.64-.86,1.06-1.54,1.52-.13-.22-.28-.42-.48-.62,.66-.39,1.06-.76,1.49-1.37-.43-.36-.65-.52-1.25-.89,.3-.7,.5-1.34,.71-2.19h-.21c-.22,0-.42,.02-.61,.04v-.74c.2,.03,.41,.05,.7,.05h.25c.12-.59,.19-1.16,.19-1.47v-.1l.8,.07c-.02,.07-.06,.27-.09,.5-.06,.37-.13,.74-.18,1h.7c.3,0,.51,0,.7-.03q-.02,.14-.03,.44c-.02,.31-.13,1.04-.2,1.42-.14,.69-.31,1.18-.58,1.73,.39,.34,.52,.46,.89,.85l-.46,.64Zm-1.14-4.39c-.15,.64-.3,1.14-.58,1.92,.38,.26,.51,.34,.77,.54,.34-.7,.51-1.38,.62-2.46h-.8Zm3.21,.87c0-.3-.02-.48-.05-.77h.3c.49-.42,.73-.67,1.07-1.18h-1.98c-.3,0-.62,.02-.83,.04v-.77c.22,.03,.49,.05,.86,.05h1.93c.34,0,.51,0,.66-.04l.38,.48q-.08,.08-.47,.6c-.34,.45-.67,.82-1.14,1.24v.65h1.12c.34,0,.54-.02,.76-.05v.78c-.23-.03-.43-.05-.76-.05h-1.12v2.42c0,.62-.18,.78-.94,.78-.19,0-.62-.02-.91-.05-.05-.36-.07-.49-.18-.75,.48,.06,.77,.1,1,.1s.29-.03,.29-.17v-2.33h-.92c-.32,0-.54,.02-.78,.05v-.77c.2,.03,.35,.04,.76,.04h.94v-.3Z"/><path class="cls-4" d="M46.8,188.38c.25,.02,.34,.02,.79,.02,.58,0,1.15-.03,1.66-.1-.15-.38-.38-.89-.44-1l.84-.12c.03,.18,.12,.43,.36,1.03,.79-.11,1.62-.3,2.16-.5l.06,.72q-.08,.02-.26,.06s-.1,.02-.2,.05c-.41,.1-1.22,.26-1.51,.31,.12,.28,.17,.38,.36,.75,1.02-.2,1.55-.34,1.85-.48l.07,.74c-.14,.03-.3,.06-.48,.1q-.54,.14-.84,.2t-.3,.06c.42,.7,.61,.95,1.1,1.52l-.61,.43c-.51-.25-1.06-.35-1.84-.35-1.16,0-1.82,.29-1.82,.8,0,.21,.15,.42,.38,.52,.27,.12,.7,.19,1.21,.19,.83,0,1.94-.24,2.42-.53l.14,.83c-.15,.03-.21,.05-.46,.12-.77,.22-1.35,.3-2.09,.3-.85,0-1.41-.11-1.83-.37-.38-.23-.62-.62-.62-1.06s.24-.8,.66-1.07c.41-.26,1.04-.39,1.85-.39,.55,0,1.04,.06,1.47,.2-.18-.19-.38-.48-.72-1.04-.77,.13-1.5,.18-2.8,.22-.4,0-.43,0-.6,.03l-.02-.74c.19,.02,.34,.03,.71,.03,.86,0,1.82-.07,2.41-.18-.1-.18-.14-.25-.38-.76-.66,.08-1.24,.11-2.14,.13-.33,0-.36,0-.53,.02l-.03-.71Z"/><path class="cls-4" d="M56.38,187.26q-.05,.14-.13,.52c-.06,.26-.1,.42-.18,.78,.58-.06,1-.13,1.34-.24l.03,.78c-.1,0-.1,0-.27,.04-.3,.06-.77,.11-1.29,.15-.24,.82-.53,1.58-.88,2.33-.18,.39-.26,.53-.57,1.08-.06,.11-.12,.21-.15,.28l-.77-.44c.29-.36,.5-.72,.78-1.28,.33-.66,.61-1.36,.78-1.94-.17,0-.24,0-.47,0s-.22,0-.54,0h-.29v-.77c.28,.05,.56,.06,1.02,.06,.23,0,.38,0,.48,0,.14-.52,.25-1.08,.26-1.43l.86,.1Zm3.69,6.36c-.28-.35-.77-.74-1.29-1.02,0,.09,0,.1,0,.17,0,.3-.12,.63-.29,.84-.26,.3-.73,.47-1.3,.47-1.02,0-1.67-.48-1.67-1.24s.69-1.33,1.66-1.33c.26,0,.46,.02,.81,.09-.03-.41-.05-.71-.05-1.02s.02-.48,.06-.76l.78,.06c-.08,.3-.1,.46-.1,.77s.02,.69,.08,1.16c.57,.25,.85,.41,1.32,.77,.18,.14,.18,.14,.25,.2q.06,.06,.12,.1l-.38,.75Zm-2.83-1.43c-.58,0-.94,.24-.94,.61s.32,.57,.87,.57c.59,0,.88-.25,.88-.74,0-.09-.02-.3-.02-.3-.3-.1-.51-.14-.79-.14Zm2.85-2.21c-.67-.46-1.35-.79-2.23-1.11l.4-.63c.94,.35,1.51,.63,2.2,1.06l-.37,.69Z"/><path class="cls-4" d="M63.83,188.82c.03-.38,.05-.8,.05-1.14,0-.2,0-.26-.02-.42l.9,.02c-.03,.17-.03,.22-.07,1,0,.14,0,.24-.03,.54h1.86c.36-.02,.42-.02,.59-.08l.39,.35c-.06,.13-.07,.22-.08,.5-.05,1.76-.19,3.04-.41,3.61-.2,.51-.5,.7-1.12,.7-.3,0-.57-.03-1-.11,0-.41-.02-.54-.14-.85,.46,.14,.78,.2,1.05,.2,.36,0,.48-.18,.62-.92,.11-.58,.19-1.68,.19-2.68h-2.01c-.06,.57-.07,.62-.14,.91-.22,1.03-.65,1.83-1.36,2.57-.41,.42-.74,.69-1.28,1.02-.22-.34-.31-.44-.59-.69,.98-.52,1.65-1.18,2.08-2.05,.26-.53,.35-.88,.46-1.74h-1.38c-.5,0-.58,0-.86,.05v-.83c.27,.05,.46,.06,.86,.06h1.44Z"/><path class="cls-4" d="M68.83,190.21c.3,.04,.64,.06,1.23,.06h4.33c.69,0,.88,0,1.19-.05v.93c-.35-.03-.61-.04-1.2-.04h-4.31c-.67,0-.91,0-1.24,.04v-.94Z"/><path class="cls-4" d="M77.54,194.06c.04-.34,.05-.54,.05-1.02v-4.77c0-.55,0-.73-.05-.95h.95c-.04,.26-.05,.53-.05,.98v1.35c1.13,.4,2.26,.93,3.6,1.69l-.47,.79c-.35-.24-.57-.38-.98-.61-.61-.33-1.48-.76-1.92-.94q-.13-.06-.26-.14l.02,.31c0,.07,0,.32,0,.4v1.9c0,.42,.02,.72,.05,1.02h-.94Zm3.37-6.36c.38,.42,.55,.68,.83,1.2l-.5,.27c-.26-.5-.49-.83-.83-1.22l.5-.25Zm.94-.46c.38,.42,.55,.66,.82,1.17l-.49,.28c-.25-.46-.47-.8-.82-1.2l.48-.25Z"/><path class="cls-4" d="M85.47,188.2c.22-.5,.32-.78,.34-1.03l.88,.11c-.05,.07-.06,.1-.1,.18q-.09,.21-.25,.58s-.05,.1-.06,.14t.06,0h.04s.18,0,.4-.02c.86-.03,1.7-.14,2.13-.27l.05,.76q-.18,.02-.62,.07c-.56,.07-1.59,.14-2.38,.16-.28,.54-.53,.9-.86,1.25v.02q.06-.05,.18-.13c.35-.27,.78-.42,1.22-.42,.3,0,.59,.1,.78,.26,.18,.15,.27,.32,.33,.61,.65-.24,1.08-.4,1.29-.47,.41-.14,.44-.15,.57-.23l.33,.77c-.45,.08-.98,.25-2.1,.66q0,.29,0,.43v.38c0,.14,0,.22,0,.28,0,.15,0,.27,.02,.39l-.78,.02c.02-.16,.05-.61,.05-1.04v-.19c-.98,.45-1.34,.77-1.34,1.19,0,.48,.42,.66,1.54,.66,.84,0,1.71-.13,2.21-.33l.08,.86c-.14,0-.18,0-.35,.04-.59,.09-1.34,.14-1.99,.14-.81,0-1.34-.1-1.73-.32-.35-.2-.56-.56-.56-.98,0-.74,.66-1.38,2.05-1.97-.04-.34-.22-.51-.54-.51-.48,0-1.07,.29-1.7,.83-.32,.27-.5,.47-.66,.7l-.62-.62c.38-.28,.86-.83,1.29-1.46,.1-.15,.26-.42,.5-.81h-.91c-.2-.02-.35-.02-.46-.02h-.05s-.06,0-.12,0l.02-.76c.4,.07,.83,.1,1.56,.1h.29Z"/><path class="cls-4" d="M92.18,187.53c.22,.04,.39,.05,.74,.05h.64c.35,0,.47,0,.75-.04-.05,.49-.06,.86-.06,1.33v3.98c0,.4,.02,.66,.06,.98h-1.03c.05-.3,.06-.59,.06-.98v-4.5h-.4c-.27,0-.5,.02-.77,.05v-.86Z"/><path class="cls-4" d="M99.33,189.2c.28,.7,.52,1.06,1.06,1.61-.17,.18-.29,.37-.42,.64-.34-.46-.51-.76-.7-1.26,.02,.42,.04,.7,.04,1.02v2.38c0,.36,0,.6,.05,.82h-.79c.03-.22,.05-.47,.05-.82v-1.77c0-.54,0-.85,.03-1.35-.28,.95-.54,1.54-.96,2.17-.14-.28-.26-.44-.45-.65,.59-.75,1.08-1.81,1.3-2.8h-.32c-.28,0-.47,0-.65,.04v-.72c.2,.03,.37,.04,.66,.04h.37v-.82c0-.3,0-.49-.05-.7h.8c-.03,.22-.04,.4-.04,.71v.81h.38c.26,0,.42,0,.64-.04v.71c-.22-.02-.41-.03-.62-.03h-.38Zm5.32-.05c-.2-.02-.4-.04-.78-.04-.09,.7-.16,1.05-.33,1.58-.18,.59-.38,1.01-.69,1.49,.53,.62,1.08,1.02,1.94,1.43-.15,.18-.27,.4-.41,.72-.93-.55-1.37-.9-1.97-1.57-.57,.66-1.18,1.1-2.2,1.58-.13-.27-.25-.46-.43-.66,.56-.22,.86-.37,1.24-.63,.37-.26,.68-.54,.96-.86-.44-.66-.76-1.34-.96-2.05-.16,.26-.22,.37-.43,.65-.15-.22-.26-.34-.51-.56,.38-.46,.66-.99,.91-1.67,.18-.5,.34-1.16,.35-1.52l.78,.14c-.04,.11-.07,.21-.14,.46-.06,.23-.15,.57-.23,.82h2.02c.4,0,.64-.02,.86-.05v.74Zm-3.12-.04c-.04,.09-.05,.11-.09,.2,.2,.88,.47,1.52,.98,2.28,.42-.74,.62-1.38,.76-2.48h-1.65Z"/><path class="cls-4" d="M108.89,188.29q-.16,.02-.6,.06c-.41,.05-1.22,.09-1.95,.11-.06-.29-.1-.38-.26-.7h.3c1.09,0,2.57-.12,3.55-.29,.77-.14,1.18-.25,1.58-.42l.56,.66c-1.09,.28-1.7,.4-2.42,.49v1.16h1.77c.42,0,.69-.02,.94-.05v.77c-.25-.03-.54-.05-.93-.05h-1.78v1.08h2.13c.42,0,.68-.02,.93-.05v.77c-.27-.03-.52-.05-.93-.05h-2.13v1.68c0,.57-.23,.74-.98,.74-.34,0-.84-.02-1.23-.06-.03-.3-.07-.45-.2-.74,.46,.08,1.01,.13,1.37,.13,.22,0,.3-.06,.3-.25v-1.5h-2.33c-.4,0-.66,.02-.92,.05v-.77c.25,.03,.5,.05,.92,.05h2.33v-1.08h-1.89c-.34,0-.66,.02-.94,.05v-.77c.25,.03,.51,.05,.94,.05h1.89v-1.07Z"/><path class="cls-4" d="M116.52,188.59c.27,0,.41,0,.62-.04v.73c-.2-.03-.34-.04-.6-.04h-.66c.35,.82,.78,1.42,1.37,1.94-.16,.22-.25,.4-.37,.73-.54-.64-.76-.99-1.08-1.74,.02,.3,.02,.46,.02,.57q0,.39,.02,.86v1.98c0,.36,0,.59,.05,.82h-.82c.03-.22,.05-.47,.05-.82v-1.88c0-.3,.02-1.13,.05-1.45-.34,1.01-.7,1.7-1.28,2.41-.11-.27-.22-.46-.42-.71,.42-.42,.72-.86,1.07-1.55,.17-.34,.3-.66,.46-1.16h-.7c-.26,0-.38,0-.54,.04v-.73c.16,.03,.3,.04,.59,.04h.75v-.82c0-.3,0-.48-.05-.7h.83c-.04,.22-.05,.4-.05,.71v.82h.68Zm1.96-1.49c-.03,.26-.05,.58-.05,.88v5.23c0,.22,.11,.26,.78,.26,.42,0,.62-.04,.71-.14,.12-.16,.15-.5,.17-1.61,.27,.14,.45,.2,.74,.26-.04,1.14-.12,1.62-.34,1.89-.2,.26-.54,.33-1.47,.33-.46,0-.84-.04-.99-.1-.26-.11-.35-.26-.35-.59v-5.52c0-.3-.02-.61-.06-.88h.86Z"/><path class="cls-4" d="M123.33,187.51c-.17,.41-.34,1.18-.44,1.95-.09,.64-.14,1.49-.15,2.18v.72h.02c.07-.35,.12-.5,.43-1.23l.55,.25c-.41,.86-.69,1.81-.69,2.33,0,.03,0,.1,0,.18l-.82,.06c0-.14-.02-.18-.04-.35-.15-.93-.21-1.52-.21-2.36,0-1.06,.1-1.93,.34-3.12,.08-.42,.1-.5,.11-.71l.89,.11Zm2.1,3.3c-.4,.46-.58,.82-.58,1.17,0,.5,.47,.76,1.38,.76,.71,0,1.4-.1,1.88-.3l.07,.86c-.1,.02-.13,.02-.3,.05-.61,.1-1.11,.15-1.65,.15-.96,0-1.58-.22-1.92-.66-.16-.2-.25-.5-.25-.78,0-.48,.23-.98,.72-1.57l.65,.32Zm-1.2-2.53c.42,.1,.75,.13,1.36,.13,.98,0,1.78-.08,2.24-.22l.04,.82c-.06,0-.1,0-.56,.06-.5,.06-1.11,.1-1.7,.1-.46,0-.82-.02-1.17-.06-.11,0-.14-.02-.22-.02v-.8Z"/><path class="cls-4" d="M131.84,188.49c.39,0,.63,0,.87-.03q-.03,.26-.04,1.19c-.02,1.54-.1,2.74-.26,3.49-.14,.74-.34,.94-.96,.94-.22,0-.55-.02-.89-.07-.02-.33-.04-.42-.13-.72,.34,.07,.64,.11,.84,.11,.26,0,.34-.06,.41-.38,.1-.38,.18-1.12,.22-1.98,.03-.74,.04-.77,.05-1.86h-.93c-.06,1.04-.16,1.73-.37,2.5-.26,1.01-.63,1.75-1.29,2.6-.18-.29-.33-.46-.56-.66,.38-.44,.55-.69,.78-1.18,.42-.86,.63-1.83,.73-3.26h-.44c-.34,0-.59,.02-.82,.05v-.79c.22,.03,.47,.05,.88,.05h.4c.02-.28,.02-.31,.02-.74,0-.31-.02-.5-.06-.7h.82q-.03,.19-.07,1.44h.78Zm2.13,5.65h-.76c.03-.22,.05-.57,.05-.91v-4.45c0-.38,0-.56-.04-.84,.23,.03,.42,.04,.71,.04h1.46c.32,0,.48,0,.71-.04-.03,.26-.04,.46-.04,.84v4.47c0,.34,.02,.6,.05,.84h-.76v-.57h-1.38v.62Zm0-1.28h1.38v-4.21h-1.38v4.21Z"/><path class="cls-4" d="M137.76,189.33c.22,.02,.26,.02,.58,.02,.69,0,2.12-.1,2.85-.19,.19-.03,.3-.06,.42-.1l.46,.58c-.15,.1-.3,.23-.7,.62-.53,.52-1.13,1.06-1.45,1.31,.28-.13,.42-.17,.63-.17,.24,0,.45,.1,.6,.29,.13,.17,.16,.3,.2,.76,.03,.41,.06,.57,.16,.68,.1,.12,.26,.17,.57,.17,.56,0,1.18-.12,1.6-.31l.1,.84c-.11,0-.12,0-.68,.1-.48,.08-.76,.1-1.13,.1-.64,0-1-.14-1.19-.48-.1-.18-.14-.33-.17-.86-.02-.31-.04-.43-.09-.53-.06-.11-.19-.18-.34-.18-.4,0-.78,.22-1.42,.85-.39,.37-.88,.87-1.16,1.2l-.62-.69c.29-.2,.41-.3,.85-.7,.81-.74,1.28-1.18,1.77-1.67,.51-.5,.58-.57,.89-.86q.16-.14,.3-.29-.61,.12-2.4,.26c-.27,.02-.3,.02-.58,.06l-.05-.82Zm.96-2.03c.9,.29,1.89,.44,3.07,.46l-.14,.74c-1.48-.1-2.1-.2-3.18-.5l.25-.7Z"/><path class="cls-4" d="M145.1,187.64c.26,.04,.41,.05,.85,.05,.73,0,1.67-.04,2.46-.1,.26-.02,.33-.03,.45-.1l.43,.6c-.12,.06-.17,.1-.41,.33-1.11,1.06-1.98,1.77-2.54,2.1l.02,.02c.68-.31,1.16-.42,1.8-.42,1.34,0,2.21,.69,2.21,1.75,0,.74-.38,1.34-1.07,1.72-.52,.29-1.16,.44-1.88,.44-.64,0-1.17-.12-1.48-.34-.3-.21-.48-.54-.48-.9,0-.61,.55-1.06,1.29-1.06,.55,0,1.04,.24,1.36,.66,.16,.21,.25,.38,.37,.74,.27-.09,.43-.17,.6-.29,.31-.23,.49-.57,.49-.95,0-.7-.62-1.13-1.64-1.13-1.17,0-2.38,.5-3.33,1.35l-.46-.71c.72-.38,2.6-1.93,3.64-2.99,.02-.02,.11-.11,.14-.14h0c-.29,.03-1.14,.09-2.36,.14-.18,0-.24,.02-.4,.04l-.04-.82Zm1.65,4.73c-.33,0-.54,.16-.54,.42,0,.35,.41,.57,1.08,.57,.16,0,.21,0,.46-.03-.16-.63-.5-.95-1-.95Z"/></g><g><rect class="cls-5" x="66.09" y="64.34" width="46.41" height="64.83" rx="3" ry="3"/><path class="cls-1" d="M89.29,103.5l5.07,3.07c.93,.56,2.07-.27,1.82-1.32l-1.35-5.77,4.49-3.89c.82-.71,.38-2.05-.7-2.14l-5.91-.5-2.31-5.45c-.42-.99-1.83-.99-2.25,0l-2.31,5.44-5.91,.5c-1.08,.09-1.52,1.43-.7,2.14l4.49,3.89-1.35,5.77c-.24,1.05,.89,1.88,1.82,1.32l5.07-3.06Z"/></g></svg>