<?xml version="1.0" encoding="UTF-8"?><svg id="Layer_1" xmlns="http://www.w3.org/2000/svg" viewBox="0 0 178.58 249.45"><defs><style>.cls-1{fill:#f2f2f2;}.cls-2{fill:#e6e6e6;}.cls-3{fill:#fff;}.cls-4{fill:#ffa914;}.cls-5{fill:#999;}.cls-6{fill:#b3b3b3;}.cls-7{fill:#ccc;}.cls-8{fill:gray;}.cls-9{fill:#4d4d4d;}.cls-10{opacity:.9;}</style></defs><g><rect class="cls-3" x="3.09" y="3.09" width="172.41" height="243.27" rx="10.86" ry="10.86"/><path class="cls-4" d="M164.63,6.18c4.29,0,7.77,3.49,7.77,7.77V235.5c0,4.29-3.49,7.77-7.77,7.77H13.95c-4.29,0-7.77-3.49-7.77-7.77V13.95c0-4.29,3.49-7.77,7.77-7.77H164.63M164.63,0H13.95C6.25,0,0,6.25,0,13.95V235.5C0,243.2,6.25,249.45,13.95,249.45H164.63c7.71,0,13.95-6.25,13.95-13.95V13.95C178.58,6.25,172.34,0,164.63,0h0Z"/></g><g><path class="cls-4" d="M37.18,15.88c-1.05,0-1.5,.01-2.05,.06v-2.23c.7,.08,1.09,.1,2.09,.1h6.94c.41-.01,.61-.05,.87-.14l1.22,1.37c-.2,.19-.27,.28-.58,.81-1.3,2.19-2.34,3.45-4.02,4.85,.54,.65,.9,1.1,1.51,1.93l-1.9,1.48c-.76-1.24-1.39-2.12-2.45-3.31-1.03-1.18-1.62-1.76-2.55-2.52l1.74-1.22c1.04,.85,1.46,1.24,2.19,2.01,.72-.6,1.52-1.41,1.98-2,.32-.39,.66-.94,.81-1.23l-5.8,.03Z"/><path class="cls-4" d="M56.56,24.11c-1.1-1.39-2.22-2.5-3.64-3.6-1.19,1.41-2.7,2.52-4.66,3.47-.44-.89-.71-1.27-1.42-2,1.65-.63,2.95-1.46,4.1-2.56,1.18-1.13,1.95-2.25,2.55-3.72l-3.29,.05c-1.09,.02-1.49,.05-2.01,.13l-.06-2.25c.49,.06,.84,.09,1.33,.09,.1,0,.34,0,.71-.01l4.33-.06c.6-.01,.67-.01,1.01-.14l1.11,1.14c-.19,.19-.27,.32-.46,.75-.67,1.58-1.15,2.47-1.86,3.42,1.53,1.1,2.05,1.55,4.03,3.43l-1.77,1.88Z"/><path class="cls-4" d="M63.15,15.06c.04-.49,.06-1.23,.06-1.62,0-.27,0-.37-.04-.63l2.38,.06c-.06,.29-.06,.33-.14,1.53q-.01,.34-.04,.65h2.76c.42,0,.57-.03,.85-.14l.99,.86c-.14,.25-.17,.36-.18,.94-.09,2.71-.28,4.83-.53,5.66-.37,1.18-.98,1.58-2.38,1.58-.49,0-.68-.01-1.66-.1-.05-1.01-.14-1.43-.43-2.23,.63,.17,1.25,.25,1.65,.25,.61,0,.76-.2,.92-1.3,.13-.85,.24-2.45,.24-3.53h-2.42q-.1,.84-.19,1.27c-.56,2.56-1.76,4.21-4.33,5.9-.57-.9-.95-1.33-1.65-1.93,1.69-.89,2.66-1.79,3.29-3.07,.32-.65,.46-1.1,.63-2.17h-1.58c-.85,0-1.11,.01-1.71,.08v-2.17c.62,.09,.85,.1,1.75,.1h1.75Z"/><path class="cls-4" d="M71.53,17.25c.6,.09,1.28,.11,2.6,.11h6.06c1.27,0,1.75-.03,2.6-.11v2.44c-.61-.06-1.16-.08-2.61-.08h-6.03c-1.42,0-1.84,.01-2.61,.08v-2.44Z"/><path class="cls-4" d="M85.38,24.05c.05-.53,.06-.9,.08-1.94v-7.37c-.01-1.09-.01-1.15-.09-1.84h2.45c-.05,.33-.05,.53-.06,1.85v1.74c2,.65,3.99,1.55,5.76,2.64l-1.2,2.15c-1.05-.75-2.52-1.56-3.99-2.2-.38-.15-.42-.16-.46-.19-.04-.01-.06-.03-.11-.06v3.29c0,.94,.03,1.61,.08,1.94h-2.44Zm5.73-10.44c.49,.56,.9,1.14,1.25,1.81l-1.2,.58c-.42-.8-.75-1.27-1.25-1.85l1.2-.54Zm1.69-.76c.47,.51,.82,.99,1.27,1.76l-1.17,.57c-.44-.8-.8-1.31-1.24-1.81l1.14-.52Z"/></g><path class="cls-4" d="M13.95,0H30V16.05c0,7.7-6.25,13.95-13.95,13.95H0V13.95C0,6.25,6.25,0,13.95,0Z"/><g class="cls-10"><path class="cls-3" d="M15,19.78c-.1,0-.19-.04-.26-.11l-6.73-4.47s-.03-.1-.03-.2,.04-.19,.1-.26l6.58-4.37c.14-.13,.23-.17,.33-.17s.19,.04,.26,.11l6.73,4.49s.03,.1,.03,.2-.04,.19-.1,.26l-6.58,4.35c-.14,.13-.23,.17-.33,.17Z"/><path class="cls-3" d="M15.08,10.66h0m-.08,.07s.04,.03,.07,.05l6.36,4.23-6.36,4.21s-.05,.03-.07,.05c-.02-.02-.05-.03-.07-.05l-6.36-4.21,6.36-4.23s.05-.03,.07-.05m0-.98c-.21,0-.43,.08-.59,.24l-6.65,4.43c-.32,.32-.32,.86,0,1.18l6.65,4.41c.16,.16,.38,.24,.59,.24s.43-.08,.59-.24l6.65-4.41c.32-.32,.32-.86,0-1.18l-6.65-4.43c-.16-.16-.38-.24-.59-.24h0Z"/></g><g><path d="M18.69,164.47c-.58,0-.98,.02-1.31,.06v-.85c-.58,.34-.79,.46-1.31,.68q-.36-.67-.79-1.27c1.14-.44,2.11-.97,2.9-1.58,.4-.31,.95-.83,1.32-1.26,.25-.28,.38-.44,.65-.86h1.52c.67,.91,1.25,1.49,2.13,2.12,1,.71,1.79,1.12,2.94,1.52-.43,.62-.58,.89-.77,1.38-.54-.25-.89-.44-1.43-.76v.88c-.35-.04-.72-.06-1.27-.06h-1.69v1.35h1.94c.62,0,1.01-.02,1.32-.06v1.34c-.32-.04-.73-.06-1.32-.06h-1.94v1.62h3.12c.64,0,1.15-.02,1.52-.07v1.4c-.4-.06-.9-.08-1.51-.08h-7.48c-.61,0-1.1,.02-1.5,.08v-1.4c.35,.05,.86,.07,1.54,.07h2.97v-1.62h-1.76c-.6,0-1.01,.02-1.33,.06v-1.34c.37,.05,.73,.06,1.33,.06h1.76v-1.35h-1.56Zm4.65-1.21c.25,0,.34,0,.56-.01-1.32-.88-2.07-1.57-2.95-2.72-.7,1.03-1.56,1.85-2.89,2.72,.24,.01,.35,.01,.53,.01h4.75Z"/><path d="M29.64,168.26c-.6,0-.95,.01-1.33,.05,.02-.3,.05-.66,.05-1.26v-3.03c0-.61-.01-.92-.05-1.28,.36,.04,.77,.05,1.33,.05h6.38c.59,0,.92-.01,1.34-.05-.04,.32-.05,.61-.05,1.28v3.03c0,.47,.01,.73,.01,.78,0,.23,0,.26,.04,.48-.37-.04-.74-.05-1.34-.05h-.96c1.02,.54,2.04,.84,3.45,1.02-.43,.54-.58,.76-.74,1.18-1.86-.37-2.61-.67-4.01-1.61l.65-.59h-3.26l.76,.64c-.84,.52-1.38,.78-2.18,1.07-.48,.17-.85,.26-1.83,.48-.2-.49-.4-.8-.73-1.19,1.71-.26,2.54-.5,3.41-1h-.92Zm7.23-6.87c0,.36,.01,.62,.04,.9-.36-.02-.77-.04-1.29-.04h-5.53c-.54,0-.96,.01-1.32,.04,.02-.3,.05-.58,.05-.9v-.92c0-.36-.01-.56-.06-.92,.42,.05,.72,.06,1.37,.06h5.44c.65,0,.94-.01,1.36-.06-.04,.32-.05,.54-.05,.92v.92Zm-7.23,2.94h6.38v-.55h-6.38v.55Zm0,1.45h6.38v-.55h-6.38v.55Zm0,1.49h6.38v-.59h-6.38v.59Zm.49-6.64v.66h5.41v-.66h-5.41Z"/><path d="M43.55,160.26c-.06,.35-.14,.84-.26,1.49q-.04,.2-.07,.36c.36-.01,.53-.02,.74-.02,.79,0,1.38,.22,1.77,.64,.41,.46,.56,1.03,.56,2.12,0,2.06-.35,3.71-.92,4.37-.34,.4-.7,.54-1.33,.54-.55,0-1.04-.1-1.85-.36,.01-.23,.02-.41,.02-.53,0-.31-.02-.55-.12-1.02,.65,.29,1.33,.48,1.75,.48,.35,0,.54-.23,.72-.82,.19-.62,.31-1.71,.31-2.73,0-1.1-.28-1.43-1.2-1.43-.25,0-.44,.01-.72,.04-.59,2.46-1.13,3.91-2.45,6.52l-1.39-.77c.92-1.26,1.85-3.42,2.41-5.65q-.18,.02-.56,.1l-1.09,.18c-.19,.04-.32,.07-.49,.12l-.14-1.42c.54-.01,1.16-.07,2.55-.25,.23-1.33,.31-2.02,.31-2.42v-.22l1.56,.16c-.04,.1-.07,.25-.1,.37l-.02,.16Zm3.65-.49c.53,.56,.85,1.02,1.26,1.76l-.84,.44c-.4-.73-.73-1.21-1.26-1.79l.84-.42Zm1.12,2.38c.83,1.14,1.45,2.43,1.8,3.81l-1.37,.68c-.24-1.26-.98-3.02-1.64-3.9l1.21-.6Zm.74-.92c-.36-.66-.76-1.22-1.22-1.74l.8-.42c.54,.55,.88,1.01,1.25,1.69l-.83,.47Z"/><path d="M55.92,161.22c-1.57,.14-2.17,.18-3.74,.22q-.13-.49-.44-1.24h.59c1.71,0,3.93-.17,5.37-.41,1.14-.19,1.57-.3,2.22-.58l.98,1.2c-1.03,.26-2.66,.56-3.63,.67v1.56h2.48c.68,0,1.1-.02,1.5-.07v1.34c-.41-.05-.86-.07-1.48-.07h-2.51v1.45h3.07c.67,0,1.07-.02,1.46-.07v1.36c-.42-.05-.82-.07-1.46-.07h-3.07v2.35c0,.53-.17,.9-.47,1.03-.28,.12-.79,.19-1.34,.19-.36,0-.95-.02-1.63-.08-.06-.53-.13-.8-.36-1.31,.86,.12,1.51,.17,2,.17,.35,0,.46-.08,.46-.37v-1.98h-3.35c-.66,0-1.06,.02-1.48,.07v-1.36c.4,.05,.79,.07,1.48,.07h3.35v-1.45h-2.67c-.53,0-1.09,.02-1.5,.07v-1.34c.4,.05,.8,.07,1.49,.07h2.69v-1.43Z"/><path d="M66.66,162.67c.59,1.19,1.03,1.81,1.98,2.76-.24,.36-.43,.76-.61,1.32-.74-.94-1.08-1.45-1.5-2.39,.04,.42,.05,.86,.05,1.98v2.7c0,.55,.02,.94,.07,1.31h-1.43c.05-.36,.07-.78,.07-1.29v-2.49c0-.68,.04-1.55,.08-2-.49,1.37-1.03,2.36-1.8,3.31-.18-.5-.36-.86-.7-1.33,.85-.83,1.66-2.22,2.22-3.86h-.94c-.42,0-.6,.01-.86,.06v-1.31c.25,.05,.47,.06,.94,.06h1.06v-1.12c0-.46-.02-.75-.07-1.09h1.43c-.05,.34-.07,.62-.07,1.1v1.1h.92c.43,0,.65-.01,.96-.06v1.31c-.3-.05-.54-.06-.94-.06h-.86Zm3.99-3.33c-.06,.41-.08,.9-.08,1.36v7.74c0,.3,.18,.36,1.03,.36,.47,0,.76-.08,.89-.24,.19-.26,.23-.66,.24-2.43,.55,.26,.7,.32,1.31,.44-.06,1.95-.18,2.6-.55,3.05-.29,.34-.88,.48-1.99,.48-.9,0-1.37-.05-1.67-.18-.42-.18-.61-.5-.61-1.04v-8.17c0-.46-.02-.94-.08-1.36h1.52Z"/><path d="M75.44,160.71c.49,.11,1.26,.16,2.78,.16,.32-.72,.43-1.08,.48-1.49l1.57,.17q-.07,.12-.48,1.08c-.06,.13-.08,.17-.11,.22q.1-.01,.76-.05c1.39-.08,2.48-.22,3.14-.41l.08,1.37q-.34,.02-.95,.1c-.88,.11-2.4,.2-3.61,.24-.35,.68-.68,1.16-1.1,1.59v.02q.1-.06,.25-.18c.44-.34,1.08-.54,1.69-.54,.94,0,1.52,.44,1.71,1.27,.92-.34,1.54-.55,1.83-.65,.65-.23,.7-.24,.89-.36l.56,1.38c-.34,.05-.7,.14-1.33,.32-.17,.05-.77,.25-1.8,.61v.13q.01,.31,.01,.48v.48c-.01,.2-.01,.31-.01,.4,0,.26,.01,.43,.04,.64l-1.39,.04c.05-.22,.07-.83,.07-1.39v-.29c-.59,.28-.9,.44-1.15,.62-.42,.31-.62,.64-.62,.98,0,.62,.58,.88,2.03,.88s2.67-.18,3.53-.5l.12,1.55c-.2,0-.26,.01-.55,.05-.86,.13-2.01,.22-3.07,.22-1.27,0-2.06-.14-2.67-.5-.55-.31-.88-.89-.88-1.55,0-.49,.14-.88,.53-1.33,.54-.67,1.22-1.13,2.58-1.69-.06-.44-.3-.65-.73-.65-.7,0-1.54,.42-2.46,1.24-.5,.42-.78,.72-1.04,1.09l-1.09-1.08c.31-.24,.66-.58,1.08-1.07,.47-.55,1.2-1.6,1.44-2.05q.05-.1,.1-.16s-.2,.01-.2,.01c-.19,0-1.25-.02-1.51-.02q-.23-.01-.34-.01s-.11,0-.19,.01l.02-1.37Z"/><path d="M88.89,167.73c.36,.66,.76,.94,1.49,1.07-.14-.23-.44-.55-.78-.83,.84-.28,1.33-.53,1.81-.94h-1.35c-.44,0-.65,.01-.92,.06v-1.1c.26,.05,.46,.06,.92,.06h.9v-.74h-.26c-.6,0-.82,.01-1.12,.05v-1.05c.29,.04,.49,.05,1.12,.05h.25c-.01-.29-.02-.41-.05-.61h1.32c-.02,.19-.04,.35-.05,.61h1.62c-.01-.29-.02-.41-.05-.61h1.32c-.04,.2-.05,.34-.06,.61h.63c.61,0,.82-.01,1.12-.05v1.05c-.31-.04-.53-.05-1.13-.05h-.62v.74h.92c.64,0,.85-.01,1.15-.05v1.08c-.31-.04-.54-.05-1.15-.05h-1.28c.62,.4,1.2,.61,2.23,.84-.3,.31-.5,.58-.7,.91q.32-.02,1.22-.14c-.22,.58-.25,.71-.36,1.38-1.05,.05-2.59,.07-4.12,.07-1.87,0-2.57-.06-3.17-.25-.6-.19-1.04-.53-1.47-1.09-.49,.47-.68,.64-1.16,1.01-.24,.19-.33,.26-.54,.43l-.59-1.37c.46-.19,.94-.53,1.66-1.16v-2.59h-.62c-.32,0-.49,.01-.8,.06v-1.29c.31,.05,.52,.06,.96,.06h.86c.42,0,.59-.01,.9-.05-.04,.38-.04,.56-.04,1.29v2.59Zm-1.67-8.29c.88,.78,1.26,1.2,1.83,1.92l-1,.97c-.62-.88-.94-1.22-1.8-1.99l.96-.9Zm5.48,1.86c0,.3,0,.48,.02,.65-.3-.02-.48-.04-.77-.04h-1.54v.36c0,.25,.04,.28,.52,.28,.94,0,.95-.01,.98-.56,.3,.19,.6,.31,.98,.38-.07,.66-.19,.9-.52,1.02-.24,.08-.61,.11-1.58,.11-1.25,0-1.47-.12-1.47-.77v-1.02c0-.32-.01-.48-.04-.71,.22,.02,.42,.04,.84,.04h1.43v-.49h-1.39c-.48,0-.68,.01-.97,.05v-1.06c.25,.04,.61,.05,.98,.05h1.49c.58,0,.84-.01,1.05-.04-.02,.18-.02,.26-.02,.66v1.09Zm-.12,6.21c-.85,.77-1.19,.98-1.96,1.32,.58,.06,1.26,.08,2.08,.08,.88,0,1.93-.04,3.02-.1-.89-.3-1.58-.7-2.27-1.28l.73-.5h-2.35l.74,.48Zm-.42-1.46h1.63v-.74h-1.63v.74Zm4.56-4.75c0,.29,0,.48,.02,.65-.3-.02-.48-.04-.77-.04h-1.52v.36c0,.17,.01,.2,.11,.24,.08,.04,.26,.05,.55,.05,.86,0,.89-.01,.91-.59,.36,.2,.61,.29,1.05,.4-.1,.66-.18,.86-.44,.98-.24,.11-.71,.14-1.66,.14-.83,0-1.12-.02-1.32-.12-.25-.11-.35-.31-.35-.68v-.92q-.01-.49-.02-.52t-.01-.25c.22,.02,.42,.04,.83,.04h1.44v-.49h-1.33c-.48,0-.68,.01-.97,.05v-1.06c.26,.04,.61,.05,.98,.05h1.46c.58,0,.84-.01,1.06-.04-.02,.17-.02,.3-.02,.66v1.09Z"/><path d="M98.4,160.45c.23,.02,.32,.04,.6,.04,1.4,0,2.9-.17,3.41-.38l.75,1.3c-.58,.36-.97,.71-1.47,1.31-1.02,1.2-1.55,2.41-1.55,3.55,0,1.3,.83,2.17,2.05,2.17,.98,0,1.81-.56,2.19-1.49,.31-.74,.44-1.52,.44-2.62,0-1.34-.26-2.78-.65-3.65l1.44-.42c.53,1.73,1.89,3.62,3.2,4.43l-.74,1.43s-.08-.08-.1-.11c-.02-.01-.08-.07-.18-.16-.79-.73-1.2-1.26-1.92-2.46,.2,.86,.25,1.27,.25,2.1,0,2.58-1.63,4.41-3.9,4.41-.76,0-1.51-.2-2.06-.56-.92-.61-1.49-1.76-1.49-3.06,0-.94,.3-1.99,.83-2.89,.28-.49,.77-1.12,1.21-1.55t.2-.18s.05-.06,.13-.13c-.1,.01-.16,.02-.18,.04l-.16,.04q-.7,.12-2,.23c-.16,.01-.17,.01-.3,.04l-.02-1.42Zm8.26-.91c.53,.56,.85,1.02,1.26,1.76l-.84,.44c-.4-.73-.73-1.21-1.26-1.79l.84-.42Zm1.86,1.45c-.36-.66-.76-1.22-1.22-1.74l.8-.42c.54,.55,.88,1.01,1.25,1.69l-.83,.47Z"/><path d="M110.4,166.59c1.1,.84,1.77,1.5,2.7,2.64l-1.12,1.04c-.88-1.19-1.56-1.91-2.6-2.73l1.02-.95Z"/><path d="M121.15,163.67c-.49,0-.67,.01-.94,.05v-.82c-.3,.23-.47,.34-.88,.59-.22-.44-.3-.59-.5-.86-.14-.02-.26-.02-.53-.02h-.18v1.92c.2-.08,.36-.14,.79-.32v1.19c-.29,.11-.38,.14-.59,.23-.05,.01-.11,.05-.2,.08v3.41c0,.92-.28,1.15-1.4,1.15-.22,0-.42,0-.92-.02-.04-.49-.1-.77-.26-1.22,.38,.06,.77,.08,1.01,.08,.26,0,.32-.06,.32-.32v-2.62c-.72,.23-1.13,.36-1.24,.41l-.17-1.31c.4-.04,.74-.12,1.4-.31v-2.34h-.46c-.3,0-.55,.01-.83,.05v-1.27c.28,.05,.48,.06,.84,.06h.44v-.92c0-.59-.02-.89-.07-1.24h1.39c-.05,.34-.06,.65-.06,1.22v.94h.18c.25,0,.43-.01,.62-.04v.84c1.27-.7,2.28-1.72,2.87-2.92h1.38c.37,.64,.78,1.12,1.43,1.66,.65,.55,1.07,.8,2.16,1.27-.28,.42-.35,.55-.64,1.22-.5-.25-.7-.36-1.1-.64v.88c-.26-.04-.42-.05-.91-.05h-1.02v.85h2.03c.59,0,.82-.01,1.16-.06v1.21c-.35-.05-.61-.06-1.16-.06h-4.84c-.53,0-.79,.01-1.12,.06v-1.2c.26,.04,.5,.05,1.02,.05h1.73v-.85h-.76Zm-1.64,6.69c.04-.38,.06-.68,.06-1.19v-2c0-.37-.02-.64-.05-.94,.29,.04,.54,.05,1.01,.05h4.04c.47,0,.7-.01,.94-.05-.04,.25-.05,.55-.05,.91v2.07c0,.5,.01,.78,.06,1.14h-1.32v-.58h-3.41v.58h-1.28Zm2.4-8.25c0-.32-.01-.48-.04-.63h1.26c-.04,.14-.04,.32-.04,.63v.5h1.01c.26,0,.41,0,.58-.01-1-.74-1.6-1.36-2.16-2.21-.55,.9-1.08,1.51-1.93,2.21,.22,.01,.29,.01,.56,.01h.76v-.5Zm-1.12,6.57h3.42v-1.34h-3.42v1.34Z"/><path d="M127.44,161c.26,.01,.4,.01,.46,.01q.22,0,1.98-.12c.67-.04,2.66-.14,5.99-.3,.98-.05,1.16-.06,1.38-.12l.08,1.54q-.13-.01-.25-.01c-.72,0-1.61,.24-2.38,.65-1.52,.79-2.42,1.99-2.42,3.2,0,.94,.59,1.66,1.59,1.96,.59,.18,1.36,.31,1.79,.31,.01,0,.12,0,.24-.01l-.22,1.63c-.14-.04-.2-.05-.41-.07-1.32-.17-2.08-.38-2.81-.79-1.1-.62-1.71-1.64-1.71-2.89,0-1.02,.41-2.03,1.14-2.83,.46-.49,.89-.8,1.67-1.2-.97,.14-1.44,.18-4.04,.37-.8,.06-1.52,.14-1.99,.24l-.08-1.56Z"/><path d="M142.15,164.38c1.09-.43,1.62-.55,2.52-.55,2.05,0,3.37,1.05,3.37,2.7,0,1.14-.56,2.05-1.63,2.65-.78,.44-1.8,.68-2.9,.68-1.01,0-1.85-.19-2.33-.55-.46-.34-.72-.84-.72-1.38,0-1,.86-1.71,2.06-1.71,.84,0,1.57,.35,2.08,.98,.24,.3,.37,.56,.55,1.08,1-.37,1.43-.89,1.43-1.74,0-.94-.92-1.55-2.38-1.55-1.75,0-3.5,.71-4.94,2.01l-.82-1.29c.42-.2,.9-.53,1.69-1.13,1.12-.85,2.67-2.19,3.59-3.12,.02-.02,.14-.14,.22-.22h-.01c-.46,.05-1.22,.1-3.39,.19-.26,.01-.35,.02-.58,.06l-.06-1.44c.41,.05,.76,.07,1.42,.07,1.02,0,2.48-.06,3.65-.14,.42-.04,.55-.06,.74-.16l.74,1.06c-.2,.11-.29,.18-.62,.49-.6,.55-1.47,1.33-1.88,1.68-.22,.18-1.08,.83-1.32,.98q-.3,.2-.49,.31l.02,.02Zm.36,2.99c-.43,0-.71,.22-.71,.55,0,.48,.54,.75,1.43,.75,.23,0,.29,0,.62-.05-.22-.83-.67-1.26-1.34-1.26Z"/></g><g><path class="cls-8" d="M15.32,178.75c.17,.02,.23,.02,.36,.02,.22,0,.54,0,1.43-.05q.52-.02,1.93-.06c0-.68-.02-.82-.05-1.02h.85c-.03,.24-.04,.38-.04,1.01,1.46,0,2.06-.02,2.34-.06v.78c-.29-.03-.66-.04-1.34-.04-.22,0-.35,0-.99,.02v1.47c.16,.34,.22,.66,.22,1.06,0,.86-.41,1.61-1.14,2.13-.32,.22-.68,.4-1.38,.65-.18-.38-.26-.49-.49-.74,.66-.15,.98-.28,1.35-.52,.56-.38,.85-.81,.9-1.35-.22,.43-.64,.67-1.19,.67-.81,0-1.41-.57-1.41-1.34,0-.82,.64-1.4,1.54-1.4,.37,0,.66,.1,.85,.27t0-.1v-.78c-1.28,.02-3.21,.12-3.71,.2l-.02-.8Zm2.14,2.54c0,.42,.3,.7,.73,.7,.49,0,.84-.34,.84-.81,0-.18-.05-.3-.16-.39-.14-.14-.35-.22-.59-.22-.46,0-.82,.3-.82,.71Z"/><path class="cls-8" d="M22.02,181.68c.13-.09,.19-.14,.37-.33,.4-.41,.5-.52,1.32-1.57,.47-.59,.71-.76,1.1-.76,.26,0,.46,.1,.7,.33,.09,.08,.26,.28,.55,.61,.82,.94,1.59,1.71,2.45,2.46,.39,.33,.56,.46,.78,.57l-.4,.95c-.09-.1-.11-.12-.26-.24-.46-.39-1.54-1.41-2.06-1.95-.28-.29-.96-1.05-1.35-1.51-.18-.22-.3-.29-.43-.29-.14,0-.19,.05-.53,.49-.73,.95-.99,1.27-1.55,1.89-.07,.08-.1,.1-.15,.19l-.54-.83Zm5.29-3.13c.38,.42,.55,.68,.83,1.2l-.5,.27c-.26-.5-.49-.83-.83-1.22l.5-.25Zm.94-.46c.38,.42,.55,.66,.82,1.17l-.49,.28c-.25-.46-.47-.8-.82-1.2l.48-.25Z"/><path class="cls-8" d="M29.88,178.69q.15,0,.28,0c.17,0,.26,0,.49-.02,.94-.06,2.84-.18,4.72-.26,.55-.02,.79-.05,.93-.08l.06,.84h-.14c-.45,0-1.01,.14-1.5,.38-1.09,.54-1.76,1.41-1.76,2.27,0,.64,.4,1.14,1.09,1.38,.37,.12,.9,.22,1.18,.22,.03,0,.08,0,.14,0l-.12,.9c-.1-.02-.14-.02-.26-.05-.87-.13-1.34-.27-1.81-.56-.67-.41-1.04-1.05-1.04-1.81s.35-1.47,1.05-2.12c.32-.3,.5-.42,.96-.64-.56,.09-.88,.12-1.73,.18-1.39,.1-2.07,.16-2.49,.25l-.05-.88Z"/><path class="cls-8" d="M40.06,182.17c-.46,1.06-.95,1.52-1.58,1.52-.85,0-1.47-.89-1.47-2.1,0-.86,.3-1.66,.86-2.28,.66-.72,1.58-1.1,2.69-1.1,1.86,0,3.09,1.14,3.09,2.87,0,1.34-.7,2.41-1.9,2.9-.38,.15-.69,.24-1.23,.34-.12-.37-.19-.5-.41-.78,.62-.1,.98-.18,1.33-.33,.86-.37,1.39-1.21,1.39-2.17,0-.83-.39-1.5-1.1-1.87-.27-.14-.49-.2-.86-.22-.14,1.19-.43,2.36-.82,3.22Zm-1.1-2.83c-.73,.49-1.18,1.34-1.18,2.25,0,.7,.3,1.25,.69,1.25,.29,0,.58-.35,.9-1.08,.31-.74,.58-1.85,.69-2.81-.44,.05-.75,.15-1.1,.38Z"/><path class="cls-8" d="M49.76,178.43s0-.09,0-.13c0-.51,.41-.93,.92-.93s.93,.42,.93,.93-.42,.93-.93,.93c-.09,0-.18-.02-.26-.04-.02,.04-.03,.1-.05,.17-.4,1.52-1.02,2.61-1.99,3.51-.72,.67-1.42,1.1-2.54,1.57-.18-.36-.27-.48-.58-.78,.71-.22,1.18-.44,1.77-.83,1.26-.83,2.05-1.98,2.46-3.61h-3.81c-.54,0-.75,.02-1.06,.06v-.9c.32,.05,.54,.06,1.08,.06h4.06Zm.38-.13c0,.3,.24,.54,.54,.54s.54-.25,.54-.54-.24-.54-.54-.54-.54,.25-.54,.54Z"/><path class="cls-8" d="M53.63,177.92c-.03,.23-.04,.4-.04,.95l-.03,4.49c.86-.15,1.6-.44,2.22-.84,.76-.5,1.27-1.06,1.69-1.87,.26,.36,.34,.46,.63,.69-.54,.82-1.05,1.35-1.73,1.82-.77,.52-1.61,.84-2.85,1.08-.24,.05-.34,.07-.46,.13l-.44-.54c.06-.18,.06-.3,.06-.7l.02-4.24v-.22c0-.39,0-.56-.03-.76h.95Z"/><path class="cls-8" d="M59.18,180.61c.3,.04,.64,.06,1.23,.06h4.33c.69,0,.88,0,1.19-.05v.93c-.35-.03-.61-.04-1.2-.04h-4.31c-.67,0-.91,0-1.24,.04v-.94Z"/><path class="cls-8" d="M73.72,178.97c-.07,.1-.09,.13-.21,.44-.21,.54-.59,1.16-1,1.62-.26,.3-.5,.5-.94,.85-.22-.24-.32-.31-.67-.53,.51-.33,.78-.55,1.09-.9,.27-.31,.45-.59,.61-.95t.02-.06s.02-.02,.02-.05c-.03,0-.04,0-.07,.02,0,0-.06,.02-.13,.02l-2.82,.48,.64,3.49c.1,.55,.14,.71,.23,1.01l-.9,.16c-.02-.3-.06-.6-.14-1.04l-.65-3.49-.96,.16c-.42,.07-.58,.1-.84,.18l-.14-.85c.31,0,.54-.03,.88-.09l.93-.15-.14-.81c-.07-.36-.1-.5-.18-.77l.9-.14c.02,.23,.03,.38,.11,.78l.14,.8,3.29-.54c.22-.04,.3-.06,.43-.13l.51,.46Z"/><path class="cls-8" d="M74.41,179.68c.29,0,1.06-.08,1.73-.18,.14-.75,.22-1.38,.22-1.64,0-.03,0-.08,0-.14l.88,.09c-.02,.1-.04,.16-.06,.26l-.19,1.06c-.03,.18-.03,.2-.06,.3,.22-.02,.34-.02,.52-.02,.51,0,.88,.13,1.13,.39,.28,.29,.38,.66,.38,1.37,0,1.32-.22,2.4-.58,2.85-.22,.26-.45,.36-.85,.36-.33,0-.68-.08-1.22-.26,.02-.14,.02-.24,.02-.3,0-.15,0-.28-.06-.55,.43,.2,.9,.34,1.17,.34,.26,0,.4-.18,.53-.62,.13-.42,.21-1.18,.21-1.87,0-.75-.22-.99-.88-.99-.17,0-.3,0-.51,.03-.32,1.33-.63,2.22-1.14,3.29-.06,.13-.24,.48-.53,1.05l-.78-.43c.24-.3,.56-.88,.83-1.48,.35-.78,.54-1.32,.82-2.37-.62,.08-1.2,.18-1.51,.27l-.08-.8Zm5.36-.73c.81,.92,1.3,1.81,1.66,3l-.75,.39c-.15-.64-.34-1.15-.66-1.74-.3-.57-.55-.92-.93-1.32l.67-.34Zm.29-1.37c.38,.42,.55,.68,.83,1.2l-.5,.27c-.26-.5-.49-.83-.83-1.22l.5-.25Zm.94-.46c.38,.42,.55,.66,.82,1.17l-.49,.28c-.25-.46-.47-.8-.82-1.2l.48-.25Z"/><path class="cls-8" d="M83.38,178.05c.26,.03,.41,.04,.76,.04,.79,0,1.9-.05,2.5-.11,.22-.02,.4-.06,.53-.1l.44,.56c-.15,.11-.2,.15-.43,.37-.65,.62-1.54,1.31-2.35,1.86,.38-.05,.93-.1,1.92-.19,.52-.04,.94-.07,1.2-.1,.31-.03,.54-.05,.63-.06,.12-.02,.15-.02,.26-.04l.06,.78c-.08,0-.14,0-.18,0-.86,0-1.65,.15-2.25,.42-.38,.18-.72,.43-.93,.7-.17,.22-.23,.38-.23,.6,0,.58,.62,.9,1.74,.9,.27,0,.46-.02,.67-.06l.03,.86c-.12,0-.18-.02-.24-.02h-.47c-.78,0-1.55-.18-1.94-.46-.38-.27-.59-.66-.59-1.1s.22-.87,.66-1.25c.21-.18,.39-.3,.78-.5-.44,.08-.62,.1-1.6,.22-1.26,.15-1.85,.24-2.14,.32l-.08-.82h.16c.24,0,.9-.07,1.37-.15,.74-.45,1.96-1.42,2.64-2.11-.55,.1-.97,.13-2.34,.19-.22,0-.35,.02-.5,.04l-.05-.79Z"/><path class="cls-8" d="M89.58,182.47c.16-.11,.3-.23,.51-.43q.74-.74,.9-.93c0-.09,.02-.53,.04-1.33-.91,.06-1.03,.07-1.24,.11l-.04-.76c.14,0,.2,0,.29,0,.14,0,.68-.02,1.02-.05q0-.12,0-.33c0-.25,.02-.52,.02-.77,0-.1,0-.18-.02-.34l.86,.02c-.03,.19-.06,.62-.1,1.36,.06,0,.06,0,.13-.04l.26,.3c-.13,.1-.22,.22-.43,.5,0,.06,0,.11,0,.15l-.02,.6c.2-.23,.49-.48,1.01-.89,.73-.55,1.25-.79,1.74-.79,.61,0,1.03,.41,1.03,.99,0,.35-.02,.46-.38,2.02-.1,.48-.16,.82-.16,1.04,0,.29,.14,.46,.39,.46,.19,0,.42-.16,.61-.42,.19-.27,.36-.6,.46-.9,.16,.36,.24,.49,.46,.78-.24,.42-.34,.57-.53,.79-.34,.38-.73,.58-1.14,.58-.24,0-.48-.07-.65-.19-.28-.2-.41-.5-.41-.96,0-.42,.02-.52,.34-2,.11-.51,.17-.85,.17-1.04,0-.23-.13-.36-.38-.36-.27,0-.63,.16-1.07,.48-.54,.39-1.12,.91-1.5,1.33,0,.35,0,.58,0,.8,0,1.11,.02,2.02,.05,2.27h-.87q.05-.34,.06-1.98c0-.21,0-.3,.02-.49-.14,.19-.19,.25-.63,.73-.18,.21-.3,.34-.38,.47l-.41-.8Z"/><path class="cls-8" d="M103.09,178.19c.38,.42,.55,.68,.83,1.2l-.5,.27c-.23-.44-.43-.75-.71-1.09l-.26,.23c-.65,.62-1.54,1.31-2.35,1.86,.38-.05,.93-.1,1.92-.19l1.2-.1c.31-.03,.54-.05,.63-.06,.12-.02,.15-.02,.26-.04l.06,.78c-.08,0-.14,0-.18,0-.86,0-1.65,.15-2.25,.42-.38,.18-.72,.43-.93,.7-.17,.22-.23,.38-.23,.6,0,.57,.62,.9,1.74,.9,.27,0,.46-.02,.67-.06l.03,.86c-.12,0-.18-.02-.24-.02h-.47c-.78,0-1.55-.18-1.94-.46-.38-.27-.59-.66-.59-1.1s.22-.87,.66-1.25c.21-.18,.39-.3,.78-.5-.44,.08-.62,.1-1.6,.22-1.26,.15-1.85,.24-2.14,.32l-.08-.82h.16c.24,0,.9-.07,1.37-.15,.74-.45,1.96-1.42,2.64-2.11-.55,.1-.97,.13-2.34,.19-.22,0-.35,.02-.5,.04l-.05-.79c.26,.03,.41,.04,.76,.04,.79,0,1.9-.05,2.5-.11,.22-.02,.4-.06,.53-.1l.36,.46,.28-.14Zm.94-.46c.38,.42,.55,.66,.82,1.17l-.49,.28c-.25-.46-.47-.8-.82-1.2l.48-.25Z"/><path class="cls-8" d="M105.01,182.47c.16-.11,.3-.23,.51-.43q.74-.74,.9-.93c0-.09,.02-.53,.04-1.33-.91,.06-1.03,.07-1.24,.11l-.04-.76c.14,0,.2,0,.29,0,.14,0,.68-.02,1.02-.05q0-.12,0-.33c0-.25,.02-.52,.02-.77,0-.1,0-.18-.02-.34l.86,.02c-.03,.19-.06,.62-.1,1.36,.06,0,.06,0,.13-.04l.26,.3c-.13,.1-.22,.22-.43,.5,0,.06,0,.11,0,.15l-.02,.6c.2-.23,.49-.48,1.01-.89,.73-.55,1.25-.79,1.74-.79,.61,0,1.03,.41,1.03,.99,0,.35-.02,.46-.38,2.02-.1,.48-.16,.82-.16,1.04,0,.29,.14,.46,.39,.46,.19,0,.42-.16,.61-.42,.19-.27,.36-.6,.46-.9,.16,.36,.24,.49,.46,.78-.24,.42-.34,.57-.53,.79-.34,.38-.73,.58-1.14,.58-.24,0-.48-.07-.65-.19-.28-.2-.41-.5-.41-.96,0-.42,.02-.52,.34-2,.11-.51,.17-.85,.17-1.04,0-.23-.13-.36-.38-.36-.27,0-.63,.16-1.07,.48-.54,.39-1.12,.91-1.5,1.33,0,.35,0,.58,0,.8,0,1.11,.02,2.02,.05,2.27h-.87q.05-.34,.06-1.98c0-.21,0-.3,.02-.49-.14,.19-.19,.25-.63,.73-.18,.21-.3,.34-.38,.47l-.41-.8Z"/><path class="cls-8" d="M114.34,177.93c.22,.04,.39,.05,.74,.05h.64c.35,0,.47,0,.75-.04-.05,.49-.06,.86-.06,1.33v3.98c0,.4,.02,.66,.06,.98h-1.03c.05-.3,.06-.59,.06-.98v-4.5h-.4c-.27,0-.5,.02-.77,.05v-.86Z"/><path class="cls-8" d="M121.49,179.61c.28,.7,.52,1.06,1.06,1.61-.17,.18-.29,.37-.42,.64-.34-.46-.51-.76-.7-1.25,.02,.42,.04,.7,.04,1.02v2.38c0,.36,0,.6,.05,.82h-.79c.03-.22,.05-.47,.05-.82v-1.77c0-.54,0-.85,.03-1.35-.28,.95-.54,1.54-.96,2.17-.14-.28-.26-.44-.45-.65,.59-.75,1.08-1.81,1.3-2.8h-.32c-.28,0-.47,0-.65,.04v-.72c.2,.03,.37,.04,.66,.04h.37v-.82c0-.3,0-.49-.05-.7h.8c-.03,.22-.04,.4-.04,.71v.81h.38c.26,0,.42,0,.64-.04v.71c-.22-.02-.41-.03-.62-.03h-.38Zm5.32-.05c-.2-.02-.4-.04-.78-.04-.09,.7-.16,1.05-.33,1.58-.18,.59-.38,1.01-.69,1.49,.53,.62,1.08,1.02,1.94,1.43-.15,.18-.27,.4-.41,.72-.93-.55-1.37-.9-1.97-1.57-.57,.66-1.18,1.1-2.2,1.58-.13-.27-.25-.46-.43-.66,.56-.22,.86-.37,1.24-.63,.37-.26,.68-.54,.96-.86-.44-.66-.76-1.34-.96-2.05-.16,.26-.22,.37-.43,.65-.15-.22-.26-.34-.51-.56,.38-.46,.66-.99,.91-1.67,.18-.5,.34-1.16,.35-1.52l.78,.14c-.04,.11-.07,.21-.14,.46-.06,.23-.15,.57-.23,.82h2.02c.4,0,.64-.02,.86-.05v.74Zm-3.12-.04c-.04,.09-.05,.11-.09,.2,.2,.88,.47,1.52,.98,2.28,.42-.74,.62-1.38,.76-2.48h-1.65Z"/><path class="cls-8" d="M127.57,180.55c.21,.03,.34,.04,.63,.04h.5c.26,0,.39,0,.6-.03-.02,.26-.03,.38-.03,.86v1.66c.18,.34,.33,.5,.59,.62,.37,.18,.84,.24,1.76,.24,1.55,0,2.33-.04,3.35-.18-.14,.34-.15,.41-.22,.78-.74,.03-1.7,.05-2.65,.05-1.29,0-1.72-.03-2.13-.16-.45-.14-.76-.38-1.05-.79-.33,.32-.48,.46-.77,.69-.2,.15-.25,.2-.38,.32l-.34-.76c.32-.14,.66-.39,1.15-.85v-1.81h-.44c-.24,0-.35,0-.56,.04v-.73Zm.62-2.93c.56,.53,.81,.79,1.21,1.3l-.56,.54c-.42-.6-.62-.83-1.18-1.34l.53-.49Zm2.37,3.79c-.38,0-.55,0-.75,.03v-.6c.19,.02,.34,.03,.75,.03h.23c0-.22-.02-.29-.04-.45h.74c-.02,.14-.03,.23-.04,.45h1.18c0-.19-.02-.3-.04-.45h.74c-.02,.15-.03,.25-.04,.45h.47c.39,0,.54,0,.74-.03v.6c-.21-.02-.38-.03-.75-.03h-.46v.6h.67c.42,0,.58,0,.78-.03v.62c-.18-.02-.38-.03-.78-.03h-.98c.53,.36,.9,.52,1.62,.7-.21,.21-.31,.34-.45,.59-.74-.26-1.21-.52-1.74-.95l.5-.34h-1.69l.5,.32c-.58,.51-.83,.68-1.45,.94-.11-.18-.25-.34-.49-.52,.62-.22,.95-.4,1.34-.74h-.96c-.32,0-.49,0-.66,.04v-.63c.19,.03,.33,.04,.66,.04h.63v-.6h-.23Zm1.29-2.65c0,.19,0,.32,.02,.43-.2-.02-.31-.02-.51-.02h-1.1v.35c0,.18,.04,.2,.44,.2,.46,0,.6-.02,.66-.08,.04-.05,.06-.14,.08-.39,.18,.12,.34,.18,.55,.23-.05,.44-.12,.6-.31,.69-.13,.06-.39,.09-.97,.09-.92,0-1.06-.06-1.06-.5v-.65c0-.21,0-.34-.02-.46,.14,.02,.27,.02,.54,.02h1.05v-.44h-1c-.31,0-.45,0-.65,.03v-.6c.18,.02,.4,.03,.66,.03h.94c.38,0,.56,0,.71-.02-.02,.13-.02,.21-.02,.43v.66Zm-.39,3.25h1.18v-.6h-1.18v.6Zm3.05-3.25c0,.19,0,.32,.02,.43-.2-.02-.31-.02-.51-.02h-1.09v.35c0,.12,.02,.14,.09,.18,.06,.02,.2,.03,.39,.03,.72,0,.73,0,.76-.48,.21,.12,.35,.18,.58,.23-.1,.74-.17,.78-1.33,.78-.55,0-.75-.02-.89-.07-.17-.07-.23-.19-.23-.44v-.61c0-.1,0-.26-.02-.49,.14,.02,.27,.02,.54,.02h1.05v-.44h-.97c-.31,0-.45,0-.65,.03v-.6c.18,.02,.4,.03,.65,.03h.94c.37,0,.54,0,.7-.02-.02,.11-.02,.21-.02,.43v.66Z"/><path class="cls-8" d="M135.69,178.27c.14,.02,.21,.02,.38,.02,.95,0,1.86-.1,2.21-.25l.44,.71c-.4,.26-.62,.46-.96,.86-.7,.83-1.06,1.67-1.06,2.46,0,.9,.59,1.52,1.45,1.52,.67,0,1.27-.4,1.54-1.03,.2-.49,.29-1,.29-1.7,0-.9-.18-1.91-.46-2.49l.81-.25c.14,.43,.4,.97,.71,1.45,.34,.5,.66,.86,1.14,1.27,.14,.11,.18,.15,.3,.21l-.42,.79-.18-.17c-.57-.48-.9-.92-1.42-1.8,.18,.62,.22,1,.22,1.54,0,.8-.19,1.5-.55,2-.46,.64-1.18,1.01-1.98,1.01-.47,0-.95-.14-1.3-.36-.6-.4-.97-1.14-.97-1.97s.3-1.64,.83-2.36c.21-.28,.46-.58,.67-.75l.17-.15c-.39,.1-.82,.17-1.63,.22-.13,.02-.15,.02-.23,.02l-.02-.79Zm5.47-.69c.38,.42,.55,.68,.83,1.2l-.5,.27c-.26-.5-.49-.83-.83-1.22l.5-.25Zm.94-.46c.38,.42,.55,.66,.82,1.17l-.49,.28c-.25-.46-.47-.8-.82-1.2l.48-.25Z"/><path class="cls-8" d="M143.51,182.39c.71,.55,1.13,.98,1.72,1.74l-.66,.61c-.56-.78-1.02-1.26-1.67-1.79l.61-.55Z"/><path class="cls-8" d="M19.14,189.9c-.33,0-.46,0-.64,.03v-.58c-.23,.18-.34,.25-.66,.44-.12-.26-.21-.39-.39-.6h-.4v1.45c.21-.09,.29-.12,.58-.25v.66l-.58,.24v2.35c0,.54-.17,.68-.83,.68-.16,0-.3,0-.62-.02-.02-.26-.06-.42-.15-.68,.26,.04,.51,.06,.69,.06s.22-.04,.22-.2v-1.92q-.74,.25-.87,.3l-.11-.74c.28-.02,.47-.07,.98-.24v-1.7h-.34c-.21,0-.38,0-.56,.03v-.71l.1,.02c.17,.02,.26,.02,.46,.02h.34v-.66c0-.38,0-.58-.05-.82h.79c-.04,.23-.05,.43-.05,.82v.66h.18c.18,0,.3,0,.44-.02v.55c.88-.5,1.55-1.17,1.97-1.97h.78c.26,.43,.52,.75,.95,1.12,.47,.41,.82,.62,1.51,.91-.15,.21-.23,.34-.38,.66-.36-.18-.54-.28-.82-.47v.6c-.17-.02-.29-.03-.62-.03h-.71v.7h1.41c.39,0,.56,0,.78-.04v.69c-.22-.03-.41-.04-.78-.04h-3.21c-.34,0-.52,0-.73,.04v-.68c.18,.02,.34,.03,.69,.03h1.18v-.7h-.54Zm-1.09,4.51c.03-.25,.04-.45,.04-.77v-1.31c0-.26,0-.42-.03-.64,.2,.02,.38,.03,.68,.03h2.61c.3,0,.45,0,.62-.03-.02,.17-.03,.38-.03,.62v1.37c0,.31,0,.5,.04,.73h-.74v-.41h-2.48v.41h-.72Zm1.62-5.41c0-.24,0-.37-.02-.48h.71c-.02,.11-.02,.25-.02,.48v.31h.7c.3,0,.41,0,.56-.02-.71-.51-1.16-.97-1.57-1.59-.4,.65-.74,1.02-1.45,1.59,.18,.02,.27,.02,.55,.02h.54v-.31Zm-.9,4.39h2.49v-1.07h-2.49v1.07Z"/><path class="cls-8" d="M23.35,188.29q.15,0,.28,0c.17,0,.26,0,.49-.02,.94-.06,2.84-.18,4.72-.26,.55-.02,.79-.05,.93-.08l.06,.84h-.14c-.45,0-1.01,.14-1.5,.38-1.09,.54-1.76,1.41-1.76,2.27,0,.64,.4,1.14,1.09,1.38,.37,.12,.9,.22,1.18,.22,.03,0,.08,0,.14,0l-.12,.9c-.1-.02-.14-.02-.26-.05-.87-.13-1.34-.27-1.81-.56-.67-.41-1.04-1.05-1.04-1.82s.35-1.47,1.05-2.12c.32-.3,.5-.42,.96-.64-.56,.09-.88,.12-1.73,.18-1.39,.1-2.07,.16-2.49,.25l-.05-.88Z"/><path class="cls-8" d="M31.61,187.64c.26,.04,.41,.05,.85,.05,.73,0,1.67-.04,2.45-.1,.26-.02,.34-.03,.45-.1l.43,.6c-.12,.06-.17,.1-.41,.33-1.11,1.05-1.98,1.77-2.53,2.1l.02,.02c.68-.31,1.16-.42,1.8-.42,1.34,0,2.21,.69,2.21,1.75,0,.74-.38,1.33-1.07,1.72-.52,.29-1.16,.44-1.88,.44-.64,0-1.18-.12-1.48-.34-.3-.21-.48-.54-.48-.9,0-.61,.55-1.06,1.29-1.06,.55,0,1.04,.24,1.36,.66,.16,.21,.25,.38,.37,.74,.27-.09,.43-.17,.6-.29,.31-.23,.49-.57,.49-.95,0-.7-.62-1.13-1.64-1.13-1.18,0-2.38,.5-3.33,1.35l-.46-.71c.72-.38,2.6-1.93,3.64-2.99,.02-.02,.11-.11,.14-.14h0c-.29,.03-1.14,.09-2.36,.14-.18,0-.24,.02-.4,.04l-.04-.82Zm1.65,4.73c-.33,0-.54,.16-.54,.42,0,.35,.41,.57,1.08,.57,.16,0,.21,0,.46-.03-.16-.63-.5-.95-1-.95Z"/></g><g><rect class="cls-6" x="83.16" y="82.15" width="17.36" height="24.24" rx="3" ry="3" transform="translate(35.7 -24.76) rotate(19)"/><rect class="cls-2" x="110.97" y="59.06" width="17.36" height="24.24" rx="3" ry="3" transform="translate(11.07 -15.96) rotate(8)"/><rect class="cls-7" x="78.9" y="50.92" width="17.36" height="24.24" rx="3" ry="3" transform="translate(-11.19 19.59) rotate(-12)"/><path class="cls-1" d="M91.49,96.46l1.45,1.74c.27,.32,.78,.16,.82-.25l.23-2.26,2.11-.85c.38-.15,.39-.7,.01-.86l-2.07-.92-.16-2.26c-.03-.41-.54-.59-.81-.28l-1.51,1.68-2.2-.55c-.4-.1-.73,.33-.52,.69l1.14,1.97-1.21,1.92c-.22,.35,.09,.79,.49,.7l2.22-.47Z"/><path class="cls-9" d="M106.97,92.45h-30.95c-.66,0-1.19,.54-1.19,1.19v32.14c0,3.06,2.5,5.56,5.56,5.56h22.22c3.06,0,5.56-2.5,5.56-5.56v-32.14c0-.66-.54-1.19-1.19-1.19Z"/><path class="cls-9" d="M49.8,65.42l4.45,5.11-.19,2.78c-.05,.71,.19,1.45,.67,2l7.62,8.76c.47,.55,1.18,.89,1.88,.94l2.78,.19,4.45,5.11c.91,1.05,2.46,1.41,3.65,.68,1.5-.92,1.76-2.93,.66-4.2l-21.87-25.16c-1.1-1.27-3.13-1.29-4.25,.07-.88,1.07-.74,2.66,.17,3.7Z"/><path class="cls-5" d="M119.17,73.62l1.78,1.45c.33,.27,.81,0,.77-.41l-.21-2.29,1.93-1.25c.35-.23,.26-.77-.15-.86l-2.24-.51-.59-2.22c-.11-.4-.65-.48-.86-.12l-1.18,1.97-2.3-.13c-.42-.03-.66,.47-.38,.78l1.51,1.74-.83,2.14c-.15,.39,.24,.77,.63,.61l2.11-.9Z"/><path class="cls-1" d="M88,65.46l2.16,.75c.39,.14,.76-.27,.58-.64l-.97-2.06,1.38-1.82c.25-.33-.02-.8-.43-.75l-2.26,.28-1.31-1.87c-.24-.34-.77-.23-.85,.18l-.43,2.23-2.18,.66c-.4,.12-.46,.66-.09,.86l2,1.1-.04,2.28c0,.42,.49,.64,.79,.35l1.67-1.56Z"/></g></svg>