<?xml version="1.0" encoding="UTF-8"?><svg id="Layer_1" xmlns="http://www.w3.org/2000/svg" viewBox="0 0 178.58 249.45"><defs><style>.cls-1{fill:#fff;}.cls-2{fill:#ffa914;}.cls-3{fill:gray;}.cls-4{fill:#4d4d4d;}.cls-5{opacity:.9;}</style></defs><g><rect class="cls-1" x="3.09" y="3.09" width="172.4" height="243.27" rx="10.86" ry="10.86"/><path class="cls-2" d="M164.63,6.18c4.29,0,7.77,3.49,7.77,7.77V235.5c0,4.29-3.49,7.77-7.77,7.77H13.95c-4.29,0-7.77-3.49-7.77-7.77V13.95c0-4.29,3.49-7.77,7.77-7.77H164.63M164.63,0H13.95C6.25,0,0,6.25,0,13.95V235.5C0,243.2,6.25,249.45,13.95,249.45H164.63c7.71,0,13.95-6.25,13.95-13.95V13.95C178.58,6.25,172.34,0,164.63,0h0Z"/></g><g><path class="cls-2" d="M37.18,15.88c-1.05,0-1.5,.01-2.05,.06v-2.23c.7,.08,1.09,.1,2.09,.1h6.94c.41-.01,.61-.05,.87-.14l1.22,1.37c-.2,.19-.27,.28-.58,.81-1.3,2.19-2.34,3.45-4.02,4.85,.54,.65,.9,1.1,1.51,1.93l-1.9,1.48c-.76-1.24-1.39-2.12-2.45-3.31-1.03-1.18-1.62-1.76-2.55-2.52l1.74-1.22c1.04,.85,1.46,1.24,2.19,2.01,.72-.6,1.52-1.41,1.98-2,.32-.39,.66-.94,.81-1.23l-5.8,.03Z"/><path class="cls-2" d="M56.56,24.11c-1.1-1.39-2.22-2.5-3.64-3.6-1.19,1.41-2.7,2.52-4.66,3.47-.44-.89-.71-1.27-1.42-2,1.65-.63,2.95-1.46,4.1-2.56,1.18-1.13,1.95-2.25,2.55-3.72l-3.29,.05c-1.09,.02-1.49,.05-2.01,.13l-.06-2.25c.49,.06,.84,.09,1.33,.09,.1,0,.34,0,.71-.01l4.33-.06c.6-.01,.67-.01,1.01-.14l1.11,1.14c-.19,.19-.27,.32-.46,.75-.67,1.58-1.15,2.47-1.86,3.42,1.53,1.1,2.05,1.55,4.03,3.43l-1.77,1.88Z"/><path class="cls-2" d="M63.15,15.06c.04-.49,.06-1.23,.06-1.62,0-.27,0-.37-.04-.63l2.38,.06c-.06,.29-.06,.33-.14,1.53q-.01,.34-.04,.65h2.76c.42,0,.57-.03,.85-.14l.99,.86c-.14,.25-.17,.36-.18,.94-.09,2.71-.28,4.83-.53,5.66-.37,1.18-.98,1.58-2.38,1.58-.49,0-.68-.01-1.66-.1-.05-1.01-.14-1.43-.43-2.23,.63,.17,1.25,.25,1.65,.25,.61,0,.76-.2,.92-1.3,.13-.85,.24-2.45,.24-3.53h-2.42q-.1,.84-.19,1.27c-.56,2.56-1.76,4.21-4.33,5.9-.57-.9-.95-1.33-1.65-1.93,1.69-.89,2.66-1.79,3.29-3.07,.32-.65,.46-1.1,.63-2.17h-1.58c-.85,0-1.11,.01-1.71,.08v-2.17c.62,.09,.85,.1,1.75,.1h1.75Z"/><path class="cls-2" d="M71.53,17.25c.6,.09,1.28,.11,2.6,.11h6.06c1.27,0,1.75-.03,2.6-.11v2.44c-.61-.06-1.16-.08-2.61-.08h-6.03c-1.42,0-1.84,.01-2.61,.08v-2.44Z"/><path class="cls-2" d="M85.38,24.05c.05-.53,.06-.9,.08-1.94v-7.37c-.01-1.09-.01-1.15-.09-1.84h2.45c-.05,.33-.05,.53-.06,1.85v1.74c2,.65,3.99,1.55,5.76,2.64l-1.2,2.15c-1.05-.75-2.52-1.56-3.99-2.2-.38-.15-.42-.16-.46-.19-.04-.01-.06-.03-.11-.06v3.29c0,.94,.03,1.61,.08,1.94h-2.44Zm5.73-10.44c.49,.56,.9,1.14,1.25,1.81l-1.2,.58c-.42-.8-.75-1.27-1.25-1.85l1.2-.54Zm1.69-.76c.47,.51,.82,.99,1.27,1.76l-1.17,.57c-.44-.8-.8-1.31-1.24-1.81l1.14-.52Z"/></g><path class="cls-2" d="M13.95,0H30V16.05c0,7.7-6.25,13.95-13.95,13.95H0V13.95C0,6.25,6.25,0,13.95,0Z"/><g class="cls-5"><path class="cls-1" d="M15,19.78c-.1,0-.19-.04-.26-.11l-6.73-4.47s-.03-.1-.03-.2,.04-.19,.1-.25l6.58-4.37c.14-.13,.23-.17,.33-.17s.19,.04,.26,.11l6.73,4.49s.03,.1,.03,.2-.04,.19-.1,.26l-6.58,4.35c-.14,.13-.23,.17-.33,.17Z"/><path class="cls-1" d="M15.08,10.66h0m-.08,.07s.04,.03,.07,.05l6.36,4.23-6.36,4.21s-.05,.03-.07,.05c-.02-.02-.05-.03-.07-.05l-6.36-4.21,6.36-4.23s.05-.03,.07-.05m0-.98c-.21,0-.43,.08-.59,.24l-6.65,4.43c-.32,.32-.32,.86,0,1.18l6.65,4.41c.16,.16,.38,.24,.59,.24s.43-.08,.59-.24l6.65-4.41c.32-.32,.32-.86,0-1.18l-6.65-4.43c-.16-.16-.38-.24-.59-.24h0Z"/></g><g><path d="M19.15,163.74c-.77,.98-1.52,1.8-2.47,2.66-.24,.22-.29,.26-.4,.37l-.9-1.26c.25-.13,.49-.31,1.04-.79,.82-.71,1.19-1.1,1.9-2.03l.83,1.04Zm-2.48-5.95c.89,.7,1.32,1.1,2.06,1.92l-1.03,.97c-.74-.91-1.1-1.27-2.06-2.03l1.03-.86Zm5.89,2.95c-.04,.16-.05,.31-.05,.5,0,.88,.14,1.81,.37,2.41,.34,.84,.92,1.62,1.68,2.21,.59,.47,1.04,.72,2.02,1.13-.34,.44-.55,.79-.77,1.27-1.18-.65-1.76-1.07-2.41-1.7-.72-.72-1.22-1.54-1.52-2.47-.25,.89-.7,1.73-1.24,2.36-.62,.72-1.43,1.28-2.58,1.83-.19-.44-.37-.7-.76-1.14,.98-.4,1.64-.83,2.29-1.49,1.03-1.04,1.61-2.61,1.61-4.38,0-.18-.01-.32-.05-.54h1.4Zm1.9-1.7c.55,0,.9-.02,1.16-.07l.72,.7c-.08,.2-.12,.29-.26,.62-.52,1.22-.94,1.94-1.7,2.9-.43-.36-.52-.42-1.1-.75,.72-.73,1.13-1.36,1.49-2.24h-3.98c-.5,.98-.97,1.66-1.78,2.52-.3-.41-.59-.68-1-.97,1.26-1.13,2.05-2.57,2.43-4.46l1.44,.25c-.1,.23-.12,.3-.36,.94-.07,.19-.12,.34-.22,.58h3.15Z"/><path d="M32.46,164.54c-.68,1.55-1.45,2.25-2.44,2.25-1.37,0-2.35-1.39-2.35-3.32,0-1.32,.47-2.55,1.32-3.49,1.01-1.1,2.42-1.68,4.13-1.68,2.88,0,4.75,1.75,4.75,4.45,0,2.08-1.08,3.73-2.91,4.47-.58,.24-1.04,.36-1.88,.5-.2-.64-.35-.9-.73-1.4,1.1-.14,1.82-.34,2.39-.66,1.04-.58,1.67-1.72,1.67-3,0-1.15-.52-2.09-1.48-2.66-.37-.22-.68-.31-1.21-.36-.23,1.88-.65,3.54-1.25,4.89Zm-1.76-4.29c-1.01,.72-1.63,1.95-1.63,3.24,0,.98,.42,1.76,.95,1.76,.4,0,.8-.5,1.24-1.54,.46-1.08,.85-2.7,1-4.05-.62,.07-1.06,.24-1.55,.59Z"/><path d="M48.63,159.53c-.16,.2-.18,.25-.37,.8-.38,1.09-1.04,2.49-1.54,3.3-1.22,1.99-2.91,3.41-5.47,4.58-.38-.65-.54-.85-1-1.24,1.02-.42,1.62-.72,2.34-1.2,.85-.55,1.35-.98,1.97-1.67-.84-.72-1.56-1.22-2.46-1.71l.91-1.07c1.01,.56,1.51,.9,2.41,1.61,.56-.86,.97-1.7,1.34-2.83l-3.73,.04c-.74,1.24-1.6,2.21-2.81,3.23-.4-.44-.58-.6-1.2-.96,1.32-.98,2.28-2.07,3.01-3.42,.35-.64,.59-1.22,.7-1.67l1.56,.35q-.13,.22-.36,.67c-.14,.32-.23,.47-.29,.58q.19-.02,3.12-.05c.49-.01,.74-.04,1.06-.14l.8,.8Z"/><path d="M50.21,161.9c.53,.07,.76,.08,1.94,.08h6.39c1.19,0,1.42-.01,1.94-.08v1.67c-.48-.06-.61-.06-1.96-.06h-6.37c-1.34,0-1.48,0-1.96,.06v-1.67Z"/><path d="M61.5,165.9c1.03-.06,2.46-.41,3.55-.89,1.5-.65,2.61-1.57,3.56-2.94,.53-.77,.86-1.43,1.22-2.4,.47,.56,.66,.74,1.27,1.18-1.02,2.19-2.16,3.61-3.8,4.7-1.22,.82-2.71,1.4-4.57,1.8-.48,.1-.52,.11-.79,.2l-.44-1.66Zm1.02-7.45c1.43,.89,2.17,1.44,3.09,2.32l-1.03,1.31c-.96-1.02-1.94-1.81-3.06-2.43l1-1.19Z"/><path d="M76.32,166.03c0,.49-.02,.78-.1,1.02-.11,.42-.54,.7-1.1,.7-.76,0-1.67-.34-2.27-.85-.43-.37-.66-.84-.66-1.35,0-.56,.37-1.2,1.03-1.78,.43-.37,.96-.68,1.75-1.02v-1.85q-.11,0-.5,.02c-.18,.01-.35,.01-.65,.01-.18,0-.52-.01-.66-.01-.16-.01-.26-.01-.3-.01-.05,0-.14,0-.25,.01v-1.34c.32,.07,.8,.11,1.44,.11,.12,0,.25,0,.42-.01,.29-.01,.35-.01,.48-.01v-.79c0-.68-.01-1-.07-1.38h1.5c-.06,.38-.07,.64-.07,1.31v.77c.9-.11,1.7-.26,2.31-.46l.05,1.34c-.22,.04-.44,.07-1.27,.22-.4,.07-.64,.11-1.09,.16v1.56c.82-.24,1.57-.34,2.45-.34,2,0,3.43,1.22,3.43,2.93,0,1.56-1.16,2.73-2.72,2.73-.97,0-1.65-.47-1.97-1.33-.16-.41-.2-.8-.2-1.54,.61-.17,.82-.25,1.33-.53-.02,.23-.02,.34-.02,.53,0,.5,.05,.83,.17,1.06,.13,.25,.42,.41,.76,.41,.71,0,1.21-.56,1.21-1.33,0-1.03-.84-1.7-2.12-1.7-.72,0-1.45,.13-2.3,.4v2.36Zm-1.34-1.93c-.9,.48-1.43,1.01-1.43,1.44,0,.2,.12,.38,.4,.55,.24,.17,.54,.26,.77,.26,.2,0,.26-.11,.26-.5v-1.75Zm6.64-2.42c-.6-.95-1.48-1.89-2.4-2.59l1.13-.75c1.04,.8,1.74,1.52,2.38,2.46l-1.1,.89Z"/><path d="M86.11,166.9c0,.52,.01,.96,.06,1.39h-1.44c.05-.46,.07-.82,.07-1.4v-3.37c0-.6,0-.85,.02-1.34-.34,.56-.53,.82-.97,1.33-.16-.59-.31-1.01-.54-1.46,.82-.86,1.38-1.7,1.87-2.81,.36-.79,.56-1.4,.7-2.13l1.37,.41c-.14,.36-.2,.5-.34,.86-.3,.86-.46,1.21-.8,1.96v5.08c1.4-1.16,2.63-2.89,3.24-4.55h-1.37c-.42,0-.9,.02-1.3,.07v-1.39c.36,.04,.83,.06,1.3,.06h1.77v-1.13c0-.41-.02-.77-.08-1.16h1.44c-.06,.38-.07,.73-.07,1.16v1.13h2.23c.48,0,.96-.02,1.36-.07v1.4c-.38-.05-.85-.07-1.32-.07h-1.88c.47,1.09,.77,1.61,1.37,2.4,.64,.83,1.29,1.49,2.15,2.16-.4,.47-.61,.77-.89,1.29-.72-.66-1.04-1.01-1.49-1.58-.73-.95-1.15-1.69-1.57-2.73,.02,.38,.04,.71,.04,1.21v3.35c0,.55,.01,.94,.07,1.34h-1.44c.05-.41,.08-.89,.08-1.33v-3.19c0-.4,.01-.86,.02-1.26-.74,1.8-1.55,2.96-2.88,4.19-.31-.56-.46-.77-.78-1.09v1.28Z"/><path d="M96.97,158.02c.28,.05,.58,.06,1.21,.06,.72,0,1.79-.05,2.23-.11,.24-.02,.32-.05,.48-.14l.95,.82c-.11,.14-.17,.28-.25,.5-.06,.14-.79,2.35-.9,2.72,.94,.13,1.74,.36,2.65,.75,.1-.61,.12-1.1,.12-2.22,0-.26-.01-.4-.05-.64l1.51,.06c-.05,.25-.06,.35-.07,.8-.04,1.05-.1,1.77-.22,2.54,.38,.19,.91,.47,1.28,.68,.32,.19,.37,.2,.55,.29l-.54,1.58c-.35-.3-1.04-.77-1.65-1.12-.34,.89-.7,1.48-1.31,2.11-.53,.55-1.13,1-1.81,1.36-.5-.62-.62-.74-1.09-1.08,.9-.43,1.37-.74,1.86-1.26,.48-.52,.88-1.16,1.07-1.77-.85-.41-1.56-.64-2.7-.83-.53,1.58-.84,2.35-1.19,2.95-.44,.77-.98,1.14-1.64,1.14-1.1,0-1.92-.97-1.92-2.28,0-1.1,.54-2.04,1.49-2.63,.62-.38,1.26-.54,2.27-.58,.31-.95,.46-1.4,.75-2.51-.61,.05-.9,.06-2.07,.11-.49,.02-.71,.04-.95,.07l-.06-1.4Zm.36,5.71c-.3,.32-.46,.73-.46,1.15,0,.49,.26,.89,.59,.89,.23,0,.41-.22,.68-.76,.24-.48,.53-1.22,.78-2-.8,.12-1.22,.31-1.59,.72Z"/></g><g><path class="cls-3" d="M17.75,179.75c-.48,.57-1.06,1.14-1.7,1.66-.16,.14-.2,.17-.27,.24l-.5-.72c.18-.08,.34-.19,.7-.48,.58-.46,.84-.72,1.33-1.3l.43,.6Zm-1.7-3.89c.59,.47,.89,.74,1.38,1.28l-.58,.54c-.5-.6-.76-.86-1.38-1.33l.58-.49Zm3.9,1.87c-.02,.1-.03,.21-.03,.35,0,1.06,.23,1.82,.78,2.53,.46,.6,1.06,1.02,1.98,1.4-.18,.24-.31,.44-.44,.71-.74-.4-1.21-.73-1.65-1.2-.47-.49-.82-1.1-1-1.78-.15,.62-.44,1.22-.79,1.66-.44,.55-.98,.95-1.79,1.32-.12-.24-.23-.4-.44-.62,.72-.29,1.19-.61,1.62-1.09,.66-.74,1.01-1.74,1.01-2.91,0-.15,0-.26-.02-.38h.79Zm1.35-1.05c.36,0,.59-.02,.78-.05l.41,.41c-.06,.1-.06,.11-.18,.38-.33,.74-.68,1.29-1.16,1.85-.24-.21-.32-.26-.62-.42,.52-.5,.8-.9,1.06-1.53h-2.81c-.34,.68-.66,1.16-1.14,1.69-.18-.22-.33-.36-.57-.52,.47-.45,.86-.98,1.13-1.58,.24-.53,.38-.98,.45-1.43l.81,.15c-.1,.3-.18,.51-.38,1.05h2.23Z"/><path class="cls-3" d="M26.53,180.17c-.46,1.06-.95,1.52-1.58,1.52-.85,0-1.47-.89-1.47-2.1,0-.86,.3-1.66,.86-2.28,.66-.72,1.58-1.1,2.69-1.1,1.86,0,3.09,1.14,3.09,2.87,0,1.34-.7,2.41-1.9,2.9-.38,.15-.69,.24-1.23,.34-.12-.37-.19-.5-.41-.78,.62-.1,.98-.18,1.33-.33,.86-.37,1.39-1.21,1.39-2.17,0-.83-.39-1.5-1.1-1.87-.27-.14-.49-.2-.86-.22-.14,1.19-.43,2.36-.82,3.22Zm-1.1-2.83c-.73,.49-1.18,1.34-1.18,2.25,0,.7,.3,1.25,.69,1.25,.29,0,.58-.35,.9-1.08,.31-.74,.58-1.85,.69-2.81-.44,.05-.75,.15-1.1,.38Z"/><path class="cls-3" d="M34.37,175.71q-.09,.14-.26,.49c-.1,.22-.16,.32-.22,.4,.05,0,.16,0,.33-.02l1.9-.02c.27,0,.43-.02,.61-.08l.46,.46c-.1,.13-.11,.18-.24,.53-.27,.74-.7,1.65-1.05,2.21-.81,1.29-1.9,2.2-3.6,2.98-.21-.35-.3-.47-.55-.7,.69-.27,1.1-.49,1.6-.82,.58-.39,.94-.7,1.33-1.18-.57-.5-1.09-.87-1.7-1.21l.52-.58c.67,.38,1.05,.64,1.67,1.14,.4-.62,.73-1.3,.97-2.03l-2.6,.02c-.56,.86-1.1,1.47-1.88,2.11-.22-.25-.32-.33-.67-.54,.86-.64,1.52-1.38,2.02-2.29,.24-.43,.4-.81,.46-1.1l.88,.21Z"/><path class="cls-3" d="M38.36,178.61c.3,.04,.64,.06,1.23,.06h4.33c.69,0,.88,0,1.19-.05v.93c-.35-.03-.61-.04-1.2-.04h-4.31c-.67,0-.91,0-1.24,.04v-.94Z"/><path class="cls-3" d="M45.76,181.29c.65-.02,1.62-.27,2.35-.6,1-.44,1.75-1.05,2.38-1.94,.36-.53,.59-.96,.84-1.62,.26,.33,.37,.42,.7,.66-.66,1.45-1.42,2.38-2.49,3.1-.81,.55-1.8,.94-3.02,1.2-.3,.06-.34,.07-.5,.13l-.25-.93Zm.61-4.96c.91,.57,1.42,.95,2.01,1.53l-.58,.71c-.62-.66-1.26-1.17-1.99-1.6l.55-.64Z"/><path class="cls-3" d="M52.8,177.68c.29,0,1.06-.08,1.73-.18,.14-.75,.22-1.38,.22-1.64,0-.03,0-.08,0-.14l.88,.09c-.02,.1-.04,.16-.06,.26l-.19,1.06c-.03,.18-.03,.2-.06,.3,.22-.02,.34-.02,.52-.02,.51,0,.88,.13,1.13,.39,.28,.29,.38,.66,.38,1.37,0,1.32-.22,2.4-.58,2.85-.22,.26-.45,.36-.85,.36-.33,0-.68-.08-1.22-.26,.02-.14,.02-.24,.02-.3,0-.15,0-.28-.06-.55,.43,.2,.9,.34,1.17,.34,.26,0,.4-.18,.53-.62,.13-.42,.21-1.18,.21-1.87,0-.75-.22-.99-.88-.99-.17,0-.3,0-.51,.03-.32,1.33-.63,2.22-1.14,3.29-.06,.13-.24,.48-.53,1.05l-.78-.43c.24-.3,.56-.88,.83-1.48,.35-.78,.54-1.32,.82-2.37-.62,.08-1.2,.18-1.51,.27l-.08-.8Zm5.36-.73c.81,.92,1.3,1.81,1.66,3l-.75,.39c-.15-.64-.34-1.15-.66-1.74-.3-.57-.55-.92-.93-1.32l.67-.34Zm.29-1.37c.38,.42,.55,.68,.83,1.2l-.5,.27c-.26-.5-.49-.83-.83-1.22l.5-.25Zm.94-.46c.38,.42,.55,.66,.82,1.17l-.49,.28c-.25-.46-.47-.8-.82-1.2l.48-.25Z"/><path class="cls-3" d="M66.72,182.79v-.46h-5.17v.46h-.78c.03-.24,.05-.56,.05-1.01v-5.01c0-.39-.02-.67-.05-.98,.28,.03,.55,.04,.94,.04h4.86c.38,0,.66,0,.94-.04-.03,.3-.05,.56-.05,.98v5.01c0,.44,.02,.8,.05,1h-.78Zm-5.17-1.11h5.17v-5.17h-5.17v5.17Zm3.36-4.13c.36,0,.59,0,.8-.03-.02,.17-.03,.37-.03,.63v1.86c0,.26,0,.43,.03,.62-.23-.02-.46-.03-.8-.03h-1.58c-.42,0-.56,0-.79,.03,.02-.22,.03-.38,.03-.62v-1.86c0-.24,0-.43-.03-.63,.2,.02,.44,.03,.79,.03h1.58Zm-1.65,2.42h1.71v-1.8h-1.71v1.8Z"/><path class="cls-3" d="M68.82,178.67q.21-.02,.82-.16c1.15-.25,1.76-.34,2.42-.34,.89,0,1.47,.26,1.82,.79,.18,.28,.27,.6,.27,.97,0,1-.73,1.83-1.95,2.22-.48,.15-.65,.18-1.7,.31-.06-.33-.11-.46-.29-.77h.12c.48,0,1.16-.1,1.65-.26,.44-.14,.86-.4,1.1-.71,.19-.25,.29-.5,.29-.82,0-.69-.47-1.04-1.38-1.04-.54,0-1.16,.1-2.09,.31-.5,.12-.64,.17-.9,.28l-.18-.81Z"/><path class="cls-3" d="M74.9,176.69q.15,0,.28,0c.17,0,.26,0,.49-.02,.94-.06,2.84-.18,4.72-.26,.55-.02,.79-.05,.93-.08l.06,.84h-.14c-.45,0-1.01,.14-1.5,.38-1.09,.54-1.76,1.41-1.76,2.27,0,.64,.4,1.14,1.09,1.38,.37,.12,.9,.22,1.18,.22,.03,0,.08,0,.14,0l-.12,.9c-.1-.02-.14-.02-.26-.05-.87-.13-1.34-.27-1.81-.56-.67-.41-1.04-1.05-1.04-1.81s.35-1.47,1.05-2.12c.32-.3,.5-.42,.96-.64-.56,.09-.88,.12-1.73,.18-1.39,.1-2.07,.16-2.49,.25l-.05-.88Z"/><path class="cls-3" d="M82.59,176.78c.25,.02,.34,.02,.79,.02,.58,0,1.15-.03,1.66-.1-.15-.38-.38-.89-.44-1l.84-.12c.03,.18,.12,.43,.36,1.03,.79-.11,1.62-.3,2.16-.5l.06,.72q-.08,.02-.26,.06s-.1,.02-.2,.05c-.41,.1-1.22,.26-1.51,.31,.12,.28,.17,.38,.36,.75,1.02-.2,1.55-.34,1.85-.48l.07,.74c-.14,.03-.3,.06-.48,.1q-.54,.14-.84,.2t-.3,.06c.42,.7,.61,.95,1.1,1.52l-.61,.43c-.51-.25-1.06-.35-1.84-.35-1.16,0-1.81,.29-1.81,.8,0,.21,.15,.42,.38,.52,.27,.12,.7,.19,1.21,.19,.83,0,1.93-.24,2.42-.53l.14,.83c-.15,.03-.21,.05-.46,.12-.77,.22-1.35,.3-2.09,.3-.85,0-1.41-.11-1.83-.37-.38-.23-.62-.62-.62-1.06s.24-.8,.66-1.07c.41-.26,1.04-.39,1.85-.39,.55,0,1.04,.06,1.47,.2-.18-.19-.38-.48-.72-1.04-.77,.13-1.5,.18-2.8,.22-.4,0-.43,0-.6,.03l-.02-.74c.19,.02,.34,.03,.71,.03,.86,0,1.81-.07,2.41-.18-.1-.18-.14-.25-.38-.76-.66,.08-1.24,.11-2.14,.13-.33,0-.36,0-.53,.02l-.03-.71Z"/><path class="cls-3" d="M89.51,176.93c.3,.06,.52,.07,.98,.07,.18,0,.3,0,.47,0,.1-.5,.17-1.05,.17-1.29,0-.02,0-.06,0-.11l.89,.08q-.06,.18-.15,.76c-.04,.24-.05,.32-.09,.53,.61-.06,1.02-.14,1.39-.26l.04,.77q-.06,0-.24,.04c-.38,.08-.94,.15-1.33,.18-.1,.54-.31,1.42-.52,2.15-.24,.83-.43,1.38-.9,2.57l-.84-.34c.57-1.03,1.15-2.77,1.46-4.35-.07,0-.48,0-.65,0-.06,0-.12,0-.23,0-.12,0-.26,0-.37,0h-.09v-.78Zm3.82,3.03c-.21,.26-.27,.34-.33,.46-.06,.14-.1,.3-.1,.42,0,.42,.45,.65,1.28,.65,.59,0,1.33-.12,1.79-.29l.06,.83c-.13,.02-.18,.02-.38,.06-.63,.1-1,.14-1.46,.14-.68,0-1.18-.1-1.54-.3-.35-.2-.56-.56-.56-.97,0-.38,.14-.7,.58-1.28l.66,.28Zm2.41-1.18c-.38-.04-.61-.05-.98-.05-.76,0-1.28,.06-2.06,.24l-.06-.74c1.06-.21,1.46-.26,2.27-.26,.22,0,.35,0,.82,0l.02,.8Z"/><path class="cls-3" d="M97.17,176.69c0-.34,0-.57-.03-.79q.17,.02,.72,.02h.82c.39,0,.52,0,.7-.02-.02,.18-.02,.33-.02,.78v4.49c0,.42,0,.61,.02,.8h-.69v-.41h-.86v.67h-.71c.03-.24,.05-.54,.05-.92v-4.63Zm.67,1.66h.85v-1.8h-.85v1.8Zm0,2.57h.85v-1.95h-.85v1.95Zm2.77-3.92c-.28,0-.62,.02-.82,.04v-.71c.22,.03,.46,.05,.8,.05h.77v-.23c0-.23-.02-.42-.05-.62h.79c-.03,.19-.05,.37-.05,.62v.23h.98c.33,0,.58-.02,.8-.05v.71c-.22-.03-.46-.04-.79-.04h-.98v.88h1.23c.36,0,.63-.02,.84-.05v.73c-.22-.03-.43-.05-.78-.05h-.18v.78h.17c.36,0,.6-.02,.78-.04v.74c-.22-.03-.44-.05-.78-.05h-.17v1.98c0,.43-.08,.6-.34,.7-.18,.06-.42,.1-.75,.1,0,0-.22,0-.66-.02-.02-.3-.06-.5-.17-.72,.24,.05,.62,.08,.87,.08,.3,0,.35-.02,.35-.22v-1.9h-2.05c-.3,0-.58,.02-.83,.05v-.74c.2,.02,.45,.04,.85,.04h2.04v-.78h-2.04c-.34,0-.61,.02-.85,.05v-.73c.2,.03,.49,.05,.86,.05h.92v-.88h-.74Zm.43,4.83c-.34-.54-.66-.93-1.06-1.32l.57-.38c.42,.38,.73,.74,1.09,1.25l-.59,.45Z"/><path class="cls-3" d="M105.4,180.39c.71,.55,1.13,.98,1.72,1.74l-.66,.61c-.56-.78-1.02-1.26-1.67-1.79l.61-.55Z"/><path class="cls-3" d="M114.87,182.39c-.63-.8-1.51-1.64-2.49-2.42-.93,1.05-1.8,1.72-3.05,2.34-.18-.34-.26-.45-.54-.74,.62-.24,1-.46,1.61-.89,1.23-.89,2.22-2.11,2.76-3.4q.02-.07,.05-.12s.02-.03,.03-.07c-.1,0-.14,0-.25,0l-2.32,.04c-.5,0-.65,.02-1.02,.06l-.02-.87c.27,.03,.47,.05,.82,.05h.22l2.66-.04c.38,0,.46-.02,.63-.08l.45,.47c-.1,.1-.16,.22-.24,.41-.38,.89-.79,1.59-1.28,2.21,1.01,.73,1.65,1.29,2.66,2.31l-.66,.74Z"/><path class="cls-3" d="M118.5,176.58c-.08-.46-.11-.58-.2-.81l.89-.14c.02,.26,.03,.42,.1,.81l.13,.69,1.58-.25c.36-.06,.7-.14,.9-.2l.14,.83c-.27,.02-.38,.02-.9,.11l-1.58,.25,.26,1.43,1.81-.29c.42-.07,.66-.13,.91-.21l.16,.82q-.2,0-.91,.12l-1.84,.29,.28,1.48c.1,.54,.13,.67,.22,.96l-.92,.16c0-.27-.05-.52-.13-.97l-.27-1.5-1.95,.31c-.44,.07-.66,.11-.89,.18l-.14-.83c.28,0,.5-.02,.92-.09l1.92-.31-.26-1.43-1.46,.22c-.46,.07-.71,.13-.94,.19l-.14-.84c.33,0,.58-.03,.95-.09l1.45-.23-.12-.67Z"/><path class="cls-3" d="M124.52,177.63c.33,.58,.49,.96,.79,1.85l-.76,.25c-.2-.76-.38-1.24-.74-1.87l.7-.22Zm4.56,.02c-.05,.12-.06,.15-.1,.38-.23,1.09-.61,1.97-1.14,2.67-.57,.76-1.25,1.3-2.36,1.85-.17-.29-.26-.39-.54-.66,.55-.22,.87-.39,1.34-.73,.94-.68,1.48-1.51,1.83-2.79,.11-.38,.16-.66,.16-.91l.82,.18Zm-2.88-.34c.42,.78,.57,1.12,.78,1.79l-.74,.24c-.15-.59-.39-1.2-.73-1.82l.7-.21Z"/><path class="cls-3" d="M135.37,176.43s0-.09,0-.13c0-.51,.41-.93,.92-.93s.93,.42,.93,.93-.42,.93-.93,.93c-.09,0-.18-.02-.26-.04-.02,.04-.03,.1-.05,.17-.4,1.52-1.02,2.61-1.99,3.51-.72,.67-1.42,1.1-2.54,1.57-.18-.36-.27-.48-.58-.78,.71-.22,1.17-.44,1.78-.83,1.26-.83,2.05-1.98,2.46-3.61h-3.81c-.54,0-.75,.02-1.06,.06v-.9c.32,.05,.54,.06,1.08,.06h4.06Zm.38-.13c0,.3,.24,.54,.54,.54s.54-.25,.54-.54-.24-.54-.54-.54-.54,.25-.54,.54Z"/><path class="cls-3" d="M137.47,176.75c.17,.02,.23,.02,.36,.02,.22,0,.54,0,1.43-.05q.52-.02,1.93-.06c0-.68-.02-.82-.05-1.02h.85c-.03,.24-.04,.38-.04,1.01,1.46,0,2.06-.02,2.34-.06v.78c-.29-.03-.66-.04-1.34-.04-.22,0-.35,0-.99,.02v1.47c.16,.34,.22,.66,.22,1.06,0,.86-.41,1.61-1.13,2.13-.32,.22-.68,.4-1.38,.65-.18-.38-.26-.49-.49-.74,.66-.15,.98-.28,1.35-.52,.56-.38,.85-.81,.9-1.35-.22,.43-.64,.67-1.19,.67-.81,0-1.41-.57-1.41-1.34,0-.82,.64-1.4,1.54-1.4,.37,0,.66,.1,.85,.27t0-.1v-.78c-1.28,.02-3.21,.12-3.71,.2l-.02-.8Zm2.14,2.54c0,.42,.3,.7,.73,.7,.49,0,.84-.34,.84-.81,0-.18-.05-.3-.16-.39-.14-.14-.35-.22-.59-.22-.46,0-.82,.3-.82,.71Z"/><path class="cls-3" d="M145.93,176.04c.26,.04,.41,.05,.85,.05,.73,0,1.67-.04,2.46-.1,.26-.02,.33-.03,.45-.1l.43,.6c-.12,.06-.17,.1-.41,.33-1.11,1.06-1.98,1.78-2.54,2.1l.02,.02c.68-.31,1.16-.42,1.8-.42,1.34,0,2.21,.69,2.21,1.75,0,.74-.38,1.33-1.07,1.72-.52,.29-1.16,.44-1.88,.44-.64,0-1.17-.12-1.48-.34-.3-.21-.48-.54-.48-.9,0-.61,.55-1.06,1.29-1.06,.55,0,1.04,.24,1.36,.66,.16,.21,.25,.38,.37,.74,.27-.09,.43-.17,.6-.29,.31-.23,.49-.57,.49-.95,0-.7-.62-1.13-1.64-1.13-1.17,0-2.38,.5-3.33,1.35l-.46-.71c.72-.38,2.6-1.93,3.64-2.99l.14-.14h0c-.29,.03-1.14,.09-2.36,.14-.18,0-.24,.02-.4,.04l-.04-.82Zm1.65,4.73c-.33,0-.54,.16-.54,.42,0,.35,.41,.57,1.08,.57,.16,0,.21,0,.46-.03-.16-.63-.5-.95-1-.95Z"/></g><path class="cls-4" d="M77.29,64.95c-3.3,0-6,2.7-6,6l.03,9.54c0,1.59,.63,3.09,1.74,4.23l10.23,10.23-10.23,10.29c-1.11,1.11-1.74,2.64-1.74,4.23l-.03,9.48c0,3.3,2.7,6,6,6h24c3.3,0,6-2.7,6-6v-9.48c0-1.59-.63-3.12-1.74-4.23l-10.26-10.29,10.23-10.2c1.14-1.14,1.77-2.67,1.77-4.26v-9.54c0-3.3-2.7-6-6-6h-24Zm24,44.73v6.27c0,1.65-1.35,3-3,3h-18c-1.65,0-3-1.35-3-3v-6.27c0-.81,.33-1.56,.87-2.13l11.13-11.1,11.13,11.13c.54,.54,.87,1.32,.87,2.1Z"/></svg>