<?xml version="1.0" encoding="UTF-8"?><svg id="Layer_1" xmlns="http://www.w3.org/2000/svg" viewBox="0 0 178.58 249.45"><defs><style>.cls-1,.cls-2,.cls-3{fill:#fff;}.cls-4{fill:#ffa914;}.cls-5{fill:#666;}.cls-6{fill:gray;}.cls-7{opacity:.9;}.cls-2{opacity:.7;}.cls-3{opacity:.4;}</style></defs><g><rect class="cls-1" x="3.09" y="3.09" width="172.41" height="243.27" rx="10.86" ry="10.86"/><path class="cls-4" d="M164.63,6.18c4.29,0,7.77,3.49,7.77,7.77V235.5c0,4.29-3.49,7.77-7.77,7.77H13.95c-4.29,0-7.77-3.49-7.77-7.77V13.95c0-4.29,3.49-7.77,7.77-7.77H164.63M164.63,0H13.95C6.25,0,0,6.25,0,13.95V235.5C0,243.2,6.25,249.45,13.95,249.45H164.63c7.71,0,13.95-6.25,13.95-13.95V13.95C178.58,6.25,172.34,0,164.63,0h0Z"/></g><g><path class="cls-4" d="M37.18,15.88c-1.05,0-1.5,.01-2.05,.06v-2.23c.7,.08,1.09,.1,2.09,.1h6.94c.41-.01,.61-.05,.87-.14l1.22,1.37c-.2,.19-.27,.28-.58,.81-1.3,2.19-2.34,3.45-4.02,4.85,.54,.65,.9,1.1,1.51,1.93l-1.9,1.48c-.76-1.24-1.39-2.12-2.45-3.31-1.03-1.18-1.62-1.76-2.55-2.52l1.74-1.22c1.04,.85,1.46,1.24,2.19,2.01,.72-.6,1.52-1.41,1.98-2,.32-.39,.66-.94,.81-1.23l-5.8,.03Z"/><path class="cls-4" d="M56.56,24.11c-1.1-1.39-2.22-2.5-3.64-3.6-1.19,1.41-2.7,2.52-4.66,3.47-.44-.89-.71-1.27-1.42-2,1.65-.63,2.95-1.46,4.1-2.56,1.18-1.13,1.95-2.25,2.55-3.72l-3.29,.05c-1.09,.02-1.49,.05-2.01,.13l-.06-2.25c.49,.06,.84,.09,1.33,.09,.1,0,.34,0,.71-.01l4.33-.06c.6-.01,.67-.01,1.01-.14l1.11,1.14c-.19,.19-.27,.32-.46,.75-.67,1.58-1.15,2.47-1.86,3.42,1.53,1.1,2.05,1.55,4.03,3.43l-1.77,1.88Z"/><path class="cls-4" d="M63.15,15.06c.04-.49,.06-1.23,.06-1.62,0-.27,0-.37-.04-.63l2.38,.06c-.06,.29-.06,.33-.14,1.53q-.01,.34-.04,.65h2.76c.42,0,.57-.03,.85-.14l.99,.86c-.14,.25-.17,.36-.18,.94-.09,2.71-.28,4.83-.53,5.66-.37,1.18-.98,1.58-2.38,1.58-.49,0-.68-.01-1.66-.1-.05-1.01-.14-1.43-.43-2.23,.63,.17,1.25,.25,1.65,.25,.61,0,.76-.2,.92-1.3,.13-.85,.24-2.45,.24-3.53h-2.42q-.1,.84-.19,1.27c-.56,2.56-1.76,4.21-4.33,5.9-.57-.9-.95-1.33-1.65-1.93,1.69-.89,2.66-1.79,3.29-3.07,.32-.65,.46-1.1,.63-2.17h-1.58c-.85,0-1.11,.01-1.71,.08v-2.17c.62,.09,.85,.1,1.75,.1h1.75Z"/><path class="cls-4" d="M71.53,17.25c.6,.09,1.28,.11,2.6,.11h6.06c1.27,0,1.75-.03,2.6-.11v2.44c-.61-.06-1.16-.08-2.61-.08h-6.03c-1.42,0-1.84,.01-2.61,.08v-2.44Z"/><path class="cls-4" d="M85.38,24.05c.05-.53,.06-.9,.08-1.94v-7.37c-.01-1.09-.01-1.15-.09-1.84h2.45c-.05,.33-.05,.53-.06,1.85v1.74c2,.65,3.99,1.55,5.76,2.64l-1.2,2.15c-1.05-.75-2.52-1.56-3.99-2.2-.38-.15-.42-.16-.46-.19-.04-.01-.06-.03-.11-.06v3.29c0,.94,.03,1.61,.08,1.94h-2.44Zm5.73-10.44c.49,.56,.9,1.14,1.25,1.81l-1.2,.58c-.42-.8-.75-1.27-1.25-1.85l1.2-.54Zm1.69-.76c.47,.51,.82,.99,1.27,1.76l-1.17,.57c-.44-.8-.8-1.31-1.24-1.81l1.14-.52Z"/></g><path class="cls-4" d="M13.95,0H30V16.05c0,7.7-6.25,13.95-13.95,13.95H0V13.95C0,6.25,6.25,0,13.95,0Z"/><g class="cls-7"><path class="cls-1" d="M15,19.78c-.1,0-.19-.04-.26-.11l-6.73-4.47s-.03-.1-.03-.2,.04-.19,.1-.26l6.58-4.37c.14-.13,.23-.17,.33-.17s.19,.04,.26,.11l6.73,4.49s.03,.1,.03,.2-.04,.19-.1,.26l-6.58,4.35c-.14,.13-.23,.17-.33,.17Z"/><path class="cls-1" d="M15.08,10.66h0m-.08,.07s.04,.03,.07,.05l6.36,4.23-6.36,4.21s-.05,.03-.07,.05c-.02-.02-.05-.03-.07-.05l-6.36-4.21,6.36-4.23s.05-.03,.07-.05m0-.98c-.21,0-.43,.08-.59,.24l-6.65,4.43c-.32,.32-.32,.86,0,1.18l6.65,4.41c.16,.16,.38,.24,.59,.24s.43-.08,.59-.24l6.65-4.41c.32-.32,.32-.86,0-1.18l-6.65-4.43c-.16-.16-.38-.24-.59-.24h0Z"/></g><g><path d="M19.21,160.72c.26-.53,.43-1.03,.55-1.58l1.51,.14c-.22,.58-.4,.98-.61,1.44h2.78c.7,0,1.03-.01,1.48-.06-.05,.41-.06,.73-.06,1.48v6.72c0,.71,.01,1.01,.07,1.39h-1.38v-.61h-5.92v.61h-1.36c.05-.3,.07-.83,.07-1.39v-6.72c0-.72-.01-1.06-.06-1.48,.43,.05,.77,.06,1.46,.06h1.46Zm-1.57,2.58h5.92v-1.35h-5.92v1.35Zm0,2.52h5.92v-1.37h-5.92v1.37Zm0,2.6h5.92v-1.45h-5.92v1.45Z"/><path d="M29.91,164.59c-.41,0-.71,.02-1.02,.06v-.85c-.58,.59-.88,.85-1.5,1.33-.2-.41-.49-.77-.92-1.18,1.49-1.03,2.39-2.01,3.15-3.44,.29-.53,.42-.85,.48-1.21l1.44,.52c-.12,.18-.18,.29-.32,.61-.44,.95-1.15,2.01-1.93,2.91,.32,.02,.38,.02,.62,.02h4.41c.29,0,.46,0,.74-.01-.84-.95-1.46-1.89-1.98-3.01-.05-.12-.17-.36-.25-.5l1.33-.52c.08,.31,.2,.56,.47,1.04,.79,1.44,1.82,2.52,3.32,3.48-.5,.59-.6,.72-.91,1.29-.66-.49-.96-.74-1.49-1.26v.41c0,2.48-.2,4.38-.5,5.01-.26,.53-.7,.7-1.76,.7-.24,0-.43-.01-1.23-.05-.06-.53-.14-.82-.36-1.4,.58,.1,1.1,.16,1.45,.16,.44,0,.58-.05,.68-.23,.18-.36,.37-1.94,.37-3.19v-.7h-2.3c-.1,1.25-.36,2.12-.94,3.07-.66,1.1-1.63,1.93-3.05,2.64-.23-.44-.42-.71-.88-1.17,.74-.28,1.24-.58,1.86-1.1,.84-.72,1.37-1.64,1.57-2.73,.04-.2,.05-.35,.07-.7h-.64Z"/><path d="M43.67,166.54c-.68,1.55-1.45,2.25-2.44,2.25-1.37,0-2.35-1.39-2.35-3.32,0-1.32,.47-2.55,1.32-3.49,1.01-1.1,2.42-1.68,4.13-1.68,2.88,0,4.75,1.75,4.75,4.45,0,2.08-1.08,3.73-2.91,4.47-.58,.24-1.04,.36-1.88,.5-.2-.64-.35-.9-.73-1.4,1.1-.14,1.82-.34,2.39-.66,1.04-.58,1.67-1.72,1.67-3,0-1.15-.52-2.09-1.48-2.66-.37-.22-.68-.31-1.21-.36-.23,1.88-.65,3.54-1.25,4.89Zm-1.76-4.29c-1.01,.72-1.63,1.95-1.63,3.24,0,.98,.42,1.76,.95,1.76,.4,0,.8-.5,1.24-1.54,.46-1.08,.85-2.7,1-4.05-.62,.07-1.06,.24-1.55,.59Z"/><path d="M51.86,159.45c-.05,.34-.06,.61-.06,1.32v3.69c0,1.45-.08,2.7-.25,3.65-.14,.89-.28,1.32-.6,1.97-.41-.5-.6-.7-.98-1.02,.28-.5,.44-1.02,.55-1.69,.11-.78,.2-2.16,.2-3.11v-3.49c0-.79-.01-.97-.06-1.32h1.2Zm1.55,.4c-.04,.26-.04,.55-.04,1.24v6.22c0,.58,.01,.96,.05,1.2h-1.12c.04-.31,.06-.65,.06-1.22v-6.19c0-.72-.01-.94-.05-1.25h1.09Zm4.43,8.7c-.66,.77-1.18,1.18-2.25,1.81-.18-.29-.31-.47-.54-.74,.01,.22,.01,.28,.05,.46h-1.24c.06-.35,.07-.6,.07-1.5v-7.62c0-.77-.02-1.17-.06-1.49h1.22c-.05,.32-.06,.62-.06,1.49v8.31c.77-.38,1.28-.79,1.74-1.37h-.26c-.41,0-.65,.01-.94,.04,.02-.34,.04-.7,.04-1.1v-4.07c0-.49-.01-.83-.04-1.14,.25,.02,.44,.04,1.01,.04h.65c.13-.3,.23-.55,.34-.88h-.95c-.65,0-.95,.01-1.26,.05v-1.27c.28,.05,.55,.06,1.26,.06h3.38c.67,0,1-.01,1.3-.07v1.3c-.34-.05-.67-.06-1.3-.06h-1.16c-.12,.35-.24,.65-.35,.88h1.21c.65,0,.94-.01,1.19-.04-.04,.35-.05,.62-.05,1.1v4.05c0,.43,.01,.74,.05,1.16-.36-.04-.67-.05-1.04-.05h-.31c.59,.61,1.14,.97,2.06,1.34-.26,.31-.48,.65-.71,1.12-1-.5-1.54-.92-2.42-1.85l.89-.61h-2.46l.95,.65Zm-1.02-5.12h2.79v-.66h-2.79v.66Zm0,1.69h2.79v-.67h-2.79v.67Zm0,1.69h2.79v-.71h-2.79v.71Z"/><path d="M63.41,165.5c0-.4,.01-.84,.04-1.34-.42,.65-.58,.85-.92,1.26-.11-.47-.3-.97-.54-1.44,.84-.9,1.51-2,1.99-3.29,.23-.59,.4-1.15,.46-1.58l1.38,.35c-.37,1.1-.7,1.92-1.12,2.83v6.63c0,.53,.02,.94,.08,1.39h-1.45c.06-.47,.08-.8,.08-1.4v-3.41Zm5.88,3.08c.71-1.89,1.28-4.13,1.45-5.65l1.46,.33q-.17,.61-.44,1.66c-.26,1.07-.66,2.29-1.15,3.66h1.34c.62,0,1.02-.02,1.38-.07v1.37c-.41-.06-.83-.08-1.43-.08h-5.19c-.59,0-1.06,.02-1.43,.08v-1.37c.36,.05,.76,.07,1.39,.07h2.61Zm-.77-8.33c0-.4-.02-.65-.07-.94h1.45c-.05,.25-.07,.49-.07,.94v1.02h1.82c.6,0,1.01-.02,1.37-.07v1.34c-.38-.04-.82-.06-1.38-.06h-4.67c-.66,0-1.12,.02-1.42,.06v-1.33c.35,.05,.68,.06,1.38,.06h1.58v-1.02Zm-1.2,7.86c-.35-1.86-.7-3.14-1.27-4.62l1.25-.44c.62,1.67,.91,2.72,1.33,4.7l-1.31,.36Z"/><path d="M74.51,161.48c.43,.07,.91,.11,1.61,.11,.14,0,.28,0,.55-.01,.11-.58,.23-1.5,.23-1.83,0-.05,0-.12-.01-.22l1.58,.14c-.07,.26-.08,.32-.19,.94-.02,.14-.05,.31-.08,.53-.01,.06-.04,.16-.07,.37,.78-.07,1.49-.19,2.05-.36l.06,1.38c-.06,.01-.1,.01-.11,.01l-.28,.05c-.8,.14-1.68,.25-1.97,.25-.44,2.32-1.04,4.32-2.09,7.06l-1.51-.59c.78-1.39,1.74-4.28,2.15-6.43h-1.24c-.17-.02-.38-.02-.48-.02-.06,0-.12,0-.23,.01l.02-1.39Zm5.95,4.64c-.48,.61-.62,.9-.62,1.33,0,.61,.6,.92,1.8,.92,.88,0,2.03-.19,2.72-.44l.11,1.46c-.22,.02-.28,.04-.59,.08-1,.16-1.52,.2-2.23,.2-1.07,0-1.83-.16-2.41-.48-.52-.3-.85-.88-.85-1.48,0-.64,.23-1.17,.89-2.09l1.19,.48Zm3.56-1.57c-.58-.06-.91-.08-1.51-.08-1.19,0-1.98,.08-3.17,.36l-.11-1.33c1.69-.32,2.28-.38,3.57-.38,.36,0,.64,0,1.19,.01l.02,1.43Zm-1.98-4.7c.53,.56,.85,1.02,1.26,1.76l-.84,.44c-.4-.73-.73-1.21-1.26-1.79l.84-.42Zm1.86,1.45c-.36-.66-.76-1.22-1.22-1.74l.8-.42c.54,.55,.88,1.01,1.25,1.69l-.83,.47Z"/><path d="M89.59,165.63c-.79,1.45-1.34,2.99-1.37,3.85l-1.39,.07c-.01-.17-.02-.23-.08-.46-.3-1.36-.43-2.54-.43-3.9s.07-2.06,.44-4.55c.07-.5,.08-.64,.08-.89l1.58,.16c-.14,.48-.22,.76-.35,1.46-.19,1.02-.24,1.36-.31,2.36-.06,.79-.08,1.14-.08,1.37,0,.04,0,.18,.01,.37,0,.13,0,.34,.01,.92v.22c.01,.19,.02,.26,.02,.46,.2-.66,.5-1.44,.79-1.98l1.07,.53Zm-.3-3.45c.53,.11,1.16,.16,2.14,.16,.46,0,.65-.01,1.27-.05-.07-2.11-.08-2.22-.16-2.65l1.52-.02c-.02,.19-.02,.26-.02,.41,0,.12,0,.23,.02,.77,0,.13,.02,.59,.05,1.36,.85-.13,1.38-.26,1.79-.46l.08,1.43c-.2,.02-.28,.04-.67,.12-.54,.12-.65,.14-1.16,.2,.01,.25,.01,.36,.01,.58,0,1.27-.08,2.27-.25,2.87-.26,1-.7,1.73-1.37,2.33-.37,.32-.7,.55-1.31,.91-.42-.54-.61-.72-1.16-1.13,.82-.37,1.38-.77,1.83-1.31,.62-.76,.84-1.59,.84-3.37,0-.25,0-.36-.01-.76-.41,.04-1.03,.05-1.63,.05-.34,0-.78-.01-1.09-.02-.35-.02-.4-.02-.54-.02h-.18v-1.38Z"/><path d="M96.98,163.81c.31,.05,.5,.06,.96,.06h.9c.36,0,.62-.01,.91-.06-.04,.36-.05,.67-.05,1.31v2.51c.26,.49,.47,.7,.86,.88,.54,.25,1.27,.35,2.64,.35,2.23,0,3.77-.08,4.99-.26-.22,.61-.26,.82-.36,1.42-1.07,.05-2.63,.07-4.04,.07-1.79,0-2.62-.07-3.21-.26-.61-.19-1.04-.52-1.49-1.1-.53,.5-.77,.71-1.39,1.16-.12,.08-.28,.2-.4,.31l-.59-1.37c.46-.19,1-.56,1.73-1.19v-2.58h-.66c-.34,0-.52,.01-.8,.06v-1.29Zm1.04-4.38c.86,.74,1.51,1.43,2.09,2.17l-1,.97c-.73-1-1.13-1.43-2.04-2.24l.95-.9Zm7.1,7.41h1.44c.59,0,.91-.01,1.21-.06v1.24c-.32-.05-.68-.06-1.2-.06h-4.7c-.54,0-.76,.01-1.09,.05,.04-.37,.05-.61,.05-1.21v-3.05c0-.25,0-.42,.02-.71-.24,.36-.41,.55-.73,.88-.28-.52-.43-.72-.76-1.06,1.16-1.09,1.75-1.9,2.27-3.12,.08-.19,.14-.35,.18-.53l1.37,.23q-.19,.37-.37,.77s-.13,.25-.36,.66h1.5c.37-.61,.58-1.03,.77-1.61l1.31,.23c-.08,.14-.12,.22-.29,.53-.16,.3-.28,.53-.49,.85h1.25c.52,0,.86-.01,1.19-.06v1.21c-.29-.04-.58-.05-1.02-.05h-1.54v.9h.97c.68,0,.9-.01,1.21-.05v1.12c-.34-.02-.55-.04-1.21-.04h-.97v.89h.97c.68,0,.9-.01,1.21-.05v1.12c-.34-.02-.55-.04-1.21-.04h-.97v1.02Zm-1.22-4.87h-1.82v.9h1.82v-.9Zm0,1.93h-1.82v.89h1.82v-.89Zm-1.82,1.92v1.02h1.82v-1.02h-1.82Z"/><path d="M114.87,162.04c-.13,.01-.18,.01-.36,.05-.76,.13-1.22,.19-1.79,.23-.01,.83-.01,.89-.01,1.27,.41,.35,.58,.72,.58,1.33,0,.41-.08,.77-.28,1.14-.07,.14-.12,.23-.41,.67-.3,.47-.43,.8-.43,1.09,0,.47,.58,.66,1.96,.66,.67,0,1.42-.08,1.98-.23,.65-.16,.91-.46,.91-1.03,0-.43-.07-.78-.26-1.38-.18-.56-.19-.6-.3-.84,.67,.25,.94,.31,1.61,.38q.05,.16,.11,.41t.13,.47c.11,.37,.17,.78,.17,1.2,0,.85-.3,1.43-.94,1.76-.48,.26-.96,.38-1.86,.49-.55,.07-1.2,.11-1.73,.11-1.08,0-1.98-.14-2.45-.4-.55-.3-.79-.68-.79-1.29,0-.37,.1-.67,.35-1.07h-.02c-.11,.07-.23,.11-.36,.11-.47,0-.95-.28-1.21-.7-.18-.29-.29-.73-.29-1.13,0-1.15,.92-2.09,2.07-2.09h.13c0-.08,0-.28,.01-.54v-.37h-.78c-.32,0-.58-.01-.92-.02-.12-.01-.2-.01-.26-.01-.04,0-.11,0-.19,.01v-1.32c.35,.1,.83,.13,1.67,.13h.52c0-.11,0-.2,.01-.25v-.44c0-.47-.01-.62-.06-.91h1.52c-.06,.26-.07,.34-.11,.84q-.01,.12-.01,.41c0,.11,0,.14-.01,.29,.83-.07,1.66-.22,2.05-.36l.06,1.33Zm-3.6,2.28c-.44,0-.83,.44-.83,.96,0,.47,.25,.77,.65,.77,.47,0,.85-.44,.85-1,0-.47-.19-.7-.62-.72-.02-.01-.04-.01-.05-.01Zm5.48-3.89c1.1,.82,1.93,1.64,2.73,2.71l-1.15,.92c-.65-1.02-1.73-2.16-2.66-2.81l1.08-.83Z"/></g><g><path class="cls-6" d="M19.84,179.36v-.72c0-.52,0-.62-.03-.82h.86c-.02,.19-.02,.24-.03,.54v1h.58c.53,0,.7,0,1-.06v.83c-.27-.03-.5-.04-.98-.04h-.6q-.02,1.08-.06,1.38c-.11,.99-.46,1.67-1.14,2.25-.42,.35-.79,.56-1.5,.81-.13-.29-.22-.41-.5-.7,.72-.22,1.13-.42,1.53-.77,.54-.48,.78-1.01,.85-1.95,.02-.22,.02-.5,.03-1.02h-2.21v.94c0,.42,.02,.77,.04,.97h-.9c.02-.26,.04-.57,.04-.94v-.97h-.57c-.47,0-.66,0-.98,.04v-.83c.33,.05,.49,.06,1,.06h.55v-.74c0-.28-.02-.64-.04-.81h.9c-.03,.23-.05,.51-.05,.8v.74h2.22Z"/><path class="cls-6" d="M29.19,178.25c-.14,.12-.15,.13-.36,.34-.52,.55-1.17,1.11-1.84,1.59v3.22c0,.55,.02,.81,.05,1.06h-.95c.04-.3,.05-.47,.05-1.06v-2.69c-.98,.6-1.48,.82-2.94,1.33-.14-.34-.22-.46-.45-.77,1.54-.41,2.9-1.08,4.17-2.07,.72-.56,1.27-1.11,1.5-1.5l.77,.54Z"/><path class="cls-6" d="M31.48,183.68c-.6,0-.74,0-1.02,.04v-.88c.3,.05,.45,.06,1.03,.06h3.61v-3.64h-3.46c-.6,0-.75,0-1.06,.04v-.88c.33,.05,.42,.06,1.07,.06h3.65q.4,0,.67-.02c-.02,.22-.02,.31-.02,.65v4.2c0,.4,0,.58,.04,.86h-.9v-.48h-3.63Z"/><path class="cls-6" d="M38.74,183.61v.55h-.87c.02-.22,.04-.5,.04-.98v-3.98c0-.41,0-.61-.04-.83,.39,.02,.54,.03,.99,.03h3.79c.48,0,.68,0,.97-.04-.02,.22-.03,.44-.03,.84v3.97c0,.53,0,.78,.03,.98h-.86v-.55h-4.01Zm4.01-4.45h-4.01v3.7h4.01v-3.7Z"/><path class="cls-6" d="M48.04,182.17c-.46,1.06-.95,1.52-1.58,1.52-.85,0-1.47-.89-1.47-2.1,0-.86,.3-1.66,.86-2.28,.66-.72,1.58-1.1,2.69-1.1,1.86,0,3.09,1.14,3.09,2.87,0,1.34-.7,2.41-1.9,2.9-.38,.15-.69,.24-1.23,.34-.12-.37-.19-.5-.41-.78,.62-.1,.98-.18,1.33-.33,.86-.37,1.39-1.21,1.39-2.17,0-.83-.39-1.5-1.1-1.87-.27-.14-.49-.2-.86-.22-.14,1.19-.43,2.36-.82,3.22Zm-1.1-2.83c-.73,.49-1.18,1.34-1.18,2.25,0,.7,.3,1.25,.69,1.25,.29,0,.58-.35,.9-1.08,.31-.74,.58-1.85,.69-2.81-.44,.05-.75,.15-1.1,.38Z"/><path class="cls-6" d="M55.53,178.26c0-.38-.02-.57-.06-.77h.86c-.04,.23-.06,.42-.06,.77v1.86h1.87v-1.39c0-.25,0-.42-.03-.61h.82c-.03,.23-.04,.39-.04,.66v1.59c0,.2,0,.34,.02,.47-.18-.02-.35-.02-.54-.02h-2.1v2.75h2.14v-1.41c0-.28,0-.48-.04-.68h.82c-.02,.19-.04,.42-.04,.74v1.76c0,.35,.02,.54,.05,.75h-.79v-.44h-4.93v.44h-.79c.03-.22,.05-.45,.05-.75v-1.72c0-.31,0-.53-.04-.74h.82c-.03,.18-.04,.38-.04,.69v1.37h2.04v-2.75h-1.94c-.19,0-.36,0-.55,.02,.02-.16,.02-.32,.02-.47v-1.58c0-.25-.02-.45-.04-.66h.82c-.02,.16-.03,.36-.03,.62v1.38h1.73v-1.86Z"/><path class="cls-6" d="M65.4,177.82c.38,0,.62,0,.85-.04-.02,.27-.04,.5-.04,.78v5.23c0,.4,.02,.66,.05,.93h-.81v-.49h-3.89v.49h-.81c.03-.26,.05-.51,.05-.88v-5.24c0-.32-.02-.58-.04-.82,.26,.03,.51,.04,.88,.04h3.77Zm.05,1.86v-1.16h-3.89v1.16h3.89Zm-3.89,1.87h3.89v-1.17h-3.89v1.17Zm0,1.98h3.89v-1.28h-3.89v1.28Z"/><path class="cls-6" d="M69.31,177.91c-.17,.41-.34,1.18-.44,1.95-.09,.64-.14,1.49-.15,2.18v.72h.02c.07-.35,.12-.5,.43-1.23l.55,.25c-.41,.86-.69,1.81-.69,2.33,0,.03,0,.1,0,.18l-.82,.06c0-.14-.02-.18-.04-.35-.15-.93-.21-1.52-.21-2.36,0-1.06,.1-1.93,.34-3.12,.08-.42,.1-.5,.11-.71l.89,.11Zm2.1,3.3c-.4,.46-.58,.82-.58,1.17,0,.5,.47,.76,1.38,.76,.71,0,1.4-.1,1.88-.3l.07,.86c-.1,.02-.13,.02-.3,.05-.61,.1-1.11,.15-1.65,.15-.96,0-1.58-.22-1.92-.66-.16-.2-.25-.5-.25-.78,0-.48,.23-.98,.72-1.57l.65,.32Zm-1.2-2.53c.42,.1,.75,.13,1.36,.13,.98,0,1.78-.08,2.24-.22l.04,.82c-.06,0-.1,0-.56,.06-.5,.06-1.11,.1-1.69,.1-.46,0-.82-.02-1.17-.06-.11,0-.14-.02-.22-.02v-.8Z"/><path class="cls-6" d="M77.82,178.89c.39,0,.63,0,.87-.03q-.03,.26-.04,1.19c-.02,1.54-.1,2.74-.26,3.49-.14,.74-.34,.94-.96,.94-.22,0-.55-.02-.89-.07-.02-.33-.04-.42-.13-.72,.34,.07,.64,.11,.84,.11,.26,0,.34-.06,.41-.38,.1-.38,.18-1.12,.22-1.97,.03-.74,.04-.77,.05-1.86h-.93c-.06,1.04-.16,1.73-.37,2.5-.26,1.01-.63,1.75-1.29,2.6-.18-.29-.33-.46-.56-.66,.38-.44,.55-.69,.78-1.17,.42-.86,.63-1.83,.73-3.26h-.44c-.34,0-.59,.02-.82,.05v-.79c.22,.03,.47,.05,.88,.05h.4c.02-.28,.02-.31,.02-.74,0-.31-.02-.5-.06-.7h.82q-.03,.19-.07,1.44h.78Zm2.13,5.64h-.76c.03-.22,.05-.57,.05-.91v-4.45c0-.38,0-.56-.04-.84,.23,.03,.42,.04,.71,.04h1.46c.32,0,.48,0,.71-.04-.03,.26-.04,.46-.04,.84v4.47c0,.34,.02,.6,.05,.84h-.76v-.57h-1.38v.62Zm0-1.28h1.38v-4.21h-1.38v4.21Z"/><path class="cls-6" d="M83.74,179.73c.22,.02,.26,.02,.58,.02,.69,0,2.12-.1,2.85-.19,.19-.03,.3-.06,.42-.1l.46,.58c-.15,.1-.3,.23-.7,.62-.53,.52-1.13,1.06-1.45,1.31,.28-.13,.42-.17,.63-.17,.24,0,.45,.1,.6,.29,.13,.17,.16,.3,.2,.76,.03,.41,.06,.57,.16,.68,.1,.12,.26,.17,.57,.17,.56,0,1.18-.12,1.6-.31l.1,.84c-.11,0-.12,0-.68,.1-.48,.08-.76,.1-1.13,.1-.64,0-1-.14-1.19-.48-.1-.18-.14-.33-.17-.86-.02-.31-.04-.43-.09-.53-.06-.11-.19-.18-.34-.18-.4,0-.78,.22-1.42,.85-.39,.37-.88,.87-1.16,1.2l-.62-.69c.29-.2,.41-.3,.85-.7,.81-.74,1.28-1.18,1.77-1.67,.51-.5,.58-.57,.89-.86q.16-.14,.3-.29-.61,.12-2.4,.26c-.27,.02-.3,.02-.58,.06l-.05-.82Zm.96-2.03c.9,.29,1.9,.44,3.07,.46l-.14,.74c-1.48-.1-2.1-.2-3.18-.5l.25-.7Z"/><path class="cls-6" d="M90.97,182.39c.71,.55,1.13,.98,1.72,1.74l-.66,.61c-.56-.78-1.02-1.26-1.67-1.79l.61-.55Z"/><path class="cls-6" d="M17.82,188.05c.19-.36,.3-.68,.39-1.08l.83,.1c-.15,.41-.27,.68-.42,.98h1.89c.45,0,.69,0,.98-.04-.03,.27-.04,.49-.04,.98v4.39c0,.48,0,.69,.05,.93h-.78v-.43h-4.05v.43h-.77c.03-.21,.05-.51,.05-.93v-4.39c0-.47,0-.7-.04-.98,.29,.03,.51,.04,.97,.04h.95Zm-1.16,1.7h4.06v-1.02h-4.06v1.02Zm0,1.7h4.06v-1.04h-4.06v1.04Zm0,1.77h4.06v-1.11h-4.06v1.11Z"/><path class="cls-6" d="M24.92,190.53c-.28,0-.52,.02-.74,.04v-.65c-.37,.39-.62,.62-1.06,.94-.13-.22-.29-.42-.53-.64,.98-.66,1.66-1.4,2.13-2.31,.19-.36,.28-.6,.32-.82l.82,.29c-.07,.1-.12,.19-.22,.41-.35,.75-.76,1.36-1.37,2.03,.18,.02,.4,.03,.65,.03h2.81c.32,0,.5,0,.74-.02-.59-.63-1.06-1.32-1.43-2.09-.04-.08-.13-.25-.18-.34l.75-.29c.06,.2,.13,.38,.3,.69,.55,.98,1.26,1.74,2.27,2.38-.19,.2-.33,.38-.51,.71-.48-.36-.75-.59-1.11-.96q0,.14-.02,.5c-.02,1.74-.14,2.91-.34,3.32-.16,.3-.42,.41-1.02,.41-.2,0-.36,0-.92-.04-.03-.3-.08-.46-.19-.79,.42,.07,.78,.11,1.03,.11,.3,0,.38-.04,.45-.2,.09-.26,.14-.65,.19-1.3,.03-.4,.05-.82,.05-1.13v-.26h-1.67c-.06,.86-.24,1.43-.62,2.06-.44,.73-1.09,1.29-2.03,1.76-.13-.26-.24-.4-.48-.65,.49-.2,.83-.41,1.23-.76,.58-.5,.95-1.15,1.1-1.92,.02-.15,.04-.23,.06-.5h-.46Z"/><path class="cls-6" d="M33.92,191.77c-.46,1.06-.95,1.52-1.58,1.52-.85,0-1.47-.89-1.47-2.1,0-.86,.3-1.66,.86-2.28,.66-.72,1.58-1.09,2.69-1.09,1.86,0,3.09,1.14,3.09,2.87,0,1.33-.7,2.41-1.9,2.9-.38,.15-.69,.24-1.23,.34-.12-.37-.19-.5-.41-.78,.62-.1,.98-.18,1.33-.33,.86-.37,1.39-1.21,1.39-2.17,0-.83-.39-1.5-1.1-1.87-.27-.14-.49-.2-.86-.22-.14,1.19-.43,2.36-.82,3.22Zm-1.1-2.83c-.73,.49-1.18,1.34-1.18,2.25,0,.7,.3,1.25,.69,1.25,.29,0,.58-.35,.9-1.08,.31-.74,.58-1.86,.69-2.81-.44,.05-.75,.15-1.1,.38Z"/><path class="cls-6" d="M39.36,187.2c-.03,.22-.04,.39-.04,.85v2.27c0,1.9-.17,3.01-.59,3.86-.05-.06-.09-.1-.12-.13-.23-.25-.25-.27-.45-.42,.21-.38,.33-.74,.4-1.22,.08-.56,.14-1.46,.14-2.17v-2.18c0-.46,0-.62-.04-.85h.7Zm1.02,.25c-.02,.18-.03,.36-.03,.82v4.09c0,.38,0,.62,.03,.8h-.64c.03-.22,.04-.44,.04-.82v-4.07c0-.47,0-.61-.03-.83h.63Zm2.93,5.73c-.46,.53-.78,.78-1.46,1.18-.14-.22-.26-.38-.41-.52,0,.15,0,.2,.03,.33h-.69c.03-.22,.04-.4,.04-.98v-5.02c0-.52,0-.75-.04-.97h.69c-.03,.21-.04,.4-.04,.97v5.02c0,.3,0,.43,0,.61,.58-.29,.93-.55,1.28-1.01l.58,.38Zm-.8-5.21c-.44,0-.63,0-.82,.04v-.73c.18,.03,.36,.04,.82,.04h2.32c.42,0,.65-.02,.83-.05v.74c-.21-.03-.42-.04-.83-.04h-.86c-.1,.27-.18,.51-.27,.69h.9c.41,0,.58,0,.76-.02-.02,.23-.03,.4-.03,.73v2.66c0,.31,0,.51,.03,.77-.22-.02-.43-.03-.69-.03h-2.13c-.26,0-.45,0-.65,.02,.02-.21,.02-.46,.02-.73v-2.67c0-.32,0-.55-.02-.75,.18,.02,.31,.02,.68,.02h.43c.1-.23,.18-.43,.26-.69h-.75Zm.07,1.86h2.07v-.56h-2.07v.56Zm0,1.15h2.07v-.57h-2.07v.57Zm0,1.17h2.07v-.59h-2.07v.59Zm1.81,.63c.44,.46,.81,.7,1.47,.98-.15,.18-.28,.37-.41,.62-.7-.35-1.06-.62-1.62-1.22l.56-.38Z"/><path class="cls-6" d="M47.17,191.04c0-.3,0-.61,.03-.94-.27,.44-.42,.64-.7,.98-.07-.23-.21-.53-.35-.76,.6-.63,1.07-1.41,1.42-2.29,.15-.39,.26-.8,.3-1.07l.77,.22c-.34,.97-.46,1.26-.76,1.91v4.34c0,.37,.02,.63,.06,.94h-.82c.04-.3,.06-.53,.06-.94v-2.38Zm3.85,2.27c.49-1.28,.91-2.84,1.02-3.8l.82,.21q-.11,.38-.29,1.05c-.21,.78-.5,1.7-.82,2.54h1.04c.4,0,.66-.02,.9-.05v.78c-.26-.04-.54-.06-.92-.06h-3.53c-.38,0-.66,.02-.92,.06v-.78c.23,.03,.49,.05,.9,.05h1.8Zm-.48-5.59c0-.26-.02-.43-.05-.62h.82c-.04,.17-.06,.34-.06,.62v.77h1.32c.39,0,.65-.02,.88-.05v.75c-.26-.02-.52-.04-.88-.04h-3.16c-.44,0-.71,.02-.91,.04v-.75c.23,.04,.46,.05,.9,.05h1.14v-.76Zm-.8,5.21c-.23-1.26-.46-2.11-.86-3.1l.7-.24c.41,1.1,.61,1.8,.88,3.13l-.73,.21Z"/><path class="cls-6" d="M57.53,191.77c-.46,1.06-.95,1.52-1.58,1.52-.85,0-1.47-.89-1.47-2.1,0-.86,.3-1.66,.86-2.28,.66-.72,1.58-1.09,2.69-1.09,1.86,0,3.09,1.14,3.09,2.87,0,1.33-.7,2.41-1.9,2.9-.38,.15-.69,.24-1.23,.34-.12-.37-.19-.5-.41-.78,.62-.1,.98-.18,1.33-.33,.86-.37,1.39-1.21,1.39-2.17,0-.83-.39-1.5-1.1-1.87-.27-.14-.49-.2-.86-.22-.14,1.19-.43,2.36-.82,3.22Zm-1.1-2.83c-.73,.49-1.18,1.34-1.18,2.25,0,.7,.3,1.25,.69,1.25,.29,0,.58-.35,.9-1.08,.31-.74,.58-1.86,.69-2.81-.44,.05-.75,.15-1.1,.38Z"/><path class="cls-6" d="M65.37,188.6c.26,0,.42,0,.53-.02v.62c-.13-.02-.27-.02-.53-.02h-.65c.21,.24,.47,.44,.82,.62-.18,.19-.19,.21-.4,.54-.42-.34-.54-.46-.8-.85,.02,.16,.02,.28,.02,.35v.36c0,.1,0,.22,.02,.31h-.71c.02-.1,.03-.2,.03-.29v-.36c0-.09,0-.22,.02-.37-.49,.66-.7,.88-1.38,1.35-.14-.23-.24-.35-.45-.54,.7-.38,1.05-.68,1.39-1.14h-.58c-.28,0-.48,0-.65,.04v-.66c.18,.03,.35,.04,.66,.04h.99v-.99c0-.22,0-.37-.04-.54h.73c-.02,.15-.03,.3-.03,.53v1h1Zm-.32,5.29c-.32-.24-.44-.32-.8-.51-.53,.47-.98,.7-1.92,1-.1-.24-.2-.41-.35-.62,.71-.17,1.22-.38,1.66-.7-.37-.17-.59-.26-1.2-.48,.26-.36,.34-.47,.54-.82h-.34c-.28,0-.43,0-.6,.04v-.68c.16,.03,.31,.04,.6,.04h.65c.09-.19,.13-.3,.22-.59l.7,.14c-.1,.23-.12,.3-.19,.45h1.34c.28,0,.43,0,.58-.04v.68c-.17-.03-.33-.04-.62-.04h-.06c-.16,.51-.27,.74-.54,1.11,.34,.16,.42,.2,.73,.4l-.39,.62Zm-2.21-6.7c.3,.42,.41,.64,.58,1.05l-.58,.23c-.17-.44-.3-.7-.56-1.06l.57-.22Zm.85,4.57c-.1,.18-.16,.27-.33,.54,.38,.14,.51,.19,.76,.3,.22-.29,.34-.5,.43-.84h-.86Zm2.13-4.34c-.29,.58-.38,.74-.64,1.11l-.58-.26c.28-.36,.46-.69,.61-1.1l.61,.26Zm3.52,1.76c-.17-.02-.3-.03-.62-.03-.05,.82-.1,1.19-.25,1.74-.15,.53-.34,.97-.59,1.41,.47,.62,.94,1,1.62,1.36-.16,.2-.25,.36-.41,.7-.66-.38-1.15-.82-1.65-1.46-.5,.6-1.08,1.06-1.85,1.49-.13-.26-.23-.42-.44-.63,.86-.42,1.42-.85,1.89-1.45-.38-.66-.58-1.22-.74-2.05-.16,.27-.25,.41-.45,.66-.16-.21-.3-.34-.5-.47,.53-.63,.91-1.46,1.16-2.46,.09-.35,.15-.7,.16-.94l.75,.15q-.03,.1-.1,.39c-.1,.43-.17,.65-.25,.92h1.5c.38,0,.54,0,.75-.05v.72Zm-2.49-.03c-.04,.1-.05,.14-.1,.23,.14,.92,.35,1.59,.71,2.27,.37-.71,.53-1.42,.58-2.5h-1.19Z"/><path class="cls-6" d="M71.58,188.69c.1-.5,.17-1.05,.17-1.29,0-.02,0-.06,0-.11l.89,.08q-.06,.18-.15,.76c-.04,.24-.05,.32-.09,.53,.61-.06,1.02-.14,1.39-.26l.04,.77-.24,.04c-.38,.08-.94,.15-1.33,.18-.1,.54-.31,1.42-.52,2.15-.24,.83-.43,1.38-.9,2.57l-.84-.34c.57-1.03,1.15-2.77,1.46-4.35-.07,0-.48,0-.65,0l-.69-.02v-.78c.3,.06,.53,.07,.99,.07h.47Zm2.36,2.96c-.21,.26-.27,.34-.33,.46-.06,.14-.1,.3-.1,.42,0,.42,.46,.65,1.28,.65,.59,0,1.33-.12,1.79-.29l.06,.83c-.13,.02-.18,.02-.38,.06-.63,.1-1,.14-1.46,.14-.68,0-1.18-.1-1.54-.3-.34-.2-.56-.56-.56-.97,0-.38,.14-.7,.58-1.28l.66,.28Zm2.41-1.18c-.38-.04-.61-.06-.98-.06-.76,0-1.28,.06-2.06,.25l-.06-.74c1.06-.22,1.46-.26,2.27-.26h.82l.02,.81Zm-1.22-3.02c.38,.42,.55,.68,.83,1.2l-.5,.27c-.26-.5-.49-.83-.83-1.22l.5-.25Zm.94-.46c.38,.42,.55,.66,.82,1.17l-.49,.28c-.25-.46-.47-.8-.82-1.2l.48-.25Z"/><path class="cls-6" d="M79.22,187.52c-.28,.84-.49,2.37-.49,3.52,0,.1,.02,.58,.06,1.42,.14-.47,.3-.88,.58-1.46l.59,.29c-.52,.99-.86,1.98-.88,2.51l-.77,.04c-.02-.1-.02-.14-.06-.29-.2-.84-.3-1.63-.3-2.52s.07-1.62,.3-3.04c.05-.28,.06-.35,.06-.58l.9,.1Zm.66,1.54c.34,.07,.74,.1,1.4,.1,.33,0,.52,0,.91-.04-.06-1.45-.06-1.54-.1-1.8l.86-.02c-.02,.12-.02,.18-.02,.26,0,.07,0,.11,.02,.55,0,.1,.02,.4,.03,.93,.57-.09,.94-.18,1.23-.32l.04,.79c-.13,.02-.16,.02-.43,.09-.37,.09-.46,.1-.82,.14,0,.18,0,.27,0,.37,0,.79-.05,1.49-.14,1.83-.24,1.05-.7,1.62-1.78,2.25-.22-.3-.33-.4-.64-.62,.73-.34,1.21-.75,1.48-1.28,.22-.46,.3-.92,.3-2.05,0-.1,0-.17,0-.42-.26,.02-.77,.04-1.15,.04-.25,0-.47,0-.92-.02-.06,0-.1,0-.14,0h-.12v-.78Z"/><path class="cls-6" d="M85.26,188.78c.22,.03,.42,.04,.73,.04,.63,0,1.66-.07,2.23-.16-.03-.1-.04-.11-.15-.36-.07-.18-.18-.46-.29-.73-.05-.11-.06-.14-.11-.23l.87-.12c.04,.26,.19,.69,.47,1.34,.83-.14,1.54-.32,1.94-.49l.1,.8c-.19,.03-.26,.05-.53,.11-.58,.13-.59,.14-1.24,.26,.26,.51,.45,.86,.54,1.02,.24,.39,.57,.89,.86,1.28l-.77,.38c-.2-.18-.32-.26-.55-.34-.38-.13-.79-.19-1.31-.19-.63,0-1.09,.1-1.43,.3-.24,.15-.39,.41-.39,.67,0,.56,.63,.88,1.75,.88,.83,0,1.73-.2,2.35-.53l.11,.86c-.91,.3-1.66,.43-2.44,.43-1.07,0-1.85-.23-2.24-.66-.23-.26-.36-.59-.36-.95,0-.51,.29-.98,.79-1.29,.46-.27,.97-.39,1.71-.39,.64,0,1.13,.08,1.52,.25l-.07-.1c-.24-.34-.47-.71-.74-1.25-.07-.14-.09-.17-.14-.26-.78,.11-1.77,.18-2.84,.2-.18,0-.21,0-.34,.02l-.06-.8Z"/><path class="cls-6" d="M93.77,188.81c-.11,.44-.23,1.1-.37,2.05-.02,.14-.02,.18-.06,.28,.5-.5,1.51-.83,2.51-.83,1.33,0,2.2,.64,2.2,1.62,0,.58-.3,1.14-.79,1.48-.53,.36-1.18,.53-2.05,.53-.69,0-1.11-.06-2.03-.29,0-.4-.02-.54-.09-.86,.72,.26,1.43,.4,2.1,.4,1.18,0,2.01-.5,2.01-1.24,0-.58-.54-.93-1.43-.93-.99,0-2.01,.4-2.43,.96l-.86-.02c.02-.14,.02-.18,.06-.47,.08-.58,.18-1.3,.34-2.28,.03-.18,.04-.28,.06-.45l.83,.05Zm.21-1.49c.52,.3,2.01,.75,2.87,.89l-.28,.76c-1.42-.34-2.05-.55-2.98-.98l.39-.66Z"/><path class="cls-6" d="M100.82,187.51c-.17,.41-.34,1.18-.44,1.95-.09,.64-.14,1.49-.15,2.18v.72h.02c.07-.35,.12-.5,.43-1.23l.55,.25c-.41,.86-.69,1.81-.69,2.33,0,.03,0,.1,0,.18l-.82,.06c0-.14-.02-.18-.04-.35-.15-.93-.21-1.52-.21-2.36,0-1.06,.1-1.93,.34-3.12,.08-.42,.1-.5,.11-.71l.89,.11Zm2.1,3.3c-.4,.46-.58,.82-.58,1.17,0,.5,.47,.76,1.38,.76,.71,0,1.4-.1,1.88-.3l.07,.86c-.1,.02-.13,.02-.3,.05-.61,.1-1.11,.15-1.65,.15-.96,0-1.58-.22-1.92-.66-.16-.2-.25-.5-.25-.78,0-.48,.23-.98,.72-1.57l.65,.32Zm-1.2-2.54c.42,.1,.75,.13,1.36,.13,.98,0,1.78-.08,2.24-.22l.04,.82c-.06,0-.1,0-.56,.06-.5,.06-1.11,.1-1.7,.1-.46,0-.82-.02-1.17-.06-.11,0-.14-.02-.22-.02v-.8Z"/><path class="cls-6" d="M106.54,190.13c.2,.03,.34,.04,.63,.04h.52c.23,0,.42,0,.61-.04-.02,.25-.03,.45-.03,.86v1.62c.18,.36,.33,.51,.63,.65,.38,.17,.86,.23,1.78,.23,1.49,0,2.48-.05,3.27-.17-.13,.34-.16,.46-.22,.8-.75,.03-1.71,.05-2.61,.05-1.46,0-1.96-.06-2.42-.27-.3-.14-.55-.36-.78-.69-.35,.34-.53,.49-.95,.8-.06,.05-.17,.14-.26,.22l-.34-.75c.32-.14,.73-.43,1.21-.86v-1.81h-.47c-.25,0-.37,0-.56,.04v-.73Zm.64-2.93c.55,.49,.97,.94,1.34,1.43l-.56,.53c-.47-.66-.72-.94-1.31-1.48l.53-.48Zm4.66,5h1.05c.39,0,.6,0,.79-.04v.7c-.23-.03-.46-.04-.78-.04h-3.1c-.32,0-.47,0-.69,.03,.02-.24,.03-.43,.03-.81v-2.05c0-.2,0-.36,.02-.56-.18,.28-.31,.44-.56,.69-.18-.28-.26-.38-.46-.56,.79-.74,1.21-1.33,1.54-2.18,.05-.13,.08-.22,.1-.34l.76,.15q-.05,.1-.16,.35c-.1,.2-.16,.33-.34,.66h1.13c.27-.45,.41-.74,.53-1.12l.74,.14c-.06,.08-.06,.11-.21,.39-.12,.23-.18,.35-.34,.58h.93c.34,0,.58-.02,.78-.04v.69c-.21-.02-.39-.03-.69-.03h-1.07v.7h.72c.43,0,.59,0,.8-.03v.66c-.22-.02-.39-.03-.8-.03h-.72v.7h.72c.43,0,.59,0,.8-.03v.66c-.22-.02-.39-.03-.8-.03h-.72v.8Zm-.67-3.39h-1.34v.7h1.34v-.7Zm0,1.29h-1.34v.7h1.34v-.7Zm-1.34,1.3v.8h1.34v-.8h-1.34Z"/><path class="cls-6" d="M114.76,188.29c.22,.06,.49,.08,1.06,.08h.41q0-.39,0-.55c0-.29,0-.36-.03-.54h.85q-.06,.28-.08,1.06c.6-.05,1.13-.14,1.42-.25l.03,.74c-.09,0-.12,0-.24,.03-.46,.08-.86,.14-1.22,.16-.02,.62-.02,.78-.02,.93,.26,.22,.37,.46,.37,.85,0,.26-.06,.5-.18,.74-.05,.1-.06,.11-.27,.46-.22,.36-.3,.57-.3,.78,0,.18,.09,.3,.28,.38,.22,.08,.6,.13,1.11,.13,.62,0,1.29-.1,1.6-.23,.3-.13,.42-.31,.42-.62,0-.4-.16-.99-.41-1.48,.35,.1,.5,.14,.89,.17,.02,.05,.07,.22,.17,.53,.11,.34,.15,.59,.15,.9,0,.5-.19,.86-.57,1.07-.3,.18-.62,.26-1.19,.34-.36,.05-.79,.07-1.14,.07-.8,0-1.35-.1-1.69-.32-.29-.18-.42-.42-.42-.77,0-.27,.07-.48,.28-.8-.11,.08-.2,.1-.34,.1-.55,0-.96-.49-.96-1.14,0-.74,.58-1.35,1.31-1.35,.02,0,.07,0,.15,0,0-.15,0-.17,0-.35,0-.18,0-.22,0-.36-.21,0-.49,0-.58,0-.22,0-.36,0-.61-.02-.07,0-.13,0-.16,0-.02,0-.06,0-.12,0v-.74Zm.7,2.8c0,.3,.19,.51,.46,.51,.35,0,.63-.33,.63-.74,0-.34-.17-.52-.46-.52-.37,0-.63,.31-.63,.74Zm4.17-3.17c.74,.53,1.29,1.06,1.82,1.74l-.63,.53c-.42-.65-1.16-1.39-1.77-1.8l.58-.46Z"/><path class="cls-6" d="M16.66,202.94c0,.44,0,.66,.04,.98h-.76c.03-.3,.05-.55,.05-.97v-2.21c0-.42,0-.62,.02-1.04-.22,.42-.34,.61-.6,.94-.11-.35-.2-.54-.34-.74,.73-.83,1.33-2.13,1.52-3.26l.7,.25c-.04,.1-.1,.28-.13,.38-.12,.45-.26,.81-.51,1.35v4.32Zm1.66-3.63c-.27,.76-.6,1.34-1.12,1.98-.14-.26-.26-.44-.42-.62,.7-.8,1.08-1.67,1.25-2.93h-.06c-.29,0-.42,0-.63,.03v-.7c.21,.03,.4,.04,.74,.04h1.24c.37,0,.58,0,.78-.04v.7c-.19-.02-.36-.03-.66-.03h-.75c-.06,.45-.1,.62-.18,.94h.62c.3,0,.46,0,.61-.03l.21,.27c-.02,.1-.02,.1-.04,.29-.11,1.05-.42,2.08-.86,2.85-.4,.7-.93,1.3-1.65,1.88-.17-.24-.29-.37-.51-.56,.82-.58,1.32-1.13,1.76-1.98-.22-.26-.38-.42-.74-.75l.34-.55c.36,.33,.49,.46,.68,.66,.18-.49,.25-.78,.34-1.46h-.94Zm4.05,3.8c0,.59-.21,.74-1.09,.74-.22,0-.4,0-.79-.02-.04-.29-.08-.44-.19-.7,.38,.05,.76,.07,.98,.07,.37,0,.42-.02,.42-.21v-5.35c0-.4,0-.58-.05-.86h.76c-.03,.22-.05,.46-.05,.86v5.47Zm-2.06-1.1c.03-.2,.04-.42,.04-.74v-3.33c0-.31,0-.49-.04-.74h.74c-.03,.22-.04,.38-.04,.74v3.32c0,.36,0,.54,.03,.74h-.74Z"/><path class="cls-6" d="M25.5,199.08h-1.02v-1.02h1.02v1.02Zm-1.02,3.46v-1.01h1.02v1.01h-1.02Z"/><path class="cls-6" d="M28.3,201.76c.1,.37,.2,.52,.42,.69,.27,.2,.6,.3,1,.3,.84,0,1.38-.43,1.38-1.11,0-.72-.52-1.11-1.47-1.11-.3,0-.52,0-.78,.04v-.85c.19,.03,.44,.05,.64,.05,.41,0,.78-.08,.98-.22,.3-.19,.45-.49,.45-.85,0-.62-.42-.94-1.21-.94-.44,0-.76,.14-.97,.4-.11,.14-.16,.26-.23,.52l-.95-.18c.14-.45,.26-.67,.52-.92,.39-.38,.97-.58,1.69-.58,1.26,0,2.08,.65,2.08,1.65,0,.49-.21,.92-.56,1.18-.19,.14-.36,.21-.76,.3,.55,.07,.86,.21,1.14,.51,.26,.29,.38,.63,.38,1.1,0,.43-.18,.86-.47,1.15-.42,.41-1.06,.62-1.86,.62-.88,0-1.51-.23-1.94-.71-.19-.22-.29-.42-.43-.85l.95-.2Z"/><path class="cls-6" d="M33.69,200.64c0-.3,0-.61,.03-.94-.27,.44-.42,.64-.7,.98-.07-.23-.21-.53-.35-.76,.6-.63,1.07-1.41,1.42-2.29,.15-.39,.26-.8,.3-1.07l.77,.22c-.34,.98-.46,1.26-.76,1.91v4.34c0,.37,.02,.63,.06,.94h-.82c.04-.3,.06-.53,.06-.94v-2.38Zm3.85,2.27c.49-1.28,.91-2.84,1.02-3.8l.82,.21q-.11,.38-.29,1.05c-.21,.78-.5,1.7-.82,2.54h1.04c.4,0,.66-.02,.9-.05v.78c-.26-.04-.54-.06-.92-.06h-3.53c-.38,0-.66,.02-.92,.06v-.78c.23,.03,.49,.05,.9,.05h1.8Zm-.48-5.59c0-.26-.02-.43-.05-.62h.82c-.04,.17-.06,.34-.06,.62v.77h1.32c.39,0,.65-.02,.88-.05v.75c-.26-.02-.52-.04-.88-.04h-3.16c-.44,0-.71,.02-.91,.04v-.75c.23,.04,.46,.05,.9,.05h1.14v-.76Zm-.8,5.21c-.23-1.26-.46-2.11-.86-3.1l.7-.24c.41,1.1,.61,1.8,.88,3.13l-.73,.21Z"/><path class="cls-6" d="M40.84,197.86c.13,0,.22,0,.31,0,.14,0,.26,0,.46-.02,.92-.06,2.84-.17,4.72-.26,.55-.02,.79-.05,.93-.08l.06,.85c-.06,0-.1,0-.14,0-.45,0-1.01,.14-1.5,.38-1.09,.54-1.76,1.41-1.76,2.27,0,.63,.4,1.14,1.09,1.38,.37,.12,.9,.22,1.18,.22,.03,0,.08,0,.14,0l-.12,.9c-.1-.02-.14-.02-.26-.04-.87-.13-1.33-.28-1.81-.57-.67-.41-1.03-1.05-1.03-1.82s.35-1.46,1.05-2.11c.31-.3,.5-.42,.96-.64-.56,.08-.88,.11-1.73,.17-1.39,.1-2.07,.17-2.49,.25l-.05-.89Zm5.48,1.42c.38,.42,.55,.68,.83,1.2l-.5,.27c-.26-.5-.49-.83-.83-1.22l.5-.25Zm.94-.46c.38,.42,.55,.66,.82,1.17l-.49,.28c-.25-.46-.47-.8-.82-1.2l.48-.25Z"/><path class="cls-6" d="M48.69,201.12q.19-.21,.59-.69l1.94-2.4c.32-.39,.45-.57,.63-.86h.9c-.05,.46-.06,.74-.06,1.35v2.62h.3c.33,0,.52-.02,.82-.06v.88c-.3-.04-.49-.06-.82-.06h-.3v.62c0,.4,.02,.61,.06,.9h-.98c.06-.27,.07-.52,.07-.9v-.61h-2.18c-.46,0-.7,0-.98,.03v-.83Zm3.17-1.76c0-.4,0-.66,.04-1.01-.16,.23-.28,.38-.55,.74l-1.66,2.07h2.17v-1.8Z"/><path class="cls-6" d="M55.11,198.88c.29,0,1.06-.08,1.73-.18,.14-.75,.22-1.38,.22-1.64,0-.03,0-.08,0-.14l.88,.09c-.02,.1-.04,.16-.06,.26l-.19,1.06c-.03,.18-.03,.2-.06,.3,.22-.02,.34-.02,.52-.02,.51,0,.88,.13,1.13,.39,.28,.29,.38,.66,.38,1.37,0,1.32-.22,2.4-.58,2.85-.22,.26-.45,.36-.85,.36-.33,0-.68-.08-1.22-.26,.02-.14,.02-.24,.02-.3,0-.15,0-.28-.06-.55,.43,.2,.9,.34,1.17,.34,.26,0,.4-.18,.53-.62,.13-.42,.21-1.18,.21-1.87,0-.75-.22-.99-.88-.99-.17,0-.3,0-.51,.03-.32,1.33-.63,2.22-1.14,3.29-.06,.13-.24,.48-.53,1.05l-.78-.43c.24-.3,.56-.88,.83-1.48,.35-.78,.54-1.32,.82-2.37-.62,.08-1.2,.18-1.51,.27l-.08-.8Zm5.36-.73c.81,.92,1.3,1.81,1.66,3l-.75,.39c-.15-.64-.34-1.15-.66-1.74-.3-.57-.55-.92-.93-1.32l.67-.34Zm.29-1.37c.38,.42,.55,.68,.83,1.2l-.5,.27c-.26-.5-.49-.83-.83-1.22l.5-.25Zm.94-.46c.38,.42,.55,.66,.82,1.17l-.49,.28c-.25-.46-.47-.8-.82-1.2l.48-.25Z"/><path class="cls-6" d="M65.88,197.46c0-.38-.02-.57-.06-.77h.86c-.04,.23-.06,.42-.06,.77v1.86h1.87v-1.39c0-.25,0-.42-.03-.61h.82c-.03,.23-.04,.39-.04,.66v1.59c0,.2,0,.34,.02,.47-.18-.02-.35-.02-.54-.02h-2.1v2.75h2.14v-1.41c0-.28,0-.48-.04-.68h.82c-.02,.19-.04,.42-.04,.74v1.76c0,.35,.02,.54,.05,.75h-.79v-.44h-4.93v.44h-.79c.03-.22,.05-.45,.05-.75v-1.72c0-.31,0-.53-.04-.74h.82c-.03,.18-.04,.38-.04,.69v1.37h2.04v-2.75h-1.94c-.19,0-.36,0-.55,.02,.02-.16,.02-.32,.02-.47v-1.58c0-.25-.02-.45-.04-.66h.82c-.02,.16-.03,.36-.03,.62v1.38h1.73v-1.86Z"/><path class="cls-6" d="M70.7,198.13c.3,.06,.52,.07,.98,.07,.18,0,.3,0,.47,0,.1-.5,.17-1.05,.17-1.29,0-.02,0-.06,0-.11l.89,.08q-.06,.18-.15,.76c-.04,.24-.05,.32-.09,.53,.61-.06,1.02-.14,1.39-.26l.04,.77q-.06,0-.24,.04c-.38,.08-.94,.15-1.33,.18-.1,.54-.31,1.42-.52,2.15-.24,.83-.43,1.38-.9,2.57l-.84-.34c.57-1.03,1.15-2.77,1.46-4.35-.07,0-.48,0-.65,0-.06,0-.12,0-.23,0-.12,0-.26,0-.37,0h-.09v-.78Zm3.82,3.03c-.21,.26-.27,.34-.33,.46-.06,.14-.1,.3-.1,.42,0,.42,.45,.65,1.28,.65,.59,0,1.34-.12,1.79-.29l.06,.83c-.13,.02-.18,.02-.38,.06-.63,.1-1,.14-1.46,.14-.68,0-1.18-.1-1.54-.3-.35-.2-.56-.56-.56-.97,0-.38,.14-.7,.58-1.28l.66,.28Zm2.41-1.18c-.38-.04-.61-.05-.98-.05-.76,0-1.28,.06-2.06,.24l-.06-.74c1.06-.21,1.46-.26,2.27-.26,.22,0,.35,0,.82,0l.02,.8Z"/><path class="cls-6" d="M81.28,201.44c-.31,.3-.6,.52-1.02,.76-.08-.14-.12-.19-.29-.38-.26,.14-1.02,.47-1.33,.59-.22,.09-.42,.18-.46,.2l-.15-.79c.31-.06,.42-.09,.94-.27v-2.25h-.28c-.24,0-.44,.02-.64,.04v-.73c.2,.03,.38,.04,.66,.04h.26v-1.04c0-.39-.02-.64-.05-.88h.79c-.04,.26-.05,.48-.05,.89v1.03h.16c.29,0,.46,0,.61-.03v.71c-.22-.02-.38-.03-.6-.03h-.17v1.98c.23-.1,.32-.14,.57-.27v.5c.5-.32,.87-.66,1.1-1.06h-.3c-.34,0-.57,.02-.74,.04v-.68c.18,.03,.38,.04,.74,.04h3.46c.38,0,.62-.02,.82-.05v.68c-.2-.02-.46-.03-.82-.03h-2.44c-.1,.17-.14,.23-.29,.43h2.59c.38,0,.56,0,.78-.03-.02,.13-.02,.15-.04,.48-.06,1.08-.19,1.89-.36,2.19-.16,.3-.39,.39-.98,.39-.22,0-.45,0-.7-.02-.03-.29-.09-.46-.22-.71,.39,.06,.69,.08,.94,.08,.22,0,.34-.05,.39-.14,.1-.23,.2-.87,.25-1.66h-.39c-.21,.47-.46,.89-.77,1.24-.25,.28-.68,.67-1.01,.91-.2,.14-.35,.24-.68,.42-.18-.25-.24-.32-.5-.51,.68-.33,1.01-.54,1.44-.94,.34-.31,.62-.69,.82-1.13h-.61c-.48,.76-1.18,1.34-2.21,1.85-.12-.2-.22-.33-.44-.51,.89-.37,1.54-.82,1.92-1.33h-.72Zm.23-2.02c-.31,0-.55,0-.73,.03,.02-.22,.03-.44,.03-.75v-1.11c0-.35,0-.48-.03-.72,.24,.03,.43,.04,.79,.04h2.24c.38,0,.62,0,.85-.04-.03,.22-.03,.38-.03,.77v1.06c0,.35,0,.58,.03,.74-.18-.02-.41-.02-.73-.02h-2.42Zm0-1.5h2.43v-.43h-2.43v.43Zm0,.97h2.43v-.45h-2.43v.45Z"/><path class="cls-6" d="M87.74,199.15c-.56,.37-.87,.54-1.44,.81-.09-.25-.19-.42-.42-.67,.75-.3,1.46-.73,2.09-1.25,.56-.46,.91-.84,1.24-1.36h.82c.34,.53,.7,.9,1.33,1.39,.66,.51,1.33,.89,2.1,1.18-.18,.26-.27,.43-.38,.73-.58-.27-.9-.46-1.48-.85v.64c-.19-.02-.41-.03-.7-.03h-2.5c-.23,0-.46,0-.66,.03v-.62Zm-.71,4.77c.03-.24,.05-.48,.05-.81v-1.83c0-.31-.02-.54-.04-.77,.17,.02,.36,.03,.66,.03h3.89c.3,0,.5,0,.67-.03-.03,.22-.04,.44-.04,.77v1.83c0,.34,0,.56,.05,.81h-.8v-.42h-3.64v.42h-.8Zm.8-1.07h3.64v-1.65h-3.64v1.65Zm3.07-3.79c.25,0,.38,0,.55-.02-.83-.6-1.3-1.04-1.81-1.73-.53,.74-.96,1.17-1.74,1.73,.17,0,.3,.02,.51,.02h2.49Z"/><path class="cls-6" d="M94.59,201.59c.71,.55,1.13,.98,1.72,1.74l-.66,.61c-.56-.78-1.02-1.26-1.67-1.79l.61-.55Z"/><path class="cls-6" d="M103.39,197.93c-.21,.19-.39,.44-.74,1-.63,1.02-.98,1.78-1.26,2.79-.16,.58-.24,.94-.34,1.72h-1.06c.28-1.48,.5-2.17,.97-3.15,.4-.82,.74-1.38,1.42-2.3h-2.53c-.44,0-.66,.02-.98,.06v-.91c.34,.04,.58,.06,1.02,.06h2.49c.55,0,.74,0,1.02-.04v.78Z"/><path class="cls-6" d="M106.31,199.56c.46,.37,.72,.61,1.05,.94l.49,.49c.38-.31,.77-.69,1.06-1,.38-.42,.88-1.07,1.12-1.48t.04-.06s0-.02,.02-.04c-.08,0-.17,.02-.32,.02h-3.93c-.51,0-.7,0-1.07,.04v-.86c.32,.04,.58,.06,1.09,.06h4.45c.31,0,.41,0,.58-.06l.46,.54c-.1,.11-.16,.18-.34,.46-.75,1.2-1.64,2.22-2.61,3.01,.3,.34,.65,.78,1.1,1.39l-.7,.56c-.43-.68-.86-1.23-1.54-1.98-.59-.66-1.01-1.05-1.59-1.53l.64-.47Z"/><path class="cls-6" d="M118.05,203.59c-.63-.8-1.51-1.64-2.49-2.42-.93,1.05-1.8,1.72-3.05,2.34-.18-.34-.26-.45-.54-.74,.62-.24,1-.46,1.61-.89,1.23-.89,2.22-2.11,2.76-3.4q.02-.07,.05-.12s.02-.03,.03-.07c-.1,0-.14,0-.25,0l-2.32,.04c-.5,0-.65,.02-1.02,.06l-.02-.87c.27,.03,.47,.05,.82,.05h.22l2.66-.04c.38,0,.46-.02,.63-.08l.45,.47c-.1,.1-.16,.22-.24,.41-.38,.89-.79,1.59-1.28,2.21,1.01,.73,1.65,1.29,2.66,2.31l-.66,.74Z"/><path class="cls-6" d="M119.44,199.73c.2,.03,.34,.04,.63,.04h.52c.23,0,.42,0,.61-.04-.02,.25-.03,.45-.03,.86v1.62c.18,.36,.33,.51,.63,.65,.38,.17,.86,.23,1.78,.23,1.49,0,2.48-.05,3.27-.17-.13,.34-.16,.46-.22,.8-.75,.03-1.71,.05-2.61,.05-1.46,0-1.96-.06-2.42-.27-.3-.14-.55-.36-.78-.69-.35,.34-.53,.49-.95,.8-.06,.05-.17,.14-.26,.22l-.34-.75c.32-.14,.73-.43,1.21-.86v-1.81h-.47c-.25,0-.37,0-.56,.04v-.73Zm.64-2.93c.55,.49,.97,.94,1.34,1.43l-.56,.53c-.47-.66-.72-.94-1.31-1.48l.53-.48Zm4.66,5h1.05c.39,0,.6,0,.79-.04v.7c-.23-.03-.46-.04-.78-.04h-3.1c-.32,0-.47,0-.69,.03,.02-.24,.03-.43,.03-.81v-2.05c0-.2,0-.36,.02-.56-.18,.28-.31,.44-.56,.69-.18-.28-.26-.38-.46-.56,.79-.74,1.21-1.33,1.54-2.18,.05-.13,.08-.22,.1-.34l.76,.15q-.05,.1-.16,.35c-.1,.2-.16,.33-.34,.66h1.14c.27-.45,.41-.74,.53-1.12l.74,.14c-.06,.08-.06,.11-.21,.39-.12,.23-.18,.35-.34,.58h.93c.34,0,.58-.02,.78-.04v.69c-.21-.02-.39-.03-.69-.03h-1.07v.7h.72c.43,0,.59,0,.8-.03v.66c-.22-.02-.39-.03-.8-.03h-.72v.7h.72c.43,0,.59,0,.8-.03v.66c-.22-.02-.39-.03-.8-.03h-.72v.8Zm-.67-3.39h-1.34v.7h1.34v-.7Zm0,1.29h-1.34v.7h1.34v-.7Zm-1.34,1.29v.8h1.34v-.8h-1.34Z"/><path class="cls-6" d="M127.66,197.89c.22,.06,.49,.08,1.06,.08h.41q0-.39,0-.55c0-.29,0-.36-.03-.54h.85q-.06,.28-.08,1.06c.6-.05,1.13-.14,1.42-.25l.03,.74c-.09,0-.12,0-.24,.03-.46,.08-.86,.14-1.22,.16-.02,.62-.02,.78-.02,.93,.26,.22,.37,.46,.37,.85,0,.26-.06,.5-.18,.74-.05,.1-.06,.11-.27,.46-.22,.36-.3,.57-.3,.78,0,.18,.09,.3,.28,.38,.22,.08,.6,.13,1.11,.13,.62,0,1.29-.1,1.6-.23,.3-.13,.42-.31,.42-.62,0-.4-.16-.99-.41-1.48,.35,.1,.5,.14,.89,.17,.02,.05,.07,.22,.17,.53,.11,.34,.15,.59,.15,.9,0,.5-.19,.86-.57,1.07-.3,.18-.62,.26-1.19,.34-.36,.05-.79,.07-1.14,.07-.8,0-1.35-.1-1.69-.32-.29-.18-.42-.42-.42-.77,0-.27,.07-.48,.28-.8-.11,.08-.2,.1-.34,.1-.55,0-.96-.49-.96-1.14,0-.74,.58-1.35,1.31-1.35,.02,0,.07,0,.15,0,0-.15,0-.17,0-.35,0-.18,0-.22,0-.36-.21,0-.49,0-.58,0-.22,0-.36,0-.61-.02-.07,0-.13,0-.16,0-.02,0-.06,0-.12,0v-.74Zm.7,2.8c0,.3,.19,.51,.46,.51,.35,0,.63-.33,.63-.74,0-.34-.17-.52-.46-.52-.37,0-.63,.31-.63,.74Zm4.17-3.17c.74,.53,1.29,1.05,1.82,1.73l-.63,.53c-.42-.65-1.16-1.39-1.77-1.8l.58-.46Z"/></g><rect class="cls-5" x="61.68" y="69.2" width="55.53" height="55.53" rx="4.01" ry="4.01"/><g><rect class="cls-1" x="85.88" y="79.78" width="7.19" height="34.35" rx="1.4" ry="1.4"/><rect class="cls-2" x="74.11" y="94.67" width="8.26" height="19.47" rx="1.4" ry="1.4"/><rect class="cls-3" x="96.52" y="103.39" width="8.26" height="10.74" rx="1.4" ry="1.4"/></g></svg>