<?xml version="1.0" encoding="UTF-8"?><svg id="Layer_1" xmlns="http://www.w3.org/2000/svg" viewBox="0 0 178.58 249.45"><defs><style>.cls-1{fill:#f2f2f2;}.cls-2{fill:#fff;}.cls-3{fill:#ffa914;}.cls-4{fill:#999;}.cls-5{fill:#666;}.cls-6{fill:gray;}.cls-7{fill:#4d4d4d;}.cls-8{opacity:.9;}</style></defs><g><rect class="cls-2" x="3.09" y="3.09" width="172.4" height="243.27" rx="10.86" ry="10.86"/><path class="cls-3" d="M164.63,6.18c4.29,0,7.77,3.49,7.77,7.77V235.5c0,4.29-3.49,7.77-7.77,7.77H13.95c-4.29,0-7.77-3.49-7.77-7.77V13.95c0-4.29,3.49-7.77,7.77-7.77H164.63M164.63,0H13.95C6.25,0,0,6.25,0,13.95V235.5C0,243.2,6.25,249.45,13.95,249.45H164.63c7.71,0,13.95-6.25,13.95-13.95V13.95C178.58,6.25,172.34,0,164.63,0h0Z"/></g><g><path class="cls-3" d="M37.18,15.88c-1.05,0-1.5,.01-2.05,.06v-2.23c.7,.08,1.09,.1,2.09,.1h6.94c.41-.01,.61-.05,.87-.14l1.22,1.37c-.2,.19-.27,.28-.58,.81-1.3,2.19-2.34,3.45-4.02,4.85,.54,.65,.9,1.1,1.51,1.93l-1.9,1.48c-.76-1.24-1.39-2.12-2.45-3.31-1.03-1.18-1.62-1.76-2.55-2.52l1.74-1.22c1.04,.85,1.46,1.24,2.19,2.01,.72-.6,1.52-1.41,1.98-2,.32-.39,.66-.94,.81-1.23l-5.8,.03Z"/><path class="cls-3" d="M56.56,24.11c-1.1-1.39-2.22-2.5-3.64-3.6-1.19,1.41-2.7,2.52-4.66,3.47-.44-.89-.71-1.27-1.42-2,1.65-.63,2.95-1.46,4.1-2.56,1.18-1.13,1.95-2.25,2.55-3.72l-3.29,.05c-1.09,.02-1.49,.05-2.01,.13l-.06-2.25c.49,.06,.84,.09,1.33,.09,.1,0,.34,0,.71-.01l4.33-.06c.6-.01,.67-.01,1.01-.14l1.11,1.14c-.19,.19-.27,.32-.46,.75-.67,1.58-1.15,2.47-1.86,3.42,1.53,1.1,2.05,1.55,4.03,3.43l-1.77,1.88Z"/><path class="cls-3" d="M63.15,15.06c.04-.49,.06-1.23,.06-1.62,0-.27,0-.37-.04-.63l2.38,.06c-.06,.29-.06,.33-.14,1.53q-.01,.34-.04,.65h2.76c.42,0,.57-.03,.85-.14l.99,.86c-.14,.25-.17,.36-.18,.94-.09,2.71-.28,4.83-.53,5.66-.37,1.18-.98,1.58-2.38,1.58-.49,0-.68-.01-1.66-.1-.05-1.01-.14-1.43-.43-2.23,.63,.17,1.25,.25,1.65,.25,.61,0,.76-.2,.92-1.3,.13-.85,.24-2.45,.24-3.53h-2.42q-.1,.84-.19,1.27c-.56,2.56-1.76,4.21-4.33,5.9-.57-.9-.95-1.33-1.65-1.93,1.69-.89,2.66-1.79,3.29-3.07,.32-.65,.46-1.1,.63-2.17h-1.58c-.85,0-1.11,.01-1.71,.08v-2.17c.62,.09,.85,.1,1.75,.1h1.75Z"/><path class="cls-3" d="M71.53,17.25c.6,.09,1.28,.11,2.6,.11h6.06c1.27,0,1.75-.03,2.6-.11v2.44c-.61-.06-1.16-.08-2.61-.08h-6.03c-1.42,0-1.84,.01-2.61,.08v-2.44Z"/><path class="cls-3" d="M85.38,24.05c.05-.53,.06-.9,.08-1.94v-7.37c-.01-1.09-.01-1.15-.09-1.84h2.45c-.05,.33-.05,.53-.06,1.85v1.74c2,.65,3.99,1.55,5.76,2.64l-1.2,2.15c-1.05-.75-2.52-1.56-3.99-2.2-.38-.15-.42-.16-.46-.19-.04-.01-.06-.03-.11-.06v3.29c0,.94,.03,1.61,.08,1.94h-2.44Zm5.73-10.44c.49,.56,.9,1.14,1.25,1.81l-1.2,.58c-.42-.8-.75-1.27-1.25-1.85l1.2-.54Zm1.69-.76c.47,.51,.82,.99,1.27,1.76l-1.17,.57c-.44-.8-.8-1.31-1.24-1.81l1.14-.52Z"/></g><path class="cls-3" d="M13.95,0H30V16.05c0,7.7-6.25,13.95-13.95,13.95H0V13.95C0,6.25,6.25,0,13.95,0Z"/><g class="cls-8"><path class="cls-2" d="M15,19.78c-.1,0-.19-.04-.26-.11l-6.73-4.47s-.03-.1-.03-.2,.04-.19,.1-.25l6.58-4.37c.14-.13,.23-.17,.33-.17s.19,.04,.26,.11l6.73,4.49s.03,.1,.03,.2-.04,.19-.1,.26l-6.58,4.35c-.14,.13-.23,.17-.33,.17Z"/><path class="cls-2" d="M15.08,10.66h0m-.08,.07s.04,.03,.07,.05l6.36,4.23-6.36,4.21s-.05,.03-.07,.05c-.02-.02-.05-.03-.07-.05l-6.36-4.21,6.36-4.23s.05-.03,.07-.05m0-.98c-.21,0-.43,.08-.59,.24l-6.65,4.43c-.32,.32-.32,.86,0,1.18l6.65,4.41c.16,.16,.38,.24,.59,.24s.43-.08,.59-.24l6.65-4.41c.32-.32,.32-.86,0-1.18l-6.65-4.43c-.16-.16-.38-.24-.59-.24h0Z"/></g><g><path d="M19.91,167.02q-1.14,.22-2.43,.41c-.96,.13-1.38,.2-1.68,.26l-.28-1.24c.08,.01,.13,.01,.19,.01,.19,0,.53-.02,1.03-.06v-3.72c-.53,0-.83,.01-1.19,.06v-1.16c.32,.06,.64,.07,1.24,.07h8.48c.61,0,.91-.01,1.25-.07v1.16c-.38-.05-.67-.06-1.26-.06h-4.16v4.39c.62-.23,1.16-.5,1.62-.85-.42-.48-.66-.82-1.09-1.52l1.02-.46h-.31c-.38,0-.6,.01-.9,.05v-1.13c.28,.04,.52,.05,1.01,.05h2.01c.41,0,.71-.01,.9-.05l.62,.68c-.08,.12-.11,.17-.19,.35-.4,.79-.88,1.51-1.37,2.05,.54,.35,1.2,.61,2.12,.85-.24,.36-.43,.73-.61,1.18-1.27-.49-1.61-.67-2.35-1.25-.6,.49-1.08,.79-1.86,1.16-.16-.38-.36-.73-.62-1.01,0,.49,.01,.84,.06,1.15h-1.32c.05-.29,.07-.61,.07-1.21v-.11Zm5.33-6.8c0,.47,.01,.76,.05,1.04-.28-.02-.71-.04-1.12-.04h-6.09c-.54,0-.86,.01-1.24,.04,.04-.3,.05-.6,.05-1.03v-1.62c0-.44-.01-.74-.05-1.04,.4,.04,.72,.05,1.27,.05h5.9c.55,0,.86-.01,1.27-.05-.04,.29-.05,.58-.05,1.04v1.61Zm-5.33,2.47h-1.99v.54h1.99v-.54Zm0,1.42h-1.99v.58h1.99v-.58Zm0,1.45h-1.99v.74c.59-.06,.86-.1,1.99-.26v-.48Zm-1.79-6.54h5.86v-.48h-5.86v.48Zm0,1.32h5.86v-.49h-5.86v.49Zm4.58,3.91c.32,.61,.49,.88,.85,1.26,.37-.38,.58-.68,.89-1.26h-1.74Z"/><path d="M29.22,159.12c-.6,0-1.13,.02-1.61,.07v-1.4c.46,.05,.97,.07,1.61,.07h7.53c.62,0,1.13-.02,1.61-.07v1.4c-.5-.05-1-.07-1.61-.07h-3.38v1.4c1.83,.79,2.69,1.24,4.31,2.21l-.68,1.2c-1.09-.76-2.38-1.49-3.62-2.05v4.69c0,.77,.02,1.19,.08,1.66h-1.56c.06-.46,.08-.89,.08-1.66v-7.45h-2.76Z"/><path d="M40.64,163.5c0-.4,.01-.84,.04-1.34-.42,.65-.58,.85-.92,1.26-.11-.47-.3-.97-.54-1.44,.84-.9,1.51-2,1.99-3.29,.23-.59,.4-1.15,.46-1.58l1.38,.35c-.37,1.1-.7,1.92-1.12,2.83v6.63c0,.53,.02,.94,.08,1.39h-1.45c.06-.47,.08-.8,.08-1.4v-3.41Zm5.88,3.08c.71-1.89,1.28-4.13,1.45-5.65l1.46,.33q-.17,.61-.44,1.66c-.26,1.07-.66,2.29-1.15,3.66h1.34c.62,0,1.02-.02,1.38-.07v1.37c-.41-.06-.83-.08-1.43-.08h-5.19c-.59,0-1.06,.02-1.43,.08v-1.37c.36,.05,.76,.07,1.39,.07h2.61Zm-.77-8.33c0-.4-.02-.65-.07-.94h1.45c-.05,.25-.07,.49-.07,.94v1.02h1.82c.6,0,1.01-.02,1.37-.07v1.34c-.38-.04-.82-.06-1.38-.06h-4.67c-.66,0-1.12,.02-1.42,.06v-1.33c.35,.05,.68,.06,1.38,.06h1.58v-1.02Zm-1.2,7.86c-.35-1.86-.7-3.14-1.27-4.62l1.25-.44c.62,1.67,.91,2.72,1.33,4.7l-1.31,.36Z"/><path d="M56.46,164.54c-.68,1.55-1.45,2.25-2.44,2.25-1.37,0-2.35-1.39-2.35-3.32,0-1.32,.47-2.55,1.32-3.49,1.01-1.1,2.42-1.68,4.13-1.68,2.88,0,4.75,1.75,4.75,4.45,0,2.08-1.08,3.73-2.91,4.47-.58,.24-1.04,.36-1.88,.5-.2-.64-.35-.9-.73-1.4,1.1-.14,1.82-.34,2.39-.66,1.04-.58,1.67-1.72,1.67-3,0-1.15-.52-2.09-1.48-2.66-.37-.22-.68-.31-1.21-.36-.23,1.88-.65,3.54-1.25,4.89Zm-1.76-4.29c-1.01,.72-1.63,1.95-1.63,3.24,0,.98,.42,1.76,.95,1.76,.4,0,.8-.5,1.24-1.54,.46-1.08,.85-2.7,1-4.05-.62,.07-1.05,.24-1.55,.59Z"/><path d="M63.52,159.11c0-.54-.01-.85-.05-1.21,.26,.02,.49,.04,1.05,.04h1.45c.54,0,.76-.01,1.04-.04-.04,.28-.04,.49-.04,1.19v6.86c0,.64,.01,.9,.04,1.2h-1.22v-.6h-1.09v1.01h-1.26c.05-.37,.07-.79,.07-1.43v-7.02Zm1.2,2.47h1.08v-2.51h-1.08v2.51Zm0,3.8h1.08v-2.7h-1.08v2.7Zm4.13-5.67q-1,.02-1.28,.06v-1.27c.33,.05,.72,.07,1.25,.07h1.06v-.32c0-.34-.02-.6-.07-.9h1.38c-.04,.28-.06,.53-.06,.9v.32h1.31c.52,0,.91-.02,1.25-.07v1.27c-.34-.05-.7-.06-1.24-.06h-1.32v1.14h1.66c.58,0,1.01-.02,1.31-.07v1.27c-.32-.05-.65-.06-1.17-.06h-.2v1.02h.16c.58,0,.9-.01,1.19-.06v1.31c-.35-.06-.65-.07-1.19-.07h-.16v2.71c0,.7-.12,.98-.48,1.15-.3,.13-.72,.19-1.32,.19q-.11,0-.94-.01c-.02-.52-.11-.88-.29-1.26,.3,.05,.92,.1,1.34,.1,.37,0,.44-.06,.44-.32v-2.55h-2.87c-.44,0-.9,.02-1.28,.07v-1.31c.31,.05,.68,.06,1.31,.06h2.84v-1.02h-2.84c-.5,0-.95,.02-1.32,.06v-1.27c.3,.05,.76,.07,1.33,.07h1.24v-1.14h-1.02Zm.47,7.26c-.48-.8-.94-1.38-1.54-1.97l1.02-.67c.59,.53,1.07,1.08,1.57,1.83l-1.05,.8Z"/><path d="M76,164.59c1.1,.84,1.78,1.5,2.7,2.64l-1.12,1.04c-.88-1.19-1.56-1.91-2.6-2.73l1.02-.95Z"/><path d="M81.54,162.11c.55,.22,.89,.29,2.11,.46,.05-.43,.16-1.24,.22-1.68-.71-.1-.9-.12-1.72-.3-.17-.04-.23-.05-.41-.08l.12-1.32c.5,.19,1.35,.36,2.17,.43,.17-1.01,.24-1.63,.24-1.99,0-.04,0-.06-.01-.12l1.59,.14c-.13,.37-.17,.55-.38,2.03,1.36-.02,2.05-.08,2.73-.25l-.05,1.4c-.16,.01-.22,.02-.48,.05-.86,.07-1.25,.1-1.68,.1-.12,0-.23,0-.74-.01-.12,.88-.16,1.12-.23,1.69,.36,.01,.46,.01,.59,.01,.85,0,1.71-.08,2.29-.24l-.04,1.38c-.12,0-.16,0-.36,.04-.53,.06-1.24,.11-1.8,.11-.19,0-.3,0-.77-.02-.04,.32-.06,.64-.06,.85,0,.59,.13,.96,.44,1.24,.35,.3,.83,.44,1.49,.44,1.52,0,2.4-.67,2.4-1.85,0-.7-.36-1.37-1.08-2.03,.67-.05,.92-.1,1.49-.3,.3,.35,.43,.53,.56,.76,.31,.53,.52,1.21,.52,1.76,0,.85-.42,1.68-1.15,2.24-.68,.53-1.58,.79-2.71,.79-2.18,0-3.37-1.04-3.37-2.97,0-.31,.01-.61,.06-1.02-.72-.1-1.19-.17-1.67-.28-.25-.06-.29-.06-.46-.07l.13-1.38Z"/><path d="M92.32,161.36q.31-.01,1.39-.2c1.7-.3,2.75-.41,3.77-.41s1.71,.16,2.27,.49c.74,.44,1.16,1.25,1.16,2.19,0,1.37-.83,2.62-2.28,3.44-.98,.56-1.82,.82-3.78,1.13-.12-.64-.25-.94-.62-1.5,1.39-.06,2.69-.4,3.61-.91,.95-.53,1.46-1.28,1.46-2.11,0-.9-.64-1.35-1.88-1.35-1.36,0-3.75,.42-4.75,.83l-.35-1.59Zm1.87-3.83c1.33,.44,3.11,.7,5,.7h.34l-.2,1.48c-2.18-.1-3.84-.31-5.6-.76l.47-1.42Z"/><path d="M113.38,163.37c-.55-.06-1.1-.08-1.82-.08h-7.1c-.67,0-1.3,.04-1.83,.08v-1.58c.52,.06,1.05,.08,1.83,.08h7.1c.8,0,1.36-.02,1.82-.08v1.58Z"/><path d="M116.65,161.17c-.02,1.83-.13,3.14-.34,4.23-.22,1.13-.48,1.88-1.02,2.85-.34-.48-.59-.75-1.01-1.1,.4-.73,.59-1.26,.74-2.05,.26-1.25,.35-2.57,.35-5.41,0-.89-.01-1.2-.05-1.63,.42,.04,.84,.06,1.36,.06h2.99v-.26c0-.26-.02-.46-.06-.68h1.43c-.05,.2-.06,.4-.06,.7v.25h2.97c.67,0,1.09-.02,1.45-.07v1.25c-.4-.04-.7-.05-1.26-.05h-.92v.84h1.15c.49,0,.76-.01,1.07-.06v1.19c-.28-.04-.52-.05-1.07-.05h-1.15v1.13c0,.3,.01,.55,.04,.75-.28-.01-.3-.01-.78-.01h-3.33c-.47,0-.62,0-.84,.01,.02-.2,.05-.5,.05-.75v-1.13h-1.7Zm7.54,3.21c-.11,.11-.12,.12-.23,.24-.65,.76-1.26,1.31-1.98,1.8,1.04,.37,2.09,.54,3.55,.56-.23,.44-.37,.83-.5,1.35-2.01-.25-3.21-.58-4.33-1.16-1.25,.6-2.28,.9-4.1,1.18-.1-.46-.19-.71-.47-1.24,1.51-.11,2.43-.3,3.43-.67-.67-.52-1.03-.88-1.63-1.7-.42,.01-.6,.02-.85,.05v-1.13c.3,.05,.65,.06,1.28,.06h4.19c.49,0,.71-.01,1-.04l.65,.7Zm-5.84-4.29v-.84h-1.69v.84h1.69Zm1.03,4.65c.36,.44,.74,.74,1.39,1.13,.64-.37,.95-.61,1.49-1.13h-2.88Zm2.58-4.65v-.84h-2.35v.84h2.35Zm-2.35,1.91h2.35v-.83h-2.35v.83Z"/><path d="M128.16,164.69c0-.5,0-.58,.02-1.39-.31,.37-.67,.72-1.09,1.02-.18-.54-.34-.85-.6-1.28,1.26-.82,2.49-2.13,2.95-3.17l1.13,.74c-.12,.13-.23,.28-.4,.53-.28,.4-.38,.55-.7,.94v4.73c0,.64,.02,1.12,.08,1.51h-1.49c.06-.37,.08-.9,.08-1.52v-2.1Zm2.23-6.71q-.13,.14-.36,.41c-.78,.94-1.63,1.68-2.76,2.4-.24-.47-.44-.76-.76-1.13,.95-.52,1.56-1,2.15-1.64,.26-.31,.42-.54,.58-.84l1.15,.8Zm1.62,4.13c-.55,0-1.1,.02-1.48,.07v-1.34c.36,.05,.9,.07,1.48,.07h4.08c.67,0,1.15-.02,1.46-.07v1.34c-.4-.05-.9-.07-1.43-.07h-.52v4.77c0,1.03-.35,1.28-1.8,1.28-.41,0-.77-.01-1.33-.04-.07-.53-.14-.84-.35-1.34,.64,.08,1.26,.13,1.63,.13,.48,0,.54-.02,.54-.29v-4.52h-2.29Zm-1-4.32c.33,.05,.78,.07,1.4,.07h3.24c.6,0,1.01-.02,1.37-.07v1.33c-.42-.05-.86-.07-1.34-.07h-3.26c-.5,0-1.01,.02-1.4,.07v-1.33Z"/><path d="M141.14,158.69c-.83,.07-1.16,.1-2.06,.14-.1-.34-.19-.55-.42-.96,2.35-.01,4.41-.26,5.23-.65l.72,.98c-.11,.01-.5,.07-.66,.11-.44,.08-1.04,.18-1.64,.26v.67h1.25c.56,0,.84-.01,1.12-.06v1.09c-.18-.04-.34-.05-.86-.05h-1.5v.52h1.19c.54,0,.76-.01,1.01-.04-.02,.25-.04,.44-.04,1.05v1.62c.01,.58,.02,.94,.04,1.09-.28-.02-.52-.02-1.08-.02h-1.12v.53h1.06c.6,0,.85-.01,1.13-.05v1.13c-.22-.05-.38-.06-.84-.06h-1.34v.59c.62-.06,1.03-.11,2.16-.26v.52c.52-.77,.91-1.74,1.14-2.76,.18-.88,.25-1.62,.31-3.17-.49,0-.68,.01-1,.05v-1.29c.24,.04,.44,.05,.85,.05h.18c.01-.3,.01-.5,.01-.88,0-1-.01-1.19-.07-1.52h1.38q-.06,.32-.1,2.4h1.04c.52,0,.8-.01,1.13-.05-.05,.43-.05,.53-.08,2.25-.06,3.09-.22,4.79-.52,5.48-.22,.53-.6,.71-1.5,.71-.19,0-.78-.02-.96-.04-.02-.53-.08-.78-.28-1.29-.29,.61-.48,.92-.96,1.57-.25-.37-.54-.66-.95-.95-1.64,.24-2.52,.34-4.71,.5-.23,.02-.41,.05-.7,.1l-.22-1.28c.25,.02,.36,.02,.62,.02,.54,0,.77-.01,2.04-.08v-.66h-1.24c-.38,0-.79,.01-1.12,.05v-1.13c.33,.05,.59,.06,1.13,.06h1.22v-.53h-1.04c-.54,0-.83,.01-1.16,.04,.02-.3,.04-.55,.04-1.14v-1.55c0-.56-.01-.79-.04-1.09,.34,.02,.65,.04,1.18,.04h1.03v-.52h-1.46c-.5,0-.78,.01-1.12,.06v-1.1c.32,.05,.62,.06,1.12,.06h1.46v-.56Zm-1.04,2.96v.5h1.04v-.5h-1.04Zm0,1.38v.53h1.04v-.53h-1.04Zm2.21-.88h1.04v-.5h-1.04v.5Zm0,1.4h1.04v-.53h-1.04v.53Zm4.85-2.64c-.12,2.85-.4,4.25-1.13,5.85,.61,.1,.79,.12,1.06,.12,.54,0,.62-.14,.77-1.26,.08-.64,.12-1.15,.17-2.48q.01-.42,.02-1.39c.01-.37,.01-.44,.02-.84h-.91Z"/></g><g><path class="cls-6" d="M17.82,176.45c.19-.36,.3-.68,.39-1.08l.83,.1c-.15,.41-.27,.68-.42,.98h1.89c.45,0,.69,0,.97-.04-.03,.27-.04,.49-.04,.98v4.39c0,.48,0,.69,.05,.93h-.78v-.43h-4.05v.43h-.77c.03-.21,.05-.51,.05-.93v-4.39c0-.47,0-.7-.04-.98,.29,.03,.51,.04,.97,.04h.95Zm-1.16,1.69h4.06v-1.02h-4.06v1.02Zm0,1.7h4.06v-1.04h-4.06v1.04Zm0,1.77h4.06v-1.11h-4.06v1.11Z"/><path class="cls-6" d="M24.92,178.93c-.28,0-.52,.02-.74,.04v-.65c-.37,.39-.62,.62-1.05,.94-.13-.22-.29-.42-.53-.64,.98-.66,1.66-1.4,2.13-2.31,.19-.36,.28-.6,.32-.82l.82,.3c-.07,.1-.12,.19-.22,.41-.35,.75-.76,1.36-1.37,2.03,.18,.02,.4,.03,.65,.03h2.81c.32,0,.5,0,.74-.02-.59-.63-1.06-1.32-1.43-2.09-.04-.08-.13-.25-.18-.34l.75-.29c.06,.2,.13,.38,.3,.69,.55,.98,1.26,1.73,2.27,2.38-.19,.2-.33,.38-.51,.71-.48-.36-.75-.59-1.11-.96q0,.14-.02,.5c-.02,1.74-.14,2.91-.34,3.32-.16,.3-.42,.41-1.02,.41-.2,0-.36,0-.92-.04-.03-.3-.08-.46-.19-.79,.42,.07,.78,.11,1.03,.11,.3,0,.38-.04,.45-.2,.09-.26,.14-.65,.19-1.3,.03-.4,.05-.82,.05-1.14v-.26h-1.67c-.06,.86-.24,1.43-.62,2.06-.44,.73-1.09,1.29-2.03,1.76-.13-.26-.24-.4-.48-.65,.49-.2,.83-.41,1.23-.76,.58-.5,.95-1.15,1.09-1.92,.02-.15,.04-.23,.06-.5h-.46Z"/><path class="cls-6" d="M30.8,177.68c.29,0,1.05-.08,1.73-.18,.14-.75,.22-1.38,.22-1.64,0-.03,0-.08,0-.14l.88,.09c-.02,.1-.04,.16-.06,.26l-.19,1.06c-.03,.18-.03,.2-.06,.3,.22-.02,.34-.02,.52-.02,.51,0,.88,.13,1.13,.39,.28,.29,.38,.66,.38,1.37,0,1.32-.22,2.4-.58,2.85-.22,.26-.45,.36-.85,.36-.33,0-.68-.08-1.22-.26,.02-.14,.02-.24,.02-.3,0-.15,0-.28-.06-.55,.43,.2,.9,.34,1.17,.34,.26,0,.4-.18,.53-.62,.13-.42,.21-1.18,.21-1.87,0-.75-.22-.99-.88-.99-.17,0-.3,0-.51,.03-.32,1.33-.63,2.22-1.13,3.29-.06,.13-.24,.48-.53,1.05l-.78-.43c.24-.3,.56-.88,.83-1.48,.35-.78,.54-1.32,.82-2.37-.62,.08-1.2,.18-1.51,.27l-.08-.8Zm5.36-.73c.81,.92,1.3,1.81,1.66,3l-.75,.39c-.15-.64-.34-1.15-.66-1.74-.3-.57-.55-.92-.93-1.32l.67-.34Zm.29-1.37c.38,.42,.55,.68,.83,1.2l-.5,.27c-.26-.5-.49-.83-.83-1.22l.5-.25Zm.94-.46c.38,.42,.55,.66,.82,1.17l-.49,.28c-.25-.46-.47-.8-.82-1.2l.48-.25Z"/><path class="cls-6" d="M39.31,179.03c-.34,0-.54,0-.78,.05v-.67c.21,.04,.4,.05,.79,.05h5.69c.39,0,.57,0,.79-.05v.67c-.24-.04-.44-.05-.8-.05h-2.89v2.98c0,.38,0,.57,.05,.78h-.75c.04-.19,.05-.4,.05-.78v-.13c-.9,.16-.98,.18-1.74,.28-.59,.09-.77,.11-1.06,.17l-.15-.7h.14c.14,0,.36-.02,.7-.04v-2.57h-.05Zm5.6-1.58c0,.3,0,.48,.03,.66-.22-.02-.48-.02-.78-.02h-3.9c-.36,0-.58,0-.84,.03,.02-.2,.03-.39,.03-.67v-1.1c0-.29,0-.48-.03-.67,.27,.02,.5,.03,.86,.03h3.8c.37,0,.59,0,.86-.03-.02,.18-.03,.38-.03,.67v1.1Zm-4.89,2.02h1.44v-.45h-1.44v.45Zm0,.97h1.44v-.46h-1.44v.46Zm0,1.1c.46-.05,.85-.1,1.44-.2v-.39h-1.44v.59Zm.12-4.88h4.08v-.41h-4.08v.41Zm0,.92h4.08v-.42h-4.08v.42Zm5.25,2.23c-.06,.08-.07,.12-.14,.23-.31,.6-.57,.98-.94,1.37,.42,.3,.82,.49,1.47,.67-.16,.21-.26,.38-.37,.64-.74-.29-1.12-.5-1.57-.87-.42,.34-.77,.57-1.3,.82-.12-.26-.22-.42-.4-.59,.51-.19,.82-.36,1.23-.68-.3-.32-.47-.58-.78-1.11l.58-.26h-.25c-.24,0-.37,0-.58,.03v-.63c.18,.02,.36,.03,.68,.03h1.4c.28,0,.48,0,.61-.03l.35,.38Zm-2.2,.22c.22,.45,.34,.64,.65,.97,.3-.3,.46-.54,.69-.97h-1.33Z"/><path class="cls-6" d="M47.6,176.6c-.38,0-.71,.02-1.02,.05v-.8c.29,.03,.6,.05,1.02,.05h5.08c.41,0,.71-.02,1.02-.05v.8c-.31-.03-.62-.05-1.02-.05h-2.36v.92c1.27,.56,1.79,.83,2.88,1.52l-.43,.72c-.78-.58-1.55-1.04-2.45-1.45v3.37c0,.47,.02,.74,.06,1.03h-.89c.04-.29,.06-.57,.06-1.03v-5.08h-1.95Z"/><path class="cls-6" d="M55.33,179.44c0-.3,0-.61,.03-.94-.27,.44-.42,.64-.7,.98-.07-.23-.21-.53-.35-.76,.6-.63,1.07-1.41,1.42-2.29,.15-.39,.26-.8,.3-1.07l.77,.22c-.34,.98-.46,1.26-.76,1.91v4.34c0,.37,.02,.63,.06,.94h-.82c.04-.3,.06-.53,.06-.94v-2.38Zm3.85,2.27c.49-1.28,.91-2.84,1.02-3.8l.82,.21q-.11,.38-.29,1.05c-.21,.78-.5,1.7-.82,2.54h1.04c.4,0,.66-.02,.9-.05v.78c-.26-.04-.54-.06-.92-.06h-3.53c-.38,0-.66,.02-.92,.06v-.78c.23,.03,.49,.05,.9,.05h1.8Zm-.48-5.59c0-.26-.02-.43-.05-.62h.82c-.04,.17-.06,.34-.06,.62v.77h1.32c.39,0,.65-.02,.88-.05v.75c-.26-.02-.52-.04-.88-.04h-3.16c-.44,0-.71,.02-.91,.04v-.75c.23,.04,.46,.05,.9,.05h1.14v-.76Zm-.8,5.21c-.23-1.26-.46-2.11-.86-3.1l.7-.24c.41,1.1,.61,1.8,.88,3.13l-.73,.21Z"/><path class="cls-6" d="M65.69,180.17c-.46,1.06-.95,1.52-1.58,1.52-.85,0-1.47-.89-1.47-2.1,0-.86,.3-1.66,.86-2.28,.66-.72,1.58-1.1,2.69-1.1,1.86,0,3.09,1.14,3.09,2.87,0,1.34-.7,2.41-1.9,2.9-.38,.15-.69,.24-1.23,.34-.12-.37-.19-.5-.41-.78,.62-.1,.98-.18,1.33-.33,.86-.37,1.39-1.21,1.39-2.17,0-.83-.39-1.5-1.09-1.87-.27-.14-.49-.2-.86-.22-.14,1.19-.43,2.36-.82,3.22Zm-1.1-2.83c-.73,.49-1.18,1.34-1.18,2.25,0,.7,.3,1.25,.69,1.25,.29,0,.58-.35,.9-1.08,.31-.74,.58-1.85,.69-2.81-.44,.05-.75,.15-1.1,.38Z"/><path class="cls-6" d="M73.38,180.24c-.31,.3-.6,.52-1.02,.76-.08-.14-.12-.19-.29-.38-.26,.14-1.02,.47-1.33,.59-.22,.09-.42,.18-.46,.2l-.15-.79c.31-.06,.42-.09,.94-.27v-2.25h-.28c-.24,0-.44,.02-.64,.04v-.73c.2,.03,.38,.04,.66,.04h.26v-1.04c0-.39-.02-.64-.05-.88h.79c-.04,.26-.05,.48-.05,.89v1.03h.16c.29,0,.46,0,.61-.03v.71c-.22-.02-.38-.03-.6-.03h-.17v1.98c.23-.1,.32-.14,.57-.27v.5c.5-.32,.87-.66,1.1-1.06h-.3c-.34,0-.57,.02-.74,.04v-.68c.18,.03,.38,.04,.74,.04h3.46c.38,0,.62-.02,.82-.05v.68c-.2-.02-.46-.03-.82-.03h-2.44c-.1,.17-.14,.23-.29,.43h2.59c.38,0,.56,0,.78-.03-.02,.13-.02,.15-.04,.48-.06,1.08-.19,1.89-.36,2.19-.16,.3-.39,.39-.98,.39-.22,0-.45,0-.7-.02-.03-.29-.09-.46-.22-.71,.39,.06,.69,.08,.94,.08,.22,0,.34-.05,.39-.14,.1-.23,.2-.87,.25-1.66h-.39c-.21,.47-.46,.89-.77,1.24-.25,.28-.68,.67-1.01,.91-.2,.14-.35,.24-.68,.42-.18-.25-.24-.32-.5-.51,.68-.33,1.01-.54,1.44-.94,.34-.31,.62-.69,.82-1.13h-.61c-.48,.76-1.18,1.34-2.21,1.85-.12-.2-.22-.33-.44-.51,.89-.37,1.54-.82,1.92-1.33h-.72Zm.23-2.02c-.31,0-.55,0-.73,.03,.02-.22,.03-.44,.03-.75v-1.11c0-.35,0-.48-.03-.72,.24,.03,.43,.04,.79,.04h2.24c.38,0,.62,0,.85-.04-.03,.22-.03,.38-.03,.77v1.06c0,.35,0,.58,.03,.74-.18-.02-.41-.02-.73-.02h-2.42Zm0-1.5h2.43v-.43h-2.43v.43Zm0,.97h2.43v-.45h-2.43v.45Z"/><path class="cls-6" d="M79.85,177.95c-.56,.37-.87,.54-1.44,.81-.09-.25-.19-.42-.42-.67,.75-.3,1.46-.73,2.1-1.25,.56-.46,.91-.84,1.24-1.36h.82c.34,.53,.7,.9,1.33,1.39,.66,.51,1.33,.89,2.1,1.18-.18,.26-.27,.43-.38,.73-.58-.27-.9-.46-1.48-.85v.64c-.19-.02-.41-.03-.7-.03h-2.5c-.23,0-.46,0-.66,.03v-.62Zm-.71,4.77c.03-.24,.05-.48,.05-.81v-1.83c0-.31-.02-.54-.04-.77,.17,.02,.36,.03,.66,.03h3.89c.3,0,.5,0,.67-.03-.03,.22-.04,.44-.04,.77v1.83c0,.34,0,.56,.05,.81h-.8v-.42h-3.64v.42h-.8Zm.8-1.07h3.64v-1.65h-3.64v1.65Zm3.07-3.79c.25,0,.38,0,.55-.02-.83-.6-1.29-1.04-1.81-1.73-.53,.74-.96,1.17-1.74,1.73,.17,0,.3,.02,.51,.02h2.49Z"/><path class="cls-6" d="M86.7,180.39c.71,.55,1.13,.98,1.72,1.74l-.66,.61c-.56-.78-1.02-1.26-1.67-1.79l.61-.55Z"/><path class="cls-6" d="M15.65,188.34c.25,.1,.45,.16,.78,.22,.03,0,.25,.04,.64,.1,.03-.31,.11-.9,.17-1.25-.55-.07-.63-.08-1.17-.2-.11-.02-.14-.03-.26-.06l.08-.74c.33,.14,.88,.25,1.44,.3,.11-.67,.18-1.17,.18-1.35v-.12l.89,.08c-.06,.15-.07,.22-.13,.54q-.02,.07-.07,.46c-.03,.18-.04,.26-.07,.43,.14,0,.25,0,.31,0,.61,0,1.15-.06,1.56-.16l-.03,.78c-.1,0-.14,.02-.34,.03-.5,.04-.77,.06-1.01,.06-.1,0-.21,0-.61,0-.11,.75-.13,.91-.17,1.25,.25,0,.33,0,.45,0,.58,0,1.15-.06,1.5-.14l-.02,.76c-.08,0-.1,0-.23,.02-.35,.04-.8,.06-1.17,.06-.15,0-.25,0-.58-.02-.02,.32-.03,.48-.03,.65,0,.41,.1,.68,.33,.87,.24,.22,.58,.32,1.05,.32,1.02,0,1.66-.5,1.66-1.3,0-.47-.25-.94-.74-1.37,.37-.04,.5-.06,.82-.18,.2,.22,.29,.34,.38,.48,.23,.36,.36,.78,.36,1.17,0,.56-.27,1.09-.74,1.45-.45,.34-1.03,.51-1.73,.51s-1.24-.17-1.62-.5c-.37-.33-.54-.79-.54-1.45,0-.23,0-.34,.04-.7-.43-.05-.82-.11-1.15-.19-.15-.03-.18-.04-.28-.05l.08-.77Z"/><path class="cls-6" d="M22.77,187.84q.2-.02,.88-.14c1.11-.2,1.83-.28,2.49-.28,.61,0,1.11,.11,1.45,.32,.48,.29,.74,.79,.74,1.39,0,.88-.53,1.69-1.46,2.23-.63,.38-1.18,.54-2.44,.75-.1-.38-.15-.53-.34-.82,1.03-.06,2-.35,2.61-.8,.49-.35,.75-.84,.75-1.38,0-.26-.12-.51-.32-.67-.23-.18-.54-.26-.99-.26-.91,0-2.5,.27-3.16,.54l-.2-.89Zm1.22-2.53c.87,.31,2.05,.47,3.43,.48l-.12,.81c-1.39-.06-2.44-.22-3.57-.51l.26-.78Z"/><path class="cls-6" d="M36.67,189.05c-.34-.04-.66-.06-1.15-.06h-4.81c-.44,0-.85,.02-1.16,.06v-.93c.32,.04,.66,.06,1.16,.06h4.81c.51,0,.88-.02,1.15-.06v.93Z"/><path class="cls-6" d="M38.8,187.57c-.05,2.57-.24,3.57-.9,4.76-.19-.26-.33-.41-.57-.6,.27-.5,.41-.86,.52-1.38,.18-.86,.24-1.77,.24-3.69,0-.53,0-.77-.03-1.02,.27,.02,.54,.04,.87,.04h2.03v-.2c0-.18-.02-.32-.05-.48h.81c-.03,.14-.04,.28-.04,.49v.19h2.07c.44,0,.7-.02,.93-.05v.7c-.26-.02-.46-.03-.84-.03h-5.03v.67h1.26v-.07c0-.18-.02-.32-.03-.44h.76c-.03,.23-.03,.3-.03,.42v.09h1.68v-.06c0-.15-.02-.3-.03-.45h.76c-.02,.13-.03,.27-.03,.46v.06h.85c.34,0,.5,0,.72-.04v.68c-.18-.03-.36-.04-.72-.04h-.85v.79c0,.18,0,.35,.02,.5-.15-.02-.22-.02-.52-.02h-2.04c-.32,0-.45,0-.57,.02,.02-.15,.03-.34,.03-.5v-.79h-1.26Zm5,2.16c-.06,.07-.09,.1-.31,.35-.35,.4-.75,.75-1.21,1.06,.73,.3,1.5,.45,2.47,.49-.13,.24-.22,.46-.29,.75-1.26-.17-2.1-.41-2.86-.83-.83,.43-1.61,.66-2.8,.85-.06-.26-.12-.41-.28-.7,1.03-.09,1.74-.25,2.46-.55-.5-.38-.76-.64-1.18-1.22-.42,0-.46,0-.66,.03v-.65c.19,.03,.42,.04,.83,.04h2.84c.29,0,.43,0,.62-.02l.38,.4Zm-3.21,.2c.24,.33,.56,.6,1.03,.89,.48-.3,.71-.47,1.11-.89h-2.14Zm.17-1.67h1.68v-.69h-1.68v.69Z"/><path class="cls-6" d="M46.44,192.06c.04-.34,.05-.54,.05-1.02v-4.77c0-.55,0-.73-.05-.95h.95c-.04,.26-.05,.53-.05,.98v1.35c1.13,.4,2.26,.93,3.6,1.69l-.47,.79c-.35-.24-.57-.38-.98-.61-.61-.33-1.48-.76-1.92-.94q-.13-.06-.26-.14l.02,.31c0,.07,0,.32,0,.4v1.89c0,.42,.02,.72,.05,1.02h-.94Zm3.37-6.36c.38,.42,.55,.68,.83,1.2l-.5,.27c-.26-.5-.49-.83-.83-1.22l.5-.25Zm.94-.46c.38,.42,.55,.66,.82,1.17l-.49,.28c-.25-.46-.47-.8-.82-1.2l.48-.25Z"/><path class="cls-6" d="M53.58,191.21v.55h-.87c.02-.22,.04-.5,.04-.98v-3.98c0-.41,0-.61-.04-.83,.39,.02,.54,.03,.99,.03h3.79c.48,0,.68,0,.97-.04-.02,.22-.03,.44-.03,.84v3.97c0,.53,0,.78,.03,.98h-.86v-.55h-4.01Zm4.01-4.45h-4.01v3.7h4.01v-3.7Z"/><path class="cls-6" d="M59.97,188.21c.3,.04,.64,.06,1.23,.06h4.33c.69,0,.88,0,1.19-.05v.93c-.35-.03-.61-.04-1.2-.04h-4.31c-.67,0-.91,0-1.24,.04v-.94Z"/><path class="cls-6" d="M67.77,187.24c.29,0,1.06-.09,1.74-.18,.14-.75,.22-1.37,.22-1.63,0-.03,0-.08,0-.14l.88,.09c-.02,.1-.04,.16-.06,.26q-.03,.15-.06,.28t-.14,.78c-.03,.18-.03,.2-.06,.31,.22-.02,.34-.02,.52-.02,.5,0,.88,.13,1.13,.38,.28,.29,.38,.66,.38,1.37,0,1.33-.22,2.41-.58,2.85-.22,.26-.45,.36-.85,.36-.33,0-.69-.08-1.21-.27,0-.13,.02-.23,.02-.3,0-.14-.02-.27-.06-.55,.43,.21,.9,.34,1.17,.34,.26,0,.4-.18,.53-.62,.13-.42,.21-1.18,.21-1.88,0-.74-.22-.99-.88-.99-.17,0-.3,0-.51,.03-.32,1.33-.63,2.23-1.14,3.29-.06,.13-.24,.48-.53,1.06l-.78-.44c.24-.3,.56-.88,.83-1.48,.35-.78,.54-1.31,.82-2.38-.62,.09-1.2,.19-1.51,.27l-.08-.79Zm5.45-.77c.81,.92,1.3,1.81,1.66,3l-.75,.39c-.15-.65-.34-1.15-.66-1.74-.3-.56-.55-.91-.93-1.31l.67-.34Z"/><path class="cls-6" d="M77.15,186.81c-.11,.44-.23,1.1-.37,2.05-.02,.14-.02,.18-.06,.28,.5-.5,1.51-.83,2.51-.83,1.34,0,2.2,.64,2.2,1.62,0,.58-.3,1.14-.79,1.48-.53,.36-1.18,.53-2.05,.53-.69,0-1.11-.06-2.03-.29,0-.4-.02-.54-.09-.86,.72,.26,1.43,.4,2.1,.4,1.18,0,2.01-.5,2.01-1.24,0-.58-.54-.93-1.43-.93-.99,0-2.01,.4-2.43,.96l-.86-.02c.02-.14,.02-.18,.06-.47,.08-.58,.18-1.3,.33-2.28,.03-.18,.04-.28,.06-.45l.83,.05Zm.21-1.49c.52,.3,2.01,.75,2.87,.89l-.28,.76c-1.42-.34-2.05-.55-2.98-.98l.39-.66Z"/><path class="cls-6" d="M84.11,185.53c.04,.19,.06,.28,.15,.54,.18,.54,.22,.65,.31,.99q.07-.02,.42-.12c.29-.09,.79-.21,1.15-.28,0-.1,0-.25,0-.46,0-.68,0-.74-.04-.95h.85c-.04,.25-.04,.38-.04,1.3,.21-.02,.36-.03,.53-.03,1.09,0,1.82,.62,1.82,1.56,0,1.03-.85,1.77-2.01,1.77-.42,0-.86-.09-1.3-.26,0-.31-.02-.42-.1-.84,.45,.23,.91,.35,1.33,.35,.34,0,.66-.1,.9-.28,.23-.17,.36-.43,.36-.74,0-.55-.42-.87-1.15-.87-.58,0-1.14,.12-2.49,.53,.41,1.41,.56,1.97,1.02,3.93,.04,.17,.06,.22,.12,.38l-.9,.2c-.04-.65-.46-2.48-.99-4.29q-.1,.04-.53,.18c-.42,.14-.74,.28-.94,.38l-.27-.79c.22-.04,.3-.06,.72-.21,.28-.1,.58-.19,.82-.26-.24-.78-.41-1.23-.56-1.5l.84-.25Z"/><path class="cls-6" d="M91.8,185.25c-.1,.27-.13,.42-.31,1.68-.06,.45-.09,.66-.1,.9h.02q.02-.06,.06-.2c.1-.42,.26-.74,.48-1.06,.44-.6,.95-.9,1.55-.9,.55,0,1.01,.24,1.35,.71,.38,.53,.54,1.14,.54,2.06,0,1.5-.69,2.62-1.97,3.22-.41,.18-.92,.34-1.51,.46-.15-.39-.22-.53-.42-.78,.79-.1,1.22-.22,1.71-.47,.94-.5,1.36-1.29,1.36-2.53s-.41-1.88-1.13-1.88c-.35,0-.63,.14-.94,.46-.61,.66-1,1.67-1,2.6t0,.18l-.81,.02s0-.07,0-.09v-.16c0-.21-.02-.82-.02-.95,0-.63,.05-1.51,.12-2.05l.13-1.02c.02-.14,.02-.17,.02-.27l.86,.06Z"/><path class="cls-6" d="M100.25,185.67c.06-.29,.08-.51,.08-.69l.78,.07c-.02,.09-.05,.22-.09,.39-.02,.09-.02,.14-.04,.22h1.99c.42,0,.66-.02,.94-.06v.75c-.26-.04-.49-.05-.94-.05h-2.14c-.08,.3-.09,.35-.15,.55h1.51c.47,0,.71,0,.94-.03-.02,.19-.03,.45-.03,.91v2.21c0,.46,0,.7,.03,.89-.25-.02-.45-.02-.94-.02h-2.46c-.47,0-.7,0-.94,.02,.02-.18,.03-.47,.03-.89v-2.21c0-.46,0-.7-.03-.91,.23,.02,.47,.03,.94,.03h.21c.09-.28,.1-.31,.16-.55h-2.3c-.33,0-.61,.02-.89,.05v-.75c.27,.04,.52,.06,.9,.06h2.42Zm2.84,5.67c.37,0,.58-.02,.83-.05v.77c-.27-.04-.48-.06-.89-.06h-5.01v.34h-.82c.04-.29,.06-.59,.06-1.03v-3.33c0-.39-.02-.69-.05-.87h.85c-.02,.22-.04,.51-.04,.84v3.39h5.07Zm-3.55-3.36h2.85v-.5h-2.85v.5Zm0,1.1h2.85v-.51h-2.85v.51Zm0,1.14h2.85v-.55h-2.85v.55Z"/><path class="cls-6" d="M104.68,186.35c.17,.02,.23,.02,.36,.02,.22,0,.54,0,1.43-.05q.52-.02,1.93-.06c0-.68-.02-.82-.05-1.02h.85c-.03,.24-.04,.38-.04,1.01,1.46,0,2.06-.02,2.34-.06v.78c-.29-.03-.66-.04-1.34-.04-.22,0-.35,0-.99,.02v1.47c.16,.34,.22,.66,.22,1.05,0,.86-.41,1.61-1.13,2.13-.32,.22-.68,.4-1.38,.65-.18-.38-.26-.49-.49-.74,.66-.15,.98-.28,1.35-.52,.56-.38,.85-.81,.9-1.35-.22,.43-.64,.67-1.19,.67-.81,0-1.41-.57-1.41-1.34,0-.82,.64-1.4,1.54-1.4,.37,0,.66,.1,.85,.27t0-.1v-.78c-1.28,.02-3.21,.12-3.71,.2l-.02-.8Zm2.14,2.54c0,.42,.3,.7,.73,.7,.49,0,.84-.34,.84-.81,0-.18-.05-.3-.16-.39-.14-.14-.35-.22-.59-.22-.46,0-.82,.3-.82,.71Z"/><path class="cls-6" d="M114.11,188.96c-.52,.42-.74,.77-.74,1.13,0,.33,.21,.55,.62,.69,.28,.08,.81,.14,1.42,.14,.97,0,1.96-.14,2.45-.33l.08,.92c-.13,0-.17,0-.31,.03-.84,.12-1.48,.18-2.16,.18-.83,0-1.52-.09-1.94-.26-.66-.26-.98-.68-.98-1.27s.29-1.07,.98-1.66l.58,.44Zm-1.06-3.14c.46,.12,1.24,.19,2.17,.19,1.09,0,1.69-.04,2.18-.15l.04,.75c-.5,.22-1.29,.7-2.09,1.28l-.58-.46c.5-.33,.62-.39,.9-.56,.09-.05,.11-.06,.21-.11,.06-.04,.08-.05,.16-.1-.42,.06-.74,.08-1.17,.08-.5,0-1.17-.04-1.62-.1-.14-.02-.17-.02-.28-.02l.06-.8Z"/><path class="cls-6" d="M121.24,185.24c.03,.54,.3,1.76,.56,2.57,.38-.15,.63-.24,1.04-.38l1.07-.36c.14-.05,.18-.06,.3-.12l.3,.84c-.65,.13-1.69,.45-2.55,.78-1.22,.47-1.83,1.01-1.83,1.62,0,.39,.25,.65,.75,.78,.26,.06,.75,.1,1.26,.1,.93,0,1.87-.12,2.42-.3l.07,.92c-.17,0-.19,0-.62,.06-.85,.09-1.26,.11-1.83,.11-1.07,0-1.74-.12-2.23-.41-.43-.26-.68-.72-.68-1.28,0-.5,.26-1.01,.71-1.38,.31-.26,.56-.42,1.07-.68-.22-.65-.34-1.13-.56-2.19-.08-.39-.08-.4-.13-.52l.87-.14Z"/><path class="cls-6" d="M125.8,187.28c.29,0,1.05-.08,1.73-.18,.14-.75,.22-1.38,.22-1.64,0-.03,0-.08,0-.14l.88,.09c-.02,.1-.04,.16-.06,.26l-.19,1.06c-.03,.18-.03,.2-.06,.3,.22-.02,.34-.02,.52-.02,.51,0,.88,.13,1.13,.39,.28,.29,.38,.66,.38,1.37,0,1.32-.22,2.4-.58,2.85-.22,.26-.45,.36-.85,.36-.33,0-.68-.08-1.22-.26,.02-.14,.02-.24,.02-.3,0-.15,0-.28-.06-.55,.43,.2,.9,.34,1.17,.34,.26,0,.4-.18,.53-.62,.13-.42,.21-1.18,.21-1.87,0-.75-.22-.99-.88-.99-.17,0-.3,0-.51,.03-.32,1.33-.63,2.22-1.13,3.29-.06,.13-.24,.48-.53,1.06l-.78-.43c.24-.3,.56-.88,.83-1.48,.35-.78,.54-1.32,.82-2.38-.62,.08-1.2,.18-1.51,.27l-.08-.8Zm5.36-.73c.81,.92,1.3,1.81,1.66,3l-.75,.39c-.15-.64-.34-1.15-.66-1.73-.3-.57-.55-.92-.93-1.32l.67-.34Zm.29-1.37c.38,.42,.55,.68,.83,1.2l-.5,.27c-.26-.5-.49-.83-.83-1.22l.5-.25Zm.94-.46c.38,.42,.55,.66,.82,1.17l-.49,.28c-.25-.46-.47-.8-.82-1.2l.48-.25Z"/><path class="cls-6" d="M133.47,186.26c.13,0,.22,0,.31,0,.14,0,.26,0,.46-.02,.92-.06,2.84-.17,4.72-.26,.55-.02,.79-.05,.93-.08l.06,.85c-.06,0-.1,0-.14,0-.45,0-1.01,.14-1.5,.38-1.09,.54-1.76,1.41-1.76,2.27,0,.63,.4,1.14,1.09,1.38,.37,.12,.9,.22,1.17,.22,.03,0,.08,0,.14,0l-.12,.9c-.1-.02-.14-.02-.26-.04-.87-.13-1.34-.28-1.82-.57-.67-.41-1.03-1.05-1.03-1.81s.35-1.46,1.05-2.11c.31-.3,.5-.42,.96-.64-.56,.08-.88,.11-1.73,.17-1.39,.1-2.07,.17-2.49,.25l-.05-.89Zm5.48,1.42c.38,.42,.55,.68,.83,1.2l-.5,.27c-.26-.5-.49-.83-.83-1.22l.5-.25Zm.94-.46c.38,.42,.55,.66,.82,1.17l-.49,.28c-.25-.46-.47-.8-.82-1.2l.48-.25Z"/><path class="cls-6" d="M141.42,186.38c.25,.02,.34,.02,.79,.02,.58,0,1.15-.03,1.66-.1-.15-.38-.38-.89-.44-1l.84-.12c.03,.18,.12,.43,.36,1.03,.79-.11,1.62-.3,2.16-.5l.06,.72q-.08,.02-.26,.06s-.1,.02-.2,.05c-.41,.1-1.22,.26-1.51,.31,.12,.28,.17,.38,.36,.75,1.02-.2,1.55-.34,1.86-.48l.07,.74c-.14,.03-.3,.06-.48,.1q-.54,.14-.84,.2t-.3,.06c.42,.7,.61,.95,1.1,1.52l-.61,.43c-.51-.25-1.06-.35-1.84-.35-1.16,0-1.82,.29-1.82,.8,0,.21,.15,.42,.38,.52,.27,.12,.7,.19,1.21,.19,.83,0,1.94-.24,2.42-.53l.14,.83c-.15,.03-.21,.05-.46,.12-.77,.22-1.35,.3-2.09,.3-.85,0-1.41-.11-1.83-.37-.38-.23-.62-.62-.62-1.05s.24-.8,.66-1.07c.41-.26,1.04-.39,1.85-.39,.55,0,1.04,.06,1.47,.2-.18-.19-.38-.48-.72-1.04-.77,.13-1.5,.18-2.8,.22-.4,0-.43,0-.6,.03l-.02-.74c.19,.02,.33,.03,.71,.03,.86,0,1.82-.07,2.41-.18-.1-.18-.14-.25-.38-.76-.66,.08-1.24,.11-2.14,.13-.33,0-.36,0-.53,.02l-.03-.71Z"/><path class="cls-6" d="M149.18,185.64c.26,.04,.41,.05,.85,.05,.73,0,1.67-.04,2.46-.1,.26-.02,.33-.03,.45-.1l.43,.6c-.12,.06-.17,.1-.41,.33-1.11,1.05-1.98,1.77-2.54,2.1l.02,.02c.68-.31,1.16-.42,1.8-.42,1.34,0,2.21,.69,2.21,1.75,0,.74-.38,1.33-1.07,1.72-.52,.29-1.16,.44-1.88,.44-.64,0-1.17-.12-1.48-.34-.3-.21-.48-.54-.48-.9,0-.61,.55-1.06,1.29-1.06,.55,0,1.04,.24,1.36,.66,.16,.21,.25,.38,.37,.74,.27-.09,.43-.17,.6-.29,.31-.23,.49-.57,.49-.95,0-.7-.62-1.13-1.64-1.13-1.17,0-2.38,.5-3.33,1.35l-.46-.71c.72-.38,2.6-1.93,3.64-2.99,.02-.02,.11-.11,.14-.14h0c-.29,.03-1.14,.09-2.36,.14-.18,0-.24,.02-.4,.04l-.04-.82Zm1.65,4.73c-.33,0-.54,.16-.54,.42,0,.35,.41,.57,1.08,.57,.16,0,.21,0,.46-.03-.16-.63-.5-.95-1-.95Z"/></g><rect class="cls-7" x="55.53" y="63.2" width="55.53" height="55.53" rx="4.01" ry="4.01"/><rect class="cls-1" x="59.53" y="67.2" width="55.53" height="55.53" rx="4.01" ry="4.01"/><rect class="cls-7" x="61.53" y="69.2" width="55.53" height="55.53" rx="4.01" ry="4.01"/><rect class="cls-5" x="85.73" y="79.78" width="7.19" height="34.35" rx="1.4" ry="1.4"/><rect class="cls-4" x="73.96" y="94.67" width="8.26" height="19.47" rx="1.4" ry="1.4"/><rect class="cls-2" x="96.37" y="103.39" width="8.26" height="10.74" rx="1.4" ry="1.4"/></svg>