<?xml version="1.0" encoding="UTF-8"?><svg id="Layer_1" xmlns="http://www.w3.org/2000/svg" viewBox="0 0 178.58 249.45"><defs><style>.cls-1{fill:#fff;}.cls-2{fill:#ffa914;}.cls-3{fill:gray;}.cls-4{fill:#4d4d4d;}.cls-5{opacity:.9;}</style></defs><g><path class="cls-1" d="M13.95,3.09H164.63c6,0,10.86,4.87,10.86,10.86V235.5c0,6-4.87,10.86-10.86,10.86H13.95c-6,0-10.86-4.87-10.86-10.86V13.95C3.09,7.96,7.96,3.09,13.95,3.09Z"/><path class="cls-2" d="M164.63,6.18c4.29,0,7.77,3.49,7.77,7.77V235.5c0,4.29-3.49,7.77-7.77,7.77H13.95c-4.29,0-7.77-3.49-7.77-7.77V13.95c0-4.29,3.49-7.77,7.77-7.77H164.63M164.63,0H13.95C6.25,0,0,6.25,0,13.95V235.5C0,243.2,6.25,249.45,13.95,249.45H164.63c7.71,0,13.95-6.25,13.95-13.95V13.95C178.58,6.25,172.34,0,164.63,0h0Z"/></g><g><path class="cls-2" d="M37.18,15.88c-1.05,0-1.5,.01-2.05,.06v-2.23c.7,.08,1.09,.1,2.09,.1h6.94c.41-.01,.61-.05,.87-.14l1.22,1.37c-.2,.19-.27,.28-.58,.81-1.3,2.19-2.34,3.45-4.02,4.85,.54,.65,.9,1.1,1.51,1.93l-1.9,1.48c-.76-1.24-1.39-2.12-2.45-3.31-1.03-1.18-1.62-1.76-2.55-2.52l1.74-1.22c1.04,.85,1.46,1.24,2.19,2.01,.72-.6,1.52-1.41,1.98-2,.32-.39,.66-.94,.81-1.23l-5.8,.03Z"/><path class="cls-2" d="M56.56,24.11c-1.1-1.39-2.22-2.5-3.64-3.6-1.19,1.41-2.7,2.52-4.66,3.47-.44-.89-.71-1.27-1.42-2,1.65-.63,2.95-1.46,4.1-2.56,1.18-1.13,1.95-2.25,2.55-3.72l-3.29,.05c-1.09,.02-1.49,.05-2.01,.13l-.06-2.25c.49,.06,.84,.09,1.33,.09,.1,0,.34,0,.71-.01l4.33-.06c.6-.01,.67-.01,1.01-.14l1.11,1.14c-.19,.19-.27,.32-.46,.75-.67,1.58-1.15,2.47-1.86,3.42,1.53,1.1,2.05,1.55,4.03,3.43l-1.77,1.88Z"/><path class="cls-2" d="M63.15,15.06c.04-.49,.06-1.23,.06-1.62,0-.27,0-.37-.04-.63l2.38,.06c-.06,.29-.06,.33-.14,1.53q-.01,.34-.04,.65h2.76c.42,0,.57-.03,.85-.14l.99,.86c-.14,.25-.17,.36-.18,.94-.09,2.71-.28,4.83-.53,5.66-.37,1.18-.98,1.58-2.38,1.58-.49,0-.68-.01-1.66-.1-.05-1.01-.14-1.43-.43-2.23,.63,.17,1.25,.25,1.65,.25,.61,0,.76-.2,.92-1.3,.13-.85,.24-2.45,.24-3.53h-2.42q-.1,.84-.19,1.27c-.56,2.56-1.76,4.21-4.33,5.9-.57-.9-.95-1.33-1.65-1.93,1.69-.89,2.66-1.79,3.29-3.07,.32-.65,.46-1.1,.63-2.17h-1.58c-.85,0-1.11,.01-1.71,.08v-2.17c.62,.09,.85,.1,1.75,.1h1.75Z"/><path class="cls-2" d="M71.53,17.25c.6,.09,1.28,.11,2.6,.11h6.06c1.27,0,1.75-.03,2.6-.11v2.44c-.61-.06-1.16-.08-2.61-.08h-6.03c-1.42,0-1.84,.01-2.61,.08v-2.44Z"/><path class="cls-2" d="M85.38,24.05c.05-.53,.06-.9,.08-1.94v-7.37c-.01-1.09-.01-1.15-.09-1.84h2.45c-.05,.33-.05,.53-.06,1.85v1.74c2,.65,3.99,1.55,5.76,2.64l-1.2,2.15c-1.05-.75-2.52-1.56-3.99-2.2-.38-.15-.42-.16-.46-.19-.04-.01-.06-.03-.11-.06v3.29c0,.94,.03,1.61,.08,1.94h-2.44Zm5.73-10.44c.49,.56,.9,1.14,1.25,1.81l-1.2,.58c-.42-.8-.75-1.27-1.25-1.85l1.2-.54Zm1.69-.76c.47,.51,.82,.99,1.27,1.76l-1.17,.57c-.44-.8-.8-1.31-1.24-1.81l1.14-.52Z"/></g><path class="cls-2" d="M13.95,0H30V16.05c0,7.7-6.25,13.95-13.95,13.95H0V13.95C0,6.25,6.25,0,13.95,0Z"/><g class="cls-5"><path class="cls-1" d="M15,19.78c-.1,0-.19-.04-.25-.11l-6.73-4.47c-.07-.08-.07-.31,.07-.45l6.58-4.37c.14-.13,.23-.17,.33-.17s.19,.04,.26,.11l6.73,4.49s.03,.1,.03,.2-.04,.19-.11,.26l-6.58,4.35c-.14,.13-.23,.17-.33,.17Z"/><path class="cls-1" d="M15.08,10.66h0m-.08,.07s.04,.03,.07,.05l6.36,4.23-6.36,4.21s-.05,.03-.07,.05c-.02-.02-.05-.03-.07-.05l-6.36-4.21,6.36-4.23s.05-.03,.07-.05m0-.98c-.21,0-.43,.08-.59,.24l-6.65,4.43c-.32,.32-.32,.86,0,1.18l6.65,4.41c.16,.16,.38,.24,.59,.24s.43-.08,.59-.24l6.65-4.41c.32-.32,.32-.86,0-1.18l-6.65-4.43c-.16-.16-.38-.24-.59-.24h0Z"/></g><g><path d="M16.73,165.28c-.23,.29-.48,.53-.89,.86-.2-.64-.3-.83-.56-1.27,.77-.54,1.44-1.2,1.99-1.93,.35-.46,.59-.86,.72-1.19l1.08,.71c-.11,.14-.22,.31-.32,.49-.02,.02-.07,.1-.14,.19-.22,.31-.52,.72-.61,.86v4.86c0,.67,.01,1.02,.05,1.42h-1.39c.05-.32,.07-.72,.07-1.32v-3.68Zm2.24-5.43c-.44,.58-.46,.59-.76,.94-.59,.66-1.29,1.26-2.09,1.76-.2-.47-.36-.71-.67-1.1,1.15-.65,1.96-1.42,2.45-2.35l1.07,.75Zm3.83-.16q-.11,.13-.31,.41c-.3,.42-.83,1.06-1.27,1.54,.34,.29,.46,.4,.72,.66,1-1.08,1.56-1.8,1.8-2.28l1.22,.66c-.08,.08-.17,.19-.43,.52-.62,.74-1.55,1.71-2.35,2.46q.94-.04,2.28-.14c-.19-.26-.3-.41-.64-.83l1-.61c.67,.83,1.15,1.52,1.85,2.64l-1.08,.7c-.29-.52-.36-.66-.53-.95q-1.7,.19-2.79,.28c-.14,.29-.2,.4-.36,.64h1.85c.4,0,.76-.02,.97-.05l.74,.68c-.08,.11-.11,.13-.19,.25-.47,.64-1.09,1.28-1.78,1.86,.92,.42,1.99,.71,3.2,.85-.29,.52-.4,.74-.59,1.31-1.43-.25-2.75-.73-3.74-1.36-1.12,.71-2.18,1.13-3.63,1.42-.23-.59-.31-.76-.6-1.16,1.25-.19,2.2-.5,3.18-1.04-.47-.41-.76-.7-1-1.01-.47,.4-.78,.6-1.42,.96-.33-.55-.4-.64-.79-1.04,1.27-.56,2.21-1.33,2.71-2.21q-1.81,.11-2.15,.17l-.16-1.29c.23,.02,.44,.04,.73,.04h.43q.18-.01,.82-.02l.58-.53c-.7-.67-1.1-1.01-2.21-1.79l.85-.92c.31,.23,.4,.29,.62,.46,.58-.62,1.12-1.38,1.26-1.79l1.2,.55Zm-1.55,6.68c.36,.47,.63,.73,1.13,1.08,.53-.4,.82-.66,1.18-1.08h-2.3Z"/><path d="M36.97,162.24c.61,0,.98-.02,1.31-.07v1.24c-.38-.05-.8-.07-1.31-.07h-2.06c1.05,.91,2.29,1.55,3.8,1.93-.32,.43-.47,.7-.7,1.24-.5-.23-.7-.32-1.09-.54v3.13c0,.56,.01,.86,.07,1.26h-1.32v-.55h-5.33v.55h-1.31c.04-.36,.06-.82,.06-1.26v-3.12c-.32,.18-.48,.26-1,.53-.16-.47-.36-.8-.7-1.19,1.5-.44,2.6-1.05,3.56-1.98h-1.97c-.5,0-.96,.02-1.32,.07v-1.24c.34,.05,.73,.07,1.32,.07h1c-.12-.25-.18-.36-.54-.95l.85-.29c-.74,.02-.86,.04-1.61,.04-.17-.55-.25-.74-.52-1.14,.55,.02,.8,.02,1.15,.02,1.5,0,2.3-.05,4.21-.23,1.38-.13,2.45-.31,3.13-.52l.9,1.1q-.12,.01-.36,.05s-.14,.02-.31,.05c-.66,.1-1.39,.19-3.36,.41v1.45h1.08c.35-.55,.54-.96,.76-1.56l1.26,.31c-.2,.41-.42,.8-.72,1.25h1.04Zm-6.62,4.68h1.99v-.76h-1.99v.76Zm0,1.8h1.99v-.74h-1.99v.74Zm5.14-3.6c-.85-.58-1.39-1.04-1.98-1.74,.01,.11,.01,.17,.01,.18,.02,.14,.02,.16,.02,.23v.32c0,.36,.01,.61,.05,.77h-1.34c.05-.34,.06-.47,.06-.76v-.31c0-.07,.01-.22,.02-.42-.56,.7-1.07,1.16-1.87,1.73h5.02Zm-3.18-4.21q-.49,.04-1.71,.08c.2,.34,.47,.84,.65,1.25h1.07v-1.33Zm1.22,7.82h2.12v-.75h-2.12v.75Zm.01-1.8h2.12v-.75h-2.12v.75Z"/><path d="M44.46,166.54c-.68,1.55-1.45,2.25-2.43,2.25-1.37,0-2.35-1.39-2.35-3.32,0-1.32,.47-2.55,1.32-3.49,1.01-1.1,2.42-1.68,4.13-1.68,2.88,0,4.75,1.75,4.75,4.45,0,2.08-1.08,3.73-2.91,4.47-.58,.24-1.04,.36-1.88,.5-.2-.64-.35-.9-.73-1.4,1.1-.14,1.82-.34,2.39-.66,1.04-.58,1.67-1.72,1.67-3,0-1.15-.52-2.09-1.47-2.66-.37-.22-.68-.31-1.21-.36-.23,1.88-.65,3.54-1.25,4.89Zm-1.76-4.29c-1.01,.72-1.63,1.95-1.63,3.24,0,.98,.42,1.76,.95,1.76,.4,0,.8-.5,1.24-1.54,.46-1.08,.85-2.7,1-4.05-.62,.07-1.06,.24-1.55,.59Z"/><path d="M57.3,159.42c-.05,.2-.08,.8-.08,1.24,0,1.93,.31,3.2,1.17,4.73,.5,.9,1.04,1.54,1.9,2.28,.71,.62,1.07,.88,1.86,1.3-.46,.47-.65,.75-.93,1.33-1.46-1.02-2.2-1.7-3.05-2.83-.73-.97-1.19-1.9-1.59-3.27-.23,.96-.44,1.51-.94,2.42-.48,.88-1,1.52-1.85,2.3-.62,.58-1.02,.86-1.86,1.38-.28-.55-.5-.85-.94-1.24,1.22-.65,1.86-1.14,2.61-2,1.55-1.78,2.2-3.74,2.2-6.62,0-.47-.01-.68-.05-1.01h1.55Z"/><path d="M66.78,159.48c.05,.8,.41,2.53,.79,3.75q.78-.29,3.11-1.06c.22-.07,.28-.1,.46-.18l.52,1.51c-1.04,.2-2.61,.66-3.96,1.15-1.75,.65-2.63,1.42-2.63,2.28s.82,1.25,2.75,1.25c1.5,0,2.97-.18,3.87-.49l.13,1.64c-.26,0-.32,.01-.97,.08-1.29,.13-1.97,.18-2.81,.18-1.67,0-2.71-.2-3.48-.66-.66-.4-1.04-1.14-1.04-2,0-.8,.38-1.57,1.07-2.15,.47-.4,.85-.64,1.63-1.03-.3-.97-.5-1.78-.8-3.25-.12-.58-.13-.6-.19-.78l1.56-.25Z"/><path d="M74.56,165.5c0-.4,.01-.84,.04-1.34-.42,.65-.58,.85-.92,1.26-.11-.47-.3-.97-.54-1.44,.84-.9,1.51-2,1.99-3.29,.23-.59,.4-1.15,.46-1.58l1.38,.35c-.37,1.1-.7,1.92-1.12,2.83v6.63c0,.53,.02,.94,.08,1.39h-1.45c.06-.47,.08-.8,.08-1.4v-3.41Zm5.88,3.08c.71-1.89,1.28-4.13,1.45-5.65l1.46,.33q-.17,.61-.44,1.66c-.26,1.07-.66,2.29-1.15,3.66h1.34c.62,0,1.02-.02,1.38-.07v1.37c-.41-.06-.83-.08-1.43-.08h-5.19c-.59,0-1.06,.02-1.43,.08v-1.37c.36,.05,.75,.07,1.39,.07h2.62Zm-.77-8.33c0-.4-.02-.65-.07-.94h1.45c-.05,.25-.07,.49-.07,.94v1.02h1.82c.6,0,1.01-.02,1.37-.07v1.34c-.38-.04-.82-.06-1.38-.06h-4.67c-.66,0-1.12,.02-1.42,.06v-1.33c.35,.05,.68,.06,1.38,.06h1.58v-1.02Zm-1.2,7.86c-.35-1.86-.7-3.14-1.27-4.62l1.25-.44c.62,1.67,.91,2.72,1.33,4.7l-1.31,.36Z"/><path d="M87.28,162.07c-.55,0-1.01,.01-1.25,.04,.05-.3,.06-.52,.06-.94v-.64c0-.43-.01-.68-.06-.98,.38,.04,.84,.05,1.36,.05h7.15c.53,0,1.12-.02,1.33-.05-.04,.29-.05,.53-.05,.98v.64c0,.46,.01,.65,.05,.94-.24-.02-.64-.04-1.22-.04h-2.79q-.07,.3-.11,.46h3.13c.65,0,.97-.01,1.37-.07v1.14c-.42-.05-.74-.06-1.37-.06h-3.41q-.07,.22-.14,.43h2.77c.48,0,.88-.01,1.12-.04-.02,.29-.04,.61-.04,1.15v2.29c0,.61,.01,.83,.04,1.07-.49-.02-.7-.04-1.16-.04h-4.57c-.47,0-.65,0-1.16,.04,.02-.32,.04-.61,.04-1.07v-2.29c0-.55-.01-.85-.04-1.14,.38,.02,.53,.02,1.1,.02h.7c.08-.25,.08-.26,.14-.43h-3.35c-.61,0-.95,.01-1.37,.06v-1.14c.4,.06,.73,.07,1.37,.07h3.62c.05-.2,.05-.24,.1-.46h-3.35Zm7.69,6.79c.66,0,.94-.01,1.37-.06v1.16c-.41-.06-.73-.07-1.37-.07h-7.57v.46h-1.33c.06-.35,.07-.64,.07-1.19v-3.95c0-.47-.01-.76-.07-1.08h1.39c-.05,.34-.06,.56-.06,1.07v3.66h7.57Zm-6.01-8.28h-1.67v.53h1.67v-.53Zm.59,4.63h4.43v-.4h-4.43v.4Zm0,1.16h4.43v-.41h-4.43v.41Zm0,1.16h4.43v-.41h-4.43v.41Zm2.16-6.96h-1.63v.53h1.63v-.53Zm2.88,.53v-.53h-1.76v.53h1.76Z"/><path d="M97.88,160.71c.49,.11,1.26,.16,2.78,.16,.32-.72,.43-1.08,.48-1.49l1.57,.17q-.07,.12-.48,1.08c-.06,.13-.08,.17-.11,.22q.1-.01,.76-.05c1.39-.08,2.48-.22,3.14-.41l.08,1.37q-.33,.02-.95,.1c-.88,.11-2.4,.2-3.61,.24-.35,.68-.68,1.16-1.1,1.59v.02q.1-.06,.25-.18c.44-.34,1.08-.54,1.69-.54,.94,0,1.52,.44,1.71,1.27,.92-.34,1.54-.55,1.84-.65,.65-.23,.7-.24,.89-.36l.56,1.38c-.34,.05-.7,.14-1.33,.32-.17,.05-.77,.25-1.8,.61v.13q.01,.31,.01,.48v.48c-.01,.2-.01,.31-.01,.4,0,.26,.01,.43,.04,.64l-1.39,.04c.05-.22,.07-.83,.07-1.39v-.29c-.59,.28-.9,.44-1.15,.62-.42,.31-.62,.64-.62,.98,0,.62,.58,.88,2.03,.88s2.67-.18,3.53-.5l.12,1.55c-.2,0-.26,.01-.55,.05-.86,.13-2.01,.22-3.07,.22-1.27,0-2.06-.14-2.67-.5-.55-.31-.88-.89-.88-1.55,0-.49,.14-.88,.53-1.33,.54-.67,1.22-1.13,2.58-1.69-.06-.44-.3-.65-.73-.65-.7,0-1.54,.42-2.46,1.24-.5,.42-.78,.72-1.04,1.09l-1.09-1.08c.31-.24,.66-.58,1.08-1.07,.47-.55,1.2-1.6,1.44-2.05q.05-.1,.1-.16s-.2,.01-.2,.01c-.19,0-1.25-.02-1.51-.02q-.23-.01-.34-.01s-.11,0-.19,.01l.02-1.37Z"/><path d="M111.9,161.12c-.32,0-.68,.02-1.15,.06v-1.44c.35,.05,.6,.06,1.13,.06h1.91c.49,0,.82-.01,1.09-.06-.04,.35-.04,.46-.04,.75,0,1.7,.43,3.29,1.28,4.75,.5,.84,1.09,1.56,1.92,2.3,.61,.56,.96,.82,1.77,1.29-.46,.44-.68,.76-1.02,1.36-1.2-.84-2.1-1.71-2.91-2.82-.44-.59-.71-1.04-1.06-1.78-.31-.66-.42-.96-.61-1.7-.43,1.54-.91,2.55-1.71,3.62-.77,1-1.67,1.83-2.97,2.71-.25-.53-.53-.89-.98-1.26,1.02-.59,1.61-1.04,2.41-1.88,.94-.97,1.67-2.25,2.05-3.55,.24-.83,.35-1.45,.4-2.42h-1.5Z"/><path d="M124.05,163.69c.35-.38,.6-.6,1.46-1.25,1.04-.79,1.8-1.13,2.53-1.13,1.01,0,1.68,.64,1.68,1.59,0,.4-.08,.91-.3,1.83-.41,1.81-.5,2.31-.5,2.7s.18,.6,.49,.6c.26,0,.59-.24,.84-.61,.29-.42,.55-.94,.7-1.37,.26,.64,.41,.89,.8,1.44-.36,.62-.53,.85-.84,1.19-.53,.59-1.12,.86-1.77,.86-.4,0-.77-.12-1.03-.31-.43-.34-.62-.78-.62-1.51s.05-1.02,.49-3.01c.18-.77,.25-1.23,.25-1.51s-.17-.44-.49-.44c-.38,0-.9,.23-1.49,.65-.88,.65-1.73,1.4-2.18,1.96-.02,.54-.02,.88-.02,1.21q0,.1,.01,1.43c.01,1.5,.01,1.54,.06,1.98h-1.55q.07-.49,.08-1.91t.02-1.61h-.02c-.11,.18-.24,.33-.85,1.02-.26,.3-.43,.5-.55,.68l-.7-1.43c.28-.19,.47-.37,.78-.68q1.13-1.12,1.35-1.37c.01-.58,.01-.71,.04-1.18,0-.28,.01-.3,.01-.62-1.27,.08-1.51,.11-1.83,.17l-.07-1.36c.22,.02,.32,.02,.49,.02,.23,0,.89-.04,1.45-.07q.01-.18,.02-.46c0-.34,.01-.71,.01-.98,0-.31,0-.4-.04-.67l1.52,.02c-.04,.14-.04,.17-.05,.44,0,.06-.01,.22-.04,.46-.01,.24-.02,.34-.05,1.07,.01,0,.06-.02,.14-.05l.44,.5c-.12,.1-.17,.14-.35,.36q-.06,.06-.17,.22c-.05,.07-.07,.1-.14,.19l-.02,.71s-.01,.07-.02,.22h.01Z"/><path d="M141.19,162.94c.68,.8,1.42,1.31,2.33,1.61-.31,.42-.48,.73-.62,1.2-.5-.26-.76-.43-1.12-.7-.04,.32-.05,.73-.05,1.26v2.63c0,.65,.02,1.01,.07,1.34h-1.32v-.49h-5.12v.49h-1.32c.05-.37,.07-.73,.07-1.34v-2.63c0-.44-.01-.88-.04-1.18-.43,.38-.59,.52-1.08,.84-.18-.48-.36-.8-.66-1.15,1.01-.53,1.6-1.08,1.99-1.88h-.64c-.55,0-.86,.01-1.2,.06v-1.2c.32,.05,.65,.06,1.24,.06h.94c.05-.3,.07-.42,.11-.71h-.89c-.54,0-.75,.01-1.03,.05v-1.19c.25,.04,.62,.06,1.09,.06h.89v-.12c0-.44,0-.52-.04-.72h1.32c-.01,.12-.04,.4-.06,.84h.47c.47,0,.85-.02,1.07-.06v1.19c-.25-.04-.55-.05-1.01-.05h-.61c-.05,.42-.05,.46-.08,.71h.65c.43,0,.75-.01,1.08-.05v1.18c-.29-.04-.52-.05-1.03-.05h-.5c.46,.53,.95,.89,1.57,1.19-.35,.35-.46,.49-.7,.91h1.31c-.2-.3-.37-.47-.64-.7,.82-.47,1.22-.83,1.58-1.4h-.24c-.52,0-.74,.01-1.03,.05v-1.18c.32,.04,.66,.05,1.09,.05h.56c.05-.26,.07-.4,.11-.71h-.61c-.47,0-.78,.01-1.03,.05v-1.19c.24,.04,.7,.06,1.13,.06h.58c0-.61,0-.62-.04-.84h1.33c-.02,.14-.06,.47-.07,.84h.92c.44,0,.78-.02,1.08-.06v1.19c-.25-.04-.47-.05-1.01-.05h-1.08c-.04,.29-.06,.47-.11,.71h1.37c.6,0,.79-.01,1.14-.05v1.19c-.32-.04-.68-.06-1.2-.06h-.91Zm-4.38,2.1c-.7-.46-1.08-.83-1.51-1.44-.3,.53-.59,.9-1.1,1.42,.29,.01,.64,.02,1.13,.02h1.49Zm-1.45,1.81h5.12v-.74h-5.12v.74Zm0,1.8h5.12v-.77h-5.12v.77Zm5.16-3.61c.55,0,.88-.01,1.2-.04-.64-.5-1.12-1.02-1.49-1.59-.4,.71-.74,1.1-1.42,1.63h1.7Z"/><path d="M145.5,162.63c.32,.04,.44,.04,.71,.04,1.16,0,2.76-.1,4.26-.26,.54-.06,.76-.1,.96-.19l.8,1.03c-.23,.16-.48,.37-1.02,.9-.65,.62-1.68,1.55-2.05,1.83,.3-.11,.46-.14,.73-.14,.46,0,.77,.16,1,.5,.17,.26,.22,.43,.26,1.1,.08,.95,.24,1.12,1.03,1.12s1.74-.18,2.36-.46l.18,1.49c-.2,.01-.28,.02-1.06,.14-.73,.11-1.16,.14-1.68,.14-.85,0-1.33-.13-1.68-.46-.33-.31-.43-.6-.49-1.55-.02-.46-.05-.62-.12-.77-.08-.16-.28-.25-.5-.25-.56,0-1.1,.33-2.07,1.27-.61,.59-1.26,1.28-1.69,1.79l-1.1-1.25q.53-.36,2.78-2.4c.28-.25,.49-.46,1.39-1.32,.32-.31,.79-.76,1.4-1.33-.68,.11-1,.16-1.56,.2q-.17,.01-1.21,.1-.23,.02-.62,.06c-.44,.04-.53,.05-.92,.1l-.08-1.44Zm1.49-3.11c1.35,.42,2.91,.64,4.77,.67l-.23,1.34c-2.39-.14-3.32-.29-4.98-.71l.43-1.31Z"/></g><g><path class="cls-3" d="M17.82,178.45c.19-.36,.3-.68,.39-1.08l.83,.1c-.15,.41-.27,.68-.42,.98h1.89c.45,0,.69,0,.98-.04-.03,.27-.04,.49-.04,.98v4.39c0,.48,0,.69,.05,.93h-.78v-.43h-4.05v.43h-.77c.03-.21,.05-.51,.05-.93v-4.39c0-.47,0-.7-.04-.98,.29,.03,.51,.04,.97,.04h.95Zm-1.16,1.69h4.06v-1.02h-4.06v1.02Zm0,1.7h4.06v-1.04h-4.06v1.04Zm0,1.77h4.06v-1.11h-4.06v1.11Z"/><path class="cls-3" d="M24.92,180.93c-.28,0-.52,.02-.74,.04v-.65c-.37,.39-.62,.62-1.06,.94-.13-.22-.29-.42-.53-.64,.98-.66,1.66-1.4,2.13-2.31,.19-.36,.28-.6,.32-.82l.82,.3c-.07,.1-.12,.19-.22,.41-.35,.75-.76,1.36-1.37,2.03,.18,.02,.4,.03,.65,.03h2.81c.32,0,.5,0,.74-.02-.59-.63-1.06-1.32-1.43-2.09-.04-.08-.13-.25-.18-.34l.75-.29c.06,.2,.13,.38,.3,.69,.55,.98,1.26,1.73,2.27,2.38-.19,.2-.33,.38-.51,.71-.48-.36-.75-.59-1.11-.96q0,.14-.02,.5c-.02,1.74-.14,2.91-.34,3.32-.16,.3-.42,.41-1.01,.41-.2,0-.36,0-.92-.04-.03-.3-.08-.46-.19-.79,.42,.07,.78,.11,1.03,.11,.3,0,.38-.04,.45-.2,.09-.26,.14-.65,.19-1.3,.03-.4,.05-.82,.05-1.14v-.26h-1.67c-.06,.86-.24,1.43-.62,2.06-.44,.73-1.09,1.29-2.03,1.76-.13-.26-.24-.4-.48-.65,.49-.2,.83-.41,1.23-.76,.58-.5,.95-1.15,1.1-1.92,.02-.15,.04-.23,.06-.5h-.46Z"/><path class="cls-3" d="M33.92,182.17c-.46,1.06-.95,1.52-1.58,1.52-.85,0-1.47-.89-1.47-2.1,0-.86,.3-1.66,.86-2.28,.66-.72,1.58-1.1,2.69-1.1,1.86,0,3.09,1.14,3.09,2.87,0,1.34-.7,2.41-1.9,2.9-.38,.15-.69,.24-1.23,.34-.12-.37-.19-.5-.41-.78,.62-.1,.98-.18,1.33-.33,.86-.37,1.39-1.21,1.39-2.17,0-.83-.39-1.5-1.1-1.87-.27-.14-.49-.2-.86-.22-.14,1.19-.43,2.36-.82,3.22Zm-1.1-2.83c-.73,.49-1.17,1.34-1.17,2.25,0,.7,.3,1.25,.69,1.25,.29,0,.58-.35,.9-1.08,.31-.74,.58-1.85,.69-2.81-.44,.05-.75,.15-1.1,.38Z"/><path class="cls-3" d="M39.86,177.93c.22,.04,.39,.05,.74,.05h.64c.35,0,.47,0,.75-.04-.05,.49-.06,.86-.06,1.33v3.98c0,.4,.02,.66,.06,.98h-1.03c.05-.3,.06-.59,.06-.98v-4.5h-.4c-.27,0-.5,.02-.77,.05v-.86Z"/><path class="cls-3" d="M45.01,179.37q.22-.02,1.74-.35c.92-.2,1.61-.28,2.32-.28,1.54,0,2.52,.84,2.52,2.14,0,1.05-.62,1.93-1.73,2.48-.73,.36-1.38,.51-2.74,.65-.09-.36-.14-.5-.34-.86,.97-.03,1.58-.12,2.16-.31,1.12-.37,1.77-1.07,1.77-1.93s-.62-1.37-1.67-1.37c-.84,0-1.88,.18-3.21,.57-.38,.11-.46,.14-.62,.22l-.2-.94Z"/><path class="cls-3" d="M53.4,181.24c-.18,.23-.37,.42-.67,.66-.1-.3-.18-.46-.34-.68,.53-.37,.98-.82,1.36-1.34,.23-.31,.39-.58,.47-.8l.62,.39c-.08,.1-.14,.19-.23,.35-.06,.1-.26,.37-.5,.7v3.27c0,.42,0,.69,.03,.94h-.78c.03-.22,.05-.5,.05-.9v-2.61Zm1.36-3.46c-.06,.08-.06,.09-.15,.2-.49,.66-1.03,1.17-1.7,1.6-.12-.27-.14-.32-.39-.6,.45-.25,.94-.64,1.25-1.04,.18-.22,.26-.35,.38-.58l.6,.42Zm2.55-.07q-.06,.09-.26,.34c-.22,.31-.54,.7-.82,.98,.26,.22,.38,.34,.58,.52,.68-.73,1.07-1.22,1.23-1.56l.7,.38c-.06,.06-.14,.14-.3,.35-.45,.54-1.02,1.15-1.62,1.71,.54-.02,1.13-.06,1.76-.12-.16-.21-.25-.32-.5-.61l.55-.34c.48,.56,.8,.98,1.29,1.72l-.6,.39c-.22-.37-.29-.48-.38-.63q-1.23,.14-2.02,.19c-.14,.26-.15,.3-.3,.5h1.35c.27,0,.5-.02,.65-.03l.42,.39c-.06,.08-.07,.1-.15,.2-.28,.39-.7,.83-1.18,1.22,.64,.34,1.45,.58,2.22,.69-.12,.21-.17,.3-.19,.36q-.1,.28-.14,.36c-.82-.18-1.08-.27-1.69-.54-.37-.16-.54-.26-.81-.42-.66,.45-1.49,.78-2.47,1-.11-.3-.15-.38-.37-.65,.86-.14,1.58-.39,2.27-.78-.38-.33-.56-.52-.78-.8-.34,.29-.58,.47-1.02,.73-.11-.22-.23-.36-.46-.57,.88-.43,1.5-.97,1.83-1.6q-1.3,.07-1.5,.1l-.1-.73c.14,.02,.3,.02,.51,.02,.06,0,.34,0,.86-.02q.36-.34,.46-.43c-.52-.5-.78-.71-1.53-1.24l.48-.52c.22,.17,.3,.23,.46,.35,.42-.44,.79-.97,.89-1.25l.67,.32Zm-1.08,4.41c.29,.36,.53,.58,.89,.85,.41-.31,.61-.51,.87-.85h-1.76Z"/><path class="cls-3" d="M63.73,182.17c-.46,1.06-.95,1.52-1.58,1.52-.85,0-1.47-.89-1.47-2.1,0-.86,.3-1.66,.86-2.28,.66-.72,1.58-1.1,2.69-1.1,1.86,0,3.09,1.14,3.09,2.87,0,1.34-.7,2.41-1.9,2.9-.38,.15-.69,.24-1.23,.34-.12-.37-.19-.5-.41-.78,.62-.1,.98-.18,1.33-.33,.86-.37,1.39-1.21,1.39-2.17,0-.83-.39-1.5-1.1-1.87-.27-.14-.49-.2-.86-.22-.14,1.19-.43,2.36-.82,3.22Zm-1.1-2.83c-.73,.49-1.17,1.34-1.17,2.25,0,.7,.3,1.25,.69,1.25,.29,0,.58-.35,.9-1.08,.31-.74,.58-1.85,.69-2.81-.44,.05-.75,.15-1.1,.38Z"/><path class="cls-3" d="M74.43,179.47c.41,0,.63-.02,.86-.05v.7c-.26-.03-.51-.05-.86-.05h-1.62c.73,.63,1.66,1.1,2.77,1.39-.18,.24-.27,.39-.38,.69-.38-.16-.52-.22-.85-.38v2.23c0,.34,0,.56,.04,.8h-.74v-.39h-3.67v.39h-.74c.03-.22,.05-.52,.05-.8v-1.95c0-.08,0-.09,0-.27-.3,.16-.41,.21-.76,.38-.09-.26-.2-.44-.39-.66,1.08-.32,1.91-.78,2.58-1.42h-1.55c-.34,0-.62,.02-.85,.05v-.7c.22,.03,.47,.05,.85,.05h.76c-.13-.26-.24-.46-.42-.7l.61-.22c.22,.35,.34,.56,.5,.92h.8v-1c-.68,.06-1.63,.09-2.41,.1-.1-.3-.14-.42-.29-.64,.35,.02,.53,.02,.73,.02,1.8,0,3.84-.22,4.8-.52l.51,.62q-.07,0-.21,.02s-.1,.02-.19,.03c-.43,.07-1.66,.24-2.25,.3v1.06h.82c.25-.38,.4-.68,.56-1.11l.7,.2c-.15,.31-.32,.58-.54,.91h.8Zm-4.45,3.1h1.45v-.62h-1.45v.62Zm0,1.24h1.45v-.66h-1.45v.66Zm3.62-2.45c-.62-.38-1.09-.75-1.53-1.25,0,.06,0,.08,0,.13,0,.1,.02,.12,.02,.16v.25c0,.24,0,.42,.03,.53h-.76c.03-.19,.04-.33,.04-.52v-.24c0-.07,0-.14,.02-.3-.42,.5-.83,.86-1.43,1.24h3.6Zm-1.5,1.22h1.55v-.63h-1.55v.63Zm0,1.23h1.55v-.66h-1.55v.66Z"/><path class="cls-3" d="M79.34,182.17c-.46,1.06-.95,1.52-1.58,1.52-.85,0-1.47-.89-1.47-2.1,0-.86,.3-1.66,.86-2.28,.66-.72,1.58-1.1,2.69-1.1,1.86,0,3.09,1.14,3.09,2.87,0,1.34-.7,2.41-1.9,2.9-.38,.15-.69,.24-1.23,.34-.12-.37-.19-.5-.41-.78,.62-.1,.98-.18,1.33-.33,.86-.37,1.39-1.21,1.39-2.17,0-.83-.39-1.5-1.1-1.87-.27-.14-.49-.2-.86-.22-.14,1.19-.43,2.36-.82,3.22Zm-1.1-2.83c-.73,.49-1.17,1.34-1.17,2.25,0,.7,.3,1.25,.69,1.25,.29,0,.58-.35,.9-1.08,.31-.74,.58-1.85,.69-2.81-.44,.05-.75,.15-1.1,.38Z"/><path class="cls-3" d="M87.85,177.56c-.02,.13-.05,.51-.05,.78,0,.61,.1,1.39,.22,1.85,.2,.73,.67,1.62,1.18,2.24,.28,.34,.7,.75,1.1,1.06,.22,.18,.4,.29,.79,.51-.26,.26-.37,.41-.54,.74-.96-.66-1.5-1.17-2.06-1.95-.49-.67-.8-1.36-1.06-2.33-.15,.69-.3,1.09-.59,1.68-.3,.6-.66,1.06-1.2,1.58-.44,.42-.73,.64-1.33,1.02-.17-.3-.29-.46-.54-.68,.89-.48,1.33-.83,1.85-1.46,.96-1.18,1.38-2.52,1.38-4.36,0-.31,0-.46-.03-.67h.87Z"/><path class="cls-3" d="M94.08,177.64c.03,.54,.3,1.76,.56,2.57,.38-.15,.63-.24,1.04-.38l1.07-.36c.14-.05,.18-.06,.3-.12l.3,.84c-.65,.13-1.69,.45-2.55,.78-1.22,.47-1.83,1.01-1.83,1.62,0,.39,.25,.65,.75,.78,.26,.06,.75,.1,1.26,.1,.93,0,1.87-.12,2.42-.3l.07,.92c-.17,0-.19,0-.62,.06-.85,.09-1.26,.11-1.83,.11-1.07,0-1.74-.12-2.23-.41-.43-.26-.68-.72-.68-1.28,0-.5,.26-1.01,.71-1.38,.31-.26,.56-.42,1.07-.68-.22-.65-.34-1.13-.56-2.19-.08-.39-.08-.4-.13-.52l.87-.14Z"/><path class="cls-3" d="M99.4,181.44c0-.3,0-.61,.03-.94-.27,.44-.42,.64-.7,.98-.07-.23-.21-.53-.35-.76,.6-.63,1.07-1.41,1.42-2.29,.15-.39,.26-.8,.3-1.07l.77,.22c-.34,.98-.46,1.26-.76,1.91v4.34c0,.37,.02,.63,.06,.94h-.82c.04-.3,.06-.53,.06-.94v-2.38Zm3.85,2.27c.49-1.28,.91-2.84,1.02-3.8l.82,.21q-.11,.38-.29,1.05c-.21,.78-.5,1.7-.82,2.54h1.04c.4,0,.66-.02,.9-.05v.78c-.26-.04-.54-.06-.92-.06h-3.53c-.38,0-.66,.02-.92,.06v-.78c.23,.03,.49,.05,.9,.05h1.8Zm-.48-5.59c0-.26-.02-.43-.05-.62h.82c-.04,.17-.06,.34-.06,.62v.77h1.32c.39,0,.65-.02,.88-.05v.75c-.26-.02-.52-.04-.88-.04h-3.16c-.44,0-.71,.02-.91,.04v-.75c.23,.04,.46,.05,.9,.05h1.14v-.76Zm-.8,5.21c-.23-1.26-.46-2.11-.86-3.1l.7-.24c.41,1.1,.61,1.8,.88,3.13l-.73,.21Z"/><path class="cls-3" d="M107.84,179.28c-.37,0-.67,0-.83,.02,.02-.19,.03-.34,.03-.6v-.41c0-.27,0-.42-.03-.62,.24,.02,.52,.03,.89,.03h4.69c.38,0,.74-.02,.89-.03-.02,.18-.03,.34-.03,.62v.41c0,.28,0,.42,.03,.6-.17-.02-.43-.02-.83-.02h-1.88c-.05,.22-.06,.24-.09,.37h2.18c.4,0,.61,0,.87-.05v.66c-.26-.04-.49-.05-.87-.05h-2.33c-.05,.14-.05,.15-.12,.37h1.85c.34,0,.6,0,.77-.02-.02,.18-.02,.42-.02,.81v1.43c0,.42,0,.59,.02,.74-.3-.02-.46-.02-.81-.02h-2.92c-.34,0-.5,0-.81,.02,.02-.2,.02-.41,.02-.74v-1.43c0-.36,0-.61-.02-.8,.23,.02,.38,.02,.76,.02h.48q.07-.22,.12-.37h-2.32c-.38,0-.58,0-.86,.05v-.66c.26,.04,.46,.05,.86,.05h2.48c.03-.14,.06-.23,.08-.37h-2.24Zm5.09,4.61c.41,0,.61,0,.87-.05v.67c-.26-.04-.48-.05-.87-.05h-5.14v.32h-.75c.04-.22,.05-.41,.05-.75v-2.67c0-.29-.02-.49-.05-.7h.79c-.03,.22-.04,.38-.04,.7v2.53h5.14Zm-3.95-5.64h-1.27v.49h1.27v-.49Zm.18,3.15h3.17v-.34h-3.17v.34Zm0,.79h3.17v-.34h-3.17v.34Zm0,.82h3.17v-.37h-3.17v.37Zm1.7-4.76h-1.26v.49h1.26v-.49Zm1.9,.49v-.49h-1.28v.49h1.28Z"/><path class="cls-3" d="M116.78,178.6c.22-.5,.32-.78,.34-1.03l.88,.11c-.05,.07-.06,.1-.1,.18q-.09,.21-.25,.58s-.05,.1-.06,.14t.06,0h.04s.18,0,.4-.02c.86-.03,1.7-.14,2.13-.27l.05,.76q-.18,.02-.62,.07c-.56,.07-1.59,.14-2.37,.16-.28,.54-.53,.9-.86,1.25v.02q.06-.05,.18-.13c.35-.27,.78-.42,1.22-.42,.3,0,.59,.1,.78,.26,.18,.15,.27,.32,.33,.61,.65-.24,1.08-.4,1.29-.47,.41-.14,.44-.15,.57-.23l.33,.77c-.45,.08-.98,.25-2.1,.66q0,.29,0,.43v.38c0,.14,0,.22,0,.28,0,.15,0,.27,.02,.39l-.78,.02c.02-.16,.05-.61,.05-1.04v-.19c-.98,.45-1.34,.77-1.34,1.19,0,.48,.42,.66,1.54,.66,.84,0,1.71-.13,2.21-.33l.08,.86c-.14,0-.18,0-.35,.04-.59,.09-1.34,.14-1.99,.14-.81,0-1.34-.1-1.73-.32-.35-.2-.56-.56-.56-.98,0-.74,.66-1.38,2.05-1.97-.04-.34-.22-.51-.54-.51-.48,0-1.07,.29-1.7,.83-.32,.27-.5,.47-.66,.7l-.62-.62c.38-.28,.86-.83,1.29-1.46,.1-.15,.26-.42,.5-.81h-.91c-.2-.02-.35-.02-.46-.02h-.05s-.06,0-.12,0l.02-.76c.4,.07,.83,.1,1.56,.1h.29Z"/><path class="cls-3" d="M124.17,178.59c-.19,0-.41,.02-.7,.04v-.8c.19,.03,.36,.04,.69,.04h1.18c.36,0,.55,0,.74-.04-.02,.18-.02,.34-.02,.5,0,1.07,.26,2.08,.78,3.01,.32,.57,.72,1.08,1.25,1.58,.43,.42,.7,.62,1.31,.98-.28,.26-.38,.4-.58,.75-.88-.62-1.51-1.25-2.09-2.07-.5-.71-.81-1.4-1.03-2.29-.27,1.05-.6,1.76-1.13,2.49-.52,.71-1.14,1.28-2.02,1.89-.15-.3-.3-.47-.57-.69,.74-.44,1.16-.78,1.7-1.38,.62-.68,1.07-1.5,1.32-2.34,.17-.58,.23-1,.26-1.68h-1.09Z"/><path class="cls-3" d="M129.95,182.47c.16-.11,.3-.23,.51-.43q.74-.74,.9-.93c0-.09,.02-.53,.04-1.33-.91,.06-1.03,.07-1.24,.11l-.04-.76c.14,0,.2,0,.29,0,.14,0,.68-.02,1.02-.05q0-.12,0-.33c0-.25,.02-.52,.02-.77,0-.1,0-.18-.02-.34l.86,.02c-.03,.19-.06,.62-.1,1.36,.06,0,.06,0,.13-.04l.26,.3c-.13,.1-.22,.22-.43,.5,0,.06,0,.11,0,.15l-.02,.6c.2-.23,.49-.48,1.01-.89,.73-.55,1.25-.79,1.74-.79,.61,0,1.03,.41,1.03,.99,0,.35-.02,.46-.38,2.02-.1,.48-.16,.82-.16,1.04,0,.29,.14,.46,.39,.46,.19,0,.42-.16,.61-.42,.19-.27,.36-.6,.46-.9,.16,.36,.24,.49,.46,.78-.24,.42-.34,.57-.53,.79-.34,.38-.73,.58-1.14,.58-.24,0-.48-.07-.65-.19-.28-.2-.41-.5-.41-.96,0-.42,.02-.52,.34-2,.11-.51,.17-.85,.17-1.04,0-.23-.13-.36-.38-.36-.27,0-.63,.16-1.07,.48-.54,.39-1.12,.91-1.5,1.33,0,.35,0,.58,0,.8,0,1.11,.02,2.02,.05,2.27h-.87q.05-.34,.06-1.98c0-.21,0-.3,.02-.49-.14,.19-.19,.25-.63,.73-.18,.21-.3,.34-.38,.47l-.41-.8Z"/><path class="cls-3" d="M140.11,179.83c.3,.39,.65,.66,1.11,.88-.17,.14-.3,.31-.43,.54-.53-.34-.79-.6-1.1-1.05-.33,.64-.76,1.09-1.46,1.58-.15-.26-.27-.39-.47-.57,.74-.41,1.13-.8,1.4-1.39h-.51c-.36,0-.58,0-.78,.04v-.68c.23,.03,.42,.04,.8,.04h.68c.04-.2,.06-.32,.08-.56h-.64c-.35,0-.5,0-.69,.03v-.67c.18,.02,.4,.04,.72,.04h.65c0-.1,0-.16,0-.26,0-.18,0-.24-.03-.37h.74c-.02,.08-.03,.29-.05,.62h.38c.32,0,.54-.02,.7-.04v.67c-.17-.02-.35-.03-.66-.03h-.46c-.03,.27-.04,.37-.08,.56h.5c.3,0,.48,0,.71-.03v.66c-.2-.02-.35-.03-.69-.03h-.41Zm3.35,0c.42,.58,.97,.99,1.65,1.21-.18,.23-.27,.4-.37,.66-.83-.44-1.42-.97-1.81-1.65-.3,.56-.54,.85-1.07,1.26h1.22c.39,0,.61,0,.86-.03-.02,.28-.03,.5-.03,.88v1.72c0,.42,.02,.65,.05,.86h-.74v-.36h-3.56v.36h-.74c.03-.23,.05-.46,.05-.86v-1.72c0-.35,0-.59-.03-.88,.25,.02,.46,.03,.86,.03h2.05c-.15-.2-.25-.3-.48-.5,.49-.29,.77-.57,1-1h-.22c-.34,0-.49,0-.69,.03v-.66c.22,.02,.42,.03,.71,.03h.42c.04-.2,.06-.33,.1-.56h-.46c-.31,0-.5,0-.67,.03v-.67c.16,.02,.43,.04,.72,.04h.45v-.18c0-.25,0-.32-.02-.45h.74c-.02,.1-.03,.28-.06,.62h.71c.3,0,.5,0,.7-.04v.67c-.18-.02-.31-.03-.66-.03h-.79c-.02,.22-.04,.34-.08,.56h1c.38,0,.51,0,.74-.03v.67c-.22-.03-.43-.04-.78-.04h-.73Zm-3.81,2.71h3.56v-.61h-3.56v.61Zm0,1.24h3.56v-.64h-3.56v.64Z"/><path class="cls-3" d="M146.54,179.73c.22,.02,.26,.02,.58,.02,.69,0,2.12-.1,2.85-.19,.19-.03,.3-.06,.42-.1l.46,.58c-.15,.1-.3,.23-.7,.62-.53,.52-1.13,1.06-1.45,1.31,.28-.13,.42-.17,.63-.17,.24,0,.45,.1,.6,.29,.13,.17,.16,.3,.2,.76,.03,.41,.06,.57,.16,.68,.1,.12,.26,.17,.57,.17,.56,0,1.18-.12,1.6-.31l.1,.84c-.11,0-.12,0-.68,.1-.48,.08-.76,.1-1.13,.1-.64,0-1-.14-1.19-.48-.1-.18-.14-.33-.17-.86-.02-.31-.04-.43-.09-.53-.06-.11-.19-.18-.34-.18-.4,0-.78,.22-1.42,.85-.39,.37-.88,.87-1.16,1.2l-.62-.69c.29-.2,.41-.3,.85-.7,.81-.74,1.28-1.18,1.77-1.67,.51-.5,.58-.57,.89-.86q.16-.14,.3-.29-.61,.12-2.4,.26c-.27,.02-.3,.02-.58,.06l-.05-.82Zm.96-2.03c.9,.29,1.9,.44,3.07,.46l-.14,.74c-1.48-.1-2.1-.2-3.18-.5l.25-.7Z"/><path class="cls-3" d="M153.88,178.04c.26,.04,.41,.05,.85,.05,.73,0,1.67-.04,2.45-.1,.26-.02,.34-.03,.45-.1l.43,.6c-.12,.06-.17,.1-.41,.33-1.11,1.06-1.98,1.78-2.54,2.1l.02,.02c.68-.31,1.16-.42,1.8-.42,1.34,0,2.21,.69,2.21,1.75,0,.74-.38,1.33-1.07,1.72-.52,.29-1.16,.44-1.88,.44-.64,0-1.17-.12-1.48-.34-.3-.21-.48-.54-.48-.9,0-.61,.55-1.06,1.29-1.06,.55,0,1.04,.24,1.36,.66,.16,.21,.25,.38,.37,.74,.27-.09,.43-.17,.6-.29,.31-.23,.49-.57,.49-.95,0-.7-.62-1.13-1.64-1.13-1.17,0-2.38,.5-3.33,1.35l-.46-.71c.72-.38,2.6-1.93,3.64-2.99l.14-.14h0c-.29,.03-1.14,.09-2.36,.14-.18,0-.24,.02-.4,.04l-.04-.82Zm1.65,4.73c-.33,0-.54,.16-.54,.42,0,.35,.41,.57,1.08,.57,.16,0,.21,0,.46-.03-.16-.63-.5-.95-1-.95Z"/></g><path class="cls-4" d="M74.75,103.6l-3.26,3.26c-.82,.82-2.2,.24-2.18-.91l-.02-10.17c0-.73,.56-1.29,1.29-1.29h10.15c1.15,.02,1.73,1.4,.91,2.22l-3.26,3.26c6.02,6.02,15.81,6.02,21.83,0,1.44-1.44,2.56-3.11,3.29-4.89,.38-.93,1.33-1.47,2.31-1.47,1.86,0,3.09,1.89,2.36,3.6-.98,2.33-2.44,4.51-4.33,6.4-8.04,8.04-21.06,8.04-29.1,0Zm25.46-25.46c-6.02-6.02-15.81-6.02-21.83,0-1.44,1.44-2.56,3.11-3.29,4.89-.38,.93-1.33,1.47-2.31,1.47-1.86,0-3.09-1.89-2.36-3.6,.98-2.33,2.44-4.51,4.33-6.4,8.04-8.04,21.06-8.04,29.1,0l3.26-3.26c.82-.82,2.2-.24,2.18,.91v10.15c0,.73-.56,1.29-1.29,1.29h-10.15c-1.13,0-1.71-1.38-.89-2.2l3.26-3.26Z"/></svg>