<?xml version="1.0" encoding="UTF-8"?><svg id="Layer_1" xmlns="http://www.w3.org/2000/svg" viewBox="0 0 178.58 249.45"><defs><style>.cls-1{fill:#fff;}.cls-2{fill:#ffa914;}.cls-3{fill:gray;}.cls-4{fill:#4d4d4d;}.cls-5{opacity:.9;}</style></defs><g><rect class="cls-1" x="3.09" y="3.09" width="172.41" height="243.27" rx="10.86" ry="10.86"/><path class="cls-2" d="M164.63,6.18c4.29,0,7.77,3.49,7.77,7.77V235.5c0,4.29-3.49,7.77-7.77,7.77H13.95c-4.29,0-7.77-3.49-7.77-7.77V13.95c0-4.29,3.49-7.77,7.77-7.77H164.63M164.63,0H13.95C6.25,0,0,6.25,0,13.95V235.5C0,243.2,6.25,249.45,13.95,249.45H164.63c7.71,0,13.95-6.25,13.95-13.95V13.95C178.58,6.25,172.34,0,164.63,0h0Z"/></g><g><path class="cls-2" d="M37.18,15.88c-1.05,0-1.5,.01-2.05,.06v-2.23c.7,.08,1.09,.1,2.09,.1h6.94c.41-.01,.61-.05,.87-.14l1.22,1.37c-.2,.19-.27,.28-.58,.81-1.3,2.19-2.34,3.45-4.02,4.85,.54,.65,.9,1.1,1.51,1.93l-1.9,1.48c-.76-1.24-1.39-2.12-2.45-3.31-1.03-1.18-1.62-1.76-2.55-2.52l1.74-1.22c1.04,.85,1.46,1.24,2.19,2.01,.72-.6,1.52-1.41,1.98-2,.32-.39,.66-.94,.81-1.23l-5.8,.03Z"/><path class="cls-2" d="M56.56,24.11c-1.1-1.39-2.22-2.5-3.64-3.6-1.19,1.41-2.7,2.52-4.66,3.47-.44-.89-.71-1.27-1.42-2,1.65-.63,2.95-1.46,4.1-2.56,1.18-1.13,1.95-2.25,2.55-3.72l-3.29,.05c-1.09,.02-1.49,.05-2.01,.13l-.06-2.25c.49,.06,.84,.09,1.33,.09,.1,0,.34,0,.71-.01l4.33-.06c.6-.01,.67-.01,1.01-.14l1.11,1.14c-.19,.19-.27,.32-.46,.75-.67,1.58-1.15,2.47-1.86,3.42,1.53,1.1,2.05,1.55,4.03,3.43l-1.77,1.88Z"/><path class="cls-2" d="M63.15,15.06c.04-.49,.06-1.23,.06-1.62,0-.27,0-.37-.04-.63l2.38,.06c-.06,.29-.06,.33-.14,1.53q-.01,.34-.04,.65h2.76c.42,0,.57-.03,.85-.14l.99,.86c-.14,.25-.17,.36-.18,.94-.09,2.71-.28,4.83-.53,5.66-.37,1.18-.98,1.58-2.38,1.58-.49,0-.68-.01-1.66-.1-.05-1.01-.14-1.43-.43-2.23,.63,.17,1.25,.25,1.65,.25,.61,0,.76-.2,.92-1.3,.13-.85,.24-2.45,.24-3.53h-2.42q-.1,.84-.19,1.27c-.56,2.56-1.76,4.21-4.33,5.9-.57-.9-.95-1.33-1.65-1.93,1.69-.89,2.66-1.79,3.29-3.07,.32-.65,.46-1.1,.63-2.17h-1.58c-.85,0-1.11,.01-1.71,.08v-2.17c.62,.09,.85,.1,1.75,.1h1.75Z"/><path class="cls-2" d="M71.53,17.25c.6,.09,1.28,.11,2.6,.11h6.06c1.27,0,1.75-.03,2.6-.11v2.44c-.61-.06-1.16-.08-2.61-.08h-6.03c-1.42,0-1.84,.01-2.61,.08v-2.44Z"/><path class="cls-2" d="M85.38,24.05c.05-.53,.06-.9,.08-1.94v-7.37c-.01-1.09-.01-1.15-.09-1.84h2.45c-.05,.33-.05,.53-.06,1.85v1.74c2,.65,3.99,1.55,5.76,2.64l-1.2,2.15c-1.05-.75-2.52-1.56-3.99-2.2-.38-.15-.42-.16-.46-.19-.04-.01-.06-.03-.11-.06v3.29c0,.94,.03,1.61,.08,1.94h-2.44Zm5.73-10.44c.49,.56,.9,1.14,1.25,1.81l-1.2,.58c-.42-.8-.75-1.27-1.25-1.85l1.2-.54Zm1.69-.76c.47,.51,.82,.99,1.27,1.76l-1.17,.57c-.44-.8-.8-1.31-1.24-1.81l1.14-.52Z"/></g><path class="cls-2" d="M13.95,0H30V16.05c0,7.7-6.25,13.95-13.95,13.95H0V13.95C0,6.25,6.25,0,13.95,0Z"/><g class="cls-5"><path class="cls-1" d="M15,19.78c-.1,0-.19-.04-.26-.11l-6.73-4.47s-.03-.1-.03-.2,.04-.19,.11-.25l6.58-4.37c.14-.13,.23-.17,.33-.17s.19,.04,.26,.11l6.73,4.49c.07,.08,.07,.31-.07,.45l-6.58,4.35c-.14,.13-.23,.17-.33,.17Z"/><path class="cls-1" d="M15.08,10.66h0m-.08,.07s.04,.03,.07,.05l6.36,4.23-6.36,4.21s-.05,.03-.07,.05c-.02-.02-.05-.03-.07-.05l-6.36-4.21,6.36-4.23s.05-.03,.07-.05m0-.98c-.21,0-.43,.08-.59,.24l-6.65,4.43c-.32,.32-.32,.86,0,1.18l6.65,4.41c.16,.16,.38,.24,.59,.24s.43-.08,.59-.24l6.65-4.41c.32-.32,.32-.86,0-1.18l-6.65-4.43c-.16-.16-.38-.24-.59-.24h0Z"/></g><g><path d="M19.21,160.72c.26-.53,.43-1.03,.55-1.58l1.51,.14c-.22,.58-.4,.98-.61,1.44h2.78c.7,0,1.03-.01,1.48-.06-.05,.41-.06,.73-.06,1.48v6.72c0,.71,.01,1.01,.07,1.39h-1.38v-.61h-5.92v.61h-1.36c.05-.3,.07-.83,.07-1.39v-6.72c0-.72-.01-1.06-.06-1.48,.43,.05,.77,.06,1.46,.06h1.46Zm-1.57,2.58h5.92v-1.35h-5.92v1.35Zm0,2.52h5.92v-1.37h-5.92v1.37Zm0,2.6h5.92v-1.45h-5.92v1.45Z"/><path d="M29.91,164.59c-.41,0-.71,.02-1.02,.06v-.85c-.58,.59-.88,.85-1.5,1.33-.2-.41-.49-.77-.92-1.18,1.49-1.03,2.39-2.01,3.15-3.44,.29-.53,.42-.85,.48-1.21l1.44,.52c-.12,.18-.18,.29-.32,.61-.44,.95-1.15,2.01-1.93,2.91,.32,.02,.38,.02,.62,.02h4.41c.29,0,.46,0,.74-.01-.84-.95-1.46-1.89-1.98-3.01-.05-.12-.17-.36-.25-.5l1.33-.52c.08,.31,.2,.56,.47,1.04,.79,1.44,1.82,2.52,3.32,3.48-.5,.59-.6,.72-.91,1.29-.66-.49-.96-.74-1.49-1.26v.41c0,2.48-.2,4.38-.5,5.01-.26,.53-.7,.7-1.76,.7-.24,0-.43-.01-1.23-.05-.06-.53-.14-.82-.36-1.4,.58,.1,1.1,.16,1.45,.16,.44,0,.58-.05,.68-.23,.18-.36,.37-1.94,.37-3.19v-.7h-2.3c-.1,1.25-.36,2.12-.94,3.07-.66,1.1-1.63,1.93-3.05,2.64-.23-.44-.42-.71-.88-1.17,.74-.28,1.24-.58,1.86-1.1,.84-.72,1.37-1.64,1.57-2.73,.04-.21,.05-.35,.07-.7h-.64Z"/><path d="M42.43,159.48c.05,.8,.41,2.53,.79,3.75q.78-.29,3.11-1.06c.22-.07,.28-.1,.46-.18l.52,1.51c-1.04,.2-2.61,.66-3.96,1.15-1.75,.65-2.63,1.42-2.63,2.28s.82,1.25,2.75,1.25c1.5,0,2.97-.18,3.87-.49l.13,1.64c-.26,0-.32,.01-.97,.08-1.29,.13-1.97,.18-2.81,.18-1.67,0-2.71-.2-3.48-.66-.66-.4-1.04-1.14-1.04-2,0-.8,.38-1.57,1.07-2.15,.47-.4,.85-.64,1.63-1.03-.3-.97-.5-1.78-.8-3.25-.12-.58-.13-.6-.19-.78l1.56-.25Z"/><path d="M58.67,163.54c-.12,.22-.19,.38-.34,.76-.62,1.76-1.54,3.09-2.78,4.05-.85,.66-1.63,1.07-3.14,1.63-.26-.6-.41-.8-.94-1.39,1.46-.37,2.41-.82,3.33-1.58,.89-.74,1.4-1.47,1.93-2.81h-5.84c-.8,0-1.1,.01-1.54,.06v-1.46c.46,.07,.72,.08,1.56,.08h5.71c.74,0,.98-.02,1.35-.11l.68,.77Zm-8.29-3.63c.4,.07,.65,.08,1.4,.08h4.19c.76,0,1.01-.01,1.4-.08v1.47c-.37-.05-.6-.06-1.38-.06h-4.23c-.78,0-1.01,.01-1.38,.06v-1.47Z"/><path d="M60.19,167.9c1.03-.06,2.46-.41,3.55-.89,1.5-.65,2.61-1.57,3.56-2.94,.53-.77,.86-1.43,1.22-2.4,.47,.56,.66,.74,1.27,1.17-1.02,2.2-2.16,3.61-3.8,4.7-1.22,.82-2.71,1.4-4.57,1.8-.48,.1-.52,.11-.79,.2l-.44-1.66Zm1.02-7.45c1.43,.89,2.17,1.44,3.09,2.31l-1.03,1.31c-.96-1.02-1.94-1.81-3.06-2.43l1-1.19Z"/><path d="M80.17,161.78c-.14,.19-.19,.3-.37,.8-1.43,3.92-3.29,5.98-6.91,7.66-.36-.61-.58-.89-1-1.25,1.8-.7,3.35-1.73,4.31-2.87-.73-.64-1.7-1.31-2.46-1.7l.91-1.07c.95,.53,1.57,.95,2.41,1.61,.5-.73,1.01-1.8,1.34-2.83l-3.73,.04c-.66,1.13-1.72,2.33-2.81,3.23-.37-.43-.6-.61-1.2-.96,1.22-.9,2.3-2.12,3-3.43,.41-.76,.61-1.22,.71-1.67l1.56,.35c-.13,.23-.14,.24-.36,.68-.2,.42-.23,.47-.29,.58,.12-.01,.16-.01,.34-.02h.29l2.49-.02c.25-.01,.53-.02,.66-.05-.28-.54-.49-.88-.86-1.36l.92-.28c.49,.62,.78,1.1,1.1,1.86l-.44,.14,.38,.55Zm.76-.83c-.29-.66-.64-1.27-1.07-1.83l.89-.29c.49,.59,.78,1.07,1.1,1.8l-.92,.32Z"/><path d="M86.61,159.94c-.13,.26-.14,.29-.31,.86-.91,3-1.61,4.99-2.38,6.84,1.88-.14,3.96-.4,4.99-.61-.13-.29-.28-.55-.56-1.09-.53-1-.74-1.34-1.14-1.91l1.36-.53c1.12,1.63,2.17,3.65,2.9,5.55l-1.45,.76q-.16-.49-.58-1.49-.16,.04-.43,.1c-1.21,.25-3.2,.5-6.79,.85-.67,.06-.85,.08-1.09,.14l-.22-1.62h.31c.24,0,.53-.01,1.03-.04,.64-1.51,1.12-2.87,1.74-4.83,.56-1.76,.79-2.61,.88-3.32l1.74,.34Z"/><path d="M93.29,169.71c-.01-.22-.02-.29-.06-.56-.23-1.45-.31-2.38-.31-3.59,0-1.55,.14-2.91,.49-4.69,.13-.67,.16-.79,.18-1.12l1.58,.17c-.29,.71-.56,2.05-.75,3.59-.12,.9-.17,1.61-.18,2.65,0,.26-.01,.36-.02,.66,.13-.42,.16-.5,.62-1.58l.96,.43c-.66,1.39-1.07,2.78-1.07,3.63,0,.07,0,.17,.01,.32l-1.45,.08Zm5.11-4.74c-.6,.7-.85,1.21-.85,1.73,0,.68,.66,1.04,1.91,1.04,1.06,0,2.1-.17,2.85-.46l.12,1.52c-.17,.01-.22,.02-.49,.07-.96,.16-1.69,.23-2.48,.23-1.49,0-2.45-.33-2.97-1.04-.23-.3-.36-.74-.36-1.17,0-.78,.36-1.58,1.1-2.47l1.18,.55Zm-1.98-3.97c.54,.14,1.17,.19,2.22,.19,1.33,0,2.47-.11,3.26-.32l.07,1.45c-.1,.01-.28,.04-.85,.11-.77,.1-1.68,.14-2.57,.14s-.89,0-2.16-.13l.02-1.44Z"/><path d="M106.92,161.12c-.32,0-.68,.02-1.15,.06v-1.44c.35,.05,.6,.06,1.13,.06h1.91c.49,0,.82-.01,1.09-.06-.04,.35-.04,.46-.04,.75,0,1.7,.43,3.29,1.28,4.75,.5,.84,1.09,1.56,1.92,2.3,.61,.56,.96,.82,1.77,1.3-.46,.44-.68,.75-1.02,1.35-1.2-.84-2.1-1.71-2.91-2.82-.44-.59-.71-1.04-1.06-1.77-.31-.66-.42-.96-.61-1.7-.43,1.54-.91,2.55-1.71,3.62-.77,1-1.67,1.83-2.97,2.71-.25-.53-.53-.89-.98-1.26,1.02-.59,1.61-1.04,2.41-1.88,.94-.97,1.67-2.25,2.05-3.55,.24-.83,.35-1.45,.4-2.42h-1.5Z"/><path d="M119.07,163.69c.35-.38,.6-.6,1.46-1.25,1.04-.79,1.8-1.13,2.53-1.13,1.01,0,1.68,.64,1.68,1.6,0,.4-.08,.91-.3,1.83-.41,1.81-.5,2.31-.5,2.7s.18,.6,.49,.6c.26,0,.59-.24,.84-.61,.29-.42,.55-.94,.7-1.37,.26,.63,.41,.89,.8,1.44-.36,.62-.53,.85-.84,1.19-.53,.59-1.12,.86-1.77,.86-.4,0-.77-.12-1.03-.31-.43-.34-.62-.78-.62-1.51s.05-1.02,.49-3.01c.18-.77,.25-1.23,.25-1.51s-.17-.44-.49-.44c-.38,0-.9,.23-1.49,.65-.88,.65-1.73,1.4-2.18,1.96-.02,.54-.02,.88-.02,1.21q0,.1,.01,1.43c.01,1.5,.01,1.54,.06,1.98h-1.55q.07-.49,.08-1.91t.02-1.61h-.02c-.11,.18-.24,.33-.85,1.02-.26,.3-.43,.5-.55,.68l-.7-1.43c.28-.19,.47-.37,.78-.68q1.13-1.12,1.35-1.37c.01-.58,.01-.71,.04-1.18,0-.28,.01-.3,.01-.62-1.27,.08-1.51,.11-1.83,.17l-.07-1.36c.22,.02,.32,.02,.49,.02,.23,0,.89-.04,1.45-.07q.01-.18,.02-.46c0-.34,.01-.71,.01-.98,0-.31,0-.39-.04-.67l1.52,.02c-.04,.14-.04,.17-.05,.44,0,.06-.01,.22-.04,.46-.01,.24-.02,.34-.05,1.07,.01,0,.06-.02,.14-.05l.44,.5c-.12,.1-.17,.14-.35,.36q-.06,.06-.17,.22c-.05,.07-.07,.1-.14,.19l-.02,.71s-.01,.07-.02,.22h.01Z"/><path d="M136.21,162.94c.68,.8,1.42,1.31,2.33,1.61-.31,.42-.48,.73-.62,1.2-.5-.26-.76-.43-1.12-.7-.04,.32-.05,.73-.05,1.26v2.63c0,.65,.02,1.01,.07,1.34h-1.32v-.49h-5.12v.49h-1.32c.05-.37,.07-.73,.07-1.34v-2.63c0-.44-.01-.88-.04-1.18-.43,.38-.59,.52-1.08,.84-.18-.48-.36-.8-.66-1.15,1.01-.53,1.6-1.08,1.99-1.88h-.64c-.55,0-.86,.01-1.2,.06v-1.2c.32,.05,.65,.06,1.24,.06h.94c.05-.3,.07-.42,.11-.71h-.89c-.54,0-.75,.01-1.03,.05v-1.19c.25,.04,.62,.06,1.09,.06h.89v-.12c0-.44,0-.52-.04-.72h1.32c-.01,.12-.04,.4-.06,.84h.47c.47,0,.85-.02,1.07-.06v1.19c-.25-.04-.55-.05-1.01-.05h-.61c-.05,.42-.05,.46-.08,.71h.65c.43,0,.75-.01,1.08-.05v1.18c-.29-.04-.52-.05-1.03-.05h-.5c.46,.53,.95,.89,1.57,1.19-.35,.35-.46,.49-.7,.91h1.31c-.2-.3-.37-.47-.64-.7,.82-.47,1.22-.83,1.58-1.4h-.24c-.52,0-.74,.01-1.03,.05v-1.18c.32,.04,.66,.05,1.09,.05h.56c.05-.26,.07-.4,.11-.71h-.61c-.47,0-.78,.01-1.03,.05v-1.19c.24,.04,.7,.06,1.13,.06h.58c0-.61,0-.62-.04-.84h1.33c-.02,.14-.06,.47-.07,.84h.92c.44,0,.78-.02,1.08-.06v1.19c-.25-.04-.47-.05-1.01-.05h-1.08c-.04,.29-.06,.47-.11,.71h1.37c.6,0,.79-.01,1.14-.05v1.19c-.32-.04-.68-.06-1.2-.06h-.91Zm-4.38,2.1c-.7-.46-1.08-.83-1.51-1.44-.3,.53-.59,.9-1.1,1.42,.29,.01,.64,.02,1.13,.02h1.49Zm-1.45,1.81h5.12v-.74h-5.12v.74Zm0,1.8h5.12v-.77h-5.12v.77Zm5.16-3.61c.55,0,.88-.01,1.2-.04-.64-.5-1.12-1.02-1.49-1.59-.4,.71-.74,1.1-1.42,1.63h1.7Z"/><path d="M140.52,162.63c.32,.04,.44,.04,.71,.04,1.16,0,2.76-.1,4.26-.26,.54-.06,.76-.1,.96-.19l.8,1.03c-.23,.16-.48,.37-1.02,.9-.65,.62-1.68,1.55-2.05,1.84,.3-.11,.46-.14,.73-.14,.46,0,.77,.16,1,.5,.17,.26,.22,.43,.26,1.1,.08,.95,.24,1.12,1.03,1.12s1.74-.18,2.36-.46l.18,1.49c-.2,.01-.28,.02-1.06,.14-.73,.11-1.16,.14-1.68,.14-.85,0-1.33-.13-1.68-.46-.33-.31-.43-.6-.49-1.55-.02-.46-.05-.62-.12-.77-.08-.16-.28-.25-.5-.25-.56,0-1.1,.34-2.07,1.27-.61,.59-1.26,1.28-1.69,1.79l-1.1-1.25q.53-.36,2.78-2.4c.28-.25,.49-.46,1.39-1.32,.32-.31,.79-.76,1.4-1.33-.68,.11-1,.16-1.56,.2q-.17,.01-1.21,.1-.23,.02-.62,.06c-.44,.04-.53,.05-.92,.1l-.08-1.44Zm1.49-3.11c1.35,.42,2.91,.64,4.77,.67l-.23,1.34c-2.39-.14-3.32-.29-4.98-.71l.43-1.31Z"/></g><g><path class="cls-3" d="M17.82,178.45c.19-.36,.3-.68,.39-1.08l.83,.1c-.15,.41-.27,.68-.42,.98h1.89c.45,0,.69,0,.98-.04-.03,.27-.04,.49-.04,.98v4.39c0,.48,0,.69,.05,.93h-.78v-.43h-4.05v.43h-.77c.03-.21,.05-.51,.05-.93v-4.39c0-.47,0-.7-.04-.98,.29,.03,.51,.04,.97,.04h.95Zm-1.16,1.7h4.06v-1.02h-4.06v1.02Zm0,1.7h4.06v-1.04h-4.06v1.04Zm0,1.77h4.06v-1.11h-4.06v1.11Z"/><path class="cls-3" d="M24.92,180.93c-.28,0-.52,.02-.74,.04v-.65c-.37,.39-.62,.62-1.06,.94-.13-.22-.29-.42-.53-.64,.98-.66,1.66-1.4,2.13-2.31,.19-.36,.28-.6,.32-.82l.82,.3c-.07,.1-.12,.19-.22,.41-.35,.75-.76,1.36-1.37,2.03,.18,.02,.4,.03,.65,.03h2.81c.32,0,.5,0,.74-.02-.59-.63-1.06-1.32-1.43-2.09-.04-.08-.13-.25-.18-.34l.75-.29c.06,.2,.13,.38,.3,.69,.55,.98,1.26,1.74,2.27,2.38-.19,.2-.33,.38-.51,.71-.48-.36-.75-.59-1.11-.96q0,.14-.02,.5c-.02,1.74-.14,2.91-.34,3.32-.16,.3-.42,.41-1.02,.41-.2,0-.36,0-.92-.04-.03-.3-.08-.46-.19-.79,.42,.07,.78,.11,1.03,.11,.3,0,.38-.04,.45-.2,.09-.26,.14-.65,.19-1.3,.03-.4,.05-.82,.05-1.13v-.26h-1.67c-.06,.86-.24,1.43-.62,2.06-.44,.73-1.09,1.29-2.03,1.76-.13-.26-.24-.4-.48-.65,.49-.2,.83-.41,1.23-.76,.58-.5,.95-1.15,1.1-1.92,.02-.15,.04-.23,.06-.5h-.46Z"/><path class="cls-3" d="M33.04,177.64c.03,.54,.3,1.76,.56,2.57,.38-.15,.63-.24,1.04-.38l1.07-.36c.14-.05,.18-.06,.3-.12l.3,.84c-.65,.13-1.69,.45-2.55,.78-1.22,.47-1.83,1.01-1.83,1.62,0,.39,.25,.65,.75,.78,.26,.06,.75,.1,1.26,.1,.93,0,1.87-.12,2.42-.3l.07,.92c-.17,0-.19,0-.62,.06-.85,.09-1.26,.11-1.83,.11-1.07,0-1.74-.12-2.23-.41-.43-.26-.68-.72-.68-1.28,0-.5,.26-1.01,.71-1.38,.31-.26,.56-.42,1.07-.68-.22-.65-.34-1.13-.56-2.19-.08-.39-.08-.4-.13-.52l.87-.14Z"/><path class="cls-3" d="M37.74,179.88c.36,.04,.58,.06,1.1,.06h3.82c.42,0,.54,0,.74-.06l.39,.45c-.07,.13-.11,.22-.22,.5-.44,1.19-1.04,2.05-1.9,2.69-.57,.42-1.09,.68-2.02,1.02-.14-.33-.22-.44-.51-.78,.98-.24,1.64-.55,2.26-1.09,.61-.52,.95-1.03,1.31-1.98h-3.9c-.63,0-.81,0-1.09,.04v-.83Zm.68-1.9c.34,.05,.43,.06,1,.06h2.53c.48,0,.64,0,1.01-.06v.84c-.31-.03-.53-.04-1-.04h-2.55c-.42,0-.6,0-.99,.04v-.84Z"/><path class="cls-3" d="M44.85,183.29c.65-.02,1.62-.27,2.35-.6,1-.44,1.75-1.05,2.38-1.94,.36-.53,.59-.96,.84-1.62,.26,.33,.37,.42,.7,.66-.66,1.45-1.42,2.37-2.49,3.1-.81,.55-1.8,.94-3.02,1.2-.3,.06-.34,.07-.5,.13l-.25-.93Zm.61-4.96c.91,.57,1.42,.95,2.01,1.53l-.58,.71c-.62-.66-1.26-1.18-1.99-1.6l.55-.64Z"/><path class="cls-3" d="M57.92,179.09c-.1,.13-.11,.18-.24,.53-.22,.61-.65,1.52-1,2.08-.81,1.29-1.9,2.2-3.6,2.98-.21-.35-.3-.47-.55-.7,.69-.27,1.1-.49,1.6-.82,.58-.39,.94-.7,1.34-1.18-.57-.5-1.09-.87-1.7-1.21l.52-.58c.67,.38,1.05,.64,1.67,1.14,.4-.62,.73-1.3,.97-2.03l-2.6,.02c-.56,.86-1.1,1.47-1.88,2.11-.22-.25-.32-.33-.67-.54,.86-.64,1.52-1.38,2.02-2.29,.24-.43,.4-.81,.46-1.1l.88,.21q-.09,.14-.26,.49c-.1,.22-.16,.32-.22,.4,.05,0,.16,0,.33-.02l2.4-.03c-.2-.34-.4-.62-.67-.94l.5-.25c.38,.42,.55,.68,.83,1.2l-.35,.19,.22,.31Zm.37-1.96c.38,.42,.55,.66,.82,1.17l-.49,.28c-.25-.46-.47-.8-.82-1.2l.48-.25Z"/><path class="cls-3" d="M62.18,177.97c-.09,.17-.1,.22-.21,.56-.54,1.79-1.1,3.38-1.62,4.62,1.29-.1,2.73-.28,3.55-.45-.36-.73-.83-1.55-1.18-2.04l.75-.3c.74,1.06,1.45,2.39,1.95,3.65l-.8,.42q-.1-.32-.42-1.02-.1,.02-.28,.06c-.88,.18-2.18,.35-4.57,.58-.48,.05-.57,.06-.72,.1l-.11-.91q.1,0,.19,0c.16,0,.25,0,.71-.03,.45-1.06,.77-1.93,1.18-3.2,.38-1.21,.54-1.78,.6-2.25l.98,.2Z"/><path class="cls-3" d="M67.85,177.91c-.17,.41-.34,1.17-.44,1.95-.09,.64-.14,1.49-.15,2.18v.72h.02c.07-.35,.12-.5,.43-1.23l.55,.25c-.41,.86-.69,1.81-.69,2.33,0,.03,0,.1,0,.18l-.82,.06c0-.14-.02-.18-.04-.35-.15-.93-.21-1.52-.21-2.36,0-1.06,.1-1.93,.34-3.12,.08-.42,.1-.5,.11-.71l.89,.11Zm2.1,3.3c-.4,.46-.58,.82-.58,1.17,0,.5,.47,.76,1.38,.76,.71,0,1.4-.1,1.88-.3l.07,.86c-.1,.02-.13,.02-.3,.05-.61,.1-1.11,.15-1.65,.15-.96,0-1.58-.22-1.92-.66-.16-.2-.25-.5-.25-.78,0-.48,.23-.98,.72-1.57l.65,.32Zm-1.2-2.53c.42,.1,.75,.13,1.36,.13,.98,0,1.78-.08,2.24-.22l.04,.82c-.06,0-.1,0-.56,.06-.5,.06-1.11,.1-1.69,.1-.46,0-.82-.02-1.17-.06-.11,0-.14-.02-.22-.02v-.8Z"/><path class="cls-3" d="M73.55,180.55c.21,.03,.34,.04,.63,.04h.5c.26,0,.39,0,.6-.03-.02,.26-.03,.38-.03,.86v1.66c.18,.34,.33,.5,.59,.62,.37,.18,.84,.24,1.76,.24,1.55,0,2.33-.04,3.35-.18-.14,.34-.15,.41-.22,.78-.74,.03-1.7,.05-2.65,.05-1.29,0-1.72-.03-2.13-.16-.45-.14-.76-.38-1.06-.79-.33,.32-.48,.46-.77,.69-.2,.15-.25,.2-.38,.32l-.34-.76c.32-.14,.66-.39,1.15-.85v-1.81h-.44c-.24,0-.35,0-.56,.04v-.73Zm.62-2.93c.56,.53,.81,.79,1.21,1.29l-.56,.54c-.42-.6-.62-.83-1.18-1.34l.53-.49Zm2.37,3.79c-.38,0-.55,0-.75,.03v-.6c.19,.02,.34,.03,.75,.03h.23c0-.22-.02-.29-.04-.45h.74c-.02,.14-.03,.23-.04,.45h1.18c0-.19-.02-.3-.04-.45h.74c-.02,.15-.03,.25-.04,.45h.47c.39,0,.54,0,.74-.03v.6c-.21-.02-.38-.03-.75-.03h-.46v.6h.67c.42,0,.58,0,.78-.03v.62c-.18-.02-.38-.03-.78-.03h-.98c.53,.36,.9,.52,1.62,.7-.21,.21-.31,.34-.45,.59-.74-.26-1.22-.52-1.74-.95l.5-.34h-1.69l.5,.32c-.58,.51-.83,.68-1.45,.94-.11-.18-.25-.34-.49-.52,.62-.22,.95-.4,1.34-.74h-.96c-.32,0-.49,0-.66,.04v-.63c.19,.03,.33,.04,.66,.04h.63v-.6h-.23Zm1.29-2.66c0,.19,0,.32,.02,.43-.2-.02-.31-.02-.51-.02h-1.1v.35c0,.18,.04,.2,.44,.2,.46,0,.6-.02,.66-.08,.04-.05,.06-.14,.08-.39,.18,.12,.34,.18,.55,.23-.05,.44-.12,.6-.31,.69-.13,.06-.39,.09-.98,.09-.92,0-1.06-.06-1.06-.5v-.65c0-.21,0-.34-.02-.46,.14,.02,.27,.02,.54,.02h1.05v-.44h-1c-.31,0-.45,0-.65,.03v-.6c.18,.02,.4,.03,.66,.03h.94c.38,0,.56,0,.71-.02-.02,.13-.02,.21-.02,.43v.66Zm-.39,3.25h1.18v-.6h-1.18v.6Zm3.05-3.25c0,.19,0,.32,.02,.43-.2-.02-.31-.02-.51-.02h-1.09v.35c0,.12,.02,.14,.09,.18,.06,.02,.2,.03,.39,.03,.72,0,.73,0,.76-.48,.21,.12,.35,.18,.58,.23-.1,.74-.17,.78-1.34,.78-.55,0-.75-.02-.89-.07-.17-.07-.23-.19-.23-.44v-.61c0-.1,0-.26-.02-.49,.14,.02,.27,.02,.54,.02h1.05v-.44h-.97c-.31,0-.45,0-.65,.03v-.6c.18,.02,.4,.03,.65,.03h.94c.37,0,.54,0,.7-.02-.02,.11-.02,.21-.02,.43v.66Z"/><path class="cls-3" d="M83.26,177.93c-.34,.73-.63,2.57-.63,3.94v1.03h.02c.12-.47,.14-.53,.38-1.11,.05-.11,.06-.14,.08-.22l.6,.25c-.41,.78-.76,1.86-.76,2.38,0,.05,0,.05,.02,.19l-.83,.06q0-.06-.04-.3c-.16-.98-.22-1.62-.22-2.48,0-1.1,.08-1.79,.38-3.27,.07-.34,.1-.46,.1-.57l.9,.1Zm2.85,.27c0-.16,0-.27-.02-.36h.85c-.04,.21-.06,.56-.06,1.1v.47c.52-.06,1.09-.18,1.33-.28l.03,.75-.22,.04c-.26,.06-.76,.14-1.14,.18v.18c0,.46,0,.5,.05,1.33l.03,.58c.56,.26,.8,.41,1.29,.75,.1,.07,.13,.1,.21,.14l-.33,.8c-.14-.17-.41-.39-.63-.54-.26-.17-.46-.29-.54-.34v.15c0,.22-.03,.4-.1,.54-.2,.42-.74,.67-1.47,.67-.98,0-1.58-.47-1.58-1.24,0-.73,.66-1.25,1.61-1.25,.31,0,.56,.05,.77,.14q-.02-.23-.06-1.86l-.81,.02c-.32,0-.63,0-.94-.02l-.5-.03v-.77c.39,.1,.82,.13,1.67,.13,.21,0,.32,0,.57-.02v-1.27Zm-.67,4.38c-.52,0-.86,.22-.86,.56,0,.32,.34,.54,.82,.54,.3,0,.56-.1,.69-.25,.09-.1,.13-.26,.13-.5,0-.06,0-.14,0-.2-.3-.12-.5-.15-.77-.15Zm2.1-5.21c.26,.46,.38,.74,.55,1.27l-.5,.16c-.18-.58-.31-.9-.55-1.29l.5-.14Zm.94-.24c.25,.42,.39,.74,.55,1.24l-.47,.17c-.16-.5-.32-.87-.55-1.25l.47-.15Z"/><path class="cls-3" d="M89.31,182.47c.16-.11,.3-.23,.51-.43q.74-.74,.9-.93c0-.09,.02-.53,.04-1.33-.91,.06-1.03,.07-1.24,.11l-.04-.76c.14,0,.2,0,.29,0,.14,0,.68-.02,1.02-.05q0-.12,0-.33c0-.25,.02-.52,.02-.77,0-.1,0-.18-.02-.34l.86,.02c-.03,.19-.06,.62-.1,1.36,.06,0,.06,0,.13-.04l.26,.3c-.13,.1-.22,.22-.43,.5,0,.06,0,.11,0,.15l-.02,.6c.2-.23,.49-.48,1.01-.89,.73-.55,1.25-.79,1.74-.79,.61,0,1.03,.41,1.03,.99,0,.35-.02,.46-.38,2.02-.1,.48-.16,.82-.16,1.04,0,.3,.14,.46,.39,.46,.19,0,.42-.16,.61-.42,.19-.27,.36-.6,.46-.9,.16,.36,.24,.49,.46,.78-.24,.42-.34,.57-.53,.79-.34,.38-.73,.58-1.14,.58-.24,0-.48-.07-.65-.19-.28-.2-.41-.5-.41-.96,0-.42,.02-.52,.34-2,.11-.51,.17-.85,.17-1.04,0-.23-.13-.36-.38-.36-.27,0-.63,.16-1.07,.48-.54,.39-1.12,.91-1.5,1.33,0,.35,0,.58,0,.8,0,1.11,.02,2.02,.05,2.27h-.87q.05-.34,.06-1.98c0-.21,0-.3,.02-.49-.14,.19-.19,.25-.63,.73-.18,.21-.3,.34-.38,.47l-.41-.8Z"/><path class="cls-3" d="M97.32,178.93c.3,.06,.52,.07,.98,.07,.18,0,.3,0,.47,0,.1-.5,.17-1.05,.17-1.29,0-.02,0-.06,0-.11l.89,.08q-.06,.18-.15,.76c-.04,.24-.05,.32-.09,.53,.61-.06,1.02-.14,1.39-.26l.04,.77q-.06,0-.24,.04c-.38,.08-.94,.15-1.33,.18-.1,.54-.31,1.42-.52,2.15-.24,.83-.43,1.38-.9,2.57l-.84-.34c.57-1.03,1.15-2.77,1.46-4.35-.07,0-.48,0-.65,0-.06,0-.12,0-.23,0-.12,0-.26,0-.37,0h-.09v-.78Zm3.82,3.03c-.21,.26-.27,.34-.33,.46-.06,.14-.1,.3-.1,.42,0,.42,.45,.65,1.28,.65,.59,0,1.33-.12,1.79-.29l.06,.83c-.13,.02-.18,.02-.38,.06-.63,.1-1,.14-1.46,.14-.68,0-1.18-.1-1.54-.3-.35-.2-.56-.56-.56-.97,0-.38,.14-.7,.58-1.28l.66,.28Zm2.41-1.18c-.38-.04-.61-.05-.98-.05-.76,0-1.28,.06-2.06,.24l-.06-.74c1.06-.21,1.46-.26,2.27-.26,.22,0,.35,0,.82,0l.02,.8Z"/><path class="cls-3" d="M109.89,178.43s0-.09,0-.13c0-.51,.41-.93,.92-.93s.93,.42,.93,.93-.42,.93-.93,.93c-.09,0-.18-.02-.26-.04-.02,.04-.03,.1-.05,.17-.4,1.52-1.02,2.61-1.99,3.51-.72,.67-1.42,1.1-2.54,1.57-.18-.36-.27-.48-.58-.78,.71-.22,1.17-.44,1.78-.83,1.26-.83,2.05-1.98,2.46-3.61h-3.81c-.54,0-.75,.02-1.06,.06v-.9c.32,.05,.54,.06,1.08,.06h4.06Zm.38-.13c0,.3,.24,.54,.54,.54s.54-.25,.54-.54-.24-.54-.54-.54-.54,.25-.54,.54Z"/><path class="cls-3" d="M113.77,177.92c-.03,.23-.04,.4-.04,.95l-.03,4.49c.86-.15,1.6-.44,2.22-.84,.76-.5,1.27-1.06,1.7-1.87,.26,.36,.34,.46,.63,.69-.54,.82-1.05,1.35-1.73,1.81-.77,.52-1.61,.84-2.85,1.08-.24,.05-.33,.07-.46,.13l-.44-.54c.06-.18,.06-.3,.06-.7l.02-4.24v-.22c0-.39,0-.56-.03-.76h.95Z"/><path class="cls-3" d="M125.39,178.25c-.14,.12-.15,.13-.36,.34-.52,.55-1.17,1.11-1.84,1.59v3.22c0,.55,.02,.81,.05,1.05h-.95c.04-.3,.05-.47,.05-1.05v-2.7c-.98,.6-1.48,.82-2.94,1.34-.14-.34-.22-.46-.45-.77,1.54-.41,2.9-1.08,4.17-2.07,.72-.56,1.27-1.11,1.5-1.5l.77,.54Z"/><path class="cls-3" d="M132.85,178.97c-.07,.1-.09,.13-.21,.44-.21,.54-.59,1.16-1,1.62-.26,.3-.5,.5-.94,.85-.22-.24-.32-.31-.67-.53,.51-.33,.78-.55,1.09-.9,.27-.31,.45-.59,.61-.95t.02-.06s.02-.02,.02-.05c-.03,0-.04,0-.07,.02,0,0-.06,.02-.13,.02l-2.82,.48,.64,3.49c.1,.55,.14,.71,.23,1.01l-.9,.16c-.02-.3-.06-.6-.14-1.04l-.65-3.49-.96,.16c-.42,.07-.58,.1-.84,.18l-.14-.85c.31,0,.54-.03,.88-.09l.93-.15-.14-.81c-.07-.36-.1-.5-.18-.77l.9-.14c.02,.23,.03,.38,.11,.78l.14,.8,3.29-.54c.22-.04,.3-.06,.43-.13l.51,.46Z"/><path class="cls-3" d="M133.74,180.61c.3,.04,.64,.06,1.23,.06h4.33c.69,0,.88,0,1.19-.05v.93c-.35-.03-.61-.04-1.2-.04h-4.31c-.67,0-.91,0-1.24,.04v-.94Z"/><path class="cls-3" d="M143.78,177.64c.03,.54,.3,1.76,.56,2.57,.38-.15,.63-.24,1.04-.38l1.07-.36c.14-.05,.18-.06,.3-.12l.3,.84c-.65,.13-1.69,.45-2.55,.78-1.22,.47-1.83,1.01-1.83,1.62,0,.39,.25,.65,.75,.78,.26,.06,.75,.1,1.26,.1,.93,0,1.87-.12,2.42-.3l.07,.92c-.17,0-.19,0-.62,.06-.85,.09-1.26,.11-1.83,.11-1.07,0-1.74-.12-2.23-.41-.43-.26-.68-.72-.68-1.28,0-.5,.26-1.01,.71-1.38,.31-.26,.56-.42,1.07-.68-.22-.65-.34-1.13-.56-2.19-.08-.39-.08-.4-.13-.52l.87-.14Z"/><path class="cls-3" d="M151.45,182.17c-.46,1.06-.95,1.52-1.58,1.52-.85,0-1.47-.89-1.47-2.1,0-.86,.3-1.66,.86-2.28,.66-.72,1.58-1.09,2.69-1.09,1.86,0,3.09,1.14,3.09,2.87,0,1.33-.7,2.41-1.9,2.9-.38,.15-.69,.24-1.23,.34-.12-.37-.19-.5-.41-.78,.62-.1,.98-.18,1.33-.33,.86-.37,1.39-1.21,1.39-2.17,0-.83-.39-1.5-1.09-1.87-.27-.14-.49-.2-.86-.22-.14,1.19-.43,2.36-.82,3.22Zm-1.09-2.83c-.73,.49-1.18,1.34-1.18,2.25,0,.7,.3,1.25,.69,1.25,.29,0,.58-.35,.9-1.08,.31-.74,.58-1.86,.69-2.81-.44,.05-.75,.15-1.09,.38Z"/><path class="cls-3" d="M16.18,191.04c0-.3,0-.61,.03-.94-.27,.44-.42,.64-.7,.98-.07-.23-.21-.53-.35-.76,.6-.63,1.07-1.41,1.42-2.29,.15-.39,.26-.8,.3-1.07l.77,.22c-.34,.98-.46,1.26-.76,1.91v4.34c0,.37,.02,.63,.06,.94h-.82c.04-.3,.06-.53,.06-.94v-2.38Zm3.85,2.27c.49-1.28,.91-2.84,1.02-3.8l.82,.21q-.11,.38-.29,1.05c-.21,.78-.5,1.69-.82,2.54h1.04c.4,0,.66-.02,.9-.05v.78c-.26-.04-.54-.06-.92-.06h-3.53c-.38,0-.66,.02-.92,.06v-.78c.23,.03,.49,.05,.9,.05h1.8Zm-.48-5.59c0-.26-.02-.43-.05-.62h.82c-.04,.17-.06,.34-.06,.62v.77h1.32c.39,0,.65-.02,.88-.05v.75c-.26-.02-.52-.04-.88-.04h-3.16c-.44,0-.71,.02-.91,.04v-.75c.23,.04,.46,.05,.9,.05h1.14v-.76Zm-.8,5.21c-.23-1.26-.46-2.11-.86-3.1l.7-.24c.41,1.1,.61,1.8,.88,3.13l-.73,.21Z"/><path class="cls-3" d="M24.62,188.88c-.37,0-.67,0-.83,.02,.02-.19,.03-.34,.03-.6v-.41c0-.27,0-.42-.03-.62,.24,.02,.52,.03,.89,.03h4.69c.38,0,.74-.02,.89-.03-.02,.18-.03,.34-.03,.62v.41c0,.28,0,.42,.03,.6-.17-.02-.43-.02-.83-.02h-1.88c-.05,.22-.06,.24-.09,.37h2.18c.4,0,.61,0,.87-.05v.66c-.26-.04-.49-.05-.87-.05h-2.33c-.05,.14-.05,.15-.12,.37h1.85c.34,0,.6,0,.77-.02-.02,.18-.02,.42-.02,.81v1.43c0,.42,0,.59,.02,.74-.3-.02-.46-.02-.81-.02h-2.92c-.34,0-.5,0-.81,.02,.02-.2,.02-.41,.02-.74v-1.43c0-.36,0-.61-.02-.8,.23,.02,.38,.02,.76,.02h.48q.07-.22,.12-.37h-2.32c-.38,0-.58,0-.86,.05v-.66c.26,.04,.46,.05,.86,.05h2.48c.03-.14,.06-.23,.08-.37h-2.24Zm5.09,4.61c.41,0,.61,0,.87-.05v.67c-.26-.04-.48-.05-.87-.05h-5.14v.32h-.75c.04-.22,.05-.41,.05-.75v-2.67c0-.29-.02-.49-.05-.7h.79c-.03,.22-.04,.38-.04,.7v2.53h5.14Zm-3.95-5.64h-1.27v.49h1.27v-.49Zm.18,3.15h3.17v-.34h-3.17v.34Zm0,.79h3.17v-.34h-3.17v.34Zm0,.82h3.17v-.37h-3.17v.37Zm1.7-4.76h-1.25v.49h1.25v-.49Zm1.9,.49v-.49h-1.28v.49h1.28Z"/><path class="cls-3" d="M33.56,188.2c.22-.5,.32-.78,.34-1.03l.88,.11c-.05,.07-.06,.1-.1,.18q-.09,.21-.25,.58s-.05,.1-.06,.14t.06,0h.04s.18,0,.4-.02c.86-.03,1.7-.14,2.13-.27l.05,.76q-.18,.02-.62,.07c-.56,.07-1.59,.14-2.38,.16-.28,.54-.53,.9-.86,1.25v.02q.06-.05,.18-.13c.35-.27,.78-.42,1.22-.42,.3,0,.59,.1,.78,.26,.18,.15,.27,.32,.33,.61,.65-.24,1.08-.4,1.3-.47,.41-.14,.44-.15,.57-.23l.33,.77c-.45,.08-.98,.25-2.1,.66q0,.29,0,.43v.38c0,.14,0,.22,0,.28,0,.15,0,.27,.02,.39l-.78,.02c.02-.16,.05-.61,.05-1.04v-.19c-.98,.45-1.34,.77-1.34,1.19,0,.48,.42,.66,1.54,.66,.84,0,1.71-.13,2.21-.33l.08,.86c-.14,0-.18,0-.35,.04-.59,.09-1.34,.14-1.99,.14-.81,0-1.34-.1-1.73-.32-.35-.2-.56-.56-.56-.98,0-.74,.66-1.38,2.05-1.97-.04-.34-.22-.51-.54-.51-.48,0-1.07,.29-1.7,.83-.32,.27-.5,.47-.66,.7l-.62-.62c.38-.28,.86-.83,1.29-1.46,.1-.15,.26-.42,.5-.81h-.91c-.2-.02-.35-.02-.46-.02h-.05s-.06,0-.12,0l.02-.76c.4,.07,.83,.1,1.56,.1h.29Z"/><path class="cls-3" d="M40.94,188.19c-.19,0-.41,.02-.7,.04v-.8c.19,.03,.36,.04,.69,.04h1.18c.36,0,.55,0,.74-.04-.02,.18-.02,.34-.02,.5,0,1.07,.26,2.08,.78,3.01,.32,.57,.72,1.08,1.25,1.58,.43,.42,.7,.62,1.31,.98-.28,.26-.38,.4-.58,.75-.88-.62-1.51-1.25-2.09-2.07-.5-.71-.81-1.4-1.03-2.29-.27,1.05-.6,1.76-1.14,2.49-.52,.71-1.14,1.28-2.02,1.89-.15-.3-.3-.47-.57-.69,.74-.44,1.16-.78,1.7-1.38,.62-.68,1.07-1.5,1.32-2.34,.17-.58,.23-1,.26-1.68h-1.09Z"/><path class="cls-3" d="M46.73,192.07c.16-.11,.3-.23,.51-.43q.74-.74,.9-.93c0-.09,.02-.53,.04-1.33-.91,.06-1.03,.07-1.24,.11l-.04-.76c.14,0,.2,0,.29,0,.14,0,.68-.02,1.02-.05q0-.12,0-.33c0-.25,.02-.52,.02-.77,0-.1,0-.18-.02-.34l.86,.02c-.03,.19-.06,.62-.1,1.36,.06,0,.06,0,.13-.04l.26,.3c-.13,.1-.22,.22-.43,.5,0,.06,0,.11,0,.15l-.02,.6c.2-.23,.49-.48,1.01-.89,.73-.55,1.25-.79,1.74-.79,.61,0,1.03,.41,1.03,.99,0,.35-.02,.46-.38,2.02-.1,.48-.16,.82-.16,1.04,0,.3,.14,.46,.39,.46,.19,0,.42-.16,.61-.42,.19-.27,.36-.6,.46-.9,.16,.36,.24,.49,.46,.78-.24,.42-.34,.57-.53,.79-.34,.38-.73,.58-1.14,.58-.24,0-.48-.07-.65-.19-.28-.2-.41-.5-.41-.96,0-.42,.02-.52,.34-2,.11-.51,.17-.85,.17-1.04,0-.23-.13-.36-.38-.36-.27,0-.63,.16-1.07,.48-.54,.39-1.12,.91-1.5,1.33,0,.35,0,.58,0,.8,0,1.11,.02,2.02,.05,2.27h-.87q.05-.34,.06-1.98c0-.21,0-.3,.02-.49-.14,.19-.19,.25-.63,.73-.18,.21-.3,.34-.38,.47l-.41-.8Z"/><path class="cls-3" d="M56.89,189.43c.3,.39,.65,.66,1.11,.88-.17,.14-.3,.31-.43,.54-.53-.34-.79-.6-1.1-1.05-.33,.64-.76,1.1-1.46,1.58-.15-.26-.27-.39-.47-.57,.74-.41,1.14-.8,1.4-1.39h-.51c-.36,0-.58,0-.78,.04v-.68c.23,.03,.42,.04,.8,.04h.68c.04-.2,.06-.32,.08-.56h-.64c-.35,0-.5,0-.69,.03v-.67c.18,.02,.4,.04,.72,.04h.65c0-.1,0-.16,0-.26,0-.18,0-.24-.03-.37h.74c-.02,.08-.03,.29-.05,.62h.38c.32,0,.54-.02,.7-.04v.67c-.17-.02-.35-.03-.66-.03h-.46c-.03,.27-.04,.37-.08,.56h.5c.3,0,.48,0,.71-.03v.66c-.2-.02-.35-.03-.69-.03h-.41Zm3.35,0c.42,.58,.98,.99,1.65,1.22-.18,.23-.27,.4-.37,.66-.83-.44-1.42-.97-1.81-1.65-.3,.56-.54,.85-1.07,1.26h1.22c.39,0,.61,0,.86-.03-.02,.28-.03,.5-.03,.88v1.72c0,.42,.02,.65,.05,.86h-.74v-.36h-3.56v.36h-.74c.03-.23,.05-.46,.05-.86v-1.72c0-.35,0-.59-.03-.88,.25,.02,.46,.03,.86,.03h2.05c-.15-.2-.25-.3-.48-.5,.49-.29,.77-.57,1-1h-.22c-.34,0-.49,0-.69,.03v-.66c.22,.02,.42,.03,.71,.03h.42c.04-.2,.06-.33,.1-.56h-.46c-.31,0-.5,0-.67,.03v-.67c.16,.02,.43,.04,.72,.04h.45v-.18c0-.25,0-.32-.02-.45h.74c-.02,.1-.03,.28-.06,.62h.71c.3,0,.5,0,.7-.04v.67c-.18-.02-.31-.03-.66-.03h-.79c-.02,.22-.04,.34-.08,.56h1c.38,0,.51,0,.74-.03v.67c-.22-.03-.43-.04-.78-.04h-.73Zm-3.81,2.71h3.56v-.61h-3.56v.61Zm0,1.24h3.56v-.64h-3.56v.64Z"/><path class="cls-3" d="M63.31,189.33c.22,.02,.26,.02,.58,.02,.69,0,2.12-.1,2.85-.19,.19-.03,.3-.06,.42-.1l.46,.58c-.15,.1-.3,.23-.7,.62-.53,.52-1.13,1.06-1.45,1.31,.28-.13,.42-.17,.63-.17,.24,0,.45,.1,.6,.29,.13,.17,.16,.3,.2,.76,.03,.41,.06,.57,.16,.68,.1,.12,.26,.17,.57,.17,.56,0,1.18-.12,1.6-.31l.1,.84c-.11,0-.12,0-.68,.1-.48,.08-.76,.1-1.13,.1-.64,0-1-.14-1.19-.48-.1-.18-.14-.33-.17-.86-.02-.31-.04-.43-.09-.53-.06-.11-.19-.18-.34-.18-.4,0-.78,.22-1.42,.85-.39,.37-.88,.87-1.16,1.2l-.62-.69c.29-.2,.41-.3,.85-.7,.81-.74,1.28-1.18,1.77-1.67,.51-.5,.58-.57,.89-.86q.16-.14,.3-.29-.61,.12-2.4,.26c-.27,.02-.3,.02-.58,.06l-.05-.82Zm.96-2.03c.9,.29,1.9,.44,3.07,.46l-.14,.74c-1.48-.1-2.1-.2-3.18-.5l.25-.7Z"/><path class="cls-3" d="M70.66,187.64c.26,.04,.41,.05,.85,.05,.73,0,1.67-.04,2.45-.1,.26-.02,.34-.03,.45-.1l.43,.6c-.12,.06-.17,.1-.41,.33-1.11,1.06-1.98,1.78-2.53,2.1l.02,.02c.68-.31,1.16-.42,1.8-.42,1.34,0,2.21,.69,2.21,1.75,0,.74-.38,1.34-1.07,1.72-.52,.29-1.16,.44-1.88,.44-.64,0-1.18-.12-1.48-.34-.3-.21-.48-.54-.48-.9,0-.61,.55-1.06,1.29-1.06,.55,0,1.04,.24,1.36,.66,.16,.21,.25,.38,.37,.74,.27-.09,.43-.17,.6-.29,.31-.23,.49-.57,.49-.95,0-.7-.62-1.13-1.64-1.13-1.18,0-2.38,.5-3.33,1.35l-.46-.71c.72-.38,2.6-1.93,3.64-2.99,.02-.02,.11-.11,.14-.14h0c-.29,.03-1.14,.09-2.36,.14-.18,0-.24,.02-.4,.04l-.04-.82Zm1.65,4.73c-.33,0-.54,.16-.54,.42,0,.35,.41,.57,1.08,.57,.16,0,.21,0,.46-.03-.16-.63-.5-.95-1-.95Z"/></g><path class="cls-4" d="M88.18,87.75l-3.07-3.07c-.27-.27-.7-.27-.97,0s-.27,.7,0,.97l3.07,3.07,.98-.96Zm3.27-2.97l.82,.82-8.14,8.14c-.27,.27-.27,.7,0,.97s.7,.27,.97,0l8.15-8.13,.82,.82c.21,.21,.58,.06,.58-.25v-2.61c0-.19-.15-.34-.34-.34h-2.61c-.31,0-.46,.37-.25,.58Zm-.36,5.88l-.97,.97,2.15,2.15-.82,.83c-.21,.21-.06,.58,.25,.58h2.61c.19,0,.34-.15,.34-.34v-2.61c0-.31-.37-.46-.58-.24l-.82,.82-2.15-2.16Z"/><path class="cls-4" d="M74.75,74.49l-3.26-3.26c-.82-.82-2.2-.24-2.18,.91l-.02,10.17c0,.73,.56,1.29,1.29,1.29h10.15c1.15-.02,1.73-1.4,.91-2.22l-3.26-3.26c6.02-6.02,15.81-6.02,21.83,0,1.44,1.44,2.56,3.11,3.29,4.89,.38,.93,1.33,1.47,2.31,1.47,1.86,0,3.09-1.89,2.36-3.6-.98-2.33-2.44-4.51-4.33-6.4-8.04-8.04-21.06-8.04-29.1,0Zm25.46,25.46c-6.02,6.02-15.81,6.02-21.83,0-1.44-1.44-2.56-3.11-3.29-4.89-.38-.93-1.33-1.47-2.31-1.47-1.86,0-3.09,1.89-2.36,3.6,.98,2.33,2.44,4.51,4.33,6.4,8.04,8.04,21.06,8.04,29.1,0l3.26,3.26c.82,.82,2.2,.24,2.18-.91v-10.15c0-.73-.56-1.29-1.29-1.29h-10.15c-1.13,0-1.71,1.38-.89,2.2l3.26,3.26Z"/></svg>