<?xml version="1.0" encoding="UTF-8"?><svg id="Layer_1" xmlns="http://www.w3.org/2000/svg" viewBox="0 0 178.58 249.45"><defs><style>.cls-1{fill:#fff;}.cls-2{fill:#ffa914;}.cls-3{fill:gray;}.cls-4{fill:#4d4d4d;}.cls-5{opacity:.9;}</style></defs><g><path class="cls-1" d="M13.95,3.09H164.63c6,0,10.86,4.87,10.86,10.86V235.5c0,6-4.87,10.86-10.86,10.86H13.95c-6,0-10.86-4.87-10.86-10.86V13.95C3.09,7.96,7.96,3.09,13.95,3.09Z"/><path class="cls-2" d="M164.63,6.18c4.29,0,7.77,3.49,7.77,7.77V235.5c0,4.29-3.49,7.77-7.77,7.77H13.95c-4.29,0-7.77-3.49-7.77-7.77V13.95c0-4.29,3.49-7.77,7.77-7.77H164.63M164.63,0H13.95C6.25,0,0,6.25,0,13.95V235.5C0,243.2,6.25,249.45,13.95,249.45H164.63c7.71,0,13.95-6.25,13.95-13.95V13.95C178.58,6.25,172.34,0,164.63,0h0Z"/></g><g><path class="cls-2" d="M37.18,15.88c-1.05,0-1.5,.01-2.05,.06v-2.23c.7,.08,1.09,.1,2.09,.1h6.94c.41-.01,.61-.05,.87-.14l1.22,1.37c-.2,.19-.27,.28-.58,.81-1.3,2.19-2.34,3.45-4.02,4.85,.54,.65,.9,1.1,1.51,1.93l-1.9,1.48c-.76-1.24-1.39-2.12-2.45-3.31-1.03-1.18-1.62-1.76-2.55-2.52l1.74-1.22c1.04,.85,1.46,1.24,2.19,2.01,.72-.6,1.52-1.41,1.98-2,.32-.39,.66-.94,.81-1.23l-5.8,.03Z"/><path class="cls-2" d="M56.56,24.11c-1.1-1.39-2.22-2.5-3.64-3.6-1.19,1.41-2.7,2.52-4.66,3.47-.44-.89-.71-1.27-1.42-2,1.65-.63,2.95-1.46,4.1-2.56,1.18-1.13,1.95-2.25,2.55-3.72l-3.29,.05c-1.09,.02-1.49,.05-2.01,.13l-.06-2.25c.49,.06,.84,.09,1.33,.09,.1,0,.34,0,.71-.01l4.33-.06c.6-.01,.67-.01,1.01-.14l1.11,1.14c-.19,.19-.27,.32-.46,.75-.67,1.58-1.15,2.47-1.86,3.42,1.53,1.1,2.05,1.55,4.03,3.43l-1.77,1.88Z"/><path class="cls-2" d="M63.15,15.06c.04-.49,.06-1.23,.06-1.62,0-.27,0-.37-.04-.63l2.38,.06c-.06,.29-.06,.33-.14,1.53q-.01,.34-.04,.65h2.76c.42,0,.57-.03,.85-.14l.99,.86c-.14,.25-.17,.36-.18,.94-.09,2.71-.28,4.83-.53,5.66-.37,1.18-.98,1.58-2.38,1.58-.49,0-.68-.01-1.66-.1-.05-1.01-.14-1.43-.43-2.23,.63,.17,1.25,.25,1.65,.25,.61,0,.76-.2,.92-1.3,.13-.85,.24-2.45,.24-3.53h-2.42q-.1,.84-.19,1.27c-.56,2.56-1.76,4.21-4.33,5.9-.57-.9-.95-1.33-1.65-1.93,1.69-.89,2.66-1.79,3.29-3.07,.32-.65,.46-1.1,.63-2.17h-1.58c-.85,0-1.11,.01-1.71,.08v-2.17c.62,.09,.85,.1,1.75,.1h1.75Z"/><path class="cls-2" d="M71.53,17.25c.6,.09,1.28,.11,2.6,.11h6.06c1.27,0,1.75-.03,2.6-.11v2.44c-.61-.06-1.16-.08-2.61-.08h-6.03c-1.42,0-1.84,.01-2.61,.08v-2.44Z"/><path class="cls-2" d="M85.38,24.05c.05-.53,.06-.9,.08-1.94v-7.37c-.01-1.09-.01-1.15-.09-1.84h2.45c-.05,.33-.05,.53-.06,1.85v1.74c2,.65,3.99,1.55,5.76,2.64l-1.2,2.15c-1.05-.75-2.52-1.56-3.99-2.2-.38-.15-.42-.16-.46-.19-.04-.01-.06-.03-.11-.06v3.29c0,.94,.03,1.61,.08,1.94h-2.44Zm5.73-10.44c.49,.56,.9,1.14,1.25,1.81l-1.2,.58c-.42-.8-.75-1.27-1.25-1.85l1.2-.54Zm1.69-.76c.47,.51,.82,.99,1.27,1.76l-1.17,.57c-.44-.8-.8-1.31-1.24-1.81l1.14-.52Z"/></g><path class="cls-2" d="M13.95,0H30V16.05c0,7.7-6.25,13.95-13.95,13.95H0V13.95C0,6.25,6.25,0,13.95,0Z"/><g class="cls-5"><path class="cls-1" d="M15,19.78c-.1,0-.19-.04-.26-.11l-6.73-4.47c-.07-.08-.07-.31,.07-.45l6.58-4.37c.14-.13,.23-.16,.33-.16s.19,.04,.26,.1l6.73,4.49c.07,.08,.07,.31-.07,.45l-6.58,4.35c-.14,.13-.23,.17-.33,.17Z"/><path class="cls-1" d="M15.08,10.66h0m-.08,.07s.04,.03,.07,.05l6.36,4.23-6.36,4.21s-.05,.03-.07,.05c-.02-.02-.05-.03-.07-.05l-6.36-4.21,6.36-4.23s.05-.03,.07-.05m0-.98c-.21,0-.43,.08-.59,.24l-6.65,4.43c-.32,.32-.32,.86,0,1.18l6.65,4.41c.16,.16,.38,.24,.59,.24s.43-.08,.59-.24l6.65-4.41c.32-.32,.32-.86,0-1.18l-6.65-4.43c-.16-.16-.38-.24-.59-.24h0Z"/></g><g><path d="M22.21,159.95v-.92c.01-.79,0-1.06-.05-1.33h1.55c-.04,.28-.05,.34-.05,.8q0,.73-.01,1.45h.77c.85,0,1.09-.01,1.56-.08v1.46c-.42-.05-.74-.06-1.54-.06h-.8c-.02,1.44-.02,1.52-.08,1.98-.17,1.54-.68,2.55-1.73,3.44-.65,.55-1.24,.86-2.34,1.26-.23-.52-.38-.74-.9-1.27,1.14-.35,1.71-.64,2.29-1.14,.82-.71,1.16-1.5,1.27-2.88,.02-.28,.02-.56,.05-1.39h-3.11v1.8c0,.5,.01,.7,.05,1.01h-1.56c.04-.26,.05-.59,.05-1.03v-1.78h-.73c-.79,0-1.12,.01-1.54,.06v-1.46c.47,.07,.71,.08,1.56,.08h.71v-1.2c0-.5-.01-.75-.06-1.07h1.57c-.05,.4-.05,.42-.05,1.03v1.24h3.12Z"/><path d="M36.55,158.56c-.2,.18-.26,.23-.44,.42-.9,.94-1.8,1.71-2.83,2.47v5.12c0,.66,.01,1.01,.06,1.33h-1.68c.06-.35,.07-.59,.07-1.29v-4.22c-1.4,.84-2.07,1.15-4.28,1.94-.25-.62-.38-.83-.8-1.37,2.37-.65,4.39-1.64,6.3-3.12,1.07-.83,1.88-1.65,2.23-2.24l1.38,.96Z"/><path d="M39.83,166.75c-.83,0-1.12,.01-1.48,.05v-1.55c.44,.07,.66,.08,1.5,.08h5.46v-5.23h-5.25c-.85,0-1.1,.01-1.54,.06v-1.56c.44,.07,.67,.08,1.55,.08h5.77q.62,0,1.04-.02c-.04,.32-.04,.44-.04,1v6.58c0,.6,.01,.94,.06,1.24h-1.61v-.73h-5.47Z"/><path d="M51.11,166.64v.84h-1.55c.04-.29,.05-.58,.05-1.03v-6.87c0-.46-.01-.68-.05-1.01,.29,.02,.54,.04,1.02,.04h6.81c.52,0,.73-.01,1.01-.04-.02,.31-.04,.55-.04,1v6.86c0,.44,.01,.77,.05,1.04h-1.55v-.83h-5.76Zm5.76-6.68h-5.76v5.31h5.76v-5.31Z"/><path d="M60.66,158.71c.49,.11,1.26,.16,2.78,.16,.32-.72,.43-1.08,.48-1.49l1.57,.17q-.07,.12-.48,1.08c-.06,.13-.08,.17-.11,.22q.1-.01,.76-.05c1.39-.08,2.48-.22,3.14-.41l.08,1.37q-.34,.03-.95,.1c-.88,.11-2.4,.2-3.61,.24-.35,.68-.68,1.16-1.1,1.6v.02q.1-.06,.25-.18c.44-.34,1.08-.54,1.69-.54,.94,0,1.52,.44,1.71,1.27,.92-.34,1.54-.55,1.83-.65,.65-.23,.7-.24,.89-.36l.56,1.38c-.34,.05-.7,.14-1.33,.32-.17,.05-.77,.25-1.8,.61v.13q.01,.31,.01,.48v.48c-.01,.2-.01,.31-.01,.4,0,.26,.01,.43,.04,.64l-1.39,.04c.05-.22,.07-.83,.07-1.39v-.29c-.59,.28-.9,.44-1.15,.62-.42,.31-.62,.64-.62,.98,0,.62,.58,.88,2.03,.88s2.67-.18,3.53-.5l.12,1.55c-.2,0-.26,.01-.55,.05-.86,.13-2.01,.21-3.07,.21-1.27,0-2.06-.14-2.67-.5-.55-.31-.88-.89-.88-1.55,0-.49,.14-.88,.53-1.33,.54-.67,1.22-1.13,2.58-1.69-.06-.44-.3-.65-.73-.65-.7,0-1.54,.42-2.46,1.24-.5,.42-.78,.72-1.04,1.09l-1.09-1.08c.31-.24,.66-.58,1.08-1.07,.47-.55,1.2-1.59,1.44-2.05q.05-.1,.1-.16s-.2,.01-.2,.01c-.19,0-1.25-.02-1.51-.02q-.23-.01-.34-.01s-.11,0-.19,.01l.02-1.37Z"/><path d="M71.88,162.11c.55,.22,.89,.29,2.11,.46,.05-.43,.16-1.23,.22-1.68-.71-.1-.9-.12-1.72-.3-.17-.04-.23-.05-.41-.08l.12-1.32c.5,.19,1.35,.36,2.17,.43,.17-1.01,.24-1.63,.24-1.99,0-.04,0-.06-.01-.12l1.6,.14c-.13,.37-.17,.55-.38,2.03,1.36-.02,2.05-.08,2.73-.25l-.05,1.4c-.16,.01-.22,.02-.48,.05-.86,.07-1.25,.1-1.68,.1-.12,0-.23,0-.74-.01-.12,.88-.16,1.12-.23,1.69,.36,.01,.46,.01,.59,.01,.85,0,1.71-.08,2.29-.24l-.04,1.38c-.12,0-.16,0-.36,.04-.53,.06-1.24,.11-1.8,.11-.19,0-.3,0-.77-.02-.04,.32-.06,.64-.06,.85,0,.59,.13,.96,.44,1.24,.35,.3,.83,.44,1.49,.44,1.52,0,2.4-.67,2.4-1.85,0-.7-.36-1.37-1.08-2.03,.67-.05,.92-.1,1.49-.3,.3,.35,.43,.53,.56,.76,.31,.53,.52,1.21,.52,1.76,0,.85-.42,1.68-1.15,2.24-.68,.53-1.58,.79-2.71,.79-2.18,0-3.37-1.04-3.37-2.97,0-.31,.01-.61,.06-1.02-.72-.1-1.19-.17-1.67-.28-.25-.06-.29-.06-.46-.07l.13-1.38Z"/><path d="M82.66,161.36q.31-.01,1.39-.2c1.7-.3,2.75-.41,3.77-.41s1.71,.16,2.27,.49c.74,.44,1.16,1.25,1.16,2.19,0,1.37-.83,2.61-2.28,3.44-.98,.56-1.82,.82-3.78,1.13-.12-.63-.25-.94-.62-1.5,1.39-.06,2.69-.4,3.61-.91,.95-.53,1.46-1.28,1.46-2.11,0-.9-.64-1.36-1.88-1.36-1.35,0-3.75,.42-4.75,.83l-.35-1.6Zm1.87-3.83c1.33,.44,3.11,.7,5,.7h.34l-.2,1.48c-2.18-.1-3.84-.31-5.6-.76l.47-1.42Z"/><path d="M103.72,163.37c-.55-.06-1.1-.08-1.82-.08h-7.1c-.67,0-1.3,.04-1.83,.08v-1.58c.52,.06,1.05,.08,1.83,.08h7.1c.8,0,1.36-.02,1.82-.08v1.58Z"/><path d="M106.99,161.17c-.02,1.83-.13,3.14-.34,4.23-.22,1.13-.48,1.88-1.02,2.85-.34-.48-.59-.76-1.01-1.1,.4-.73,.59-1.26,.74-2.05,.26-1.25,.35-2.57,.35-5.41,0-.89-.01-1.2-.05-1.63,.42,.04,.84,.06,1.36,.06h2.99v-.26c0-.26-.02-.46-.06-.68h1.43c-.05,.2-.06,.4-.06,.7v.25h2.97c.67,0,1.09-.02,1.45-.07v1.25c-.4-.04-.7-.05-1.26-.05h-.92v.84h1.15c.49,0,.76-.01,1.07-.06v1.19c-.28-.04-.52-.05-1.07-.05h-1.15v1.13c0,.3,.01,.55,.04,.76-.28-.01-.3-.01-.78-.01h-3.33c-.47,0-.62,0-.84,.01,.02-.2,.05-.5,.05-.76v-1.13h-1.7Zm7.54,3.21c-.11,.11-.12,.12-.23,.24-.65,.75-1.26,1.31-1.98,1.8,1.04,.37,2.09,.54,3.55,.56-.23,.44-.37,.83-.5,1.36-2.01-.25-3.21-.58-4.33-1.16-1.25,.6-2.28,.9-4.1,1.17-.1-.46-.19-.71-.47-1.23,1.51-.11,2.43-.3,3.43-.67-.67-.52-1.03-.88-1.63-1.7-.42,.01-.6,.02-.85,.05v-1.13c.3,.05,.65,.06,1.28,.06h4.19c.49,0,.71-.01,1-.04l.65,.7Zm-5.84-4.29v-.84h-1.69v.84h1.69Zm1.03,4.65c.36,.44,.74,.74,1.39,1.13,.64-.37,.95-.61,1.49-1.13h-2.88Zm2.58-4.65v-.84h-2.35v.84h2.35Zm-2.35,1.91h2.35v-.83h-2.35v.83Z"/><path d="M117.76,160.7c-.3,0-.54,.01-.84,.06v-1.28c.29,.05,.49,.06,.85,.06h.42v-1.02c0-.56-.01-.86-.07-1.21h1.38c-.05,.37-.06,.63-.06,1.21v1.02h.37c.28,0,.42-.01,.62-.05v1.25c-.23-.02-.38-.04-.61-.04h-.38v1.81c.29-.12,.46-.21,.92-.43v1.21c-.49,.25-.64,.32-.92,.46v3.36c0,.91-.31,1.17-1.39,1.17-.23,0-.29,0-.86-.02-.06-.52-.11-.72-.29-1.25,.34,.05,.73,.08,.97,.08,.26,0,.32-.06,.32-.34v-2.51c-.41,.16-.68,.26-1.01,.37-.07,.02-.11,.04-.18,.07l-.19-1.32c.37-.06,.78-.17,1.38-.38v-2.29h-.43Zm7.74,2.04c.12,.82,.16,1.01,.31,1.5,.53-.35,.83-.61,1.22-1.07l.84,.83q-.24,.19-.96,.78c-.17,.16-.36,.29-.66,.48,.44,.79,.88,1.25,1.72,1.86-.37,.39-.6,.7-.84,1.13-.94-.88-1.45-1.55-1.88-2.46-.47-.98-.65-1.63-.84-3.05h-.66v3.71c.55-.14,.78-.2,1.46-.43v1.16c-.85,.3-1.52,.48-3.12,.86-.24,.06-.3,.07-.55,.16l-.29-1.33c.35,0,.65-.04,1.28-.16v-3.97h-.66c-.08,1.57-.18,2.31-.43,3.24-.23,.83-.5,1.49-.92,2.26-.37-.44-.56-.64-1.01-.98,1.04-1.68,1.25-3.02,1.25-8.01,0-.83-.01-1.15-.05-1.52,.41,.04,.91,.06,1.42,.06h4.21c.56,0,.97-.02,1.33-.07v1.28c-.28-.04-.62-.05-1.25-.05h-4.47v1.26c0,.55-.01,.85-.02,1.44h4.83c.5,0,.77-.01,1.04-.06v1.21c-.24-.04-.49-.05-.9-.05h-1.4Zm1.68-1.87c-.24-.04-.48-.05-.86-.05h-3.13c-.38,0-.56,.01-.8,.04v-1.15c.2,.04,.41,.05,.8,.05h3.12c.42,0,.64-.01,.88-.05v1.16Z"/><path d="M132.57,162.38c1.09-.43,1.62-.55,2.52-.55,2.05,0,3.37,1.05,3.37,2.7,0,1.14-.56,2.05-1.63,2.65-.78,.44-1.8,.68-2.9,.68-1.01,0-1.85-.19-2.33-.55-.46-.34-.72-.84-.72-1.38,0-1,.86-1.71,2.06-1.71,.84,0,1.57,.35,2.08,.98,.24,.3,.37,.56,.55,1.08,1-.37,1.43-.89,1.43-1.74,0-.94-.92-1.55-2.38-1.55-1.75,0-3.5,.71-4.94,2.02l-.82-1.29c.42-.2,.9-.53,1.69-1.13,1.12-.85,2.67-2.19,3.59-3.12,.02-.02,.14-.14,.22-.22h-.01c-.46,.05-1.22,.1-3.39,.19-.26,.01-.35,.02-.58,.06l-.06-1.44c.41,.05,.76,.07,1.42,.07,1.02,0,2.48-.06,3.65-.14,.42-.04,.55-.06,.74-.16l.74,1.05c-.2,.11-.29,.18-.62,.49-.6,.55-1.47,1.33-1.88,1.68-.22,.18-1.08,.83-1.32,.98q-.3,.21-.49,.31l.02,.02Zm.36,2.99c-.43,0-.71,.22-.71,.55,0,.48,.54,.75,1.43,.75,.23,0,.29,0,.62-.05-.22-.83-.67-1.26-1.34-1.26Z"/></g><g><path class="cls-3" d="M15.65,178.74c.25,.1,.45,.16,.78,.22,.03,0,.25,.04,.64,.1,.03-.31,.11-.9,.17-1.25-.55-.07-.63-.08-1.17-.2-.11-.02-.14-.03-.26-.06l.08-.74c.34,.14,.88,.25,1.44,.3,.11-.67,.18-1.17,.18-1.35v-.12l.89,.08c-.06,.15-.07,.22-.13,.54q-.02,.07-.07,.46c-.03,.18-.04,.26-.07,.43,.14,0,.25,0,.31,0,.61,0,1.15-.06,1.56-.16l-.03,.78c-.1,0-.14,.02-.34,.03-.5,.04-.77,.06-1.01,.06-.1,0-.21,0-.61,0-.11,.75-.13,.91-.17,1.25,.25,0,.33,0,.45,0,.58,0,1.15-.06,1.5-.14l-.02,.76c-.08,0-.1,0-.23,.02-.35,.04-.8,.06-1.17,.06-.15,0-.25,0-.58-.02-.02,.32-.03,.48-.03,.65,0,.41,.1,.68,.33,.87,.24,.22,.58,.32,1.05,.32,1.02,0,1.66-.5,1.66-1.3,0-.47-.25-.94-.74-1.37,.37-.04,.5-.06,.82-.18,.2,.22,.29,.34,.38,.48,.23,.36,.36,.78,.36,1.17,0,.56-.27,1.09-.74,1.45-.45,.34-1.03,.51-1.73,.51s-1.24-.17-1.62-.5c-.37-.33-.54-.79-.54-1.45,0-.23,0-.34,.04-.7-.43-.05-.82-.11-1.15-.19-.15-.03-.18-.04-.28-.05l.08-.77Z"/><path class="cls-3" d="M22.77,178.24q.2-.02,.88-.14c1.11-.2,1.83-.28,2.49-.28,.61,0,1.11,.11,1.45,.32,.48,.29,.74,.79,.74,1.39,0,.88-.53,1.69-1.46,2.23-.63,.38-1.18,.54-2.44,.75-.1-.38-.15-.53-.34-.82,1.03-.06,2-.35,2.61-.8,.49-.35,.75-.84,.75-1.38,0-.26-.12-.51-.32-.67-.23-.18-.54-.26-.99-.26-.91,0-2.5,.27-3.16,.54l-.2-.89Zm1.22-2.53c.87,.31,2.05,.47,3.43,.48l-.12,.81c-1.39-.06-2.44-.22-3.57-.51l.26-.78Z"/><path class="cls-3" d="M36.67,179.45c-.34-.04-.66-.06-1.15-.06h-4.81c-.44,0-.85,.02-1.16,.06v-.93c.32,.04,.66,.06,1.16,.06h4.81c.51,0,.88-.02,1.15-.06v.93Z"/><path class="cls-3" d="M38.8,177.97c-.05,2.57-.24,3.57-.9,4.76-.19-.26-.33-.41-.57-.6,.27-.5,.41-.86,.52-1.38,.18-.86,.24-1.77,.24-3.69,0-.53,0-.77-.03-1.02,.27,.02,.54,.04,.87,.04h2.03v-.2c0-.18-.02-.32-.05-.48h.81c-.03,.14-.04,.28-.04,.49v.19h2.07c.44,0,.7-.02,.93-.05v.7c-.26-.02-.46-.03-.84-.03h-5.03v.67h1.26v-.07c0-.18-.02-.32-.03-.44h.76c-.03,.23-.03,.3-.03,.42v.09h1.68v-.06c0-.15-.02-.3-.03-.45h.76c-.02,.13-.03,.27-.03,.46v.06h.85c.34,0,.5,0,.72-.04v.68c-.18-.03-.36-.04-.72-.04h-.85v.79c0,.18,0,.35,.02,.5-.15-.02-.22-.02-.52-.02h-2.04c-.32,0-.45,0-.57,.02,.02-.15,.03-.34,.03-.5v-.79h-1.26Zm5,2.16c-.06,.07-.09,.1-.31,.35-.35,.4-.75,.75-1.21,1.06,.73,.29,1.5,.45,2.47,.49-.13,.24-.22,.46-.3,.75-1.26-.17-2.1-.41-2.86-.83-.83,.43-1.61,.66-2.8,.85-.06-.26-.12-.41-.28-.7,1.03-.09,1.73-.25,2.45-.55-.5-.38-.76-.64-1.18-1.22-.42,0-.46,0-.66,.03v-.65c.19,.03,.42,.04,.83,.04h2.84c.29,0,.43,0,.62-.02l.38,.4Zm-3.21,.2c.24,.33,.56,.6,1.03,.89,.48-.3,.71-.47,1.11-.89h-2.14Zm.17-1.67h1.68v-.69h-1.68v.69Z"/><path class="cls-3" d="M49.95,177.36v-.72c0-.52,0-.62-.03-.82h.86c-.02,.19-.02,.24-.03,.54v1h.58c.53,0,.7,0,1-.06v.83c-.27-.03-.5-.04-.98-.04h-.6q-.02,1.08-.06,1.38c-.11,.99-.46,1.67-1.14,2.25-.42,.35-.79,.56-1.5,.81-.13-.29-.22-.41-.5-.7,.72-.22,1.13-.42,1.53-.77,.54-.48,.78-1.01,.85-1.95,.02-.22,.02-.5,.03-1.02h-2.21v.94c0,.42,.02,.77,.04,.97h-.9c.02-.26,.04-.57,.04-.94v-.97h-.57c-.47,0-.66,0-.98,.04v-.83c.33,.05,.49,.06,1,.06h.55v-.74c0-.28-.02-.64-.04-.81h.9c-.03,.23-.05,.51-.05,.8v.74h2.22Z"/><path class="cls-3" d="M59.29,176.25c-.14,.12-.15,.13-.36,.34-.52,.55-1.17,1.11-1.84,1.59v3.22c0,.55,.02,.81,.05,1.05h-.95c.04-.3,.05-.47,.05-1.05v-2.7c-.98,.6-1.48,.82-2.94,1.34-.14-.34-.22-.46-.45-.77,1.54-.41,2.9-1.08,4.17-2.07,.72-.56,1.27-1.11,1.5-1.5l.77,.54Z"/><path class="cls-3" d="M61.58,181.68c-.6,0-.74,0-1.02,.04v-.88c.3,.05,.45,.06,1.03,.06h3.61v-3.64h-3.46c-.6,0-.75,0-1.06,.04v-.88c.33,.05,.42,.06,1.07,.06h3.65q.4,0,.67-.02c-.02,.22-.02,.31-.02,.65v4.2c0,.4,0,.58,.04,.86h-.9v-.48h-3.63Z"/><path class="cls-3" d="M68.84,181.61v.55h-.87c.02-.22,.04-.5,.04-.98v-3.98c0-.41,0-.61-.04-.83,.39,.02,.54,.03,.99,.03h3.79c.48,0,.68,0,.97-.04-.02,.22-.03,.44-.03,.84v3.97c0,.53,0,.78,.03,.98h-.86v-.55h-4.01Zm4.01-4.45h-4.01v3.7h4.01v-3.7Z"/><path class="cls-3" d="M77.17,176.6c.22-.5,.32-.78,.34-1.03l.88,.11c-.05,.07-.06,.1-.1,.18q-.09,.21-.25,.58s-.05,.1-.06,.14t.06,0h.04s.18,0,.4-.02c.86-.03,1.7-.14,2.13-.27l.05,.76q-.18,.02-.62,.07c-.56,.07-1.59,.14-2.38,.16-.28,.54-.53,.9-.86,1.25v.02q.06-.05,.18-.13c.35-.27,.78-.42,1.22-.42,.3,0,.59,.1,.78,.26,.18,.15,.27,.32,.33,.61,.65-.24,1.08-.4,1.29-.47,.41-.14,.44-.15,.57-.23l.33,.77c-.45,.08-.98,.25-2.1,.66q0,.29,0,.43v.38c0,.14,0,.22,0,.28,0,.15,0,.27,.02,.39l-.78,.02c.02-.16,.05-.61,.05-1.04v-.19c-.98,.45-1.34,.77-1.34,1.19,0,.48,.42,.66,1.54,.66,.84,0,1.71-.13,2.21-.33l.08,.86c-.14,0-.18,0-.35,.04-.59,.09-1.34,.14-1.99,.14-.81,0-1.34-.1-1.73-.32-.35-.2-.56-.56-.56-.98,0-.74,.66-1.38,2.05-1.97-.04-.34-.22-.51-.54-.51-.48,0-1.07,.29-1.7,.83-.32,.27-.5,.47-.66,.7l-.62-.62c.38-.28,.86-.83,1.29-1.46,.1-.15,.26-.42,.5-.81h-.91c-.2-.02-.35-.02-.46-.02h-.05s-.06,0-.12,0l.02-.76c.4,.07,.83,.1,1.56,.1h.29Z"/><path class="cls-3" d="M82.99,177.67c-.22,0-.37,0-.57,.04v-.72c.19,.03,.33,.04,.58,.04h.32v-.73c0-.37,0-.57-.05-.81h.79c-.04,.25-.05,.44-.05,.81v.73h.27c.2,0,.31,0,.44-.03v.7c-.17-.02-.26-.02-.43-.02h-.28v1.37c.26-.12,.35-.17,.66-.33v.68c-.33,.18-.42,.22-.66,.34v2.33c0,.54-.18,.7-.83,.7-.11,0-.34,0-.59-.02-.03-.28-.06-.41-.16-.7,.24,.04,.51,.06,.67,.06,.18,0,.22-.05,.22-.22v-1.84c-.18,.07-.49,.19-.72,.27-.03,.02-.06,.03-.11,.06l-.13-.74c.26-.05,.47-.11,.96-.3v-1.65h-.33Zm4.92,1.35c.08,.58,.14,.8,.26,1.15,.45-.29,.67-.48,1-.84l.46,.47q-.83,.68-1.21,.93c.33,.58,.66,.93,1.28,1.36-.2,.2-.24,.26-.47,.62-.66-.57-1.05-1.05-1.35-1.64-.31-.62-.46-1.13-.6-2.06h-.47v2.62c.42-.1,.59-.16,1.06-.33v.65c-.61,.23-1.11,.38-2.11,.62-.14,.04-.18,.05-.34,.1l-.18-.74c.23,0,.42-.03,.9-.14v-2.78h-.52c-.06,1.04-.13,1.58-.29,2.17-.15,.57-.33,.98-.63,1.51-.21-.25-.31-.34-.56-.54,.3-.47,.46-.84,.59-1.36,.18-.73,.26-1.84,.26-3.81,0-.66,0-.92-.03-1.18,.26,.02,.58,.04,.91,.04h2.8c.36,0,.62-.02,.85-.05v.73c-.18-.02-.4-.03-.81-.03h-3.05v.75c0,.44,0,.68-.02,1.16h3.26c.34,0,.54,0,.72-.04v.69c-.17-.02-.33-.03-.65-.03h-1.07Zm1.26-1.25c-.17-.02-.32-.03-.57-.03h-2.05c-.26,0-.38,0-.54,.03v-.67c.14,.02,.26,.03,.54,.03h2.05c.26,0,.42,0,.58-.03v.67Z"/><path class="cls-3" d="M91.38,176.04c.26,.04,.41,.05,.85,.05,.73,0,1.67-.04,2.46-.1,.26-.02,.33-.03,.45-.1l.43,.6c-.12,.06-.17,.1-.41,.33-1.11,1.05-1.98,1.77-2.54,2.1l.02,.02c.68-.31,1.16-.42,1.8-.42,1.34,0,2.21,.69,2.21,1.75,0,.74-.38,1.33-1.07,1.72-.52,.29-1.16,.44-1.88,.44-.64,0-1.17-.12-1.48-.34-.3-.21-.48-.54-.48-.9,0-.61,.55-1.05,1.29-1.05,.55,0,1.04,.24,1.36,.66,.16,.21,.25,.38,.37,.74,.27-.09,.43-.17,.6-.29,.31-.23,.49-.57,.49-.95,0-.7-.62-1.13-1.64-1.13-1.17,0-2.38,.5-3.33,1.35l-.46-.71c.72-.38,2.6-1.93,3.64-2.99,.02-.02,.11-.11,.14-.14h0c-.29,.03-1.14,.09-2.36,.14-.18,0-.24,.02-.4,.04l-.04-.82Zm1.65,4.73c-.33,0-.54,.16-.54,.42,0,.35,.41,.57,1.08,.57,.16,0,.21,0,.46-.03-.16-.63-.5-.95-1-.95Z"/><path class="cls-3" d="M99.55,179.36c-.52,.42-.74,.77-.74,1.13,0,.33,.21,.55,.62,.69,.28,.08,.81,.14,1.42,.14,.97,0,1.96-.14,2.45-.33l.08,.92c-.13,0-.17,0-.31,.03-.84,.12-1.48,.18-2.16,.18-.83,0-1.52-.09-1.94-.26-.66-.26-.98-.68-.98-1.27s.29-1.07,.98-1.66l.58,.44Zm-1.06-3.14c.46,.12,1.24,.19,2.17,.19,1.09,0,1.69-.04,2.18-.15l.04,.75c-.5,.22-1.29,.7-2.09,1.28l-.58-.46c.5-.33,.62-.39,.9-.56,.09-.05,.11-.06,.21-.11,.06-.04,.08-.05,.16-.1-.42,.06-.74,.08-1.17,.08-.5,0-1.17-.04-1.62-.1-.14-.02-.17-.02-.28-.02l.06-.8Z"/><path class="cls-3" d="M106.68,175.64c.03,.54,.3,1.76,.56,2.57,.38-.15,.63-.24,1.04-.38l1.07-.36c.14-.05,.18-.06,.3-.12l.3,.84c-.65,.13-1.69,.45-2.55,.78-1.22,.47-1.83,1.01-1.83,1.62,0,.39,.25,.65,.75,.78,.26,.06,.75,.1,1.26,.1,.93,0,1.87-.12,2.42-.3l.07,.92c-.17,0-.19,0-.62,.06-.85,.09-1.26,.11-1.83,.11-1.07,0-1.74-.12-2.23-.41-.43-.26-.68-.72-.68-1.28,0-.5,.26-1.01,.71-1.38,.31-.26,.56-.42,1.07-.68-.22-.65-.34-1.13-.56-2.19-.08-.39-.08-.4-.13-.52l.87-.14Z"/><path class="cls-3" d="M111.24,177.68c.29,0,1.05-.08,1.73-.18,.14-.75,.22-1.38,.22-1.64,0-.03,0-.08,0-.14l.88,.09c-.02,.1-.04,.16-.06,.26l-.19,1.06c-.03,.18-.03,.2-.06,.3,.22-.02,.34-.02,.52-.02,.51,0,.88,.13,1.13,.39,.28,.29,.38,.66,.38,1.37,0,1.32-.22,2.4-.58,2.85-.22,.26-.45,.36-.85,.36-.33,0-.68-.08-1.22-.26,.02-.14,.02-.24,.02-.3,0-.15,0-.28-.06-.55,.43,.2,.9,.34,1.17,.34,.26,0,.4-.18,.53-.62,.13-.42,.21-1.18,.21-1.87,0-.75-.22-.99-.88-.99-.17,0-.3,0-.51,.03-.32,1.33-.63,2.22-1.13,3.29-.06,.13-.24,.48-.53,1.06l-.78-.43c.24-.3,.56-.88,.83-1.48,.35-.78,.54-1.32,.82-2.38-.62,.08-1.2,.18-1.51,.27l-.08-.8Zm5.36-.73c.81,.92,1.3,1.81,1.66,3l-.75,.39c-.15-.64-.34-1.15-.66-1.73-.3-.57-.55-.92-.93-1.32l.67-.34Zm.29-1.37c.38,.42,.55,.68,.83,1.2l-.5,.27c-.26-.5-.49-.83-.83-1.22l.5-.25Zm.94-.46c.38,.42,.55,.66,.82,1.17l-.49,.28c-.25-.46-.47-.8-.82-1.2l.48-.25Z"/><path class="cls-3" d="M118.91,176.66c.13,0,.22,0,.31,0,.14,0,.26,0,.46-.02,.92-.06,2.84-.17,4.72-.26,.55-.02,.79-.05,.93-.08l.06,.85c-.06,0-.1,0-.14,0-.45,0-1.01,.14-1.5,.38-1.09,.54-1.76,1.41-1.76,2.27,0,.63,.4,1.14,1.09,1.38,.37,.12,.9,.22,1.17,.22,.03,0,.08,0,.14,0l-.12,.9c-.1-.02-.14-.02-.26-.04-.87-.13-1.34-.28-1.82-.57-.67-.41-1.03-1.05-1.03-1.81s.35-1.46,1.05-2.11c.31-.3,.5-.42,.96-.64-.56,.08-.88,.11-1.73,.17-1.39,.1-2.07,.17-2.49,.25l-.05-.89Zm5.48,1.42c.38,.42,.55,.68,.83,1.2l-.5,.27c-.26-.5-.49-.83-.83-1.22l.5-.25Zm.94-.46c.38,.42,.55,.66,.82,1.17l-.49,.28c-.25-.46-.47-.8-.82-1.2l.48-.25Z"/><path class="cls-3" d="M126.86,176.78c.25,.02,.34,.02,.79,.02,.58,0,1.15-.03,1.66-.1-.15-.38-.38-.89-.44-1l.84-.12c.03,.18,.12,.43,.36,1.03,.79-.11,1.62-.3,2.16-.5l.06,.72q-.08,.02-.26,.06s-.1,.02-.2,.05c-.41,.1-1.22,.26-1.51,.31,.12,.28,.17,.38,.36,.75,1.02-.2,1.55-.34,1.86-.48l.07,.74c-.14,.03-.3,.06-.48,.1q-.54,.14-.84,.2t-.3,.06c.42,.7,.61,.95,1.1,1.52l-.61,.43c-.51-.25-1.06-.35-1.84-.35-1.16,0-1.82,.29-1.82,.8,0,.21,.15,.42,.38,.52,.27,.12,.7,.19,1.21,.19,.83,0,1.94-.24,2.42-.53l.14,.83c-.15,.03-.21,.05-.46,.12-.77,.22-1.35,.3-2.09,.3-.85,0-1.41-.11-1.83-.37-.38-.23-.62-.62-.62-1.05s.24-.8,.66-1.07c.41-.26,1.04-.39,1.85-.39,.55,0,1.04,.06,1.47,.2-.18-.19-.38-.48-.72-1.04-.77,.13-1.5,.18-2.8,.22-.4,0-.43,0-.6,.03l-.02-.74c.19,.02,.33,.03,.71,.03,.86,0,1.82-.07,2.41-.18-.1-.18-.14-.25-.38-.76-.66,.08-1.24,.11-2.14,.13-.33,0-.36,0-.53,.02l-.03-.71Z"/><path class="cls-3" d="M134.62,176.04c.26,.04,.41,.05,.85,.05,.73,0,1.67-.04,2.46-.1,.26-.02,.33-.03,.45-.1l.43,.6c-.12,.06-.17,.1-.41,.33-1.11,1.05-1.98,1.77-2.54,2.1l.02,.02c.68-.31,1.16-.42,1.8-.42,1.34,0,2.21,.69,2.21,1.75,0,.74-.38,1.33-1.07,1.72-.52,.29-1.16,.44-1.88,.44-.64,0-1.17-.12-1.48-.34-.3-.21-.48-.54-.48-.9,0-.61,.55-1.05,1.29-1.05,.55,0,1.04,.24,1.36,.66,.16,.21,.25,.38,.37,.74,.27-.09,.43-.17,.6-.29,.31-.23,.49-.57,.49-.95,0-.7-.62-1.13-1.64-1.13-1.17,0-2.38,.5-3.33,1.35l-.46-.71c.72-.38,2.6-1.93,3.64-2.99,.02-.02,.11-.11,.14-.14h0c-.29,.03-1.14,.09-2.36,.14-.18,0-.24,.02-.4,.04l-.04-.82Zm1.65,4.73c-.33,0-.54,.16-.54,.42,0,.35,.41,.57,1.08,.57,.16,0,.21,0,.46-.03-.16-.63-.5-.95-1-.95Z"/></g><g><rect class="cls-4" x="61.76" y="69.66" width="47.06" height="47.06" rx="4.01" ry="4.01"/><rect class="cls-1" x="67.76" y="75.66" width="47.06" height="47.06" rx="4.01" ry="4.01"/><rect class="cls-4" x="69.76" y="77.66" width="47.06" height="47.06" rx="4.01" ry="4.01"/><g><circle class="cls-1" cx="93.29" cy="101.19" r="3.98"/><circle class="cls-1" cx="81.35" cy="89.25" r="3.98"/><circle class="cls-1" cx="105.23" cy="89.25" r="3.98"/><circle class="cls-1" cx="105.23" cy="113.13" r="3.98"/><circle class="cls-1" cx="81.35" cy="113.13" r="3.98"/></g></g></svg>