<?xml version="1.0" encoding="UTF-8"?><svg id="Layer_1" xmlns="http://www.w3.org/2000/svg" viewBox="0 0 178.58 249.45"><defs><style>.cls-1{fill:#fff;}.cls-2{fill:#ffa914;}.cls-3{fill:#999;}.cls-4{fill:gray;}.cls-5{fill:#4d4d4d;}.cls-6{opacity:.9;}</style></defs><g><path class="cls-1" d="M13.95,3.09H164.63c6,0,10.86,4.87,10.86,10.86V235.5c0,6-4.87,10.86-10.86,10.86H13.95c-6,0-10.86-4.87-10.86-10.86V13.95C3.09,7.96,7.96,3.09,13.95,3.09Z"/><path class="cls-2" d="M164.63,6.18c4.29,0,7.77,3.49,7.77,7.77V235.5c0,4.29-3.49,7.77-7.77,7.77H13.95c-4.29,0-7.77-3.49-7.77-7.77V13.95c0-4.29,3.49-7.77,7.77-7.77H164.63M164.63,0H13.95C6.25,0,0,6.25,0,13.95V235.5C0,243.2,6.25,249.45,13.95,249.45H164.63c7.71,0,13.95-6.25,13.95-13.95V13.95C178.58,6.25,172.34,0,164.63,0h0Z"/></g><g><path class="cls-2" d="M37.18,15.88c-1.05,0-1.5,.01-2.05,.06v-2.23c.7,.08,1.09,.1,2.09,.1h6.94c.41-.01,.61-.05,.87-.14l1.22,1.37c-.2,.19-.27,.28-.58,.81-1.3,2.19-2.34,3.45-4.02,4.85,.54,.65,.9,1.1,1.51,1.93l-1.9,1.48c-.76-1.24-1.39-2.12-2.45-3.31-1.03-1.18-1.62-1.76-2.55-2.52l1.74-1.22c1.04,.85,1.46,1.24,2.19,2.01,.72-.6,1.52-1.41,1.98-2,.32-.39,.66-.94,.81-1.23l-5.8,.03Z"/><path class="cls-2" d="M56.56,24.11c-1.1-1.39-2.22-2.5-3.64-3.6-1.19,1.41-2.7,2.52-4.66,3.47-.44-.89-.71-1.27-1.42-2,1.65-.63,2.95-1.46,4.1-2.56,1.18-1.13,1.95-2.25,2.55-3.72l-3.29,.05c-1.09,.02-1.49,.05-2.01,.13l-.06-2.25c.49,.06,.84,.09,1.33,.09,.1,0,.34,0,.71-.01l4.33-.06c.6-.01,.67-.01,1.01-.14l1.11,1.14c-.19,.19-.27,.32-.46,.75-.67,1.58-1.15,2.47-1.86,3.42,1.53,1.1,2.05,1.55,4.03,3.43l-1.77,1.88Z"/><path class="cls-2" d="M63.15,15.06c.04-.49,.06-1.23,.06-1.62,0-.27,0-.37-.04-.63l2.38,.06c-.06,.29-.06,.33-.14,1.53q-.01,.34-.04,.65h2.76c.42,0,.57-.03,.85-.14l.99,.86c-.14,.25-.17,.36-.18,.94-.09,2.71-.28,4.83-.53,5.66-.37,1.18-.98,1.58-2.38,1.58-.49,0-.68-.01-1.66-.1-.05-1.01-.14-1.43-.43-2.23,.63,.17,1.25,.25,1.65,.25,.61,0,.76-.2,.92-1.3,.13-.85,.24-2.45,.24-3.53h-2.42q-.1,.84-.19,1.27c-.56,2.56-1.76,4.21-4.33,5.9-.57-.9-.95-1.33-1.65-1.93,1.69-.89,2.66-1.79,3.29-3.07,.32-.65,.46-1.1,.63-2.17h-1.58c-.85,0-1.11,.01-1.71,.08v-2.17c.62,.09,.85,.1,1.75,.1h1.75Z"/><path class="cls-2" d="M71.53,17.25c.6,.09,1.28,.11,2.6,.11h6.06c1.27,0,1.75-.03,2.6-.11v2.44c-.61-.06-1.16-.08-2.61-.08h-6.03c-1.42,0-1.84,.01-2.61,.08v-2.44Z"/><path class="cls-2" d="M85.38,24.05c.05-.53,.06-.9,.08-1.94v-7.37c-.01-1.09-.01-1.15-.09-1.84h2.45c-.05,.33-.05,.53-.06,1.85v1.74c2,.65,3.99,1.55,5.76,2.64l-1.2,2.15c-1.05-.75-2.52-1.56-3.99-2.2-.38-.15-.42-.16-.46-.19-.04-.01-.06-.03-.11-.06v3.29c0,.94,.03,1.61,.08,1.94h-2.44Zm5.73-10.44c.49,.56,.9,1.14,1.25,1.81l-1.2,.58c-.42-.8-.75-1.27-1.25-1.85l1.2-.54Zm1.69-.76c.47,.51,.82,.99,1.27,1.76l-1.17,.57c-.44-.8-.8-1.31-1.24-1.81l1.14-.52Z"/></g><path class="cls-2" d="M13.95,0H30V16.05c0,7.7-6.25,13.95-13.95,13.95H0V13.95C0,6.25,6.25,0,13.95,0Z"/><g class="cls-6"><path class="cls-1" d="M15,19.78c-.1,0-.19-.04-.26-.11l-6.73-4.47c-.07-.08-.07-.31,.07-.45l6.58-4.37c.14-.13,.23-.16,.33-.16s.19,.04,.26,.1l6.73,4.49c.07,.08,.07,.31-.07,.45l-6.58,4.35c-.14,.13-.23,.17-.33,.17Z"/><path class="cls-1" d="M15.08,10.66h0m-.08,.07s.04,.03,.07,.05l6.36,4.23-6.36,4.21s-.05,.03-.07,.05c-.02-.02-.05-.03-.07-.05l-6.36-4.21,6.36-4.23s.05-.03,.07-.05m0-.98c-.21,0-.43,.08-.59,.24l-6.65,4.43c-.32,.32-.32,.86,0,1.18l6.65,4.41c.16,.16,.38,.24,.59,.24s.43-.08,.59-.24l6.65-4.41c.32-.32,.32-.86,0-1.18l-6.65-4.43c-.16-.16-.38-.24-.59-.24h0Z"/></g><g><path d="M22.21,159.95v-.92c.01-.79,0-1.06-.05-1.33h1.55c-.04,.28-.05,.34-.05,.8q0,.73-.01,1.45h.77c.85,0,1.09-.01,1.56-.08v1.46c-.42-.05-.74-.06-1.54-.06h-.8c-.02,1.44-.02,1.52-.08,1.98-.17,1.54-.68,2.55-1.73,3.44-.65,.55-1.24,.86-2.34,1.26-.23-.52-.38-.74-.9-1.27,1.14-.35,1.71-.64,2.29-1.14,.82-.71,1.16-1.5,1.27-2.88,.02-.28,.02-.56,.05-1.39h-3.11v1.8c0,.5,.01,.7,.05,1.01h-1.56c.04-.26,.05-.59,.05-1.03v-1.78h-.73c-.79,0-1.12,.01-1.54,.06v-1.46c.47,.07,.71,.08,1.56,.08h.71v-1.2c0-.5-.01-.75-.06-1.07h1.57c-.05,.4-.05,.42-.05,1.03v1.24h3.12Z"/><path d="M36.55,158.56c-.2,.18-.26,.23-.44,.42-.9,.94-1.8,1.71-2.83,2.47v5.12c0,.66,.01,1.01,.06,1.33h-1.68c.06-.35,.07-.59,.07-1.29v-4.22c-1.4,.84-2.07,1.15-4.28,1.94-.25-.62-.38-.83-.8-1.37,2.37-.65,4.39-1.64,6.3-3.12,1.07-.83,1.88-1.65,2.23-2.24l1.38,.96Z"/><path d="M39.83,166.75c-.83,0-1.12,.01-1.48,.05v-1.55c.44,.07,.66,.08,1.5,.08h5.46v-5.23h-5.25c-.85,0-1.1,.01-1.54,.06v-1.56c.44,.07,.67,.08,1.55,.08h5.77q.62,0,1.04-.02c-.04,.32-.04,.44-.04,1v6.58c0,.6,.01,.94,.06,1.24h-1.61v-.73h-5.47Z"/><path d="M51.11,166.64v.84h-1.55c.04-.29,.05-.58,.05-1.03v-6.87c0-.46-.01-.68-.05-1.01,.29,.02,.54,.04,1.02,.04h6.81c.52,0,.73-.01,1.01-.04-.02,.31-.04,.55-.04,1v6.86c0,.44,.01,.77,.05,1.04h-1.55v-.83h-5.76Zm5.76-6.68h-5.76v5.31h5.76v-5.31Z"/><path d="M60.66,158.71c.49,.11,1.26,.16,2.78,.16,.32-.72,.43-1.08,.48-1.49l1.57,.17q-.07,.12-.48,1.08c-.06,.13-.08,.17-.11,.22q.1-.01,.76-.05c1.39-.08,2.48-.22,3.14-.41l.08,1.37q-.34,.03-.95,.1c-.88,.11-2.4,.2-3.61,.24-.35,.68-.68,1.16-1.1,1.6v.02q.1-.06,.25-.18c.44-.34,1.08-.54,1.69-.54,.94,0,1.52,.44,1.71,1.27,.92-.34,1.54-.55,1.83-.65,.65-.23,.7-.24,.89-.36l.56,1.38c-.34,.05-.7,.14-1.33,.32-.17,.05-.77,.25-1.8,.61v.13q.01,.31,.01,.48v.48c-.01,.2-.01,.31-.01,.4,0,.26,.01,.43,.04,.64l-1.39,.04c.05-.22,.07-.83,.07-1.39v-.29c-.59,.28-.9,.44-1.15,.62-.42,.31-.62,.64-.62,.98,0,.62,.58,.88,2.03,.88s2.67-.18,3.53-.5l.12,1.55c-.2,0-.26,.01-.55,.05-.86,.13-2.01,.21-3.07,.21-1.27,0-2.06-.14-2.67-.5-.55-.31-.88-.89-.88-1.55,0-.49,.14-.88,.53-1.33,.54-.67,1.22-1.13,2.58-1.69-.06-.44-.3-.65-.73-.65-.7,0-1.54,.42-2.46,1.24-.5,.42-.78,.72-1.04,1.09l-1.09-1.08c.31-.24,.66-.58,1.08-1.07,.47-.55,1.2-1.59,1.44-2.05q.05-.1,.1-.16s-.2,.01-.2,.01c-.19,0-1.25-.02-1.51-.02q-.23-.01-.34-.01s-.11,0-.19,.01l.02-1.37Z"/><path d="M71.88,162.11c.55,.22,.89,.29,2.11,.46,.05-.43,.16-1.23,.22-1.68-.71-.1-.9-.12-1.72-.3-.17-.04-.23-.05-.41-.08l.12-1.32c.5,.19,1.35,.36,2.17,.43,.17-1.01,.24-1.63,.24-1.99,0-.04,0-.06-.01-.12l1.6,.14c-.13,.37-.17,.55-.38,2.03,1.36-.02,2.05-.08,2.73-.25l-.05,1.4c-.16,.01-.22,.02-.48,.05-.86,.07-1.25,.1-1.68,.1-.12,0-.23,0-.74-.01-.12,.88-.16,1.12-.23,1.69,.36,.01,.46,.01,.59,.01,.85,0,1.71-.08,2.29-.24l-.04,1.38c-.12,0-.16,0-.36,.04-.53,.06-1.24,.11-1.8,.11-.19,0-.3,0-.77-.02-.04,.32-.06,.64-.06,.85,0,.59,.13,.96,.44,1.24,.35,.3,.83,.44,1.49,.44,1.52,0,2.4-.67,2.4-1.85,0-.7-.36-1.37-1.08-2.03,.67-.05,.92-.1,1.49-.3,.3,.35,.43,.53,.56,.76,.31,.53,.52,1.21,.52,1.76,0,.85-.42,1.68-1.15,2.24-.68,.53-1.58,.79-2.71,.79-2.18,0-3.37-1.04-3.37-2.97,0-.31,.01-.61,.06-1.02-.72-.1-1.19-.17-1.67-.28-.25-.06-.29-.06-.46-.07l.13-1.38Z"/><path d="M82.66,161.36q.31-.01,1.39-.2c1.7-.3,2.75-.41,3.77-.41s1.71,.16,2.27,.49c.74,.44,1.16,1.25,1.16,2.19,0,1.37-.83,2.61-2.28,3.44-.98,.56-1.82,.82-3.78,1.13-.12-.63-.25-.94-.62-1.5,1.39-.06,2.69-.4,3.61-.91,.95-.53,1.46-1.28,1.46-2.11,0-.9-.64-1.36-1.88-1.36-1.35,0-3.75,.42-4.75,.83l-.35-1.6Zm1.87-3.83c1.33,.44,3.11,.7,5,.7h.34l-.2,1.48c-2.18-.1-3.84-.31-5.6-.76l.47-1.42Z"/><path d="M103.72,163.37c-.55-.06-1.1-.08-1.82-.08h-7.1c-.67,0-1.3,.04-1.83,.08v-1.58c.52,.06,1.05,.08,1.83,.08h7.1c.8,0,1.36-.02,1.82-.08v1.58Z"/><path d="M106.99,161.17c-.02,1.83-.13,3.14-.34,4.23-.22,1.13-.48,1.88-1.02,2.85-.34-.48-.59-.76-1.01-1.1,.4-.73,.59-1.26,.74-2.05,.26-1.25,.35-2.57,.35-5.41,0-.89-.01-1.2-.05-1.63,.42,.04,.84,.06,1.36,.06h2.99v-.26c0-.26-.02-.46-.06-.68h1.43c-.05,.2-.06,.4-.06,.7v.25h2.97c.67,0,1.09-.02,1.45-.07v1.25c-.4-.04-.7-.05-1.26-.05h-.92v.84h1.15c.49,0,.76-.01,1.07-.06v1.19c-.28-.04-.52-.05-1.07-.05h-1.15v1.13c0,.3,.01,.55,.04,.76-.28-.01-.3-.01-.78-.01h-3.33c-.47,0-.62,0-.84,.01,.02-.2,.05-.5,.05-.76v-1.13h-1.7Zm7.54,3.21c-.11,.11-.12,.12-.23,.24-.65,.75-1.26,1.31-1.98,1.8,1.04,.37,2.09,.54,3.55,.56-.23,.44-.37,.83-.5,1.36-2.01-.25-3.21-.58-4.33-1.16-1.25,.6-2.28,.9-4.1,1.17-.1-.46-.19-.71-.47-1.23,1.51-.11,2.43-.3,3.43-.67-.67-.52-1.03-.88-1.63-1.7-.42,.01-.6,.02-.85,.05v-1.13c.3,.05,.65,.06,1.28,.06h4.19c.49,0,.71-.01,1-.04l.65,.7Zm-5.84-4.29v-.84h-1.69v.84h1.69Zm1.03,4.65c.36,.44,.74,.74,1.39,1.13,.64-.37,.95-.61,1.49-1.13h-2.88Zm2.58-4.65v-.84h-2.35v.84h2.35Zm-2.35,1.91h2.35v-.83h-2.35v.83Z"/><path d="M117.76,160.7c-.3,0-.54,.01-.84,.06v-1.28c.29,.05,.49,.06,.85,.06h.42v-1.02c0-.56-.01-.86-.07-1.21h1.38c-.05,.37-.06,.63-.06,1.21v1.02h.37c.28,0,.42-.01,.62-.05v1.25c-.23-.02-.38-.04-.61-.04h-.38v1.81c.29-.12,.46-.21,.92-.43v1.21c-.49,.25-.64,.32-.92,.46v3.36c0,.91-.31,1.17-1.39,1.17-.23,0-.29,0-.86-.02-.06-.52-.11-.72-.29-1.25,.34,.05,.73,.08,.97,.08,.26,0,.32-.06,.32-.34v-2.51c-.41,.16-.68,.26-1.01,.37-.07,.02-.11,.04-.18,.07l-.19-1.32c.37-.06,.78-.17,1.38-.38v-2.29h-.43Zm7.74,2.04c.12,.82,.16,1.01,.31,1.5,.53-.35,.83-.61,1.22-1.07l.84,.83q-.24,.19-.96,.78c-.17,.16-.36,.29-.66,.48,.44,.79,.88,1.25,1.72,1.86-.37,.39-.6,.7-.84,1.13-.94-.88-1.45-1.55-1.88-2.46-.47-.98-.65-1.63-.84-3.05h-.66v3.71c.55-.14,.78-.2,1.46-.43v1.16c-.85,.3-1.52,.48-3.12,.86-.24,.06-.3,.07-.55,.16l-.29-1.33c.35,0,.65-.04,1.28-.16v-3.97h-.66c-.08,1.57-.18,2.31-.43,3.24-.23,.83-.5,1.49-.92,2.26-.37-.44-.56-.64-1.01-.98,1.04-1.68,1.25-3.02,1.25-8.01,0-.83-.01-1.15-.05-1.52,.41,.04,.91,.06,1.42,.06h4.21c.56,0,.97-.02,1.33-.07v1.28c-.28-.04-.62-.05-1.25-.05h-4.47v1.26c0,.55-.01,.85-.02,1.44h4.83c.5,0,.77-.01,1.04-.06v1.21c-.24-.04-.49-.05-.9-.05h-1.4Zm1.68-1.87c-.24-.04-.48-.05-.86-.05h-3.13c-.38,0-.56,.01-.8,.04v-1.15c.2,.04,.41,.05,.8,.05h3.12c.42,0,.64-.01,.88-.05v1.16Z"/><path d="M132.57,162.38c1.09-.43,1.62-.55,2.52-.55,2.05,0,3.37,1.05,3.37,2.7,0,1.14-.56,2.05-1.63,2.65-.78,.44-1.8,.68-2.9,.68-1.01,0-1.85-.19-2.33-.55-.46-.34-.72-.84-.72-1.38,0-1,.86-1.71,2.06-1.71,.84,0,1.57,.35,2.08,.98,.24,.3,.37,.56,.55,1.08,1-.37,1.43-.89,1.43-1.74,0-.94-.92-1.55-2.38-1.55-1.75,0-3.5,.71-4.94,2.02l-.82-1.29c.42-.2,.9-.53,1.69-1.13,1.12-.85,2.67-2.19,3.59-3.12,.02-.02,.14-.14,.22-.22h-.01c-.46,.05-1.22,.1-3.39,.19-.26,.01-.35,.02-.58,.06l-.06-1.44c.41,.05,.76,.07,1.42,.07,1.02,0,2.48-.06,3.65-.14,.42-.04,.55-.06,.74-.16l.74,1.05c-.2,.11-.29,.18-.62,.49-.6,.55-1.47,1.33-1.88,1.68-.22,.18-1.08,.83-1.32,.98q-.3,.21-.49,.31l.02,.02Zm.36,2.99c-.43,0-.71,.22-.71,.55,0,.48,.54,.75,1.43,.75,.23,0,.29,0,.62-.05-.22-.83-.67-1.26-1.34-1.26Z"/><path d="M142.2,157.93l-.37,1.67,1.27-1.1,.59,.97-1.63,.53,1.61,.54-.58,.98-1.27-1.15,.38,1.69h-1.24l.4-1.69-1.27,1.15-.59-.98,1.61-.54-1.63-.53,.6-.98,1.27,1.12-.38-1.67h1.24Z"/></g><g><path class="cls-4" d="M15.65,178.74c.25,.1,.45,.16,.78,.22,.03,0,.25,.04,.64,.1,.03-.31,.11-.9,.17-1.25-.55-.07-.63-.08-1.17-.2-.11-.02-.14-.03-.26-.06l.08-.74c.34,.14,.88,.25,1.44,.3,.11-.67,.18-1.17,.18-1.35v-.12l.89,.08c-.06,.15-.07,.22-.13,.54q-.02,.07-.07,.46c-.03,.18-.04,.26-.07,.43,.14,0,.25,0,.31,0,.61,0,1.15-.06,1.56-.16l-.03,.78c-.1,0-.14,.02-.34,.03-.5,.04-.77,.06-1.01,.06-.1,0-.21,0-.61,0-.11,.75-.13,.91-.17,1.25,.25,0,.33,0,.45,0,.58,0,1.15-.06,1.5-.14l-.02,.76c-.08,0-.1,0-.23,.02-.35,.04-.8,.06-1.17,.06-.15,0-.25,0-.58-.02-.02,.32-.03,.48-.03,.65,0,.41,.1,.68,.33,.87,.24,.22,.58,.32,1.05,.32,1.02,0,1.66-.5,1.66-1.3,0-.47-.25-.94-.74-1.37,.37-.04,.5-.06,.82-.18,.2,.22,.29,.34,.38,.48,.23,.36,.36,.78,.36,1.17,0,.56-.27,1.09-.74,1.45-.45,.34-1.03,.51-1.73,.51s-1.24-.17-1.62-.5c-.37-.33-.54-.79-.54-1.45,0-.23,0-.34,.04-.7-.43-.05-.82-.11-1.15-.19-.15-.03-.18-.04-.28-.05l.08-.77Z"/><path class="cls-4" d="M22.77,178.24q.2-.02,.88-.14c1.11-.2,1.83-.28,2.49-.28,.61,0,1.11,.11,1.45,.32,.48,.29,.74,.79,.74,1.39,0,.88-.53,1.69-1.46,2.23-.63,.38-1.18,.54-2.44,.75-.1-.38-.15-.53-.34-.82,1.03-.06,2-.35,2.61-.8,.49-.35,.75-.84,.75-1.38,0-.26-.12-.51-.32-.67-.23-.18-.54-.26-.99-.26-.91,0-2.5,.27-3.16,.54l-.2-.89Zm1.22-2.53c.87,.31,2.05,.47,3.43,.48l-.12,.81c-1.39-.06-2.44-.22-3.57-.51l.26-.78Z"/><path class="cls-4" d="M36.67,179.45c-.34-.04-.66-.06-1.15-.06h-4.81c-.44,0-.85,.02-1.16,.06v-.93c.32,.04,.66,.06,1.16,.06h4.81c.51,0,.88-.02,1.15-.06v.93Z"/><path class="cls-4" d="M38.8,177.97c-.05,2.57-.24,3.57-.9,4.76-.19-.26-.33-.41-.57-.6,.27-.5,.41-.86,.52-1.38,.18-.86,.24-1.77,.24-3.69,0-.53,0-.77-.03-1.02,.27,.02,.54,.04,.87,.04h2.03v-.2c0-.18-.02-.32-.05-.48h.81c-.03,.14-.04,.28-.04,.49v.19h2.07c.44,0,.7-.02,.93-.05v.7c-.26-.02-.46-.03-.84-.03h-5.03v.67h1.26v-.07c0-.18-.02-.32-.03-.44h.76c-.03,.23-.03,.3-.03,.42v.09h1.68v-.06c0-.15-.02-.3-.03-.45h.76c-.02,.13-.03,.27-.03,.46v.06h.85c.34,0,.5,0,.72-.04v.68c-.18-.03-.36-.04-.72-.04h-.85v.79c0,.18,0,.35,.02,.5-.15-.02-.22-.02-.52-.02h-2.04c-.32,0-.45,0-.57,.02,.02-.15,.03-.34,.03-.5v-.79h-1.26Zm5,2.16c-.06,.07-.09,.1-.31,.35-.35,.4-.75,.75-1.21,1.06,.73,.29,1.5,.45,2.47,.49-.13,.24-.22,.46-.3,.75-1.26-.17-2.1-.41-2.86-.83-.83,.43-1.61,.66-2.8,.85-.06-.26-.12-.41-.28-.7,1.03-.09,1.73-.25,2.45-.55-.5-.38-.76-.64-1.18-1.22-.42,0-.46,0-.66,.03v-.65c.19,.03,.42,.04,.83,.04h2.84c.29,0,.43,0,.62-.02l.38,.4Zm-3.21,.2c.24,.33,.56,.6,1.03,.89,.48-.3,.71-.47,1.11-.89h-2.14Zm.17-1.67h1.68v-.69h-1.68v.69Z"/><path class="cls-4" d="M49.95,177.36v-.72c0-.52,0-.62-.03-.82h.86c-.02,.19-.02,.24-.03,.54v1h.58c.53,0,.7,0,1-.06v.83c-.27-.03-.5-.04-.98-.04h-.6q-.02,1.08-.06,1.38c-.11,.99-.46,1.67-1.14,2.25-.42,.35-.79,.56-1.5,.81-.13-.29-.22-.41-.5-.7,.72-.22,1.13-.42,1.53-.77,.54-.48,.78-1.01,.85-1.95,.02-.22,.02-.5,.03-1.02h-2.21v.94c0,.42,.02,.77,.04,.97h-.9c.02-.26,.04-.57,.04-.94v-.97h-.57c-.47,0-.66,0-.98,.04v-.83c.33,.05,.49,.06,1,.06h.55v-.74c0-.28-.02-.64-.04-.81h.9c-.03,.23-.05,.51-.05,.8v.74h2.22Z"/><path class="cls-4" d="M59.29,176.25c-.14,.12-.15,.13-.36,.34-.52,.55-1.17,1.11-1.84,1.59v3.22c0,.55,.02,.81,.05,1.05h-.95c.04-.3,.05-.47,.05-1.05v-2.7c-.98,.6-1.48,.82-2.94,1.34-.14-.34-.22-.46-.45-.77,1.54-.41,2.9-1.08,4.17-2.07,.72-.56,1.27-1.11,1.5-1.5l.77,.54Z"/><path class="cls-4" d="M61.58,181.68c-.6,0-.74,0-1.02,.04v-.88c.3,.05,.45,.06,1.03,.06h3.61v-3.64h-3.46c-.6,0-.75,0-1.06,.04v-.88c.33,.05,.42,.06,1.07,.06h3.65q.4,0,.67-.02c-.02,.22-.02,.31-.02,.65v4.2c0,.4,0,.58,.04,.86h-.9v-.48h-3.63Z"/><path class="cls-4" d="M68.84,181.61v.55h-.87c.02-.22,.04-.5,.04-.98v-3.98c0-.41,0-.61-.04-.83,.39,.02,.54,.03,.99,.03h3.79c.48,0,.68,0,.97-.04-.02,.22-.03,.44-.03,.84v3.97c0,.53,0,.78,.03,.98h-.86v-.55h-4.01Zm4.01-4.45h-4.01v3.7h4.01v-3.7Z"/><path class="cls-4" d="M77.17,176.6c.22-.5,.32-.78,.34-1.03l.88,.11c-.05,.07-.06,.1-.1,.18q-.09,.21-.25,.58s-.05,.1-.06,.14t.06,0h.04s.18,0,.4-.02c.86-.03,1.7-.14,2.13-.27l.05,.76q-.18,.02-.62,.07c-.56,.07-1.59,.14-2.38,.16-.28,.54-.53,.9-.86,1.25v.02q.06-.05,.18-.13c.35-.27,.78-.42,1.22-.42,.3,0,.59,.1,.78,.26,.18,.15,.27,.32,.33,.61,.65-.24,1.08-.4,1.29-.47,.41-.14,.44-.15,.57-.23l.33,.77c-.45,.08-.98,.25-2.1,.66q0,.29,0,.43v.38c0,.14,0,.22,0,.28,0,.15,0,.27,.02,.39l-.78,.02c.02-.16,.05-.61,.05-1.04v-.19c-.98,.45-1.34,.77-1.34,1.19,0,.48,.42,.66,1.54,.66,.84,0,1.71-.13,2.21-.33l.08,.86c-.14,0-.18,0-.35,.04-.59,.09-1.34,.14-1.99,.14-.81,0-1.34-.1-1.73-.32-.35-.2-.56-.56-.56-.98,0-.74,.66-1.38,2.05-1.97-.04-.34-.22-.51-.54-.51-.48,0-1.07,.29-1.7,.83-.32,.27-.5,.47-.66,.7l-.62-.62c.38-.28,.86-.83,1.29-1.46,.1-.15,.26-.42,.5-.81h-.91c-.2-.02-.35-.02-.46-.02h-.05s-.06,0-.12,0l.02-.76c.4,.07,.83,.1,1.56,.1h.29Z"/><path class="cls-4" d="M82.99,177.67c-.22,0-.37,0-.57,.04v-.72c.19,.03,.33,.04,.58,.04h.32v-.73c0-.37,0-.57-.05-.81h.79c-.04,.25-.05,.44-.05,.81v.73h.27c.2,0,.31,0,.44-.03v.7c-.17-.02-.26-.02-.43-.02h-.28v1.37c.26-.12,.35-.17,.66-.33v.68c-.33,.18-.42,.22-.66,.34v2.33c0,.54-.18,.7-.83,.7-.11,0-.34,0-.59-.02-.03-.28-.06-.41-.16-.7,.24,.04,.51,.06,.67,.06,.18,0,.22-.05,.22-.22v-1.84c-.18,.07-.49,.19-.72,.27-.03,.02-.06,.03-.11,.06l-.13-.74c.26-.05,.47-.11,.96-.3v-1.65h-.33Zm4.92,1.35c.08,.58,.14,.8,.26,1.15,.45-.29,.67-.48,1-.84l.46,.47q-.83,.68-1.21,.93c.33,.58,.66,.93,1.28,1.36-.2,.2-.24,.26-.47,.62-.66-.57-1.05-1.05-1.35-1.64-.31-.62-.46-1.13-.6-2.06h-.47v2.62c.42-.1,.59-.16,1.06-.33v.65c-.61,.23-1.11,.38-2.11,.62-.14,.04-.18,.05-.34,.1l-.18-.74c.23,0,.42-.03,.9-.14v-2.78h-.52c-.06,1.04-.13,1.58-.29,2.17-.15,.57-.33,.98-.63,1.51-.21-.25-.31-.34-.56-.54,.3-.47,.46-.84,.59-1.36,.18-.73,.26-1.84,.26-3.81,0-.66,0-.92-.03-1.18,.26,.02,.58,.04,.91,.04h2.8c.36,0,.62-.02,.85-.05v.73c-.18-.02-.4-.03-.81-.03h-3.05v.75c0,.44,0,.68-.02,1.16h3.26c.34,0,.54,0,.72-.04v.69c-.17-.02-.33-.03-.65-.03h-1.07Zm1.26-1.25c-.17-.02-.32-.03-.57-.03h-2.05c-.26,0-.38,0-.54,.03v-.67c.14,.02,.26,.03,.54,.03h2.05c.26,0,.42,0,.58-.03v.67Z"/><path class="cls-4" d="M92.24,175.65c-.1,.27-.13,.42-.31,1.68-.06,.45-.09,.66-.1,.9h.02q.02-.06,.06-.2c.1-.42,.26-.74,.48-1.06,.44-.6,.95-.9,1.55-.9,.55,0,1.01,.24,1.35,.71,.38,.53,.54,1.14,.54,2.06,0,1.5-.69,2.62-1.97,3.22-.41,.18-.92,.34-1.51,.46-.15-.39-.22-.53-.42-.78,.79-.1,1.22-.22,1.71-.47,.94-.5,1.36-1.29,1.36-2.53s-.41-1.88-1.13-1.88c-.35,0-.63,.14-.94,.46-.61,.66-1,1.67-1,2.6t0,.18l-.81,.02s0-.07,0-.09v-.16c0-.21-.02-.82-.02-.95,0-.63,.05-1.51,.12-2.05l.13-1.02c.02-.14,.02-.17,.02-.27l.86,.06Z"/><path class="cls-4" d="M97.73,180.39c.71,.55,1.13,.98,1.72,1.73l-.66,.61c-.56-.78-1.02-1.26-1.67-1.79l.61-.55Z"/><path class="cls-4" d="M18.41,185.86c0-.38-.02-.57-.06-.77h.86c-.04,.23-.06,.42-.06,.77v1.86h1.87v-1.39c0-.25,0-.42-.03-.61h.82c-.03,.23-.04,.39-.04,.66v1.59c0,.2,0,.34,.02,.47-.18-.02-.35-.02-.54-.02h-2.1v2.75h2.14v-1.41c0-.28,0-.48-.04-.68h.82c-.02,.19-.04,.42-.04,.74v1.76c0,.35,.02,.54,.05,.75h-.79v-.44h-4.93v.44h-.79c.03-.22,.05-.45,.05-.75v-1.72c0-.31,0-.53-.04-.74h.82c-.03,.18-.04,.38-.04,.69v1.37h2.04v-2.75h-1.94c-.19,0-.36,0-.55,.02,.02-.16,.02-.32,.02-.47v-1.58c0-.25-.02-.45-.04-.66h.82c-.02,.16-.03,.36-.03,.62v1.38h1.73v-1.86Z"/><path class="cls-4" d="M23.24,186.53c.3,.06,.52,.07,.98,.07,.18,0,.3,0,.47,0,.1-.5,.17-1.05,.17-1.29,0-.02,0-.06,0-.11l.89,.08q-.06,.18-.15,.76c-.04,.24-.05,.32-.09,.53,.61-.06,1.02-.14,1.39-.26l.04,.77q-.06,0-.24,.04c-.38,.08-.94,.15-1.33,.18-.1,.54-.31,1.42-.52,2.15-.24,.83-.43,1.38-.9,2.57l-.84-.34c.57-1.03,1.15-2.77,1.46-4.35-.07,0-.48,0-.65,0-.06,0-.12,0-.23,0-.12,0-.26,0-.37,0h-.09v-.78Zm3.82,3.03c-.21,.26-.27,.34-.33,.46-.06,.14-.1,.3-.1,.42,0,.42,.45,.65,1.28,.65,.59,0,1.34-.12,1.79-.29l.06,.83c-.13,.02-.18,.02-.38,.06-.63,.1-1,.14-1.46,.14-.68,0-1.18-.1-1.54-.3-.35-.2-.56-.56-.56-.97,0-.38,.14-.7,.58-1.28l.66,.28Zm2.41-1.18c-.38-.04-.61-.05-.98-.05-.76,0-1.28,.06-2.06,.24l-.06-.74c1.06-.21,1.46-.26,2.27-.26,.22,0,.35,0,.82,0l.02,.8Z"/><path class="cls-4" d="M35.77,185.42c.38,0,.62,0,.85-.04-.02,.27-.04,.5-.04,.78v5.23c0,.4,.02,.66,.05,.93h-.81v-.49h-3.89v.49h-.81c.03-.26,.05-.51,.05-.88v-5.24c0-.32-.02-.58-.04-.82,.26,.03,.51,.04,.88,.04h3.77Zm.05,1.86v-1.16h-3.89v1.16h3.89Zm-3.89,1.87h3.89v-1.18h-3.89v1.18Zm0,1.97h3.89v-1.28h-3.89v1.28Z"/><path class="cls-4" d="M37.96,187.28c.29,0,1.06-.08,1.73-.18,.14-.75,.22-1.38,.22-1.64,0-.03,0-.08,0-.14l.88,.09c-.02,.1-.04,.16-.06,.26l-.19,1.06c-.03,.18-.03,.2-.06,.3,.22-.02,.34-.02,.52-.02,.51,0,.88,.13,1.13,.39,.28,.29,.38,.66,.38,1.37,0,1.32-.22,2.4-.58,2.85-.22,.26-.45,.36-.85,.36-.33,0-.68-.08-1.22-.26,.02-.14,.02-.24,.02-.3,0-.15,0-.28-.06-.55,.43,.2,.9,.34,1.17,.34,.26,0,.4-.18,.53-.62,.13-.42,.21-1.18,.21-1.87,0-.75-.22-.99-.88-.99-.17,0-.3,0-.51,.03-.32,1.33-.63,2.22-1.14,3.29-.06,.13-.24,.48-.53,1.05l-.78-.43c.24-.3,.56-.88,.83-1.48,.35-.78,.54-1.32,.82-2.38-.62,.08-1.2,.18-1.51,.27l-.08-.8Zm5.36-.73c.81,.92,1.3,1.81,1.66,3l-.75,.39c-.15-.64-.34-1.15-.66-1.74-.3-.57-.55-.92-.93-1.32l.67-.34Zm.29-1.37c.38,.42,.55,.68,.83,1.2l-.5,.27c-.26-.5-.49-.83-.83-1.22l.5-.25Zm.94-.46c.38,.42,.55,.66,.82,1.17l-.49,.28c-.25-.46-.47-.8-.82-1.2l.48-.25Z"/><path class="cls-5" d="M46.7,188.74c-.34,0-.66,.02-.9,.05v-.74c.21,.03,.52,.05,.9,.05h5.25c.39,0,.66-.02,.88-.05v.74c-.25-.03-.54-.05-.88-.05h-.18v2.74c0,.66-.2,.8-1.09,.8-.15,0-.5-.02-.72-.03-.02-.26-.07-.43-.19-.67,.43,.05,.65,.06,.92,.06,.3,0,.36-.03,.36-.19v-2.71h-4.35Zm3.17-2.33c.25,.3,.6,.54,1.01,.7,.46,.17,.91,.25,1.67,.29-.14,.19-.23,.41-.3,.66-.9-.13-1.3-.22-1.75-.42-.54-.24-.96-.58-1.25-1.01-.27,.45-.72,.81-1.29,1.04-.42,.18-.71,.25-1.57,.38-.06-.22-.1-.3-.32-.65,1.31-.09,2.1-.41,2.51-1.01h-1.47c-.42,0-.67,0-.93,.04v-.73c.29,.04,.47,.05,.96,.05h1.7c.05-.23,.07-.38,.07-.54,0-.08,0-.1-.02-.18l.79,.04c-.02,.06-.02,.08-.03,.15-.04,.25-.05,.3-.1,.53h1.9c.43,0,.72-.02,.94-.05v.73c-.23-.02-.54-.04-.91-.04h-1.62Zm.19,4.24c0,.34,0,.46,.03,.66-.21-.02-.45-.02-.7-.02h-1.85v.43h-.74c.02-.1,.03-.36,.03-.43v-1.4c0-.29,0-.51-.02-.68,.23,.02,.42,.02,.71,.02h1.85c.43,0,.54,0,.71-.02-.02,.22-.03,.34-.03,.66v.78Zm-2.51,.02h1.82v-.86h-1.82v.86Z"/><path class="cls-5" d="M57.06,186.6c.26,0,.42,0,.53-.02v.62c-.13-.02-.27-.02-.53-.02h-.65c.21,.24,.47,.44,.82,.62-.18,.19-.19,.21-.4,.54-.42-.34-.54-.46-.8-.85,.02,.16,.02,.28,.02,.35v.36c0,.1,0,.22,.02,.31h-.71c.02-.1,.03-.2,.03-.29v-.36c0-.09,0-.22,.02-.37-.49,.66-.7,.88-1.38,1.35-.14-.23-.24-.35-.45-.54,.7-.38,1.05-.68,1.39-1.14h-.58c-.28,0-.48,0-.65,.04v-.66c.18,.03,.35,.04,.66,.04h.99v-.99c0-.22,0-.37-.04-.54h.73c-.02,.15-.03,.3-.03,.53v1h1Zm-.32,5.28c-.32-.24-.44-.32-.8-.51-.53,.47-.98,.7-1.92,1-.1-.24-.2-.41-.35-.62,.71-.17,1.22-.38,1.66-.7-.37-.17-.59-.26-1.2-.48,.26-.36,.34-.47,.54-.82h-.34c-.28,0-.43,0-.6,.04v-.68c.16,.03,.31,.04,.6,.04h.65c.09-.19,.13-.3,.22-.59l.7,.14c-.1,.23-.12,.3-.19,.45h1.34c.28,0,.43,0,.58-.04v.68c-.17-.03-.33-.04-.62-.04h-.06c-.16,.51-.27,.74-.54,1.11,.34,.16,.42,.2,.73,.4l-.39,.62Zm-2.21-6.7c.3,.42,.41,.64,.58,1.05l-.58,.23c-.17-.44-.3-.7-.56-1.05l.57-.22Zm.85,4.57c-.1,.18-.16,.27-.33,.54,.38,.14,.51,.19,.76,.3,.22-.29,.34-.5,.43-.84h-.86Zm2.13-4.34c-.29,.58-.38,.74-.64,1.11l-.58-.26c.28-.36,.46-.69,.61-1.1l.61,.26Zm3.52,1.76c-.17-.02-.3-.03-.62-.03-.05,.82-.1,1.19-.25,1.74-.15,.53-.34,.97-.59,1.41,.47,.62,.94,1,1.62,1.36-.16,.2-.25,.36-.41,.7-.66-.38-1.15-.82-1.65-1.46-.5,.6-1.08,1.06-1.85,1.49-.13-.26-.23-.42-.44-.63,.86-.42,1.42-.85,1.89-1.45-.38-.66-.58-1.22-.74-2.06-.16,.27-.25,.41-.45,.66-.16-.21-.3-.34-.5-.47,.53-.63,.91-1.46,1.16-2.46,.09-.35,.15-.7,.16-.94l.75,.15q-.03,.1-.1,.39c-.1,.43-.17,.65-.25,.92h1.5c.38,0,.54,0,.75-.05v.72Zm-2.49-.03c-.04,.1-.05,.14-.1,.23,.14,.92,.35,1.59,.71,2.27,.37-.71,.53-1.42,.58-2.5h-1.19Z"/><path class="cls-4" d="M64.51,185.26q-.05,.14-.13,.52c-.06,.26-.1,.42-.18,.78,.58-.06,1-.13,1.34-.24l.03,.78c-.1,0-.1,0-.27,.04-.3,.06-.77,.11-1.29,.15-.24,.82-.53,1.58-.88,2.33-.18,.39-.26,.53-.57,1.08-.06,.11-.12,.21-.15,.28l-.77-.44c.29-.36,.5-.72,.78-1.28,.33-.66,.61-1.36,.78-1.94-.17,0-.24,0-.47,0s-.22,0-.54,0h-.29v-.77c.28,.05,.56,.06,1.02,.06,.23,0,.38,0,.48,0,.14-.52,.25-1.08,.26-1.43l.86,.1Zm3.69,6.36c-.28-.35-.77-.74-1.29-1.02,0,.09,0,.1,0,.17,0,.3-.12,.63-.29,.84-.26,.3-.73,.47-1.3,.47-1.02,0-1.67-.48-1.67-1.24s.69-1.33,1.66-1.33c.26,0,.46,.02,.81,.09-.03-.41-.05-.71-.05-1.02s.02-.48,.06-.76l.78,.06c-.08,.29-.1,.46-.1,.77s.02,.69,.08,1.16c.57,.25,.85,.41,1.32,.77,.18,.14,.18,.14,.25,.2q.06,.06,.12,.1l-.38,.75Zm-2.83-1.43c-.58,0-.94,.24-.94,.61s.32,.57,.87,.57c.59,0,.88-.25,.88-.74,0-.09-.02-.3-.02-.3-.3-.1-.51-.14-.79-.14Zm2.85-2.21c-.67-.46-1.35-.79-2.23-1.11l.4-.63c.94,.35,1.51,.63,2.2,1.06l-.37,.69Z"/><path class="cls-4" d="M71.06,186.81c-.11,.44-.23,1.1-.37,2.05-.02,.14-.02,.18-.06,.28,.5-.5,1.51-.83,2.51-.83,1.34,0,2.2,.64,2.2,1.62,0,.58-.3,1.14-.79,1.48-.53,.36-1.18,.53-2.05,.53-.69,0-1.11-.06-2.03-.29,0-.4-.02-.54-.09-.86,.72,.26,1.43,.4,2.1,.4,1.18,0,2.01-.5,2.01-1.24,0-.58-.54-.93-1.43-.93-.99,0-2.01,.4-2.43,.96l-.86-.02c.02-.14,.02-.18,.06-.47,.08-.58,.18-1.29,.34-2.28,.03-.18,.04-.28,.06-.45l.83,.05Zm.21-1.49c.52,.3,2.01,.75,2.87,.89l-.28,.76c-1.42-.34-2.05-.55-2.98-.98l.39-.66Z"/><path class="cls-4" d="M77.59,185.65c.26,.03,.41,.04,.76,.04,.79,0,1.9-.05,2.5-.11,.22-.02,.4-.06,.53-.1l.44,.56c-.15,.11-.2,.15-.43,.37-.65,.62-1.54,1.31-2.35,1.86,.38-.05,.93-.1,1.92-.19,.52-.04,.94-.07,1.2-.1,.31-.03,.54-.05,.63-.06,.12-.02,.15-.02,.26-.04l.06,.78c-.08,0-.14,0-.18,0-.86,0-1.65,.15-2.25,.42-.38,.18-.72,.43-.93,.7-.17,.22-.23,.38-.23,.6,0,.58,.62,.9,1.74,.9,.27,0,.46-.02,.67-.06l.03,.86c-.12,0-.18-.02-.24-.02h-.47c-.78,0-1.55-.18-1.94-.46-.38-.27-.59-.66-.59-1.1s.22-.87,.66-1.25c.21-.18,.39-.3,.78-.5-.44,.08-.62,.1-1.6,.22-1.26,.15-1.85,.24-2.14,.32l-.08-.82h.16c.24,0,.9-.07,1.37-.15,.74-.45,1.96-1.42,2.64-2.11-.55,.1-.97,.13-2.34,.19-.22,0-.35,.02-.5,.04l-.05-.79Z"/><path class="cls-4" d="M87.01,189.77c-.46,1.06-.95,1.52-1.57,1.52-.85,0-1.47-.89-1.47-2.1,0-.86,.3-1.66,.86-2.28,.66-.72,1.58-1.1,2.69-1.1,1.86,0,3.09,1.14,3.09,2.87,0,1.34-.7,2.41-1.9,2.9-.38,.15-.69,.24-1.23,.34-.12-.37-.19-.5-.41-.78,.62-.1,.98-.18,1.33-.33,.86-.37,1.39-1.21,1.39-2.17,0-.83-.39-1.5-1.09-1.87-.27-.14-.49-.2-.86-.22-.14,1.19-.43,2.36-.82,3.22Zm-1.1-2.83c-.73,.49-1.18,1.34-1.18,2.25,0,.7,.3,1.25,.69,1.25,.29,0,.58-.35,.9-1.08,.31-.74,.58-1.85,.69-2.81-.44,.05-.75,.15-1.1,.38Z"/><path class="cls-4" d="M93.62,188.53c-.28,0-.52,.02-.74,.04v-.65c-.37,.39-.62,.62-1.06,.94-.13-.22-.29-.42-.53-.64,.98-.66,1.66-1.4,2.13-2.31,.19-.36,.28-.6,.32-.82l.82,.3c-.07,.1-.12,.19-.22,.41-.35,.75-.76,1.36-1.37,2.03,.18,.02,.4,.03,.65,.03h2.81c.32,0,.5,0,.74-.02-.59-.63-1.06-1.32-1.43-2.09-.04-.08-.13-.25-.18-.34l.75-.29c.06,.2,.13,.38,.3,.69,.55,.98,1.26,1.73,2.27,2.38-.19,.2-.33,.38-.51,.71-.48-.36-.75-.59-1.11-.96q0,.14-.02,.5c-.02,1.74-.14,2.91-.34,3.32-.16,.3-.42,.41-1.02,.41-.2,0-.36,0-.92-.04-.03-.3-.08-.46-.19-.79,.42,.07,.78,.11,1.03,.11,.3,0,.38-.04,.45-.2,.09-.26,.14-.65,.19-1.3,.03-.4,.05-.82,.05-1.14v-.26h-1.67c-.06,.86-.24,1.43-.62,2.06-.44,.73-1.09,1.29-2.03,1.76-.13-.26-.24-.4-.48-.65,.49-.2,.83-.41,1.23-.76,.58-.5,.95-1.15,1.1-1.92,.02-.15,.04-.23,.06-.5h-.46Z"/><path class="cls-4" d="M99.49,188.13c.2,.03,.34,.04,.63,.04h.52c.23,0,.42,0,.61-.04-.02,.25-.03,.45-.03,.86v1.62c.18,.36,.33,.51,.63,.65,.38,.17,.86,.23,1.78,.23,1.49,0,2.48-.05,3.27-.17-.13,.34-.16,.46-.22,.8-.75,.03-1.71,.05-2.61,.05-1.46,0-1.96-.06-2.42-.27-.3-.14-.55-.36-.78-.69-.35,.34-.53,.49-.95,.8-.06,.05-.17,.14-.26,.22l-.34-.75c.32-.14,.73-.43,1.21-.86v-1.81h-.47c-.25,0-.37,0-.56,.04v-.73Zm.64-2.93c.55,.49,.97,.94,1.34,1.43l-.56,.53c-.47-.66-.72-.94-1.31-1.48l.53-.48Zm4.66,5h1.05c.39,0,.6,0,.79-.04v.7c-.23-.03-.46-.04-.78-.04h-3.1c-.32,0-.47,0-.69,.03,.02-.24,.03-.43,.03-.81v-2.05c0-.2,0-.36,.02-.56-.18,.28-.31,.44-.56,.69-.18-.28-.26-.38-.46-.56,.79-.74,1.21-1.33,1.54-2.18,.05-.13,.08-.22,.1-.34l.76,.15q-.05,.1-.16,.35c-.1,.2-.16,.33-.34,.66h1.13c.27-.45,.41-.74,.53-1.12l.74,.14c-.06,.08-.06,.11-.21,.39-.12,.23-.18,.35-.34,.58h.93c.34,0,.58-.02,.78-.04v.69c-.21-.02-.39-.03-.69-.03h-1.07v.7h.72c.43,0,.59,0,.8-.03v.66c-.22-.02-.39-.03-.8-.03h-.72v.7h.72c.43,0,.59,0,.8-.03v.66c-.22-.02-.39-.03-.8-.03h-.72v.8Zm-.67-3.39h-1.34v.7h1.34v-.7Zm0,1.29h-1.34v.7h1.34v-.7Zm-1.34,1.29v.8h1.34v-.8h-1.34Z"/><path class="cls-4" d="M108.34,185.61c.19,.04,.38,.05,.8,.05,.46,0,1.15-.03,1.42-.06,.15-.02,.22-.04,.3-.1l.55,.46c-.06,.09-.11,.18-.17,.33,0,.03-.3,.9-.62,1.86,.71,.1,1.22,.25,1.93,.55,.07-.46,.09-.73,.09-1.53,0-.18,0-.26-.03-.42l.85,.03c-.02,.16-.03,.22-.04,.52-.02,.75-.06,1.15-.14,1.71,.5,.26,.59,.3,.86,.46,.25,.14,.27,.15,.41,.22l-.3,.88c-.23-.2-.7-.5-1.16-.76-.22,.6-.45,.98-.86,1.42-.35,.38-.74,.66-1.23,.94-.25-.32-.33-.4-.6-.61,.59-.28,.92-.5,1.25-.87,.34-.37,.59-.79,.73-1.24-.66-.33-1.13-.47-1.97-.6-.34,1.01-.56,1.56-.78,1.94-.3,.53-.63,.78-1.04,.78-.3,0-.6-.14-.82-.37-.24-.26-.38-.64-.38-1.06,0-.7,.35-1.31,.97-1.69,.42-.25,.83-.35,1.48-.37,.24-.71,.35-1.06,.56-1.81-.38,.03-.54,.04-1.21,.06-.5,.02-.66,.03-.84,.06l-.03-.79Zm.14,3.67c-.22,.23-.34,.53-.34,.82,0,.37,.2,.66,.44,.66,.16,0,.31-.16,.5-.53,.14-.29,.38-.9,.56-1.44-.54,.05-.88,.18-1.16,.48Z"/><path class="cls-4" d="M115.65,189.99c.71,.55,1.13,.98,1.72,1.74l-.66,.61c-.56-.78-1.02-1.26-1.67-1.79l.61-.55Z"/><path class="cls-5" d="M45.31,192.75v-.4h16v.4h-16Z"/><path class="cls-4" d="M18.41,195.46c0-.38-.02-.57-.06-.77h.86c-.04,.23-.06,.42-.06,.77v1.86h1.87v-1.39c0-.25,0-.42-.03-.61h.82c-.03,.23-.04,.39-.04,.66v1.59c0,.2,0,.34,.02,.47-.18-.02-.35-.02-.54-.02h-2.1v2.75h2.14v-1.41c0-.28,0-.48-.04-.68h.82c-.02,.19-.04,.42-.04,.74v1.76c0,.35,.02,.54,.05,.75h-.79v-.44h-4.93v.44h-.79c.03-.22,.05-.45,.05-.75v-1.72c0-.31,0-.53-.04-.74h.82c-.03,.18-.04,.38-.04,.69v1.37h2.04v-2.75h-1.94c-.19,0-.36,0-.55,.02,.02-.16,.02-.32,.02-.47v-1.58c0-.25-.02-.45-.04-.66h.82c-.02,.16-.03,.36-.03,.62v1.38h1.73v-1.86Z"/><path class="cls-4" d="M23.24,196.13c.3,.06,.52,.07,.98,.07,.18,0,.3,0,.47,0,.1-.5,.17-1.05,.17-1.29,0-.02,0-.06,0-.11l.89,.08q-.06,.18-.15,.76c-.04,.24-.05,.32-.09,.53,.61-.06,1.02-.14,1.39-.26l.04,.77q-.06,0-.24,.04c-.38,.08-.94,.15-1.33,.18-.1,.54-.31,1.42-.52,2.15-.24,.83-.43,1.38-.9,2.57l-.84-.34c.57-1.03,1.15-2.77,1.46-4.35-.07,0-.48,0-.65,0-.06,0-.12,0-.23,0-.12,0-.26,0-.37,0h-.09v-.78Zm3.82,3.03c-.21,.26-.27,.34-.33,.46-.06,.14-.1,.3-.1,.42,0,.42,.45,.65,1.28,.65,.59,0,1.34-.12,1.79-.29l.06,.83c-.13,.02-.18,.02-.38,.06-.63,.1-1,.14-1.46,.14-.68,0-1.18-.1-1.54-.3-.35-.2-.56-.56-.56-.97,0-.38,.14-.7,.58-1.28l.66,.28Zm2.41-1.18c-.38-.04-.61-.05-.98-.05-.76,0-1.28,.06-2.06,.24l-.06-.74c1.06-.21,1.46-.26,2.27-.26,.22,0,.35,0,.82,0l.02,.8Z"/><path class="cls-4" d="M35.77,195.02c.38,0,.62,0,.85-.04-.02,.27-.04,.5-.04,.78v5.23c0,.4,.02,.66,.05,.93h-.81v-.49h-3.89v.49h-.81c.03-.26,.05-.51,.05-.88v-5.24c0-.32-.02-.58-.04-.82,.26,.03,.51,.04,.88,.04h3.77Zm.05,1.86v-1.16h-3.89v1.16h3.89Zm-3.89,1.87h3.89v-1.18h-3.89v1.18Zm0,1.97h3.89v-1.28h-3.89v1.28Z"/><path class="cls-4" d="M37.96,196.88c.29,0,1.06-.08,1.73-.18,.14-.75,.22-1.38,.22-1.64,0-.03,0-.08,0-.14l.88,.09c-.02,.1-.04,.16-.06,.26l-.19,1.06c-.03,.18-.03,.2-.06,.3,.22-.02,.34-.02,.52-.02,.51,0,.88,.13,1.13,.39,.28,.29,.38,.66,.38,1.37,0,1.32-.22,2.4-.58,2.85-.22,.26-.45,.36-.85,.36-.33,0-.68-.08-1.22-.26,.02-.14,.02-.24,.02-.3,0-.15,0-.28-.06-.55,.43,.2,.9,.34,1.17,.34,.26,0,.4-.18,.53-.62,.13-.42,.21-1.18,.21-1.87,0-.75-.22-.99-.88-.99-.17,0-.3,0-.51,.03-.32,1.33-.63,2.22-1.14,3.29-.06,.13-.24,.48-.53,1.06l-.78-.43c.24-.3,.56-.88,.83-1.48,.35-.78,.54-1.32,.82-2.38-.62,.08-1.2,.18-1.51,.27l-.08-.8Zm5.36-.73c.81,.92,1.3,1.81,1.66,3l-.75,.39c-.15-.64-.34-1.15-.66-1.73-.3-.57-.55-.92-.93-1.32l.67-.34Zm.29-1.37c.38,.42,.55,.68,.83,1.2l-.5,.27c-.26-.5-.49-.83-.83-1.22l.5-.25Zm.94-.46c.38,.42,.55,.66,.82,1.17l-.49,.28c-.25-.46-.47-.8-.82-1.2l.48-.25Z"/><path class="cls-5" d="M46.43,198.77c0-.3,0-.66,.02-1.05-.21,.39-.37,.63-.62,.94-.07-.21-.22-.56-.33-.75,.53-.59,.94-1.35,1.26-2.28,.16-.46,.25-.82,.27-1.08l.77,.25c-.05,.12-.07,.18-.14,.42-.12,.4-.33,.94-.54,1.42v4.39c0,.47,0,.73,.03,.98h-.78c.03-.29,.05-.54,.05-.97v-2.25Zm3.46-.81h-1.08c-.29,0-.5,0-.73,.02,.02-.22,.03-.42,.03-.76v-1.53c0-.33,0-.54-.03-.77,.18,.02,.36,.03,.73,.03h2.92c.3,0,.52,0,.72-.03-.02,.22-.03,.42-.03,.78v1.53c0,.34,0,.54,.03,.75-.22-.02-.44-.02-.72-.02h-1.2v.57h1.55c.37,0,.57,0,.72-.03-.02,.21-.03,.45-.03,.78v1.98c0,.24-.07,.41-.22,.5-.16,.1-.38,.13-.9,.13-.29,0-.38,0-.58-.02-.04-.29-.08-.42-.18-.68,.34,.04,.61,.06,.9,.06,.21,0,.28-.03,.28-.14v-1.96h-1.55v.99q.25-.04,.54-.09c-.09-.2-.14-.3-.29-.58l.48-.18c.29,.5,.43,.82,.66,1.48l-.55,.22c-.05-.21-.06-.27-.11-.42-.57,.13-1.35,.27-1.87,.34-.34,.04-.38,.05-.52,.08l-.15-.73c.14,0,.18,0,.23,0,.17,0,.6-.03,.94-.06v-1.07h-1.45v1.9c0,.38,.02,.65,.04,.9h-.78c.03-.27,.05-.53,.05-.9v-1.8c0-.34,0-.53-.02-.74,.18,.02,.38,.02,.67,.02h1.5v-.57Zm-1.11-2.43v.65h1.11v-.65h-1.11Zm0,1.19v.68h1.11v-.68h-1.11Zm1.75-.54h1.21v-.65h-1.21v.65Zm0,1.22h1.21v-.68h-1.21v.68Z"/><path class="cls-5" d="M57.06,196.2c.26,0,.42,0,.53-.02v.62c-.13-.02-.27-.02-.53-.02h-.65c.21,.24,.47,.44,.82,.62-.18,.19-.19,.21-.4,.54-.42-.34-.54-.46-.8-.85,.02,.16,.02,.28,.02,.35v.36c0,.1,0,.22,.02,.31h-.71c.02-.1,.03-.2,.03-.29v-.36c0-.09,0-.22,.02-.37-.49,.66-.7,.88-1.38,1.35-.14-.23-.24-.35-.45-.54,.7-.38,1.05-.68,1.39-1.13h-.58c-.28,0-.48,0-.65,.04v-.66c.18,.03,.35,.04,.66,.04h.99v-.99c0-.22,0-.37-.04-.54h.73c-.02,.15-.03,.3-.03,.53v1h1Zm-.32,5.29c-.32-.24-.44-.32-.8-.51-.53,.47-.98,.7-1.92,1-.1-.24-.2-.41-.35-.62,.71-.17,1.22-.38,1.66-.7-.37-.17-.59-.26-1.2-.48,.26-.36,.34-.47,.54-.82h-.34c-.28,0-.43,0-.6,.04v-.68c.16,.03,.31,.04,.6,.04h.65c.09-.19,.13-.3,.22-.59l.7,.14c-.1,.23-.12,.3-.19,.45h1.34c.28,0,.43,0,.58-.04v.68c-.17-.03-.33-.04-.62-.04h-.06c-.16,.51-.27,.74-.54,1.11,.34,.16,.42,.2,.73,.4l-.39,.62Zm-2.21-6.7c.3,.42,.41,.64,.58,1.05l-.58,.23c-.17-.44-.3-.7-.56-1.06l.57-.22Zm.85,4.57c-.1,.18-.16,.27-.33,.54,.38,.14,.51,.19,.76,.3,.22-.29,.34-.5,.43-.84h-.86Zm2.13-4.34c-.29,.58-.38,.74-.64,1.11l-.58-.26c.28-.36,.46-.69,.61-1.1l.61,.26Zm3.52,1.76c-.17-.02-.3-.03-.62-.03-.05,.82-.1,1.19-.25,1.74-.15,.53-.34,.97-.59,1.41,.47,.62,.94,1,1.62,1.36-.16,.2-.25,.36-.41,.7-.66-.38-1.15-.82-1.65-1.46-.5,.6-1.08,1.06-1.85,1.49-.13-.26-.23-.42-.44-.63,.86-.42,1.42-.85,1.89-1.45-.38-.66-.58-1.22-.74-2.05-.16,.27-.25,.41-.45,.66-.16-.21-.3-.33-.5-.47,.53-.63,.91-1.46,1.16-2.46,.09-.35,.15-.7,.16-.94l.75,.15q-.03,.1-.1,.39c-.1,.43-.17,.65-.25,.92h1.5c.38,0,.54,0,.75-.05v.72Zm-2.49-.03c-.04,.1-.05,.14-.1,.23,.14,.92,.35,1.59,.71,2.27,.37-.71,.53-1.42,.58-2.5h-1.19Z"/><path class="cls-4" d="M64.51,194.86q-.05,.14-.13,.52c-.06,.26-.1,.42-.18,.78,.58-.06,1-.13,1.34-.24l.03,.78c-.1,0-.1,0-.27,.04-.3,.06-.77,.11-1.29,.15-.24,.82-.53,1.58-.88,2.33-.18,.39-.26,.53-.57,1.08-.06,.11-.12,.21-.15,.28l-.77-.44c.29-.36,.5-.72,.78-1.28,.33-.66,.61-1.36,.78-1.94-.17,0-.24,0-.47,0s-.22,0-.54,0h-.29v-.77c.28,.05,.56,.06,1.02,.06,.23,0,.38,0,.48,0,.14-.52,.25-1.08,.26-1.43l.86,.1Zm3.69,6.36c-.28-.35-.77-.74-1.29-1.02,0,.09,0,.1,0,.17,0,.3-.12,.63-.29,.84-.26,.3-.73,.47-1.3,.47-1.02,0-1.67-.48-1.67-1.24s.69-1.33,1.66-1.33c.26,0,.46,.02,.81,.09-.03-.41-.05-.71-.05-1.02s.02-.48,.06-.76l.78,.06c-.08,.3-.1,.46-.1,.77s.02,.69,.08,1.16c.57,.25,.85,.41,1.32,.77,.18,.14,.18,.14,.25,.2q.06,.06,.12,.1l-.38,.75Zm-2.83-1.43c-.58,0-.94,.24-.94,.61s.32,.57,.87,.57c.59,0,.88-.25,.88-.74,0-.09-.02-.3-.02-.3-.3-.1-.51-.14-.79-.14Zm2.85-2.21c-.67-.46-1.35-.79-2.23-1.11l.4-.63c.94,.35,1.51,.63,2.2,1.05l-.37,.69Z"/><path class="cls-4" d="M71.06,196.41c-.11,.44-.23,1.1-.37,2.05-.02,.14-.02,.18-.06,.28,.5-.5,1.51-.83,2.51-.83,1.34,0,2.2,.64,2.2,1.62,0,.58-.3,1.14-.79,1.48-.53,.36-1.18,.53-2.05,.53-.69,0-1.11-.06-2.03-.29,0-.4-.02-.54-.09-.86,.72,.26,1.43,.4,2.1,.4,1.18,0,2.01-.5,2.01-1.24,0-.58-.54-.93-1.43-.93-.99,0-2.01,.4-2.43,.96l-.86-.02c.02-.14,.02-.18,.06-.47,.08-.58,.18-1.29,.34-2.28,.03-.18,.04-.28,.06-.45l.83,.05Zm.21-1.49c.52,.3,2.01,.75,2.87,.89l-.28,.76c-1.42-.34-2.05-.55-2.98-.98l.39-.66Z"/><path class="cls-4" d="M77.59,195.25c.26,.03,.41,.04,.76,.04,.79,0,1.9-.05,2.5-.11,.22-.02,.4-.06,.53-.1l.44,.56c-.15,.11-.2,.15-.43,.37-.65,.62-1.54,1.31-2.35,1.86,.38-.05,.93-.1,1.92-.19,.52-.04,.94-.07,1.2-.1,.31-.03,.54-.05,.63-.06,.12-.02,.15-.02,.26-.04l.06,.78c-.08,0-.14,0-.18,0-.86,0-1.65,.15-2.25,.42-.38,.18-.72,.43-.93,.7-.17,.22-.23,.38-.23,.6,0,.58,.62,.9,1.74,.9,.27,0,.46-.02,.67-.06l.03,.86c-.12,0-.18-.02-.24-.02h-.47c-.78,0-1.55-.18-1.94-.46-.38-.27-.59-.66-.59-1.1s.22-.87,.66-1.25c.21-.18,.39-.3,.78-.5-.44,.08-.62,.1-1.6,.22-1.26,.15-1.85,.24-2.14,.32l-.08-.82h.16c.24,0,.9-.07,1.37-.15,.74-.45,1.96-1.42,2.64-2.11-.55,.1-.97,.13-2.34,.19-.22,0-.35,.02-.5,.04l-.05-.79Z"/><path class="cls-4" d="M87.01,199.37c-.46,1.06-.95,1.52-1.57,1.52-.85,0-1.47-.89-1.47-2.1,0-.86,.3-1.66,.86-2.28,.66-.72,1.58-1.09,2.69-1.09,1.86,0,3.09,1.14,3.09,2.87,0,1.33-.7,2.41-1.9,2.9-.38,.15-.69,.24-1.23,.34-.12-.37-.19-.5-.41-.78,.62-.1,.98-.18,1.33-.33,.86-.37,1.39-1.21,1.39-2.17,0-.83-.39-1.5-1.09-1.87-.27-.14-.49-.2-.86-.22-.14,1.19-.43,2.36-.82,3.22Zm-1.1-2.83c-.73,.49-1.18,1.34-1.18,2.25,0,.7,.3,1.25,.69,1.25,.29,0,.58-.35,.9-1.08,.31-.74,.58-1.86,.69-2.81-.44,.05-.75,.15-1.1,.38Z"/><path class="cls-4" d="M93.62,198.13c-.28,0-.52,.02-.74,.04v-.65c-.37,.39-.62,.62-1.06,.94-.13-.22-.29-.42-.53-.64,.98-.66,1.66-1.4,2.13-2.31,.19-.36,.28-.6,.32-.82l.82,.3c-.07,.1-.12,.19-.22,.41-.35,.75-.76,1.36-1.37,2.03,.18,.02,.4,.03,.65,.03h2.81c.32,0,.5,0,.74-.02-.59-.63-1.06-1.32-1.43-2.09-.04-.08-.13-.25-.18-.34l.75-.29c.06,.2,.13,.38,.3,.69,.55,.98,1.26,1.74,2.27,2.38-.19,.2-.33,.38-.51,.71-.48-.36-.75-.59-1.11-.96q0,.14-.02,.5c-.02,1.74-.14,2.91-.34,3.32-.16,.3-.42,.41-1.02,.41-.2,0-.36,0-.92-.04-.03-.3-.08-.46-.19-.79,.42,.07,.78,.11,1.03,.11,.3,0,.38-.04,.45-.2,.09-.26,.14-.65,.19-1.3,.03-.4,.05-.82,.05-1.13v-.26h-1.67c-.06,.86-.24,1.43-.62,2.06-.44,.73-1.09,1.29-2.03,1.76-.13-.26-.24-.4-.48-.65,.49-.2,.83-.41,1.23-.76,.58-.5,.95-1.15,1.1-1.92,.02-.15,.04-.23,.06-.5h-.46Z"/><path class="cls-4" d="M100.91,198.03c-.05,1.89-.3,2.81-1.06,3.9-.18-.21-.34-.36-.59-.54,.74-1.02,.95-1.97,.95-4.29,0-.54,0-.73-.03-1.02,.22,.02,.51,.03,.88,.03h4.29c.36,0,.54,0,.74-.03-.02,.15-.02,.31-.02,.58v.81c0,.27,0,.41,.02,.59-.22-.02-.42-.03-.74-.03h-4.44Zm5.68-2.38c-.26-.03-.46-.04-.92-.04h-5.18c-.4,0-.62,0-.9,.04v-.74c.26,.03,.52,.05,.9,.05h5.19c.41,0,.65-.02,.91-.05v.74Zm-2.59,3.97c.32,.54,.62,.84,1.14,1.11,.45,.23,.82,.34,1.57,.47-.15,.3-.16,.31-.29,.74-.86-.22-1.34-.42-1.84-.75-.46-.32-.8-.7-1.06-1.18-.25,.52-.54,.86-1.03,1.2-.45,.31-.88,.5-1.66,.73-.06-.23-.16-.41-.36-.69,.82-.19,1.18-.32,1.57-.56,.46-.29,.75-.62,.92-1.06h-1.11c-.34,0-.55,0-.81,.04v-.7c.21,.03,.42,.04,.81,.04h1.26c.02-.18,.04-.38,.04-.46,0-.14,0-.22-.02-.32h.78q-.02,.06-.03,.22s0,.07-.02,.13q0,.11-.02,.26t-.02,.18h1.87c.38,0,.61,0,.83-.04v.71c-.26-.03-.51-.05-.83-.05h-1.68Zm1.36-2.17v-.74h-4.44v.36c0,.23,0,.27,0,.38h4.45Z"/><path class="cls-4" d="M108.46,195.24c.26,.04,.41,.05,.85,.05,.73,0,1.67-.04,2.46-.1,.26-.02,.33-.03,.45-.1l.43,.6c-.12,.06-.17,.1-.41,.33-1.11,1.05-1.98,1.77-2.54,2.1l.02,.02c.68-.31,1.16-.42,1.8-.42,1.34,0,2.21,.69,2.21,1.75,0,.74-.38,1.33-1.07,1.72-.52,.29-1.16,.44-1.88,.44-.64,0-1.17-.12-1.48-.34-.3-.21-.48-.54-.48-.9,0-.61,.55-1.05,1.29-1.05,.55,0,1.04,.24,1.36,.66,.16,.21,.25,.38,.37,.74,.27-.09,.43-.17,.6-.29,.31-.23,.49-.57,.49-.95,0-.7-.62-1.13-1.64-1.13-1.17,0-2.38,.5-3.33,1.35l-.46-.71c.72-.38,2.6-1.93,3.64-2.99,.02-.02,.11-.11,.14-.14h0c-.29,.03-1.14,.09-2.36,.14-.18,0-.24,.02-.4,.04l-.04-.82Zm1.65,4.73c-.33,0-.54,.16-.54,.42,0,.35,.41,.57,1.08,.57,.16,0,.21,0,.46-.03-.16-.63-.5-.95-1-.95Z"/><path class="cls-5" d="M45.31,202.35v-.4h16v.4h-16Z"/></g><g><g><rect class="cls-3" x="104.31" y="72.99" width="41.03" height="41.03" rx="4.01" ry="4.01"/><rect class="cls-1" x="109.54" y="78.22" width="41.03" height="41.03" rx="4.01" ry="4.01"/><rect class="cls-4" x="111.29" y="79.97" width="41.03" height="41.03" rx="4.01" ry="4.01"/><g><circle class="cls-1" cx="121.39" cy="90.07" r="3.47"/><circle class="cls-1" cx="142.21" cy="90.07" r="3.47"/><circle class="cls-1" cx="142.21" cy="110.89" r="3.47"/><circle class="cls-1" cx="121.39" cy="110.89" r="3.47"/></g></g><g><rect class="cls-3" x="26.27" y="72.99" width="41.03" height="41.03" rx="4.01" ry="4.01"/><rect class="cls-1" x="31.5" y="78.22" width="41.03" height="41.03" rx="4.01" ry="4.01"/><rect class="cls-4" x="33.24" y="79.97" width="41.03" height="41.03" rx="4.01" ry="4.01"/><g><circle class="cls-1" cx="53.76" cy="100.48" r="3.47"/><circle class="cls-1" cx="43.35" cy="90.07" r="3.47"/><circle class="cls-1" cx="64.17" cy="90.07" r="3.47"/><circle class="cls-1" cx="64.17" cy="110.89" r="3.47"/><circle class="cls-1" cx="43.35" cy="110.89" r="3.47"/></g></g><path class="cls-5" d="M58.49,129.01h-21.97c-1.1,0-2,.9-2,2s.9,2,2,2h21.97v3.57c0,.9,1.08,1.34,1.7,.7l5.55-5.57c.38-.4,.38-1.02,0-1.42l-5.55-5.57c-.62-.64-1.7-.18-1.7,.7v3.59Z"/><path class="cls-5" d="M120.1,129.01h21.97c1.1,0,2,.9,2,2s-.9,2-2,2h-21.97v3.57c0,.9-1.08,1.34-1.7,.7l-5.55-5.57c-.38-.4-.38-1.02,0-1.42l5.55-5.57c.62-.64,1.7-.18,1.7,.7v3.59Z"/></g></svg>