<?xml version="1.0" encoding="UTF-8"?><svg id="Layer_1" xmlns="http://www.w3.org/2000/svg" viewBox="0 0 178.58 249.45"><defs><style>.cls-1{fill:#f2f2f2;}.cls-2{fill:#fff;}.cls-3{fill:#ffa914;}.cls-4{fill:#ccc;}.cls-5{fill:gray;}.cls-6{fill:#4d4d4d;}.cls-7{opacity:.9;}</style></defs><g><path class="cls-2" d="M13.95,3.09H164.63c6,0,10.86,4.87,10.86,10.86V235.5c0,6-4.87,10.86-10.86,10.86H13.95c-6,0-10.86-4.87-10.86-10.86V13.95C3.09,7.96,7.96,3.09,13.95,3.09Z"/><path class="cls-3" d="M164.63,6.18c4.29,0,7.77,3.49,7.77,7.77V235.5c0,4.29-3.49,7.77-7.77,7.77H13.95c-4.29,0-7.77-3.49-7.77-7.77V13.95c0-4.29,3.49-7.77,7.77-7.77H164.63M164.63,0H13.95C6.25,0,0,6.25,0,13.95V235.5C0,243.2,6.25,249.45,13.95,249.45H164.63c7.71,0,13.95-6.25,13.95-13.95V13.95C178.58,6.25,172.34,0,164.63,0h0Z"/></g><g><path class="cls-3" d="M37.18,15.88c-1.05,0-1.5,.01-2.05,.06v-2.23c.7,.08,1.09,.1,2.09,.1h6.94c.41-.01,.61-.05,.87-.14l1.22,1.37c-.2,.19-.27,.28-.58,.81-1.3,2.19-2.34,3.45-4.02,4.85,.54,.65,.9,1.1,1.51,1.93l-1.9,1.48c-.76-1.24-1.39-2.12-2.45-3.31-1.03-1.18-1.62-1.76-2.55-2.52l1.74-1.22c1.04,.85,1.46,1.24,2.19,2.01,.72-.6,1.52-1.41,1.98-2,.32-.39,.66-.94,.81-1.23l-5.8,.03Z"/><path class="cls-3" d="M56.56,24.11c-1.1-1.39-2.22-2.5-3.64-3.6-1.19,1.41-2.7,2.52-4.66,3.47-.44-.89-.71-1.27-1.42-2,1.65-.63,2.95-1.46,4.1-2.56,1.18-1.13,1.95-2.25,2.55-3.72l-3.29,.05c-1.09,.02-1.49,.05-2.01,.13l-.06-2.25c.49,.06,.84,.09,1.33,.09,.1,0,.34,0,.71-.01l4.33-.06c.6-.01,.67-.01,1.01-.14l1.11,1.14c-.19,.19-.27,.32-.46,.75-.67,1.58-1.15,2.47-1.86,3.42,1.53,1.1,2.05,1.55,4.03,3.43l-1.77,1.88Z"/><path class="cls-3" d="M63.15,15.06c.04-.49,.06-1.23,.06-1.62,0-.27,0-.37-.04-.63l2.38,.06c-.06,.29-.06,.33-.14,1.53q-.01,.34-.04,.65h2.76c.42,0,.57-.03,.85-.14l.99,.86c-.14,.25-.17,.36-.18,.94-.09,2.71-.28,4.83-.53,5.66-.37,1.18-.98,1.58-2.38,1.58-.49,0-.68-.01-1.66-.1-.05-1.01-.14-1.43-.43-2.23,.63,.17,1.25,.25,1.65,.25,.61,0,.76-.2,.92-1.3,.13-.85,.24-2.45,.24-3.53h-2.42q-.1,.84-.19,1.27c-.56,2.56-1.76,4.21-4.33,5.9-.57-.9-.95-1.33-1.65-1.93,1.69-.89,2.66-1.79,3.29-3.07,.32-.65,.46-1.1,.63-2.17h-1.58c-.85,0-1.11,.01-1.71,.08v-2.17c.62,.09,.85,.1,1.75,.1h1.75Z"/><path class="cls-3" d="M71.53,17.25c.6,.09,1.28,.11,2.6,.11h6.06c1.27,0,1.75-.03,2.6-.11v2.44c-.61-.06-1.16-.08-2.61-.08h-6.03c-1.42,0-1.84,.01-2.61,.08v-2.44Z"/><path class="cls-3" d="M85.38,24.05c.05-.53,.06-.9,.08-1.94v-7.37c-.01-1.09-.01-1.15-.09-1.84h2.45c-.05,.33-.05,.53-.06,1.85v1.74c2,.65,3.99,1.55,5.76,2.64l-1.2,2.15c-1.05-.75-2.52-1.56-3.99-2.2-.38-.15-.42-.16-.46-.19-.04-.01-.06-.03-.11-.06v3.29c0,.94,.03,1.61,.08,1.94h-2.44Zm5.73-10.44c.49,.56,.9,1.14,1.25,1.81l-1.2,.58c-.42-.8-.75-1.27-1.25-1.85l1.2-.54Zm1.69-.76c.47,.51,.82,.99,1.27,1.76l-1.17,.57c-.44-.8-.8-1.31-1.24-1.81l1.14-.52Z"/></g><path class="cls-3" d="M13.95,0H30V16.05c0,7.7-6.25,13.95-13.95,13.95H0V13.95C0,6.25,6.25,0,13.95,0Z"/><g class="cls-7"><path class="cls-2" d="M15,19.78c-.1,0-.19-.04-.26-.11l-6.73-4.47c-.07-.08-.07-.31,.07-.45l6.58-4.37c.14-.13,.23-.16,.33-.16s.19,.04,.26,.11l6.73,4.49c.07,.08,.07,.31-.07,.45l-6.58,4.35c-.14,.13-.23,.17-.33,.17Z"/><path class="cls-2" d="M15.08,10.66h0m-.08,.07s.04,.03,.07,.05l6.36,4.23-6.36,4.21s-.05,.03-.07,.05c-.02-.02-.05-.03-.07-.05l-6.36-4.21,6.36-4.23s.05-.03,.07-.05m0-.98c-.21,0-.43,.08-.59,.24l-6.65,4.43c-.32,.32-.32,.86,0,1.18l6.65,4.41c.16,.16,.38,.24,.59,.24s.43-.08,.59-.24l6.65-4.41c.32-.32,.32-.86,0-1.18l-6.65-4.43c-.16-.16-.38-.24-.59-.24h0Z"/></g><g><path d="M22.7,160.62c.36,0,.5-.01,.71-.02,.01-.78,.61-1.39,1.38-1.39s1.39,.62,1.39,1.38-.62,1.39-1.39,1.39c-.07,0-.14-.01-.23-.02-.97,3.92-3.09,6.37-6.88,7.95-.31-.62-.52-.9-1.06-1.43,3.32-1.03,5.49-3.26,6.26-6.45h-5.71c-.89,0-1.12,.01-1.51,.07v-1.56c.43,.07,.72,.08,1.54,.08h5.51Zm1.31-.04c0,.43,.35,.79,.78,.79s.79-.36,.79-.79-.35-.78-.79-.78-.78,.35-.78,.78Z"/><path d="M29.54,159.91c-.05,.32-.06,.62-.07,1.21l-.06,6.85c1.25-.24,2.38-.7,3.27-1.32,1.1-.76,1.85-1.58,2.45-2.75,.47,.62,.62,.79,1.14,1.22-.83,1.27-1.59,2.07-2.67,2.79-1.2,.8-2.42,1.27-4.37,1.64-.32,.06-.47,.11-.72,.2l-.77-.92c.08-.32,.11-.54,.11-1.24l.05-6.48q0-.84-.06-1.24h1.7Z"/><path d="M47.08,160.56c-.2,.18-.26,.23-.44,.42-.9,.94-1.8,1.71-2.83,2.47v5.12c0,.66,.01,1.01,.06,1.33h-1.68c.06-.35,.07-.59,.07-1.29v-4.22c-1.4,.84-2.08,1.15-4.28,1.94-.25-.62-.38-.83-.8-1.37,2.37-.65,4.39-1.64,6.3-3.12,1.07-.83,1.88-1.65,2.23-2.24l1.38,.96Z"/><path d="M58.73,161.6c-.12,.17-.13,.2-.32,.68-.3,.83-.88,1.79-1.48,2.48-.4,.47-.74,.79-1.44,1.35-.41-.43-.59-.58-1.21-.94,.74-.49,1.13-.8,1.55-1.29,.47-.53,.72-.92,.96-1.51-.07,.01-.18,.04-.32,.07l-3.9,.65,1.01,5.42c.11,.62,.17,.86,.3,1.26l-1.63,.29c-.01-.34-.07-.78-.14-1.21l-1.01-5.51-1.32,.22c-.64,.11-.91,.17-1.32,.29l-.25-1.51c.53-.01,.85-.05,1.38-.13l1.27-.21-.23-1.21c-.12-.7-.14-.79-.25-1.12l1.58-.24c.01,.34,.05,.55,.14,1.06l.23,1.27,4.77-.79c.36-.06,.5-.1,.73-.2l.9,.83Z"/><path d="M59.94,163.9c.53,.07,.75,.08,1.94,.08h6.39c1.19,0,1.42-.01,1.94-.08v1.67c-.48-.06-.61-.06-1.96-.06h-6.37c-1.34,0-1.48,0-1.96,.06v-1.67Z"/><path d="M76.55,166.54c-.68,1.55-1.45,2.25-2.44,2.25-1.37,0-2.35-1.39-2.35-3.32,0-1.32,.47-2.55,1.32-3.49,1.01-1.1,2.42-1.68,4.13-1.68,2.88,0,4.75,1.75,4.75,4.45,0,2.08-1.08,3.73-2.91,4.47-.58,.24-1.04,.36-1.88,.5-.2-.64-.35-.9-.73-1.4,1.1-.14,1.82-.34,2.39-.66,1.04-.58,1.67-1.72,1.67-3,0-1.15-.52-2.09-1.48-2.66-.37-.21-.68-.31-1.21-.36-.23,1.88-.65,3.54-1.25,4.89Zm-1.76-4.29c-1.01,.72-1.63,1.96-1.63,3.24,0,.98,.42,1.76,.95,1.76,.4,0,.8-.5,1.24-1.54,.46-1.08,.85-2.7,1-4.05-.62,.07-1.06,.24-1.55,.59Z"/><path d="M92.85,162.25c-.1,.22-.12,.38-.13,.8-.04,1.36-.17,3.2-.29,3.99-.31,2.08-.73,2.57-2.17,2.57-.46,0-.86-.04-1.49-.13-.02-.76-.06-.98-.28-1.54,.71,.19,1.19,.28,1.58,.28,.52,0,.7-.26,.89-1.31,.14-.83,.26-2.46,.26-3.84h-2.79c-.17,1.51-.42,2.41-.96,3.44-.66,1.27-1.73,2.36-3.24,3.32-.41-.63-.58-.83-1.08-1.27,1.5-.79,2.48-1.74,3.12-3.02,.32-.66,.5-1.25,.61-2.09,.02-.17,.05-.29,.06-.37h-1.99c-.73,.01-.9,.02-1.3,.07v-1.48c.4,.07,.72,.1,1.32,.1h2.1c.04-.47,.06-1.16,.06-1.51v-.3c0-.16,0-.25-.04-.47l1.61,.04c-.02,.16-.04,.21-.05,.37,0,.07-.01,.14-.01,.23q-.02,.25-.05,.88c-.01,.26-.01,.37-.05,.75h2.66c.54-.01,.65-.02,.95-.12l.68,.6Z"/><path d="M94.69,163.9c.53,.07,.76,.08,1.94,.08h6.39c1.19,0,1.42-.01,1.94-.08v1.67c-.48-.06-.61-.06-1.96-.06h-6.37c-1.34,0-1.48,0-1.96,.06v-1.67Z"/><path d="M107.77,169.88c.05-.33,.07-.66,.07-1.34v-7.69c-.01-.7-.02-.94-.07-1.22h1.64c-.04,.32-.05,.55-.05,1.26v2.23c1.39,.46,3.55,1.46,5.45,2.53l-.84,1.42c-.84-.6-2.54-1.52-4.25-2.29-.28-.13-.31-.14-.41-.21,.04,.34,.05,.54,.05,.82v3.17c0,.65,.01,.98,.05,1.33h-1.64Zm4.94-9.63c.53,.56,.85,1.02,1.26,1.76l-.84,.44c-.4-.73-.73-1.21-1.26-1.79l.84-.42Zm1.86,1.45c-.36-.66-.75-1.22-1.22-1.74l.8-.42c.54,.55,.88,1.01,1.25,1.69l-.83,.47Z"/><path d="M117,160.71c.49,.11,1.26,.16,2.78,.16,.32-.72,.43-1.08,.48-1.49l1.57,.17q-.07,.12-.48,1.08c-.06,.13-.08,.17-.11,.22q.1-.01,.76-.05c1.39-.08,2.48-.22,3.14-.41l.08,1.37q-.33,.03-.95,.1c-.88,.11-2.4,.2-3.61,.24-.35,.68-.68,1.16-1.1,1.6v.02q.1-.06,.25-.18c.44-.34,1.08-.54,1.69-.54,.94,0,1.52,.44,1.71,1.27,.92-.34,1.54-.55,1.83-.65,.65-.23,.7-.24,.89-.36l.56,1.38c-.34,.05-.7,.14-1.33,.32-.17,.05-.77,.25-1.8,.61v.13q.01,.31,.01,.48v.48c-.01,.2-.01,.31-.01,.4,0,.26,.01,.43,.04,.64l-1.39,.04c.05-.22,.07-.83,.07-1.39v-.29c-.59,.28-.9,.44-1.15,.62-.42,.31-.62,.64-.62,.98,0,.62,.58,.88,2.03,.88s2.67-.18,3.53-.5l.12,1.55c-.2,0-.26,.01-.55,.05-.86,.13-2.02,.21-3.07,.21-1.27,0-2.06-.14-2.67-.5-.55-.31-.88-.89-.88-1.55,0-.49,.14-.88,.53-1.33,.54-.67,1.22-1.13,2.58-1.69-.06-.44-.3-.65-.73-.65-.7,0-1.54,.42-2.46,1.24-.5,.42-.78,.72-1.04,1.09l-1.09-1.08c.31-.24,.66-.58,1.08-1.07,.47-.55,1.2-1.59,1.44-2.05q.05-.1,.1-.16s-.2,.01-.2,.01c-.19,0-1.25-.02-1.51-.02q-.23-.01-.34-.01s-.11,0-.19,.01l.02-1.37Z"/><path d="M136.51,165.86c.5,0,.77-.01,1.06-.04v.92c-.35-.02-.71-.04-1.07-.04h-.31v.52h1.03c.58,0,.95-.01,1.33-.06v1.19c-.46-.04-.91-.06-1.38-.06h-.98v1.01c0,.83-.36,1.04-1.67,1.04-.26,0-.68-.02-1.1-.05-.07-.52-.12-.72-.32-1.21,.64,.08,.88,.11,1.2,.11,.58,0,.62-.02,.62-.32v-.58h-3.71c.55,.37,.97,.73,1.42,1.22l-1.04,.83c-.44-.61-.86-1.02-1.44-1.4l.98-.65h-1.71c-.55,0-1.03,.02-1.42,.06v-1.19c.4,.05,.78,.06,1.34,.06h5.58v-.52h-4.34c-.44,0-.59,0-1.02,.04,.02-.26,.04-.53,.04-.77v-1.28c-.35,.25-.49,.34-.9,.53-.17-.41-.31-.62-.66-1,1.29-.54,1.98-1.02,2.76-1.89-.8,.42-1.29,.61-2.54,.97-.2-.53-.3-.73-.59-1.13,1.34-.25,2.33-.59,3.2-1.09h-1.51c-.47,0-1.1,.04-1.33,.07v-1.25c.3,.07,.7,.1,1.39,.1h2.65c.22-.28,.37-.58,.46-.85l1.42,.17q-.05,.06-.08,.13s-.05,.07-.08,.14c-.01,.01-.05,.08-.13,.23-.02,.04-.06,.1-.11,.18h3.62c.61,0,1.09-.02,1.4-.07v1.21c-.38-.05-.79-.06-1.38-.06h-1.8c.71,.54,2.11,1.02,3.5,1.17-.32,.52-.43,.76-.55,1.15-.83-.24-.86-.25-1.19-.36v.29c-.43-.02-.72-.04-1.03-.04h-1.96v.37h1.73c.61,0,.91-.01,1.18-.04v.79c-.29-.02-.6-.04-1.18-.04h-1.73v.36h1.73c.58,0,.91-.01,1.18-.05v.8c-.31-.02-.6-.04-1.18-.04h-1.73v.38h2.36Zm-3.5-1.46h-2.24v.36h2.24v-.36Zm0,1.08h-2.24v.38h2.24v-.38Zm0-2.17h-1.67c-.24,.24-.28,.26-.41,.37h2.07v-.37Zm-.08-.83c.24-.34,.38-.59,.54-.92l1.18,.28q-.11,.16-.16,.23-.18,.26-.29,.42h1.56c-.71-.35-1.32-.82-1.87-1.39h-1.27c-.25,.23-.41,.35-.78,.61l.61,.17c-.1,.14-.35,.47-.47,.61h.95Z"/><path d="M140.07,163.36q.31-.01,1.39-.2c1.7-.3,2.75-.41,3.77-.41s1.71,.16,2.27,.49c.74,.44,1.16,1.25,1.16,2.19,0,1.37-.83,2.61-2.28,3.44-.98,.56-1.82,.82-3.78,1.13-.12-.63-.25-.94-.62-1.5,1.39-.06,2.69-.4,3.61-.91,.95-.53,1.46-1.28,1.46-2.11,0-.9-.64-1.36-1.88-1.36-1.36,0-3.75,.42-4.75,.83l-.35-1.6Zm1.87-3.83c1.33,.44,3.11,.7,5,.7h.34l-.2,1.48c-2.18-.1-3.84-.31-5.6-.76l.47-1.42Z"/></g><g><path class="cls-5" d="M16.24,181.38c0-.25,0-.34,.02-.91-.22,.38-.42,.66-.74,1.04-.1-.27-.18-.43-.38-.74,.63-.65,1.12-1.39,1.47-2.28,.17-.41,.29-.81,.32-1.1l.77,.23c-.06,.17-.08,.23-.16,.46-.19,.55-.32,.85-.58,1.36v4.4c0,.37,.02,.66,.04,.96h-.8c.03-.29,.05-.54,.05-.98v-2.43Zm2.51-.74v2.87c0,.18,.05,.23,.25,.27,.21,.05,.49,.06,1.09,.06,.93,0,1.31-.04,1.49-.14,.17-.11,.24-.35,.29-1.06,.3,.14,.41,.17,.73,.23-.11,.88-.22,1.21-.46,1.38-.29,.21-.83,.27-2.25,.27-.58,0-1.05-.03-1.3-.1-.41-.1-.54-.27-.54-.67v-2.87c-.09,.03-.16,.06-.21,.06-.26,.09-.36,.13-.5,.19l-.08-.76c.2-.02,.5-.1,.74-.18l.05-.02v-1.01c0-.37-.02-.6-.05-.84h.8c-.03,.22-.05,.45-.05,.81v.81l.97-.32v-1.36c0-.3-.02-.53-.05-.78h.79c-.03,.24-.05,.44-.05,.77v1.14l1.2-.4c.32-.1,.48-.17,.65-.25q-.02,.22-.02,.4c-.02,.9-.08,2.05-.14,2.57-.08,.59-.26,.74-.84,.74-.14,0-.3,0-.48-.02-.03-.26-.07-.42-.18-.69,.22,.05,.44,.07,.6,.07,.2,0,.23-.07,.29-.63,.04-.37,.06-.91,.07-1.5l-1.14,.38v2.16c0,.32,0,.54,.05,.78h-.79c.03-.23,.05-.46,.05-.81v-1.9l-.97,.33Z"/><path class="cls-5" d="M26.53,182.17c-.46,1.06-.95,1.52-1.58,1.52-.85,0-1.47-.89-1.47-2.1,0-.86,.3-1.66,.86-2.28,.66-.72,1.58-1.09,2.69-1.09,1.86,0,3.09,1.14,3.09,2.87,0,1.33-.7,2.41-1.9,2.9-.38,.15-.69,.24-1.23,.34-.12-.37-.19-.5-.41-.78,.62-.1,.98-.18,1.33-.33,.86-.37,1.39-1.21,1.39-2.17,0-.83-.39-1.5-1.1-1.87-.27-.14-.49-.2-.86-.22-.14,1.19-.43,2.36-.82,3.22Zm-1.1-2.83c-.73,.49-1.17,1.34-1.17,2.25,0,.7,.3,1.25,.69,1.25,.29,0,.58-.35,.9-1.08,.31-.74,.58-1.86,.69-2.81-.44,.05-.75,.15-1.1,.38Z"/><path class="cls-5" d="M36.23,178.43s0-.09,0-.13c0-.51,.41-.93,.92-.93s.93,.42,.93,.93-.42,.93-.93,.93c-.09,0-.18-.02-.26-.04-.02,.04-.03,.1-.05,.17-.4,1.52-1.02,2.61-1.99,3.51-.72,.67-1.42,1.1-2.54,1.57-.18-.36-.27-.48-.58-.78,.71-.22,1.17-.44,1.77-.83,1.26-.83,2.05-1.98,2.46-3.61h-3.81c-.54,0-.75,.02-1.06,.06v-.9c.32,.05,.54,.06,1.08,.06h4.06Zm.38-.13c0,.3,.24,.54,.54,.54s.54-.25,.54-.54-.24-.54-.54-.54-.54,.25-.54,.54Z"/><path class="cls-5" d="M40.1,177.92c-.03,.23-.04,.4-.04,.95l-.03,4.49c.86-.15,1.6-.44,2.22-.84,.76-.5,1.27-1.06,1.7-1.87,.26,.36,.34,.46,.63,.69-.54,.82-1.05,1.35-1.73,1.81-.77,.52-1.61,.84-2.85,1.08-.24,.05-.34,.07-.46,.13l-.44-.54c.06-.18,.06-.3,.06-.7l.02-4.24v-.22c0-.39,0-.56-.03-.76h.95Z"/><path class="cls-5" d="M51.72,178.25c-.14,.12-.15,.13-.36,.34-.52,.55-1.17,1.11-1.84,1.59v3.22c0,.55,.02,.81,.05,1.05h-.95c.04-.3,.05-.47,.05-1.05v-2.7c-.98,.6-1.48,.82-2.94,1.34-.14-.34-.22-.46-.45-.77,1.54-.41,2.9-1.08,4.17-2.07,.72-.56,1.27-1.11,1.5-1.5l.77,.54Z"/><path class="cls-5" d="M59.18,178.97c-.07,.1-.09,.13-.21,.44-.21,.54-.59,1.16-1,1.62-.26,.3-.5,.5-.94,.85-.22-.24-.32-.31-.67-.53,.51-.33,.78-.55,1.09-.9,.27-.31,.45-.59,.61-.95t.02-.06s.02-.02,.02-.05c-.03,0-.04,0-.07,.02,0,0-.06,.02-.13,.02l-2.82,.48,.64,3.49c.1,.55,.14,.71,.23,1.01l-.9,.16c-.02-.3-.06-.6-.14-1.04l-.65-3.49-.96,.16c-.42,.07-.58,.1-.84,.18l-.14-.85c.31,0,.54-.03,.88-.09l.93-.15-.14-.81c-.07-.36-.1-.5-.18-.77l.9-.14c.02,.23,.03,.38,.11,.78l.14,.8,3.29-.54c.22-.04,.3-.06,.43-.13l.51,.46Z"/><path class="cls-5" d="M60.08,180.61c.3,.04,.64,.06,1.23,.06h4.33c.69,0,.88,0,1.19-.05v.93c-.35-.03-.61-.04-1.2-.04h-4.31c-.67,0-.91,0-1.24,.04v-.94Z"/><path class="cls-5" d="M68.71,177.89c.22,.04,.39,.05,.74,.05h.64c.35,0,.47,0,.75-.04-.05,.49-.06,.86-.06,1.33v3.97c0,.41,.02,.67,.06,.99h-1.03c.05-.3,.06-.59,.06-.99v-4.49h-.4c-.27,0-.5,.02-.77,.05v-.86Z"/><path class="cls-5" d="M77.4,177.56c-.02,.13-.05,.51-.05,.78,0,.61,.1,1.39,.22,1.86,.2,.73,.67,1.62,1.18,2.24,.28,.34,.7,.75,1.1,1.06,.22,.18,.4,.29,.79,.51-.26,.26-.37,.41-.54,.74-.96-.66-1.5-1.18-2.06-1.95-.49-.67-.8-1.36-1.06-2.33-.15,.69-.3,1.09-.59,1.68-.3,.6-.66,1.06-1.2,1.58-.44,.42-.73,.64-1.33,1.01-.17-.3-.29-.46-.54-.68,.89-.48,1.33-.83,1.85-1.46,.96-1.17,1.38-2.52,1.38-4.36,0-.31,0-.46-.03-.67h.87Z"/><path class="cls-5" d="M83.53,178.6c.22-.5,.32-.78,.34-1.03l.88,.11c-.05,.07-.06,.1-.1,.18q-.09,.21-.25,.58s-.05,.1-.06,.14t.06,0h.04s.18,0,.4-.02c.86-.03,1.7-.14,2.13-.27l.05,.76q-.18,.02-.62,.07c-.56,.07-1.59,.14-2.38,.16-.28,.54-.53,.9-.86,1.25v.02q.06-.05,.18-.13c.35-.27,.78-.42,1.22-.42,.3,0,.59,.1,.78,.26,.18,.15,.27,.32,.33,.61,.65-.24,1.08-.4,1.29-.47,.41-.14,.44-.15,.57-.23l.33,.77c-.45,.08-.98,.25-2.1,.66q0,.29,0,.43v.38c0,.14,0,.22,0,.28,0,.15,0,.27,.02,.39l-.78,.02c.02-.16,.05-.61,.05-1.04v-.19c-.98,.45-1.34,.77-1.34,1.19,0,.48,.42,.66,1.54,.66,.84,0,1.71-.13,2.21-.33l.08,.86c-.14,0-.18,0-.35,.04-.59,.09-1.34,.14-1.99,.14-.81,0-1.34-.1-1.73-.32-.35-.2-.56-.56-.56-.98,0-.74,.66-1.38,2.05-1.97-.04-.34-.22-.51-.54-.51-.48,0-1.07,.29-1.7,.83-.32,.27-.5,.47-.66,.7l-.62-.62c.38-.28,.86-.83,1.29-1.46,.1-.15,.26-.42,.5-.81h-.91c-.2-.02-.35-.02-.46-.02h-.05s-.06,0-.12,0l.02-.76c.4,.07,.83,.1,1.56,.1h.29Z"/><path class="cls-5" d="M89.91,178.25c0-.34-.02-.57-.05-.81h.82c-.03,.24-.05,.46-.05,.8v.72h.22c.22,0,.41,0,.62-.04v.72c-.24-.02-.41-.03-.63-.03h-.22v1.42q.24-.08,.86-.28l.02,.65c-.38,.15-.5,.2-.87,.32v2.32c0,.51-.23,.66-.99,.66-.22,0-.35,0-.64-.02-.02-.31-.06-.46-.15-.73,.34,.06,.57,.08,.81,.08,.21,0,.26-.05,.26-.22v-1.88q-.27,.08-.48,.14s-.17,.05-.36,.1c-.05,.02-.09,.03-.18,.06l-.14-.78q.27-.02,1.15-.23v-1.61h-.45c-.22,0-.4,0-.63,.04v-.74c.2,.03,.4,.05,.63,.05h.45v-.71Zm2.59,.17c1.24-.18,2.27-.49,2.71-.78l.54,.62c-1.16,.39-2.04,.6-3.25,.75v.46c0,.29,.12,.32,1.39,.32s1.34-.02,1.38-.96c.25,.12,.46,.18,.7,.23-.08,.73-.18,.99-.44,1.16-.27,.17-.63,.21-2.01,.21-.66,0-1.17-.05-1.35-.12-.28-.11-.38-.28-.38-.62v-1.46c0-.34,0-.54-.04-.77h.79c-.02,.2-.04,.42-.04,.74v.22Zm-.7,3.18c0-.31,0-.5-.02-.66,.2,.02,.37,.03,.71,.03h2.33c.37,0,.52,0,.72-.03-.02,.17-.03,.36-.03,.67v2.33c0,.43,0,.6,.04,.81h-.74v-.39h-2.31v.4h-.74c.03-.22,.04-.39,.04-.79v-2.37Zm.7,.74h2.31v-.74h-2.31v.74Zm0,1.4h2.31v-.78h-2.31v.78Z"/><path class="cls-5" d="M100.1,180.42h-1.27c-.36,0-.57,0-.81,.04v-.73c.21,.02,.45,.04,.81,.04h3.16c.36,0,.6-.02,.81-.04v.73c-.21-.02-.44-.04-.81-.04h-1.19v1.14h1.53c.35,0,.57-.02,.78-.05v.73c-.24-.03-.44-.04-.78-.04h-1.53v1.54c.34,.05,.81,.08,1.3,.08,.55,0,1.1-.02,1.85-.09-.12,.27-.17,.45-.21,.77-.58,.02-.94,.02-1.5,.02-1.22,0-2.09-.15-2.69-.47-.46-.24-.79-.56-1.05-.98-.32,.68-.6,1.09-1.14,1.67-.18-.25-.27-.33-.58-.54,.55-.53,.83-.9,1.1-1.5,.25-.54,.44-1.29,.44-1.7l.76,.14q-.03,.13-.1,.46c-.03,.12-.12,.46-.22,.76,.2,.37,.29,.5,.51,.7,.24,.22,.47,.37,.82,.5v-3.13Zm-.13-2.45c0-.19,0-.31-.05-.5h.84c-.03,.18-.05,.3-.05,.5v.34h2.21c.31,0,.57,0,.86-.03-.02,.18-.03,.35-.03,.57v.58c0,.24,0,.42,.03,.61h-.73v-1.06h-5.33v1.06h-.74c.02-.2,.03-.34,.03-.61v-.58c0-.2,0-.41-.03-.57,.3,.02,.54,.03,.85,.03h2.13v-.34Z"/><path class="cls-5" d="M106.51,177.83c-.04,.22-.06,.45-.09,1.03-.03,.69-.08,2.45-.08,3,0,.74,.05,1.04,.22,1.3,.19,.29,.59,.45,1.13,.45,.88,0,1.59-.5,2-1.38,.18-.4,.28-.74,.38-1.31,.35,.3,.48,.38,.81,.53-.32,1.03-.55,1.53-.92,1.95-.59,.67-1.37,1.01-2.33,1.01-.55,0-1.05-.13-1.37-.35-.52-.37-.74-.94-.74-1.97,0-.46,0-.9,.06-3.24,0-.25,0-.4,0-.54,0-.19,0-.3-.03-.48l.95,.02Z"/><path class="cls-5" d="M112.3,182.39c.71,.55,1.13,.98,1.72,1.73l-.66,.61c-.56-.78-1.02-1.26-1.67-1.79l.61-.55Z"/><path class="cls-5" d="M16.62,187.65c.26,.03,.41,.04,.76,.04,.79,0,1.9-.05,2.5-.11,.22-.02,.4-.06,.53-.1l.44,.56c-.15,.11-.2,.15-.43,.37-.65,.62-1.54,1.31-2.35,1.86,.38-.05,.93-.1,1.92-.19,.52-.04,.94-.07,1.2-.1,.31-.03,.54-.05,.63-.06,.12-.02,.15-.02,.26-.04l.06,.78c-.08,0-.14,0-.18,0-.86,0-1.65,.15-2.25,.42-.38,.18-.72,.43-.93,.7-.17,.22-.23,.38-.23,.6,0,.58,.62,.9,1.74,.9,.27,0,.46-.02,.67-.06l.03,.86c-.12,0-.18-.02-.24-.02h-.47c-.78,0-1.55-.18-1.94-.46-.38-.27-.59-.66-.59-1.1s.22-.87,.66-1.25c.21-.18,.39-.3,.78-.5-.44,.08-.62,.1-1.6,.22-1.26,.15-1.85,.24-2.14,.32l-.08-.82h.16c.24,0,.9-.07,1.37-.15,.74-.45,1.96-1.42,2.64-2.11-.55,.1-.97,.13-2.34,.19-.22,0-.35,.02-.5,.04l-.05-.79Z"/><path class="cls-5" d="M26.04,191.77c-.46,1.06-.95,1.52-1.58,1.52-.85,0-1.47-.89-1.47-2.1,0-.86,.3-1.66,.86-2.28,.66-.72,1.58-1.1,2.69-1.1,1.86,0,3.09,1.14,3.09,2.87,0,1.34-.7,2.41-1.9,2.9-.38,.15-.69,.24-1.23,.34-.12-.37-.19-.5-.41-.78,.62-.1,.98-.18,1.33-.33,.86-.37,1.39-1.21,1.39-2.17,0-.83-.39-1.5-1.1-1.87-.27-.14-.49-.2-.86-.22-.14,1.19-.43,2.36-.82,3.22Zm-1.1-2.83c-.73,.49-1.17,1.34-1.17,2.25,0,.7,.3,1.25,.69,1.25,.29,0,.58-.35,.9-1.08,.31-.74,.58-1.85,.69-2.81-.44,.05-.75,.15-1.1,.38Z"/><path class="cls-5" d="M35.73,188.03s0-.09,0-.13c0-.51,.41-.93,.92-.93s.93,.42,.93,.93-.42,.93-.93,.93c-.09,0-.18-.02-.26-.04-.02,.04-.03,.1-.05,.17-.4,1.52-1.02,2.61-1.99,3.51-.72,.67-1.42,1.1-2.54,1.57-.18-.36-.27-.48-.58-.78,.71-.22,1.18-.44,1.78-.83,1.26-.83,2.05-1.98,2.46-3.61h-3.81c-.54,0-.75,.02-1.06,.06v-.9c.32,.05,.54,.06,1.08,.06h4.06Zm.38-.13c0,.3,.24,.54,.54,.54s.54-.25,.54-.54-.24-.54-.54-.54-.54,.25-.54,.54Z"/><path class="cls-5" d="M39.61,187.52c-.03,.23-.04,.4-.04,.95l-.03,4.49c.86-.15,1.6-.44,2.22-.84,.76-.5,1.27-1.06,1.7-1.87,.26,.36,.34,.46,.63,.69-.54,.82-1.05,1.35-1.73,1.82-.77,.52-1.61,.84-2.85,1.08-.24,.05-.34,.07-.46,.13l-.44-.54c.06-.18,.06-.3,.06-.7l.02-4.24v-.22c0-.39,0-.56-.03-.76h.95Z"/><path class="cls-5" d="M51.23,187.85c-.14,.12-.15,.13-.36,.34-.52,.55-1.17,1.11-1.84,1.59v3.22c0,.55,.02,.81,.05,1.06h-.95c.04-.3,.05-.47,.05-1.06v-2.69c-.98,.6-1.48,.82-2.94,1.33-.14-.34-.22-.46-.45-.77,1.54-.41,2.9-1.08,4.17-2.07,.72-.56,1.27-1.11,1.5-1.5l.77,.54Z"/><path class="cls-5" d="M58.68,188.57c-.07,.1-.09,.13-.21,.44-.21,.54-.59,1.16-1,1.62-.26,.3-.5,.5-.94,.85-.22-.24-.32-.31-.67-.53,.51-.33,.78-.55,1.09-.9,.27-.31,.45-.59,.61-.95t.02-.06s.02-.02,.02-.05c-.03,0-.04,0-.07,.02,0,0-.06,.02-.13,.02l-2.82,.48,.64,3.49c.1,.55,.14,.71,.23,1.01l-.9,.16c-.02-.3-.06-.6-.14-1.04l-.65-3.49-.96,.16c-.42,.07-.58,.1-.84,.18l-.14-.85c.31,0,.54-.03,.88-.09l.93-.15-.14-.81c-.07-.36-.1-.5-.18-.77l.9-.14c.02,.23,.03,.38,.11,.78l.14,.8,3.29-.54c.22-.04,.3-.06,.43-.13l.51,.46Z"/><path class="cls-5" d="M59.58,190.21c.3,.04,.64,.06,1.23,.06h4.33c.69,0,.88,0,1.19-.05v.93c-.35-.03-.61-.04-1.2-.04h-4.31c-.67,0-.91,0-1.24,.04v-.94Z"/><path class="cls-5" d="M70.49,191.77c-.46,1.06-.95,1.52-1.58,1.52-.85,0-1.47-.89-1.47-2.1,0-.86,.3-1.66,.86-2.28,.66-.72,1.58-1.1,2.69-1.1,1.86,0,3.09,1.14,3.09,2.87,0,1.34-.7,2.41-1.9,2.9-.38,.15-.69,.24-1.23,.34-.12-.37-.19-.5-.41-.78,.62-.1,.98-.18,1.33-.33,.86-.37,1.39-1.21,1.39-2.17,0-.83-.39-1.5-1.1-1.87-.27-.14-.49-.2-.86-.22-.14,1.19-.43,2.36-.82,3.22Zm-1.1-2.83c-.73,.49-1.18,1.34-1.18,2.25,0,.7,.3,1.25,.69,1.25,.29,0,.58-.35,.9-1.08,.31-.74,.58-1.85,.69-2.81-.44,.05-.75,.15-1.1,.38Z"/><path class="cls-5" d="M77.57,188.82c.03-.38,.05-.8,.05-1.14,0-.2,0-.26-.02-.42l.9,.02c-.03,.17-.03,.22-.07,1,0,.14,0,.24-.03,.54h1.86c.36-.02,.42-.02,.59-.08l.39,.35c-.06,.13-.07,.22-.08,.5-.05,1.76-.19,3.04-.41,3.61-.2,.51-.5,.7-1.12,.7-.3,0-.57-.03-1-.11,0-.41-.02-.54-.14-.85,.46,.14,.78,.2,1.05,.2,.36,0,.48-.18,.62-.92,.11-.58,.19-1.68,.19-2.68h-2.01c-.06,.57-.07,.62-.14,.91-.22,1.03-.65,1.83-1.36,2.57-.41,.42-.74,.69-1.28,1.02-.22-.34-.31-.44-.59-.69,.98-.52,1.65-1.18,2.08-2.05,.26-.53,.35-.88,.46-1.74h-1.38c-.5,0-.58,0-.86,.05v-.83c.27,.05,.46,.06,.86,.06h1.44Z"/><path class="cls-5" d="M82.58,190.21c.3,.04,.64,.06,1.23,.06h4.33c.69,0,.88,0,1.19-.05v.93c-.35-.03-.61-.04-1.2-.04h-4.31c-.67,0-.91,0-1.24,.04v-.94Z"/><path class="cls-5" d="M91.29,194.06c.04-.34,.05-.54,.05-1.02v-4.77c0-.55,0-.73-.05-.95h.95c-.04,.26-.05,.53-.05,.97v1.35c1.14,.4,2.26,.93,3.6,1.69l-.47,.79c-.35-.24-.57-.38-.98-.61-.61-.33-1.48-.76-1.92-.94q-.13-.06-.26-.14l.02,.31c0,.07,0,.32,0,.4v1.9c0,.42,.02,.72,.05,1.02h-.94Zm3.37-6.36c.38,.42,.55,.68,.83,1.2l-.5,.27c-.26-.5-.49-.83-.83-1.22l.5-.25Zm.94-.46c.38,.42,.55,.66,.82,1.17l-.49,.28c-.25-.46-.47-.8-.82-1.2l.48-.25Z"/><path class="cls-5" d="M99.22,188.2c.22-.5,.32-.78,.34-1.03l.88,.11c-.05,.07-.06,.1-.1,.18q-.09,.21-.25,.58s-.05,.1-.06,.14t.06,0h.04s.18,0,.4-.02c.86-.03,1.7-.14,2.13-.27l.05,.76q-.18,.02-.62,.07c-.56,.07-1.59,.14-2.37,.16-.28,.54-.53,.9-.86,1.25v.02q.06-.05,.18-.13c.35-.27,.78-.42,1.21-.42,.3,0,.59,.1,.78,.26,.18,.15,.27,.32,.33,.61,.65-.24,1.08-.4,1.29-.47,.41-.14,.44-.15,.57-.23l.33,.77c-.45,.08-.98,.25-2.1,.66q0,.29,0,.43v.38c0,.14,0,.22,0,.28,0,.15,0,.27,.02,.39l-.78,.02c.02-.16,.05-.61,.05-1.04v-.19c-.98,.45-1.34,.77-1.34,1.19,0,.48,.42,.66,1.54,.66,.84,0,1.71-.13,2.21-.33l.08,.86c-.14,0-.18,0-.35,.04-.59,.09-1.34,.14-1.99,.14-.81,0-1.33-.1-1.73-.32-.35-.2-.56-.56-.56-.98,0-.74,.66-1.38,2.05-1.97-.04-.34-.22-.51-.54-.51-.48,0-1.07,.29-1.7,.83-.32,.27-.5,.47-.66,.7l-.62-.62c.38-.28,.86-.83,1.29-1.46,.1-.15,.26-.42,.5-.81h-.91c-.2-.02-.35-.02-.46-.02h-.05s-.06,0-.12,0l.02-.76c.4,.07,.83,.1,1.56,.1h.29Z"/><path class="cls-5" d="M16.26,197.09c.22,.04,.39,.05,.74,.05h.64c.35,0,.47,0,.75-.04-.05,.49-.06,.86-.06,1.33v3.97c0,.41,.02,.67,.06,.99h-1.03c.05-.3,.06-.59,.06-.99v-4.49h-.4c-.27,0-.5,.02-.77,.05v-.86Z"/><path class="cls-5" d="M22.82,198.8c.28,.7,.52,1.06,1.06,1.61-.17,.18-.29,.37-.42,.64-.34-.46-.51-.76-.7-1.25,.02,.42,.04,.7,.04,1.01v2.38c0,.36,0,.6,.05,.82h-.79c.03-.22,.05-.47,.05-.82v-1.77c0-.54,0-.85,.03-1.35-.28,.95-.54,1.54-.96,2.17-.14-.28-.26-.44-.45-.65,.59-.75,1.08-1.81,1.3-2.8h-.32c-.28,0-.47,0-.65,.04v-.72c.2,.03,.37,.04,.66,.04h.37v-.82c0-.3,0-.49-.05-.7h.8c-.03,.22-.04,.4-.04,.71v.81h.38c.26,0,.42,0,.64-.04v.71c-.22-.02-.41-.03-.62-.03h-.38Zm5.32-.05c-.2-.02-.4-.04-.78-.04-.09,.7-.16,1.05-.33,1.58-.18,.59-.38,1.01-.69,1.49,.53,.62,1.08,1.02,1.94,1.43-.15,.18-.27,.4-.41,.72-.93-.55-1.37-.9-1.97-1.57-.57,.66-1.18,1.1-2.2,1.58-.13-.27-.25-.46-.43-.66,.56-.22,.86-.37,1.24-.63,.37-.26,.68-.54,.96-.86-.44-.66-.76-1.34-.96-2.05-.16,.26-.22,.37-.43,.65-.15-.22-.26-.33-.51-.56,.38-.46,.66-.99,.91-1.67,.18-.5,.34-1.16,.35-1.52l.78,.14c-.04,.11-.07,.21-.14,.46-.06,.23-.15,.57-.23,.82h2.02c.4,0,.64-.02,.86-.05v.74Zm-3.12-.04c-.04,.09-.05,.11-.09,.2,.2,.88,.47,1.52,.98,2.28,.42-.74,.62-1.38,.76-2.48h-1.65Z"/><path class="cls-5" d="M29.07,199.08c.36,.04,.58,.06,1.1,.06h3.82c.42,0,.54,0,.74-.06l.39,.45c-.07,.13-.11,.22-.22,.5-.44,1.19-1.04,2.05-1.89,2.69-.57,.42-1.09,.68-2.02,1.02-.14-.33-.22-.44-.51-.78,.98-.24,1.64-.55,2.26-1.09,.61-.52,.95-1.03,1.31-1.98h-3.9c-.63,0-.81,0-1.09,.04v-.83Zm.68-1.9c.34,.05,.43,.06,1,.06h2.53c.48,0,.64,0,1.01-.06v.84c-.31-.03-.53-.04-1-.04h-2.55c-.42,0-.6,0-.99,.04v-.84Z"/><path class="cls-5" d="M36.18,202.49c.65-.02,1.62-.27,2.35-.6,1-.44,1.75-1.05,2.38-1.94,.36-.53,.59-.96,.84-1.62,.26,.33,.37,.42,.7,.66-.66,1.45-1.42,2.37-2.49,3.1-.81,.55-1.8,.94-3.02,1.2-.3,.06-.34,.07-.5,.13l-.25-.93Zm.61-4.96c.91,.57,1.42,.95,2.01,1.53l-.58,.71c-.62-.66-1.26-1.18-1.99-1.6l.55-.64Z"/><path class="cls-5" d="M49.26,198.29c-.1,.13-.11,.18-.24,.53-.22,.61-.65,1.52-1,2.08-.81,1.29-1.9,2.2-3.6,2.98-.21-.35-.3-.47-.55-.7,.69-.27,1.1-.49,1.6-.82,.58-.39,.94-.7,1.33-1.18-.57-.5-1.09-.87-1.7-1.21l.52-.58c.67,.38,1.05,.64,1.67,1.14,.4-.62,.73-1.3,.97-2.03l-2.6,.02c-.56,.86-1.1,1.47-1.88,2.11-.22-.25-.32-.33-.67-.54,.86-.64,1.52-1.38,2.02-2.29,.24-.43,.4-.81,.46-1.1l.88,.21q-.09,.14-.26,.49c-.1,.22-.16,.32-.22,.4,.05,0,.16,0,.33-.02l2.4-.03c-.2-.34-.4-.62-.67-.94l.5-.25c.38,.42,.55,.68,.83,1.2l-.35,.19,.22,.31Zm.37-1.96c.38,.42,.55,.66,.82,1.17l-.49,.28c-.25-.46-.47-.8-.82-1.2l.48-.25Z"/><path class="cls-5" d="M53.52,197.17c-.09,.17-.1,.22-.21,.56-.54,1.79-1.1,3.38-1.62,4.62,1.29-.1,2.73-.28,3.55-.45-.36-.73-.83-1.55-1.18-2.04l.75-.3c.74,1.06,1.45,2.39,1.95,3.65l-.8,.42q-.1-.32-.42-1.02-.1,.02-.28,.06c-.88,.18-2.18,.35-4.57,.58-.48,.05-.57,.06-.72,.1l-.11-.91q.1,0,.19,0c.16,0,.25,0,.71-.03,.45-1.06,.77-1.93,1.18-3.2,.38-1.21,.54-1.78,.6-2.25l.98,.2Z"/><path class="cls-5" d="M59.18,197.11c-.17,.41-.34,1.17-.44,1.95-.09,.64-.14,1.49-.15,2.18v.72h.02c.07-.35,.12-.5,.43-1.23l.55,.25c-.41,.86-.69,1.81-.69,2.33,0,.03,0,.1,0,.18l-.82,.06c0-.14-.02-.18-.04-.35-.15-.93-.21-1.52-.21-2.36,0-1.06,.1-1.93,.34-3.12,.08-.42,.1-.5,.11-.71l.89,.11Zm2.1,3.3c-.4,.46-.58,.82-.58,1.17,0,.5,.47,.76,1.38,.76,.71,0,1.4-.1,1.88-.3l.07,.86c-.1,.02-.13,.02-.3,.05-.61,.1-1.11,.15-1.65,.15-.96,0-1.58-.22-1.92-.66-.16-.2-.25-.5-.25-.78,0-.48,.23-.98,.72-1.57l.65,.32Zm-1.2-2.53c.42,.1,.75,.13,1.36,.13,.98,0,1.78-.08,2.24-.22l.04,.82c-.06,0-.1,0-.56,.06-.5,.06-1.11,.1-1.7,.1-.46,0-.82-.02-1.17-.06-.11,0-.14-.02-.22-.02v-.8Z"/><path class="cls-5" d="M70.61,201.1c.33,0,.56,0,.72-.02v.53c-.26-.02-.48-.02-.74-.02h-.25v.42h.82c.35,0,.62,0,.87-.04v.67c-.3-.02-.59-.04-.9-.04h-.78v.74c0,.51-.21,.65-.98,.65-.23,0-.24,0-.75-.04-.04-.3-.07-.41-.18-.67,.4,.06,.7,.08,.89,.08,.3,0,.34-.02,.34-.21v-.55h-3.7c-.35,0-.67,.02-.92,.04v-.67c.26,.03,.53,.04,.88,.04h3.74v-.42h-2.89c-.24,0-.35,0-.65,.02,.02-.17,.02-.36,.02-.51v-.99c-.26,.18-.38,.25-.69,.38-.1-.23-.18-.35-.37-.56,.63-.26,.94-.42,1.34-.75,.26-.22,.45-.4,.63-.64-.56,.31-1.05,.5-1.89,.73-.11-.29-.18-.41-.34-.62,1.04-.18,1.74-.44,2.31-.82h-1.21c-.3,0-.7,.02-.87,.05v-.7c.18,.04,.46,.06,.9,.06h1.81c.17-.22,.28-.42,.33-.61l.78,.12s-.04,.06-.07,.12c-.11,.19-.14,.23-.22,.37h2.54c.39,0,.71-.02,.91-.05v.69c-.27-.03-.52-.04-.9-.04h-1.37c.56,.45,1.33,.72,2.47,.87-.17,.26-.25,.41-.32,.64-.46-.13-.61-.18-.9-.26v.25c-.3-.02-.48-.02-.7-.02h-1.31v.32h1.19c.39,0,.61,0,.78-.02v.47c-.19-.02-.42-.02-.78-.02h-1.19v.32h1.19c.39,0,.59,0,.78-.03v.48c-.18-.02-.4-.02-.78-.02h-1.19v.33h1.61Zm-3.56,1.5c.42,.28,.71,.54,1.01,.88l-.58,.46c-.32-.42-.58-.67-1-.97l.56-.38Zm1.31-2.57h-1.56v.32h1.56v-.32Zm0,.74h-1.56v.33h1.56v-.33Zm0-1.49h-1.2c-.12,.13-.21,.21-.35,.32h1.55v-.32Zm-.02-.47c.16-.22,.26-.39,.36-.62l.67,.17c-.14,.19-.27,.38-.32,.45h1.32c-.62-.28-1.06-.58-1.47-1h-.83c-.18,.17-.3,.26-.58,.45l.41,.12c-.09,.13-.26,.33-.35,.43h.8Z"/><path class="cls-5" d="M73.09,199.44q.2-.02,.88-.14c1.11-.2,1.83-.28,2.49-.28,.61,0,1.11,.11,1.45,.32,.48,.29,.74,.79,.74,1.39,0,.88-.53,1.69-1.46,2.23-.63,.38-1.17,.54-2.44,.75-.1-.38-.15-.53-.34-.82,1.03-.06,2-.35,2.61-.8,.49-.35,.75-.84,.75-1.38,0-.26-.12-.51-.32-.67-.23-.18-.54-.26-.99-.26-.91,0-2.5,.27-3.16,.54l-.2-.89Zm1.22-2.53c.87,.31,2.05,.47,3.43,.48l-.12,.81c-1.39-.06-2.44-.22-3.57-.51l.26-.78Z"/></g><path class="cls-6" d="M103.36,93.23h-32.68c-1.63,0-2.97,1.34-2.97,2.97s1.34,2.97,2.97,2.97h32.68v5.31c0,1.34,1.6,1.99,2.52,1.04l8.25-8.28c.56-.59,.56-1.51,0-2.11l-8.25-8.28c-.92-.95-2.52-.27-2.52,1.04v5.34Z"/><rect class="cls-4" x="34.07" y="84.31" width="19.29" height="26.94" rx="3" ry="3" transform="translate(-8.36 4.18) rotate(-5)"/><path class="cls-1" d="M42.75,96.53l-2.46-2.06c-.21-.18-.53-.15-.71,.06s-.15,.53,.06,.71l2.45,2.06,.66-.77Zm2.21-2.39l.65,.55-5.46,6.51c-.18,.21-.15,.53,.06,.71s.53,.15,.71-.06l5.46-6.5,.65,.55c.17,.14,.43,0,.41-.22l-.17-1.92c-.01-.14-.13-.24-.27-.23l-1.92,.17c-.23,.02-.31,.3-.14,.45Zm.12,4.35l-.65,.77,1.72,1.44-.55,.66c-.14,.17,0,.43,.22,.41l1.92-.17c.14-.01,.24-.13,.23-.27l-.17-1.92c-.02-.23-.3-.31-.44-.14l-.55,.65-1.72-1.45Z"/></svg>