<?xml version="1.0" encoding="UTF-8"?><svg id="Layer_1" xmlns="http://www.w3.org/2000/svg" viewBox="0 0 178.58 249.45"><defs><style>.cls-1{fill:#fff;}.cls-2{fill:#ffa914;}.cls-3{fill:gray;}.cls-4{fill:#4d4d4d;}.cls-5{opacity:.9;}</style></defs><g><rect class="cls-1" x="3.09" y="3.09" width="172.4" height="243.27" rx="10.86" ry="10.86"/><path class="cls-2" d="M164.63,6.18c4.29,0,7.77,3.49,7.77,7.77V235.5c0,4.29-3.49,7.77-7.77,7.77H13.95c-4.29,0-7.77-3.49-7.77-7.77V13.95c0-4.29,3.49-7.77,7.77-7.77H164.63M164.63,0H13.95C6.25,0,0,6.25,0,13.95V235.5C0,243.2,6.25,249.45,13.95,249.45H164.63c7.71,0,13.95-6.25,13.95-13.95V13.95C178.58,6.25,172.34,0,164.63,0h0Z"/></g><g><path class="cls-2" d="M37.18,15.88c-1.05,0-1.5,.01-2.05,.06v-2.23c.7,.08,1.09,.1,2.09,.1h6.94c.41-.01,.61-.05,.87-.14l1.22,1.37c-.2,.19-.27,.28-.58,.81-1.3,2.19-2.34,3.45-4.02,4.85,.54,.65,.9,1.1,1.51,1.93l-1.9,1.48c-.76-1.24-1.39-2.12-2.45-3.31-1.03-1.18-1.62-1.76-2.55-2.52l1.74-1.22c1.04,.85,1.46,1.24,2.19,2.01,.72-.6,1.52-1.41,1.98-2,.32-.39,.66-.94,.81-1.23l-5.8,.03Z"/><path class="cls-2" d="M56.56,24.11c-1.1-1.39-2.22-2.5-3.64-3.6-1.19,1.41-2.7,2.52-4.66,3.47-.44-.89-.71-1.27-1.42-2,1.65-.63,2.95-1.46,4.1-2.56,1.18-1.13,1.95-2.25,2.55-3.72l-3.29,.05c-1.09,.02-1.49,.05-2.01,.13l-.06-2.25c.49,.06,.84,.09,1.33,.09,.1,0,.34,0,.71-.01l4.33-.06c.6-.01,.67-.01,1.01-.14l1.11,1.14c-.19,.19-.27,.32-.46,.75-.67,1.58-1.15,2.47-1.86,3.42,1.53,1.1,2.05,1.55,4.03,3.43l-1.77,1.88Z"/><path class="cls-2" d="M63.15,15.06c.04-.49,.06-1.23,.06-1.62,0-.27,0-.37-.04-.63l2.38,.06c-.06,.29-.06,.33-.14,1.53q-.01,.34-.04,.65h2.76c.42,0,.57-.03,.85-.14l.99,.86c-.14,.25-.17,.36-.18,.94-.09,2.71-.28,4.83-.53,5.66-.37,1.18-.98,1.58-2.38,1.58-.49,0-.68-.01-1.66-.1-.05-1.01-.14-1.43-.43-2.23,.63,.17,1.25,.25,1.65,.25,.61,0,.76-.2,.92-1.3,.13-.85,.24-2.45,.24-3.53h-2.42q-.1,.84-.19,1.27c-.56,2.56-1.76,4.21-4.33,5.9-.57-.9-.95-1.33-1.65-1.93,1.69-.89,2.66-1.79,3.29-3.07,.32-.65,.46-1.1,.63-2.17h-1.58c-.85,0-1.11,.01-1.71,.08v-2.17c.62,.09,.85,.1,1.75,.1h1.75Z"/><path class="cls-2" d="M71.53,17.25c.6,.09,1.28,.11,2.6,.11h6.06c1.27,0,1.75-.03,2.6-.11v2.44c-.61-.06-1.16-.08-2.61-.08h-6.03c-1.42,0-1.84,.01-2.61,.08v-2.44Z"/><path class="cls-2" d="M85.38,24.05c.05-.53,.06-.9,.08-1.94v-7.37c-.01-1.09-.01-1.15-.09-1.84h2.45c-.05,.33-.05,.53-.06,1.85v1.74c2,.65,3.99,1.55,5.76,2.64l-1.2,2.15c-1.05-.75-2.52-1.56-3.99-2.2-.38-.15-.42-.16-.46-.19-.04-.01-.06-.03-.11-.06v3.29c0,.94,.03,1.61,.08,1.94h-2.44Zm5.73-10.44c.49,.56,.9,1.14,1.25,1.81l-1.2,.58c-.42-.8-.75-1.27-1.25-1.85l1.2-.54Zm1.69-.76c.47,.51,.82,.99,1.27,1.76l-1.17,.57c-.44-.8-.8-1.31-1.24-1.81l1.14-.52Z"/></g><path class="cls-2" d="M13.95,0H30V16.05c0,7.7-6.25,13.95-13.95,13.95H0V13.95C0,6.25,6.25,0,13.95,0Z"/><g class="cls-5"><path class="cls-1" d="M15,19.78c-.1,0-.19-.04-.26-.1l-6.73-4.47s-.03-.1-.03-.2,.04-.19,.11-.26l6.58-4.37c.14-.13,.23-.16,.33-.16s.19,.04,.26,.1l6.73,4.49s.03,.1,.03,.2-.04,.19-.11,.26l-6.58,4.35c-.14,.13-.23,.17-.33,.17Z"/><path class="cls-1" d="M15.08,10.66h0m-.08,.07s.04,.03,.07,.05l6.36,4.23-6.36,4.21s-.05,.03-.07,.05c-.02-.02-.05-.03-.07-.05l-6.36-4.21,6.36-4.23s.05-.03,.07-.05m0-.98c-.21,0-.43,.08-.59,.24l-6.65,4.43c-.32,.32-.32,.86,0,1.18l6.65,4.41c.16,.16,.38,.24,.59,.24s.43-.08,.59-.24l6.65-4.41c.32-.32,.32-.86,0-1.18l-6.65-4.43c-.16-.16-.38-.24-.59-.24h0Z"/></g><g><path d="M25.21,162.25c-.1,.22-.12,.38-.13,.8-.04,1.36-.17,3.2-.29,3.99-.31,2.08-.73,2.57-2.17,2.57-.46,0-.86-.04-1.49-.13-.02-.76-.06-.98-.28-1.54,.71,.19,1.19,.28,1.58,.28,.52,0,.7-.26,.89-1.31,.14-.83,.26-2.46,.26-3.84h-2.79c-.17,1.51-.42,2.41-.96,3.44-.66,1.27-1.73,2.36-3.24,3.32-.41-.64-.58-.83-1.08-1.27,1.5-.79,2.48-1.74,3.12-3.02,.32-.66,.5-1.25,.61-2.09,.02-.17,.05-.29,.06-.37h-1.99c-.73,.01-.9,.02-1.3,.07v-1.48c.4,.07,.72,.1,1.32,.1h2.1c.04-.47,.06-1.16,.06-1.51v-.3c0-.16,0-.25-.04-.47l1.61,.04c-.02,.16-.04,.2-.05,.37,0,.07-.01,.14-.01,.23q-.02,.25-.05,.88c-.01,.26-.01,.37-.05,.75h2.66c.54-.01,.65-.02,.95-.12l.68,.6Z"/><path d="M27.05,163.9c.53,.07,.76,.08,1.94,.08h6.39c1.19,0,1.42-.01,1.94-.08v1.67c-.48-.06-.61-.06-1.96-.06h-6.37c-1.34,0-1.48,0-1.96,.06v-1.67Z"/><path d="M40.13,169.87c.05-.33,.07-.66,.07-1.34v-7.69c-.01-.7-.02-.94-.07-1.22h1.64c-.04,.32-.05,.55-.05,1.26v2.23c1.39,.46,3.55,1.46,5.45,2.53l-.84,1.41c-.84-.6-2.54-1.52-4.25-2.29-.28-.13-.31-.14-.41-.2,.04,.34,.05,.54,.05,.82v3.17c0,.65,.01,.98,.05,1.33h-1.64Zm4.94-9.63c.53,.56,.85,1.02,1.26,1.76l-.84,.44c-.4-.73-.73-1.21-1.26-1.79l.84-.42Zm1.86,1.45c-.36-.66-.76-1.22-1.22-1.74l.8-.42c.54,.55,.88,1.01,1.25,1.69l-.83,.47Z"/><path d="M49.36,160.71c.49,.11,1.26,.16,2.78,.16,.32-.72,.43-1.08,.48-1.49l1.57,.17q-.07,.12-.48,1.08c-.06,.13-.08,.17-.11,.22q.1-.01,.76-.05c1.39-.08,2.48-.22,3.14-.41l.08,1.37q-.34,.02-.95,.1c-.88,.11-2.4,.21-3.61,.24-.35,.68-.68,1.16-1.1,1.6v.02q.1-.06,.25-.18c.44-.34,1.08-.54,1.69-.54,.94,0,1.52,.44,1.72,1.27,.92-.34,1.54-.55,1.83-.65,.65-.23,.7-.24,.89-.36l.56,1.38c-.34,.05-.7,.14-1.33,.32-.17,.05-.77,.25-1.8,.61v.13q.01,.31,.01,.48v.48c-.01,.2-.01,.31-.01,.39,0,.26,.01,.43,.04,.64l-1.39,.04c.05-.22,.07-.83,.07-1.39v-.29c-.59,.28-.9,.44-1.15,.62-.42,.31-.62,.63-.62,.98,0,.62,.58,.88,2.03,.88s2.67-.18,3.53-.5l.12,1.55c-.2,0-.26,.01-.55,.05-.86,.13-2.02,.22-3.07,.22-1.27,0-2.06-.14-2.67-.5-.55-.31-.88-.89-.88-1.55,0-.49,.14-.88,.53-1.33,.54-.67,1.22-1.13,2.58-1.69-.06-.44-.3-.65-.73-.65-.7,0-1.54,.42-2.46,1.23-.5,.42-.78,.72-1.04,1.09l-1.09-1.08c.31-.24,.66-.58,1.08-1.07,.47-.55,1.2-1.6,1.44-2.05q.05-.1,.1-.16s-.2,.01-.2,.01c-.19,0-1.25-.02-1.51-.02q-.23-.01-.34-.01s-.11,0-.19,.01l.02-1.37Z"/><path d="M63.29,164.47c-.58,0-.98,.02-1.31,.06v-.85c-.58,.34-.79,.46-1.31,.68q-.36-.67-.79-1.27c1.14-.44,2.11-.97,2.9-1.58,.4-.31,.95-.83,1.32-1.26,.25-.28,.38-.44,.65-.86h1.52c.67,.91,1.25,1.49,2.13,2.12,1,.71,1.79,1.12,2.94,1.52-.43,.62-.58,.89-.77,1.38-.54-.25-.89-.44-1.43-.76v.88c-.35-.04-.72-.06-1.27-.06h-1.69v1.36h1.94c.62,0,1.01-.02,1.32-.06v1.34c-.32-.04-.73-.06-1.32-.06h-1.94v1.62h3.12c.64,0,1.15-.02,1.52-.07v1.4c-.4-.06-.9-.08-1.51-.08h-7.48c-.61,0-1.1,.02-1.5,.08v-1.4c.35,.05,.86,.07,1.54,.07h2.97v-1.62h-1.76c-.6,0-1.01,.02-1.33,.06v-1.34c.37,.05,.73,.06,1.33,.06h1.76v-1.36h-1.56Zm4.65-1.21c.25,0,.34,0,.56-.01-1.32-.88-2.07-1.57-2.95-2.72-.7,1.03-1.56,1.85-2.89,2.72,.24,.01,.35,.01,.53,.01h4.75Z"/><path d="M72.07,161c.26,.01,.4,.01,.46,.01q.22,0,1.98-.12c.67-.04,2.66-.14,5.98-.3,.98-.05,1.16-.06,1.38-.12l.08,1.54q-.13-.01-.25-.01c-.72,0-1.61,.24-2.37,.65-1.52,.79-2.42,1.99-2.42,3.2,0,.94,.59,1.66,1.6,1.96,.59,.18,1.36,.31,1.79,.31,.01,0,.12,0,.24-.01l-.22,1.63c-.14-.04-.2-.05-.41-.07-1.32-.17-2.08-.38-2.81-.79-1.1-.62-1.71-1.64-1.71-2.89,0-1.02,.41-2.03,1.14-2.83,.46-.49,.89-.8,1.67-1.2-.97,.14-1.44,.18-4.04,.37-.8,.06-1.52,.14-1.99,.24l-.08-1.56Z"/><path d="M91.09,164.74c-.71,1.21-1,1.61-1.61,2.28,1.21,.92,2.52,1.49,4.61,1.96-.34,.49-.44,.72-.65,1.33-2.24-.62-3.59-1.27-4.92-2.38-1.27,1.03-2.87,1.85-4.75,2.42-.18-.52-.32-.8-.66-1.26,1.82-.47,3.42-1.2,4.47-2.05-.65-.72-1.07-1.34-1.58-2.35l1.08-.7c.06,.11,.1,.2,.12,.25,.37,.74,.77,1.31,1.33,1.92,.35-.36,.56-.62,.86-1.1,.25-.38,.32-.53,.55-1.08l1.14,.76Zm-3.6-2.18c-.6,.86-.98,1.3-1.64,1.9-.58,.53-1.03,.89-1.76,1.37-.25-.41-.48-.67-.9-1.04,1.42-.73,2.3-1.54,3.17-2.84l1.14,.62Zm.3-2.45c0-.31-.02-.6-.07-.86h1.49c-.05,.21-.07,.5-.07,.86v.42h3.25c.67,0,1.14-.02,1.49-.07v1.37c-.28-.05-.88-.07-1.51-.07h-7.63c-.73,0-1.13,.02-1.5,.07v-1.37c.35,.05,.82,.07,1.5,.07h3.06v-.42Zm2.73,1.8c.56,.72,.85,1.02,1.42,1.47,.64,.49,1.06,.74,1.99,1.16-.34,.38-.54,.68-.77,1.16-1.03-.58-1.5-.89-2.16-1.48-.6-.52-.92-.86-1.54-1.67l1.06-.66Z"/><path d="M102.85,167.53c.75,.92,1.51,1.28,3.41,1.63-.26,.46-.37,.73-.52,1.21-.98-.24-1.63-.49-2.33-.94-.64-.4-.98-.73-1.37-1.29-.37,.58-.76,.96-1.38,1.34-.72,.43-1.37,.67-2.37,.89-.16-.44-.29-.73-.56-1.18,1.05-.12,1.68-.3,2.31-.67,.47-.28,.79-.59,1.03-1h-1.78c-.48,0-.71,.01-1.08,.05v-1.2c.22,.04,.31,.04,.67,.05v-3.33q-.14,.11-.29,.21c-.14-.29-.22-.38-.42-.66-.14-.01-.31-.02-.46-.02h-.13v1.87c.25-.1,.4-.16,.77-.31v1.19c-.4,.17-.48,.2-.77,.32v3.38c0,.95-.3,1.16-1.61,1.16-.19,0-.34-.01-.68-.04-.04-.49-.1-.76-.26-1.21,.41,.05,.67,.07,.97,.07,.26,0,.32-.06,.32-.32v-2.59q-.96,.3-1.19,.4l-.18-1.31c.36-.04,.65-.11,1.37-.31v-2.3h-.44c-.25,0-.49,.01-.8,.05v-1.27c.3,.05,.52,.06,.82,.06h.43v-.97c0-.59-.02-.9-.07-1.23h1.39c-.05,.34-.06,.63-.06,1.22v.98h.12c.24,0,.41-.01,.62-.04v.59c.64-.5,1.13-1.02,1.5-1.59,.31-.48,.52-.9,.6-1.28l1.33,.14q-.06,.12-.18,.4s-.06,.11-.11,.2h1.42c.42,0,.64-.01,.88-.05l.64,.65c-.1,.12-.16,.22-.3,.44-.22,.34-.48,.71-.74,1.03h1.14c.5,0,.74-.01,1.03-.04-.02,.31-.04,.61-.04,1.16v3.35c.31-.01,.46-.02,.65-.05v1.21c-.32-.05-.64-.06-1.16-.06h-2.13Zm-1.44-1.1c.06-.37,.06-.4,.06-.85l1.24,.04q-.05,.46-.08,.82h1.74v-1.06c-.38,.01-.59,.02-.64,.02-1.01,0-1.29-.18-1.29-.77v-1.6h-.53c-.06,1.61-.32,2.24-1.2,3.01-.26-.28-.43-.43-.71-.63v1.02h1.42Zm-1.42-3.39v2.21c.43-.37,.58-.55,.71-.95,.13-.35,.17-.62,.19-1.26h-.9Zm1.97-1.08c.2-.23,.49-.62,.72-1h-1.81c-.25,.37-.44,.62-.75,1h1.85Zm2.4,1.08h-.92v1.08c0,.26,.05,.29,.5,.29,.1,0,.19,0,.42-.01v-1.36Z"/></g><g><path class="cls-3" d="M20.61,178.43s0-.09,0-.13c0-.51,.41-.93,.92-.93s.93,.42,.93,.93-.42,.93-.93,.93c-.09,0-.18-.02-.26-.04-.02,.04-.03,.1-.05,.17-.4,1.52-1.02,2.61-1.99,3.51-.72,.67-1.42,1.1-2.54,1.57-.18-.36-.27-.48-.58-.78,.71-.22,1.18-.44,1.77-.83,1.26-.83,2.05-1.98,2.46-3.61h-3.81c-.54,0-.75,.02-1.06,.06v-.9c.32,.05,.54,.06,1.08,.06h4.06Zm.38-.13c0,.3,.24,.54,.54,.54s.54-.25,.54-.54-.24-.54-.54-.54-.54,.25-.54,.54Z"/><path class="cls-3" d="M24.49,177.92c-.03,.23-.04,.4-.04,.95l-.03,4.49c.86-.15,1.6-.44,2.22-.84,.76-.5,1.27-1.06,1.69-1.87,.26,.36,.34,.46,.63,.69-.54,.82-1.05,1.35-1.73,1.82-.77,.52-1.61,.84-2.85,1.08-.24,.05-.34,.07-.46,.13l-.44-.54c.06-.18,.06-.3,.06-.7l.02-4.24v-.22c0-.39,0-.56-.03-.76h.95Z"/><path class="cls-3" d="M36.11,178.25c-.14,.12-.15,.13-.36,.34-.52,.55-1.17,1.11-1.84,1.59v3.22c0,.55,.02,.81,.05,1.06h-.95c.04-.3,.05-.47,.05-1.06v-2.69c-.98,.6-1.48,.82-2.94,1.33-.14-.34-.22-.46-.45-.77,1.54-.41,2.9-1.08,4.17-2.07,.72-.56,1.27-1.11,1.5-1.5l.77,.54Z"/><path class="cls-3" d="M43.56,178.97c-.07,.1-.09,.13-.21,.44-.21,.54-.59,1.16-1,1.62-.26,.3-.5,.5-.94,.85-.22-.24-.32-.31-.67-.53,.51-.33,.78-.55,1.09-.9,.27-.31,.45-.59,.61-.95t.02-.06s.02-.02,.02-.05c-.03,0-.04,0-.07,.02,0,0-.06,.02-.13,.02l-2.82,.48,.64,3.49c.1,.55,.14,.71,.23,1.01l-.9,.16c-.02-.3-.06-.6-.14-1.04l-.65-3.49-.96,.16c-.42,.07-.58,.1-.84,.18l-.14-.85c.31,0,.54-.03,.88-.09l.93-.15-.14-.81c-.07-.36-.1-.5-.18-.77l.9-.14c.02,.23,.03,.38,.11,.78l.14,.8,3.29-.54c.22-.04,.3-.06,.43-.13l.51,.46Z"/><path class="cls-3" d="M44.46,180.61c.3,.04,.64,.06,1.23,.06h4.33c.69,0,.88,0,1.19-.05v.93c-.35-.03-.61-.04-1.2-.04h-4.31c-.67,0-.91,0-1.24,.04v-.94Z"/><path class="cls-3" d="M54.4,178.6c.22-.5,.32-.78,.34-1.03l.88,.11c-.05,.07-.06,.1-.1,.18q-.09,.21-.25,.58s-.05,.1-.06,.14t.06,0h.04s.18,0,.4-.02c.86-.03,1.7-.14,2.13-.27l.05,.76q-.18,.02-.62,.07c-.56,.07-1.59,.14-2.38,.16-.28,.54-.53,.9-.86,1.25v.02q.06-.05,.18-.13c.35-.27,.78-.42,1.22-.42,.3,0,.59,.1,.78,.26,.18,.15,.27,.32,.33,.61,.65-.24,1.08-.4,1.29-.47,.41-.14,.44-.15,.57-.23l.33,.77c-.45,.08-.98,.25-2.1,.66q0,.29,0,.43v.38c0,.14,0,.22,0,.28,0,.15,0,.27,.02,.39l-.78,.02c.02-.16,.05-.61,.05-1.04v-.19c-.98,.45-1.34,.77-1.34,1.19,0,.48,.42,.66,1.54,.66,.84,0,1.71-.13,2.21-.33l.08,.86c-.14,0-.18,0-.35,.04-.59,.09-1.34,.14-1.99,.14-.81,0-1.34-.1-1.73-.32-.35-.2-.56-.56-.56-.98,0-.74,.66-1.38,2.05-1.97-.04-.34-.22-.51-.54-.51-.48,0-1.07,.29-1.7,.83-.32,.27-.5,.47-.66,.7l-.62-.62c.38-.28,.86-.83,1.29-1.46,.1-.15,.26-.42,.5-.81h-.91c-.2-.02-.35-.02-.46-.02h-.05s-.06,0-.12,0l.02-.76c.4,.07,.83,.1,1.56,.1h.29Z"/><path class="cls-3" d="M60.78,178.25c0-.34-.02-.57-.05-.81h.82c-.03,.24-.05,.46-.05,.8v.72h.22c.22,0,.41,0,.62-.04v.72c-.24-.02-.41-.03-.63-.03h-.22v1.42q.24-.08,.86-.28l.02,.65c-.38,.15-.5,.2-.87,.32v2.32c0,.51-.23,.66-.99,.66-.22,0-.35,0-.64-.02-.02-.31-.06-.46-.15-.73,.34,.06,.57,.08,.81,.08,.21,0,.26-.05,.26-.22v-1.88q-.27,.08-.48,.14s-.17,.05-.36,.1c-.05,.02-.09,.03-.18,.06l-.14-.78q.27-.02,1.15-.23v-1.61h-.45c-.22,0-.4,0-.63,.04v-.74c.2,.03,.4,.05,.63,.05h.45v-.71Zm2.59,.17c1.24-.18,2.27-.49,2.71-.78l.54,.62c-1.16,.39-2.04,.6-3.25,.75v.46c0,.29,.12,.32,1.39,.32s1.34-.02,1.38-.96c.25,.12,.46,.18,.7,.23-.08,.73-.18,.99-.44,1.16-.27,.17-.63,.21-2.01,.21-.66,0-1.17-.05-1.35-.12-.28-.11-.38-.28-.38-.62v-1.46c0-.34,0-.54-.04-.77h.79c-.02,.2-.04,.42-.04,.74v.22Zm-.7,3.18c0-.31,0-.5-.02-.66,.2,.02,.37,.03,.71,.03h2.33c.37,0,.52,0,.72-.03-.02,.17-.03,.36-.03,.67v2.33c0,.43,0,.6,.04,.81h-.74v-.39h-2.31v.4h-.74c.03-.22,.04-.39,.04-.79v-2.37Zm.7,.74h2.31v-.74h-2.31v.74Zm0,1.4h2.31v-.78h-2.31v.78Z"/><path class="cls-3" d="M70.97,180.42h-1.27c-.36,0-.57,0-.81,.04v-.73c.21,.02,.45,.04,.81,.04h3.16c.36,0,.6-.02,.81-.04v.73c-.21-.02-.44-.04-.81-.04h-1.19v1.13h1.53c.35,0,.57-.02,.78-.05v.73c-.24-.03-.44-.04-.78-.04h-1.53v1.54c.34,.05,.81,.08,1.3,.08,.55,0,1.1-.02,1.85-.09-.12,.27-.17,.45-.21,.77-.58,.02-.94,.02-1.5,.02-1.22,0-2.09-.15-2.69-.47-.46-.24-.79-.56-1.05-.98-.32,.68-.6,1.09-1.14,1.67-.18-.25-.27-.33-.58-.54,.55-.53,.83-.9,1.1-1.5,.25-.54,.44-1.29,.44-1.7l.76,.14q-.03,.13-.1,.46c-.03,.12-.12,.46-.22,.76,.2,.37,.29,.5,.51,.7,.24,.22,.47,.37,.82,.5v-3.13Zm-.13-2.45c0-.19,0-.31-.05-.5h.84c-.03,.18-.05,.3-.05,.5v.34h2.21c.31,0,.57,0,.86-.03-.02,.18-.03,.35-.03,.57v.58c0,.24,0,.42,.03,.61h-.73v-1.06h-5.33v1.06h-.74c.02-.2,.03-.34,.03-.61v-.58c0-.2,0-.41-.03-.57,.3,.02,.54,.03,.85,.03h2.13v-.34Z"/><path class="cls-3" d="M75.57,178.75c.17,.02,.23,.02,.36,.02,.22,0,.54,0,1.43-.05q.52-.02,1.93-.06c0-.68-.02-.82-.05-1.02h.85c-.03,.24-.04,.38-.04,1.01,1.46,0,2.06-.02,2.34-.06v.78c-.29-.03-.66-.04-1.34-.04-.22,0-.35,0-.99,.02v1.47c.16,.34,.22,.66,.22,1.06,0,.86-.41,1.61-1.14,2.13-.32,.22-.68,.4-1.38,.65-.18-.38-.26-.49-.49-.74,.66-.15,.98-.28,1.35-.52,.56-.38,.85-.81,.9-1.35-.22,.43-.64,.67-1.19,.67-.81,0-1.41-.57-1.41-1.34,0-.82,.64-1.4,1.54-1.4,.37,0,.66,.1,.85,.27t0-.1v-.78c-1.28,.02-3.21,.12-3.71,.2l-.02-.8Zm2.14,2.54c0,.42,.3,.7,.73,.7,.49,0,.84-.34,.84-.81,0-.18-.05-.3-.16-.39-.14-.14-.35-.22-.59-.22-.46,0-.82,.3-.82,.71Z"/><path class="cls-3" d="M84.03,178.04c.26,.04,.41,.05,.85,.05,.73,0,1.67-.04,2.45-.1,.26-.02,.34-.03,.45-.1l.43,.6c-.12,.06-.17,.1-.41,.33-1.11,1.06-1.98,1.78-2.53,2.1l.02,.02c.68-.31,1.16-.42,1.8-.42,1.34,0,2.21,.69,2.21,1.75,0,.74-.38,1.33-1.07,1.72-.52,.29-1.16,.44-1.88,.44-.64,0-1.18-.12-1.48-.34-.3-.21-.48-.54-.48-.9,0-.61,.55-1.06,1.29-1.06,.55,0,1.04,.24,1.36,.66,.16,.21,.25,.38,.37,.74,.27-.09,.43-.17,.6-.29,.31-.23,.49-.57,.49-.95,0-.7-.62-1.13-1.64-1.13-1.18,0-2.38,.5-3.33,1.35l-.46-.71c.72-.38,2.6-1.93,3.64-2.99,.02-.02,.11-.11,.14-.14h0c-.29,.03-1.14,.09-2.36,.14-.18,0-.24,.02-.4,.04l-.04-.82Zm1.65,4.73c-.33,0-.54,.16-.54,.42,0,.35,.41,.57,1.08,.57,.16,0,.21,0,.46-.03-.16-.63-.5-.95-1-.95Z"/><path class="cls-3" d="M16.62,187.65c.26,.03,.41,.04,.76,.04,.79,0,1.9-.05,2.5-.11,.22-.02,.4-.06,.53-.1l.44,.56c-.15,.11-.2,.15-.43,.37-.65,.62-1.54,1.31-2.35,1.86,.38-.05,.93-.1,1.92-.19,.52-.04,.94-.07,1.2-.1,.31-.03,.54-.05,.63-.06,.12-.02,.15-.02,.26-.04l.06,.78c-.08,0-.14,0-.18,0-.86,0-1.65,.15-2.25,.42-.38,.18-.72,.43-.93,.7-.17,.22-.23,.38-.23,.6,0,.58,.62,.9,1.74,.9,.27,0,.46-.02,.67-.06l.03,.86c-.12,0-.18-.02-.24-.02h-.47c-.78,0-1.55-.18-1.94-.46-.38-.27-.59-.66-.59-1.1s.22-.87,.66-1.25c.21-.18,.39-.3,.78-.5-.44,.08-.62,.1-1.6,.22-1.26,.15-1.85,.24-2.14,.32l-.08-.82h.16c.24,0,.9-.07,1.37-.15,.74-.45,1.96-1.42,2.64-2.11-.55,.1-.97,.13-2.34,.19-.22,0-.35,.02-.5,.04l-.05-.79Z"/><path class="cls-3" d="M26.04,191.77c-.46,1.06-.95,1.52-1.58,1.52-.85,0-1.47-.89-1.47-2.1,0-.86,.3-1.66,.86-2.28,.66-.72,1.58-1.09,2.69-1.09,1.86,0,3.09,1.14,3.09,2.87,0,1.33-.7,2.41-1.9,2.9-.38,.15-.69,.24-1.23,.34-.12-.37-.19-.5-.41-.78,.62-.1,.98-.18,1.33-.33,.86-.37,1.39-1.21,1.39-2.17,0-.83-.39-1.5-1.1-1.87-.27-.14-.49-.2-.86-.22-.14,1.19-.43,2.36-.82,3.22Zm-1.1-2.83c-.73,.49-1.18,1.34-1.18,2.25,0,.7,.3,1.25,.69,1.25,.29,0,.58-.35,.9-1.08,.31-.74,.58-1.86,.69-2.81-.44,.05-.75,.15-1.1,.38Z"/><path class="cls-3" d="M31.33,190.84c-.18,.23-.37,.42-.67,.66-.1-.3-.18-.46-.34-.68,.53-.37,.98-.82,1.36-1.33,.23-.31,.39-.58,.47-.8l.62,.39c-.08,.1-.14,.19-.23,.35-.06,.1-.26,.37-.5,.7v3.27c0,.42,0,.69,.03,.94h-.78c.03-.22,.05-.5,.05-.9v-2.61Zm1.36-3.46c-.06,.08-.06,.09-.15,.2-.49,.66-1.03,1.17-1.7,1.6-.12-.27-.14-.32-.39-.6,.45-.25,.94-.64,1.26-1.04,.18-.22,.26-.35,.38-.58l.6,.42Zm2.55-.07q-.06,.09-.26,.34c-.22,.31-.54,.7-.82,.98,.26,.22,.38,.34,.58,.52,.68-.73,1.07-1.22,1.23-1.56l.7,.38c-.06,.06-.14,.14-.3,.35-.45,.54-1.02,1.15-1.62,1.71,.54-.02,1.13-.06,1.76-.12-.16-.21-.25-.32-.5-.61l.55-.34c.48,.56,.8,.98,1.3,1.72l-.6,.39c-.22-.37-.29-.48-.38-.63q-1.23,.14-2.02,.19c-.14,.26-.15,.3-.3,.5h1.35c.27,0,.5-.02,.65-.03l.42,.39c-.06,.08-.07,.1-.15,.2-.28,.39-.7,.83-1.18,1.21,.64,.34,1.45,.58,2.22,.69-.12,.21-.17,.29-.19,.36q-.1,.28-.14,.36c-.82-.18-1.08-.27-1.69-.54-.37-.16-.54-.26-.81-.42-.66,.45-1.49,.78-2.47,1-.11-.3-.15-.38-.37-.65,.86-.14,1.58-.39,2.27-.78-.38-.33-.56-.52-.78-.8-.34,.3-.58,.47-1.02,.73-.11-.22-.23-.36-.46-.57,.88-.43,1.5-.97,1.83-1.6q-1.3,.07-1.5,.1l-.1-.73c.14,.02,.3,.02,.51,.02,.06,0,.34,0,.86-.02q.36-.34,.46-.43c-.52-.5-.78-.71-1.53-1.24l.48-.52c.22,.17,.3,.23,.46,.35,.42-.44,.79-.97,.89-1.26l.67,.32Zm-1.08,4.41c.29,.36,.53,.58,.89,.85,.41-.31,.61-.51,.87-.85h-1.76Z"/><path class="cls-3" d="M40.35,192.15c-.08,.21-.1,.23-.18,.46l-.84-.06c.42-.9,.68-1.63,1.01-2.77,.2-.7,.26-.96,.42-1.77h-1.06c-.43,0-.71,.02-.98,.05v-.77c.27,.03,.52,.05,.95,.05h4.86c.43,0,.68-.02,.96-.05v.77c-.27-.03-.54-.05-.96-.05h-2.99q-.03,.13-.09,.42c-.04,.17-.08,.34-.17,.7h2.31c.44,0,.67,0,.85-.03-.06,.23-.08,.34-.16,.83-.22,1.38-.44,2.43-.7,3.49h1.15c.44,0,.7-.02,.99-.06v.78c-.3-.04-.6-.06-1.02-.06h-5.16c-.38,0-.72,.02-1.02,.06v-.78c.29,.04,.52,.06,1,.06h3.29c.13-.5,.23-.92,.31-1.28h-2.76Zm2.89-.66q.23-1.16,.3-1.7h-2.45c-.17,.62-.29,1.01-.52,1.7h2.66Z"/><path class="cls-3" d="M47.76,187.95c-.05,.29-.06,.59-.06,1.06,0,.82,.07,1.82,.17,2.33,.16,.83,.44,1.36,.72,1.36,.13,0,.25-.13,.36-.37,.18-.42,.32-.87,.42-1.42,.23,.27,.34,.37,.66,.62-.41,1.5-.82,2.09-1.46,2.09-.53,0-1.01-.51-1.29-1.37-.26-.82-.38-1.88-.42-3.82,0-.27,0-.32-.02-.49h.93Zm3.81,.38c1.01,1.21,1.54,2.45,1.78,4.17l-.82,.32c-.06-.74-.24-1.54-.53-2.25-.27-.7-.65-1.32-1.13-1.89l.7-.34Z"/><path class="cls-3" d="M57.21,191.77c-.46,1.06-.95,1.52-1.58,1.52-.85,0-1.47-.89-1.47-2.1,0-.86,.3-1.66,.86-2.28,.66-.72,1.58-1.09,2.69-1.09,1.86,0,3.09,1.14,3.09,2.87,0,1.33-.7,2.41-1.9,2.9-.38,.15-.69,.24-1.23,.34-.12-.37-.19-.5-.41-.78,.62-.1,.98-.18,1.33-.33,.86-.37,1.39-1.21,1.39-2.17,0-.83-.39-1.5-1.1-1.87-.27-.14-.49-.2-.86-.22-.14,1.19-.43,2.36-.82,3.22Zm-1.1-2.83c-.73,.49-1.18,1.34-1.18,2.25,0,.7,.3,1.25,.69,1.25,.29,0,.58-.35,.9-1.08,.31-.74,.58-1.86,.69-2.81-.44,.05-.75,.15-1.1,.38Z"/><path class="cls-3" d="M64.29,188.82c.03-.38,.05-.8,.05-1.14,0-.2,0-.26-.02-.42l.9,.02c-.03,.17-.03,.22-.07,1,0,.14,0,.24-.03,.54h1.86c.36-.02,.42-.02,.59-.08l.39,.35c-.06,.13-.07,.22-.08,.5-.05,1.76-.19,3.04-.41,3.61-.2,.51-.5,.7-1.12,.7-.3,0-.57-.03-1-.11,0-.41-.02-.54-.14-.85,.46,.14,.78,.2,1.05,.2,.36,0,.48-.18,.62-.92,.11-.58,.19-1.68,.19-2.68h-2.01c-.06,.57-.07,.62-.14,.91-.22,1.03-.65,1.83-1.36,2.57-.41,.42-.74,.69-1.28,1.01-.22-.33-.31-.44-.59-.69,.98-.52,1.65-1.17,2.08-2.05,.26-.53,.35-.88,.46-1.74h-1.38c-.5,0-.58,0-.86,.05v-.83c.27,.05,.46,.06,.86,.06h1.44Z"/><path class="cls-3" d="M69.3,190.21c.3,.04,.64,.06,1.23,.06h4.33c.69,0,.88,0,1.19-.05v.93c-.35-.03-.61-.04-1.2-.04h-4.31c-.67,0-.91,0-1.24,.04v-.94Z"/><path class="cls-3" d="M78.01,194.06c.04-.34,.05-.54,.05-1.02v-4.77c0-.55,0-.73-.05-.95h.95c-.04,.26-.05,.53-.05,.98v1.35c1.14,.4,2.26,.93,3.6,1.69l-.47,.79c-.35-.24-.57-.38-.98-.61-.61-.33-1.48-.76-1.92-.94q-.13-.06-.26-.14l.02,.31c0,.07,0,.32,0,.4v1.89c0,.42,.02,.72,.05,1.02h-.94Zm3.37-6.36c.38,.42,.55,.68,.83,1.2l-.5,.27c-.26-.5-.49-.83-.83-1.22l.5-.25Zm.94-.46c.38,.42,.55,.66,.82,1.17l-.49,.28c-.25-.46-.47-.8-.82-1.2l.48-.25Z"/><path class="cls-3" d="M85.93,188.2c.22-.5,.32-.78,.34-1.03l.88,.11c-.05,.07-.06,.1-.1,.18q-.09,.21-.25,.58s-.05,.1-.06,.14t.06,0h.04s.18,0,.4-.02c.86-.03,1.7-.14,2.13-.27l.05,.76q-.18,.02-.62,.07c-.56,.07-1.59,.14-2.37,.16-.28,.54-.53,.9-.86,1.25v.02q.06-.05,.18-.13c.35-.27,.78-.42,1.22-.42,.3,0,.59,.1,.78,.26,.18,.15,.27,.32,.33,.61,.65-.24,1.08-.4,1.29-.47,.41-.14,.44-.15,.57-.23l.33,.77c-.45,.08-.98,.25-2.1,.66q0,.29,0,.43v.38c0,.14,0,.22,0,.28,0,.15,0,.27,.02,.39l-.78,.02c.02-.16,.05-.61,.05-1.04v-.19c-.98,.45-1.34,.77-1.34,1.19,0,.48,.42,.66,1.54,.66,.84,0,1.71-.13,2.21-.33l.08,.86c-.14,0-.18,0-.35,.04-.59,.09-1.34,.14-1.99,.14-.81,0-1.34-.1-1.73-.32-.35-.2-.56-.56-.56-.98,0-.74,.66-1.38,2.05-1.97-.04-.34-.22-.51-.54-.51-.48,0-1.07,.29-1.7,.83-.32,.27-.5,.47-.66,.7l-.62-.62c.38-.28,.86-.83,1.29-1.46,.1-.15,.26-.42,.5-.81h-.91c-.2-.02-.35-.02-.46-.02h-.05s-.06,0-.12,0l.02-.76c.4,.07,.83,.1,1.56,.1h.29Z"/><path class="cls-3" d="M93.24,190.47c-.37,0-.61,.02-.82,.04v-.59c-.45,.26-.59,.34-.96,.52-.1-.26-.22-.45-.46-.7,.7-.28,1.42-.7,1.96-1.12,.55-.45,.98-.92,1.33-1.47h.86c.44,.62,.86,1.05,1.48,1.5,.66,.48,1.27,.81,1.97,1.06-.18,.22-.32,.46-.45,.76-.4-.19-.6-.3-1.06-.59v.63c-.24-.03-.46-.04-.81-.04h-1.19v1.03h1.37c.4,0,.62,0,.83-.04v.75c-.21-.02-.46-.04-.83-.04h-1.37v1.22h2.21c.4,0,.72-.02,.97-.05v.79c-.26-.04-.58-.06-.96-.06h-5.08c-.38,0-.69,.02-.94,.06v-.79c.22,.03,.55,.05,.96,.05h2.1v-1.22h-1.25c-.37,0-.62,.02-.82,.04v-.75c.23,.03,.44,.04,.82,.04h1.25v-1.03h-1.11Zm3.08-.67c.26,0,.43,0,.6-.02-.34-.22-.7-.48-1.02-.75-.47-.39-.74-.69-1.16-1.24-.51,.76-1.12,1.33-2.11,2,.22,.02,.31,.02,.56,.02h3.13Z"/><path class="cls-3" d="M99.14,188.29q.15,0,.28,0c.17,0,.26,0,.49-.02,.94-.06,2.84-.18,4.72-.26,.55-.02,.79-.05,.93-.08l.06,.84h-.14c-.45,0-1.01,.14-1.5,.38-1.09,.54-1.76,1.41-1.76,2.27,0,.64,.4,1.14,1.09,1.38,.37,.12,.9,.22,1.18,.22,.03,0,.08,0,.14,0l-.12,.9c-.1-.02-.14-.02-.26-.05-.87-.13-1.33-.27-1.81-.56-.67-.41-1.04-1.05-1.04-1.82s.35-1.47,1.05-2.12c.32-.3,.5-.42,.96-.64-.56,.09-.88,.12-1.73,.18-1.39,.1-2.07,.16-2.49,.25l-.05-.88Z"/><path class="cls-3" d="M108.56,188.19c-.19,0-.41,.02-.7,.04v-.8c.19,.03,.36,.04,.69,.04h1.18c.36,0,.55,0,.74-.04-.02,.18-.02,.34-.02,.5,0,1.07,.26,2.08,.78,3.01,.32,.57,.72,1.08,1.25,1.58,.43,.42,.7,.62,1.31,.98-.28,.26-.38,.4-.58,.75-.88-.62-1.51-1.25-2.09-2.07-.5-.71-.81-1.4-1.03-2.29-.27,1.05-.6,1.76-1.13,2.49-.52,.71-1.14,1.28-2.02,1.89-.15-.3-.3-.47-.57-.69,.74-.44,1.16-.78,1.7-1.38,.62-.68,1.07-1.5,1.32-2.34,.17-.58,.23-1,.26-1.68h-1.09Z"/><path class="cls-3" d="M114.34,192.07c.16-.11,.3-.23,.51-.43q.74-.74,.9-.93c0-.09,.02-.53,.04-1.33-.91,.06-1.03,.07-1.24,.11l-.04-.76c.14,0,.2,0,.29,0,.14,0,.68-.02,1.02-.05q0-.12,0-.33c0-.25,.02-.52,.02-.77,0-.1,0-.18-.02-.34l.86,.02c-.03,.19-.06,.62-.1,1.36,.06,0,.06,0,.13-.04l.26,.3c-.13,.1-.22,.22-.43,.5,0,.06,0,.11,0,.15l-.02,.6c.2-.23,.49-.48,1.01-.89,.73-.55,1.25-.79,1.74-.79,.61,0,1.03,.41,1.03,.99,0,.35-.02,.46-.38,2.02-.1,.48-.16,.82-.16,1.04,0,.3,.14,.46,.39,.46,.19,0,.42-.16,.61-.42,.19-.27,.36-.6,.46-.9,.16,.36,.24,.49,.46,.78-.24,.42-.34,.57-.53,.79-.34,.38-.73,.58-1.14,.58-.24,0-.48-.07-.65-.19-.28-.2-.41-.5-.41-.96,0-.42,.02-.52,.34-2,.11-.51,.17-.85,.17-1.04,0-.23-.13-.36-.38-.36-.27,0-.63,.16-1.07,.48-.54,.39-1.12,.91-1.5,1.33,0,.35,0,.58,0,.8,0,1.11,.02,2.02,.05,2.27h-.87q.05-.34,.06-1.98c0-.21,0-.3,.02-.49-.14,.19-.19,.25-.63,.73-.18,.21-.3,.34-.38,.47l-.41-.8Z"/><path class="cls-3" d="M124.5,189.43c.3,.39,.65,.66,1.11,.88-.17,.14-.3,.31-.43,.54-.53-.34-.79-.6-1.1-1.05-.33,.64-.76,1.1-1.46,1.58-.15-.26-.27-.39-.47-.57,.74-.41,1.13-.8,1.4-1.39h-.51c-.36,0-.58,0-.78,.04v-.68c.23,.03,.42,.04,.8,.04h.68c.04-.2,.06-.32,.08-.56h-.64c-.35,0-.5,0-.69,.03v-.67c.18,.02,.4,.04,.72,.04h.65c0-.1,0-.16,0-.26,0-.18,0-.24-.03-.37h.74c-.02,.08-.03,.29-.05,.62h.38c.32,0,.54-.02,.7-.04v.67c-.17-.02-.35-.03-.66-.03h-.46c-.03,.27-.04,.37-.08,.56h.5c.3,0,.48,0,.71-.03v.66c-.2-.02-.35-.03-.69-.03h-.41Zm3.35,0c.42,.58,.97,.99,1.65,1.22-.18,.23-.27,.4-.37,.66-.83-.44-1.42-.97-1.81-1.65-.3,.56-.54,.85-1.07,1.26h1.22c.39,0,.61,0,.86-.03-.02,.28-.03,.5-.03,.88v1.72c0,.42,.02,.65,.05,.86h-.74v-.36h-3.56v.36h-.74c.03-.23,.05-.46,.05-.86v-1.72c0-.35,0-.59-.03-.88,.25,.02,.46,.03,.86,.03h2.05c-.15-.2-.25-.3-.48-.5,.49-.29,.77-.57,1-1h-.22c-.34,0-.49,0-.69,.03v-.66c.22,.02,.42,.03,.71,.03h.42c.04-.2,.06-.33,.1-.56h-.46c-.31,0-.5,0-.67,.03v-.67c.16,.02,.43,.04,.72,.04h.45v-.18c0-.25,0-.32-.02-.45h.74c-.02,.1-.03,.28-.06,.62h.71c.3,0,.5,0,.7-.04v.67c-.18-.02-.31-.03-.66-.03h-.79c-.02,.22-.04,.34-.08,.56h1c.38,0,.51,0,.74-.03v.67c-.22-.03-.43-.04-.78-.04h-.73Zm-3.81,2.71h3.56v-.61h-3.56v.61Zm0,1.24h3.56v-.64h-3.56v.64Z"/><path class="cls-3" d="M130.93,189.33c.22,.02,.26,.02,.58,.02,.69,0,2.12-.1,2.85-.19,.19-.03,.3-.06,.42-.1l.46,.58c-.15,.1-.3,.23-.7,.62-.53,.52-1.13,1.06-1.45,1.31,.28-.13,.42-.17,.63-.17,.24,0,.45,.1,.6,.29,.13,.17,.16,.3,.2,.76,.03,.41,.06,.57,.16,.68,.1,.12,.26,.17,.57,.17,.56,0,1.18-.12,1.6-.31l.1,.84c-.11,0-.12,0-.68,.1-.48,.08-.76,.1-1.13,.1-.64,0-1-.14-1.19-.48-.1-.18-.14-.33-.17-.86-.02-.31-.04-.43-.09-.53-.06-.11-.19-.18-.34-.18-.4,0-.78,.22-1.42,.85-.39,.37-.88,.87-1.16,1.2l-.62-.69c.29-.2,.41-.3,.85-.7,.81-.74,1.28-1.18,1.77-1.67,.51-.5,.58-.57,.89-.86q.16-.14,.3-.29-.61,.12-2.4,.26c-.27,.02-.3,.02-.58,.06l-.05-.82Zm.96-2.03c.9,.29,1.89,.44,3.07,.46l-.14,.74c-1.48-.1-2.1-.2-3.18-.5l.25-.7Z"/><path class="cls-3" d="M138.27,187.64c.26,.04,.41,.05,.85,.05,.73,0,1.67-.04,2.46-.1,.26-.02,.33-.03,.45-.1l.43,.6c-.12,.06-.17,.1-.41,.33-1.11,1.05-1.98,1.77-2.54,2.1l.02,.02c.68-.31,1.16-.42,1.8-.42,1.34,0,2.21,.69,2.21,1.75,0,.74-.38,1.33-1.07,1.72-.52,.29-1.16,.44-1.88,.44-.64,0-1.17-.12-1.48-.34-.3-.21-.48-.54-.48-.9,0-.61,.55-1.06,1.29-1.06,.55,0,1.04,.24,1.36,.66,.16,.21,.25,.38,.37,.74,.27-.09,.43-.17,.6-.29,.31-.23,.49-.57,.49-.95,0-.7-.62-1.13-1.64-1.13-1.17,0-2.38,.5-3.33,1.35l-.46-.71c.72-.38,2.6-1.93,3.64-2.99,.02-.02,.11-.11,.14-.14h0c-.29,.03-1.14,.09-2.36,.14-.18,0-.24,.02-.4,.04l-.04-.82Zm1.65,4.73c-.33,0-.54,.16-.54,.42,0,.35,.41,.57,1.08,.57,.16,0,.21,0,.46-.03-.16-.63-.5-.95-1-.95Z"/></g><path class="cls-4" d="M67.89,97.19l-10.14,8.04c-.69,.58-.69,1.47,0,2.05l10.14,8.04c1.13,.92,3.1,.26,3.1-1.01v-5.19h21.93c2.01,0,3.65-1.3,3.65-2.88s-1.64-2.88-3.65-2.88h-21.93v-5.16c0-1.3-1.97-1.93-3.1-1.01Zm52.95-9.25l-10.14-8.04c-1.13-.92-3.1-.26-3.1,1.01v5.16h-21.97c-2.01,0-3.65,1.3-3.65,2.88s1.64,2.88,3.65,2.88h21.93v5.16c0,1.3,1.97,1.93,3.1,1.01l10.14-8.04c.73-.55,.73-1.47,.04-2.02Z"/></svg>