<?xml version="1.0" encoding="UTF-8"?><svg id="Layer_1" xmlns="http://www.w3.org/2000/svg" viewBox="0 0 178.58 249.45"><defs><style>.cls-1{fill:#fff;}.cls-2{fill:#ffa914;}.cls-3{fill:#ccc;}.cls-4{fill:gray;}.cls-5{fill:#4d4d4d;}.cls-6{opacity:.9;}</style></defs><g><rect class="cls-1" x="3.09" y="3.09" width="172.4" height="243.27" rx="10.86" ry="10.86"/><path class="cls-2" d="M164.63,6.18c4.29,0,7.77,3.49,7.77,7.77V235.5c0,4.29-3.49,7.77-7.77,7.77H13.95c-4.29,0-7.77-3.49-7.77-7.77V13.95c0-4.29,3.49-7.77,7.77-7.77H164.63M164.63,0H13.95C6.25,0,0,6.25,0,13.95V235.5C0,243.2,6.25,249.45,13.95,249.45H164.63c7.71,0,13.95-6.25,13.95-13.95V13.95C178.58,6.25,172.34,0,164.63,0h0Z"/></g><g><path class="cls-2" d="M37.18,15.88c-1.05,0-1.5,.01-2.05,.06v-2.23c.7,.08,1.09,.1,2.09,.1h6.94c.41-.01,.61-.05,.87-.14l1.22,1.37c-.2,.19-.27,.28-.58,.81-1.3,2.19-2.34,3.45-4.02,4.85,.54,.65,.9,1.1,1.51,1.93l-1.9,1.48c-.76-1.24-1.39-2.12-2.45-3.31-1.03-1.18-1.62-1.76-2.55-2.52l1.74-1.22c1.04,.85,1.46,1.24,2.19,2.01,.72-.6,1.52-1.41,1.98-2,.32-.39,.66-.94,.81-1.23l-5.8,.03Z"/><path class="cls-2" d="M56.56,24.11c-1.1-1.39-2.22-2.5-3.64-3.6-1.19,1.41-2.7,2.52-4.66,3.47-.44-.89-.71-1.27-1.42-2,1.65-.63,2.95-1.46,4.1-2.56,1.18-1.13,1.95-2.25,2.55-3.72l-3.29,.05c-1.09,.02-1.49,.05-2.01,.13l-.06-2.25c.49,.06,.84,.09,1.33,.09,.1,0,.34,0,.71-.01l4.33-.06c.6-.01,.67-.01,1.01-.14l1.11,1.14c-.19,.19-.27,.32-.46,.75-.67,1.58-1.15,2.47-1.86,3.42,1.53,1.1,2.05,1.55,4.03,3.43l-1.77,1.88Z"/><path class="cls-2" d="M63.15,15.06c.04-.49,.06-1.23,.06-1.62,0-.27,0-.37-.04-.63l2.38,.06c-.06,.29-.06,.33-.14,1.53q-.01,.34-.04,.65h2.76c.42,0,.57-.03,.85-.14l.99,.86c-.14,.25-.17,.36-.18,.94-.09,2.71-.28,4.83-.53,5.66-.37,1.18-.98,1.58-2.38,1.58-.49,0-.68-.01-1.66-.1-.05-1.01-.14-1.43-.43-2.23,.63,.17,1.25,.25,1.65,.25,.61,0,.76-.2,.92-1.3,.13-.85,.24-2.45,.24-3.53h-2.42q-.1,.84-.19,1.27c-.56,2.56-1.76,4.21-4.33,5.9-.57-.9-.95-1.33-1.65-1.93,1.69-.89,2.66-1.79,3.29-3.07,.32-.65,.46-1.1,.63-2.17h-1.58c-.85,0-1.11,.01-1.71,.08v-2.17c.62,.09,.85,.1,1.75,.1h1.75Z"/><path class="cls-2" d="M71.53,17.25c.6,.09,1.28,.11,2.6,.11h6.06c1.27,0,1.75-.03,2.6-.11v2.44c-.61-.06-1.16-.08-2.61-.08h-6.03c-1.42,0-1.84,.01-2.61,.08v-2.44Z"/><path class="cls-2" d="M85.38,24.05c.05-.53,.06-.9,.08-1.94v-7.37c-.01-1.09-.01-1.15-.09-1.84h2.45c-.05,.33-.05,.53-.06,1.85v1.74c2,.65,3.99,1.55,5.76,2.64l-1.2,2.15c-1.05-.75-2.52-1.56-3.99-2.2-.38-.15-.42-.16-.46-.19-.04-.01-.06-.03-.11-.06v3.29c0,.94,.03,1.61,.08,1.94h-2.44Zm5.73-10.44c.49,.56,.9,1.14,1.25,1.81l-1.2,.58c-.42-.8-.75-1.27-1.25-1.85l1.2-.54Zm1.69-.76c.47,.51,.82,.99,1.27,1.76l-1.17,.57c-.44-.8-.8-1.31-1.24-1.81l1.14-.52Z"/></g><path class="cls-2" d="M13.95,0H30V16.05c0,7.7-6.25,13.95-13.95,13.95H0V13.95C0,6.25,6.25,0,13.95,0Z"/><g class="cls-6"><path class="cls-1" d="M15,19.78c-.1,0-.19-.04-.26-.1l-6.73-4.47s-.03-.1-.03-.2,.04-.19,.1-.25l6.58-4.37c.14-.13,.23-.17,.33-.17s.19,.04,.26,.11l6.73,4.49s.03,.1,.03,.2-.04,.19-.11,.26l-6.58,4.35c-.14,.13-.23,.16-.33,.16Z"/><path class="cls-1" d="M15.08,10.66h0m-.08,.07s.04,.03,.07,.05l6.36,4.23-6.36,4.21s-.05,.03-.07,.05c-.02-.02-.05-.03-.07-.05l-6.36-4.21,6.36-4.23s.05-.03,.07-.05m0-.98c-.21,0-.43,.08-.59,.24l-6.65,4.43c-.32,.32-.32,.86,0,1.18l6.65,4.41c.16,.16,.38,.24,.59,.24s.43-.08,.59-.24l6.65-4.41c.32-.32,.32-.86,0-1.18l-6.65-4.43c-.16-.16-.38-.24-.59-.24h0Z"/></g><g><path d="M22.7,158.62c.36,0,.5-.01,.71-.02,.01-.78,.61-1.39,1.38-1.39s1.39,.62,1.39,1.38-.62,1.39-1.39,1.39c-.07,0-.14-.01-.23-.02-.97,3.92-3.09,6.37-6.88,7.95-.31-.62-.52-.9-1.06-1.43,3.32-1.03,5.49-3.26,6.26-6.45h-5.71c-.89,0-1.12,.01-1.51,.07v-1.56c.43,.07,.72,.08,1.54,.08h5.51Zm1.31-.04c0,.43,.35,.79,.78,.79s.79-.36,.79-.79-.35-.78-.79-.78-.78,.35-.78,.78Z"/><path d="M29.54,157.91c-.05,.32-.06,.62-.07,1.21l-.06,6.85c1.25-.24,2.38-.7,3.27-1.32,1.1-.75,1.85-1.58,2.45-2.75,.47,.62,.62,.79,1.14,1.22-.83,1.27-1.6,2.07-2.67,2.79-1.2,.8-2.42,1.27-4.37,1.64-.32,.06-.47,.11-.72,.2l-.77-.92c.08-.32,.11-.54,.11-1.24l.05-6.48q0-.84-.06-1.24h1.7Z"/><path d="M47.08,158.56c-.2,.18-.26,.23-.44,.42-.9,.94-1.8,1.71-2.83,2.47v5.12c0,.66,.01,1.01,.06,1.33h-1.68c.06-.35,.07-.59,.07-1.29v-4.22c-1.4,.84-2.07,1.15-4.28,1.94-.25-.62-.38-.83-.8-1.37,2.37-.65,4.39-1.64,6.3-3.12,1.07-.83,1.88-1.65,2.23-2.24l1.38,.96Z"/><path d="M58.73,159.6c-.12,.17-.13,.2-.32,.68-.3,.83-.88,1.79-1.48,2.48-.4,.47-.74,.79-1.44,1.36-.41-.43-.59-.58-1.21-.94,.74-.49,1.13-.8,1.55-1.29,.47-.53,.72-.92,.96-1.51-.07,.01-.18,.04-.32,.07l-3.9,.65,1.01,5.42c.11,.62,.17,.86,.3,1.26l-1.63,.29c-.01-.33-.07-.78-.14-1.21l-1.01-5.5-1.32,.22c-.64,.11-.91,.17-1.32,.29l-.25-1.51c.53-.01,.85-.05,1.38-.13l1.27-.2-.23-1.21c-.12-.7-.14-.79-.25-1.12l1.58-.24c.01,.34,.05,.55,.14,1.06l.23,1.27,4.77-.79c.36-.06,.5-.1,.73-.2l.9,.83Z"/><path d="M59.94,161.9c.53,.07,.76,.08,1.94,.08h6.39c1.19,0,1.42-.01,1.94-.08v1.67c-.48-.06-.61-.06-1.96-.06h-6.37c-1.34,0-1.48,0-1.96,.06v-1.67Z"/><path d="M76.55,164.54c-.68,1.55-1.45,2.25-2.44,2.25-1.37,0-2.35-1.39-2.35-3.32,0-1.32,.47-2.55,1.32-3.49,1.01-1.1,2.42-1.68,4.13-1.68,2.88,0,4.75,1.75,4.75,4.45,0,2.07-1.08,3.73-2.91,4.47-.58,.24-1.04,.36-1.88,.5-.2-.64-.35-.9-.73-1.4,1.1-.14,1.82-.34,2.39-.66,1.04-.58,1.67-1.71,1.67-3,0-1.15-.52-2.09-1.48-2.66-.37-.22-.68-.31-1.21-.36-.23,1.88-.65,3.54-1.25,4.89Zm-1.76-4.29c-1.01,.72-1.63,1.96-1.63,3.24,0,.98,.42,1.76,.95,1.76,.4,0,.8-.5,1.24-1.54,.46-1.08,.85-2.7,1-4.05-.62,.07-1.06,.24-1.55,.59Z"/><path d="M92.85,160.25c-.1,.22-.12,.38-.13,.8-.04,1.36-.17,3.2-.29,3.99-.31,2.07-.73,2.57-2.17,2.57-.46,0-.86-.04-1.49-.13-.02-.76-.06-.98-.28-1.54,.71,.19,1.19,.28,1.58,.28,.52,0,.7-.26,.89-1.31,.14-.83,.26-2.46,.26-3.84h-2.79c-.17,1.51-.42,2.41-.96,3.44-.66,1.27-1.73,2.36-3.24,3.32-.41-.64-.58-.83-1.08-1.27,1.5-.79,2.48-1.74,3.12-3.02,.32-.66,.5-1.25,.61-2.09,.02-.17,.05-.29,.06-.37h-1.99c-.73,.01-.9,.02-1.3,.07v-1.47c.4,.07,.72,.1,1.32,.1h2.1c.04-.47,.06-1.16,.06-1.51v-.3c0-.16,0-.25-.04-.47l1.61,.04c-.02,.16-.04,.2-.05,.37,0,.07-.01,.14-.01,.23q-.02,.25-.05,.88c-.01,.26-.01,.37-.05,.76h2.66c.54-.01,.65-.02,.95-.12l.68,.6Z"/><path d="M94.69,161.9c.53,.07,.76,.08,1.94,.08h6.39c1.19,0,1.42-.01,1.94-.08v1.67c-.48-.06-.61-.06-1.96-.06h-6.37c-1.34,0-1.48,0-1.96,.06v-1.67Z"/><path d="M107.77,167.88c.05-.34,.07-.66,.07-1.34v-7.69c-.01-.7-.02-.94-.07-1.22h1.64c-.04,.32-.05,.55-.05,1.26v2.23c1.39,.46,3.55,1.46,5.45,2.53l-.84,1.42c-.84-.6-2.54-1.52-4.25-2.29-.28-.13-.31-.14-.41-.2,.04,.34,.05,.54,.05,.82v3.17c0,.65,.01,.98,.05,1.33h-1.64Zm4.94-9.63c.53,.56,.85,1.02,1.26,1.76l-.84,.44c-.4-.73-.73-1.21-1.26-1.79l.84-.42Zm1.86,1.45c-.36-.66-.75-1.22-1.22-1.74l.8-.42c.54,.55,.88,1.01,1.25,1.69l-.83,.47Z"/><path d="M117,158.71c.49,.11,1.26,.16,2.78,.16,.32-.72,.43-1.08,.48-1.49l1.57,.17q-.07,.12-.48,1.08c-.06,.13-.08,.17-.11,.22q.1-.01,.76-.05c1.39-.08,2.48-.22,3.14-.41l.08,1.37q-.33,.02-.95,.1c-.88,.11-2.4,.2-3.61,.24-.35,.68-.68,1.16-1.1,1.6v.02q.1-.06,.25-.18c.44-.34,1.08-.54,1.69-.54,.94,0,1.52,.44,1.71,1.27,.92-.34,1.54-.55,1.83-.65,.65-.23,.7-.24,.89-.36l.56,1.38c-.34,.05-.7,.14-1.33,.32-.17,.05-.77,.25-1.8,.61v.13q.01,.31,.01,.48v.48c-.01,.2-.01,.31-.01,.4,0,.26,.01,.43,.04,.64l-1.39,.04c.05-.22,.07-.83,.07-1.39v-.29c-.59,.28-.9,.44-1.15,.62-.42,.31-.62,.64-.62,.98,0,.62,.58,.88,2.03,.88s2.67-.18,3.53-.5l.12,1.55c-.2,0-.26,.01-.55,.05-.86,.13-2.02,.22-3.07,.22-1.27,0-2.06-.14-2.67-.5-.55-.31-.88-.89-.88-1.55,0-.49,.14-.88,.53-1.33,.54-.67,1.22-1.13,2.58-1.69-.06-.44-.3-.65-.73-.65-.7,0-1.54,.42-2.46,1.24-.5,.42-.78,.72-1.04,1.09l-1.09-1.08c.31-.24,.66-.58,1.08-1.07,.47-.55,1.2-1.59,1.44-2.05q.05-.1,.1-.16s-.2,.01-.2,.01c-.19,0-1.25-.02-1.51-.02q-.23-.01-.34-.01s-.11,0-.19,.01l.02-1.37Z"/><path d="M133.43,161.67c-.49,0-.67,.01-.94,.05v-.82c-.3,.23-.47,.34-.88,.59-.22-.44-.3-.59-.5-.86-.14-.02-.26-.02-.53-.02h-.18v1.92c.2-.08,.36-.14,.79-.32v1.19c-.29,.11-.38,.14-.59,.23-.05,.01-.11,.05-.2,.08v3.41c0,.92-.28,1.15-1.4,1.15-.22,0-.42,0-.92-.02-.04-.49-.1-.77-.26-1.22,.38,.06,.77,.08,1.01,.08,.26,0,.32-.06,.32-.32v-2.61c-.72,.23-1.13,.36-1.24,.41l-.17-1.31c.4-.04,.74-.12,1.4-.31v-2.34h-.46c-.3,0-.55,.01-.83,.05v-1.27c.28,.05,.48,.06,.84,.06h.44v-.92c0-.59-.02-.89-.07-1.24h1.39c-.05,.33-.06,.65-.06,1.22v.94h.18c.25,0,.43-.01,.62-.04v.84c1.27-.7,2.28-1.71,2.87-2.91h1.38c.37,.64,.78,1.12,1.43,1.65,.65,.55,1.07,.8,2.16,1.27-.28,.42-.35,.55-.64,1.22-.5-.25-.7-.36-1.1-.64v.88c-.26-.04-.42-.05-.91-.05h-1.02v.85h2.03c.59,0,.82-.01,1.16-.06v1.21c-.35-.05-.61-.06-1.16-.06h-4.84c-.53,0-.79,.01-1.12,.06v-1.2c.26,.04,.5,.05,1.02,.05h1.73v-.85h-.76Zm-1.64,6.69c.04-.38,.06-.68,.06-1.19v-2c0-.37-.02-.64-.05-.94,.29,.04,.54,.05,1.01,.05h4.04c.47,0,.7-.01,.94-.05-.04,.25-.05,.55-.05,.91v2.08c0,.5,.01,.78,.06,1.14h-1.32v-.58h-3.41v.58h-1.28Zm2.4-8.25c0-.32-.01-.48-.04-.64h1.26c-.04,.14-.04,.32-.04,.64v.5h1.01c.26,0,.41,0,.58-.01-1-.74-1.6-1.35-2.16-2.21-.55,.9-1.08,1.51-1.93,2.21,.22,.01,.29,.01,.56,.01h.76v-.5Zm-1.12,6.57h3.42v-1.34h-3.42v1.34Z"/><path d="M139.72,159c.26,.01,.4,.01,.46,.01q.22,0,1.98-.12c.67-.04,2.66-.14,5.99-.3,.98-.05,1.16-.06,1.38-.12l.08,1.54q-.13-.01-.25-.01c-.72,0-1.61,.24-2.38,.65-1.52,.79-2.42,1.99-2.42,3.2,0,.94,.59,1.66,1.59,1.96,.59,.18,1.36,.31,1.79,.31,.01,0,.12,0,.24-.01l-.22,1.63c-.14-.04-.2-.05-.41-.07-1.32-.17-2.08-.38-2.81-.79-1.1-.62-1.71-1.64-1.71-2.89,0-1.02,.41-2.03,1.14-2.83,.46-.49,.89-.8,1.67-1.2-.97,.14-1.44,.18-4.04,.37-.8,.06-1.52,.14-1.99,.24l-.08-1.56Z"/><path d="M154.43,162.38c1.09-.43,1.62-.55,2.52-.55,2.05,0,3.37,1.06,3.37,2.7,0,1.14-.56,2.05-1.63,2.65-.78,.44-1.8,.68-2.9,.68-1.01,0-1.85-.19-2.33-.55-.46-.34-.72-.84-.72-1.38,0-1,.86-1.71,2.06-1.71,.84,0,1.57,.35,2.08,.98,.24,.3,.37,.56,.55,1.08,1-.37,1.43-.89,1.43-1.74,0-.94-.92-1.55-2.38-1.55-1.75,0-3.5,.71-4.94,2.02l-.82-1.3c.42-.2,.9-.53,1.69-1.13,1.12-.85,2.67-2.2,3.59-3.12l.22-.22h-.01c-.46,.05-1.22,.1-3.39,.19-.26,.01-.35,.02-.58,.06l-.06-1.44c.41,.05,.75,.07,1.42,.07,1.02,0,2.48-.06,3.65-.14,.42-.04,.55-.06,.74-.16l.74,1.06c-.2,.11-.29,.18-.62,.49-.6,.55-1.47,1.33-1.88,1.68-.22,.18-1.08,.83-1.32,.98q-.3,.2-.49,.31l.02,.02Zm.36,2.99c-.43,0-.71,.22-.71,.55,0,.48,.54,.76,1.43,.76,.23,0,.29,0,.62-.05-.22-.83-.67-1.26-1.34-1.26Z"/></g><g><path class="cls-4" d="M16.24,179.38c0-.25,0-.34,.02-.91-.22,.38-.42,.66-.74,1.04-.1-.27-.18-.43-.38-.74,.63-.65,1.12-1.39,1.47-2.28,.17-.41,.29-.81,.32-1.1l.77,.23c-.06,.17-.08,.23-.16,.46-.19,.55-.32,.85-.58,1.36v4.4c0,.37,.02,.66,.04,.96h-.8c.03-.29,.05-.54,.05-.98v-2.43Zm2.51-.74v2.87c0,.18,.05,.23,.25,.27,.21,.05,.49,.06,1.09,.06,.94,0,1.31-.04,1.49-.14,.17-.11,.24-.35,.29-1.06,.3,.14,.41,.17,.73,.23-.11,.88-.22,1.21-.46,1.38-.29,.21-.83,.27-2.25,.27-.58,0-1.05-.03-1.3-.1-.41-.1-.54-.27-.54-.67v-2.87c-.09,.03-.16,.06-.21,.06-.26,.09-.36,.13-.5,.19l-.08-.76c.2-.02,.5-.1,.74-.18l.05-.02v-1.01c0-.37-.02-.6-.05-.84h.8c-.03,.22-.05,.45-.05,.81v.81l.97-.32v-1.36c0-.3-.02-.53-.05-.78h.79c-.03,.24-.05,.44-.05,.77v1.14l1.2-.4c.32-.1,.48-.17,.65-.25q-.02,.22-.02,.4c-.02,.9-.08,2.05-.14,2.57-.08,.59-.26,.74-.84,.74-.14,0-.3,0-.48-.02-.03-.26-.07-.42-.18-.69,.22,.05,.44,.07,.6,.07,.2,0,.23-.07,.29-.63,.04-.37,.06-.91,.07-1.5l-1.14,.38v2.16c0,.32,0,.54,.05,.78h-.79c.03-.23,.05-.46,.05-.81v-1.9l-.97,.33Z"/><path class="cls-4" d="M26.53,180.17c-.46,1.06-.95,1.52-1.58,1.52-.85,0-1.47-.89-1.47-2.1,0-.86,.3-1.66,.86-2.28,.66-.72,1.58-1.1,2.69-1.1,1.86,0,3.09,1.14,3.09,2.87,0,1.34-.7,2.41-1.9,2.9-.38,.15-.69,.24-1.23,.34-.12-.37-.19-.5-.41-.78,.62-.1,.98-.18,1.33-.33,.86-.37,1.39-1.21,1.39-2.17,0-.83-.39-1.5-1.1-1.87-.27-.14-.49-.2-.86-.22-.14,1.19-.43,2.36-.82,3.22Zm-1.1-2.83c-.73,.49-1.18,1.34-1.18,2.25,0,.7,.3,1.25,.69,1.25,.29,0,.58-.35,.9-1.08,.31-.74,.58-1.85,.69-2.81-.44,.05-.75,.15-1.1,.38Z"/><path class="cls-4" d="M36.23,176.43s0-.09,0-.13c0-.51,.41-.93,.92-.93s.93,.42,.93,.93-.42,.93-.93,.93c-.09,0-.18-.02-.26-.04-.02,.04-.03,.1-.05,.17-.4,1.52-1.02,2.61-1.99,3.51-.72,.67-1.42,1.1-2.54,1.57-.18-.36-.27-.48-.58-.78,.71-.22,1.18-.44,1.77-.83,1.26-.83,2.05-1.98,2.46-3.61h-3.81c-.54,0-.75,.02-1.06,.06v-.9c.32,.05,.54,.06,1.08,.06h4.06Zm.38-.13c0,.3,.24,.54,.54,.54s.54-.25,.54-.54-.24-.54-.54-.54-.54,.25-.54,.54Z"/><path class="cls-4" d="M40.1,175.92c-.03,.23-.04,.4-.04,.95l-.03,4.49c.86-.15,1.6-.44,2.22-.84,.76-.5,1.27-1.06,1.69-1.87,.26,.36,.34,.46,.63,.69-.54,.82-1.05,1.35-1.73,1.82-.77,.52-1.61,.84-2.85,1.08-.24,.05-.34,.07-.46,.13l-.44-.54c.06-.18,.06-.3,.06-.7l.02-4.24v-.22c0-.39,0-.56-.03-.76h.95Z"/><path class="cls-4" d="M51.72,176.25c-.14,.12-.15,.13-.36,.34-.52,.55-1.17,1.11-1.84,1.59v3.22c0,.55,.02,.81,.05,1.06h-.95c.04-.3,.05-.47,.05-1.06v-2.69c-.98,.6-1.48,.82-2.94,1.33-.14-.34-.22-.46-.45-.77,1.54-.41,2.9-1.08,4.17-2.07,.72-.56,1.27-1.11,1.5-1.5l.77,.54Z"/><path class="cls-4" d="M59.18,176.97c-.07,.1-.09,.13-.21,.44-.21,.54-.59,1.16-1,1.62-.26,.3-.5,.5-.94,.85-.22-.24-.32-.31-.67-.53,.51-.33,.78-.55,1.09-.9,.27-.31,.45-.59,.61-.95t.02-.06s.02-.02,.02-.05c-.03,0-.04,0-.07,.02,0,0-.06,.02-.13,.02l-2.82,.48,.64,3.49c.1,.55,.14,.71,.23,1.01l-.9,.16c-.02-.3-.06-.6-.14-1.04l-.65-3.49-.96,.16c-.42,.07-.58,.1-.84,.18l-.14-.85c.31,0,.54-.03,.88-.09l.93-.15-.14-.81c-.07-.36-.1-.5-.18-.77l.9-.14c.02,.23,.03,.38,.11,.78l.14,.8,3.29-.54c.22-.04,.3-.06,.43-.13l.51,.46Z"/><path class="cls-4" d="M60.08,178.61c.3,.04,.64,.06,1.23,.06h4.33c.69,0,.88,0,1.19-.05v.93c-.35-.03-.61-.04-1.2-.04h-4.31c-.67,0-.91,0-1.24,.04v-.94Z"/><path class="cls-4" d="M70.01,176.6c.22-.5,.32-.78,.34-1.03l.88,.11c-.05,.07-.06,.1-.1,.18q-.09,.21-.25,.58s-.05,.1-.06,.14t.06,0h.04s.18,0,.4-.02c.86-.03,1.7-.14,2.13-.27l.05,.76q-.18,.02-.62,.07c-.56,.07-1.59,.14-2.38,.16-.28,.54-.53,.9-.86,1.25v.02q.06-.05,.18-.13c.35-.27,.78-.42,1.22-.42,.3,0,.59,.1,.78,.26,.18,.15,.27,.32,.33,.61,.65-.24,1.08-.4,1.3-.47,.41-.14,.44-.15,.57-.23l.33,.77c-.45,.08-.98,.25-2.1,.66q0,.29,0,.43v.38c0,.14,0,.22,0,.28,0,.15,0,.27,.02,.39l-.78,.02c.02-.16,.05-.61,.05-1.04v-.19c-.98,.45-1.34,.77-1.34,1.19,0,.48,.42,.66,1.54,.66,.84,0,1.71-.13,2.21-.33l.08,.86c-.14,0-.18,0-.35,.04-.59,.09-1.34,.14-1.99,.14-.81,0-1.34-.1-1.73-.32-.35-.2-.56-.56-.56-.98,0-.74,.66-1.38,2.05-1.97-.04-.34-.22-.51-.54-.51-.48,0-1.07,.29-1.7,.83-.32,.27-.5,.47-.66,.7l-.62-.62c.38-.28,.86-.83,1.29-1.46,.1-.15,.26-.42,.5-.81h-.91c-.2-.02-.35-.02-.46-.02h-.05s-.06,0-.12,0l.02-.76c.4,.07,.83,.1,1.56,.1h.29Z"/><path class="cls-4" d="M76.39,176.25c0-.34-.02-.57-.05-.81h.82c-.03,.24-.05,.46-.05,.8v.72h.22c.22,0,.41,0,.62-.04v.72c-.24-.02-.41-.03-.63-.03h-.22v1.42q.24-.08,.86-.28l.02,.65c-.38,.15-.5,.2-.87,.32v2.32c0,.51-.23,.66-.99,.66-.22,0-.35,0-.64-.02-.02-.31-.06-.46-.15-.73,.34,.06,.57,.08,.81,.08,.21,0,.26-.05,.26-.22v-1.88q-.27,.08-.48,.14s-.17,.05-.36,.1c-.05,.02-.09,.03-.18,.06l-.14-.78q.27-.02,1.15-.23v-1.61h-.45c-.22,0-.4,0-.63,.04v-.74c.2,.03,.4,.05,.63,.05h.45v-.71Zm2.59,.17c1.24-.18,2.27-.49,2.71-.78l.54,.62c-1.16,.39-2.04,.6-3.25,.75v.46c0,.29,.12,.32,1.39,.32s1.34-.02,1.38-.96c.25,.12,.46,.18,.7,.23-.08,.73-.18,.99-.44,1.16-.27,.17-.63,.21-2.01,.21-.66,0-1.17-.05-1.35-.12-.28-.11-.38-.28-.38-.62v-1.46c0-.34,0-.54-.04-.77h.79c-.02,.2-.04,.42-.04,.74v.22Zm-.7,3.18c0-.31,0-.5-.02-.66,.2,.02,.37,.03,.71,.03h2.33c.37,0,.52,0,.72-.03-.02,.17-.03,.36-.03,.67v2.33c0,.43,0,.6,.04,.81h-.74v-.39h-2.31v.4h-.74c.03-.22,.04-.39,.04-.79v-2.37Zm.7,.74h2.31v-.74h-2.31v.74Zm0,1.4h2.31v-.78h-2.31v.78Z"/><path class="cls-4" d="M86.58,178.42h-1.27c-.36,0-.57,0-.81,.04v-.73c.21,.02,.45,.04,.81,.04h3.16c.36,0,.6-.02,.81-.04v.73c-.21-.02-.44-.04-.81-.04h-1.19v1.13h1.53c.35,0,.57-.02,.78-.05v.73c-.24-.03-.44-.04-.78-.04h-1.53v1.54c.34,.05,.81,.08,1.29,.08,.55,0,1.1-.02,1.86-.09-.12,.27-.17,.45-.21,.77-.58,.02-.94,.02-1.5,.02-1.22,0-2.09-.15-2.69-.47-.46-.24-.79-.56-1.05-.98-.32,.68-.6,1.09-1.14,1.67-.18-.25-.27-.33-.58-.54,.55-.53,.83-.9,1.1-1.5,.25-.54,.44-1.29,.44-1.7l.76,.14q-.03,.13-.1,.46c-.03,.12-.12,.46-.22,.76,.2,.37,.29,.5,.51,.7,.24,.22,.47,.37,.82,.5v-3.13Zm-.13-2.45c0-.19,0-.31-.05-.5h.84c-.03,.18-.05,.3-.05,.5v.34h2.21c.31,0,.57,0,.86-.03-.02,.18-.03,.35-.03,.57v.58c0,.24,0,.42,.03,.61h-.73v-1.06h-5.33v1.06h-.74c.02-.2,.03-.34,.03-.61v-.58c0-.2,0-.41-.03-.57,.3,.02,.54,.03,.85,.03h2.13v-.34Z"/><path class="cls-4" d="M92.99,175.83c-.04,.22-.06,.45-.09,1.03-.03,.69-.08,2.46-.08,3,0,.74,.05,1.04,.22,1.29,.19,.29,.59,.45,1.13,.45,.88,0,1.59-.5,2-1.38,.18-.4,.28-.74,.38-1.31,.35,.3,.48,.38,.81,.53-.32,1.03-.55,1.53-.92,1.95-.59,.67-1.37,1.01-2.33,1.01-.55,0-1.05-.13-1.37-.35-.52-.37-.74-.94-.74-1.97,0-.46,0-.9,.06-3.24,0-.25,0-.4,0-.54,0-.19,0-.3-.03-.48l.95,.02Z"/><path class="cls-4" d="M98.78,180.39c.71,.55,1.13,.98,1.72,1.74l-.66,.61c-.56-.78-1.02-1.26-1.67-1.79l.61-.55Z"/><path class="cls-4" d="M16.62,185.65c.26,.03,.41,.04,.76,.04,.79,0,1.9-.05,2.5-.11,.22-.02,.4-.06,.53-.1l.44,.56c-.15,.11-.2,.15-.43,.37-.65,.62-1.54,1.31-2.35,1.86,.38-.05,.93-.1,1.92-.19,.52-.04,.94-.07,1.2-.1,.31-.03,.54-.05,.63-.06,.12-.02,.15-.02,.26-.04l.06,.78c-.08,0-.14,0-.18,0-.86,0-1.65,.15-2.25,.42-.38,.18-.72,.43-.93,.7-.17,.22-.23,.38-.23,.6,0,.58,.62,.9,1.74,.9,.27,0,.46-.02,.67-.06l.03,.86c-.12,0-.18-.02-.24-.02h-.47c-.78,0-1.55-.18-1.94-.46-.38-.27-.59-.66-.59-1.1s.22-.87,.66-1.25c.21-.18,.39-.3,.78-.5-.44,.08-.62,.1-1.6,.22-1.26,.15-1.85,.24-2.14,.32l-.08-.82h.16c.24,0,.9-.07,1.37-.15,.74-.45,1.96-1.42,2.64-2.11-.55,.1-.97,.13-2.34,.19-.22,0-.35,.02-.5,.04l-.05-.79Z"/><path class="cls-4" d="M26.04,189.77c-.46,1.06-.95,1.52-1.58,1.52-.85,0-1.47-.89-1.47-2.1,0-.86,.3-1.66,.86-2.28,.66-.72,1.58-1.09,2.69-1.09,1.86,0,3.09,1.14,3.09,2.87,0,1.33-.7,2.41-1.9,2.9-.38,.15-.69,.24-1.23,.34-.12-.37-.19-.5-.41-.78,.62-.1,.98-.18,1.33-.33,.86-.37,1.39-1.21,1.39-2.17,0-.83-.39-1.5-1.1-1.87-.27-.14-.49-.2-.86-.22-.14,1.19-.43,2.36-.82,3.22Zm-1.1-2.83c-.73,.49-1.18,1.34-1.18,2.25,0,.7,.3,1.25,.69,1.25,.29,0,.58-.35,.9-1.08,.31-.74,.58-1.86,.69-2.81-.44,.05-.75,.15-1.1,.38Z"/><path class="cls-4" d="M35.73,186.03s0-.09,0-.13c0-.51,.41-.93,.92-.93s.93,.42,.93,.93-.42,.93-.93,.93c-.09,0-.18-.02-.26-.04-.02,.04-.03,.1-.05,.17-.4,1.52-1.02,2.61-1.99,3.51-.72,.67-1.42,1.1-2.54,1.57-.18-.36-.27-.48-.58-.78,.71-.22,1.18-.44,1.77-.83,1.26-.83,2.05-1.98,2.46-3.61h-3.81c-.54,0-.75,.02-1.06,.06v-.9c.32,.05,.54,.06,1.08,.06h4.06Zm.38-.13c0,.3,.24,.54,.54,.54s.54-.25,.54-.54-.24-.54-.54-.54-.54,.25-.54,.54Z"/><path class="cls-4" d="M39.61,185.52c-.03,.23-.04,.4-.04,.95l-.03,4.49c.86-.15,1.6-.44,2.22-.84,.76-.5,1.27-1.06,1.69-1.87,.26,.36,.34,.46,.63,.69-.54,.82-1.05,1.35-1.73,1.81-.77,.52-1.61,.84-2.85,1.08-.24,.05-.34,.07-.46,.13l-.44-.54c.06-.18,.06-.3,.06-.7l.02-4.24v-.22c0-.39,0-.56-.03-.76h.95Z"/><path class="cls-4" d="M51.23,185.85c-.14,.12-.15,.13-.36,.34-.52,.55-1.17,1.11-1.84,1.59v3.22c0,.55,.02,.81,.05,1.06h-.95c.04-.3,.05-.47,.05-1.06v-2.69c-.98,.6-1.48,.82-2.94,1.34-.14-.34-.22-.46-.45-.77,1.54-.41,2.9-1.08,4.17-2.07,.72-.56,1.27-1.11,1.5-1.5l.77,.54Z"/><path class="cls-4" d="M58.68,186.57c-.07,.1-.09,.13-.21,.44-.21,.54-.59,1.16-1,1.62-.26,.3-.5,.5-.94,.85-.22-.24-.32-.31-.67-.53,.51-.33,.78-.55,1.09-.9,.27-.31,.45-.59,.61-.95t.02-.06s.02-.02,.02-.05c-.03,0-.04,0-.07,.02,0,0-.06,.02-.13,.02l-2.82,.48,.64,3.49c.1,.55,.14,.71,.23,1.01l-.9,.16c-.02-.3-.06-.6-.14-1.04l-.65-3.49-.96,.16c-.42,.07-.58,.1-.84,.18l-.14-.85c.31,0,.54-.03,.88-.09l.93-.15-.14-.81c-.07-.36-.1-.5-.18-.77l.9-.14c.02,.23,.03,.38,.11,.78l.14,.8,3.29-.54c.22-.04,.3-.06,.43-.13l.51,.46Z"/><path class="cls-4" d="M59.58,188.21c.3,.04,.64,.06,1.23,.06h4.33c.69,0,.88,0,1.19-.05v.93c-.35-.03-.61-.04-1.2-.04h-4.31c-.67,0-.91,0-1.24,.04v-.94Z"/><path class="cls-4" d="M70.49,189.77c-.46,1.06-.95,1.52-1.58,1.52-.85,0-1.47-.89-1.47-2.1,0-.86,.3-1.66,.86-2.28,.66-.72,1.58-1.09,2.69-1.09,1.86,0,3.09,1.14,3.09,2.87,0,1.33-.7,2.41-1.9,2.9-.38,.15-.69,.24-1.23,.34-.12-.37-.19-.5-.41-.78,.62-.1,.98-.18,1.33-.33,.86-.37,1.39-1.21,1.39-2.17,0-.83-.39-1.5-1.1-1.87-.27-.14-.49-.2-.86-.22-.14,1.19-.43,2.36-.82,3.22Zm-1.1-2.83c-.73,.49-1.18,1.34-1.18,2.25,0,.7,.3,1.25,.69,1.25,.29,0,.58-.35,.9-1.08,.31-.74,.58-1.86,.69-2.81-.44,.05-.75,.15-1.1,.38Z"/><path class="cls-4" d="M78.28,186.29q-.16,.02-.6,.06c-.41,.05-1.22,.09-1.95,.11-.06-.29-.1-.38-.26-.7h.3c1.1,0,2.57-.12,3.55-.29,.77-.14,1.18-.25,1.58-.42l.56,.66c-1.09,.28-1.69,.4-2.42,.49v1.16h1.77c.42,0,.69-.02,.94-.05v.77c-.25-.03-.54-.05-.93-.05h-1.78v1.08h2.14c.42,0,.68-.02,.93-.05v.77c-.27-.03-.52-.05-.93-.05h-2.14v1.68c0,.57-.23,.74-.98,.74-.34,0-.84-.02-1.23-.06-.03-.3-.07-.45-.2-.74,.46,.08,1.01,.13,1.37,.13,.22,0,.3-.06,.3-.25v-1.5h-2.33c-.4,0-.66,.02-.92,.05v-.77c.25,.03,.5,.05,.92,.05h2.33v-1.08h-1.89c-.34,0-.66,.02-.94,.05v-.77c.25,.03,.51,.05,.94,.05h1.89v-1.07Z"/><path class="cls-4" d="M85.91,186.59c.27,0,.41,0,.62-.04v.73c-.2-.03-.34-.04-.6-.04h-.66c.35,.82,.78,1.42,1.37,1.94-.16,.22-.25,.4-.37,.73-.54-.64-.76-.99-1.08-1.74,.02,.3,.02,.46,.02,.57q0,.39,.02,.86v1.98c0,.36,0,.59,.05,.82h-.82c.03-.22,.05-.47,.05-.82v-1.88c0-.3,.02-1.13,.05-1.45-.34,1.01-.7,1.7-1.28,2.41-.11-.27-.22-.46-.42-.71,.42-.42,.72-.86,1.07-1.55,.17-.34,.3-.66,.46-1.16h-.7c-.26,0-.38,0-.54,.04v-.73c.16,.03,.3,.04,.59,.04h.75v-.82c0-.3,0-.48-.05-.7h.83c-.04,.22-.05,.4-.05,.71v.82h.68Zm1.96-1.49c-.03,.26-.05,.58-.05,.88v5.23c0,.22,.11,.26,.78,.26,.42,0,.62-.04,.71-.14,.12-.16,.15-.5,.17-1.61,.27,.14,.45,.2,.74,.26-.04,1.14-.12,1.62-.34,1.89-.2,.26-.54,.33-1.47,.33-.46,0-.84-.04-.99-.1-.26-.11-.35-.26-.35-.59v-5.52c0-.3-.02-.61-.06-.88h.86Z"/><path class="cls-4" d="M91,187.24c.29,0,1.05-.09,1.73-.18,.14-.75,.22-1.37,.22-1.63,0-.03,0-.08,0-.14l.88,.09c-.02,.1-.04,.16-.06,.26q-.03,.15-.06,.28t-.14,.78c-.03,.18-.03,.2-.06,.31,.22-.02,.34-.02,.52-.02,.5,0,.88,.13,1.13,.38,.28,.29,.38,.66,.38,1.37,0,1.33-.22,2.41-.58,2.85-.22,.26-.45,.36-.85,.36-.33,0-.69-.08-1.22-.27,0-.13,.02-.23,.02-.3,0-.14-.02-.27-.06-.55,.43,.21,.9,.34,1.17,.34,.26,0,.4-.18,.53-.62,.13-.42,.21-1.18,.21-1.88,0-.74-.22-.99-.88-.99-.17,0-.3,0-.51,.03-.32,1.33-.63,2.23-1.13,3.29-.06,.13-.24,.48-.53,1.06l-.78-.44c.24-.3,.56-.88,.83-1.48,.35-.78,.54-1.31,.82-2.38-.62,.09-1.2,.19-1.51,.27l-.08-.79Zm5.45-.77c.81,.92,1.3,1.81,1.66,3l-.75,.39c-.15-.65-.34-1.15-.66-1.74-.3-.56-.55-.91-.93-1.31l.67-.34Z"/><path class="cls-4" d="M100.38,186.81c-.11,.44-.23,1.1-.37,2.05-.02,.14-.02,.18-.06,.28,.5-.5,1.51-.83,2.51-.83,1.34,0,2.2,.64,2.2,1.62,0,.58-.3,1.14-.79,1.48-.53,.36-1.18,.53-2.06,.53-.69,0-1.11-.06-2.03-.29,0-.4-.02-.54-.09-.86,.72,.26,1.43,.4,2.1,.4,1.18,0,2.01-.5,2.01-1.24,0-.58-.54-.93-1.43-.93-.99,0-2.01,.4-2.43,.96l-.86-.02c.02-.14,.02-.18,.06-.47,.08-.58,.18-1.3,.34-2.28,.03-.18,.04-.28,.06-.45l.83,.05Zm.21-1.49c.52,.3,2.01,.75,2.87,.89l-.28,.76c-1.42-.34-2.05-.55-2.98-.98l.39-.66Z"/><path class="cls-4" d="M107.15,185.53c.22,.04,.39,.05,.74,.05h.64c.35,0,.47,0,.75-.04-.05,.49-.06,.86-.06,1.33v3.98c0,.4,.02,.66,.06,.98h-1.03c.05-.3,.06-.59,.06-.98v-4.5h-.4c-.27,0-.5,.02-.77,.05v-.86Z"/><path class="cls-4" d="M114.3,187.2c.28,.7,.52,1.06,1.06,1.61-.17,.18-.29,.37-.42,.64-.34-.46-.51-.76-.7-1.26,.02,.42,.04,.7,.04,1.02v2.38c0,.36,0,.6,.05,.82h-.79c.03-.22,.05-.47,.05-.82v-1.77c0-.54,0-.85,.03-1.35-.28,.95-.54,1.54-.96,2.17-.14-.28-.26-.44-.45-.65,.59-.75,1.08-1.81,1.3-2.8h-.32c-.28,0-.47,0-.65,.04v-.72c.2,.03,.37,.04,.66,.04h.37v-.82c0-.3,0-.49-.05-.7h.8c-.03,.22-.04,.4-.04,.71v.81h.38c.26,0,.42,0,.64-.04v.71c-.22-.02-.41-.03-.62-.03h-.38Zm5.32-.05c-.2-.02-.4-.04-.78-.04-.09,.7-.16,1.05-.33,1.58-.18,.59-.38,1.01-.69,1.49,.53,.62,1.08,1.02,1.94,1.43-.15,.18-.27,.4-.41,.72-.93-.55-1.37-.9-1.97-1.57-.57,.66-1.18,1.1-2.2,1.58-.13-.27-.25-.46-.43-.66,.56-.22,.86-.37,1.24-.63,.37-.26,.68-.54,.96-.86-.44-.66-.76-1.34-.96-2.05-.16,.26-.22,.37-.43,.65-.15-.22-.26-.34-.51-.56,.38-.46,.66-.99,.91-1.67,.18-.5,.34-1.16,.35-1.52l.78,.14c-.04,.11-.07,.21-.14,.46-.06,.23-.15,.57-.23,.82h2.02c.4,0,.64-.02,.86-.05v.74Zm-3.12-.04c-.04,.09-.05,.11-.09,.2,.2,.88,.47,1.52,.97,2.28,.42-.74,.62-1.38,.76-2.48h-1.65Z"/><path class="cls-4" d="M120.38,188.15c.21,.03,.34,.04,.63,.04h.5c.26,0,.39,0,.6-.03-.02,.26-.03,.38-.03,.86v1.66c.18,.34,.33,.5,.59,.62,.37,.18,.84,.24,1.76,.24,1.55,0,2.33-.04,3.35-.18-.14,.34-.15,.41-.22,.78-.74,.03-1.7,.05-2.65,.05-1.29,0-1.72-.03-2.13-.16-.45-.14-.76-.38-1.06-.79-.33,.32-.48,.46-.77,.69-.2,.15-.25,.2-.38,.32l-.34-.76c.32-.14,.66-.39,1.15-.85v-1.81h-.44c-.24,0-.35,0-.56,.04v-.73Zm.62-2.93c.56,.53,.81,.79,1.21,1.29l-.56,.54c-.42-.6-.62-.83-1.18-1.34l.53-.49Zm2.37,3.79c-.38,0-.55,0-.75,.03v-.6c.19,.02,.34,.03,.75,.03h.23c0-.22-.02-.29-.04-.45h.74c-.02,.14-.03,.23-.04,.45h1.18c0-.19-.02-.3-.04-.45h.74c-.02,.15-.03,.25-.04,.45h.47c.39,0,.54,0,.74-.03v.6c-.21-.02-.38-.03-.75-.03h-.46v.6h.67c.42,0,.58,0,.78-.03v.62c-.18-.02-.38-.03-.78-.03h-.98c.53,.36,.9,.52,1.62,.7-.21,.21-.31,.34-.45,.59-.74-.26-1.22-.52-1.74-.95l.5-.34h-1.7l.5,.32c-.58,.51-.83,.68-1.45,.94-.11-.18-.25-.34-.49-.52,.62-.22,.95-.4,1.34-.74h-.96c-.32,0-.49,0-.66,.04v-.63c.19,.03,.33,.04,.66,.04h.63v-.6h-.23Zm1.29-2.66c0,.19,0,.32,.02,.43-.2-.02-.31-.02-.51-.02h-1.1v.35c0,.18,.04,.2,.44,.2,.46,0,.6-.02,.66-.08,.04-.05,.06-.14,.08-.39,.18,.12,.34,.18,.55,.23-.05,.44-.12,.6-.31,.69-.13,.06-.39,.09-.98,.09-.92,0-1.05-.06-1.05-.5v-.65c0-.21,0-.34-.02-.46,.14,.02,.27,.02,.54,.02h1.05v-.44h-1c-.31,0-.45,0-.65,.03v-.6c.18,.02,.4,.03,.66,.03h.94c.38,0,.56,0,.71-.02-.02,.13-.02,.21-.02,.43v.66Zm-.39,3.25h1.18v-.6h-1.18v.6Zm3.05-3.25c0,.19,0,.32,.02,.43-.2-.02-.31-.02-.51-.02h-1.09v.35c0,.12,.02,.14,.09,.18,.06,.02,.2,.03,.39,.03,.72,0,.73,0,.76-.48,.21,.12,.35,.18,.58,.23-.1,.74-.17,.78-1.33,.78-.55,0-.75-.02-.89-.07-.17-.07-.23-.19-.23-.44v-.61c0-.1,0-.26-.02-.49,.14,.02,.27,.02,.54,.02h1.05v-.44h-.97c-.31,0-.45,0-.65,.03v-.6c.18,.02,.4,.03,.65,.03h.94c.37,0,.54,0,.7-.02-.02,.11-.02,.21-.02,.43v.66Z"/><path class="cls-4" d="M128.5,185.87c.14,.02,.21,.02,.38,.02,.95,0,1.86-.1,2.21-.25l.44,.71c-.4,.26-.62,.46-.96,.86-.7,.83-1.06,1.67-1.06,2.45,0,.9,.59,1.52,1.45,1.52,.67,0,1.27-.4,1.54-1.03,.2-.49,.29-1,.29-1.7,0-.9-.18-1.91-.46-2.5l.81-.25c.14,.43,.4,.97,.71,1.45,.34,.5,.66,.86,1.14,1.27,.14,.11,.18,.15,.3,.21l-.42,.79-.18-.17c-.57-.48-.9-.92-1.42-1.8,.18,.62,.22,1,.22,1.54,0,.8-.19,1.5-.55,2-.46,.64-1.18,1.01-1.98,1.01-.47,0-.95-.14-1.3-.36-.6-.4-.98-1.14-.98-1.97s.3-1.64,.83-2.36c.21-.28,.46-.58,.67-.75l.17-.15c-.39,.1-.82,.17-1.63,.22-.13,.02-.15,.02-.23,.02l-.02-.79Zm5.47-.69c.38,.42,.55,.68,.83,1.2l-.5,.27c-.26-.5-.49-.83-.83-1.22l.5-.25Zm.94-.46c.38,.42,.55,.66,.82,1.17l-.49,.28c-.25-.46-.47-.8-.82-1.2l.48-.25Z"/><path class="cls-4" d="M136.32,189.99c.71,.55,1.13,.98,1.72,1.74l-.66,.61c-.56-.78-1.02-1.26-1.67-1.79l.61-.55Z"/><path class="cls-4" d="M16.62,195.25c.26,.03,.41,.04,.76,.04,.79,0,1.9-.05,2.5-.11,.22-.02,.4-.06,.53-.1l.44,.56c-.15,.11-.2,.15-.43,.37-.65,.62-1.54,1.31-2.35,1.86,.38-.05,.93-.1,1.92-.19,.52-.04,.94-.07,1.2-.1,.31-.03,.54-.05,.63-.06,.12-.02,.15-.02,.26-.04l.06,.78c-.08,0-.14,0-.18,0-.86,0-1.65,.15-2.25,.42-.38,.18-.72,.43-.93,.7-.17,.22-.23,.38-.23,.6,0,.58,.62,.9,1.74,.9,.27,0,.46-.02,.67-.06l.03,.86c-.12,0-.18-.02-.24-.02h-.47c-.78,0-1.55-.18-1.94-.46-.38-.27-.59-.66-.59-1.1s.22-.87,.66-1.25c.21-.18,.39-.3,.78-.5-.44,.08-.62,.1-1.6,.22-1.26,.15-1.85,.24-2.14,.32l-.08-.82h.16c.24,0,.9-.07,1.37-.15,.74-.45,1.96-1.42,2.64-2.11-.55,.1-.97,.13-2.34,.19-.22,0-.35,.02-.5,.04l-.05-.79Z"/><path class="cls-4" d="M26.04,199.37c-.46,1.06-.95,1.52-1.58,1.52-.85,0-1.47-.89-1.47-2.1,0-.86,.3-1.66,.86-2.28,.66-.72,1.58-1.1,2.69-1.1,1.86,0,3.09,1.14,3.09,2.87,0,1.34-.7,2.41-1.9,2.9-.38,.15-.69,.24-1.23,.34-.12-.37-.19-.5-.41-.78,.62-.1,.98-.18,1.33-.33,.86-.37,1.39-1.21,1.39-2.17,0-.83-.39-1.5-1.1-1.87-.27-.14-.49-.2-.86-.22-.14,1.19-.43,2.36-.82,3.22Zm-1.1-2.83c-.73,.49-1.18,1.34-1.18,2.25,0,.7,.3,1.25,.69,1.25,.29,0,.58-.35,.9-1.08,.31-.74,.58-1.85,.69-2.81-.44,.05-.75,.15-1.1,.38Z"/><path class="cls-4" d="M33.12,196.42c.03-.38,.05-.8,.05-1.14,0-.2,0-.26-.02-.42l.9,.02c-.03,.17-.03,.22-.07,1,0,.14,0,.24-.03,.54h1.86c.36-.02,.42-.02,.59-.08l.39,.35c-.06,.13-.07,.22-.08,.5-.05,1.76-.19,3.04-.41,3.61-.2,.51-.5,.7-1.12,.7-.3,0-.57-.03-1-.11,0-.41-.02-.54-.14-.85,.46,.14,.78,.2,1.05,.2,.36,0,.48-.18,.62-.92,.11-.58,.19-1.68,.19-2.68h-2.01c-.06,.57-.07,.62-.14,.91-.22,1.03-.65,1.83-1.36,2.57-.41,.42-.74,.69-1.28,1.02-.22-.34-.31-.44-.59-.69,.98-.52,1.65-1.18,2.08-2.05,.26-.53,.35-.88,.46-1.74h-1.38c-.5,0-.58,0-.86,.05v-.83c.27,.05,.46,.06,.86,.06h1.44Z"/><path class="cls-4" d="M38.12,197.81c.3,.04,.64,.06,1.23,.06h4.33c.69,0,.88,0,1.19-.05v.93c-.35-.03-.61-.04-1.2-.04h-4.31c-.67,0-.91,0-1.24,.04v-.94Z"/><path class="cls-4" d="M46.83,201.66c.04-.34,.05-.54,.05-1.02v-4.77c0-.55,0-.73-.05-.95h.95c-.04,.26-.05,.53-.05,.98v1.35c1.14,.4,2.26,.93,3.6,1.69l-.47,.79c-.35-.24-.57-.38-.98-.61-.61-.33-1.48-.76-1.92-.94q-.13-.06-.26-.14l.02,.31c0,.07,0,.32,0,.4v1.9c0,.42,.02,.72,.05,1.02h-.94Zm3.37-6.36c.38,.42,.55,.68,.83,1.2l-.5,.27c-.26-.5-.49-.83-.83-1.22l.5-.25Zm.94-.46c.38,.42,.55,.66,.82,1.17l-.49,.28c-.25-.46-.47-.8-.82-1.2l.48-.25Z"/><path class="cls-4" d="M54.76,195.8c.22-.5,.32-.78,.34-1.03l.88,.11c-.05,.07-.06,.1-.1,.18q-.09,.21-.25,.58s-.05,.1-.06,.14t.06,0h.04s.18,0,.4-.02c.86-.03,1.7-.14,2.13-.27l.05,.76q-.18,.02-.62,.07c-.56,.07-1.59,.14-2.38,.16-.28,.54-.53,.9-.86,1.25v.02q.06-.05,.18-.13c.35-.27,.78-.42,1.22-.42,.3,0,.59,.1,.78,.26,.18,.15,.27,.32,.33,.61,.65-.24,1.08-.4,1.3-.47,.41-.14,.44-.15,.57-.23l.33,.77c-.45,.08-.98,.25-2.1,.66q0,.29,0,.43v.38c0,.14,0,.22,0,.28,0,.15,0,.27,.02,.39l-.78,.02c.02-.16,.05-.61,.05-1.04v-.19c-.98,.45-1.34,.77-1.34,1.19,0,.48,.42,.66,1.54,.66,.84,0,1.71-.13,2.21-.33l.08,.86c-.14,0-.18,0-.35,.04-.59,.09-1.34,.14-1.99,.14-.81,0-1.34-.1-1.73-.32-.35-.2-.56-.56-.56-.98,0-.74,.66-1.38,2.05-1.97-.04-.34-.22-.51-.54-.51-.48,0-1.07,.29-1.7,.83-.32,.27-.5,.47-.66,.7l-.62-.62c.38-.28,.86-.83,1.29-1.46,.1-.15,.26-.42,.5-.81h-.91c-.2-.02-.35-.02-.46-.02h-.05s-.06,0-.12,0l.02-.76c.4,.07,.83,.1,1.56,.1h.29Z"/><path class="cls-4" d="M63.75,197.5c-.33,0-.46,0-.64,.03v-.58c-.23,.18-.34,.25-.66,.44-.12-.26-.21-.39-.39-.6h-.4v1.45c.21-.09,.29-.12,.58-.25v.66l-.58,.24v2.35c0,.54-.17,.68-.83,.68-.16,0-.3,0-.62-.02-.02-.26-.06-.42-.15-.68,.26,.04,.51,.06,.69,.06s.22-.04,.22-.2v-1.92q-.74,.25-.87,.3l-.11-.74c.28-.02,.47-.07,.98-.24v-1.69h-.34c-.21,0-.38,0-.56,.03v-.71l.1,.02c.17,.02,.26,.02,.46,.02h.34v-.66c0-.38,0-.58-.05-.82h.79c-.04,.23-.05,.43-.05,.82v.66h.18c.18,0,.3,0,.44-.02v.55c.88-.5,1.55-1.17,1.97-1.97h.78c.26,.43,.52,.75,.95,1.12,.47,.41,.82,.62,1.51,.91-.15,.21-.23,.34-.38,.66-.36-.18-.54-.28-.82-.47v.6c-.17-.02-.29-.03-.62-.03h-.71v.7h1.41c.39,0,.56,0,.78-.04v.69c-.22-.03-.41-.04-.78-.04h-3.21c-.34,0-.52,0-.73,.04v-.68c.18,.02,.34,.03,.69,.03h1.18v-.7h-.54Zm-1.09,4.51c.03-.25,.04-.45,.04-.77v-1.31c0-.26,0-.42-.03-.64,.2,.02,.38,.03,.68,.03h2.61c.3,0,.45,0,.62-.03-.02,.17-.03,.38-.03,.62v1.37c0,.31,0,.5,.04,.73h-.74v-.41h-2.48v.41h-.72Zm1.62-5.41c0-.24,0-.37-.02-.48h.71c-.02,.11-.02,.25-.02,.48v.31h.7c.3,0,.41,0,.56-.02-.71-.51-1.16-.97-1.57-1.59-.4,.65-.74,1.02-1.45,1.59,.18,.02,.27,.02,.55,.02h.54v-.31Zm-.9,4.39h2.49v-1.07h-2.49v1.07Z"/><path class="cls-4" d="M67.96,195.89q.15,0,.28,0c.17,0,.26,0,.49-.02,.94-.06,2.84-.18,4.72-.26,.55-.02,.79-.05,.93-.08l.06,.84h-.14c-.45,0-1.01,.14-1.5,.38-1.09,.54-1.76,1.41-1.76,2.27,0,.64,.4,1.14,1.09,1.38,.37,.12,.9,.22,1.18,.22,.03,0,.08,0,.14,0l-.12,.9c-.1-.02-.14-.02-.26-.05-.87-.13-1.34-.27-1.81-.56-.67-.41-1.04-1.05-1.04-1.81s.35-1.47,1.05-2.12c.32-.3,.5-.42,.96-.64-.56,.09-.88,.12-1.73,.18-1.39,.1-2.07,.16-2.49,.25l-.05-.88Z"/><path class="cls-4" d="M76.22,195.24c.26,.04,.41,.05,.85,.05,.73,0,1.67-.04,2.45-.1,.26-.02,.34-.03,.45-.1l.43,.6c-.12,.06-.17,.1-.41,.33-1.11,1.06-1.98,1.78-2.53,2.1l.02,.02c.68-.31,1.16-.42,1.8-.42,1.34,0,2.21,.69,2.21,1.75,0,.74-.38,1.33-1.07,1.72-.52,.29-1.16,.44-1.88,.44-.64,0-1.18-.12-1.48-.34-.3-.21-.48-.54-.48-.9,0-.61,.55-1.06,1.29-1.06,.55,0,1.04,.24,1.36,.66,.16,.21,.25,.38,.37,.74,.27-.09,.43-.17,.6-.29,.31-.23,.49-.57,.49-.95,0-.7-.62-1.13-1.64-1.13-1.18,0-2.38,.5-3.33,1.35l-.46-.71c.72-.38,2.6-1.93,3.64-2.99,.02-.02,.11-.11,.14-.14h0c-.29,.03-1.14,.09-2.36,.14-.18,0-.24,.02-.4,.04l-.04-.82Zm1.65,4.73c-.33,0-.54,.16-.54,.42,0,.35,.41,.57,1.08,.57,.16,0,.21,0,.46-.03-.16-.63-.5-.95-1-.95Z"/></g><rect class="cls-3" x="82.24" y="61.37" width="17.36" height="24.24" rx="3" ry="3" transform="translate(-13.29 20.51) rotate(-12)"/><path class="cls-5" d="M104.77,83.04h-30.95c-.66,0-1.19,.54-1.19,1.19v32.14c0,3.06,2.5,5.56,5.56,5.56h22.22c3.06,0,5.56-2.5,5.56-5.56v-32.14c0-.66-.54-1.19-1.19-1.19Z"/><path class="cls-5" d="M47.6,56l4.45,5.11-.19,2.78c-.05,.71,.19,1.45,.67,2l7.62,8.76c.47,.55,1.18,.89,1.88,.94l2.78,.19,4.45,5.11c.91,1.05,2.46,1.41,3.65,.68,1.5-.92,1.76-2.93,.66-4.2l-21.87-25.16c-1.1-1.27-3.13-1.29-4.25,.07-.88,1.07-.74,2.66,.17,3.7Z"/></svg>