<?xml version="1.0" encoding="UTF-8"?><svg id="Layer_1" xmlns="http://www.w3.org/2000/svg" viewBox="0 0 178.58 249.45"><defs><style>.cls-1{fill:#fff;}.cls-2{fill:#ffa914;}.cls-3{fill:#ccc;}.cls-4{fill:gray;}.cls-5{fill:#4d4d4d;}.cls-6{opacity:.9;}</style></defs><g><path class="cls-1" d="M13.95,3.09H164.63c6,0,10.86,4.87,10.86,10.86V235.5c0,6-4.87,10.86-10.86,10.86H13.95c-6,0-10.86-4.87-10.86-10.86V13.95C3.09,7.96,7.96,3.09,13.95,3.09Z"/><path class="cls-2" d="M164.63,6.18c4.29,0,7.77,3.49,7.77,7.77V235.5c0,4.29-3.49,7.77-7.77,7.77H13.95c-4.29,0-7.77-3.49-7.77-7.77V13.95c0-4.29,3.49-7.77,7.77-7.77H164.63M164.63,0H13.95C6.25,0,0,6.25,0,13.95V235.5C0,243.2,6.25,249.45,13.95,249.45H164.63c7.71,0,13.95-6.25,13.95-13.95V13.95C178.58,6.25,172.34,0,164.63,0h0Z"/></g><g><path class="cls-2" d="M37.18,15.88c-1.05,0-1.5,.01-2.05,.06v-2.23c.7,.08,1.09,.1,2.09,.1h6.94c.41-.01,.61-.05,.87-.14l1.22,1.37c-.2,.19-.27,.28-.58,.81-1.3,2.19-2.34,3.45-4.02,4.85,.54,.65,.9,1.1,1.51,1.93l-1.9,1.48c-.76-1.24-1.39-2.12-2.45-3.31-1.03-1.18-1.62-1.76-2.55-2.52l1.74-1.22c1.04,.85,1.46,1.24,2.19,2.01,.72-.6,1.52-1.41,1.98-2,.32-.39,.66-.94,.81-1.23l-5.8,.03Z"/><path class="cls-2" d="M56.56,24.11c-1.1-1.39-2.22-2.5-3.64-3.6-1.19,1.41-2.7,2.52-4.66,3.47-.44-.89-.71-1.27-1.42-2,1.65-.63,2.95-1.46,4.1-2.56,1.18-1.13,1.95-2.25,2.55-3.72l-3.29,.05c-1.09,.02-1.49,.05-2.01,.13l-.06-2.25c.49,.06,.84,.09,1.33,.09,.1,0,.34,0,.71-.01l4.33-.06c.6-.01,.67-.01,1.01-.14l1.11,1.14c-.19,.19-.27,.32-.46,.75-.67,1.58-1.15,2.47-1.86,3.42,1.53,1.1,2.05,1.55,4.03,3.43l-1.77,1.88Z"/><path class="cls-2" d="M63.15,15.06c.04-.49,.06-1.23,.06-1.62,0-.27,0-.37-.04-.63l2.38,.06c-.06,.29-.06,.33-.14,1.53q-.01,.34-.04,.65h2.76c.42,0,.57-.03,.85-.14l.99,.86c-.14,.25-.17,.36-.18,.94-.09,2.71-.28,4.83-.53,5.66-.37,1.18-.98,1.58-2.38,1.58-.49,0-.68-.01-1.66-.1-.05-1.01-.14-1.43-.43-2.23,.63,.17,1.25,.25,1.65,.25,.61,0,.76-.2,.92-1.3,.13-.85,.24-2.45,.24-3.53h-2.42q-.1,.84-.19,1.27c-.56,2.56-1.76,4.21-4.33,5.9-.57-.9-.95-1.33-1.65-1.93,1.69-.89,2.66-1.79,3.29-3.07,.32-.65,.46-1.1,.63-2.17h-1.58c-.85,0-1.11,.01-1.71,.08v-2.17c.62,.09,.85,.1,1.75,.1h1.75Z"/><path class="cls-2" d="M71.53,17.25c.6,.09,1.28,.11,2.6,.11h6.06c1.27,0,1.75-.03,2.6-.11v2.44c-.61-.06-1.16-.08-2.61-.08h-6.03c-1.42,0-1.84,.01-2.61,.08v-2.44Z"/><path class="cls-2" d="M85.38,24.05c.05-.53,.06-.9,.08-1.94v-7.37c-.01-1.09-.01-1.15-.09-1.84h2.45c-.05,.33-.05,.53-.06,1.85v1.74c2,.65,3.99,1.55,5.76,2.64l-1.2,2.15c-1.05-.75-2.52-1.56-3.99-2.2-.38-.15-.42-.16-.46-.19-.04-.01-.06-.03-.11-.06v3.29c0,.94,.03,1.61,.08,1.94h-2.44Zm5.73-10.44c.49,.56,.9,1.14,1.25,1.81l-1.2,.58c-.42-.8-.75-1.27-1.25-1.85l1.2-.54Zm1.69-.76c.47,.51,.82,.99,1.27,1.76l-1.17,.57c-.44-.8-.8-1.31-1.24-1.81l1.14-.52Z"/></g><path class="cls-2" d="M13.95,0H30V16.05c0,7.7-6.25,13.95-13.95,13.95H0V13.95C0,6.25,6.25,0,13.95,0Z"/><g class="cls-6"><path class="cls-1" d="M15,19.78c-.1,0-.19-.04-.26-.1l-6.73-4.47c-.07-.08-.07-.32,.07-.45l6.58-4.37c.14-.13,.23-.17,.33-.17s.19,.04,.26,.11l6.73,4.49s.03,.1,.03,.2-.04,.19-.11,.26l-6.58,4.35c-.14,.13-.23,.16-.33,.16Z"/><path class="cls-1" d="M15.08,10.66h0m-.08,.07s.04,.03,.07,.05l6.36,4.23-6.36,4.21s-.05,.03-.07,.05c-.02-.02-.05-.03-.07-.05l-6.36-4.21,6.36-4.23s.05-.03,.07-.05m0-.98c-.21,0-.43,.08-.59,.24l-6.65,4.43c-.32,.32-.32,.86,0,1.18l6.65,4.41c.16,.16,.38,.24,.59,.24s.43-.08,.59-.24l6.65-4.41c.32-.32,.32-.86,0-1.18l-6.65-4.43c-.16-.16-.38-.24-.59-.24h0Z"/></g><g><path d="M22.7,160.62c.36,0,.5-.01,.71-.02,.01-.78,.61-1.39,1.38-1.39s1.39,.62,1.39,1.38-.62,1.39-1.39,1.39c-.07,0-.14-.01-.23-.02-.97,3.92-3.09,6.37-6.88,7.95-.31-.62-.52-.9-1.06-1.43,3.32-1.03,5.49-3.26,6.26-6.45h-5.71c-.89,0-1.12,.01-1.51,.07v-1.56c.43,.07,.72,.08,1.54,.08h5.5Zm1.31-.04c0,.43,.35,.79,.78,.79s.79-.36,.79-.79-.35-.78-.79-.78-.78,.35-.78,.78Z"/><path d="M29.54,159.91c-.05,.32-.06,.62-.07,1.21l-.06,6.85c1.25-.24,2.38-.7,3.27-1.32,1.1-.75,1.85-1.58,2.45-2.75,.47,.62,.62,.79,1.14,1.22-.83,1.27-1.6,2.07-2.67,2.79-1.2,.8-2.42,1.27-4.37,1.64-.32,.06-.47,.11-.72,.2l-.77-.92c.08-.32,.11-.54,.11-1.24l.05-6.48q0-.84-.06-1.24h1.7Z"/><path d="M47.08,160.56c-.2,.18-.26,.23-.44,.42-.9,.94-1.8,1.71-2.83,2.47v5.12c0,.66,.01,1.01,.06,1.33h-1.68c.06-.35,.07-.59,.07-1.29v-4.22c-1.4,.84-2.07,1.15-4.28,1.94-.25-.62-.38-.83-.8-1.37,2.38-.65,4.39-1.64,6.3-3.12,1.07-.83,1.88-1.65,2.23-2.24l1.38,.96Z"/><path d="M58.73,161.6c-.12,.17-.13,.2-.32,.68-.3,.83-.88,1.79-1.47,2.48-.4,.47-.74,.79-1.44,1.36-.41-.43-.59-.58-1.21-.94,.74-.49,1.13-.8,1.55-1.29,.47-.53,.72-.92,.96-1.51-.07,.01-.18,.04-.32,.07l-3.9,.65,1.01,5.42c.11,.62,.17,.86,.3,1.26l-1.63,.29c-.01-.33-.07-.78-.14-1.21l-1.01-5.5-1.32,.22c-.64,.11-.91,.17-1.32,.29l-.25-1.51c.53-.01,.85-.05,1.38-.13l1.27-.2-.23-1.21c-.12-.7-.14-.79-.25-1.12l1.58-.24c.01,.34,.05,.55,.14,1.06l.23,1.27,4.77-.79c.36-.06,.5-.1,.73-.2l.9,.83Z"/><path d="M59.94,163.9c.53,.07,.76,.08,1.94,.08h6.39c1.19,0,1.42-.01,1.94-.08v1.67c-.48-.06-.61-.06-1.96-.06h-6.37c-1.34,0-1.48,0-1.96,.06v-1.67Z"/><path d="M75.31,159.48c.05,.8,.41,2.53,.79,3.75q.78-.29,3.11-1.06c.22-.07,.28-.1,.46-.18l.52,1.51c-1.04,.2-2.61,.66-3.96,1.15-1.75,.65-2.63,1.42-2.63,2.28s.82,1.25,2.75,1.25c1.5,0,2.97-.18,3.87-.49l.13,1.64c-.26,0-.32,.01-.97,.08-1.29,.13-1.97,.18-2.81,.18-1.67,0-2.71-.2-3.48-.66-.66-.4-1.04-1.14-1.04-2,0-.8,.38-1.57,1.07-2.15,.47-.4,.85-.64,1.63-1.03-.3-.97-.5-1.77-.8-3.25-.12-.58-.13-.6-.19-.78l1.56-.25Z"/><path d="M91.65,162.25c-.1,.22-.12,.38-.13,.8-.04,1.36-.17,3.2-.29,3.99-.31,2.07-.73,2.57-2.17,2.57-.46,0-.86-.04-1.49-.13-.02-.76-.06-.98-.28-1.54,.71,.19,1.19,.28,1.58,.28,.52,0,.7-.26,.89-1.31,.14-.83,.26-2.46,.26-3.84h-2.79c-.17,1.51-.42,2.41-.96,3.44-.66,1.27-1.73,2.36-3.24,3.32-.41-.64-.58-.83-1.08-1.27,1.5-.79,2.48-1.74,3.12-3.02,.32-.66,.5-1.25,.61-2.09,.02-.17,.05-.29,.06-.37h-1.99c-.73,.01-.9,.02-1.29,.07v-1.47c.4,.07,.72,.1,1.32,.1h2.1c.04-.47,.06-1.16,.06-1.51v-.3c0-.16,0-.25-.04-.47l1.61,.04c-.02,.16-.04,.2-.05,.37,0,.07-.01,.14-.01,.23q-.02,.25-.05,.88c-.01,.26-.01,.37-.05,.76h2.66c.54-.01,.65-.02,.95-.12l.68,.6Z"/><path d="M93.49,163.9c.53,.07,.76,.08,1.94,.08h6.39c1.19,0,1.42-.01,1.94-.08v1.67c-.48-.06-.61-.06-1.96-.06h-6.37c-1.34,0-1.48,0-1.96,.06v-1.67Z"/><path d="M106.57,169.88c.05-.34,.07-.66,.07-1.34v-7.69c-.01-.7-.02-.94-.07-1.22h1.64c-.04,.32-.05,.55-.05,1.26v2.23c1.39,.46,3.55,1.46,5.45,2.53l-.84,1.42c-.84-.6-2.54-1.52-4.25-2.29-.28-.13-.31-.14-.41-.2,.04,.34,.05,.54,.05,.82v3.17c0,.65,.01,.98,.05,1.33h-1.64Zm4.94-9.63c.53,.56,.85,1.02,1.26,1.76l-.84,.44c-.4-.73-.73-1.21-1.26-1.79l.84-.42Zm1.86,1.45c-.36-.66-.76-1.22-1.22-1.74l.8-.42c.54,.55,.88,1.01,1.25,1.69l-.83,.47Z"/><path d="M115.8,160.71c.49,.11,1.26,.16,2.78,.16,.32-.72,.43-1.08,.48-1.49l1.57,.17q-.07,.12-.48,1.08c-.06,.13-.08,.17-.11,.22q.1-.01,.76-.05c1.39-.08,2.48-.22,3.14-.41l.08,1.37q-.33,.02-.95,.1c-.88,.11-2.4,.2-3.61,.24-.35,.68-.68,1.16-1.1,1.6v.02q.1-.06,.25-.18c.44-.34,1.08-.54,1.69-.54,.94,0,1.52,.44,1.71,1.27,.92-.34,1.54-.55,1.83-.65,.65-.23,.7-.24,.89-.36l.56,1.38c-.34,.05-.7,.14-1.33,.32-.17,.05-.77,.25-1.8,.61v.13q.01,.31,.01,.48v.48c-.01,.2-.01,.31-.01,.4,0,.26,.01,.43,.04,.64l-1.39,.04c.05-.22,.07-.83,.07-1.39v-.29c-.59,.28-.9,.44-1.15,.62-.42,.31-.62,.64-.62,.98,0,.62,.58,.88,2.03,.88s2.67-.18,3.53-.5l.12,1.55c-.2,0-.26,.01-.55,.05-.86,.13-2.02,.22-3.07,.22-1.27,0-2.06-.14-2.67-.5-.55-.31-.88-.89-.88-1.55,0-.49,.14-.88,.53-1.33,.54-.67,1.22-1.13,2.58-1.69-.06-.44-.3-.65-.73-.65-.7,0-1.54,.42-2.46,1.24-.5,.42-.78,.72-1.04,1.09l-1.09-1.08c.31-.24,.66-.58,1.08-1.07,.47-.55,1.2-1.59,1.44-2.05q.05-.1,.1-.16s-.2,.01-.2,.01c-.19,0-1.25-.02-1.51-.02q-.23-.01-.34-.01s-.11,0-.19,.01l.02-1.37Z"/><path d="M134.58,164.74c-.71,1.21-1,1.61-1.61,2.28,1.21,.92,2.52,1.49,4.61,1.96-.34,.49-.44,.72-.65,1.33-2.24-.62-3.59-1.27-4.92-2.38-1.27,1.03-2.87,1.85-4.75,2.42-.18-.52-.32-.8-.66-1.26,1.82-.47,3.42-1.2,4.47-2.05-.65-.72-1.07-1.34-1.58-2.35l1.08-.7c.06,.11,.1,.2,.12,.25,.37,.74,.77,1.31,1.33,1.92,.35-.36,.56-.62,.86-1.1,.25-.38,.32-.53,.55-1.08l1.14,.76Zm-3.6-2.18c-.6,.86-.98,1.3-1.64,1.9-.58,.53-1.03,.89-1.76,1.37-.25-.41-.48-.67-.9-1.04,1.42-.73,2.3-1.54,3.17-2.84l1.14,.62Zm.3-2.45c0-.31-.02-.6-.07-.86h1.49c-.05,.22-.07,.5-.07,.86v.42h3.25c.67,0,1.14-.02,1.49-.07v1.37c-.28-.05-.88-.07-1.51-.07h-7.63c-.73,0-1.13,.02-1.5,.07v-1.37c.35,.05,.82,.07,1.5,.07h3.06v-.42Zm2.73,1.8c.56,.72,.85,1.02,1.42,1.48,.64,.49,1.06,.74,1.99,1.16-.34,.38-.54,.68-.77,1.16-1.03-.58-1.5-.89-2.16-1.47-.6-.52-.92-.86-1.54-1.67l1.06-.66Z"/><path d="M146.34,167.53c.75,.92,1.51,1.28,3.41,1.63-.26,.46-.37,.73-.52,1.21-.98-.24-1.63-.49-2.33-.94-.64-.4-.98-.73-1.37-1.29-.37,.58-.76,.96-1.38,1.34-.72,.43-1.37,.67-2.37,.89-.16-.44-.29-.73-.56-1.17,1.05-.12,1.68-.3,2.31-.67,.47-.28,.79-.59,1.03-1h-1.78c-.48,0-.71,.01-1.08,.05v-1.2c.22,.04,.31,.04,.67,.05v-3.33q-.14,.11-.29,.22c-.14-.29-.22-.38-.42-.66-.14-.01-.31-.02-.46-.02h-.13v1.87c.25-.1,.4-.16,.77-.31v1.19c-.4,.17-.48,.2-.77,.32v3.38c0,.95-.3,1.16-1.61,1.16-.19,0-.34-.01-.68-.04-.04-.49-.1-.75-.26-1.21,.41,.05,.67,.07,.97,.07,.26,0,.32-.06,.32-.32v-2.59q-.96,.3-1.19,.4l-.18-1.31c.36-.04,.65-.11,1.37-.31v-2.3h-.44c-.25,0-.49,.01-.8,.05v-1.27c.3,.05,.52,.06,.82,.06h.43v-.97c0-.59-.02-.9-.07-1.24h1.39c-.05,.34-.06,.64-.06,1.22v.98h.12c.24,0,.41-.01,.62-.04v.59c.64-.5,1.13-1.02,1.5-1.59,.31-.48,.52-.9,.6-1.28l1.33,.14q-.06,.12-.18,.4s-.06,.11-.11,.2h1.42c.42,0,.64-.01,.88-.05l.64,.65c-.1,.12-.16,.22-.3,.44-.22,.34-.48,.71-.74,1.03h1.14c.5,0,.74-.01,1.03-.04-.02,.31-.04,.61-.04,1.16v3.35c.31-.01,.46-.02,.65-.05v1.21c-.32-.05-.64-.06-1.16-.06h-2.13Zm-1.44-1.1c.06-.37,.06-.4,.06-.85l1.24,.04q-.05,.46-.08,.82h1.74v-1.06c-.38,.01-.59,.02-.64,.02-1.01,0-1.29-.18-1.29-.77v-1.6h-.53c-.06,1.61-.32,2.24-1.2,3.01-.26-.28-.43-.43-.71-.64v1.02h1.42Zm-1.42-3.39v2.21c.43-.37,.58-.55,.71-.95,.13-.35,.17-.62,.19-1.26h-.9Zm1.97-1.08c.2-.23,.49-.62,.72-1h-1.81c-.25,.37-.44,.62-.75,1h1.85Zm2.4,1.08h-.92v1.08c0,.26,.05,.29,.5,.29,.1,0,.19,0,.42-.01v-1.36Z"/></g><g><path class="cls-4" d="M16.24,181.38c0-.25,0-.34,.02-.91-.22,.38-.42,.66-.74,1.04-.1-.27-.18-.43-.38-.74,.63-.65,1.12-1.39,1.47-2.28,.17-.41,.29-.81,.32-1.1l.77,.23c-.06,.17-.08,.23-.16,.46-.19,.55-.32,.85-.58,1.36v4.4c0,.37,.02,.66,.04,.96h-.8c.03-.29,.05-.54,.05-.98v-2.43Zm2.51-.74v2.87c0,.18,.05,.23,.25,.27,.21,.05,.49,.06,1.09,.06,.93,0,1.31-.04,1.49-.14,.17-.11,.24-.35,.29-1.06,.3,.14,.41,.17,.73,.23-.11,.88-.22,1.21-.46,1.38-.29,.21-.83,.27-2.25,.27-.58,0-1.05-.03-1.3-.1-.41-.1-.54-.27-.54-.67v-2.87c-.09,.03-.16,.06-.21,.06-.26,.09-.36,.13-.5,.19l-.08-.76c.2-.02,.5-.1,.74-.18l.05-.02v-1.01c0-.37-.02-.6-.05-.84h.8c-.03,.22-.05,.45-.05,.81v.81l.97-.32v-1.36c0-.3-.02-.53-.05-.78h.79c-.03,.24-.05,.44-.05,.77v1.14l1.2-.4c.32-.1,.48-.17,.65-.25q-.02,.22-.02,.4c-.02,.9-.08,2.05-.14,2.57-.08,.59-.26,.74-.84,.74-.14,0-.3,0-.48-.02-.03-.26-.07-.42-.18-.69,.22,.05,.44,.07,.6,.07,.2,0,.23-.07,.29-.63,.04-.37,.06-.91,.07-1.5l-1.14,.38v2.16c0,.32,0,.54,.05,.78h-.79c.03-.23,.05-.46,.05-.81v-1.9l-.97,.33Z"/><path class="cls-4" d="M26.53,182.17c-.46,1.06-.95,1.52-1.58,1.52-.85,0-1.47-.89-1.47-2.1,0-.86,.3-1.66,.86-2.28,.66-.72,1.58-1.1,2.69-1.1,1.86,0,3.09,1.14,3.09,2.87,0,1.34-.7,2.41-1.9,2.9-.38,.15-.69,.24-1.23,.34-.12-.37-.19-.5-.41-.78,.62-.1,.98-.18,1.33-.33,.86-.37,1.39-1.21,1.39-2.17,0-.83-.39-1.5-1.1-1.87-.27-.14-.49-.2-.86-.22-.14,1.19-.43,2.36-.82,3.22Zm-1.1-2.83c-.73,.49-1.17,1.34-1.17,2.25,0,.7,.3,1.25,.69,1.25,.29,0,.58-.35,.9-1.08,.31-.74,.58-1.85,.69-2.81-.44,.05-.75,.15-1.1,.38Z"/><path class="cls-4" d="M36.23,178.43s0-.09,0-.13c0-.51,.41-.93,.92-.93s.93,.42,.93,.93-.42,.93-.93,.93c-.09,0-.18-.02-.26-.04-.02,.04-.03,.1-.05,.17-.4,1.52-1.02,2.61-1.99,3.51-.72,.67-1.42,1.1-2.54,1.57-.18-.36-.27-.48-.58-.78,.71-.22,1.17-.44,1.77-.83,1.26-.83,2.05-1.98,2.46-3.61h-3.81c-.54,0-.75,.02-1.06,.06v-.9c.32,.05,.54,.06,1.08,.06h4.06Zm.38-.13c0,.3,.24,.54,.54,.54s.54-.25,.54-.54-.24-.54-.54-.54-.54,.25-.54,.54Z"/><path class="cls-4" d="M40.1,177.92c-.03,.23-.04,.4-.04,.95l-.03,4.49c.86-.15,1.6-.44,2.22-.84,.76-.5,1.27-1.06,1.7-1.87,.26,.36,.34,.46,.63,.69-.54,.82-1.05,1.35-1.73,1.82-.77,.52-1.61,.84-2.85,1.08-.24,.05-.34,.07-.46,.13l-.44-.54c.06-.18,.06-.3,.06-.7l.02-4.24v-.22c0-.39,0-.56-.03-.76h.95Z"/><path class="cls-4" d="M51.72,178.25c-.14,.12-.15,.13-.36,.34-.52,.55-1.17,1.11-1.84,1.59v3.22c0,.55,.02,.81,.05,1.06h-.95c.04-.3,.05-.47,.05-1.06v-2.69c-.98,.6-1.48,.82-2.94,1.33-.14-.34-.22-.46-.45-.77,1.54-.41,2.9-1.08,4.17-2.07,.72-.56,1.27-1.11,1.5-1.5l.77,.54Z"/><path class="cls-4" d="M59.18,178.97c-.07,.1-.09,.13-.21,.44-.21,.54-.59,1.16-1,1.62-.26,.3-.5,.5-.94,.85-.22-.24-.32-.31-.67-.53,.51-.33,.78-.55,1.09-.9,.27-.31,.45-.59,.61-.95t.02-.06s.02-.02,.02-.05c-.03,0-.04,0-.07,.02,0,0-.06,.02-.13,.02l-2.82,.48,.64,3.49c.1,.55,.14,.71,.23,1.01l-.9,.16c-.02-.3-.06-.6-.14-1.04l-.65-3.49-.96,.16c-.42,.07-.58,.1-.84,.18l-.14-.85c.31,0,.54-.03,.88-.09l.93-.15-.14-.81c-.07-.36-.1-.5-.18-.77l.9-.14c.02,.23,.03,.38,.11,.78l.14,.8,3.29-.54c.22-.04,.3-.06,.43-.13l.51,.46Z"/><path class="cls-4" d="M60.08,180.61c.3,.04,.64,.06,1.23,.06h4.33c.69,0,.88,0,1.19-.05v.93c-.35-.03-.61-.04-1.2-.04h-4.31c-.67,0-.91,0-1.24,.04v-.94Z"/><path class="cls-4" d="M70.01,178.6c.22-.5,.32-.78,.34-1.03l.88,.11c-.05,.07-.06,.1-.1,.18q-.09,.21-.25,.58s-.05,.1-.06,.14t.06,0h.04s.18,0,.4-.02c.86-.03,1.7-.14,2.13-.27l.05,.76q-.18,.02-.62,.07c-.56,.07-1.59,.14-2.38,.16-.28,.54-.53,.9-.86,1.25v.02q.06-.05,.18-.13c.35-.27,.78-.42,1.21-.42,.3,0,.59,.1,.78,.26,.18,.15,.27,.32,.33,.61,.65-.24,1.08-.4,1.3-.47,.41-.14,.44-.15,.57-.23l.33,.77c-.45,.08-.98,.25-2.1,.66q0,.29,0,.43v.38c0,.14,0,.22,0,.28,0,.15,0,.27,.02,.39l-.78,.02c.02-.16,.05-.61,.05-1.04v-.19c-.98,.45-1.34,.77-1.34,1.19,0,.48,.42,.66,1.54,.66,.84,0,1.71-.13,2.21-.33l.08,.86c-.14,0-.18,0-.35,.04-.59,.09-1.34,.14-1.99,.14-.81,0-1.33-.1-1.73-.32-.35-.2-.56-.56-.56-.98,0-.74,.66-1.38,2.05-1.97-.04-.34-.22-.51-.54-.51-.48,0-1.07,.29-1.7,.83-.32,.27-.5,.47-.66,.7l-.62-.62c.38-.28,.86-.83,1.29-1.46,.1-.15,.26-.42,.5-.81h-.91c-.2-.02-.35-.02-.46-.02h-.05s-.06,0-.12,0l.02-.76c.4,.07,.83,.1,1.56,.1h.29Z"/><path class="cls-4" d="M76.39,178.25c0-.34-.02-.57-.05-.81h.82c-.03,.24-.05,.46-.05,.8v.72h.22c.22,0,.41,0,.62-.04v.72c-.24-.02-.41-.03-.63-.03h-.22v1.42q.24-.08,.86-.28l.02,.65c-.38,.15-.5,.2-.87,.32v2.32c0,.51-.23,.66-.99,.66-.22,0-.35,0-.64-.02-.02-.31-.06-.46-.15-.73,.34,.06,.57,.08,.81,.08,.21,0,.26-.05,.26-.22v-1.88q-.27,.08-.48,.14s-.17,.05-.36,.1c-.05,.02-.09,.03-.18,.06l-.14-.78q.27-.02,1.15-.23v-1.61h-.45c-.22,0-.4,0-.63,.04v-.74c.2,.03,.4,.05,.63,.05h.45v-.71Zm2.59,.17c1.24-.18,2.27-.49,2.71-.78l.54,.62c-1.16,.39-2.04,.6-3.25,.75v.46c0,.29,.12,.32,1.39,.32s1.34-.02,1.38-.96c.25,.12,.46,.18,.7,.23-.08,.73-.18,.99-.44,1.16-.27,.17-.63,.21-2.01,.21-.66,0-1.17-.05-1.35-.12-.28-.11-.38-.28-.38-.62v-1.46c0-.34,0-.54-.04-.77h.79c-.02,.2-.04,.42-.04,.74v.22Zm-.7,3.18c0-.31,0-.5-.02-.66,.2,.02,.37,.03,.71,.03h2.33c.37,0,.52,0,.72-.03-.02,.17-.03,.36-.03,.67v2.33c0,.43,0,.6,.04,.81h-.74v-.39h-2.31v.4h-.74c.03-.22,.04-.39,.04-.79v-2.37Zm.7,.74h2.31v-.74h-2.31v.74Zm0,1.4h2.31v-.78h-2.31v.78Z"/><path class="cls-4" d="M86.58,180.42h-1.27c-.36,0-.57,0-.81,.04v-.73c.21,.02,.45,.04,.81,.04h3.16c.36,0,.6-.02,.81-.04v.73c-.21-.02-.44-.04-.81-.04h-1.19v1.13h1.53c.35,0,.57-.02,.78-.05v.73c-.24-.03-.44-.04-.78-.04h-1.53v1.54c.34,.05,.81,.08,1.29,.08,.55,0,1.1-.02,1.86-.09-.12,.27-.17,.45-.21,.77-.58,.02-.94,.02-1.5,.02-1.22,0-2.09-.15-2.69-.47-.46-.24-.79-.56-1.05-.98-.32,.68-.6,1.09-1.14,1.67-.18-.25-.27-.33-.58-.54,.55-.53,.83-.9,1.1-1.5,.25-.54,.44-1.29,.44-1.7l.76,.14q-.03,.13-.1,.46c-.03,.12-.12,.46-.22,.76,.2,.37,.29,.5,.51,.7,.24,.22,.47,.37,.82,.5v-3.13Zm-.13-2.45c0-.19,0-.31-.05-.5h.84c-.03,.18-.05,.3-.05,.5v.34h2.21c.31,0,.57,0,.86-.03-.02,.18-.03,.35-.03,.57v.58c0,.24,0,.42,.03,.61h-.73v-1.06h-5.33v1.06h-.74c.02-.2,.03-.34,.03-.61v-.58c0-.2,0-.41-.03-.57,.3,.02,.54,.03,.85,.03h2.13v-.34Z"/><path class="cls-4" d="M92.99,177.83c-.04,.22-.06,.45-.09,1.03-.03,.69-.08,2.46-.08,3,0,.74,.05,1.04,.22,1.29,.19,.29,.59,.45,1.13,.45,.88,0,1.59-.5,2-1.38,.18-.4,.28-.74,.38-1.31,.35,.3,.48,.38,.81,.53-.32,1.03-.55,1.53-.92,1.95-.59,.67-1.37,1.01-2.33,1.01-.55,0-1.05-.13-1.37-.35-.52-.37-.74-.94-.74-1.97,0-.46,0-.9,.06-3.24,0-.25,0-.4,0-.54,0-.19,0-.3-.03-.48l.95,.02Z"/><path class="cls-4" d="M98.78,182.39c.71,.55,1.13,.98,1.72,1.74l-.66,.61c-.56-.78-1.02-1.26-1.67-1.79l.61-.55Z"/><path class="cls-4" d="M16.62,187.65c.26,.03,.41,.04,.76,.04,.79,0,1.9-.05,2.5-.11,.22-.02,.4-.06,.53-.1l.44,.56c-.15,.11-.2,.15-.43,.37-.65,.62-1.54,1.31-2.35,1.86,.38-.05,.93-.1,1.92-.19,.52-.04,.94-.07,1.2-.1,.31-.03,.54-.05,.63-.06,.12-.02,.15-.02,.26-.04l.06,.78c-.08,0-.14,0-.18,0-.86,0-1.65,.15-2.25,.42-.38,.18-.72,.43-.93,.7-.17,.22-.23,.38-.23,.6,0,.58,.62,.9,1.74,.9,.27,0,.46-.02,.67-.06l.03,.86c-.12,0-.18-.02-.24-.02h-.47c-.78,0-1.55-.18-1.94-.46-.38-.27-.59-.66-.59-1.1s.22-.87,.66-1.25c.21-.18,.39-.3,.78-.5-.44,.08-.62,.1-1.6,.22-1.26,.15-1.85,.24-2.14,.32l-.08-.82h.16c.24,0,.9-.07,1.37-.15,.74-.45,1.96-1.42,2.64-2.11-.55,.1-.97,.13-2.34,.19-.22,0-.35,.02-.5,.04l-.05-.79Z"/><path class="cls-4" d="M26.04,191.77c-.46,1.06-.95,1.52-1.58,1.52-.85,0-1.47-.89-1.47-2.1,0-.86,.3-1.66,.86-2.28,.66-.72,1.58-1.09,2.69-1.09,1.86,0,3.09,1.14,3.09,2.87,0,1.33-.7,2.41-1.9,2.9-.38,.15-.69,.24-1.23,.34-.12-.37-.19-.5-.41-.78,.62-.1,.98-.18,1.33-.33,.86-.37,1.39-1.21,1.39-2.17,0-.83-.39-1.5-1.1-1.87-.27-.14-.49-.2-.86-.22-.14,1.19-.43,2.36-.82,3.22Zm-1.1-2.83c-.73,.49-1.17,1.34-1.17,2.25,0,.7,.3,1.25,.69,1.25,.29,0,.58-.35,.9-1.08,.31-.74,.58-1.86,.69-2.81-.44,.05-.75,.15-1.1,.38Z"/><path class="cls-4" d="M35.73,188.03s0-.09,0-.13c0-.51,.41-.93,.92-.93s.93,.42,.93,.93-.42,.93-.93,.93c-.09,0-.18-.02-.26-.04-.02,.04-.03,.1-.05,.17-.4,1.52-1.02,2.61-1.99,3.51-.72,.67-1.42,1.1-2.54,1.57-.18-.36-.27-.48-.58-.78,.71-.22,1.18-.44,1.78-.83,1.26-.83,2.05-1.98,2.46-3.61h-3.81c-.54,0-.75,.02-1.06,.06v-.9c.32,.05,.54,.06,1.08,.06h4.06Zm.38-.13c0,.3,.24,.54,.54,.54s.54-.25,.54-.54-.24-.54-.54-.54-.54,.25-.54,.54Z"/><path class="cls-4" d="M39.61,187.52c-.03,.23-.04,.4-.04,.95l-.03,4.49c.86-.15,1.6-.44,2.22-.84,.76-.5,1.27-1.06,1.7-1.87,.26,.36,.34,.46,.63,.69-.54,.82-1.05,1.35-1.73,1.81-.77,.52-1.61,.84-2.85,1.08-.24,.05-.34,.07-.46,.13l-.44-.54c.06-.18,.06-.3,.06-.7l.02-4.24v-.22c0-.39,0-.56-.03-.76h.95Z"/><path class="cls-4" d="M51.23,187.85c-.14,.12-.15,.13-.36,.34-.52,.55-1.17,1.11-1.84,1.59v3.22c0,.55,.02,.81,.05,1.06h-.95c.04-.3,.05-.47,.05-1.06v-2.69c-.98,.6-1.48,.82-2.94,1.34-.14-.34-.22-.46-.45-.77,1.54-.41,2.9-1.08,4.17-2.07,.72-.56,1.27-1.11,1.5-1.5l.77,.54Z"/><path class="cls-4" d="M58.68,188.57c-.07,.1-.09,.13-.21,.44-.21,.54-.59,1.16-1,1.62-.26,.3-.5,.5-.94,.85-.22-.24-.32-.31-.67-.53,.51-.33,.78-.55,1.09-.9,.27-.31,.45-.59,.61-.95t.02-.06s.02-.02,.02-.05c-.03,0-.04,0-.07,.02,0,0-.06,.02-.13,.02l-2.82,.48,.64,3.49c.1,.55,.14,.71,.23,1.01l-.9,.16c-.02-.3-.06-.6-.14-1.04l-.65-3.49-.96,.16c-.42,.07-.58,.1-.84,.18l-.14-.85c.31,0,.54-.03,.88-.09l.93-.15-.14-.81c-.07-.36-.1-.5-.18-.77l.9-.14c.02,.23,.03,.38,.11,.78l.14,.8,3.29-.54c.22-.04,.3-.06,.43-.13l.51,.46Z"/><path class="cls-4" d="M59.58,190.21c.3,.04,.64,.06,1.23,.06h4.33c.69,0,.88,0,1.19-.05v.93c-.35-.03-.61-.04-1.2-.04h-4.31c-.67,0-.91,0-1.24,.04v-.94Z"/><path class="cls-4" d="M70.49,191.77c-.46,1.06-.95,1.52-1.58,1.52-.85,0-1.47-.89-1.47-2.1,0-.86,.3-1.66,.86-2.28,.66-.72,1.58-1.09,2.69-1.09,1.86,0,3.09,1.14,3.09,2.87,0,1.33-.7,2.41-1.9,2.9-.38,.15-.69,.24-1.23,.34-.12-.37-.19-.5-.41-.78,.62-.1,.98-.18,1.33-.33,.86-.37,1.39-1.21,1.39-2.17,0-.83-.39-1.5-1.1-1.87-.27-.14-.49-.2-.86-.22-.14,1.19-.43,2.36-.82,3.22Zm-1.1-2.83c-.73,.49-1.18,1.34-1.18,2.25,0,.7,.3,1.25,.69,1.25,.29,0,.58-.35,.9-1.08,.31-.74,.58-1.86,.69-2.81-.44,.05-.75,.15-1.1,.38Z"/><path class="cls-4" d="M78.28,188.29q-.16,.02-.6,.06c-.41,.05-1.22,.09-1.95,.11-.06-.29-.1-.38-.26-.7h.3c1.09,0,2.57-.12,3.55-.29,.77-.14,1.18-.25,1.58-.42l.56,.66c-1.09,.28-1.7,.4-2.42,.49v1.16h1.77c.42,0,.69-.02,.94-.05v.77c-.25-.03-.54-.05-.93-.05h-1.78v1.08h2.13c.42,0,.68-.02,.93-.05v.77c-.27-.03-.52-.05-.93-.05h-2.13v1.68c0,.57-.23,.74-.98,.74-.34,0-.84-.02-1.23-.06-.03-.3-.07-.45-.2-.74,.46,.08,1.01,.13,1.37,.13,.22,0,.3-.06,.3-.25v-1.5h-2.33c-.4,0-.66,.02-.92,.05v-.77c.25,.03,.5,.05,.92,.05h2.33v-1.08h-1.89c-.34,0-.66,.02-.94,.05v-.77c.25,.03,.51,.05,.94,.05h1.89v-1.07Z"/><path class="cls-4" d="M85.91,188.59c.27,0,.41,0,.62-.04v.73c-.2-.03-.34-.04-.6-.04h-.66c.35,.82,.78,1.42,1.37,1.94-.16,.22-.25,.4-.37,.73-.54-.64-.76-.99-1.08-1.74,.02,.3,.02,.46,.02,.57q0,.39,.02,.86v1.98c0,.36,0,.59,.05,.82h-.82c.03-.22,.05-.47,.05-.82v-1.88c0-.3,.02-1.13,.05-1.45-.34,1.01-.7,1.7-1.28,2.41-.11-.27-.22-.46-.42-.71,.42-.42,.72-.86,1.07-1.55,.17-.34,.3-.66,.46-1.16h-.7c-.26,0-.38,0-.54,.04v-.73c.16,.03,.3,.04,.59,.04h.75v-.82c0-.3,0-.48-.05-.7h.83c-.04,.22-.05,.4-.05,.71v.82h.68Zm1.96-1.49c-.03,.26-.05,.58-.05,.88v5.23c0,.22,.11,.26,.78,.26,.42,0,.62-.04,.71-.14,.12-.16,.15-.5,.17-1.61,.27,.14,.45,.2,.74,.26-.04,1.14-.12,1.62-.34,1.89-.2,.26-.54,.33-1.47,.33-.46,0-.84-.04-.99-.1-.26-.11-.35-.26-.35-.59v-5.52c0-.3-.02-.61-.06-.88h.86Z"/><path class="cls-4" d="M91,189.24c.29,0,1.05-.09,1.73-.18,.14-.75,.22-1.37,.22-1.63,0-.03,0-.08,0-.14l.88,.09c-.02,.1-.04,.16-.06,.26q-.03,.15-.06,.28t-.14,.78c-.03,.18-.03,.2-.06,.31,.22-.02,.34-.02,.52-.02,.5,0,.88,.13,1.13,.38,.28,.29,.38,.66,.38,1.37,0,1.33-.22,2.41-.58,2.85-.22,.26-.45,.36-.85,.36-.33,0-.69-.08-1.22-.27,0-.13,.02-.23,.02-.3,0-.14-.02-.27-.06-.55,.43,.21,.9,.34,1.17,.34,.26,0,.4-.18,.53-.62,.13-.42,.21-1.18,.21-1.88,0-.74-.22-.99-.88-.99-.17,0-.3,0-.51,.03-.32,1.33-.63,2.23-1.13,3.29-.06,.13-.24,.48-.53,1.06l-.78-.44c.24-.3,.56-.88,.83-1.48,.35-.78,.54-1.31,.82-2.38-.62,.09-1.2,.19-1.51,.27l-.08-.79Zm5.45-.77c.81,.92,1.3,1.81,1.66,3l-.75,.39c-.15-.65-.34-1.15-.66-1.74-.3-.56-.55-.91-.93-1.31l.67-.34Z"/><path class="cls-4" d="M100.38,188.81c-.11,.44-.23,1.1-.37,2.05-.02,.14-.02,.18-.06,.28,.5-.5,1.51-.83,2.51-.83,1.34,0,2.2,.64,2.2,1.62,0,.58-.3,1.14-.79,1.48-.53,.36-1.18,.53-2.06,.53-.69,0-1.11-.06-2.03-.29,0-.4-.02-.54-.09-.86,.72,.26,1.43,.4,2.1,.4,1.18,0,2.01-.5,2.01-1.24,0-.58-.54-.93-1.43-.93-.99,0-2.01,.4-2.43,.96l-.86-.02c.02-.14,.02-.18,.06-.47,.08-.58,.18-1.3,.34-2.28,.03-.18,.04-.28,.06-.45l.83,.05Zm.21-1.49c.52,.3,2.01,.75,2.87,.89l-.28,.76c-1.42-.34-2.05-.55-2.98-.98l.39-.66Z"/><path class="cls-4" d="M107.15,187.53c.22,.04,.39,.05,.74,.05h.64c.35,0,.47,0,.75-.04-.05,.49-.06,.86-.06,1.33v3.98c0,.4,.02,.66,.06,.98h-1.03c.05-.3,.06-.59,.06-.98v-4.5h-.4c-.27,0-.5,.02-.77,.05v-.86Z"/><path class="cls-4" d="M114.3,189.2c.28,.7,.52,1.06,1.06,1.61-.17,.18-.29,.37-.42,.64-.34-.46-.51-.76-.7-1.26,.02,.42,.04,.7,.04,1.02v2.38c0,.36,0,.6,.05,.82h-.79c.03-.22,.05-.47,.05-.82v-1.77c0-.54,0-.85,.03-1.35-.28,.95-.54,1.54-.96,2.17-.14-.28-.26-.44-.45-.65,.59-.75,1.08-1.81,1.3-2.8h-.32c-.28,0-.47,0-.65,.04v-.72c.2,.03,.37,.04,.66,.04h.37v-.82c0-.3,0-.49-.05-.7h.8c-.03,.22-.04,.4-.04,.71v.81h.38c.26,0,.42,0,.64-.04v.71c-.22-.02-.41-.03-.62-.03h-.38Zm5.32-.05c-.2-.02-.4-.04-.78-.04-.09,.7-.16,1.05-.33,1.58-.18,.59-.38,1.01-.69,1.49,.53,.62,1.08,1.02,1.94,1.43-.15,.18-.27,.4-.41,.72-.93-.55-1.37-.9-1.97-1.57-.57,.66-1.18,1.1-2.2,1.58-.13-.27-.25-.46-.43-.66,.56-.22,.86-.37,1.24-.63,.37-.26,.68-.54,.96-.86-.44-.66-.76-1.34-.96-2.05-.16,.26-.22,.37-.43,.65-.15-.22-.26-.34-.51-.56,.38-.46,.66-.99,.91-1.67,.18-.5,.34-1.16,.35-1.52l.78,.14c-.04,.11-.07,.21-.14,.46-.06,.23-.15,.57-.23,.82h2.02c.4,0,.64-.02,.86-.05v.74Zm-3.12-.04c-.04,.09-.05,.11-.09,.2,.2,.88,.47,1.52,.97,2.28,.42-.74,.62-1.38,.76-2.48h-1.65Z"/><path class="cls-4" d="M120.38,190.15c.21,.03,.34,.04,.63,.04h.5c.26,0,.39,0,.6-.03-.02,.26-.03,.38-.03,.86v1.66c.18,.34,.33,.5,.59,.62,.37,.18,.84,.24,1.76,.24,1.55,0,2.33-.04,3.35-.18-.14,.34-.15,.41-.22,.78-.74,.03-1.7,.05-2.65,.05-1.29,0-1.72-.03-2.13-.16-.45-.14-.76-.38-1.06-.79-.33,.32-.48,.46-.77,.69-.2,.15-.25,.2-.38,.32l-.34-.76c.32-.14,.66-.39,1.15-.85v-1.81h-.44c-.24,0-.35,0-.56,.04v-.73Zm.62-2.93c.56,.53,.81,.79,1.21,1.29l-.56,.54c-.42-.6-.62-.83-1.18-1.34l.53-.49Zm2.37,3.79c-.38,0-.55,0-.75,.03v-.6c.19,.02,.34,.03,.75,.03h.23c0-.22-.02-.29-.04-.45h.74c-.02,.14-.03,.23-.04,.45h1.18c0-.19-.02-.3-.04-.45h.74c-.02,.15-.03,.25-.04,.45h.47c.39,0,.54,0,.74-.03v.6c-.21-.02-.38-.03-.75-.03h-.46v.6h.67c.42,0,.58,0,.78-.03v.62c-.18-.02-.38-.03-.78-.03h-.98c.53,.36,.9,.52,1.62,.7-.21,.21-.31,.34-.45,.59-.74-.26-1.22-.52-1.74-.95l.5-.34h-1.7l.5,.32c-.58,.51-.83,.68-1.45,.94-.11-.18-.25-.34-.49-.52,.62-.22,.95-.4,1.34-.74h-.96c-.32,0-.49,0-.66,.04v-.63c.19,.03,.33,.04,.66,.04h.63v-.6h-.23Zm1.29-2.66c0,.19,0,.32,.02,.43-.2-.02-.31-.02-.51-.02h-1.1v.35c0,.18,.04,.2,.44,.2,.46,0,.6-.02,.66-.08,.04-.05,.06-.14,.08-.39,.18,.12,.34,.18,.55,.23-.05,.44-.12,.6-.31,.69-.13,.06-.39,.09-.98,.09-.92,0-1.05-.06-1.05-.5v-.65c0-.21,0-.34-.02-.46,.14,.02,.27,.02,.54,.02h1.05v-.44h-1c-.31,0-.45,0-.65,.03v-.6c.18,.02,.4,.03,.66,.03h.94c.38,0,.56,0,.71-.02-.02,.13-.02,.21-.02,.43v.66Zm-.39,3.25h1.18v-.6h-1.18v.6Zm3.05-3.25c0,.19,0,.32,.02,.43-.2-.02-.31-.02-.51-.02h-1.09v.35c0,.12,.02,.14,.09,.18,.06,.02,.2,.03,.39,.03,.72,0,.73,0,.76-.48,.21,.12,.35,.18,.58,.23-.1,.74-.17,.78-1.33,.78-.55,0-.75-.02-.89-.07-.17-.07-.23-.19-.23-.44v-.61c0-.1,0-.26-.02-.49,.14,.02,.27,.02,.54,.02h1.05v-.44h-.97c-.31,0-.45,0-.65,.03v-.6c.18,.02,.4,.03,.65,.03h.94c.37,0,.54,0,.7-.02-.02,.11-.02,.21-.02,.43v.66Z"/><path class="cls-4" d="M128.5,187.87c.14,.02,.21,.02,.38,.02,.95,0,1.86-.1,2.21-.25l.44,.71c-.4,.26-.62,.46-.96,.86-.7,.83-1.06,1.67-1.06,2.45,0,.9,.59,1.52,1.45,1.52,.67,0,1.27-.4,1.54-1.03,.2-.49,.29-1,.29-1.7,0-.9-.18-1.91-.46-2.5l.81-.25c.14,.43,.4,.97,.71,1.45,.34,.5,.66,.86,1.14,1.27,.14,.11,.18,.15,.3,.21l-.42,.79-.18-.17c-.57-.48-.9-.92-1.42-1.8,.18,.62,.22,1,.22,1.54,0,.8-.19,1.5-.55,2-.46,.64-1.18,1.01-1.98,1.01-.47,0-.95-.14-1.3-.36-.6-.4-.98-1.14-.98-1.97s.3-1.64,.83-2.36c.21-.28,.46-.58,.67-.75l.17-.15c-.39,.1-.82,.17-1.63,.22-.13,.02-.15,.02-.23,.02l-.02-.79Zm5.47-.69c.38,.42,.55,.68,.83,1.2l-.5,.27c-.26-.5-.49-.83-.83-1.22l.5-.25Zm.94-.46c.38,.42,.55,.66,.82,1.17l-.49,.28c-.25-.46-.47-.8-.82-1.2l.48-.25Z"/><path class="cls-4" d="M136.32,191.99c.71,.55,1.13,.98,1.72,1.74l-.66,.61c-.56-.78-1.02-1.26-1.67-1.79l.61-.55Z"/><path class="cls-4" d="M16.62,197.25c.26,.03,.41,.04,.76,.04,.79,0,1.9-.05,2.5-.11,.22-.02,.4-.06,.53-.1l.44,.56c-.15,.11-.2,.15-.43,.37-.65,.62-1.54,1.31-2.35,1.86,.38-.05,.93-.1,1.92-.19,.52-.04,.94-.07,1.2-.1,.31-.03,.54-.05,.63-.06,.12-.02,.15-.02,.26-.04l.06,.78c-.08,0-.14,0-.18,0-.86,0-1.65,.15-2.25,.42-.38,.18-.72,.43-.93,.7-.17,.22-.23,.38-.23,.6,0,.58,.62,.9,1.74,.9,.27,0,.46-.02,.67-.06l.03,.86c-.12,0-.18-.02-.24-.02h-.47c-.78,0-1.55-.18-1.94-.46-.38-.27-.59-.66-.59-1.1s.22-.87,.66-1.25c.21-.18,.39-.3,.78-.5-.44,.08-.62,.1-1.6,.22-1.26,.15-1.85,.24-2.14,.32l-.08-.82h.16c.24,0,.9-.07,1.37-.15,.74-.45,1.96-1.42,2.64-2.11-.55,.1-.97,.13-2.34,.19-.22,0-.35,.02-.5,.04l-.05-.79Z"/><path class="cls-4" d="M26.04,201.37c-.46,1.06-.95,1.52-1.58,1.52-.85,0-1.47-.89-1.47-2.1,0-.86,.3-1.66,.86-2.28,.66-.72,1.58-1.1,2.69-1.1,1.86,0,3.09,1.14,3.09,2.87,0,1.34-.7,2.41-1.9,2.9-.38,.15-.69,.24-1.23,.34-.12-.37-.19-.5-.41-.78,.62-.1,.98-.18,1.33-.33,.86-.37,1.39-1.21,1.39-2.17,0-.83-.39-1.5-1.1-1.87-.27-.14-.49-.2-.86-.22-.14,1.19-.43,2.36-.82,3.22Zm-1.1-2.83c-.73,.49-1.17,1.34-1.17,2.25,0,.7,.3,1.25,.69,1.25,.29,0,.58-.35,.9-1.08,.31-.74,.58-1.85,.69-2.81-.44,.05-.75,.15-1.1,.38Z"/><path class="cls-4" d="M33.12,198.42c.03-.38,.05-.8,.05-1.14,0-.2,0-.26-.02-.42l.9,.02c-.03,.17-.03,.22-.07,1,0,.14,0,.24-.03,.54h1.86c.36-.02,.42-.02,.59-.08l.39,.35c-.06,.13-.07,.22-.08,.5-.05,1.76-.19,3.04-.41,3.61-.2,.51-.5,.7-1.12,.7-.3,0-.57-.03-1-.11,0-.41-.02-.54-.14-.85,.46,.14,.78,.2,1.05,.2,.36,0,.48-.18,.62-.92,.11-.58,.19-1.68,.19-2.68h-2.01c-.06,.57-.07,.62-.14,.91-.22,1.03-.65,1.83-1.36,2.57-.41,.42-.74,.69-1.28,1.02-.22-.34-.31-.44-.59-.69,.98-.52,1.65-1.18,2.08-2.05,.26-.53,.35-.88,.46-1.74h-1.38c-.5,0-.58,0-.86,.05v-.83c.27,.05,.46,.06,.86,.06h1.44Z"/><path class="cls-4" d="M38.12,199.81c.3,.04,.64,.06,1.23,.06h4.33c.69,0,.88,0,1.19-.05v.93c-.35-.03-.61-.04-1.2-.04h-4.31c-.67,0-.91,0-1.24,.04v-.94Z"/><path class="cls-4" d="M46.83,203.66c.04-.34,.05-.54,.05-1.02v-4.77c0-.55,0-.73-.05-.95h.95c-.04,.26-.05,.53-.05,.98v1.35c1.13,.4,2.26,.93,3.6,1.69l-.47,.79c-.35-.24-.57-.38-.98-.61-.61-.33-1.48-.76-1.92-.94q-.13-.06-.26-.14l.02,.31c0,.07,0,.32,0,.4v1.9c0,.42,.02,.72,.05,1.02h-.94Zm3.37-6.36c.38,.42,.55,.68,.83,1.2l-.5,.27c-.26-.5-.49-.83-.83-1.22l.5-.25Zm.94-.46c.38,.42,.55,.66,.82,1.17l-.49,.28c-.25-.46-.47-.8-.82-1.2l.48-.25Z"/><path class="cls-4" d="M54.85,196.84c.03,.54,.3,1.76,.56,2.57,.38-.15,.63-.24,1.04-.38l1.07-.36c.14-.05,.18-.06,.3-.12l.3,.84c-.65,.13-1.69,.45-2.55,.78-1.22,.47-1.83,1.01-1.83,1.62,0,.39,.25,.65,.75,.78,.26,.06,.75,.1,1.26,.1,.93,0,1.87-.12,2.42-.3l.07,.92c-.17,0-.19,0-.62,.06-.85,.09-1.26,.11-1.83,.11-1.07,0-1.74-.12-2.23-.41-.43-.26-.68-.72-.68-1.28,0-.5,.26-1.01,.71-1.38,.31-.26,.56-.42,1.07-.68-.22-.65-.34-1.13-.56-2.19-.08-.39-.08-.4-.13-.52l.87-.14Z"/><path class="cls-4" d="M61.82,197.65c.19-.36,.3-.68,.39-1.08l.83,.1c-.15,.41-.27,.68-.42,.98h1.89c.45,0,.69,0,.97-.04-.03,.27-.04,.49-.04,.98v4.39c0,.48,0,.69,.05,.93h-.78v-.43h-4.05v.43h-.77c.03-.21,.05-.51,.05-.93v-4.39c0-.47,0-.7-.04-.98,.29,.03,.51,.04,.97,.04h.95Zm-1.16,1.69h4.06v-1.02h-4.06v1.02Zm0,1.7h4.06v-1.04h-4.06v1.04Zm0,1.77h4.06v-1.11h-4.06v1.11Z"/><path class="cls-4" d="M68.92,200.13c-.28,0-.52,.02-.74,.04v-.65c-.37,.39-.62,.62-1.06,.94-.13-.22-.29-.42-.53-.64,.98-.66,1.66-1.4,2.13-2.31,.19-.36,.28-.6,.32-.82l.82,.3c-.07,.1-.12,.19-.22,.41-.35,.75-.76,1.36-1.37,2.03,.18,.02,.4,.03,.65,.03h2.81c.32,0,.5,0,.74-.02-.59-.63-1.06-1.32-1.43-2.09-.04-.08-.13-.25-.18-.34l.75-.29c.06,.2,.13,.38,.3,.69,.55,.98,1.26,1.73,2.27,2.38-.19,.2-.33,.38-.51,.71-.48-.36-.75-.59-1.11-.96q0,.14-.02,.5c-.02,1.74-.14,2.91-.34,3.32-.16,.3-.42,.41-1.01,.41-.2,0-.36,0-.92-.04-.03-.3-.08-.46-.19-.79,.42,.07,.78,.11,1.03,.11,.3,0,.38-.04,.45-.2,.09-.26,.14-.65,.19-1.3,.03-.4,.05-.82,.05-1.14v-.26h-1.67c-.06,.86-.24,1.43-.62,2.06-.44,.73-1.09,1.29-2.03,1.76-.13-.26-.24-.4-.48-.65,.49-.2,.83-.41,1.23-.76,.58-.5,.95-1.15,1.1-1.92,.02-.15,.04-.23,.06-.5h-.46Z"/><path class="cls-4" d="M77.92,201.37c-.46,1.06-.95,1.52-1.58,1.52-.85,0-1.47-.89-1.47-2.1,0-.86,.3-1.66,.86-2.28,.66-.72,1.58-1.1,2.69-1.1,1.86,0,3.09,1.14,3.09,2.87,0,1.34-.7,2.41-1.9,2.9-.38,.15-.69,.24-1.23,.34-.12-.37-.19-.5-.41-.78,.62-.1,.98-.18,1.33-.33,.86-.37,1.39-1.21,1.39-2.17,0-.83-.39-1.5-1.1-1.87-.27-.14-.49-.2-.86-.22-.14,1.19-.43,2.36-.82,3.22Zm-1.1-2.83c-.73,.49-1.18,1.34-1.18,2.25,0,.7,.3,1.25,.69,1.25,.29,0,.58-.35,.9-1.08,.31-.74,.58-1.85,.69-2.81-.44,.05-.75,.15-1.1,.38Z"/><path class="cls-4" d="M85.7,197.89q-.16,.02-.6,.06c-.41,.05-1.22,.09-1.95,.11-.06-.29-.1-.38-.26-.7h.3c1.09,0,2.57-.12,3.55-.29,.77-.14,1.18-.25,1.58-.42l.56,.66c-1.09,.28-1.7,.4-2.42,.49v1.16h1.77c.42,0,.69-.02,.94-.05v.77c-.25-.03-.54-.05-.93-.05h-1.78v1.08h2.13c.42,0,.68-.02,.93-.05v.77c-.27-.03-.52-.05-.93-.05h-2.13v1.68c0,.57-.23,.74-.98,.74-.34,0-.84-.02-1.23-.06-.03-.3-.07-.45-.2-.74,.46,.08,1.01,.13,1.37,.13,.22,0,.3-.06,.3-.25v-1.5h-2.33c-.4,0-.66,.02-.92,.05v-.77c.25,.03,.5,.05,.92,.05h2.33v-1.08h-1.89c-.34,0-.66,.02-.94,.05v-.77c.25,.03,.51,.05,.94,.05h1.89v-1.07Z"/><path class="cls-4" d="M93.33,198.19c.27,0,.41,0,.62-.04v.73c-.2-.03-.34-.04-.6-.04h-.66c.35,.82,.78,1.42,1.37,1.94-.16,.22-.25,.4-.37,.73-.54-.64-.76-.99-1.08-1.74,.02,.3,.02,.46,.02,.57q0,.39,.02,.86v1.98c0,.36,0,.59,.05,.82h-.82c.03-.22,.05-.47,.05-.82v-1.88c0-.3,.02-1.13,.05-1.45-.34,1.01-.7,1.7-1.28,2.41-.11-.27-.22-.46-.42-.71,.42-.42,.72-.86,1.07-1.55,.17-.34,.3-.66,.46-1.16h-.7c-.26,0-.38,0-.54,.04v-.73c.16,.03,.3,.04,.59,.04h.75v-.82c0-.3,0-.48-.05-.7h.83c-.04,.22-.05,.4-.05,.71v.82h.68Zm1.96-1.49c-.03,.26-.05,.58-.05,.88v5.23c0,.22,.11,.26,.78,.26,.42,0,.62-.04,.71-.14,.12-.16,.15-.5,.17-1.61,.27,.14,.45,.2,.74,.26-.04,1.13-.12,1.62-.34,1.89-.2,.26-.54,.33-1.47,.33-.46,0-.84-.04-.99-.1-.26-.11-.35-.26-.35-.59v-5.52c0-.3-.02-.61-.06-.88h.86Z"/><path class="cls-4" d="M98.42,198.84c.29,0,1.05-.09,1.73-.18,.14-.75,.22-1.37,.22-1.63,0-.03,0-.08,0-.14l.88,.09c-.02,.1-.04,.16-.06,.26q-.03,.15-.06,.28t-.14,.78c-.03,.18-.03,.2-.06,.31,.22-.02,.34-.02,.52-.02,.5,0,.88,.13,1.13,.38,.28,.29,.38,.66,.38,1.37,0,1.33-.22,2.41-.58,2.85-.22,.26-.45,.36-.85,.36-.33,0-.69-.08-1.22-.27,0-.13,.02-.23,.02-.3,0-.14-.02-.27-.06-.55,.43,.21,.9,.34,1.17,.34,.26,0,.4-.18,.53-.62,.13-.42,.21-1.18,.21-1.88,0-.74-.22-.99-.88-.99-.17,0-.3,0-.51,.03-.32,1.33-.63,2.23-1.13,3.29-.06,.13-.24,.48-.53,1.06l-.78-.44c.24-.3,.56-.88,.83-1.48,.35-.78,.54-1.31,.82-2.37-.62,.09-1.2,.19-1.51,.27l-.08-.79Zm5.45-.77c.81,.92,1.3,1.81,1.66,3l-.75,.39c-.15-.65-.34-1.15-.66-1.74-.3-.56-.55-.91-.93-1.31l.67-.34Z"/><path class="cls-4" d="M107.81,198.41c-.11,.44-.23,1.1-.37,2.05-.02,.14-.02,.18-.06,.28,.5-.5,1.51-.83,2.51-.83,1.33,0,2.2,.64,2.2,1.62,0,.58-.3,1.14-.79,1.48-.53,.36-1.18,.53-2.05,.53-.69,0-1.11-.06-2.03-.29,0-.4-.02-.54-.09-.86,.72,.26,1.43,.4,2.1,.4,1.18,0,2.01-.5,2.01-1.24,0-.58-.54-.93-1.43-.93-.99,0-2.01,.4-2.43,.96l-.86-.02c.02-.14,.02-.18,.06-.47,.08-.58,.18-1.29,.34-2.28,.03-.18,.04-.28,.06-.45l.83,.05Zm.21-1.49c.52,.3,2.01,.75,2.87,.89l-.28,.76c-1.42-.34-2.05-.55-2.98-.98l.39-.66Z"/><path class="cls-4" d="M114.58,197.13c.22,.04,.39,.05,.74,.05h.64c.35,0,.47,0,.75-.04-.05,.49-.06,.86-.06,1.33v3.98c0,.4,.02,.66,.06,.98h-1.03c.05-.3,.06-.59,.06-.98v-4.5h-.4c-.27,0-.5,.02-.77,.05v-.86Z"/><path class="cls-4" d="M121.72,198.81c.28,.7,.52,1.06,1.06,1.61-.17,.18-.29,.37-.42,.64-.34-.46-.51-.76-.7-1.25,.02,.42,.04,.7,.04,1.02v2.38c0,.36,0,.6,.05,.82h-.79c.03-.22,.05-.47,.05-.82v-1.77c0-.54,0-.85,.03-1.35-.28,.95-.54,1.54-.96,2.17-.14-.28-.26-.44-.45-.65,.59-.75,1.08-1.81,1.3-2.8h-.32c-.28,0-.47,0-.65,.04v-.72c.2,.03,.37,.04,.66,.04h.37v-.82c0-.3,0-.49-.05-.7h.8c-.03,.22-.04,.4-.04,.71v.81h.38c.26,0,.42,0,.64-.04v.71c-.22-.02-.41-.03-.62-.03h-.38Zm5.32-.05c-.2-.02-.4-.04-.78-.04-.09,.7-.16,1.05-.33,1.58-.18,.59-.38,1.01-.69,1.49,.53,.62,1.08,1.02,1.94,1.43-.15,.18-.27,.4-.41,.72-.93-.55-1.37-.9-1.97-1.57-.57,.66-1.18,1.1-2.2,1.58-.13-.27-.25-.46-.43-.66,.56-.22,.86-.37,1.24-.63,.37-.26,.68-.54,.96-.86-.44-.66-.76-1.34-.96-2.05-.16,.26-.22,.37-.43,.65-.15-.22-.26-.34-.51-.56,.38-.46,.66-.99,.91-1.67,.18-.5,.34-1.16,.35-1.52l.78,.14c-.04,.11-.07,.21-.14,.46-.06,.23-.15,.57-.23,.82h2.02c.4,0,.64-.02,.86-.05v.74Zm-3.12-.04c-.04,.09-.05,.11-.09,.2,.2,.88,.47,1.52,.97,2.28,.42-.74,.62-1.38,.76-2.48h-1.65Z"/><path class="cls-4" d="M133.05,200.2c-.45,.77-.74,1.17-1.12,1.59,.39,.31,.82,.58,1.25,.78,.54,.26,1.21,.49,1.89,.65-.2,.29-.26,.4-.37,.74-1.45-.41-2.47-.93-3.29-1.66-.86,.73-1.96,1.32-3.17,1.68-.09-.28-.18-.43-.38-.7,.54-.14,1.04-.32,1.64-.59,.54-.25,.94-.5,1.41-.88-.45-.48-.62-.74-1.11-1.63l.63-.37c.28,.62,.55,1.03,1,1.5,.46-.52,.79-1.04,.97-1.52l.66,.41Zm-2.42-1.42c-.39,.58-.65,.89-1.09,1.3-.37,.34-.64,.55-1.1,.86-.14-.22-.28-.37-.52-.58,.5-.26,.79-.47,1.16-.81,.4-.37,.62-.64,.93-1.13l.63,.34Zm.36-1.52c0-.22-.02-.42-.05-.62h.84c-.03,.15-.05,.35-.05,.62v.31h2.24c.43,0,.73-.02,.96-.06v.78c-.18-.03-.54-.05-.97-.05h-5.09c-.46,0-.72,.02-.95,.05v-.78c.24,.04,.53,.06,.95,.06h2.12v-.31Zm1.71,1.16c.66,.86,1.14,1.25,2.25,1.81-.19,.21-.31,.38-.44,.64-.62-.34-.95-.57-1.38-.95-.38-.34-.62-.6-1.02-1.13l.58-.37Z"/><path class="cls-4" d="M140.85,202.07c.45,.66,1.13,1.02,2.33,1.25-.14,.22-.22,.42-.31,.67-1.18-.29-1.99-.81-2.48-1.58-.22,.39-.5,.67-.9,.94-.48,.32-.94,.5-1.66,.66-.09-.26-.17-.41-.34-.66,.74-.1,1.19-.24,1.63-.51,.34-.22,.56-.45,.71-.76h-1.29c-.3,0-.46,0-.7,.04v-.69c.14,.02,.22,.02,.46,.03v-2.38c-.06,.05-.13,.11-.23,.19-.1-.19-.19-.32-.33-.46-.11,0-.18,0-.26,0h-.12v1.42c.18-.07,.3-.12,.62-.26v.66c-.32,.15-.42,.19-.62,.27v2.34c0,.55-.18,.68-.98,.68-.12,0-.21,0-.45-.02-.02-.26-.06-.42-.15-.67,.27,.03,.46,.05,.66,.05,.18,0,.22-.04,.22-.2v-1.91c-.22,.08-.28,.1-.44,.14-.19,.06-.24,.08-.4,.15l-.11-.74c.24-.02,.46-.08,.95-.24v-1.66h-.33c-.17,0-.33,0-.54,.04v-.72c.18,.02,.35,.04,.54,.04h.33v-.69c0-.38,0-.59-.05-.82h.79c-.04,.23-.05,.42-.05,.82v.69h.11c.18,0,.3,0,.46-.02v.42c.76-.57,1.29-1.3,1.46-1.98l.74,.1c-.02,.06-.03,.06-.06,.14q-.04,.1-.15,.3h.98c.29,0,.42,0,.58-.02l.37,.38c-.06,.08-.12,.16-.21,.3-.13,.2-.35,.52-.51,.72h.87c.33,0,.48,0,.69-.03-.02,.21-.03,.42-.03,.78v2.23c.2,0,.34-.02,.46-.03v.69c-.22-.03-.42-.04-.75-.04h-1.52Zm-.82-.62c.02-.18,.04-.33,.04-.46v-.13l.7,.02q-.06,.46-.07,.57h1.32v-.8q-.38,.02-.45,.02c-.7,0-.87-.1-.87-.49v-1.1h-.46c-.05,1.08-.23,1.53-.86,2.04-.13-.17-.24-.26-.44-.38v.72h1.09Zm-1.09-2.38v1.62c.54-.38,.7-.74,.73-1.62h-.73Zm1.4-.6c.18-.2,.37-.47,.55-.78h-1.31c-.2,.3-.37,.51-.62,.78h1.38Zm1.67,.6h-.74v.84c0,.18,.04,.2,.35,.2,.06,0,.18,0,.39-.02v-1.02Z"/><path class="cls-4" d="M143.74,197.95c.17,.02,.23,.02,.36,.02,.22,0,.54,0,1.43-.05q.52-.02,1.93-.06c0-.68-.02-.82-.05-1.02h.85c-.03,.24-.04,.38-.04,1.01,1.46,0,2.06-.02,2.34-.06v.78c-.29-.03-.66-.04-1.34-.04-.22,0-.35,0-.99,.02v1.47c.16,.34,.22,.66,.22,1.06,0,.86-.41,1.61-1.13,2.13-.32,.22-.68,.4-1.38,.65-.18-.38-.26-.49-.49-.74,.66-.15,.98-.28,1.35-.52,.56-.38,.85-.81,.9-1.35-.22,.43-.64,.67-1.19,.67-.81,0-1.41-.57-1.41-1.34,0-.82,.64-1.4,1.54-1.4,.37,0,.66,.1,.85,.27t0-.1v-.78c-1.28,.02-3.21,.12-3.71,.2l-.02-.8Zm2.14,2.54c0,.42,.3,.7,.73,.7,.49,0,.84-.34,.84-.81,0-.18-.05-.3-.16-.39-.14-.14-.35-.22-.59-.22-.46,0-.82,.3-.82,.71Z"/><path class="cls-4" d="M152.2,197.24c.26,.04,.41,.05,.85,.05,.73,0,1.67-.04,2.46-.1,.26-.02,.33-.03,.45-.1l.43,.6c-.12,.06-.17,.1-.41,.33-1.11,1.06-1.98,1.78-2.54,2.1l.02,.02c.68-.31,1.16-.42,1.8-.42,1.34,0,2.21,.69,2.21,1.75,0,.74-.38,1.33-1.07,1.72-.52,.29-1.16,.44-1.88,.44-.64,0-1.17-.12-1.48-.34-.3-.21-.48-.54-.48-.9,0-.61,.55-1.06,1.29-1.06,.55,0,1.04,.24,1.36,.66,.16,.21,.25,.38,.37,.74,.27-.09,.43-.17,.6-.29,.31-.23,.49-.57,.49-.95,0-.7-.62-1.13-1.64-1.13-1.17,0-2.38,.5-3.33,1.35l-.46-.71c.72-.38,2.6-1.93,3.64-2.99l.14-.14h0c-.29,.03-1.14,.09-2.36,.14-.18,0-.24,.02-.4,.04l-.04-.82Zm1.65,4.73c-.33,0-.54,.16-.54,.42,0,.35,.41,.57,1.08,.57,.16,0,.21,0,.46-.03-.16-.63-.5-.95-1-.95Z"/></g><rect class="cls-3" x="23.06" y="84.59" width="19.82" height="27.68" rx="3" ry="3" transform="translate(-19.74 9.01) rotate(-12)"/><rect class="cls-3" x="135.72" y="82.81" width="19.79" height="27.65" rx="3" ry="3" transform="translate(-16.91 32.39) rotate(-12)"/><path class="cls-5" d="M67.89,97.19l-10.14,8.04c-.69,.58-.69,1.47,0,2.05l10.14,8.04c1.13,.92,3.1,.26,3.1-1.01v-5.19h21.93c2.01,0,3.65-1.3,3.65-2.88s-1.64-2.88-3.65-2.88h-21.93v-5.16c0-1.3-1.97-1.93-3.1-1.01Zm52.95-9.25l-10.14-8.04c-1.13-.92-3.1-.26-3.1,1.01v5.16h-21.97c-2.01,0-3.65,1.3-3.65,2.88s1.64,2.88,3.65,2.88h21.93v5.16c0,1.3,1.97,1.93,3.1,1.01l10.14-8.04c.73-.55,.73-1.47,.04-2.02Z"/></svg>