<?xml version="1.0" encoding="UTF-8"?><svg id="Layer_1" xmlns="http://www.w3.org/2000/svg" viewBox="0 0 178.58 249.45"><defs><style>.cls-1{fill:#fff;}.cls-2{fill:#ffa914;}.cls-3{fill:#ff3126;}.cls-4{fill:gray;}.cls-5{fill:#4d4d4d;}.cls-6{opacity:.9;}</style></defs><g><path class="cls-1" d="M13.95,3.09H164.63c6,0,10.86,4.87,10.86,10.86V235.5c0,6-4.87,10.86-10.86,10.86H13.95c-6,0-10.86-4.87-10.86-10.86V13.95C3.09,7.96,7.96,3.09,13.95,3.09Z"/><path class="cls-2" d="M164.63,6.18c4.29,0,7.77,3.49,7.77,7.77V235.5c0,4.29-3.49,7.77-7.77,7.77H13.95c-4.29,0-7.77-3.49-7.77-7.77V13.95c0-4.29,3.49-7.77,7.77-7.77H164.63M164.63,0H13.95C6.25,0,0,6.25,0,13.95V235.5C0,243.2,6.25,249.45,13.95,249.45H164.63c7.71,0,13.95-6.25,13.95-13.95V13.95C178.58,6.25,172.34,0,164.63,0h0Z"/></g><g><path class="cls-2" d="M37.18,15.88c-1.05,0-1.5,.01-2.05,.06v-2.23c.7,.08,1.09,.1,2.09,.1h6.94c.41-.01,.61-.05,.87-.14l1.22,1.37c-.2,.19-.27,.28-.58,.81-1.3,2.19-2.34,3.45-4.02,4.85,.54,.65,.9,1.1,1.51,1.93l-1.9,1.48c-.76-1.24-1.39-2.12-2.45-3.31-1.03-1.18-1.62-1.76-2.55-2.52l1.74-1.22c1.04,.85,1.46,1.24,2.19,2.01,.72-.6,1.52-1.41,1.98-2,.32-.39,.66-.94,.81-1.23l-5.8,.03Z"/><path class="cls-2" d="M56.56,24.11c-1.1-1.39-2.22-2.5-3.64-3.6-1.19,1.41-2.7,2.52-4.66,3.47-.44-.89-.71-1.27-1.42-2,1.65-.63,2.95-1.46,4.1-2.56,1.18-1.13,1.95-2.25,2.55-3.72l-3.29,.05c-1.09,.02-1.49,.05-2.01,.13l-.06-2.25c.49,.06,.84,.09,1.33,.09,.1,0,.34,0,.71-.01l4.33-.06c.6-.01,.67-.01,1.01-.14l1.11,1.14c-.19,.19-.27,.32-.46,.75-.67,1.58-1.15,2.47-1.86,3.42,1.53,1.1,2.05,1.55,4.03,3.43l-1.77,1.88Z"/><path class="cls-2" d="M63.15,15.06c.04-.49,.06-1.23,.06-1.62,0-.27,0-.37-.04-.63l2.38,.06c-.06,.29-.06,.33-.14,1.53q-.01,.34-.04,.65h2.76c.42,0,.57-.03,.85-.14l.99,.86c-.14,.25-.17,.36-.18,.94-.09,2.71-.28,4.83-.53,5.66-.37,1.18-.98,1.58-2.38,1.58-.49,0-.68-.01-1.66-.1-.05-1.01-.14-1.43-.43-2.23,.63,.17,1.25,.25,1.65,.25,.61,0,.76-.2,.92-1.3,.13-.85,.24-2.45,.24-3.53h-2.42q-.1,.84-.19,1.27c-.56,2.56-1.76,4.21-4.33,5.9-.57-.9-.95-1.33-1.65-1.93,1.69-.89,2.66-1.79,3.29-3.07,.32-.65,.46-1.1,.63-2.17h-1.58c-.85,0-1.11,.01-1.71,.08v-2.17c.62,.09,.85,.1,1.75,.1h1.75Z"/><path class="cls-2" d="M71.53,17.25c.6,.09,1.28,.11,2.6,.11h6.06c1.27,0,1.75-.03,2.6-.11v2.44c-.61-.06-1.16-.08-2.61-.08h-6.03c-1.42,0-1.84,.01-2.61,.08v-2.44Z"/><path class="cls-2" d="M85.38,24.05c.05-.53,.06-.9,.08-1.94v-7.37c-.01-1.09-.01-1.15-.09-1.84h2.45c-.05,.33-.05,.53-.06,1.85v1.74c2,.65,3.99,1.55,5.76,2.64l-1.2,2.15c-1.05-.75-2.52-1.56-3.99-2.2-.38-.15-.42-.16-.46-.19-.04-.01-.06-.03-.11-.06v3.29c0,.94,.03,1.61,.08,1.94h-2.44Zm5.73-10.44c.49,.56,.9,1.14,1.25,1.81l-1.2,.58c-.42-.8-.75-1.27-1.25-1.85l1.2-.54Zm1.69-.76c.47,.51,.82,.99,1.27,1.76l-1.17,.57c-.44-.8-.8-1.31-1.24-1.81l1.14-.52Z"/></g><path class="cls-2" d="M13.95,0H30V16.05c0,7.7-6.25,13.95-13.95,13.95H0V13.95C0,6.25,6.25,0,13.95,0Z"/><g class="cls-6"><path class="cls-1" d="M15,19.78c-.1,0-.19-.04-.26-.11l-6.73-4.47c-.07-.08-.07-.31,.07-.45l6.58-4.37c.14-.13,.23-.17,.33-.17s.19,.04,.26,.11l6.73,4.49c.07,.08,.07,.31-.07,.45l-6.58,4.35c-.14,.13-.23,.17-.33,.17Z"/><path class="cls-1" d="M15.08,10.66h0m-.08,.07s.04,.03,.07,.05l6.36,4.23-6.36,4.21s-.05,.03-.07,.05c-.02-.02-.05-.03-.07-.05l-6.36-4.21,6.36-4.23s.05-.03,.07-.05m0-.98c-.21,0-.43,.08-.59,.24l-6.65,4.43c-.32,.32-.32,.86,0,1.18l6.65,4.41c.16,.16,.38,.24,.59,.24s.43-.08,.59-.24l6.65-4.41c.32-.32,.32-.86,0-1.18l-6.65-4.43c-.16-.16-.38-.24-.59-.24h0Z"/></g><g><path d="M20.84,162.58c-.04,.23-.04,.24-.05,.97-.05,2.05-.37,3.2-1.19,4.25-.72,.92-1.6,1.54-3.09,2.16-.31-.65-.47-.86-.95-1.37,.97-.29,1.51-.55,2.1-1.02,1.22-.97,1.61-2,1.61-4.27,0-.36-.01-.47-.06-.72h1.63Zm4.87-1.51c-.17,.2-.17,.22-.48,.84-.42,.89-1.12,1.79-1.85,2.41-.48,.42-.88,.68-1.44,1-.36-.5-.54-.68-1.08-1.09,.8-.36,1.26-.64,1.75-1.1,.49-.46,.86-.95,1.14-1.52h-6.3c-.84,0-1.14,.01-1.63,.07v-1.5c.46,.07,.83,.1,1.66,.1h6.26c.72,0,.83-.01,1.16-.11l.8,.91Z"/><path d="M35.61,160.56c-.2,.18-.26,.23-.44,.42-.9,.94-1.8,1.71-2.83,2.47v5.12c0,.66,.01,1.01,.06,1.33h-1.68c.06-.35,.07-.59,.07-1.29v-4.22c-1.4,.84-2.07,1.15-4.28,1.94-.25-.62-.38-.83-.8-1.37,2.37-.65,4.39-1.64,6.3-3.12,1.07-.83,1.88-1.65,2.23-2.24l1.38,.96Z"/><path d="M42.98,164.44c-.06,1.38-.32,2.38-.84,3.23-.64,1.06-1.51,1.71-3.13,2.36-.3-.61-.46-.82-.97-1.32,1.44-.44,2.34-1.08,2.84-2,.31-.55,.49-1.33,.53-2.27h-2.93c-.82,0-1.09,.01-1.52,.06v-1.43c.46,.07,.72,.08,1.55,.08h7.02c.82,0,1.09-.01,1.55-.08v1.43c-.43-.05-.71-.06-1.52-.06h-2.57Zm-4.81-4.39c.44,.07,.68,.08,1.55,.08h4.61c.86,0,1.1-.01,1.55-.08v1.46c-.4-.05-.68-.06-1.52-.06h-4.65c-.84,0-1.13,.01-1.52,.06v-1.46Z"/><path d="M52.96,159.94c-.13,.26-.14,.29-.31,.86-.91,3-1.61,4.99-2.38,6.84,1.88-.14,3.96-.4,4.99-.61-.13-.29-.28-.55-.56-1.09-.53-1-.74-1.34-1.14-1.91l1.35-.53c1.12,1.63,2.17,3.65,2.9,5.55l-1.45,.76q-.16-.49-.58-1.49-.16,.04-.43,.1c-1.21,.25-3.2,.5-6.79,.85-.67,.06-.85,.08-1.09,.14l-.22-1.62h.31c.24,0,.53-.01,1.03-.04,.64-1.51,1.12-2.87,1.74-4.83,.56-1.76,.79-2.61,.88-3.32l1.74,.34Z"/><path d="M59.15,160.71c.49,.11,1.26,.16,2.78,.16,.32-.72,.43-1.08,.48-1.49l1.57,.17q-.07,.12-.48,1.08c-.06,.13-.08,.17-.11,.22q.1-.01,.76-.05c1.39-.08,2.48-.22,3.14-.41l.08,1.37q-.34,.02-.95,.1c-.88,.11-2.4,.2-3.61,.24-.35,.68-.68,1.16-1.1,1.6v.02q.1-.06,.25-.18c.44-.34,1.08-.54,1.69-.54,.94,0,1.52,.44,1.72,1.27,.92-.34,1.54-.55,1.83-.65,.65-.23,.7-.24,.89-.36l.56,1.38c-.34,.05-.7,.14-1.33,.32-.17,.05-.77,.25-1.8,.61v.13q.01,.31,.01,.48v.48c-.01,.2-.01,.31-.01,.4,0,.26,.01,.43,.04,.64l-1.39,.04c.05-.22,.07-.83,.07-1.39v-.29c-.59,.28-.9,.44-1.15,.62-.42,.31-.62,.64-.62,.98,0,.62,.58,.88,2.03,.88s2.67-.18,3.53-.5l.12,1.55c-.2,0-.26,.01-.55,.05-.86,.13-2.02,.22-3.07,.22-1.27,0-2.06-.14-2.67-.5-.55-.31-.88-.89-.88-1.55,0-.49,.14-.88,.53-1.33,.54-.67,1.22-1.13,2.58-1.69-.06-.44-.3-.65-.73-.65-.7,0-1.54,.42-2.46,1.24-.5,.42-.78,.72-1.04,1.09l-1.09-1.08c.31-.24,.66-.58,1.08-1.07,.47-.55,1.2-1.6,1.44-2.05q.05-.1,.1-.16s-.2,.01-.2,.01c-.19,0-1.25-.02-1.51-.02q-.23-.01-.34-.01s-.11,0-.19,.01l.02-1.37Z"/><path d="M73.8,169.55c.07-.47,.1-.94,.1-1.57v-6.6h-.58c-.44,0-.79,.02-1.24,.07v-1.52c.37,.06,.64,.07,1.2,.07h1.1c.61,0,.79-.01,1.22-.06-.07,.71-.1,1.26-.1,1.98v6.06c0,.64,.02,1.08,.1,1.57h-1.81Z"/><path d="M83.13,162.62c.44,1,.77,1.46,1.57,2.3-.3,.37-.54,.76-.74,1.18-.47-.68-.67-1.07-.94-1.7,.06,.6,.07,.92,.07,1.32v3.35c0,.55,.02,.94,.07,1.31h-1.4c.05-.35,.07-.76,.07-1.29v-2.19c0-.79,.01-1.13,.06-1.88-.42,1.3-.73,2-1.3,2.83-.22-.49-.42-.82-.76-1.19,.89-1.14,1.56-2.59,1.88-4.02h-.41c-.4,0-.68,.01-.96,.06v-1.28c.3,.05,.54,.06,.98,.06h.48v-1.12c0-.48-.01-.77-.07-1.09h1.42c-.06,.34-.07,.62-.07,1.1v1.1h.54c.38,0,.6-.01,.9-.06v1.27c-.34-.04-.59-.05-.88-.05h-.53Zm7.96-.06c-.31-.04-.55-.05-1.09-.06-.28,2.09-.66,3.26-1.46,4.52,.78,.84,1.55,1.37,2.78,1.93-.28,.36-.47,.76-.68,1.32-1.42-.83-1.96-1.25-2.88-2.22-.86,.92-1.8,1.57-3.25,2.24-.23-.48-.4-.76-.74-1.18,1.42-.54,2.33-1.13,3.19-2.07-.6-.89-1.07-1.9-1.35-2.87-.2,.34-.29,.46-.56,.83-.28-.4-.48-.62-.9-1.04,.55-.66,1-1.48,1.36-2.48,.25-.7,.5-1.74,.54-2.27l1.39,.25c-.07,.18-.12,.34-.2,.68-.1,.35-.2,.73-.33,1.16h2.88c.61,0,.98-.02,1.33-.07v1.32Zm-4.74,.14c.26,1.26,.66,2.23,1.37,3.29,.54-.97,.82-1.93,1.02-3.49h-2.3l-.08,.2Z"/><path d="M94.81,167.73c.36,.66,.76,.94,1.49,1.07-.14-.23-.44-.55-.78-.83,.84-.28,1.33-.53,1.81-.94h-1.35c-.44,0-.65,.01-.92,.06v-1.1c.26,.05,.46,.06,.92,.06h.9v-.74h-.26c-.6,0-.82,.01-1.12,.05v-1.06c.29,.04,.49,.05,1.12,.05h.25c-.01-.29-.02-.41-.05-.61h1.32c-.02,.19-.04,.35-.05,.61h1.62c-.01-.29-.02-.41-.05-.61h1.32c-.04,.2-.05,.34-.06,.61h.63c.61,0,.82-.01,1.12-.05v1.06c-.31-.04-.53-.05-1.13-.05h-.62v.74h.92c.64,0,.85-.01,1.15-.05v1.08c-.31-.04-.54-.05-1.15-.05h-1.28c.62,.4,1.2,.61,2.23,.84-.3,.31-.5,.58-.7,.91q.32-.02,1.22-.14c-.22,.58-.25,.71-.36,1.38-1.05,.05-2.59,.07-4.12,.07-1.87,0-2.57-.06-3.17-.25s-1.04-.53-1.47-1.09c-.49,.47-.68,.64-1.16,1.01-.24,.19-.33,.26-.54,.43l-.59-1.37c.46-.19,.94-.53,1.66-1.16v-2.59h-.62c-.32,0-.49,.01-.8,.06v-1.3c.31,.05,.52,.06,.96,.06h.86c.42,0,.59-.01,.9-.05-.04,.38-.04,.56-.04,1.3v2.59Zm-1.67-8.29c.88,.78,1.26,1.2,1.83,1.92l-1,.97c-.62-.88-.94-1.22-1.8-1.99l.96-.9Zm5.48,1.86c0,.3,0,.48,.02,.65-.3-.02-.48-.04-.77-.04h-1.54v.36c0,.25,.04,.28,.52,.28,.94,0,.95-.01,.98-.56,.3,.19,.6,.31,.98,.38-.07,.66-.19,.9-.52,1.02-.24,.08-.61,.11-1.58,.11-1.25,0-1.47-.12-1.47-.77v-1.02c0-.32-.01-.48-.04-.71,.22,.02,.42,.04,.84,.04h1.43v-.49h-1.39c-.48,0-.68,.01-.97,.05v-1.06c.25,.04,.61,.05,.98,.05h1.49c.58,0,.84-.01,1.05-.04-.02,.18-.02,.26-.02,.66v1.09Zm-.12,6.21c-.85,.77-1.19,.98-1.96,1.32,.58,.06,1.26,.08,2.08,.08,.88,0,1.93-.04,3.02-.1-.89-.3-1.58-.7-2.27-1.28l.73-.5h-2.35l.74,.48Zm-.42-1.46h1.63v-.74h-1.63v.74Zm4.56-4.75c0,.29,0,.48,.02,.65-.3-.02-.48-.04-.77-.04h-1.52v.36c0,.17,.01,.2,.11,.24,.08,.04,.26,.05,.55,.05,.86,0,.89-.01,.91-.59,.36,.2,.61,.29,1.05,.4-.1,.66-.18,.86-.44,.98-.24,.11-.71,.14-1.66,.14-.83,0-1.12-.02-1.32-.12-.25-.11-.35-.31-.35-.68v-.92q-.01-.49-.02-.52t-.01-.25c.22,.02,.42,.04,.83,.04h1.44v-.49h-1.33c-.48,0-.68,.01-.97,.05v-1.06c.26,.04,.61,.05,.98,.05h1.46c.58,0,.84-.01,1.06-.04-.02,.17-.02,.3-.02,.66v1.09Z"/><path d="M106.82,164.98c-.02,.07-.04,.14-.05,.17-.01,.04-.05,.17-.1,.36-.47,1.7-.96,2.94-1.54,3.85-.47-.38-.76-.56-1.28-.79,.6-.8,1.36-2.76,1.57-4.03l1.39,.44Zm5.67-3.79c.52,.56,.84,1.02,1.26,1.76l-.84,.44c-.41-.73-.73-1.21-1.26-1.79v.47c-.34,.06-.62,.18-1.03,.43-.77,.48-1.19,1-1.19,1.44,0,.13,.05,.32,.11,.43,.12,.24,.17,.29,.89,1.06,.43,.48,.67,.79,.83,1.14,.16,.36,.24,.72,.24,1.06,0,.62-.29,1.25-.77,1.64-.42,.36-.96,.53-1.63,.53-.85,0-1.67-.3-2.52-.94,.18-.5,.24-.77,.34-1.45,.67,.62,1.42,.98,2.06,.98,.55,0,.94-.34,.94-.83,0-.2-.06-.42-.19-.67-.14-.3-.28-.47-.74-1-.7-.78-.91-1.22-.91-1.82,0-.55,.23-1.08,.66-1.57,.24-.26,.37-.38,.86-.71l-.16-.02-.24-.02c-.73-.07-1.4-.25-2.41-.64-.22-.07-.23-.08-.41-.13l.53-1.34c.35,.2,.84,.38,1.59,.59,.88,.24,2.24,.44,2.93,.44,.04,0,.12,0,.24-.01v.95l.83-.42Zm.48,3.12c.89,1.31,1.55,2.71,1.96,4.15l-1.42,.67c-.19-1.19-1.25-3.65-1.83-4.27l1.3-.55Zm1.38-1.67c-.37-.66-.77-1.22-1.22-1.74l.8-.42c.54,.55,.86,1.01,1.25,1.69l-.83,.47Z"/></g><g><path class="cls-4" d="M18.81,179.65q-.02,.14-.03,.61c-.03,1.36-.26,2.14-.8,2.83-.48,.62-1.06,1.02-2.05,1.42-.18-.36-.26-.48-.53-.76,.65-.2,1.02-.38,1.42-.7,.82-.66,1.1-1.4,1.1-2.94,0-.22,0-.29-.03-.45h.91Zm3.21-1.02c-.09,.11-.11,.16-.21,.34-.56,1.14-1.25,1.85-2.3,2.4-.19-.28-.29-.38-.59-.62,.55-.23,.85-.42,1.21-.75,.35-.32,.6-.66,.81-1.07h-4.33c-.51,0-.73,0-1.03,.04v-.85c.29,.04,.54,.06,1.04,.06h4.22c.5,0,.55,0,.74-.06l.45,.51Z"/><path class="cls-4" d="M28.45,178.25c-.14,.12-.15,.13-.36,.34-.52,.55-1.17,1.11-1.84,1.59v3.22c0,.55,.02,.81,.05,1.06h-.95c.04-.3,.05-.47,.05-1.06v-2.69c-.98,.6-1.48,.82-2.94,1.34-.14-.34-.22-.46-.45-.77,1.54-.41,2.9-1.08,4.17-2.07,.72-.56,1.27-1.11,1.5-1.5l.77,.54Z"/><path class="cls-4" d="M33.3,180.84c0,.3-.06,.66-.12,1-.17,.83-.52,1.46-1.09,1.94-.36,.3-.76,.52-1.42,.78-.16-.34-.25-.46-.54-.74,.99-.31,1.61-.77,1.95-1.43,.19-.37,.32-.97,.34-1.55h-1.98c-.55,0-.75,0-1.04,.04v-.83c.32,.05,.57,.06,1.06,.06h4.54c.5,0,.78-.02,1.06-.06v.82c-.26-.02-.62-.04-1.06-.04h-1.72Zm-3.09-2.79c.28,.05,.52,.06,1.06,.06h2.95c.55,0,.78-.02,1.06-.06v.85c-.22-.03-.67-.05-1.06-.05h-2.97c-.47,0-.8,.02-1.04,.04v-.84Z"/><path class="cls-4" d="M39.91,177.97c-.09,.17-.1,.22-.21,.56-.54,1.79-1.1,3.38-1.62,4.62,1.29-.1,2.73-.28,3.55-.45-.36-.73-.83-1.55-1.18-2.04l.75-.3c.74,1.06,1.45,2.39,1.95,3.65l-.8,.42q-.1-.32-.42-1.02-.1,.02-.28,.06c-.88,.18-2.18,.35-4.57,.58-.48,.05-.57,.06-.72,.1l-.11-.91q.1,0,.19,0c.16,0,.25,0,.71-.03,.45-1.06,.77-1.94,1.18-3.2,.38-1.21,.54-1.78,.6-2.25l.98,.2Z"/><path class="cls-4" d="M46.43,179.22c.03-.38,.05-.8,.05-1.14,0-.2,0-.26-.02-.42l.9,.02c-.03,.17-.03,.22-.07,1,0,.14,0,.24-.03,.54h1.86c.36-.02,.42-.02,.59-.08l.39,.35c-.06,.13-.07,.22-.08,.5-.05,1.76-.19,3.04-.41,3.61-.2,.51-.5,.7-1.12,.7-.3,0-.57-.03-1-.11,0-.41-.02-.54-.14-.85,.46,.14,.78,.2,1.05,.2,.36,0,.48-.18,.62-.92,.11-.58,.19-1.68,.19-2.68h-2.01c-.06,.57-.07,.62-.14,.91-.22,1.03-.65,1.83-1.36,2.57-.41,.42-.74,.69-1.28,1.02-.22-.34-.31-.44-.59-.69,.98-.52,1.65-1.18,2.08-2.05,.26-.53,.35-.88,.46-1.74h-1.38c-.5,0-.58,0-.86,.05v-.83c.27,.05,.46,.06,.86,.06h1.44Z"/><path class="cls-4" d="M51.43,180.61c.3,.04,.64,.06,1.23,.06h4.33c.69,0,.88,0,1.19-.05v.93c-.35-.03-.61-.04-1.2-.04h-4.31c-.67,0-.91,0-1.24,.04v-.94Z"/><path class="cls-4" d="M60.14,184.46c.04-.34,.05-.54,.05-1.02v-4.77c0-.55,0-.73-.05-.95h.95c-.04,.26-.05,.53-.05,.98v1.35c1.14,.4,2.26,.93,3.6,1.69l-.47,.79c-.35-.24-.57-.38-.98-.61-.61-.33-1.48-.76-1.92-.94q-.13-.06-.26-.14l.02,.31c0,.07,0,.32,0,.4v1.9c0,.42,.02,.72,.05,1.02h-.94Zm3.37-6.36c.38,.42,.55,.68,.83,1.2l-.5,.27c-.26-.5-.49-.83-.83-1.22l.5-.25Zm.94-.46c.38,.42,.55,.66,.82,1.17l-.49,.28c-.25-.46-.47-.8-.82-1.2l.48-.25Z"/><path class="cls-4" d="M65.94,179.64c.29,0,1.06-.09,1.74-.18,.14-.75,.22-1.37,.22-1.63,0-.03,0-.08,0-.14l.88,.09c-.02,.1-.04,.16-.06,.26q-.03,.15-.06,.28t-.14,.78c-.03,.18-.03,.2-.06,.31,.22-.02,.34-.02,.52-.02,.5,0,.88,.13,1.13,.38,.28,.29,.38,.66,.38,1.37,0,1.33-.22,2.41-.58,2.85-.22,.26-.45,.36-.85,.36-.33,0-.69-.08-1.22-.27,0-.13,.02-.23,.02-.3,0-.14-.02-.27-.06-.55,.43,.21,.9,.34,1.17,.34,.26,0,.4-.18,.53-.62,.13-.42,.21-1.18,.21-1.88,0-.74-.22-.99-.88-.99-.17,0-.3,0-.51,.03-.32,1.33-.63,2.23-1.14,3.29-.06,.13-.24,.48-.53,1.06l-.78-.44c.24-.3,.56-.88,.83-1.48,.35-.78,.54-1.31,.82-2.37-.62,.09-1.2,.19-1.51,.27l-.08-.79Zm5.45-.77c.81,.92,1.3,1.81,1.66,3l-.75,.39c-.15-.65-.34-1.15-.66-1.74-.3-.56-.55-.91-.93-1.31l.67-.34Z"/><path class="cls-4" d="M75.32,179.21c-.11,.44-.23,1.1-.37,2.05-.02,.14-.02,.18-.06,.28,.5-.5,1.51-.83,2.51-.83,1.34,0,2.2,.64,2.2,1.62,0,.58-.3,1.14-.79,1.48-.53,.36-1.18,.53-2.05,.53-.69,0-1.11-.06-2.03-.29,0-.4-.02-.54-.09-.86,.72,.26,1.43,.4,2.1,.4,1.18,0,2.01-.5,2.01-1.24,0-.58-.54-.93-1.43-.93-.99,0-2.01,.4-2.43,.96l-.86-.02c.02-.14,.02-.18,.06-.47,.08-.58,.18-1.29,.34-2.28,.03-.18,.04-.28,.06-.45l.83,.05Zm.21-1.49c.52,.3,2.01,.75,2.87,.89l-.28,.76c-1.42-.34-2.05-.55-2.98-.98l.39-.66Z"/><path class="cls-4" d="M82.09,177.93c.22,.04,.39,.05,.74,.05h.64c.35,0,.47,0,.75-.04-.05,.49-.06,.86-.06,1.33v3.98c0,.4,.02,.66,.06,.98h-1.03c.05-.3,.06-.59,.06-.98v-4.5h-.4c-.27,0-.5,.02-.77,.05v-.86Z"/><path class="cls-4" d="M89.23,179.6c.28,.7,.52,1.06,1.06,1.61-.17,.18-.29,.37-.42,.64-.34-.46-.51-.76-.7-1.25,.02,.42,.04,.7,.04,1.02v2.38c0,.36,0,.6,.05,.82h-.79c.03-.22,.05-.47,.05-.82v-1.77c0-.54,0-.85,.03-1.35-.28,.95-.54,1.54-.96,2.17-.14-.28-.26-.44-.45-.65,.59-.75,1.08-1.81,1.3-2.8h-.32c-.28,0-.47,0-.65,.04v-.72c.2,.03,.37,.04,.66,.04h.37v-.82c0-.3,0-.49-.05-.7h.8c-.03,.22-.04,.4-.04,.71v.81h.38c.26,0,.42,0,.64-.04v.71c-.22-.02-.41-.03-.62-.03h-.38Zm5.32-.05c-.2-.02-.4-.04-.78-.04-.09,.7-.16,1.05-.33,1.58-.18,.59-.38,1.01-.69,1.49,.53,.62,1.08,1.02,1.94,1.43-.15,.18-.27,.4-.41,.72-.93-.55-1.37-.9-1.97-1.57-.57,.66-1.18,1.1-2.2,1.58-.13-.27-.25-.46-.43-.66,.56-.22,.86-.37,1.24-.63,.37-.26,.68-.54,.96-.86-.44-.66-.76-1.34-.96-2.05-.16,.26-.22,.37-.43,.65-.15-.22-.26-.34-.51-.56,.38-.46,.66-.99,.91-1.67,.18-.5,.34-1.16,.35-1.52l.78,.14c-.04,.11-.07,.21-.14,.46-.06,.23-.15,.57-.23,.82h2.02c.4,0,.64-.02,.86-.05v.74Zm-3.12-.04c-.04,.09-.05,.11-.09,.2,.2,.88,.47,1.52,.97,2.28,.42-.74,.62-1.38,.76-2.48h-1.65Z"/><path class="cls-4" d="M95.31,180.55c.21,.03,.34,.04,.63,.04h.5c.26,0,.39,0,.6-.03-.02,.26-.03,.38-.03,.86v1.66c.18,.34,.33,.5,.59,.62,.37,.18,.84,.24,1.76,.24,1.55,0,2.33-.04,3.35-.18-.14,.34-.15,.41-.22,.78-.74,.03-1.7,.05-2.65,.05-1.29,0-1.72-.03-2.13-.16-.45-.14-.76-.38-1.06-.79-.33,.32-.48,.46-.77,.69-.2,.15-.25,.2-.38,.32l-.34-.76c.32-.14,.66-.39,1.15-.85v-1.81h-.44c-.24,0-.35,0-.56,.04v-.73Zm.62-2.93c.56,.53,.81,.79,1.21,1.3l-.56,.54c-.42-.6-.62-.83-1.18-1.34l.53-.49Zm2.37,3.79c-.38,0-.55,0-.75,.03v-.6c.19,.02,.34,.03,.75,.03h.23c0-.22-.02-.29-.04-.45h.74c-.02,.14-.03,.23-.04,.45h1.18c0-.19-.02-.3-.04-.45h.74c-.02,.15-.03,.25-.04,.45h.47c.39,0,.54,0,.74-.03v.6c-.21-.02-.38-.03-.75-.03h-.46v.6h.67c.42,0,.58,0,.78-.03v.62c-.18-.02-.38-.03-.78-.03h-.98c.53,.36,.9,.52,1.62,.7-.21,.21-.31,.34-.45,.59-.74-.26-1.22-.52-1.74-.95l.5-.34h-1.7l.5,.32c-.58,.51-.83,.68-1.45,.94-.11-.18-.25-.34-.49-.52,.62-.22,.95-.4,1.34-.74h-.96c-.32,0-.49,0-.66,.04v-.63c.19,.03,.33,.04,.66,.04h.63v-.6h-.23Zm1.29-2.65c0,.19,0,.32,.02,.43-.2-.02-.31-.02-.51-.02h-1.1v.35c0,.18,.04,.2,.44,.2,.46,0,.6-.02,.66-.08,.04-.05,.06-.14,.08-.39,.18,.12,.34,.18,.55,.23-.05,.44-.12,.6-.31,.69-.13,.06-.39,.09-.98,.09-.92,0-1.05-.06-1.05-.5v-.65c0-.21,0-.34-.02-.46,.14,.02,.27,.02,.54,.02h1.05v-.44h-1c-.31,0-.45,0-.65,.03v-.6c.18,.02,.4,.03,.66,.03h.94c.38,0,.56,0,.71-.02-.02,.13-.02,.21-.02,.43v.66Zm-.39,3.25h1.18v-.6h-1.18v.6Zm3.05-3.25c0,.19,0,.32,.02,.43-.2-.02-.31-.02-.51-.02h-1.09v.35c0,.12,.02,.14,.09,.18,.06,.02,.2,.03,.39,.03,.72,0,.73,0,.76-.48,.21,.12,.35,.18,.58,.23-.1,.74-.17,.78-1.33,.78-.55,0-.75-.02-.89-.07-.17-.07-.23-.19-.23-.44v-.61c0-.1,0-.26-.02-.49,.14,.02,.27,.02,.54,.02h1.05v-.44h-.97c-.31,0-.45,0-.65,.03v-.6c.18,.02,.4,.03,.65,.03h.94c.37,0,.54,0,.7-.02-.02,.11-.02,.21-.02,.43v.66Z"/><path class="cls-4" d="M103.43,178.27c.14,.02,.21,.02,.38,.02,.95,0,1.86-.1,2.21-.25l.44,.71c-.4,.26-.62,.46-.96,.86-.7,.83-1.06,1.67-1.06,2.45,0,.9,.59,1.52,1.45,1.52,.67,0,1.27-.4,1.54-1.03,.2-.49,.29-1,.29-1.7,0-.9-.18-1.91-.46-2.49l.81-.25c.14,.43,.4,.97,.71,1.45,.34,.5,.66,.86,1.14,1.27,.14,.11,.18,.15,.3,.21l-.42,.79-.18-.17c-.57-.48-.9-.92-1.42-1.8,.18,.62,.22,1,.22,1.54,0,.8-.19,1.5-.55,2-.46,.64-1.18,1.01-1.98,1.01-.47,0-.95-.14-1.3-.36-.6-.4-.97-1.14-.97-1.97s.3-1.64,.83-2.36c.21-.28,.46-.58,.67-.75l.17-.15c-.39,.1-.82,.17-1.63,.22-.13,.02-.15,.02-.23,.02l-.02-.79Zm5.47-.69c.38,.42,.55,.68,.83,1.2l-.5,.27c-.26-.5-.49-.83-.83-1.22l.5-.25Zm.94-.46c.38,.42,.55,.66,.82,1.17l-.49,.28c-.25-.46-.47-.8-.82-1.2l.48-.25Z"/><path class="cls-4" d="M111.26,182.39c.71,.55,1.13,.98,1.72,1.73l-.66,.61c-.56-.78-1.02-1.26-1.67-1.79l.61-.55Z"/><path class="cls-4" d="M116.86,178.59c-.19,0-.41,.02-.7,.04v-.8c.19,.03,.36,.04,.69,.04h1.18c.36,0,.55,0,.74-.04-.02,.18-.02,.34-.02,.5,0,1.07,.26,2.08,.78,3.01,.32,.57,.72,1.08,1.25,1.58,.43,.42,.7,.62,1.31,.98-.28,.26-.38,.4-.58,.75-.88-.62-1.51-1.25-2.09-2.07-.5-.71-.81-1.4-1.03-2.29-.27,1.05-.6,1.76-1.13,2.49-.52,.71-1.14,1.28-2.02,1.89-.15-.3-.3-.47-.57-.69,.74-.44,1.16-.78,1.7-1.38,.62-.68,1.07-1.5,1.32-2.34,.17-.58,.23-1,.26-1.68h-1.09Z"/><path class="cls-4" d="M126.03,178.69q-.16,.02-.6,.06c-.41,.05-1.22,.09-1.95,.11-.06-.29-.1-.38-.26-.7h.3c1.09,0,2.57-.12,3.55-.29,.77-.14,1.18-.25,1.58-.42l.56,.66c-1.09,.28-1.7,.4-2.42,.49v1.16h1.77c.42,0,.69-.02,.94-.05v.77c-.25-.03-.54-.05-.93-.05h-1.78v1.08h2.13c.42,0,.68-.02,.93-.05v.77c-.27-.03-.52-.05-.93-.05h-2.13v1.68c0,.57-.23,.74-.98,.74-.34,0-.84-.02-1.23-.06-.03-.3-.07-.45-.2-.74,.46,.08,1.01,.13,1.37,.13,.22,0,.3-.06,.3-.25v-1.5h-2.33c-.4,0-.66,.02-.92,.05v-.77c.25,.03,.5,.05,.92,.05h2.33v-1.08h-1.89c-.34,0-.66,.02-.94,.05v-.77c.25,.03,.51,.05,.94,.05h1.89v-1.07Z"/><path class="cls-4" d="M130.65,178.75c.17,.02,.23,.02,.36,.02,.22,0,.54,0,1.43-.05q.52-.02,1.93-.06c0-.68-.02-.82-.05-1.02h.85c-.03,.24-.04,.38-.04,1.01,1.46,0,2.06-.02,2.34-.06v.78c-.29-.03-.66-.04-1.34-.04-.22,0-.35,0-.99,.02v1.47c.16,.34,.22,.66,.22,1.06,0,.86-.41,1.61-1.13,2.13-.32,.22-.68,.4-1.38,.65-.18-.38-.26-.49-.49-.74,.66-.15,.98-.28,1.35-.52,.56-.38,.85-.81,.9-1.35-.22,.43-.64,.67-1.19,.67-.81,0-1.41-.57-1.41-1.34,0-.82,.64-1.4,1.54-1.4,.37,0,.66,.1,.85,.27t0-.1v-.78c-1.28,.02-3.21,.12-3.71,.2l-.02-.8Zm2.14,2.54c0,.42,.3,.7,.73,.7,.49,0,.84-.34,.84-.81,0-.18-.05-.3-.16-.39-.14-.14-.35-.22-.59-.22-.46,0-.82,.3-.82,.71Z"/><path class="cls-4" d="M139.11,178.04c.26,.04,.41,.05,.85,.05,.73,0,1.67-.04,2.46-.1,.26-.02,.33-.03,.45-.1l.43,.6c-.12,.06-.17,.1-.41,.33-1.11,1.06-1.98,1.77-2.54,2.1l.02,.02c.68-.31,1.16-.42,1.8-.42,1.34,0,2.21,.69,2.21,1.75,0,.74-.38,1.33-1.07,1.72-.52,.29-1.16,.44-1.88,.44-.64,0-1.17-.12-1.48-.34-.3-.21-.48-.54-.48-.9,0-.61,.55-1.06,1.29-1.06,.55,0,1.04,.24,1.36,.66,.16,.21,.25,.38,.37,.74,.27-.09,.43-.17,.6-.29,.31-.23,.49-.57,.49-.95,0-.7-.62-1.13-1.64-1.13-1.17,0-2.38,.5-3.33,1.35l-.46-.71c.72-.38,2.6-1.93,3.64-2.99,.02-.02,.11-.11,.14-.14h0c-.29,.03-1.14,.09-2.36,.14-.18,0-.24,.02-.4,.04l-.04-.82Zm1.65,4.73c-.33,0-.54,.16-.54,.42,0,.35,.41,.57,1.08,.57,.16,0,.21,0,.46-.03-.16-.63-.5-.95-1-.95Z"/></g><rect class="cls-5" x="66.09" y="64.34" width="46.41" height="64.83" rx="3" ry="3"/><g><path class="cls-3" d="M95,106.8c-.23,0-.45-.06-.66-.19l-5.07-3.07-5.02,3.06c-.21,.12-.43,.19-.66,.19h0c-.38,0-.76-.18-1-.49-.24-.31-.33-.69-.24-1.07l1.35-5.77-4.47-3.84c-.4-.34-.54-.86-.38-1.36,.16-.49,.58-.83,1.1-.87l5.91-.5,2.27-5.41c.2-.48,.65-.77,1.17-.77s.97,.3,1.17,.77l2.31,5.45,5.86,.47c.52,.04,.94,.37,1.1,.87,.16,.5,.02,1.02-.38,1.36l-4.49,3.89,1.36,5.72c.09,.39,0,.77-.24,1.07-.24,.31-.62,.49-1,.49Z"/><path class="cls-1" d="M89.29,86.75c.46,0,.92,.25,1.12,.74l2.31,5.45,5.91,.5c1.08,.09,1.52,1.43,.7,2.14l-4.49,3.89,1.35,5.77c.19,.82-.45,1.5-1.19,1.5-.21,0-.43-.06-.63-.18l-5.07-3.07-5.07,3.06c-.21,.13-.42,.18-.63,.18-.73,0-1.38-.68-1.19-1.5l1.35-5.77-4.49-3.89c-.82-.71-.38-2.05,.7-2.14l5.91-.5,2.31-5.44c.21-.5,.67-.74,1.12-.74m0-.1c-.54,0-1.01,.31-1.22,.8l-2.29,5.39-5.85,.5c-.54,.04-.98,.39-1.15,.9-.17,.52-.02,1.06,.39,1.41l4.44,3.85-1.33,5.71c-.09,.4,0,.8,.25,1.12,.25,.32,.64,.51,1.04,.51,.24,0,.47-.07,.69-.2l5.02-3.03,5.02,3.04c.21,.13,.45,.2,.69,.2,.4,0,.79-.19,1.04-.51,.25-.32,.34-.71,.25-1.12l-1.33-5.71,4.44-3.85c.41-.36,.56-.9,.39-1.41-.17-.51-.61-.86-1.15-.9l-5.85-.5-2.29-5.4c-.21-.5-.67-.8-1.22-.8h0Z"/></g></svg>