<?xml version="1.0" encoding="UTF-8"?><svg id="_イヤー_1" xmlns="http://www.w3.org/2000/svg" viewBox="0 0 178.58 249.45"><defs><style>.cls-1{fill:#fff;}.cls-2{letter-spacing:0em;}.cls-3{fill:#040000;font-family:HiraginoSans-W6, 'HiraginoSans W6-90ms-RKSJ-H';font-size:12px;}.cls-4{letter-spacing:-.08em;}.cls-5{letter-spacing:-.04em;}.cls-6{fill:#2ea7e0;}.cls-7{letter-spacing:-.01em;}.cls-8{letter-spacing:-.02em;}.cls-9{letter-spacing:-.09em;}.cls-10{fill:#7f8080;font-family:HiraginoSans-W5, 'HiraginoSans W5-90ms-RKSJ-H';font-size:8px;}</style></defs><g><path class="cls-1" d="M13.95,3.09H164.63c6,0,10.86,4.87,10.86,10.86V235.5c0,6-4.87,10.86-10.86,10.86H13.95c-6,0-10.86-4.87-10.86-10.86V13.95C3.09,7.96,7.96,3.09,13.95,3.09Z"/><path class="cls-6" d="M164.63,6.18c4.29,0,7.77,3.49,7.77,7.77V235.5c0,4.29-3.49,7.77-7.77,7.77H13.95c-4.29,0-7.77-3.49-7.77-7.77V13.95c0-4.29,3.49-7.77,7.77-7.77H164.63m0-6.18H13.95C6.25,0,0,6.25,0,13.95V235.5c0,7.71,6.25,13.95,13.95,13.95H164.63c7.71,0,13.95-6.25,13.95-13.95V13.95c0-7.71-6.25-13.95-13.95-13.95h0Z"/></g><path class="cls-6" d="M13.95,0H30V16.05c0,7.7-6.25,13.95-13.95,13.95H0V13.95C0,6.25,6.25,0,13.95,0Z"/><text class="cls-3" transform="translate(14.52 169.34)"><tspan class="cls-7" x="0" y="0">ゴー</tspan><tspan x="23.76" y="0">ル①</tspan></text><text class="cls-10" transform="translate(15 184.15)"><tspan class="cls-4" x="0" y="0">星と</tspan><tspan class="cls-8" x="14.72" y="0">愛を</tspan><tspan x="30.4" y="0">手</tspan><tspan class="cls-2" x="38.4" y="0">に</tspan><tspan x="46.32" y="0">入れた人が勝利</tspan><tspan class="cls-9" x="102.32" y="0">す</tspan><tspan class="cls-5" x="109.6" y="0">る</tspan></text></svg>