<?xml version="1.0" encoding="UTF-8"?><svg id="Layer_1" xmlns="http://www.w3.org/2000/svg" viewBox="0 0 178.58 249.45"><defs><style>.cls-1{fill:#fff;}.cls-2{fill:#ffa914;}.cls-3{fill:gray;}.cls-4{fill:#4d4d4d;}.cls-5{opacity:.9;}</style></defs><g><rect class="cls-1" x="3.09" y="3.09" width="172.4" height="243.27" rx="10.86" ry="10.86"/><path class="cls-2" d="M164.63,6.18c4.29,0,7.77,3.49,7.77,7.77V235.5c0,4.29-3.49,7.77-7.77,7.77H13.95c-4.29,0-7.77-3.49-7.77-7.77V13.95c0-4.29,3.49-7.77,7.77-7.77H164.63m0-6.18H13.95C6.25,0,0,6.25,0,13.95V235.5C0,243.2,6.25,249.45,13.95,249.45H164.63c7.71,0,13.95-6.25,13.95-13.95V13.95c0-7.71-6.25-13.95-13.95-13.95h0Z"/></g><g><path class="cls-2" d="M37.18,15.88c-1.05,0-1.5,.01-2.05,.06v-2.23c.7,.08,1.09,.1,2.09,.1h6.94c.41-.01,.61-.05,.87-.14l1.22,1.37c-.2,.19-.27,.28-.58,.81-1.3,2.19-2.34,3.45-4.02,4.85,.54,.65,.9,1.1,1.51,1.93l-1.9,1.48c-.76-1.24-1.39-2.12-2.45-3.31-1.03-1.18-1.62-1.76-2.55-2.52l1.74-1.22c1.04,.85,1.46,1.24,2.19,2.01,.72-.6,1.52-1.41,1.98-2,.32-.39,.66-.94,.81-1.23l-5.8,.03Z"/><path class="cls-2" d="M56.56,24.11c-1.1-1.39-2.22-2.5-3.64-3.6-1.19,1.41-2.7,2.52-4.66,3.47-.44-.89-.71-1.27-1.42-2,1.65-.63,2.95-1.46,4.1-2.56,1.18-1.13,1.95-2.25,2.55-3.72l-3.29,.05c-1.09,.02-1.49,.05-2.01,.13l-.06-2.25c.49,.06,.84,.09,1.33,.09,.1,0,.34,0,.71-.01l4.33-.06c.6-.01,.67-.01,1.01-.14l1.11,1.14c-.19,.19-.27,.32-.46,.75-.67,1.58-1.15,2.47-1.86,3.42,1.53,1.1,2.05,1.55,4.03,3.43l-1.77,1.88Z"/><path class="cls-2" d="M63.15,15.06c.04-.49,.06-1.23,.06-1.62,0-.27,0-.37-.04-.63l2.38,.06c-.06,.29-.06,.33-.14,1.53q-.01,.34-.04,.65h2.76c.42,0,.57-.03,.85-.14l.99,.86c-.14,.25-.17,.36-.18,.94-.09,2.71-.28,4.83-.53,5.66-.37,1.18-.98,1.58-2.38,1.58-.49,0-.68-.01-1.66-.1-.05-1.01-.14-1.43-.43-2.23,.63,.17,1.25,.25,1.65,.25,.61,0,.76-.2,.92-1.3,.13-.85,.24-2.45,.24-3.53h-2.42q-.1,.84-.19,1.27c-.56,2.56-1.76,4.21-4.33,5.9-.57-.9-.95-1.33-1.65-1.93,1.69-.89,2.66-1.79,3.29-3.07,.32-.65,.46-1.1,.63-2.17h-1.58c-.85,0-1.11,.01-1.71,.08v-2.17c.62,.09,.85,.1,1.75,.1h1.75Z"/><path class="cls-2" d="M71.53,17.25c.6,.09,1.28,.11,2.6,.11h6.06c1.27,0,1.75-.03,2.6-.11v2.44c-.61-.06-1.16-.08-2.61-.08h-6.03c-1.42,0-1.84,.01-2.61,.08v-2.44Z"/><path class="cls-2" d="M85.38,24.05c.05-.53,.06-.9,.08-1.94v-7.37c-.01-1.09-.01-1.15-.09-1.84h2.45c-.05,.33-.05,.53-.06,1.85v1.74c2,.65,3.99,1.55,5.76,2.64l-1.2,2.15c-1.05-.75-2.52-1.56-3.99-2.2-.38-.15-.42-.16-.46-.19-.04-.01-.06-.03-.11-.06v3.29c0,.94,.03,1.61,.08,1.94h-2.44Zm5.73-10.44c.49,.56,.9,1.14,1.25,1.81l-1.2,.58c-.42-.8-.75-1.27-1.25-1.85l1.2-.54Zm1.69-.76c.47,.51,.82,.99,1.27,1.76l-1.17,.57c-.44-.8-.8-1.31-1.24-1.81l1.14-.52Z"/></g><path class="cls-2" d="M13.95,0H30V16.05c0,7.7-6.25,13.95-13.95,13.95H0V13.95C0,6.25,6.25,0,13.95,0Z"/><g class="cls-5"><path class="cls-1" d="M15,19.78c-.1,0-.19-.04-.26-.1l-6.73-4.47s-.03-.1-.03-.2,.04-.19,.11-.26l6.58-4.37c.14-.13,.23-.16,.33-.16s.19,.04,.26,.1l6.73,4.49s.03,.1,.03,.2-.04,.19-.11,.26l-6.58,4.35c-.14,.13-.23,.17-.33,.17Z"/><path class="cls-1" d="M15.08,10.66h0m-.08,.07s.04,.03,.07,.05l6.36,4.23-6.36,4.21s-.05,.03-.07,.05c-.02-.02-.05-.03-.07-.05l-6.36-4.21,6.36-4.23s.05-.03,.07-.05m0-.98c-.21,0-.43,.08-.59,.24l-6.65,4.43c-.32,.32-.32,.86,0,1.18l6.65,4.41c.16,.16,.38,.24,.59,.24s.43-.08,.59-.24l6.65-4.41c.32-.32,.32-.86,0-1.18l-6.65-4.43c-.16-.16-.38-.24-.59-.24h0Z"/></g><g><path d="M25.21,162.25c-.1,.22-.12,.38-.13,.8-.04,1.36-.17,3.2-.29,3.99-.31,2.07-.73,2.57-2.17,2.57-.46,0-.86-.04-1.49-.13-.02-.76-.06-.98-.28-1.54,.71,.19,1.19,.28,1.58,.28,.52,0,.7-.26,.89-1.31,.14-.83,.26-2.46,.26-3.84h-2.79c-.17,1.51-.42,2.41-.96,3.44-.66,1.27-1.73,2.36-3.24,3.32-.41-.64-.58-.83-1.08-1.27,1.5-.79,2.48-1.74,3.12-3.02,.32-.66,.5-1.25,.61-2.09,.02-.17,.05-.29,.06-.37h-1.99c-.73,.01-.9,.02-1.29,.07v-1.48c.4,.07,.72,.1,1.32,.1h2.1c.04-.47,.06-1.16,.06-1.51v-.3c0-.16,0-.25-.04-.47l1.61,.04c-.02,.16-.04,.2-.05,.37,0,.07-.01,.14-.01,.23q-.02,.25-.05,.88c-.01,.26-.01,.37-.05,.76h2.66c.54-.01,.65-.02,.95-.12l.68,.6Z"/><path d="M27.05,163.9c.53,.07,.75,.08,1.94,.08h6.39c1.19,0,1.42-.01,1.94-.08v1.67c-.48-.06-.61-.06-1.96-.06h-6.37c-1.34,0-1.48,0-1.96,.06v-1.67Z"/><path d="M40.13,169.88c.05-.34,.07-.66,.07-1.34v-7.69c-.01-.7-.02-.94-.07-1.22h1.64c-.04,.32-.05,.55-.05,1.26v2.23c1.39,.46,3.55,1.46,5.45,2.53l-.84,1.42c-.84-.6-2.54-1.52-4.25-2.29-.28-.13-.31-.14-.41-.2,.04,.34,.05,.54,.05,.82v3.17c0,.65,.01,.98,.05,1.33h-1.64Zm4.94-9.63c.53,.56,.85,1.02,1.26,1.76l-.84,.44c-.4-.73-.73-1.21-1.26-1.79l.84-.42Zm1.86,1.45c-.36-.66-.76-1.22-1.22-1.74l.8-.42c.54,.55,.88,1.01,1.25,1.69l-.83,.47Z"/><path d="M49.36,160.71c.49,.11,1.26,.16,2.78,.16,.32-.72,.43-1.08,.48-1.49l1.57,.17q-.07,.12-.48,1.08c-.06,.13-.08,.17-.11,.22q.1-.01,.76-.05c1.39-.08,2.48-.22,3.14-.41l.08,1.37q-.34,.02-.95,.1c-.88,.11-2.4,.2-3.61,.24-.35,.68-.68,1.16-1.1,1.6v.02q.1-.06,.25-.18c.44-.34,1.08-.54,1.69-.54,.94,0,1.52,.44,1.72,1.27,.92-.34,1.54-.55,1.83-.65,.65-.23,.7-.24,.89-.36l.56,1.38c-.34,.05-.7,.14-1.33,.32-.17,.05-.77,.25-1.8,.61v.13q.01,.31,.01,.48v.48c-.01,.2-.01,.31-.01,.4,0,.26,.01,.43,.04,.64l-1.39,.04c.05-.22,.07-.83,.07-1.39v-.29c-.59,.28-.9,.44-1.15,.62-.42,.31-.62,.64-.62,.98,0,.62,.58,.88,2.03,.88s2.67-.18,3.53-.5l.12,1.55c-.2,0-.26,.01-.55,.05-.86,.13-2.02,.22-3.07,.22-1.27,0-2.06-.14-2.67-.5-.55-.31-.88-.89-.88-1.55,0-.49,.14-.88,.53-1.33,.54-.67,1.22-1.13,2.58-1.69-.06-.44-.3-.65-.73-.65-.7,0-1.54,.42-2.46,1.24-.5,.42-.78,.72-1.04,1.09l-1.09-1.08c.31-.24,.66-.58,1.08-1.07,.47-.55,1.2-1.6,1.44-2.05q.05-.1,.1-.16s-.2,.01-.2,.01c-.19,0-1.25-.02-1.51-.02q-.23-.01-.34-.01s-.11,0-.19,.01l.02-1.37Z"/><path d="M64.01,169.55c.07-.47,.1-.94,.1-1.57v-6.6h-.58c-.44,0-.79,.02-1.24,.07v-1.52c.37,.06,.64,.07,1.2,.07h1.1c.61,0,.79-.01,1.22-.06-.07,.71-.1,1.26-.1,1.98v6.06c0,.64,.02,1.08,.1,1.57h-1.81Z"/><path d="M73.34,162.62c.44,1,.77,1.46,1.57,2.3-.3,.37-.54,.76-.74,1.18-.47-.68-.67-1.07-.94-1.7,.06,.6,.07,.92,.07,1.32v3.35c0,.55,.02,.94,.07,1.31h-1.4c.05-.35,.07-.76,.07-1.29v-2.19c0-.79,.01-1.13,.06-1.88-.42,1.3-.73,2-1.3,2.83-.22-.49-.42-.82-.75-1.19,.89-1.14,1.56-2.59,1.88-4.02h-.41c-.4,0-.68,.01-.96,.06v-1.28c.3,.05,.54,.06,.98,.06h.48v-1.12c0-.48-.01-.77-.07-1.09h1.42c-.06,.34-.07,.62-.07,1.1v1.1h.54c.38,0,.6-.01,.9-.06v1.27c-.34-.04-.59-.05-.88-.05h-.53Zm7.96-.06c-.31-.04-.55-.05-1.09-.06-.28,2.09-.66,3.26-1.46,4.52,.78,.84,1.55,1.37,2.78,1.93-.28,.36-.47,.76-.68,1.32-1.42-.83-1.96-1.25-2.88-2.22-.86,.92-1.8,1.57-3.25,2.24-.23-.48-.4-.76-.74-1.18,1.42-.54,2.33-1.13,3.19-2.07-.6-.89-1.07-1.9-1.35-2.87-.2,.34-.29,.46-.56,.83-.28-.4-.48-.62-.9-1.04,.55-.66,1-1.48,1.36-2.48,.25-.7,.5-1.74,.54-2.27l1.39,.25c-.07,.18-.12,.34-.2,.68-.1,.35-.2,.73-.34,1.16h2.88c.61,0,.98-.02,1.33-.07v1.32Zm-4.74,.14c.26,1.26,.66,2.23,1.37,3.29,.54-.97,.82-1.93,1.02-3.49h-2.3l-.08,.2Z"/><path d="M85.58,161.12c-.32,0-.68,.02-1.15,.06v-1.44c.35,.05,.6,.06,1.13,.06h1.91c.49,0,.82-.01,1.09-.06-.04,.35-.04,.46-.04,.76,0,1.7,.43,3.29,1.28,4.75,.5,.84,1.09,1.56,1.92,2.3,.61,.56,.96,.82,1.78,1.3-.46,.44-.68,.76-1.02,1.35-1.2-.84-2.1-1.71-2.92-2.82-.44-.59-.71-1.04-1.05-1.77-.31-.66-.42-.96-.61-1.7-.43,1.54-.91,2.55-1.71,3.62-.77,1-1.67,1.83-2.97,2.71-.25-.53-.53-.89-.98-1.26,1.02-.59,1.61-1.04,2.41-1.88,.94-.97,1.67-2.25,2.05-3.55,.24-.83,.35-1.45,.4-2.42h-1.5Z"/><path d="M99.25,161.22c-1.57,.14-2.17,.18-3.74,.22q-.13-.49-.44-1.24h.59c1.72,0,3.93-.17,5.37-.41,1.14-.19,1.57-.3,2.22-.58l.98,1.2c-1.03,.26-2.66,.56-3.63,.67v1.56h2.48c.68,0,1.1-.02,1.5-.07v1.34c-.41-.05-.86-.07-1.48-.07h-2.51v1.45h3.07c.67,0,1.07-.02,1.46-.07v1.36c-.42-.05-.82-.07-1.46-.07h-3.07v2.35c0,.53-.17,.9-.47,1.03-.28,.12-.79,.19-1.34,.19-.36,0-.95-.02-1.63-.08-.06-.53-.13-.8-.36-1.31,.86,.12,1.51,.17,2,.17,.35,0,.46-.08,.46-.37v-1.98h-3.35c-.66,0-1.06,.02-1.47,.07v-1.36c.4,.05,.79,.07,1.47,.07h3.35v-1.45h-2.67c-.53,0-1.09,.02-1.5,.07v-1.34c.4,.05,.8,.07,1.49,.07h2.69v-1.43Z"/></g><g><path class="cls-3" d="M18.45,178.32c0-.3-.02-.53-.06-.78h.89c-.04,.26-.06,.46-.06,.78v5.05h2.11v-3.62c0-.33-.02-.53-.05-.76h.85c-.03,.28-.05,.49-.05,.76v4.03c0,.35,.02,.61,.06,.92h-.81v-.61h-4.87v.61h-.8c.03-.3,.05-.54,.05-.9v-4.02c0-.28-.02-.56-.05-.79h.84c-.03,.22-.04,.44-.04,.78v3.61h1.98v-5.05Z"/><path class="cls-3" d="M26.17,178.99c.27,0,.41,0,.62-.04v.73c-.2-.03-.34-.04-.6-.04h-.66c.35,.82,.78,1.42,1.37,1.94-.16,.22-.25,.4-.37,.73-.54-.64-.76-.99-1.08-1.74,.02,.3,.02,.46,.02,.57q0,.39,.02,.86v1.98c0,.36,0,.59,.05,.82h-.82c.03-.22,.05-.47,.05-.82v-1.88c0-.3,.02-1.13,.05-1.45-.34,1.01-.7,1.7-1.28,2.41-.11-.27-.22-.46-.42-.71,.42-.42,.72-.86,1.07-1.55,.17-.34,.3-.66,.46-1.16h-.7c-.26,0-.38,0-.54,.04v-.73c.16,.03,.3,.04,.59,.04h.75v-.82c0-.3,0-.48-.05-.7h.83c-.04,.22-.05,.4-.05,.71v.82h.68Zm1.96-1.49c-.03,.26-.05,.58-.05,.88v5.23c0,.22,.11,.26,.78,.26,.42,0,.62-.04,.71-.14,.12-.16,.15-.5,.17-1.61,.27,.14,.45,.2,.74,.26-.04,1.14-.12,1.62-.34,1.89-.2,.26-.54,.33-1.47,.33-.46,0-.84-.04-.99-.1-.26-.11-.35-.26-.35-.59v-5.52c0-.3-.02-.61-.06-.88h.86Z"/><path class="cls-3" d="M31.26,179.64c.29,0,1.06-.09,1.74-.18,.14-.75,.22-1.37,.22-1.63,0-.03,0-.08,0-.14l.88,.09c-.02,.1-.04,.16-.06,.26q-.03,.15-.06,.28t-.14,.78c-.03,.18-.03,.2-.06,.31,.22-.02,.34-.02,.52-.02,.5,0,.88,.13,1.13,.38,.28,.29,.38,.66,.38,1.37,0,1.33-.22,2.41-.58,2.85-.22,.26-.45,.36-.85,.36-.33,0-.69-.08-1.21-.27,0-.13,.02-.23,.02-.3,0-.14-.02-.27-.06-.55,.43,.21,.9,.34,1.17,.34,.26,0,.4-.18,.53-.62,.13-.42,.21-1.18,.21-1.88,0-.74-.22-.99-.88-.99-.17,0-.3,0-.51,.03-.32,1.33-.63,2.23-1.14,3.29-.06,.13-.24,.48-.53,1.06l-.78-.44c.24-.3,.56-.88,.83-1.48,.35-.78,.54-1.31,.82-2.37-.62,.09-1.2,.19-1.51,.27l-.08-.79Zm5.45-.77c.81,.92,1.3,1.81,1.66,3l-.75,.39c-.15-.65-.34-1.15-.66-1.74-.3-.56-.55-.91-.93-1.31l.67-.34Z"/><path class="cls-3" d="M40.64,179.21c-.11,.44-.23,1.1-.37,2.05-.02,.14-.02,.18-.06,.28,.5-.5,1.51-.83,2.51-.83,1.33,0,2.2,.64,2.2,1.62,0,.58-.3,1.14-.79,1.48-.53,.36-1.18,.53-2.05,.53-.69,0-1.11-.06-2.03-.29,0-.4-.02-.54-.09-.86,.72,.26,1.43,.4,2.1,.4,1.18,0,2.01-.5,2.01-1.24,0-.58-.54-.93-1.43-.93-.99,0-2.01,.4-2.43,.96l-.86-.02c.02-.14,.02-.18,.06-.47,.08-.58,.18-1.29,.34-2.28,.03-.18,.04-.28,.06-.45l.83,.05Zm.21-1.49c.52,.3,2.01,.75,2.87,.89l-.28,.76c-1.42-.34-2.05-.55-2.98-.98l.39-.66Z"/><path class="cls-3" d="M47.41,177.93c.22,.04,.39,.05,.74,.05h.64c.35,0,.47,0,.75-.04-.05,.49-.06,.86-.06,1.33v3.98c0,.4,.02,.66,.06,.98h-1.03c.05-.3,.06-.59,.06-.98v-4.5h-.4c-.27,0-.5,.02-.77,.05v-.86Z"/><path class="cls-3" d="M54.55,179.6c.28,.7,.52,1.06,1.06,1.61-.17,.18-.29,.37-.42,.64-.34-.46-.51-.76-.7-1.25,.02,.42,.04,.7,.04,1.02v2.38c0,.36,0,.6,.05,.82h-.79c.03-.22,.05-.47,.05-.82v-1.77c0-.54,0-.85,.03-1.35-.28,.95-.54,1.54-.96,2.17-.14-.28-.26-.44-.45-.65,.59-.75,1.08-1.81,1.3-2.8h-.32c-.28,0-.47,0-.65,.04v-.72c.2,.03,.37,.04,.66,.04h.37v-.82c0-.3,0-.49-.05-.7h.8c-.03,.22-.04,.4-.04,.71v.81h.38c.26,0,.42,0,.64-.04v.71c-.22-.02-.41-.03-.62-.03h-.38Zm5.32-.05c-.2-.02-.4-.04-.78-.04-.09,.7-.16,1.05-.33,1.58-.18,.59-.38,1.01-.69,1.49,.53,.62,1.08,1.02,1.94,1.43-.15,.18-.27,.4-.41,.72-.93-.55-1.37-.9-1.97-1.57-.57,.66-1.18,1.1-2.2,1.58-.13-.27-.25-.46-.43-.66,.56-.22,.86-.37,1.24-.63,.37-.26,.68-.54,.96-.86-.44-.66-.76-1.34-.96-2.05-.16,.26-.22,.37-.43,.65-.15-.22-.26-.34-.51-.56,.38-.46,.66-.99,.91-1.67,.18-.5,.34-1.16,.35-1.52l.78,.14c-.04,.11-.07,.21-.14,.46-.06,.23-.15,.57-.23,.82h2.02c.4,0,.64-.02,.86-.05v.74Zm-3.12-.04c-.04,.09-.05,.11-.09,.2,.2,.88,.47,1.52,.98,2.28,.42-.74,.62-1.38,.76-2.48h-1.65Z"/><path class="cls-3" d="M60.8,179.88c.36,.04,.58,.06,1.1,.06h3.82c.42,0,.54,0,.74-.06l.39,.45c-.07,.13-.11,.22-.22,.5-.44,1.19-1.04,2.05-1.9,2.69-.57,.42-1.09,.68-2.02,1.02-.14-.33-.22-.44-.51-.78,.98-.24,1.64-.55,2.26-1.1,.61-.52,.95-1.03,1.31-1.98h-3.9c-.63,0-.81,0-1.09,.04v-.83Zm.68-1.9c.34,.05,.43,.06,1,.06h2.54c.48,0,.64,0,1.01-.06v.84c-.31-.03-.53-.04-1-.04h-2.55c-.42,0-.6,0-.99,.04v-.84Z"/><path class="cls-3" d="M67.91,183.29c.65-.02,1.62-.27,2.35-.6,1-.44,1.75-1.05,2.38-1.94,.36-.53,.59-.96,.84-1.62,.26,.33,.37,.42,.7,.66-.66,1.45-1.42,2.37-2.49,3.1-.81,.55-1.8,.94-3.02,1.2-.3,.06-.34,.07-.5,.13l-.25-.93Zm.61-4.96c.91,.57,1.42,.95,2.02,1.53l-.58,.71c-.62-.66-1.26-1.18-1.99-1.6l.55-.64Z"/><path class="cls-3" d="M80.99,179.09c-.1,.13-.11,.18-.24,.53-.22,.61-.65,1.52-1,2.08-.81,1.29-1.9,2.2-3.6,2.98-.21-.35-.3-.47-.55-.7,.69-.27,1.09-.49,1.6-.82,.58-.39,.94-.7,1.34-1.18-.57-.5-1.09-.87-1.7-1.21l.52-.58c.67,.38,1.05,.64,1.67,1.14,.4-.62,.73-1.3,.97-2.03l-2.6,.02c-.56,.86-1.1,1.47-1.88,2.11-.22-.25-.32-.33-.67-.54,.86-.64,1.52-1.38,2.02-2.29,.24-.43,.4-.81,.46-1.1l.88,.21q-.09,.14-.26,.49c-.1,.22-.16,.32-.22,.4,.05,0,.16,0,.33-.02l2.4-.03c-.2-.34-.4-.62-.67-.94l.5-.25c.38,.42,.55,.68,.83,1.2l-.35,.19,.22,.31Zm.37-1.96c.38,.42,.55,.66,.82,1.17l-.49,.28c-.25-.46-.47-.8-.82-1.2l.48-.25Z"/><path class="cls-3" d="M85.25,177.97c-.09,.17-.1,.22-.21,.56-.54,1.79-1.1,3.38-1.62,4.62,1.29-.1,2.73-.28,3.55-.45-.36-.73-.83-1.55-1.18-2.04l.75-.3c.74,1.06,1.45,2.39,1.95,3.65l-.8,.42q-.1-.32-.42-1.02-.1,.02-.28,.06c-.88,.18-2.18,.35-4.57,.58-.48,.05-.57,.06-.72,.1l-.11-.91q.1,0,.19,0c.16,0,.25,0,.71-.03,.45-1.06,.77-1.94,1.18-3.2,.38-1.21,.54-1.78,.6-2.25l.98,.2Z"/><path class="cls-3" d="M90.91,177.91c-.17,.41-.34,1.18-.44,1.95-.09,.64-.14,1.49-.15,2.18v.72h.02c.07-.35,.12-.5,.43-1.23l.55,.25c-.41,.86-.69,1.81-.69,2.33,0,.03,0,.1,0,.18l-.82,.06c0-.14-.02-.18-.04-.35-.15-.93-.21-1.52-.21-2.36,0-1.06,.1-1.93,.34-3.12,.08-.42,.1-.5,.11-.71l.89,.11Zm2.1,3.3c-.4,.46-.58,.82-.58,1.17,0,.5,.47,.76,1.38,.76,.71,0,1.4-.1,1.88-.3l.07,.86c-.1,.02-.13,.02-.3,.05-.61,.1-1.11,.15-1.65,.15-.96,0-1.58-.22-1.92-.66-.16-.2-.25-.5-.25-.78,0-.48,.23-.98,.72-1.57l.65,.32Zm-1.2-2.53c.42,.1,.75,.13,1.36,.13,.98,0,1.78-.08,2.24-.22l.04,.82c-.06,0-.1,0-.56,.06-.5,.06-1.11,.1-1.7,.1-.46,0-.82-.02-1.17-.06-.11,0-.14-.02-.22-.02v-.8Z"/><path class="cls-3" d="M99.23,179.22c.03-.38,.05-.8,.05-1.14,0-.2,0-.26-.02-.42l.9,.02c-.03,.17-.03,.22-.07,1,0,.14,0,.24-.03,.54h1.86c.36-.02,.42-.02,.59-.08l.39,.35c-.06,.13-.07,.22-.08,.5-.05,1.76-.19,3.04-.41,3.61-.2,.51-.5,.7-1.12,.7-.29,0-.57-.03-1-.11,0-.41-.02-.54-.14-.85,.46,.14,.78,.2,1.05,.2,.36,0,.48-.18,.62-.92,.11-.58,.19-1.68,.19-2.68h-2.01c-.06,.57-.07,.62-.14,.91-.22,1.03-.65,1.83-1.36,2.57-.41,.42-.74,.69-1.28,1.02-.22-.34-.31-.44-.59-.69,.98-.52,1.65-1.18,2.08-2.05,.26-.53,.35-.88,.46-1.74h-1.38c-.5,0-.58,0-.86,.05v-.83c.27,.05,.46,.06,.86,.06h1.44Z"/><path class="cls-3" d="M104.23,180.61c.3,.04,.64,.06,1.23,.06h4.33c.69,0,.88,0,1.19-.05v.93c-.35-.03-.61-.04-1.2-.04h-4.31c-.67,0-.91,0-1.24,.04v-.94Z"/><path class="cls-3" d="M112.94,184.46c.04-.34,.05-.54,.05-1.02v-4.77c0-.55,0-.73-.05-.95h.95c-.04,.26-.05,.53-.05,.98v1.35c1.14,.4,2.26,.93,3.6,1.69l-.47,.79c-.35-.24-.57-.38-.98-.61-.61-.33-1.48-.76-1.92-.94q-.13-.06-.26-.14l.02,.31c0,.07,0,.32,0,.4v1.9c0,.42,.02,.72,.05,1.02h-.94Zm3.37-6.36c.38,.42,.55,.68,.83,1.2l-.5,.27c-.26-.5-.49-.83-.83-1.22l.5-.25Zm.94-.46c.38,.42,.55,.66,.82,1.17l-.49,.28c-.25-.46-.47-.8-.82-1.2l.48-.25Z"/><path class="cls-3" d="M120.87,178.6c.22-.5,.32-.78,.34-1.03l.88,.11c-.05,.07-.06,.1-.1,.18q-.09,.21-.25,.58s-.05,.1-.06,.14t.06,0h.04s.18,0,.4-.02c.86-.03,1.7-.14,2.13-.27l.05,.76q-.18,.02-.62,.07c-.56,.07-1.59,.14-2.37,.16-.28,.54-.53,.9-.86,1.25v.02q.06-.05,.18-.13c.35-.27,.78-.42,1.21-.42,.3,0,.59,.1,.78,.26,.18,.15,.27,.32,.33,.61,.65-.24,1.08-.4,1.29-.47,.41-.14,.44-.15,.57-.23l.33,.77c-.45,.08-.98,.25-2.1,.66q0,.29,0,.43v.38c0,.14,0,.22,0,.28,0,.15,0,.27,.02,.39l-.78,.02c.02-.16,.05-.61,.05-1.04v-.19c-.98,.45-1.34,.77-1.34,1.19,0,.48,.42,.66,1.54,.66,.84,0,1.71-.13,2.21-.33l.08,.86c-.14,0-.18,0-.35,.04-.59,.09-1.34,.14-1.99,.14-.81,0-1.33-.1-1.73-.32-.35-.2-.56-.56-.56-.98,0-.74,.66-1.38,2.05-1.97-.04-.34-.22-.51-.54-.51-.48,0-1.07,.29-1.7,.83-.32,.27-.5,.47-.66,.7l-.62-.62c.38-.28,.86-.83,1.29-1.46,.1-.15,.26-.42,.5-.81h-.91c-.2-.02-.35-.02-.46-.02h-.05s-.06,0-.12,0l.02-.76c.4,.07,.83,.1,1.56,.1h.29Z"/><path class="cls-3" d="M128.25,178.59c-.19,0-.41,.02-.7,.04v-.8c.19,.03,.36,.04,.69,.04h1.18c.36,0,.55,0,.74-.04-.02,.18-.02,.34-.02,.5,0,1.07,.26,2.08,.78,3.01,.32,.57,.72,1.08,1.25,1.58,.43,.42,.7,.62,1.31,.98-.28,.26-.38,.4-.58,.75-.88-.62-1.51-1.25-2.09-2.07-.5-.71-.81-1.4-1.03-2.29-.27,1.05-.6,1.76-1.13,2.49-.52,.71-1.14,1.28-2.02,1.89-.15-.3-.3-.47-.57-.69,.74-.44,1.16-.78,1.7-1.38,.62-.68,1.07-1.5,1.32-2.34,.17-.58,.23-1,.26-1.68h-1.09Z"/><path class="cls-3" d="M137.42,178.69q-.16,.02-.6,.06c-.41,.05-1.22,.09-1.95,.11-.06-.29-.1-.38-.26-.7h.3c1.09,0,2.57-.12,3.55-.29,.77-.14,1.18-.25,1.58-.42l.56,.66c-1.09,.28-1.7,.4-2.42,.49v1.16h1.77c.42,0,.69-.02,.94-.05v.77c-.25-.03-.54-.05-.93-.05h-1.78v1.08h2.13c.42,0,.68-.02,.93-.05v.77c-.27-.03-.52-.05-.93-.05h-2.13v1.68c0,.57-.23,.74-.98,.74-.34,0-.84-.02-1.23-.06-.03-.3-.07-.45-.2-.74,.46,.08,1.01,.13,1.37,.13,.22,0,.3-.06,.3-.25v-1.5h-2.33c-.4,0-.66,.02-.92,.05v-.77c.25,.03,.5,.05,.92,.05h2.33v-1.08h-1.89c-.34,0-.66,.02-.94,.05v-.77c.25,.03,.51,.05,.94,.05h1.89v-1.07Z"/><path class="cls-3" d="M142.04,178.75c.17,.02,.23,.02,.36,.02,.22,0,.54,0,1.43-.05q.52-.02,1.93-.06c0-.68-.02-.82-.05-1.02h.85c-.03,.24-.04,.38-.04,1.01,1.46,0,2.06-.02,2.34-.06v.78c-.29-.03-.66-.04-1.34-.04-.22,0-.35,0-.99,.02v1.47c.16,.34,.22,.66,.22,1.06,0,.86-.41,1.61-1.13,2.13-.32,.22-.68,.4-1.38,.65-.18-.38-.26-.49-.49-.74,.66-.15,.98-.28,1.35-.52,.56-.38,.85-.81,.9-1.35-.22,.43-.64,.67-1.19,.67-.81,0-1.41-.57-1.41-1.34,0-.82,.64-1.4,1.54-1.4,.37,0,.66,.1,.85,.27t0-.1v-.78c-1.28,.02-3.21,.12-3.71,.2l-.02-.8Zm2.14,2.54c0,.42,.3,.7,.73,.7,.49,0,.84-.34,.84-.81,0-.18-.05-.3-.16-.39-.14-.14-.35-.22-.59-.22-.46,0-.82,.3-.82,.71Z"/><path class="cls-3" d="M150.5,178.04c.26,.04,.41,.05,.85,.05,.73,0,1.67-.04,2.46-.1,.26-.02,.33-.03,.45-.1l.43,.6c-.12,.06-.17,.1-.41,.33-1.11,1.06-1.98,1.77-2.54,2.1l.02,.02c.68-.31,1.16-.42,1.8-.42,1.34,0,2.21,.69,2.21,1.75,0,.74-.38,1.33-1.07,1.72-.52,.29-1.16,.44-1.88,.44-.64,0-1.17-.12-1.48-.34-.3-.21-.48-.54-.48-.9,0-.61,.55-1.06,1.29-1.06,.55,0,1.04,.24,1.36,.66,.16,.21,.25,.38,.37,.74,.27-.09,.43-.17,.6-.29,.31-.23,.49-.57,.49-.95,0-.7-.62-1.13-1.64-1.13-1.17,0-2.38,.5-3.33,1.35l-.46-.71c.72-.38,2.6-1.93,3.64-2.99,.02-.02,.11-.11,.14-.14h0c-.29,.03-1.14,.09-2.36,.14-.18,0-.24,.02-.4,.04l-.04-.82Zm1.65,4.73c-.33,0-.54,.16-.54,.42,0,.35,.41,.57,1.08,.57,.16,0,.21,0,.46-.03-.16-.63-.5-.95-1-.95Z"/></g><rect class="cls-4" x="66.09" y="64.34" width="46.41" height="64.83" rx="3" ry="3"/><path class="cls-1" d="M87.68,93.92l-4.47-4.47c-.39-.39-1.02-.39-1.41,0s-.39,1.02,0,1.41l4.46,4.46,1.42-1.4Zm4.76-4.32l1.19,1.19-11.84,11.84c-.39,.39-.39,1.02,0,1.41s1.02,.39,1.41,0l11.85-11.83,1.19,1.19c.31,.31,.85,.09,.85-.36v-3.79c0-.28-.22-.5-.5-.5h-3.79c-.45,0-.67,.54-.36,.85Zm-.52,8.56l-1.41,1.41,3.13,3.13-1.2,1.2c-.31,.31-.09,.85,.36,.85h3.79c.28,0,.5-.22,.5-.5v-3.79c0-.45-.54-.67-.85-.35l-1.19,1.19-3.13-3.14Z"/></svg>