<?xml version="1.0" encoding="UTF-8"?><svg id="_イヤー_1" xmlns="http://www.w3.org/2000/svg" viewBox="0 0 281.94 249.45"><defs><style>.cls-1{fill:#fff;}.cls-2{letter-spacing:-.1em;}.cls-3{opacity:.9;}.cls-4{letter-spacing:0em;}.cls-5{letter-spacing:-.09em;}.cls-6{letter-spacing:-.02em;}.cls-7{letter-spacing:-.06em;}.cls-8{letter-spacing:-.07em;}.cls-9{letter-spacing:-.05em;}.cls-10{letter-spacing:-.48em;}.cls-11{letter-spacing:0em;}.cls-12{letter-spacing:-.04em;}.cls-13{letter-spacing:-.07em;}.cls-14{fill:#040000;font-family:HiraginoSans-W6, 'HiraginoSans W6-90ms-RKSJ-H';font-size:12px;}.cls-15{letter-spacing:-.06em;}.cls-16{letter-spacing:-.08em;}.cls-17{letter-spacing:-.03em;}.cls-18{fill:#4e4d4d;}.cls-19{letter-spacing:-.02em;}.cls-20{letter-spacing:-.04em;}.cls-21{letter-spacing:-.1em;}.cls-22{letter-spacing:-.04em;}.cls-23{letter-spacing:-.04em;}.cls-24{letter-spacing:-.07em;}.cls-25{letter-spacing:-.08em;}.cls-26{fill:#ccc;}.cls-27{letter-spacing:-.08em;}.cls-28{fill:#f5a524;}.cls-29{letter-spacing:-.15em;}.cls-30{letter-spacing:-.01em;}.cls-31{letter-spacing:-.02em;}.cls-32{letter-spacing:-.09em;}.cls-33{fill:#f2f2f2;}.cls-34{letter-spacing:-.06em;}.cls-35{fill:#7f8080;font-family:HiraginoSans-W5, 'HiraginoSans W5-90ms-RKSJ-H';font-size:8px;}</style></defs><g><path class="cls-1" d="M117.31,3.09h150.68c6,0,10.86,4.87,10.86,10.86V235.5c0,6-4.87,10.86-10.86,10.86H117.31c-6,0-10.86-4.87-10.86-10.86V13.95c0-6,4.87-10.86,10.86-10.86Z"/><path class="cls-28" d="M267.99,6.18c4.29,0,7.77,3.49,7.77,7.77V235.5c0,4.29-3.49,7.77-7.77,7.77H117.31c-4.29,0-7.77-3.49-7.77-7.77V13.95c0-4.29,3.49-7.77,7.77-7.77h150.68m0-6.18H117.31c-7.71,0-13.95,6.25-13.95,13.95V235.5c0,7.71,6.25,13.95,13.95,13.95h150.68c7.71,0,13.95-6.25,13.95-13.95V13.95c0-7.71-6.25-13.95-13.95-13.95h0Z"/></g><g><path class="cls-28" d="M140.54,15.88c-1.05,0-1.5,.01-2.05,.06v-2.23c.7,.08,1.09,.1,2.09,.1h6.94c.41-.01,.61-.05,.87-.14l1.22,1.37c-.2,.19-.27,.28-.58,.81-1.3,2.19-2.34,3.45-4.02,4.85,.54,.65,.9,1.1,1.51,1.93l-1.9,1.48c-.76-1.24-1.39-2.12-2.45-3.31-1.03-1.18-1.62-1.76-2.55-2.52l1.74-1.22c1.04,.85,1.46,1.24,2.19,2.01,.72-.6,1.52-1.41,1.98-2,.32-.39,.66-.94,.81-1.23l-5.8,.03Z"/><path class="cls-28" d="M159.92,24.11c-1.1-1.39-2.22-2.5-3.64-3.6-1.19,1.41-2.7,2.52-4.66,3.47-.44-.89-.71-1.27-1.42-2,1.65-.63,2.95-1.46,4.1-2.56,1.18-1.13,1.95-2.25,2.55-3.72l-3.29,.05c-1.09,.02-1.49,.05-2.01,.13l-.06-2.25c.49,.06,.84,.09,1.33,.09,.1,0,.34,0,.71-.01l4.33-.06c.6-.01,.67-.01,1.01-.14l1.11,1.14c-.19,.19-.27,.32-.46,.75-.67,1.58-1.15,2.47-1.86,3.42,1.53,1.1,2.05,1.55,4.03,3.43l-1.77,1.88Z"/><path class="cls-28" d="M166.51,15.06c.04-.49,.06-1.23,.06-1.62,0-.27,0-.37-.04-.63l2.38,.06c-.06,.29-.06,.33-.14,1.53q-.01,.34-.04,.65h2.76c.42,0,.57-.03,.85-.14l.99,.86c-.14,.25-.17,.36-.18,.94-.09,2.71-.28,4.83-.53,5.66-.37,1.18-.98,1.58-2.38,1.58-.49,0-.68-.01-1.66-.1-.05-1.01-.14-1.43-.43-2.23,.63,.17,1.25,.25,1.65,.25,.61,0,.76-.2,.92-1.3,.13-.85,.24-2.45,.24-3.53h-2.42q-.1,.84-.19,1.27c-.56,2.56-1.76,4.21-4.33,5.9-.57-.9-.95-1.33-1.65-1.93,1.69-.89,2.66-1.79,3.29-3.07,.32-.65,.46-1.1,.63-2.17h-1.58c-.85,0-1.11,.01-1.71,.08v-2.17c.62,.09,.85,.1,1.75,.1h1.75Z"/><path class="cls-28" d="M174.89,17.25c.6,.09,1.28,.11,2.6,.11h6.06c1.27,0,1.75-.03,2.6-.11v2.44c-.61-.06-1.16-.08-2.61-.08h-6.03c-1.42,0-1.84,.01-2.61,.08v-2.44Z"/><path class="cls-28" d="M188.74,24.05c.05-.53,.06-.9,.08-1.94v-7.37c-.01-1.09-.01-1.15-.09-1.84h2.45c-.05,.33-.05,.53-.06,1.85v1.74c2,.65,3.99,1.55,5.76,2.64l-1.2,2.15c-1.05-.75-2.52-1.56-3.99-2.2-.38-.15-.42-.16-.46-.19-.04-.01-.06-.03-.11-.06v3.29c0,.94,.03,1.61,.08,1.94h-2.44Zm5.73-10.44c.49,.56,.9,1.14,1.25,1.81l-1.2,.58c-.42-.8-.75-1.27-1.25-1.85l1.2-.54Zm1.69-.76c.47,.51,.82,.99,1.27,1.76l-1.17,.57c-.44-.8-.8-1.31-1.24-1.81l1.14-.52Z"/></g><path class="cls-28" d="M117.31,0h16.05V16.05c0,7.7-6.25,13.95-13.95,13.95h-16.05V13.95C103.36,6.25,109.61,0,117.31,0Z"/><g class="cls-3"><path class="cls-1" d="M118.36,19.78c-.1,0-.19-.04-.26-.11l-6.73-4.47c-.07-.08-.07-.31,.07-.45l6.58-4.37c.14-.13,.23-.17,.33-.17s.19,.04,.26,.11l6.73,4.49c.07,.08,.07,.31-.07,.45l-6.58,4.35c-.14,.13-.23,.17-.33,.17Z"/><path class="cls-1" d="M118.44,10.66h0m-.08,.07s.04,.03,.07,.05l6.36,4.23-6.36,4.21s-.05,.03-.07,.05c-.02-.02-.05-.03-.07-.05l-6.36-4.21,6.36-4.23s.05-.03,.07-.05m0-.98c-.21,0-.43,.08-.59,.24l-6.65,4.43c-.32,.32-.32,.86,0,1.18l6.65,4.41c.16,.16,.38,.24,.59,.24s.43-.08,.59-.24l6.65-4.41c.32-.32,.32-.86,0-1.18l-6.65-4.43c-.16-.16-.38-.24-.59-.24h0Z"/></g><text class="cls-14" transform="translate(117.76 169.34)"><tspan class="cls-8" x="0" y="0">プ</tspan><tspan class="cls-6" x="11.16" y="0">レ</tspan><tspan class="cls-15" x="22.92" y="0">イ</tspan><tspan class="cls-17" x="34.2" y="0">ヤ</tspan><tspan class="cls-4" x="45.84" y="0">ー</tspan><tspan class="cls-12" x="57.72" y="0">の</tspan><tspan class="cls-29" x="69.24" y="0">ア</tspan><tspan class="cls-21" x="79.44" y="0">イ</tspan><tspan class="cls-27" x="90.24" y="0">テ</tspan><tspan class="cls-20" x="101.28" y="0">ム</tspan><tspan class="cls-31" x="112.8" y="0">を</tspan><tspan class="cls-5" x="124.56" y="0">奪う</tspan></text><text class="cls-35" transform="translate(118.36 184.15)"><tspan x="0" y="0">他</tspan><tspan class="cls-9" x="8" y="0">の</tspan><tspan class="cls-13" x="15.6" y="0">プ</tspan><tspan class="cls-19" x="23.04" y="0">レ</tspan><tspan class="cls-7" x="30.88" y="0">イ</tspan><tspan class="cls-17" x="38.4" y="0">ヤ</tspan><tspan class="cls-11" x="46.16" y="0">ー</tspan><tspan x="54.08" y="0">1</tspan><tspan class="cls-19" x="58.49" y="0">人を</tspan><tspan x="74.17" y="0">指</tspan><tspan class="cls-2" x="82.17" y="0">定</tspan><tspan class="cls-24" x="89.37" y="0">し</tspan><tspan class="cls-10" x="96.81" y="0">、</tspan><tspan class="cls-31" x="-.16" y="9.6">そ</tspan><tspan class="cls-9" x="7.68" y="9.6">の</tspan><tspan class="cls-13" x="15.28" y="9.6">プ</tspan><tspan class="cls-31" x="22.72" y="9.6">レ</tspan><tspan class="cls-34" x="30.56" y="9.6">イ</tspan><tspan class="cls-17" x="38.08" y="9.6">ヤ</tspan><tspan class="cls-30" x="45.84" y="9.6">ー</tspan><tspan class="cls-22" x="53.76" y="9.6">の</tspan><tspan class="cls-29" x="61.44" y="9.6">ア</tspan><tspan class="cls-2" x="68.24" y="9.6">イ</tspan><tspan class="cls-25" x="75.44" y="9.6">テ</tspan><tspan class="cls-23" x="82.8" y="9.6">ム</tspan><tspan class="cls-31" x="90.48" y="9.6">を</tspan><tspan x="0" y="19.2">1枚</tspan><tspan class="cls-19" x="12.41" y="19.2">選</tspan><tspan class="cls-16" x="20.25" y="19.2">ん</tspan><tspan x="27.61" y="19.2">で</tspan><tspan class="cls-32" x="35.61" y="19.2">奪う</tspan></text><path class="cls-18" d="M206.72,93.23h-32.68c-1.63,0-2.97,1.34-2.97,2.97s1.34,2.97,2.97,2.97h32.68v5.31c0,1.34,1.6,1.99,2.52,1.04l8.25-8.28c.56-.59,.56-1.51,0-2.11l-8.25-8.28c-.92-.95-2.52-.27-2.52,1.04v5.34Z"/><rect class="cls-26" x="137.43" y="84.31" width="19.29" height="26.94" rx="3" ry="3" transform="translate(-7.96 13.19) rotate(-5)"/><g><rect class="cls-26" x="137.05" y="81.88" width="19.77" height="28.6" rx="3" ry="3" transform="translate(-7.82 13.17) rotate(-5)"/><path class="cls-33" d="M147.2,99.15l2.27,1.16c.42,.21,.87-.19,.72-.65l-.79-2.49,1.75-1.88c.32-.34,.08-.92-.38-.91h-2.53l-1.19-2.31c-.21-.42-.82-.37-.95,.08l-.77,2.48-2.49,.44c-.45,.08-.59,.69-.21,.97l2.05,1.54-.35,2.59c-.06,.47,.45,.79,.82,.51l2.04-1.53Z"/></g></svg>