<?xml version="1.0" encoding="UTF-8"?><svg id="Layer_1" xmlns="http://www.w3.org/2000/svg" viewBox="0 0 178.58 249.45"><defs><style>.cls-1{fill:#fff;}.cls-2{fill:#ffa914;}.cls-3{fill:#ff3126;}.cls-4{fill:gray;}.cls-5{opacity:.9;}</style></defs><g><rect class="cls-1" x="3.09" y="3.09" width="172.4" height="243.27" rx="10.86" ry="10.86"/><path class="cls-2" d="M164.63,6.18c4.29,0,7.77,3.49,7.77,7.77V235.5c0,4.29-3.49,7.77-7.77,7.77H13.95c-4.29,0-7.77-3.49-7.77-7.77V13.95c0-4.29,3.49-7.77,7.77-7.77H164.63M164.63,0H13.95C6.25,0,0,6.25,0,13.95V235.5C0,243.2,6.25,249.45,13.95,249.45H164.63c7.71,0,13.95-6.25,13.95-13.95V13.95C178.58,6.25,172.34,0,164.63,0h0Z"/></g><g><path class="cls-2" d="M37.18,15.88c-1.05,0-1.5,.01-2.05,.06v-2.23c.7,.08,1.09,.1,2.09,.1h6.94c.41-.01,.61-.05,.87-.14l1.22,1.37c-.2,.19-.27,.28-.58,.81-1.3,2.19-2.34,3.45-4.02,4.85,.54,.65,.9,1.1,1.51,1.93l-1.9,1.48c-.76-1.24-1.39-2.12-2.45-3.31-1.03-1.18-1.62-1.76-2.55-2.52l1.74-1.22c1.04,.85,1.46,1.24,2.19,2.01,.72-.6,1.52-1.41,1.98-2,.32-.39,.66-.94,.81-1.23l-5.8,.03Z"/><path class="cls-2" d="M56.56,24.11c-1.1-1.39-2.22-2.5-3.64-3.6-1.19,1.41-2.7,2.52-4.66,3.47-.44-.89-.71-1.27-1.42-2,1.65-.63,2.95-1.46,4.1-2.56,1.18-1.13,1.95-2.25,2.55-3.72l-3.29,.05c-1.09,.02-1.49,.05-2.01,.13l-.06-2.25c.49,.06,.84,.09,1.33,.09,.1,0,.34,0,.71-.01l4.33-.06c.6-.01,.67-.01,1.01-.14l1.11,1.14c-.19,.19-.27,.32-.46,.75-.67,1.58-1.15,2.47-1.86,3.42,1.53,1.1,2.05,1.55,4.03,3.43l-1.77,1.88Z"/><path class="cls-2" d="M63.15,15.06c.04-.49,.06-1.23,.06-1.62,0-.27,0-.37-.04-.63l2.38,.06c-.06,.29-.06,.33-.14,1.53q-.01,.34-.04,.65h2.76c.42,0,.57-.03,.85-.14l.99,.86c-.14,.25-.17,.36-.18,.94-.09,2.71-.28,4.83-.53,5.66-.37,1.18-.98,1.58-2.38,1.58-.49,0-.68-.01-1.66-.1-.05-1.01-.14-1.43-.43-2.23,.63,.17,1.25,.25,1.65,.25,.61,0,.76-.2,.92-1.3,.13-.85,.24-2.45,.24-3.53h-2.42q-.1,.84-.19,1.27c-.56,2.56-1.76,4.21-4.33,5.9-.57-.9-.95-1.33-1.65-1.93,1.69-.89,2.66-1.79,3.29-3.07,.32-.65,.46-1.1,.63-2.17h-1.58c-.85,0-1.11,.01-1.71,.08v-2.17c.62,.09,.85,.1,1.75,.1h1.75Z"/><path class="cls-2" d="M71.53,17.25c.6,.09,1.28,.11,2.6,.11h6.06c1.27,0,1.75-.03,2.6-.11v2.44c-.61-.06-1.16-.08-2.61-.08h-6.03c-1.42,0-1.84,.01-2.61,.08v-2.44Z"/><path class="cls-2" d="M85.38,24.05c.05-.53,.06-.9,.08-1.94v-7.37c-.01-1.09-.01-1.15-.09-1.84h2.45c-.05,.33-.05,.53-.06,1.85v1.74c2,.65,3.99,1.55,5.76,2.64l-1.2,2.15c-1.05-.75-2.52-1.56-3.99-2.2-.38-.15-.42-.16-.46-.19-.04-.01-.06-.03-.11-.06v3.29c0,.94,.03,1.61,.08,1.94h-2.44Zm5.73-10.44c.49,.56,.9,1.14,1.25,1.81l-1.2,.58c-.42-.8-.75-1.27-1.25-1.85l1.2-.54Zm1.69-.76c.47,.51,.82,.99,1.27,1.76l-1.17,.57c-.44-.8-.8-1.31-1.24-1.81l1.14-.52Z"/></g><path class="cls-2" d="M13.95,0H30V16.05c0,7.7-6.25,13.95-13.95,13.95H0V13.95C0,6.25,6.25,0,13.95,0Z"/><g class="cls-5"><path class="cls-1" d="M15,19.78c-.1,0-.19-.04-.26-.1l-6.73-4.47s-.03-.1-.03-.2,.04-.19,.11-.26l6.58-4.37c.14-.13,.23-.17,.33-.17s.19,.04,.26,.11l6.73,4.49s.03,.1,.03,.2-.04,.19-.11,.26l-6.58,4.35c-.14,.13-.23,.17-.33,.17Z"/><path class="cls-1" d="M15.08,10.66h0m-.08,.07s.04,.03,.07,.05l6.36,4.23-6.36,4.21s-.05,.03-.07,.05c-.02-.02-.05-.03-.07-.05l-6.36-4.21,6.36-4.23s.05-.03,.07-.05m0-.98c-.21,0-.43,.08-.59,.24l-6.65,4.43c-.32,.32-.32,.86,0,1.18l6.65,4.41c.16,.16,.38,.24,.59,.24s.43-.08,.59-.24l6.65-4.41c.32-.32,.32-.86,0-1.18l-6.65-4.43c-.16-.16-.38-.24-.59-.24h0Z"/></g><g><path d="M20.84,160.58c-.04,.23-.04,.24-.05,.97-.05,2.05-.37,3.2-1.19,4.25-.72,.92-1.6,1.54-3.09,2.16-.31-.65-.47-.86-.95-1.37,.97-.29,1.51-.55,2.1-1.02,1.22-.97,1.61-2,1.61-4.27,0-.36-.01-.47-.06-.72h1.63Zm4.87-1.51c-.17,.2-.17,.22-.48,.84-.42,.89-1.12,1.79-1.85,2.41-.48,.42-.88,.68-1.44,1-.36-.5-.54-.68-1.08-1.09,.8-.36,1.26-.64,1.75-1.1,.49-.46,.86-.95,1.14-1.52h-6.3c-.84,0-1.14,.01-1.63,.07v-1.5c.46,.07,.83,.1,1.66,.1h6.26c.72,0,.83-.01,1.16-.11l.8,.91Z"/><path d="M35.61,158.56c-.2,.18-.26,.23-.44,.42-.9,.94-1.8,1.71-2.83,2.47v5.12c0,.66,.01,1.01,.06,1.33h-1.68c.06-.35,.07-.59,.07-1.29v-4.22c-1.4,.84-2.07,1.15-4.28,1.94-.25-.62-.38-.83-.8-1.37,2.37-.65,4.39-1.64,6.3-3.12,1.07-.83,1.88-1.65,2.23-2.24l1.38,.96Z"/><path d="M42.98,162.44c-.06,1.38-.32,2.38-.84,3.23-.64,1.06-1.51,1.71-3.13,2.36-.3-.61-.46-.82-.97-1.32,1.44-.44,2.34-1.08,2.84-2,.31-.55,.49-1.33,.53-2.27h-2.93c-.82,0-1.09,.01-1.52,.06v-1.43c.46,.07,.72,.08,1.55,.08h7.02c.82,0,1.09-.01,1.55-.08v1.43c-.43-.05-.71-.06-1.52-.06h-2.57Zm-4.81-4.39c.44,.07,.68,.08,1.55,.08h4.61c.86,0,1.1-.01,1.55-.08v1.46c-.4-.05-.68-.06-1.52-.06h-4.65c-.84,0-1.13,.01-1.52,.06v-1.46Z"/><path d="M52.96,157.95c-.13,.26-.14,.29-.31,.86-.91,3-1.61,4.99-2.38,6.84,1.88-.14,3.96-.4,4.99-.61-.13-.29-.28-.55-.56-1.09-.53-1-.74-1.34-1.14-1.91l1.35-.53c1.12,1.63,2.17,3.65,2.9,5.55l-1.45,.76q-.16-.49-.58-1.49-.16,.04-.43,.1c-1.21,.25-3.2,.5-6.79,.85-.67,.06-.85,.08-1.09,.14l-.22-1.62h.31c.24,0,.53-.01,1.03-.04,.64-1.51,1.12-2.87,1.74-4.83,.56-1.76,.79-2.61,.88-3.32l1.74,.34Z"/><path d="M59.15,158.71c.49,.11,1.26,.16,2.78,.16,.32-.72,.43-1.08,.48-1.49l1.57,.17q-.07,.12-.48,1.08c-.06,.13-.08,.17-.11,.22q.1-.01,.76-.05c1.39-.08,2.48-.22,3.14-.41l.08,1.37q-.34,.02-.95,.1c-.88,.11-2.4,.2-3.61,.24-.35,.68-.68,1.16-1.1,1.6v.02q.1-.06,.25-.18c.44-.34,1.08-.54,1.69-.54,.94,0,1.52,.44,1.72,1.27,.92-.34,1.54-.55,1.83-.65,.65-.23,.7-.24,.89-.36l.56,1.38c-.34,.05-.7,.14-1.33,.32-.17,.05-.77,.25-1.8,.61v.13q.01,.31,.01,.48v.48c-.01,.2-.01,.31-.01,.4,0,.26,.01,.43,.04,.64l-1.39,.04c.05-.22,.07-.83,.07-1.39v-.29c-.59,.28-.9,.44-1.15,.62-.42,.31-.62,.64-.62,.98,0,.62,.58,.88,2.03,.88s2.67-.18,3.53-.5l.12,1.55c-.2,0-.26,.01-.55,.05-.86,.13-2.02,.22-3.07,.22-1.27,0-2.06-.14-2.67-.5-.55-.31-.88-.89-.88-1.55,0-.49,.14-.88,.53-1.33,.54-.67,1.22-1.13,2.58-1.69-.06-.44-.3-.65-.73-.65-.7,0-1.54,.42-2.46,1.24-.5,.42-.78,.72-1.04,1.09l-1.09-1.08c.31-.24,.66-.58,1.08-1.07,.47-.55,1.2-1.6,1.44-2.05q.05-.1,.1-.16s-.2,.01-.2,.01c-.19,0-1.25-.02-1.51-.02q-.23-.01-.34-.01s-.11,0-.19,.01l.02-1.37Z"/><path d="M76.7,161.99s.01,.14,.01,.29c.26,.55,.38,1.04,.38,1.69,0,1.31-.62,2.43-1.79,3.24-.5,.35-1.06,.6-2.17,.98-.34-.74-.46-.92-.85-1.36,.98-.19,1.48-.36,2.04-.7,.82-.47,1.3-1.08,1.39-1.75-.35,.55-.97,.85-1.76,.85-.55,0-.98-.13-1.39-.43-.56-.41-.83-.94-.83-1.62,0-1.27,1-2.18,2.39-2.18,.52,0,.97,.13,1.25,.36q-.01-.06-.01-.14s-.01-.7-.01-1.02c-1.72,.05-2.84,.08-3.37,.12q-1.81,.13-2.13,.18l-.05-1.43c.26,.02,.37,.02,.59,.02,.3,0,.49,0,2.04-.06,.78-.02,.9-.02,1.88-.05q.4-.01,1.02-.04-.01-1.14-.07-1.45h1.51c-.05,.36-.05,.38-.06,1.42,2.09-.01,3.02-.04,3.47-.08v1.38c-.43-.04-1.01-.06-2-.06-.29,0-.5,0-1.45,.02v1.81Zm-2.46,.12c-.61,0-1.12,.43-1.12,.96s.42,.95,1.02,.95c.68,0,1.18-.46,1.18-1.08,0-.5-.42-.83-1.08-.83Z"/><path d="M80.04,163.56c.5-.35,1.24-1.16,2.61-2.94,.31-.38,.52-.6,.74-.76,.32-.24,.66-.36,.96-.36,.36,0,.72,.16,1.08,.46,.17,.14,.43,.42,.8,.86,1.49,1.79,4.2,4.38,4.89,4.68l-.73,1.7c-.12-.14-.14-.17-.35-.35-1.7-1.52-3.3-3.15-4.67-4.76-.74-.85-.82-.91-1.04-.91-.19,0-.31,.11-.72,.65-.92,1.24-1.57,2.04-2.36,2.9-.14,.17-.16,.18-.25,.34l-.97-1.51Zm8.02-4.56c.52,.56,.85,1.02,1.26,1.76l-.84,.44c-.4-.73-.74-1.21-1.26-1.79l.84-.42Zm1.86,1.45c-.36-.66-.76-1.22-1.22-1.74l.8-.42c.54,.55,.88,1.01,1.25,1.69l-.83,.47Z"/><path d="M91.94,159c.26,.01,.4,.01,.46,.01q.22,0,1.98-.12c.67-.04,2.66-.14,5.99-.3,.98-.05,1.16-.06,1.38-.12l.08,1.54q-.13-.01-.25-.01c-.72,0-1.61,.24-2.38,.65-1.52,.79-2.42,1.99-2.42,3.2,0,.94,.59,1.66,1.59,1.96,.59,.18,1.36,.31,1.79,.31,.01,0,.12,0,.24-.01l-.22,1.63c-.14-.04-.2-.05-.41-.07-1.32-.17-2.08-.38-2.81-.79-1.1-.62-1.71-1.64-1.71-2.89,0-1.02,.41-2.03,1.14-2.83,.46-.49,.89-.8,1.67-1.2-.97,.14-1.44,.18-4.04,.37-.8,.06-1.52,.14-1.99,.24l-.08-1.56Z"/><path d="M108.61,161.67c-.49,0-.67,.01-.94,.05v-.82c-.3,.23-.47,.34-.88,.59-.22-.44-.3-.59-.5-.86-.14-.02-.26-.02-.53-.02h-.18v1.92c.2-.08,.36-.14,.79-.32v1.19c-.29,.11-.38,.14-.59,.23-.05,.01-.11,.05-.2,.08v3.41c0,.92-.28,1.15-1.4,1.15-.22,0-.42,0-.92-.02-.04-.49-.1-.77-.26-1.22,.38,.06,.77,.08,1.01,.08,.26,0,.32-.06,.32-.32v-2.61c-.72,.23-1.13,.36-1.24,.41l-.17-1.31c.4-.04,.74-.12,1.4-.31v-2.34h-.46c-.3,0-.55,.01-.83,.05v-1.27c.28,.05,.48,.06,.84,.06h.44v-.92c0-.59-.02-.89-.07-1.24h1.39c-.05,.34-.06,.65-.06,1.22v.94h.18c.25,0,.43-.01,.62-.04v.84c1.27-.7,2.28-1.72,2.87-2.91h1.38c.37,.64,.78,1.12,1.43,1.65,.65,.55,1.07,.8,2.16,1.27-.28,.42-.35,.55-.64,1.22-.5-.25-.7-.36-1.1-.64v.88c-.26-.04-.42-.05-.91-.05h-1.02v.85h2.03c.59,0,.82-.01,1.16-.06v1.21c-.35-.05-.61-.06-1.16-.06h-4.84c-.53,0-.79,.01-1.12,.06v-1.2c.26,.04,.5,.05,1.02,.05h1.73v-.85h-.76Zm-1.64,6.69c.04-.38,.06-.68,.06-1.19v-2c0-.37-.02-.64-.05-.94,.29,.04,.54,.05,1.01,.05h4.04c.47,0,.7-.01,.94-.05-.04,.25-.05,.55-.05,.91v2.07c0,.5,.01,.78,.06,1.14h-1.32v-.58h-3.41v.58h-1.28Zm2.4-8.25c0-.32-.01-.48-.04-.64h1.26c-.04,.14-.04,.32-.04,.64v.5h1.01c.26,0,.41,0,.58-.01-1-.74-1.6-1.35-2.16-2.21-.55,.9-1.08,1.51-1.93,2.21,.22,.01,.29,.01,.56,.01h.76v-.5Zm-1.12,6.57h3.42v-1.34h-3.42v1.34Z"/><path d="M114.9,159c.26,.01,.4,.01,.46,.01q.22,0,1.98-.12c.67-.04,2.66-.14,5.99-.3,.98-.05,1.16-.06,1.38-.12l.08,1.54q-.13-.01-.25-.01c-.72,0-1.61,.24-2.38,.65-1.52,.79-2.42,1.99-2.42,3.2,0,.94,.59,1.66,1.59,1.96,.59,.18,1.36,.31,1.79,.31,.01,0,.12,0,.24-.01l-.22,1.63c-.14-.04-.2-.05-.41-.07-1.32-.17-2.08-.38-2.81-.79-1.1-.62-1.71-1.64-1.71-2.89,0-1.02,.41-2.03,1.14-2.83,.46-.49,.89-.8,1.67-1.2-.97,.14-1.44,.18-4.04,.37-.8,.06-1.52,.14-1.99,.24l-.08-1.56Z"/><path d="M129.61,162.38c1.09-.43,1.62-.55,2.52-.55,2.05,0,3.37,1.06,3.37,2.7,0,1.14-.56,2.05-1.63,2.65-.78,.44-1.8,.68-2.9,.68-1.01,0-1.85-.19-2.33-.55-.46-.34-.72-.84-.72-1.38,0-1,.86-1.71,2.06-1.71,.84,0,1.57,.35,2.08,.98,.24,.3,.37,.56,.55,1.08,1-.37,1.43-.89,1.43-1.74,0-.94-.92-1.55-2.38-1.55-1.75,0-3.5,.71-4.94,2.02l-.82-1.3c.42-.2,.9-.53,1.69-1.13,1.12-.85,2.67-2.19,3.59-3.12,.02-.02,.14-.14,.22-.22h-.01c-.46,.05-1.22,.1-3.39,.19-.26,.01-.35,.02-.58,.06l-.06-1.44c.41,.05,.75,.07,1.42,.07,1.02,0,2.48-.06,3.65-.14,.42-.04,.55-.06,.74-.16l.74,1.06c-.2,.11-.29,.18-.62,.49-.6,.55-1.47,1.33-1.88,1.68-.22,.18-1.08,.83-1.32,.98q-.3,.2-.49,.31l.02,.02Zm.36,2.99c-.43,0-.71,.22-.71,.55,0,.48,.54,.76,1.43,.76,.23,0,.29,0,.62-.05-.22-.83-.67-1.26-1.34-1.26Z"/></g><g><path class="cls-4" d="M17.82,176.45c.19-.36,.3-.68,.39-1.08l.83,.1c-.15,.41-.27,.68-.42,.98h1.89c.45,0,.69,0,.98-.04-.03,.27-.04,.49-.04,.98v4.39c0,.48,0,.69,.05,.93h-.78v-.43h-4.05v.43h-.77c.03-.21,.05-.51,.05-.93v-4.39c0-.47,0-.7-.04-.98,.29,.03,.51,.04,.97,.04h.95Zm-1.16,1.69h4.06v-1.02h-4.06v1.02Zm0,1.7h4.06v-1.04h-4.06v1.04Zm0,1.77h4.06v-1.11h-4.06v1.11Z"/><path class="cls-4" d="M24.92,178.93c-.28,0-.52,.02-.74,.04v-.65c-.37,.39-.62,.62-1.06,.94-.13-.22-.29-.42-.53-.64,.98-.66,1.66-1.4,2.13-2.31,.19-.36,.28-.6,.32-.82l.82,.3c-.07,.1-.12,.19-.22,.41-.35,.75-.76,1.36-1.37,2.03,.18,.02,.4,.03,.65,.03h2.81c.32,0,.5,0,.74-.02-.59-.63-1.06-1.32-1.43-2.09-.04-.08-.13-.25-.18-.34l.75-.29c.06,.2,.13,.38,.3,.69,.55,.98,1.26,1.73,2.27,2.38-.19,.2-.33,.38-.51,.71-.48-.36-.75-.59-1.11-.96q0,.14-.02,.5c-.02,1.74-.14,2.91-.34,3.32-.16,.3-.42,.41-1.02,.41-.2,0-.36,0-.92-.04-.03-.3-.08-.46-.19-.79,.42,.07,.78,.11,1.03,.11,.3,0,.38-.04,.45-.2,.09-.26,.14-.65,.19-1.3,.03-.4,.05-.82,.05-1.14v-.26h-1.67c-.06,.86-.24,1.43-.62,2.06-.44,.73-1.09,1.29-2.03,1.76-.13-.26-.24-.4-.48-.65,.49-.2,.83-.41,1.23-.76,.58-.5,.95-1.15,1.1-1.92,.02-.15,.04-.23,.06-.5h-.46Z"/><path class="cls-4" d="M33.92,180.17c-.46,1.06-.95,1.52-1.58,1.52-.85,0-1.47-.89-1.47-2.1,0-.86,.3-1.66,.86-2.28,.66-.72,1.58-1.1,2.69-1.1,1.86,0,3.09,1.14,3.09,2.87,0,1.34-.7,2.41-1.9,2.9-.38,.15-.69,.24-1.23,.34-.12-.37-.19-.5-.41-.78,.62-.1,.98-.18,1.33-.33,.86-.37,1.39-1.21,1.39-2.17,0-.83-.39-1.5-1.1-1.87-.27-.14-.49-.2-.86-.22-.14,1.19-.43,2.36-.82,3.22Zm-1.1-2.83c-.73,.49-1.18,1.34-1.18,2.25,0,.7,.3,1.25,.69,1.25,.29,0,.58-.35,.9-1.08,.31-.74,.58-1.85,.69-2.81-.44,.05-.75,.15-1.1,.38Z"/><path class="cls-4" d="M41.7,176.69q-.16,.02-.6,.06c-.41,.05-1.22,.09-1.95,.11-.06-.29-.1-.38-.26-.7h.3c1.1,0,2.57-.12,3.55-.29,.77-.14,1.18-.25,1.58-.42l.56,.66c-1.09,.28-1.69,.4-2.42,.49v1.16h1.77c.42,0,.69-.02,.94-.05v.77c-.25-.03-.54-.05-.93-.05h-1.77v1.08h2.13c.42,0,.68-.02,.93-.05v.77c-.27-.03-.52-.05-.93-.05h-2.13v1.68c0,.57-.23,.74-.98,.74-.34,0-.84-.02-1.23-.06-.03-.3-.07-.45-.2-.74,.46,.08,1.01,.13,1.37,.13,.22,0,.3-.06,.3-.25v-1.5h-2.33c-.4,0-.66,.02-.92,.05v-.77c.25,.03,.5,.05,.92,.05h2.33v-1.08h-1.89c-.34,0-.66,.02-.94,.05v-.77c.25,.03,.51,.05,.94,.05h1.89v-1.07Z"/><path class="cls-4" d="M49.33,176.99c.27,0,.41,0,.62-.04v.73c-.2-.03-.34-.04-.6-.04h-.66c.35,.82,.78,1.42,1.37,1.94-.16,.22-.25,.4-.37,.73-.54-.64-.76-.99-1.08-1.74,.02,.3,.02,.46,.02,.57q0,.39,.02,.86v1.98c0,.36,0,.59,.05,.82h-.82c.03-.22,.05-.47,.05-.82v-1.88c0-.3,.02-1.13,.05-1.45-.34,1.01-.7,1.7-1.28,2.41-.11-.27-.22-.46-.42-.71,.42-.42,.72-.86,1.07-1.55,.17-.34,.3-.66,.46-1.16h-.7c-.26,0-.38,0-.54,.04v-.73c.16,.03,.3,.04,.59,.04h.75v-.82c0-.3,0-.48-.05-.7h.83c-.04,.22-.05,.4-.05,.71v.82h.68Zm1.96-1.49c-.03,.26-.05,.58-.05,.88v5.23c0,.22,.11,.26,.78,.26,.42,0,.62-.04,.71-.14,.12-.16,.15-.5,.17-1.61,.27,.14,.45,.2,.74,.26-.04,1.14-.12,1.62-.34,1.89-.2,.26-.54,.33-1.47,.33-.46,0-.84-.04-.99-.1-.26-.11-.35-.26-.35-.59v-5.52c0-.3-.02-.61-.06-.88h.86Z"/><path class="cls-4" d="M56.14,175.91c-.17,.41-.34,1.18-.44,1.95-.09,.64-.14,1.49-.15,2.18v.72h.02c.07-.35,.12-.5,.43-1.23l.55,.25c-.41,.86-.69,1.81-.69,2.33,0,.03,0,.1,0,.18l-.82,.06c0-.14-.02-.18-.04-.35-.15-.93-.21-1.52-.21-2.36,0-1.06,.1-1.93,.34-3.12,.08-.42,.1-.5,.11-.71l.89,.11Zm2.1,3.3c-.4,.46-.58,.82-.58,1.17,0,.5,.47,.76,1.38,.76,.71,0,1.4-.1,1.88-.3l.07,.86c-.1,.02-.13,.02-.3,.05-.61,.1-1.11,.15-1.65,.15-.96,0-1.58-.22-1.92-.66-.16-.2-.25-.5-.25-.78,0-.48,.23-.98,.72-1.57l.65,.32Zm-1.2-2.53c.42,.1,.75,.13,1.36,.13,.98,0,1.78-.08,2.24-.22l.04,.82c-.06,0-.1,0-.56,.06-.5,.06-1.11,.1-1.69,.1-.46,0-.82-.02-1.17-.06-.11,0-.14-.02-.22-.02v-.8Z"/><path class="cls-4" d="M65.27,177.64q-.02,.14-.03,.61c-.03,1.36-.26,2.14-.8,2.83-.48,.62-1.06,1.02-2.05,1.42-.18-.36-.26-.48-.53-.76,.65-.2,1.02-.38,1.42-.7,.82-.66,1.1-1.4,1.1-2.94,0-.22,0-.29-.03-.45h.91Zm3.21-1.02c-.09,.11-.11,.16-.21,.34-.56,1.14-1.25,1.85-2.3,2.4-.19-.28-.29-.38-.59-.62,.55-.23,.85-.42,1.21-.75,.35-.32,.6-.66,.81-1.07h-4.33c-.51,0-.73,0-1.03,.04v-.85c.29,.04,.54,.06,1.04,.06h4.22c.5,0,.55,0,.74-.06l.45,.51Z"/><path class="cls-4" d="M74.92,176.25c-.14,.12-.15,.13-.36,.34-.52,.55-1.17,1.11-1.84,1.59v3.22c0,.55,.02,.81,.05,1.06h-.95c.04-.3,.05-.47,.05-1.06v-2.69c-.98,.6-1.48,.82-2.94,1.34-.14-.34-.22-.46-.45-.77,1.54-.41,2.9-1.08,4.17-2.07,.72-.56,1.27-1.11,1.5-1.5l.77,.54Z"/><path class="cls-4" d="M79.77,178.84c0,.3-.06,.66-.12,1-.17,.83-.52,1.46-1.09,1.94-.36,.3-.76,.52-1.42,.78-.16-.34-.25-.46-.54-.74,.99-.31,1.61-.77,1.95-1.43,.19-.37,.32-.97,.34-1.55h-1.98c-.55,0-.75,0-1.04,.04v-.83c.32,.05,.57,.06,1.06,.06h4.54c.5,0,.78-.02,1.06-.06v.82c-.26-.02-.62-.04-1.06-.04h-1.72Zm-3.09-2.79c.28,.05,.52,.06,1.06,.06h2.95c.55,0,.78-.02,1.06-.06v.85c-.22-.03-.67-.05-1.06-.05h-2.97c-.47,0-.8,.02-1.04,.04v-.84Z"/><path class="cls-4" d="M86.37,175.97c-.09,.17-.1,.22-.21,.56-.54,1.79-1.1,3.38-1.62,4.62,1.29-.1,2.73-.28,3.55-.45-.36-.73-.83-1.55-1.18-2.04l.75-.3c.74,1.06,1.45,2.39,1.95,3.65l-.8,.42q-.1-.32-.42-1.02-.1,.02-.28,.06c-.88,.18-2.18,.35-4.57,.58-.48,.05-.57,.06-.72,.1l-.11-.91q.1,0,.19,0c.16,0,.25,0,.71-.03,.45-1.06,.77-1.94,1.18-3.2,.38-1.21,.54-1.78,.6-2.25l.98,.2Z"/><path class="cls-4" d="M92.89,177.22c.03-.38,.05-.8,.05-1.14,0-.2,0-.26-.02-.42l.9,.02c-.03,.17-.03,.22-.07,1,0,.14,0,.24-.03,.54h1.86c.36-.02,.42-.02,.59-.08l.39,.35c-.06,.13-.07,.22-.08,.5-.05,1.76-.19,3.04-.41,3.61-.2,.51-.5,.7-1.12,.7-.3,0-.57-.03-1-.11,0-.41-.02-.54-.14-.85,.46,.14,.78,.2,1.05,.2,.36,0,.48-.18,.62-.92,.11-.58,.19-1.68,.19-2.68h-2.01c-.06,.57-.07,.62-.14,.91-.22,1.03-.65,1.83-1.36,2.57-.41,.42-.74,.69-1.28,1.02-.22-.34-.31-.44-.59-.69,.98-.52,1.65-1.18,2.08-2.05,.26-.53,.35-.88,.46-1.74h-1.38c-.5,0-.58,0-.86,.05v-.83c.27,.05,.46,.06,.86,.06h1.44Z"/><path class="cls-4" d="M97.9,178.61c.3,.04,.64,.06,1.23,.06h4.33c.69,0,.88,0,1.19-.05v.93c-.35-.03-.61-.04-1.2-.04h-4.31c-.67,0-.91,0-1.24,.04v-.94Z"/><path class="cls-4" d="M106.61,182.46c.04-.34,.05-.54,.05-1.02v-4.77c0-.55,0-.73-.05-.95h.95c-.04,.26-.05,.53-.05,.98v1.35c1.14,.4,2.26,.93,3.6,1.69l-.47,.79c-.35-.24-.57-.38-.98-.61-.61-.33-1.48-.76-1.92-.94q-.13-.06-.26-.14l.02,.31c0,.07,0,.32,0,.4v1.9c0,.42,.02,.72,.05,1.02h-.94Zm3.37-6.36c.38,.42,.55,.68,.83,1.2l-.5,.27c-.26-.5-.49-.83-.83-1.22l.5-.25Zm.94-.46c.38,.42,.55,.66,.82,1.17l-.49,.28c-.25-.46-.47-.8-.82-1.2l.48-.25Z"/><path class="cls-4" d="M114.54,176.6c.22-.5,.32-.78,.34-1.03l.88,.11c-.05,.07-.06,.1-.1,.18q-.09,.21-.25,.58s-.05,.1-.06,.14t.06,0h.04s.18,0,.4-.02c.86-.03,1.7-.14,2.13-.27l.05,.76q-.18,.02-.62,.07c-.56,.07-1.59,.14-2.37,.16-.28,.54-.53,.9-.86,1.25v.02q.06-.05,.18-.13c.35-.27,.78-.42,1.21-.42,.3,0,.59,.1,.78,.26,.18,.15,.27,.32,.33,.61,.65-.24,1.08-.4,1.29-.47,.41-.14,.44-.15,.57-.23l.33,.77c-.45,.08-.98,.25-2.1,.66q0,.29,0,.43v.38c0,.14,0,.22,0,.28,0,.15,0,.27,.02,.39l-.78,.02c.02-.16,.05-.61,.05-1.04v-.19c-.98,.45-1.34,.77-1.34,1.19,0,.48,.42,.66,1.54,.66,.84,0,1.71-.13,2.21-.33l.08,.86c-.14,0-.18,0-.35,.04-.59,.09-1.34,.14-1.99,.14-.81,0-1.33-.1-1.73-.32-.35-.2-.56-.56-.56-.98,0-.74,.66-1.38,2.05-1.97-.04-.34-.22-.51-.54-.51-.48,0-1.07,.29-1.7,.83-.32,.27-.5,.47-.66,.7l-.62-.62c.38-.28,.86-.83,1.29-1.46,.1-.15,.26-.42,.5-.81h-.91c-.2-.02-.35-.02-.46-.02h-.05s-.06,0-.12,0l.02-.76c.4,.07,.83,.1,1.56,.1h.29Z"/><path class="cls-4" d="M15.32,186.35c.17,.02,.23,.02,.36,.02,.22,0,.54,0,1.43-.05q.52-.02,1.93-.06c0-.68-.02-.82-.05-1.02h.85c-.03,.24-.04,.38-.04,1.01,1.46,0,2.06-.02,2.34-.06v.78c-.29-.03-.66-.04-1.34-.04-.22,0-.35,0-.99,.02v1.47c.16,.34,.22,.66,.22,1.06,0,.86-.41,1.61-1.14,2.13-.32,.22-.68,.4-1.38,.65-.18-.38-.26-.49-.49-.74,.66-.15,.98-.28,1.35-.52,.56-.38,.85-.81,.9-1.35-.22,.43-.64,.67-1.19,.67-.81,0-1.41-.57-1.41-1.34,0-.82,.64-1.4,1.54-1.4,.37,0,.66,.1,.85,.27t0-.1v-.78c-1.28,.02-3.21,.12-3.71,.2l-.02-.8Zm2.14,2.54c0,.42,.3,.7,.73,.7,.49,0,.84-.34,.84-.81,0-.18-.05-.3-.16-.39-.14-.14-.35-.22-.59-.22-.46,0-.82,.3-.82,.71Z"/><path class="cls-4" d="M22.02,189.28c.13-.09,.19-.14,.37-.33,.4-.41,.5-.52,1.32-1.57,.47-.59,.71-.76,1.1-.76,.26,0,.46,.1,.7,.33,.09,.08,.26,.28,.55,.61,.82,.94,1.59,1.71,2.45,2.45,.39,.33,.56,.46,.78,.57l-.4,.95c-.09-.1-.11-.12-.26-.24-.46-.39-1.54-1.41-2.06-1.95-.28-.29-.96-1.05-1.35-1.51-.18-.22-.3-.29-.43-.29-.14,0-.19,.05-.53,.49-.73,.95-.99,1.27-1.55,1.89-.07,.08-.1,.1-.15,.19l-.54-.83Zm5.29-3.13c.38,.42,.55,.68,.83,1.2l-.5,.27c-.26-.5-.49-.83-.83-1.22l.5-.25Zm.94-.46c.38,.42,.55,.66,.82,1.17l-.49,.28c-.25-.46-.47-.8-.82-1.2l.48-.25Z"/><path class="cls-4" d="M29.88,186.29q.15,0,.28,0c.17,0,.26,0,.49-.02,.94-.06,2.84-.18,4.72-.26,.55-.02,.79-.05,.93-.08l.06,.84h-.14c-.45,0-1.01,.14-1.5,.38-1.09,.54-1.76,1.41-1.76,2.27,0,.64,.4,1.14,1.09,1.38,.37,.12,.9,.22,1.18,.22,.03,0,.08,0,.14,0l-.12,.9c-.1-.02-.14-.02-.26-.05-.87-.13-1.34-.27-1.81-.56-.67-.41-1.04-1.05-1.04-1.81s.35-1.47,1.05-2.12c.32-.3,.5-.42,.96-.64-.56,.09-.88,.12-1.73,.18-1.39,.1-2.07,.16-2.49,.25l-.05-.88Z"/><path class="cls-4" d="M40.91,187.9c-.33,0-.46,0-.64,.03v-.58c-.23,.18-.34,.25-.66,.44-.12-.26-.21-.39-.39-.6h-.4v1.45c.21-.09,.29-.12,.58-.25v.66l-.58,.24v2.35c0,.54-.17,.68-.83,.68-.16,0-.3,0-.62-.02-.02-.26-.06-.42-.15-.68,.26,.04,.51,.06,.69,.06s.22-.04,.22-.2v-1.92q-.74,.25-.87,.3l-.11-.74c.28-.02,.47-.07,.98-.24v-1.69h-.34c-.21,0-.38,0-.56,.03v-.71l.1,.02c.17,.02,.26,.02,.46,.02h.34v-.66c0-.38,0-.58-.05-.82h.79c-.04,.23-.05,.43-.05,.82v.66h.18c.18,0,.3,0,.44-.02v.55c.88-.5,1.55-1.17,1.97-1.97h.78c.26,.43,.52,.75,.95,1.12,.47,.41,.82,.62,1.51,.91-.15,.21-.23,.34-.38,.66-.36-.18-.54-.28-.82-.47v.6c-.17-.02-.29-.03-.62-.03h-.71v.7h1.41c.39,0,.56,0,.78-.04v.69c-.22-.03-.41-.04-.78-.04h-3.21c-.34,0-.52,0-.73,.04v-.68c.18,.02,.34,.03,.69,.03h1.18v-.7h-.54Zm-1.09,4.51c.03-.25,.04-.45,.04-.77v-1.31c0-.26,0-.42-.03-.64,.2,.02,.38,.03,.68,.03h2.61c.3,0,.45,0,.62-.03-.02,.17-.03,.38-.03,.62v1.37c0,.31,0,.5,.04,.73h-.74v-.41h-2.48v.41h-.72Zm1.62-5.41c0-.24,0-.37-.02-.48h.71c-.02,.11-.02,.25-.02,.48v.31h.7c.3,0,.41,0,.56-.02-.71-.51-1.16-.97-1.57-1.59-.4,.65-.74,1.02-1.45,1.59,.18,.02,.27,.02,.55,.02h.54v-.31Zm-.9,4.39h2.49v-1.07h-2.49v1.07Z"/><path class="cls-4" d="M45.12,186.29q.15,0,.28,0c.17,0,.26,0,.49-.02,.94-.06,2.84-.18,4.72-.26,.55-.02,.79-.05,.93-.08l.06,.84h-.14c-.45,0-1.01,.14-1.5,.38-1.09,.54-1.76,1.41-1.76,2.27,0,.64,.4,1.14,1.09,1.38,.37,.12,.9,.22,1.18,.22,.03,0,.08,0,.14,0l-.12,.9c-.1-.02-.14-.02-.26-.05-.87-.13-1.34-.27-1.81-.56-.67-.41-1.04-1.05-1.04-1.81s.35-1.47,1.05-2.12c.32-.3,.5-.42,.96-.64-.56,.09-.88,.12-1.73,.18-1.39,.1-2.07,.16-2.49,.25l-.05-.88Z"/><path class="cls-4" d="M53.38,185.64c.26,.04,.41,.05,.85,.05,.73,0,1.67-.04,2.45-.1,.26-.02,.34-.03,.45-.1l.43,.6c-.12,.06-.17,.1-.41,.33-1.11,1.06-1.98,1.77-2.53,2.1l.02,.02c.68-.31,1.16-.42,1.8-.42,1.34,0,2.21,.69,2.21,1.75,0,.74-.38,1.34-1.07,1.72-.52,.29-1.16,.44-1.88,.44-.64,0-1.18-.12-1.48-.34-.3-.21-.48-.54-.48-.9,0-.61,.55-1.06,1.29-1.06,.55,0,1.04,.24,1.36,.66,.16,.21,.25,.38,.37,.74,.27-.09,.43-.17,.6-.29,.31-.23,.49-.57,.49-.95,0-.7-.62-1.13-1.64-1.13-1.18,0-2.38,.5-3.33,1.35l-.46-.71c.72-.38,2.6-1.93,3.64-2.99,.02-.02,.11-.11,.14-.14h0c-.29,.03-1.14,.09-2.36,.14-.18,0-.24,.02-.4,.04l-.04-.82Zm1.65,4.73c-.33,0-.54,.16-.54,.42,0,.35,.41,.57,1.08,.57,.16,0,.21,0,.46-.03-.16-.63-.5-.95-1-.95Z"/></g><path class="cls-3" d="M72.62,116.37c0,3.06,2.5,5.56,5.56,5.56h22.22c3.06,0,5.56-2.5,5.56-5.56v-32.14c0-.66-.54-1.19-1.19-1.19h-30.95c-.66,0-1.19,.54-1.19,1.19v32.14Zm33.16-41.67h-6.78l-1.97-1.97c-.5-.5-1.22-.81-1.94-.81h-11.61c-.72,0-1.44,.31-1.94,.81l-1.97,1.97h-6.78c-1.39,0-2.68,.94-2.91,2.3-.29,1.73,1.05,3.25,2.74,3.25h33.33c1.68,0,3.03-1.52,2.74-3.25-.23-1.37-1.52-2.3-2.91-2.3Z"/></svg>