<?xml version="1.0" encoding="UTF-8"?><svg id="Layer_1" xmlns="http://www.w3.org/2000/svg" viewBox="0 0 178.58 249.45"><defs><style>.cls-1{fill:#f2f2f2;}.cls-2{fill:#e6e6e6;}.cls-3{fill:#fff;}.cls-4{fill:#ffa914;}.cls-5{fill:#999;}.cls-6{fill:#b3b3b3;}.cls-7{fill:#ccc;}.cls-8{fill:gray;}.cls-9{fill:#4d4d4d;}.cls-10{opacity:.9;}</style></defs><g><rect class="cls-3" x="3.09" y="3.09" width="172.41" height="243.27" rx="10.86" ry="10.86"/><path class="cls-4" d="M164.63,6.18c4.29,0,7.77,3.49,7.77,7.77V235.5c0,4.29-3.49,7.77-7.77,7.77H13.95c-4.29,0-7.77-3.49-7.77-7.77V13.95c0-4.29,3.49-7.77,7.77-7.77H164.63M164.63,0H13.95C6.25,0,0,6.25,0,13.95V235.5C0,243.2,6.25,249.45,13.95,249.45H164.63c7.71,0,13.95-6.25,13.95-13.95V13.95C178.58,6.25,172.34,0,164.63,0h0Z"/></g><g><path class="cls-4" d="M37.18,15.88c-1.05,0-1.5,.01-2.05,.06v-2.23c.7,.08,1.09,.1,2.09,.1h6.94c.41-.01,.61-.05,.87-.14l1.22,1.37c-.2,.19-.27,.28-.58,.81-1.3,2.19-2.34,3.45-4.02,4.85,.54,.65,.9,1.1,1.51,1.93l-1.9,1.48c-.76-1.24-1.39-2.12-2.45-3.31-1.03-1.18-1.62-1.76-2.55-2.52l1.74-1.22c1.04,.85,1.46,1.24,2.19,2.01,.72-.6,1.52-1.41,1.98-2,.32-.39,.66-.94,.81-1.23l-5.8,.03Z"/><path class="cls-4" d="M56.56,24.11c-1.1-1.39-2.22-2.5-3.64-3.6-1.19,1.41-2.7,2.52-4.66,3.47-.44-.89-.71-1.27-1.42-2,1.65-.63,2.95-1.46,4.1-2.56,1.18-1.13,1.95-2.25,2.55-3.72l-3.29,.05c-1.09,.02-1.49,.05-2.01,.13l-.06-2.25c.49,.06,.84,.09,1.33,.09,.1,0,.34,0,.71-.01l4.33-.06c.6-.01,.67-.01,1.01-.14l1.11,1.14c-.19,.19-.27,.32-.46,.75-.67,1.58-1.15,2.47-1.86,3.42,1.53,1.1,2.05,1.55,4.03,3.43l-1.77,1.88Z"/><path class="cls-4" d="M63.15,15.06c.04-.49,.06-1.23,.06-1.62,0-.27,0-.37-.04-.63l2.38,.06c-.06,.29-.06,.33-.14,1.53q-.01,.34-.04,.65h2.76c.42,0,.57-.03,.85-.14l.99,.86c-.14,.25-.17,.36-.18,.94-.09,2.71-.28,4.83-.53,5.66-.37,1.18-.98,1.58-2.38,1.58-.49,0-.68-.01-1.66-.1-.05-1.01-.14-1.43-.43-2.23,.63,.17,1.25,.25,1.65,.25,.61,0,.76-.2,.92-1.3,.13-.85,.24-2.45,.24-3.53h-2.42q-.1,.84-.19,1.27c-.56,2.56-1.76,4.21-4.33,5.9-.57-.9-.95-1.33-1.65-1.93,1.69-.89,2.66-1.79,3.29-3.07,.32-.65,.46-1.1,.63-2.17h-1.58c-.85,0-1.11,.01-1.71,.08v-2.17c.62,.09,.85,.1,1.75,.1h1.75Z"/><path class="cls-4" d="M71.53,17.25c.6,.09,1.28,.11,2.6,.11h6.06c1.27,0,1.75-.03,2.6-.11v2.44c-.61-.06-1.16-.08-2.61-.08h-6.03c-1.42,0-1.84,.01-2.61,.08v-2.44Z"/><path class="cls-4" d="M85.38,24.05c.05-.53,.06-.9,.08-1.94v-7.37c-.01-1.09-.01-1.15-.09-1.84h2.45c-.05,.33-.05,.53-.06,1.85v1.74c2,.65,3.99,1.55,5.76,2.64l-1.2,2.15c-1.05-.75-2.52-1.56-3.99-2.2-.38-.15-.42-.16-.46-.19-.04-.01-.06-.03-.11-.06v3.29c0,.94,.03,1.61,.08,1.94h-2.44Zm5.73-10.44c.49,.56,.9,1.14,1.25,1.81l-1.2,.58c-.42-.8-.75-1.27-1.25-1.85l1.2-.54Zm1.69-.76c.47,.51,.82,.99,1.27,1.76l-1.17,.57c-.44-.8-.8-1.31-1.24-1.81l1.14-.52Z"/></g><path class="cls-4" d="M13.95,0H30V16.05c0,7.7-6.25,13.95-13.95,13.95H0V13.95C0,6.25,6.25,0,13.95,0Z"/><g class="cls-10"><path class="cls-3" d="M15,19.78c-.1,0-.19-.04-.26-.11l-6.73-4.47s-.03-.1-.03-.2,.04-.19,.11-.26l6.58-4.37c.14-.13,.23-.17,.33-.17s.19,.04,.26,.11l6.73,4.49s.03,.1,.03,.2-.04,.19-.11,.26l-6.58,4.35c-.14,.13-.23,.17-.33,.17Z"/><path class="cls-3" d="M15.08,10.66h0m-.08,.07s.04,.03,.07,.05l6.36,4.23-6.36,4.21s-.05,.03-.07,.05c-.02-.02-.05-.03-.07-.05l-6.36-4.21,6.36-4.23s.05-.03,.07-.05m0-.98c-.21,0-.43,.08-.59,.24l-6.65,4.43c-.32,.32-.32,.86,0,1.18l6.65,4.41c.16,.16,.38,.24,.59,.24s.43-.08,.59-.24l6.65-4.41c.32-.32,.32-.86,0-1.18l-6.65-4.43c-.16-.16-.38-.24-.59-.24h0Z"/></g><g><path d="M18.69,164.47c-.58,0-.98,.02-1.31,.06v-.85c-.58,.34-.79,.46-1.31,.68q-.36-.67-.79-1.27c1.14-.44,2.11-.97,2.9-1.58,.4-.31,.95-.83,1.32-1.26,.25-.28,.38-.44,.65-.86h1.52c.67,.91,1.25,1.49,2.13,2.12,1,.71,1.79,1.12,2.94,1.52-.43,.62-.58,.89-.77,1.38-.54-.25-.89-.44-1.43-.76v.88c-.35-.04-.72-.06-1.27-.06h-1.69v1.35h1.94c.62,0,1.01-.02,1.32-.06v1.34c-.32-.04-.73-.06-1.32-.06h-1.94v1.62h3.12c.64,0,1.15-.02,1.52-.07v1.4c-.4-.06-.9-.08-1.51-.08h-7.48c-.61,0-1.1,.02-1.5,.08v-1.4c.35,.05,.86,.07,1.54,.07h2.97v-1.62h-1.76c-.6,0-1.01,.02-1.33,.06v-1.34c.37,.05,.73,.06,1.33,.06h1.76v-1.35h-1.56Zm4.65-1.21c.25,0,.34,0,.56-.01-1.32-.88-2.07-1.57-2.95-2.72-.7,1.03-1.56,1.85-2.89,2.72,.24,.01,.35,.01,.53,.01h4.75Z"/><path d="M29.64,168.26c-.6,0-.95,.01-1.33,.05,.02-.3,.05-.66,.05-1.26v-3.03c0-.61-.01-.92-.05-1.28,.36,.04,.77,.05,1.33,.05h6.38c.59,0,.92-.01,1.34-.05-.04,.32-.05,.61-.05,1.28v3.03c0,.47,.01,.73,.01,.78,0,.23,0,.26,.04,.48-.37-.04-.74-.05-1.34-.05h-.96c1.02,.54,2.04,.84,3.45,1.02-.43,.54-.58,.76-.74,1.18-1.86-.37-2.61-.67-4.01-1.61l.65-.59h-3.26l.76,.64c-.84,.52-1.38,.78-2.18,1.07-.48,.17-.85,.26-1.83,.48-.2-.49-.4-.8-.73-1.19,1.71-.26,2.54-.5,3.41-1h-.92Zm7.23-6.87c0,.36,.01,.62,.04,.9-.36-.02-.77-.04-1.29-.04h-5.53c-.54,0-.96,.01-1.32,.04,.02-.3,.05-.58,.05-.9v-.92c0-.36-.01-.56-.06-.92,.42,.05,.72,.06,1.37,.06h5.44c.65,0,.94-.01,1.36-.06-.04,.32-.05,.54-.05,.92v.92Zm-7.23,2.94h6.38v-.55h-6.38v.55Zm0,1.45h6.38v-.55h-6.38v.55Zm0,1.49h6.38v-.59h-6.38v.59Zm.49-6.64v.66h5.41v-.66h-5.41Z"/><path d="M44.15,166.54c-.68,1.55-1.45,2.25-2.44,2.25-1.37,0-2.35-1.39-2.35-3.32,0-1.32,.47-2.55,1.32-3.49,1.01-1.1,2.42-1.68,4.13-1.68,2.88,0,4.75,1.75,4.75,4.45,0,2.07-1.08,3.73-2.91,4.47-.58,.24-1.04,.36-1.88,.5-.2-.64-.35-.9-.73-1.4,1.1-.14,1.82-.34,2.39-.66,1.04-.58,1.67-1.72,1.67-3,0-1.15-.52-2.09-1.48-2.66-.37-.22-.68-.31-1.21-.36-.23,1.88-.65,3.54-1.25,4.89Zm-1.76-4.29c-1.01,.72-1.63,1.95-1.63,3.24,0,.98,.42,1.76,.95,1.76,.4,0,.8-.5,1.24-1.54,.46-1.08,.85-2.7,1-4.05-.62,.07-1.06,.24-1.55,.59Z"/><path d="M60.45,162.25c-.1,.22-.12,.38-.13,.8-.04,1.36-.17,3.2-.29,3.99-.31,2.07-.73,2.57-2.17,2.57-.46,0-.86-.04-1.49-.13-.02-.76-.06-.98-.28-1.54,.71,.19,1.19,.28,1.58,.28,.52,0,.7-.26,.89-1.31,.14-.83,.26-2.46,.26-3.84h-2.79c-.17,1.51-.42,2.41-.96,3.44-.66,1.27-1.73,2.36-3.24,3.32-.41-.64-.58-.83-1.08-1.27,1.5-.79,2.48-1.74,3.12-3.02,.32-.66,.5-1.25,.61-2.09,.02-.17,.05-.29,.06-.37h-1.99c-.73,.01-.9,.02-1.3,.07v-1.48c.4,.07,.72,.1,1.32,.1h2.1c.04-.47,.06-1.16,.06-1.51v-.3c0-.16,0-.25-.04-.47l1.61,.04c-.02,.16-.04,.2-.05,.37,0,.07-.01,.14-.01,.23q-.02,.25-.05,.88c-.01,.26-.01,.37-.05,.76h2.66c.54-.01,.65-.02,.95-.12l.68,.6Z"/><path d="M62.29,163.9c.53,.07,.76,.08,1.94,.08h6.39c1.19,0,1.42-.01,1.94-.08v1.67c-.48-.06-.61-.06-1.96-.06h-6.37c-1.34,0-1.48,0-1.96,.06v-1.67Z"/><path d="M75.37,169.88c.05-.34,.07-.66,.07-1.34v-7.69c-.01-.7-.02-.94-.07-1.22h1.64c-.04,.32-.05,.55-.05,1.26v2.23c1.39,.46,3.55,1.46,5.45,2.53l-.84,1.42c-.84-.6-2.54-1.52-4.25-2.29-.28-.13-.31-.14-.41-.2,.04,.34,.05,.54,.05,.82v3.17c0,.65,.01,.98,.05,1.33h-1.64Zm4.94-9.63c.53,.56,.85,1.02,1.26,1.76l-.84,.44c-.4-.73-.73-1.21-1.26-1.79l.84-.42Zm1.86,1.45c-.36-.66-.76-1.22-1.22-1.74l.8-.42c.54,.55,.88,1.01,1.25,1.69l-.83,.47Z"/><path d="M84.6,160.71c.49,.11,1.26,.16,2.78,.16,.32-.72,.43-1.08,.48-1.49l1.57,.17q-.07,.12-.48,1.08c-.06,.13-.08,.17-.11,.22q.1-.01,.75-.05c1.39-.08,2.48-.22,3.14-.41l.08,1.37q-.34,.02-.95,.1c-.88,.11-2.4,.2-3.61,.24-.35,.68-.68,1.16-1.1,1.6v.02q.1-.06,.25-.18c.44-.34,1.08-.54,1.69-.54,.94,0,1.52,.44,1.71,1.27,.92-.34,1.54-.55,1.83-.65,.65-.23,.7-.24,.89-.36l.56,1.38c-.34,.05-.7,.14-1.33,.32-.17,.05-.77,.25-1.8,.61v.13q.01,.31,.01,.48v.48c-.01,.2-.01,.31-.01,.4,0,.26,.01,.43,.04,.64l-1.39,.04c.05-.22,.07-.83,.07-1.39v-.29c-.59,.28-.9,.44-1.15,.62-.42,.31-.62,.64-.62,.98,0,.62,.58,.88,2.03,.88s2.67-.18,3.53-.5l.12,1.55c-.2,0-.26,.01-.55,.05-.86,.13-2.01,.22-3.07,.22-1.27,0-2.06-.14-2.67-.5-.55-.31-.88-.89-.88-1.55,0-.49,.14-.88,.53-1.33,.54-.67,1.22-1.13,2.58-1.69-.06-.44-.3-.65-.73-.65-.7,0-1.54,.42-2.46,1.24-.5,.42-.78,.72-1.04,1.09l-1.09-1.08c.31-.24,.66-.58,1.08-1.07,.47-.55,1.2-1.6,1.44-2.05q.05-.1,.1-.16s-.2,.01-.2,.01c-.19,0-1.25-.02-1.51-.02q-.23-.01-.34-.01s-.11,0-.19,.01l.02-1.37Z"/><path d="M99.25,169.55c.07-.47,.1-.94,.1-1.57v-6.6h-.58c-.44,0-.79,.02-1.24,.07v-1.52c.37,.06,.64,.07,1.2,.07h1.1c.61,0,.79-.01,1.22-.06-.07,.71-.1,1.26-.1,1.98v6.06c0,.64,.02,1.08,.1,1.57h-1.81Z"/><path d="M108.59,162.62c.44,1,.77,1.46,1.57,2.3-.3,.37-.54,.76-.74,1.18-.47-.68-.67-1.07-.94-1.7,.06,.6,.07,.92,.07,1.32v3.35c0,.55,.02,.94,.07,1.31h-1.4c.05-.35,.07-.76,.07-1.29v-2.19c0-.79,.01-1.13,.06-1.88-.42,1.3-.73,2-1.29,2.83-.22-.49-.42-.82-.76-1.19,.89-1.14,1.56-2.59,1.88-4.02h-.41c-.4,0-.68,.01-.96,.06v-1.28c.3,.05,.54,.06,.98,.06h.48v-1.12c0-.48-.01-.77-.07-1.09h1.42c-.06,.34-.07,.62-.07,1.1v1.1h.54c.38,0,.6-.01,.9-.06v1.27c-.34-.04-.59-.05-.88-.05h-.53Zm7.96-.06c-.31-.04-.55-.05-1.09-.06-.28,2.09-.66,3.26-1.46,4.52,.78,.84,1.55,1.37,2.78,1.93-.28,.36-.47,.76-.68,1.32-1.42-.83-1.96-1.25-2.88-2.22-.86,.92-1.8,1.57-3.25,2.24-.23-.48-.4-.76-.74-1.18,1.42-.54,2.33-1.13,3.19-2.07-.6-.89-1.07-1.9-1.36-2.87-.2,.34-.29,.46-.56,.83-.28-.4-.48-.62-.9-1.04,.55-.66,1-1.48,1.35-2.48,.25-.7,.5-1.74,.54-2.27l1.39,.25c-.07,.18-.12,.34-.2,.68-.1,.35-.2,.73-.34,1.16h2.88c.61,0,.98-.02,1.33-.07v1.32Zm-4.74,.14c.26,1.26,.66,2.23,1.37,3.29,.54-.97,.82-1.93,1.02-3.49h-2.3l-.08,.2Z"/><path d="M123.24,163.67c-.49,0-.67,.01-.94,.05v-.82c-.3,.23-.47,.34-.88,.59-.22-.44-.3-.59-.5-.86-.14-.02-.26-.02-.53-.02h-.18v1.92c.2-.08,.36-.14,.79-.32v1.19c-.29,.11-.38,.14-.59,.23-.05,.01-.11,.05-.2,.08v3.41c0,.92-.28,1.15-1.4,1.15-.22,0-.42,0-.92-.02-.04-.49-.1-.77-.26-1.22,.38,.06,.77,.08,1.01,.08,.26,0,.32-.06,.32-.32v-2.61c-.72,.23-1.13,.36-1.24,.41l-.17-1.31c.4-.04,.74-.12,1.4-.31v-2.34h-.46c-.3,0-.55,.01-.83,.05v-1.27c.28,.05,.48,.06,.84,.06h.44v-.92c0-.59-.02-.89-.07-1.24h1.39c-.05,.34-.06,.65-.06,1.22v.94h.18c.25,0,.43-.01,.62-.04v.84c1.27-.7,2.28-1.72,2.87-2.91h1.38c.37,.64,.78,1.12,1.43,1.65,.65,.55,1.07,.8,2.16,1.27-.28,.42-.35,.55-.64,1.22-.5-.25-.7-.36-1.1-.64v.88c-.26-.04-.42-.05-.91-.05h-1.02v.85h2.03c.59,0,.82-.01,1.16-.06v1.21c-.35-.05-.61-.06-1.16-.06h-4.84c-.53,0-.79,.01-1.12,.06v-1.2c.26,.04,.5,.05,1.02,.05h1.73v-.85h-.76Zm-1.64,6.69c.04-.38,.06-.68,.06-1.19v-2c0-.37-.02-.64-.05-.94,.29,.04,.54,.05,1.01,.05h4.04c.47,0,.7-.01,.94-.05-.04,.25-.05,.55-.05,.91v2.07c0,.5,.01,.78,.06,1.14h-1.32v-.58h-3.41v.58h-1.28Zm2.4-8.25c0-.32-.01-.48-.04-.64h1.26c-.04,.14-.04,.32-.04,.64v.5h1.01c.26,0,.41,0,.58-.01-1-.74-1.6-1.35-2.16-2.21-.55,.9-1.08,1.51-1.93,2.21,.22,.01,.29,.01,.56,.01h.76v-.5Zm-1.12,6.57h3.42v-1.34h-3.42v1.34Z"/><path d="M129.53,161c.26,.01,.4,.01,.46,.01q.22,0,1.98-.12c.67-.04,2.66-.14,5.99-.3,.98-.05,1.16-.06,1.38-.12l.08,1.54q-.13-.01-.25-.01c-.72,0-1.61,.24-2.38,.65-1.52,.79-2.42,1.99-2.42,3.2,0,.94,.59,1.66,1.59,1.96,.59,.18,1.36,.31,1.79,.31,.01,0,.12,0,.24-.01l-.22,1.63c-.14-.04-.2-.05-.41-.07-1.32-.17-2.08-.38-2.81-.79-1.1-.62-1.71-1.64-1.71-2.89,0-1.02,.41-2.03,1.14-2.83,.46-.49,.89-.8,1.67-1.2-.97,.14-1.44,.18-4.04,.37-.8,.06-1.52,.14-1.99,.24l-.08-1.56Z"/><path d="M144.24,164.38c1.09-.43,1.62-.55,2.52-.55,2.05,0,3.37,1.06,3.37,2.7,0,1.14-.56,2.05-1.63,2.65-.78,.44-1.8,.68-2.9,.68-1.01,0-1.85-.19-2.33-.55-.46-.34-.72-.84-.72-1.38,0-1,.86-1.71,2.06-1.71,.84,0,1.57,.35,2.08,.98,.24,.3,.37,.56,.55,1.08,1-.37,1.43-.89,1.43-1.74,0-.94-.92-1.55-2.38-1.55-1.75,0-3.5,.71-4.94,2.02l-.82-1.3c.42-.2,.9-.53,1.69-1.13,1.12-.85,2.67-2.19,3.59-3.12,.02-.02,.14-.14,.22-.22h-.01c-.46,.05-1.22,.1-3.39,.19-.26,.01-.35,.02-.58,.06l-.06-1.44c.41,.05,.76,.07,1.42,.07,1.02,0,2.48-.06,3.65-.14,.42-.04,.55-.06,.74-.16l.74,1.06c-.2,.11-.29,.18-.62,.49-.6,.55-1.47,1.33-1.88,1.68-.22,.18-1.08,.83-1.32,.98q-.3,.2-.49,.31l.02,.02Zm.36,2.99c-.43,0-.71,.22-.71,.55,0,.48,.54,.76,1.43,.76,.23,0,.29,0,.62-.05-.22-.83-.67-1.26-1.34-1.26Z"/></g><g><path class="cls-8" d="M15.32,178.75c.17,.02,.23,.02,.36,.02,.22,0,.54,0,1.43-.05q.52-.02,1.93-.06c0-.68-.02-.82-.05-1.02h.85c-.03,.24-.04,.38-.04,1.01,1.46,0,2.06-.02,2.34-.06v.78c-.29-.03-.66-.04-1.34-.04-.22,0-.35,0-.99,.02v1.47c.16,.34,.22,.66,.22,1.06,0,.86-.41,1.61-1.14,2.13-.32,.22-.68,.4-1.38,.65-.18-.38-.26-.49-.49-.74,.66-.15,.98-.28,1.35-.52,.56-.38,.85-.81,.9-1.35-.22,.43-.64,.67-1.19,.67-.81,0-1.41-.57-1.41-1.34,0-.82,.64-1.4,1.54-1.4,.37,0,.66,.1,.85,.27t0-.1v-.78c-1.28,.02-3.21,.12-3.71,.2l-.02-.8Zm2.14,2.54c0,.42,.3,.7,.73,.7,.49,0,.84-.34,.84-.81,0-.18-.05-.3-.16-.39-.14-.14-.35-.22-.59-.22-.46,0-.82,.3-.82,.71Z"/><path class="cls-8" d="M22.02,181.68c.13-.09,.19-.14,.37-.33,.4-.41,.5-.52,1.32-1.57,.47-.59,.71-.76,1.1-.76,.26,0,.46,.1,.7,.33,.09,.08,.26,.28,.55,.61,.82,.94,1.59,1.71,2.45,2.45,.39,.33,.56,.46,.78,.57l-.4,.95c-.09-.1-.11-.12-.26-.24-.46-.39-1.54-1.41-2.06-1.95-.28-.29-.96-1.05-1.35-1.51-.18-.22-.3-.29-.43-.29-.14,0-.19,.05-.53,.49-.73,.95-.99,1.27-1.55,1.89-.07,.08-.1,.1-.15,.19l-.54-.83Zm5.29-3.13c.38,.42,.55,.68,.83,1.2l-.5,.27c-.26-.5-.49-.83-.83-1.22l.5-.25Zm.94-.46c.38,.42,.55,.66,.82,1.17l-.49,.28c-.25-.46-.47-.8-.82-1.2l.48-.25Z"/><path class="cls-8" d="M29.88,178.69q.15,0,.28,0c.17,0,.26,0,.49-.02,.94-.06,2.84-.18,4.72-.26,.55-.02,.79-.05,.93-.08l.06,.84h-.14c-.45,0-1.01,.14-1.5,.38-1.09,.54-1.76,1.41-1.76,2.27,0,.64,.4,1.14,1.09,1.38,.37,.12,.9,.22,1.18,.22,.03,0,.08,0,.14,0l-.12,.9c-.1-.02-.14-.02-.26-.05-.87-.13-1.34-.27-1.81-.56-.67-.41-1.04-1.05-1.04-1.81s.35-1.47,1.05-2.12c.32-.3,.5-.42,.96-.64-.56,.09-.88,.12-1.73,.18-1.39,.1-2.07,.16-2.49,.25l-.05-.88Z"/><path class="cls-8" d="M40.06,182.17c-.46,1.06-.95,1.52-1.58,1.52-.85,0-1.47-.89-1.47-2.1,0-.86,.3-1.66,.86-2.28,.66-.72,1.58-1.1,2.69-1.1,1.86,0,3.09,1.14,3.09,2.87,0,1.34-.7,2.41-1.9,2.9-.38,.15-.69,.24-1.23,.34-.12-.37-.19-.5-.41-.78,.62-.1,.98-.18,1.33-.33,.86-.37,1.39-1.21,1.39-2.17,0-.83-.39-1.5-1.1-1.87-.27-.14-.49-.2-.86-.22-.14,1.19-.43,2.36-.82,3.22Zm-1.1-2.83c-.73,.49-1.18,1.34-1.18,2.25,0,.7,.3,1.25,.69,1.25,.29,0,.58-.35,.9-1.08,.31-.74,.58-1.85,.69-2.81-.44,.05-.75,.15-1.1,.38Z"/><path class="cls-8" d="M49.76,178.43s0-.09,0-.13c0-.51,.41-.93,.92-.93s.93,.42,.93,.93-.42,.93-.93,.93c-.09,0-.18-.02-.26-.04-.02,.04-.03,.1-.05,.17-.4,1.52-1.02,2.61-1.99,3.51-.72,.67-1.42,1.1-2.54,1.57-.18-.36-.27-.48-.58-.78,.71-.22,1.18-.44,1.77-.83,1.26-.83,2.05-1.98,2.46-3.61h-3.81c-.54,0-.75,.02-1.06,.06v-.9c.32,.05,.54,.06,1.08,.06h4.06Zm.38-.13c0,.3,.24,.54,.54,.54s.54-.25,.54-.54-.24-.54-.54-.54-.54,.25-.54,.54Z"/><path class="cls-8" d="M53.63,177.92c-.03,.23-.04,.4-.04,.95l-.03,4.49c.86-.15,1.6-.44,2.22-.84,.76-.5,1.27-1.06,1.69-1.87,.26,.36,.34,.46,.63,.69-.54,.82-1.05,1.35-1.73,1.81-.77,.52-1.61,.84-2.85,1.08-.24,.05-.34,.07-.46,.13l-.44-.54c.06-.18,.06-.3,.06-.7l.02-4.24v-.22c0-.39,0-.56-.03-.76h.95Z"/><path class="cls-8" d="M65.25,178.25c-.14,.12-.15,.13-.36,.34-.52,.55-1.17,1.11-1.84,1.59v3.22c0,.55,.02,.81,.05,1.06h-.95c.04-.3,.05-.47,.05-1.06v-2.69c-.98,.6-1.48,.82-2.94,1.34-.14-.34-.22-.46-.45-.77,1.54-.41,2.9-1.08,4.17-2.07,.72-.56,1.27-1.11,1.5-1.5l.77,.54Z"/><path class="cls-8" d="M72.71,178.97c-.07,.1-.09,.13-.21,.44-.21,.54-.59,1.16-1,1.62-.26,.3-.5,.5-.94,.85-.22-.24-.32-.31-.67-.53,.51-.33,.78-.55,1.09-.9,.27-.31,.45-.59,.61-.95t.02-.06s.02-.02,.02-.05c-.03,0-.04,0-.07,.02,0,0-.06,.02-.13,.02l-2.82,.48,.64,3.49c.1,.55,.14,.71,.23,1.01l-.9,.16c-.02-.3-.06-.6-.14-1.04l-.65-3.49-.96,.16c-.42,.07-.58,.1-.84,.18l-.14-.85c.31,0,.54-.03,.88-.09l.93-.15-.14-.81c-.07-.36-.1-.5-.18-.77l.9-.14c.02,.23,.03,.38,.11,.78l.14,.8,3.29-.54c.22-.04,.3-.06,.43-.13l.51,.46Z"/><path class="cls-8" d="M76.52,182.17c-.46,1.06-.95,1.52-1.58,1.52-.85,0-1.47-.89-1.47-2.1,0-.86,.3-1.66,.86-2.28,.66-.72,1.58-1.1,2.69-1.1,1.86,0,3.09,1.14,3.09,2.87,0,1.34-.7,2.41-1.9,2.9-.38,.15-.69,.24-1.23,.34-.12-.37-.19-.5-.41-.78,.62-.1,.98-.18,1.33-.33,.86-.37,1.39-1.21,1.39-2.17,0-.83-.39-1.5-1.1-1.87-.27-.14-.49-.2-.86-.22-.14,1.19-.43,2.36-.82,3.22Zm-1.1-2.83c-.73,.49-1.18,1.34-1.18,2.25,0,.7,.3,1.25,.69,1.25,.29,0,.58-.35,.9-1.08,.31-.74,.58-1.85,.69-2.81-.44,.05-.75,.15-1.1,.38Z"/><path class="cls-8" d="M83.6,179.22c.03-.38,.05-.8,.05-1.14,0-.2,0-.26-.02-.42l.9,.02c-.03,.17-.03,.22-.07,1,0,.14,0,.24-.03,.54h1.86c.36-.02,.42-.02,.59-.08l.39,.35c-.06,.13-.07,.22-.08,.5-.05,1.76-.19,3.04-.41,3.61-.2,.51-.5,.7-1.12,.7-.3,0-.57-.03-1-.11,0-.41-.02-.54-.14-.85,.46,.14,.78,.2,1.05,.2,.36,0,.48-.18,.62-.92,.11-.58,.19-1.68,.19-2.68h-2.01c-.06,.57-.07,.62-.14,.91-.22,1.03-.65,1.83-1.36,2.57-.41,.42-.74,.69-1.28,1.02-.22-.34-.31-.44-.59-.69,.98-.52,1.65-1.18,2.08-2.05,.26-.53,.35-.88,.46-1.74h-1.38c-.5,0-.58,0-.86,.05v-.83c.27,.05,.46,.06,.86,.06h1.44Z"/><path class="cls-8" d="M88.6,180.61c.3,.04,.64,.06,1.23,.06h4.33c.69,0,.88,0,1.19-.05v.93c-.35-.03-.61-.04-1.2-.04h-4.31c-.67,0-.91,0-1.24,.04v-.94Z"/><path class="cls-8" d="M97.31,184.46c.04-.34,.05-.54,.05-1.02v-4.77c0-.55,0-.73-.05-.95h.95c-.04,.26-.05,.53-.05,.98v1.35c1.14,.4,2.26,.93,3.6,1.69l-.47,.79c-.35-.24-.57-.38-.98-.61-.61-.33-1.48-.76-1.92-.94q-.13-.06-.26-.14l.02,.31c0,.07,0,.32,0,.4v1.9c0,.42,.02,.72,.05,1.02h-.94Zm3.37-6.36c.38,.42,.55,.68,.83,1.2l-.5,.27c-.26-.5-.49-.83-.83-1.22l.5-.25Zm.94-.46c.38,.42,.55,.66,.82,1.17l-.49,.28c-.25-.46-.47-.8-.82-1.2l.48-.25Z"/><path class="cls-8" d="M105.24,178.6c.22-.5,.32-.78,.34-1.03l.88,.11c-.05,.07-.06,.1-.1,.18q-.09,.21-.25,.58s-.05,.1-.06,.14t.06,0h.04s.18,0,.4-.02c.86-.03,1.7-.14,2.13-.27l.05,.76q-.18,.02-.62,.07c-.56,.07-1.59,.14-2.37,.16-.28,.54-.53,.9-.86,1.25v.02q.06-.05,.18-.13c.35-.27,.78-.42,1.22-.42,.3,0,.59,.1,.78,.26,.18,.15,.27,.32,.33,.61,.65-.24,1.08-.4,1.29-.47,.41-.14,.44-.15,.57-.23l.33,.77c-.45,.08-.98,.25-2.1,.66q0,.29,0,.43v.38c0,.14,0,.22,0,.28,0,.15,0,.27,.02,.39l-.78,.02c.02-.16,.05-.61,.05-1.04v-.19c-.98,.45-1.34,.77-1.34,1.19,0,.48,.42,.66,1.54,.66,.84,0,1.71-.13,2.21-.33l.08,.86c-.14,0-.18,0-.35,.04-.59,.09-1.34,.14-1.99,.14-.81,0-1.34-.1-1.73-.32-.35-.2-.56-.56-.56-.98,0-.74,.66-1.38,2.05-1.97-.04-.34-.22-.51-.54-.51-.48,0-1.07,.29-1.7,.83-.32,.27-.5,.47-.66,.7l-.62-.62c.38-.28,.86-.83,1.29-1.46,.1-.15,.26-.42,.5-.81h-.91c-.2-.02-.35-.02-.46-.02h-.05s-.06,0-.12,0l.02-.76c.4,.07,.83,.1,1.56,.1h.29Z"/><path class="cls-8" d="M15.55,189.48c.36,.04,.58,.06,1.1,.06h3.82c.42,0,.54,0,.74-.06l.39,.45c-.07,.13-.11,.22-.22,.5-.44,1.19-1.04,2.05-1.89,2.69-.57,.42-1.09,.68-2.02,1.02-.14-.33-.22-.44-.51-.78,.98-.24,1.64-.55,2.26-1.1,.61-.52,.95-1.03,1.31-1.98h-3.9c-.63,0-.81,0-1.09,.04v-.83Zm.68-1.9c.34,.05,.43,.06,1,.06h2.53c.48,0,.64,0,1.01-.06v.84c-.31-.03-.53-.04-1-.04h-2.55c-.42,0-.6,0-.99,.04v-.84Z"/><path class="cls-8" d="M22.66,192.89c.65-.02,1.62-.27,2.35-.6,1-.44,1.75-1.05,2.38-1.94,.36-.53,.59-.96,.84-1.62,.26,.33,.37,.42,.7,.66-.66,1.45-1.42,2.37-2.49,3.1-.81,.55-1.8,.94-3.02,1.2-.3,.06-.34,.07-.5,.13l-.25-.93Zm.61-4.96c.91,.57,1.42,.95,2.02,1.53l-.58,.71c-.62-.66-1.26-1.18-1.99-1.6l.55-.64Z"/><path class="cls-8" d="M35.74,188.69c-.1,.13-.11,.18-.24,.53-.22,.61-.65,1.52-1,2.08-.81,1.29-1.9,2.2-3.6,2.98-.21-.35-.3-.47-.55-.7,.69-.27,1.1-.49,1.6-.82,.58-.39,.94-.7,1.34-1.18-.57-.5-1.09-.87-1.7-1.21l.52-.58c.67,.38,1.05,.64,1.67,1.14,.4-.62,.73-1.3,.97-2.03l-2.6,.02c-.56,.86-1.1,1.47-1.88,2.11-.22-.25-.32-.33-.67-.54,.86-.64,1.52-1.38,2.02-2.29,.24-.43,.4-.81,.46-1.1l.88,.21q-.09,.14-.26,.49c-.1,.22-.16,.32-.22,.4,.05,0,.16,0,.33-.02l2.4-.03c-.2-.34-.4-.62-.67-.94l.5-.25c.38,.42,.55,.68,.83,1.2l-.35,.19,.22,.31Zm.37-1.96c.38,.42,.55,.66,.82,1.17l-.49,.28c-.25-.46-.47-.8-.82-1.2l.48-.25Z"/><path class="cls-8" d="M40,187.57c-.09,.17-.1,.22-.21,.56-.54,1.79-1.1,3.38-1.62,4.62,1.29-.1,2.73-.28,3.55-.45-.36-.73-.83-1.55-1.18-2.04l.75-.3c.74,1.06,1.45,2.39,1.95,3.65l-.8,.42q-.1-.32-.42-1.02-.1,.02-.28,.06c-.88,.18-2.18,.35-4.57,.58-.48,.05-.57,.06-.72,.1l-.11-.91q.1,0,.19,0c.16,0,.25,0,.71-.03,.45-1.06,.77-1.94,1.18-3.2,.38-1.21,.54-1.78,.6-2.25l.98,.2Z"/><path class="cls-8" d="M45.66,187.51c-.17,.41-.34,1.18-.44,1.95-.09,.64-.14,1.49-.15,2.18v.72h.02c.07-.35,.12-.5,.43-1.23l.55,.25c-.41,.86-.69,1.81-.69,2.33,0,.03,0,.1,0,.18l-.82,.06c0-.14-.02-.18-.04-.35-.15-.93-.21-1.52-.21-2.36,0-1.06,.1-1.93,.34-3.12,.08-.42,.1-.5,.11-.71l.89,.11Zm2.1,3.3c-.4,.46-.58,.82-.58,1.17,0,.5,.47,.76,1.38,.76,.71,0,1.4-.1,1.88-.3l.07,.86c-.1,.02-.13,.02-.3,.05-.61,.1-1.11,.15-1.65,.15-.96,0-1.58-.22-1.92-.66-.16-.2-.25-.5-.25-.78,0-.48,.23-.98,.72-1.57l.65,.32Zm-1.2-2.53c.42,.1,.75,.13,1.36,.13,.98,0,1.78-.08,2.24-.22l.04,.82c-.06,0-.1,0-.56,.06-.5,.06-1.11,.1-1.69,.1-.46,0-.82-.02-1.17-.06-.11,0-.14-.02-.22-.02v-.8Z"/><path class="cls-8" d="M52.85,187.53c.22,.04,.39,.05,.74,.05h.64c.35,0,.47,0,.75-.04-.05,.49-.06,.86-.06,1.33v3.98c0,.4,.02,.66,.06,.98h-1.03c.05-.3,.06-.59,.06-.98v-4.5h-.4c-.27,0-.5,.02-.77,.05v-.86Z"/><path class="cls-8" d="M59.99,189.2c.28,.7,.52,1.06,1.06,1.61-.17,.18-.29,.37-.42,.64-.34-.46-.51-.76-.7-1.26,.02,.42,.04,.7,.04,1.02v2.38c0,.36,0,.6,.05,.82h-.79c.03-.22,.05-.47,.05-.82v-1.77c0-.54,0-.85,.03-1.35-.28,.95-.54,1.54-.96,2.17-.14-.28-.26-.44-.45-.65,.59-.75,1.08-1.81,1.3-2.8h-.32c-.28,0-.47,0-.65,.04v-.72c.2,.03,.37,.04,.66,.04h.37v-.82c0-.3,0-.49-.05-.7h.8c-.03,.22-.04,.4-.04,.71v.81h.38c.26,0,.42,0,.64-.04v.71c-.22-.02-.41-.03-.62-.03h-.38Zm5.32-.05c-.2-.02-.4-.04-.78-.04-.09,.7-.16,1.05-.33,1.58-.18,.59-.38,1.01-.69,1.49,.53,.62,1.08,1.02,1.94,1.43-.15,.18-.27,.4-.41,.72-.93-.55-1.37-.9-1.97-1.57-.57,.66-1.18,1.1-2.2,1.58-.13-.27-.25-.46-.43-.66,.56-.22,.86-.37,1.24-.63,.37-.26,.68-.54,.96-.86-.44-.66-.76-1.34-.96-2.05-.16,.26-.22,.37-.43,.65-.15-.22-.26-.34-.51-.56,.38-.46,.66-.99,.91-1.67,.18-.5,.34-1.16,.35-1.52l.78,.14c-.04,.11-.07,.21-.14,.46-.06,.23-.15,.57-.23,.82h2.02c.4,0,.64-.02,.86-.05v.74Zm-3.12-.04c-.04,.09-.05,.11-.09,.2,.2,.88,.47,1.52,.98,2.28,.42-.74,.62-1.38,.76-2.48h-1.65Z"/><path class="cls-8" d="M69.83,189.9c-.33,0-.46,0-.64,.03v-.58c-.23,.18-.34,.25-.66,.44-.12-.26-.21-.39-.39-.6h-.4v1.45c.21-.09,.29-.12,.58-.25v.66l-.58,.24v2.35c0,.54-.17,.68-.83,.68-.16,0-.3,0-.62-.02-.02-.26-.06-.42-.15-.68,.26,.04,.51,.06,.69,.06s.22-.04,.22-.2v-1.92q-.74,.25-.87,.3l-.11-.74c.28-.02,.47-.07,.98-.24v-1.69h-.34c-.21,0-.38,0-.56,.03v-.71l.1,.02c.17,.02,.26,.02,.46,.02h.34v-.66c0-.38,0-.58-.05-.82h.79c-.04,.23-.05,.43-.05,.82v.66h.18c.18,0,.3,0,.44-.02v.55c.88-.5,1.55-1.17,1.97-1.97h.78c.26,.43,.52,.75,.95,1.12,.47,.41,.82,.62,1.51,.91-.15,.21-.23,.34-.38,.66-.36-.18-.54-.28-.82-.47v.6c-.17-.02-.29-.03-.62-.03h-.71v.7h1.41c.39,0,.56,0,.78-.04v.69c-.22-.03-.41-.04-.78-.04h-3.21c-.34,0-.52,0-.73,.04v-.68c.18,.02,.34,.03,.69,.03h1.18v-.7h-.54Zm-1.09,4.51c.03-.25,.04-.45,.04-.77v-1.31c0-.26,0-.42-.03-.64,.2,.02,.38,.03,.68,.03h2.61c.3,0,.45,0,.62-.03-.02,.17-.03,.38-.03,.62v1.37c0,.31,0,.5,.04,.73h-.74v-.41h-2.48v.41h-.72Zm1.62-5.41c0-.24,0-.37-.02-.48h.71c-.02,.11-.02,.25-.02,.48v.31h.7c.3,0,.41,0,.56-.02-.71-.51-1.16-.97-1.57-1.59-.4,.65-.74,1.02-1.45,1.59,.18,.02,.27,.02,.55,.02h.54v-.31Zm-.9,4.39h2.49v-1.07h-2.49v1.07Z"/><path class="cls-8" d="M74.04,188.29q.15,0,.28,0c.17,0,.26,0,.49-.02,.94-.06,2.84-.18,4.72-.26,.55-.02,.79-.05,.93-.08l.06,.84h-.14c-.45,0-1.01,.14-1.5,.38-1.09,.54-1.76,1.41-1.76,2.27,0,.64,.4,1.14,1.09,1.38,.37,.12,.9,.22,1.18,.22,.03,0,.08,0,.14,0l-.12,.9c-.1-.02-.14-.02-.26-.05-.87-.13-1.34-.27-1.81-.56-.67-.41-1.04-1.05-1.04-1.81s.35-1.47,1.05-2.12c.32-.3,.5-.42,.96-.64-.56,.09-.88,.12-1.73,.18-1.39,.1-2.07,.16-2.49,.25l-.05-.88Z"/><path class="cls-8" d="M82.3,187.64c.26,.04,.41,.05,.85,.05,.73,0,1.67-.04,2.45-.1,.26-.02,.34-.03,.45-.1l.43,.6c-.12,.06-.17,.1-.41,.33-1.11,1.06-1.98,1.77-2.53,2.1l.02,.02c.68-.31,1.16-.42,1.8-.42,1.34,0,2.22,.69,2.22,1.75,0,.74-.38,1.34-1.07,1.72-.52,.29-1.16,.44-1.88,.44-.64,0-1.18-.12-1.48-.34-.3-.21-.48-.54-.48-.9,0-.61,.55-1.06,1.29-1.06,.55,0,1.04,.24,1.36,.66,.16,.21,.25,.38,.37,.74,.27-.09,.43-.17,.6-.29,.31-.23,.49-.57,.49-.95,0-.7-.62-1.13-1.64-1.13-1.18,0-2.38,.5-3.33,1.35l-.46-.71c.72-.38,2.6-1.93,3.64-2.99,.02-.02,.11-.11,.14-.14h0c-.29,.03-1.14,.09-2.36,.14-.18,0-.24,.02-.4,.04l-.04-.82Zm1.65,4.73c-.33,0-.54,.16-.54,.42,0,.35,.41,.57,1.08,.57,.16,0,.21,0,.46-.03-.16-.63-.5-.95-1-.95Z"/></g><g><rect class="cls-6" x="83.23" y="78.74" width="17.36" height="24.24" rx="3" ry="3" transform="translate(34.59 -24.97) rotate(19)"/><path class="cls-1" d="M91.81,88.66l-1.27-2.61c-.11-.23-.38-.32-.61-.21s-.32,.38-.21,.61l1.27,2.6,.82-.39Zm2.71-1.16l.34,.69-6.9,3.37c-.23,.11-.32,.38-.21,.61s.38,.32,.61,.21l6.9-3.36,.34,.69c.09,.18,.36,.17,.42-.03l.57-1.64c.04-.12-.02-.25-.14-.29l-1.64-.57c-.2-.07-.37,.13-.28,.31Zm-1.5,3.63l-.82,.4,.89,1.82-.7,.34c-.18,.09-.17,.36,.03,.42l1.64,.57c.12,.04,.25-.02,.29-.14l.57-1.64c.07-.2-.13-.37-.32-.28l-.69,.34-.89-1.83Z"/><rect class="cls-2" x="110.9" y="53.4" width="17.36" height="24.24" rx="3" ry="3" transform="translate(10.28 -16) rotate(8)"/><rect class="cls-7" x="78.97" y="47.5" width="17.36" height="24.24" rx="3" ry="3" transform="translate(-10.48 19.53) rotate(-12)"/><path class="cls-9" d="M107.04,89.04h-30.95c-.66,0-1.19,.54-1.19,1.19v32.14c0,3.06,2.5,5.56,5.56,5.56h22.22c3.06,0,5.56-2.5,5.56-5.56v-32.14c0-.66-.54-1.19-1.19-1.19Z"/><path class="cls-9" d="M49.88,62l4.45,5.11-.19,2.78c-.05,.71,.19,1.45,.67,2l7.62,8.76c.47,.55,1.18,.89,1.88,.94l2.78,.19,4.45,5.11c.91,1.05,2.46,1.41,3.65,.68,1.5-.92,1.76-2.93,.66-4.2l-21.87-25.16c-1.1-1.27-3.13-1.29-4.25,.07-.88,1.07-.74,2.66,.17,3.7Z"/><path class="cls-5" d="M118.99,64.02l-1.75-2.32c-.15-.2-.44-.24-.64-.09s-.24,.44-.09,.64l1.74,2.31,.74-.55Zm2.44-1.66l.47,.62-6.14,4.63c-.2,.15-.24,.44-.09,.64s.44,.24,.64,.09l6.15-4.62,.47,.62c.12,.16,.38,.1,.41-.11l.24-1.72c.02-.13-.07-.24-.2-.26l-1.72-.24c-.2-.03-.34,.2-.22,.36Zm-.78,3.86l-.73,.55,1.22,1.62-.62,.47c-.16,.12-.1,.38,.11,.41l1.72,.24c.13,.02,.24-.07,.26-.2l.24-1.72c.03-.2-.2-.34-.36-.21l-.62,.47-1.22-1.63Z"/><path class="cls-1" d="M86.59,58.41l-2.45-1.59c-.21-.14-.5-.08-.64,.14s-.08,.5,.14,.64l2.44,1.58,.51-.77Zm1.73-2.41l.65,.42-4.21,6.48c-.14,.21-.08,.5,.14,.64s.5,.08,.64-.14l4.21-6.48,.65,.42c.17,.11,.39-.04,.35-.24l-.36-1.71c-.03-.13-.15-.2-.27-.18l-1.71,.36c-.2,.04-.25,.31-.08,.42Zm.59,3.91l-.5,.77,1.71,1.11-.43,.66c-.11,.17,.04,.39,.24,.35l1.71-.36c.13-.03,.2-.15,.18-.27l-.36-1.71c-.04-.2-.31-.25-.42-.08l-.42,.65-1.71-1.12Z"/></g></svg>