<?xml version="1.0" encoding="UTF-8"?><svg id="Layer_1" xmlns="http://www.w3.org/2000/svg" viewBox="0 0 178.58 249.45"><defs><style>.cls-1{fill:#fff;}.cls-2{fill:#31de4b;}.cls-3{fill:gray;}.cls-4{fill:#4d4d4d;}.cls-5{fill:none;stroke:#31de4b;stroke-linecap:round;stroke-miterlimit:10;}</style></defs><g><rect class="cls-1" x="3" y="3" width="172.58" height="243.45" rx="10.95" ry="10.95"/><path class="cls-2" d="M164.63,6c4.38,0,7.95,3.57,7.95,7.95V235.5c0,4.38-3.57,7.95-7.95,7.95H13.95c-4.38,0-7.95-3.57-7.95-7.95V13.95c0-4.38,3.57-7.95,7.95-7.95H164.63m0-6H13.95C6.25,0,0,6.25,0,13.95V235.5C0,243.2,6.25,249.45,13.95,249.45H164.63c7.71,0,13.95-6.25,13.95-13.95V13.95c0-7.71-6.25-13.95-13.95-13.95h0Z"/></g><g><path class="cls-2" d="M41.78,12.72h-2.44c.04,.31,.05,.6,.05,1.01v.47l-.06,7.7c0,.53-.03,.75-.14,1.09l1.12,1.17c.17-.1,.27-.14,.64-.27,1.31-.48,1.95-.82,2.73-1.48,.99-.84,1.66-1.85,2.25-3.3-.74-.57-1.08-.91-1.73-1.72-.23,.88-.55,1.56-1.01,2.22-.44,.61-.86,.99-1.56,1.43l.06-6.81c.01-.77,.03-.98,.1-1.51h0Zm-6.14,.06c.04,.34,.05,.62,.05,1.2,0,3.37-.21,4.98-.82,6.25-.4,.86-.81,1.4-1.55,2.07,.83,.58,1.2,.95,1.86,1.82,.88-.94,1.38-1.64,1.81-2.6,.62-1.42,.88-2.86,.96-5.58q.09-2.57,.14-3.02l-2.46-.14h0Z"/><path class="cls-2" d="M58.26,16.97c-.87,.09-1.37,.12-2.67,.12h-6.21c-1.35,0-2.05-.03-2.67-.12v2.51c.79-.06,1.22-.08,2.68-.08h6.19c1.48,0,2.05,.01,2.68,.08v-2.51h0Z"/><path class="cls-2" d="M67.57,12.72h-2.44c.04,.31,.05,.6,.05,1.01v.47l-.06,7.7c0,.53-.03,.75-.14,1.09l1.12,1.17c.17-.1,.27-.14,.64-.27,1.31-.48,1.95-.82,2.73-1.48,.99-.84,1.66-1.85,2.25-3.3-.74-.57-1.08-.91-1.73-1.72-.23,.88-.55,1.56-1.01,2.22-.44,.61-.86,.99-1.56,1.43l.06-6.81c.01-.77,.03-.98,.1-1.51h0Zm-6.14,.06c.04,.34,.05,.62,.05,1.2,0,3.37-.21,4.98-.82,6.25-.4,.86-.81,1.4-1.55,2.07,.83,.58,1.2,.95,1.86,1.82,.88-.94,1.38-1.64,1.81-2.6,.62-1.42,.88-2.86,.96-5.58q.09-2.57,.14-3.02l-2.46-.14h0Z"/><path class="cls-2" d="M76.08,12.4c.04,.27,.04,.38,.04,.65,0,.4-.03,1.16-.06,1.66h-1.79c-.92,0-1.16-.01-1.81-.1v2.22c.62-.06,.9-.08,1.77-.08h1.62c-.18,1.09-.33,1.56-.65,2.22-.65,1.31-1.65,2.24-3.38,3.15,.71,.61,1.1,1.05,1.69,1.98,2.64-1.74,3.87-3.43,4.45-6.06q.09-.44,.19-1.3h2.48c0,1.12-.12,2.76-.25,3.63-.17,1.13-.33,1.34-.95,1.34-.4,0-1.04-.09-1.69-.26,.3,.82,.39,1.25,.44,2.29,1,.09,1.2,.1,1.7,.1,1.44,0,2.07-.42,2.44-1.62,.26-.86,.46-3.03,.55-5.81,.01-.6,.04-.7,.18-.96l-1.01-.88c-.29,.12-.44,.14-.87,.14h-2.83q.03-.31,.04-.66c.08-1.24,.08-1.27,.14-1.57l-2.44-.06h0Z"/><path class="cls-2" d="M96.21,16.97c-.87,.09-1.37,.12-2.67,.12h-6.21c-1.35,0-2.05-.03-2.67-.12v2.51c.79-.06,1.22-.08,2.68-.08h6.19c1.48,0,2.05,.01,2.68,.08v-2.51h0Z"/><path class="cls-2" d="M106.49,12.46l-1.17,.53c.46,.52,.82,1.04,1.27,1.86l1.2-.58c-.46-.79-.82-1.29-1.3-1.81h0Zm-5.11,.05h-2.51c.08,.7,.08,.77,.09,1.89v7.57c-.01,1.07-.03,1.44-.08,1.99h2.51c-.05-.34-.08-1.03-.08-1.99v-3.38c.05,.04,.08,.05,.12,.06,.04,.03,.08,.04,.47,.19,1.51,.66,3.02,1.5,4.1,2.26l1.23-2.21c-1.82-1.12-3.86-2.04-5.92-2.7v-1.78c.01-1.35,.01-1.56,.06-1.9h0Zm3.38,.73l-1.23,.56c.52,.6,.86,1.08,1.29,1.9l1.23-.6c-.36-.69-.78-1.29-1.29-1.86h0Z"/></g><path class="cls-2" d="M13.95,0H30V16.05c0,7.7-6.25,13.95-13.95,13.95H0V13.95C0,6.25,6.25,0,13.95,0Z"/><g><path d="M22.21,161.95v-.92c.01-.79,0-1.06-.05-1.33h1.55c-.04,.28-.05,.34-.05,.8q0,.73-.01,1.45h.77c.85,0,1.09-.01,1.56-.08v1.46c-.42-.05-.74-.06-1.54-.06h-.8c-.02,1.44-.02,1.52-.08,1.98-.17,1.54-.68,2.55-1.73,3.44-.65,.55-1.24,.86-2.34,1.26-.23-.52-.38-.74-.9-1.27,1.14-.35,1.71-.64,2.29-1.14,.82-.71,1.16-1.5,1.27-2.88,.02-.28,.02-.56,.05-1.39h-3.11v1.8c0,.5,.01,.7,.05,1.01h-1.56c.04-.26,.05-.59,.05-1.03v-1.78h-.73c-.79,0-1.12,.01-1.54,.06v-1.46c.47,.07,.71,.08,1.56,.08h.71v-1.2c0-.5-.01-.75-.06-1.07h1.57c-.05,.4-.05,.42-.05,1.03v1.24h3.12Z"/><path d="M36.55,160.56c-.2,.18-.26,.23-.44,.42-.9,.94-1.8,1.71-2.83,2.47v5.12c0,.66,.01,1.01,.06,1.33h-1.68c.06-.35,.07-.59,.07-1.29v-4.22c-1.4,.84-2.07,1.15-4.28,1.94-.25-.62-.38-.83-.8-1.37,2.37-.65,4.39-1.64,6.3-3.12,1.07-.83,1.88-1.66,2.23-2.24l1.38,.96Z"/><path d="M39.83,168.75c-.83,0-1.12,.01-1.48,.05v-1.55c.44,.07,.66,.08,1.5,.08h5.46v-5.23h-5.25c-.85,0-1.1,.01-1.54,.06v-1.56c.44,.07,.67,.08,1.55,.08h5.77q.62,0,1.04-.02c-.04,.32-.04,.44-.04,1v6.58c0,.6,.01,.94,.06,1.24h-1.61v-.73h-5.47Z"/><path d="M51.11,168.64v.84h-1.55c.04-.29,.05-.58,.05-1.03v-6.87c0-.46-.01-.68-.05-1.01,.29,.02,.54,.04,1.02,.04h6.81c.52,0,.73-.01,1.01-.04-.02,.31-.04,.55-.04,1v6.86c0,.44,.01,.77,.05,1.04h-1.55v-.83h-5.76Zm5.76-6.68h-5.76v5.31h5.76v-5.31Z"/><path d="M65.15,166.54c-.68,1.55-1.45,2.25-2.44,2.25-1.37,0-2.35-1.39-2.35-3.32,0-1.32,.47-2.55,1.32-3.49,1.01-1.1,2.42-1.68,4.13-1.68,2.88,0,4.75,1.75,4.75,4.45,0,2.08-1.08,3.73-2.91,4.47-.58,.24-1.04,.36-1.88,.5-.2-.64-.35-.9-.73-1.4,1.1-.14,1.82-.34,2.39-.66,1.04-.58,1.67-1.72,1.67-3,0-1.15-.52-2.09-1.48-2.66-.37-.22-.68-.31-1.21-.36-.23,1.88-.65,3.54-1.25,4.89Zm-1.76-4.29c-1.01,.72-1.63,1.95-1.63,3.24,0,.98,.42,1.76,.95,1.76,.4,0,.8-.5,1.24-1.54,.46-1.08,.85-2.7,1-4.05-.62,.07-1.06,.24-1.55,.59Z"/><path d="M76.95,161.49c.36,0,.62-.01,.77-.04v1.1c-.18-.02-.4-.04-.77-.04h-.8c.22,.26,.47,.44,1.06,.77-.32,.35-.37,.42-.7,.98-.6-.5-.77-.68-1.07-1.14,.02,.25,.04,.4,.04,.49v.43c0,.16,.01,.3,.05,.44h-1.28c.02-.13,.04-.26,.04-.4v-.46c0-.11,.01-.3,.04-.52-.65,.88-1.03,1.25-1.96,1.88-.26-.44-.4-.61-.78-1,.96-.49,1.52-.92,1.92-1.5h-.65c-.43,0-.73,.01-1,.06v-1.15c.28,.05,.55,.06,1.01,.06h1.43v-1.42c0-.37-.01-.58-.06-.82h1.31c-.04,.23-.05,.43-.05,.79v1.44h1.46Zm-.61,8.16c-.44-.35-.61-.46-1.12-.73-.76,.68-1.46,1.03-2.87,1.43-.18-.42-.36-.74-.62-1.1,1.08-.23,1.71-.47,2.37-.89-.6-.26-.92-.4-1.77-.71,.38-.53,.49-.68,.78-1.19h-.35c-.43,0-.67,.01-.95,.06v-1.21c.26,.05,.5,.06,.95,.06h.9c.12-.28,.17-.42,.31-.85l1.25,.24c-.11,.3-.16,.38-.25,.61h1.9c.42,0,.66-.01,.89-.06v1.21c-.25-.05-.46-.06-.97-.06-.24,.76-.35,1.01-.72,1.54,.48,.23,.56,.28,.97,.54l-.7,1.12Zm-3.17-10.27c.46,.66,.6,.95,.84,1.58l-1.06,.4c-.24-.67-.43-1.04-.8-1.6l1.02-.38Zm1.22,7.08c-.17,.29-.2,.35-.42,.67,.5,.18,.66,.24,1.02,.4,.25-.34,.42-.65,.54-1.07h-1.14Zm3.25-6.66c-.46,.92-.54,1.07-.91,1.62l-1.02-.46c.38-.53,.65-1.02,.85-1.61l1.08,.44Zm5.22,2.72c-.24-.04-.37-.04-.84-.05-.1,1.99-.47,3.39-1.22,4.7,.65,.83,1.34,1.4,2.28,1.87-.28,.37-.48,.74-.7,1.27-.9-.53-1.72-1.25-2.34-2.06-.77,.88-1.68,1.61-2.72,2.15-.24-.62-.35-.82-.65-1.2,.52-.25,.67-.34,.95-.52,.7-.46,1.24-.94,1.7-1.5-.56-1.02-.79-1.68-1.01-2.82-.22,.34-.3,.46-.55,.79-.26-.35-.53-.61-.86-.86,.74-.94,1.25-2,1.62-3.45,.16-.56,.28-1.28,.29-1.63l1.32,.26c-.05,.14-.07,.25-.17,.66-.07,.31-.18,.72-.31,1.19h2.09c.58,0,.84-.01,1.13-.06v1.26Zm-3.61-.05q-.1,.22-.16,.37c.19,1.28,.44,2.13,.96,3.15,.47-1.01,.68-2.03,.74-3.53h-1.55Z"/><path d="M88.68,165.45c0-.25-.01-.52-.05-.77h.62c.6-.31,1.06-.62,1.49-1.02h-3.75c-.54,0-.88,.02-1.25,.07v-1.31c.35,.05,.7,.06,1.25,.06h4.38c.46,0,.68-.01,.92-.05l.63,.8q-.31,.26-.48,.41c-.9,.78-1.58,1.28-2.46,1.79v.08h3.17c.58,0,1.07-.02,1.46-.07v1.35c-.38-.05-.91-.07-1.46-.07h-3.17v2.11c0,1.03-.4,1.36-1.7,1.36-.41,0-.86-.02-1.45-.07-.07-.47-.12-.62-.38-1.27,.61,.08,1.26,.14,1.68,.14s.55-.08,.55-.32v-1.94h-3.3c-.55,0-1.06,.02-1.46,.07v-1.35c.43,.05,.91,.07,1.46,.07h3.3v-.07Zm-.19-5.3c0-.36-.01-.62-.06-.91h1.46c-.05,.28-.06,.54-.06,.91v.26h3.27c.61,0,.91-.01,1.37-.05-.04,.3-.05,.55-.05,.95v.97c0,.34,.02,.62,.06,.91h-1.32v-1.6h-7.8v1.6h-1.32c.05-.28,.06-.54,.06-.91v-.97c0-.38-.01-.66-.06-.95,.46,.04,.78,.05,1.38,.05h3.06v-.26Z"/><path d="M96.22,160.71c.49,.11,1.26,.16,2.78,.16,.32-.72,.43-1.08,.48-1.49l1.57,.17q-.07,.12-.48,1.08c-.06,.13-.08,.17-.11,.22q.1-.01,.76-.05c1.39-.08,2.48-.22,3.14-.41l.08,1.37q-.33,.02-.95,.1c-.88,.11-2.4,.2-3.61,.24-.35,.68-.68,1.16-1.1,1.59v.02q.1-.06,.25-.18c.44-.34,1.08-.54,1.69-.54,.94,0,1.52,.44,1.71,1.27,.92-.34,1.54-.55,1.84-.65,.65-.23,.7-.24,.89-.36l.56,1.38c-.34,.05-.7,.14-1.33,.32-.17,.05-.77,.25-1.8,.61v.13q.01,.31,.01,.48v.48c-.01,.2-.01,.31-.01,.4,0,.26,.01,.43,.04,.64l-1.39,.04c.05-.22,.07-.83,.07-1.39v-.29c-.59,.28-.9,.44-1.15,.62-.42,.31-.62,.64-.62,.98,0,.62,.58,.88,2.03,.88s2.67-.18,3.53-.5l.12,1.55c-.2,0-.26,.01-.55,.05-.86,.13-2.01,.22-3.07,.22-1.27,0-2.06-.14-2.67-.5-.55-.31-.88-.89-.88-1.55,0-.49,.14-.88,.53-1.33,.54-.67,1.22-1.13,2.58-1.69-.06-.44-.3-.65-.73-.65-.7,0-1.54,.42-2.46,1.24-.5,.42-.78,.72-1.04,1.09l-1.09-1.08c.31-.24,.66-.58,1.08-1.07,.47-.55,1.2-1.6,1.44-2.05q.05-.1,.1-.16s-.2,.01-.2,.01c-.19,0-1.25-.02-1.51-.02q-.23-.01-.34-.01s-.11,0-.19,.01l.02-1.37Z"/><path d="M109.52,169.55c-.94,0-1.13,.01-1.55,.06,.07-.68,.16-1.1,.31-1.54,.32-.88,.86-1.64,1.64-2.35,.42-.37,.78-.65,1.98-1.45,1.1-.76,1.44-1.15,1.44-1.76,0-.82-.64-1.32-1.66-1.32-.7,0-1.22,.24-1.52,.71-.2,.29-.29,.55-.37,1.1l-1.71-.2c.17-.91,.38-1.4,.83-1.92,.6-.7,1.55-1.07,2.75-1.07,2.1,0,3.39,1.01,3.39,2.65,0,.79-.26,1.37-.85,1.92-.33,.31-.46,.41-2.01,1.47-.53,.37-1.13,.88-1.43,1.2-.36,.38-.5,.62-.68,1.08h3.36c.76,0,1.36-.04,1.75-.1v1.58c-.56-.05-1.04-.07-1.81-.07h-3.85Z"/><path d="M118.3,165.57c0-.58,0-.84,.02-1.33-.31,.53-.49,.77-.88,1.19-.19-.71-.29-.95-.55-1.43,.83-.84,1.52-1.99,2.03-3.36,.2-.55,.36-1.1,.42-1.52l1.32,.38c-.07,.19-.11,.3-.19,.59-.2,.66-.5,1.4-.89,2.21v6.63c0,.58,.01,.95,.06,1.39h-1.42c.05-.41,.07-.79,.07-1.43v-3.32Zm8.24-5.08c.61,0,.97-.01,1.32-.06v1.31c-.31-.05-.55-.06-1.21-.06h-.9l1.02,.28c-.38,.88-.5,1.12-.88,1.74h1.08c.52,0,.9-.02,1.22-.06v1.31c-.32-.05-.58-.06-1.22-.06h-5.88c-.46,0-.76,.01-1.03,.06v-1.3c.23,.04,.49,.05,1,.05h1.04c-.16-.54-.42-1.19-.67-1.68l.96-.34h-.68c-.67,0-.9,.01-1.2,.06v-1.31c.34,.05,.65,.06,1.29,.06h1.57v-.36c0-.3-.02-.61-.06-.85h1.46c-.05,.3-.06,.54-.06,.84v.37h1.82Zm-4.33,9.75h-1.34c.04-.32,.06-.66,.06-1.18v-2.37c0-.4-.01-.66-.05-1,.3,.04,.56,.05,.96,.05h4.45c.48,0,.63-.01,.89-.05-.04,.3-.05,.53-.05,1.03v2.4c0,.5,.01,.78,.06,1.12h-1.39v-.62h-3.59v.62Zm0-1.8h3.6v-1.54h-3.6v1.54Zm2.35-4.75c.42-.73,.58-1.1,.88-2.01h-2.76c.34,.72,.38,.84,.66,1.68l-.91,.34h2.13Z"/></g><g><path class="cls-3" d="M17.33,181.36c-.52,.42-.74,.77-.74,1.13,0,.33,.21,.55,.62,.69,.28,.08,.81,.14,1.42,.14,.97,0,1.96-.14,2.45-.33l.08,.92c-.13,0-.17,0-.31,.03-.84,.12-1.48,.18-2.16,.18-.83,0-1.52-.09-1.94-.26-.66-.26-.98-.68-.98-1.27s.29-1.07,.98-1.66l.58,.44Zm-1.06-3.14c.46,.12,1.24,.19,2.17,.19,1.09,0,1.69-.04,2.18-.15l.04,.75c-.5,.22-1.29,.7-2.09,1.28l-.58-.46c.5-.33,.62-.39,.9-.56,.09-.05,.11-.06,.21-.11,.06-.04,.08-.05,.16-.1-.42,.06-.74,.08-1.17,.08-.5,0-1.17-.04-1.62-.1-.14-.02-.17-.02-.28-.02l.06-.8Z"/><path class="cls-3" d="M25.34,182.17c-.46,1.06-.95,1.52-1.58,1.52-.85,0-1.47-.89-1.47-2.1,0-.86,.3-1.66,.86-2.28,.66-.72,1.58-1.1,2.69-1.1,1.86,0,3.09,1.14,3.09,2.87,0,1.34-.7,2.41-1.9,2.9-.38,.15-.69,.24-1.23,.34-.12-.37-.19-.5-.41-.78,.62-.1,.98-.18,1.33-.33,.86-.37,1.39-1.21,1.39-2.17,0-.83-.39-1.5-1.1-1.87-.27-.14-.49-.2-.86-.22-.14,1.19-.43,2.36-.82,3.22Zm-1.1-2.83c-.73,.49-1.18,1.34-1.18,2.25,0,.7,.3,1.25,.69,1.25,.29,0,.58-.35,.9-1.08,.31-.74,.58-1.85,.69-2.81-.44,.05-.75,.15-1.1,.38Z"/><path class="cls-3" d="M32.13,178.01q-.03,.21-.08,1.78c-.06,1.54-.23,2.4-.66,3.21-.27,.53-.58,.92-1.11,1.44-.24-.32-.35-.42-.67-.64,.63-.51,1.02-1.07,1.29-1.83,.24-.71,.34-1.72,.34-3.37,0-.34,0-.45-.02-.64l.91,.05Zm2.06-.1c-.04,.27-.05,.4-.05,.97l-.05,4.44c.61-.26,.96-.5,1.33-.92,.4-.44,.67-.92,.86-1.52,.23,.3,.32,.39,.63,.64-.33,.76-.73,1.34-1.23,1.8-.46,.41-.89,.65-1.71,.97-.15,.06-.24,.1-.33,.14l-.43-.47c.05-.19,.06-.32,.06-.73l.04-4.36v-.19c0-.42,0-.57-.04-.78h.92Z"/><path class="cls-3" d="M37.7,180.61c.3,.04,.64,.06,1.23,.06h4.33c.69,0,.88,0,1.19-.05v.93c-.35-.03-.61-.04-1.2-.04h-4.31c-.67,0-.91,0-1.24,.04v-.94Z"/><path class="cls-3" d="M47.55,178.01q-.03,.21-.08,1.78c-.06,1.54-.23,2.4-.66,3.21-.27,.53-.58,.92-1.11,1.44-.24-.32-.35-.42-.67-.64,.63-.51,1.02-1.07,1.29-1.83,.24-.71,.34-1.72,.34-3.37,0-.34,0-.45-.02-.64l.91,.05Zm2.06-.1c-.04,.27-.05,.4-.05,.97l-.05,4.44c.61-.26,.96-.5,1.33-.92,.4-.44,.67-.92,.86-1.52,.23,.3,.32,.39,.63,.64-.33,.76-.73,1.34-1.23,1.8-.46,.41-.89,.65-1.71,.97-.15,.06-.24,.1-.33,.14l-.43-.47c.05-.19,.06-.32,.06-.73l.04-4.36v-.19c0-.42,0-.57-.04-.78h.92Z"/><path class="cls-3" d="M52.91,179.68c.29,0,1.06-.08,1.73-.18,.14-.75,.22-1.38,.22-1.64,0-.03,0-.08,0-.14l.88,.09c-.02,.1-.04,.16-.06,.26l-.19,1.06c-.03,.18-.03,.2-.06,.3,.22-.02,.34-.02,.52-.02,.51,0,.88,.13,1.13,.39,.28,.29,.38,.66,.38,1.37,0,1.32-.22,2.4-.58,2.85-.22,.26-.45,.36-.85,.36-.33,0-.68-.08-1.22-.26,.02-.14,.02-.24,.02-.3,0-.15,0-.28-.06-.55,.43,.2,.9,.34,1.17,.34,.26,0,.4-.18,.53-.62,.13-.42,.21-1.18,.21-1.87,0-.75-.22-.99-.88-.99-.17,0-.3,0-.51,.03-.32,1.33-.63,2.22-1.14,3.29-.06,.13-.24,.48-.53,1.05l-.78-.43c.24-.3,.56-.88,.83-1.48,.35-.78,.54-1.32,.82-2.37-.62,.08-1.2,.18-1.51,.27l-.08-.8Zm5.36-.73c.81,.92,1.3,1.81,1.66,3l-.75,.39c-.15-.64-.34-1.15-.66-1.74-.3-.57-.55-.92-.93-1.32l.67-.34Zm.29-1.37c.38,.42,.55,.68,.83,1.2l-.5,.27c-.26-.5-.49-.83-.83-1.22l.5-.25Zm.94-.46c.38,.42,.55,.66,.82,1.17l-.49,.28c-.25-.46-.47-.8-.82-1.2l.48-.25Z"/><path class="cls-3" d="M60.7,178.78c.19,.03,.34,.04,.64,.04h1.61c.33,0,.46,0,.64-.03v.7c-.17-.02-.29-.03-.59-.03h-1.66c-.27,0-.44,0-.64,.03v-.7Zm6.8,2.41q-.05,.08-.15,.31c-.14,.3-.46,.85-.65,1.1-.14,.21-.28,.37-.48,.58,.54,.38,.99,.58,1.88,.85-.16,.26-.25,.43-.35,.7-.94-.34-1.48-.62-2.04-1.06-.52,.42-1.12,.75-1.95,1.07-.11-.24-.22-.42-.41-.61,0,.21,0,.35,.03,.54h-.67v-.3h-1.08v.4h-.7c.03-.22,.05-.48,.05-.78v-1.14c0-.26,0-.44-.04-.65,.22,.02,.38,.03,.63,.03h1.24c.33,0,.42,0,.56-.02-.02,.18-.02,.29-.02,.59v1.3c.78-.25,1.34-.53,1.85-.9-.5-.53-.75-.94-1.09-1.73-.18,0-.26,0-.41,.03v-.71c.16,.03,.31,.04,.54,.04h2.3c.32,0,.46,0,.58-.03l.38,.38Zm-6.54-3.53c.21,.03,.34,.04,.65,.04h1.12c.31,0,.44,0,.65-.04v.67c-.19-.02-.37-.03-.65-.03h-1.12c-.27,0-.46,0-.65,.03v-.67Zm0,2.31c.16,.02,.28,.02,.55,.02h1.3c.27,0,.38,0,.54-.02v.64c-.18-.02-.3-.02-.54-.02h-1.3c-.26,0-.39,0-.55,.02v-.64Zm0,1.11c.17,.02,.28,.02,.55,.02h1.3c.27,0,.38,0,.54-.02v.64c-.22-.02-.27-.02-.54-.02h-1.3c-.26,0-.37,0-.54,.02v-.64Zm.66,2.71h1.08v-.98h-1.08v.98Zm3.37-5.43c-.02,.77-.11,1.16-.35,1.62-.17,.32-.33,.51-.62,.76-.19-.2-.38-.35-.58-.46,.66-.46,.89-.99,.89-2.08,0-.22,0-.29-.03-.5,.21,.02,.4,.03,.62,.03h1.12c.28,0,.48,0,.68-.03-.02,.19-.03,.4-.03,.71v1.21c0,.12,.06,.15,.3,.15s.32-.02,.35-.12c.05-.12,.07-.36,.1-.86,.22,.13,.37,.19,.61,.26-.1,1.21-.19,1.33-1.09,1.33-.79,0-.94-.07-.94-.49v-1.52h-1.02Zm-.21,3.11c.24,.55,.46,.87,.91,1.29,.4-.42,.6-.7,.89-1.29h-1.8Z"/><path class="cls-3" d="M71.98,180.42h-1.27c-.36,0-.57,0-.81,.04v-.73c.21,.02,.45,.04,.81,.04h3.16c.36,0,.6-.02,.81-.04v.73c-.21-.02-.44-.04-.81-.04h-1.19v1.13h1.53c.35,0,.57-.02,.78-.05v.73c-.24-.03-.44-.04-.78-.04h-1.53v1.54c.34,.05,.81,.08,1.3,.08,.55,0,1.1-.02,1.85-.09-.12,.27-.17,.45-.21,.77-.58,.02-.94,.02-1.5,.02-1.22,0-2.09-.15-2.69-.47-.46-.24-.79-.56-1.05-.98-.32,.68-.6,1.09-1.14,1.67-.18-.25-.27-.33-.58-.54,.55-.53,.83-.9,1.1-1.5,.25-.54,.44-1.29,.44-1.7l.76,.14q-.03,.13-.1,.46c-.03,.12-.12,.46-.22,.76,.2,.37,.29,.5,.51,.7,.24,.22,.47,.37,.82,.5v-3.13Zm-.13-2.45c0-.19,0-.31-.05-.5h.84c-.03,.18-.05,.3-.05,.5v.34h2.21c.31,0,.57,0,.86-.03-.02,.18-.03,.35-.03,.57v.58c0,.24,0,.42,.03,.61h-.73v-1.06h-5.33v1.06h-.74c.02-.2,.03-.34,.03-.61v-.58c0-.2,0-.41-.03-.57,.3,.02,.54,.03,.85,.03h2.13v-.34Z"/><path class="cls-3" d="M76.96,179.18c.22,.03,.42,.04,.73,.04,.63,0,1.66-.07,2.23-.16-.03-.1-.04-.11-.15-.36-.07-.18-.18-.46-.29-.73-.05-.11-.06-.14-.11-.23l.87-.12c.04,.26,.19,.69,.47,1.34,.83-.14,1.54-.32,1.94-.49l.1,.8c-.19,.03-.26,.05-.53,.11-.58,.13-.59,.14-1.24,.26,.26,.51,.45,.86,.54,1.02,.24,.39,.57,.89,.86,1.28l-.77,.38c-.2-.18-.32-.26-.55-.33-.38-.13-.79-.19-1.31-.19-.63,0-1.1,.1-1.43,.3-.24,.15-.39,.41-.39,.67,0,.56,.63,.88,1.75,.88,.83,0,1.73-.2,2.35-.53l.11,.86c-.91,.3-1.65,.43-2.44,.43-1.07,0-1.85-.23-2.24-.66-.23-.26-.36-.59-.36-.95,0-.51,.29-.98,.79-1.29,.46-.27,.97-.39,1.71-.39,.64,0,1.14,.08,1.52,.25l-.07-.1c-.24-.34-.47-.71-.74-1.25-.07-.14-.09-.17-.14-.26-.78,.11-1.77,.18-2.84,.2-.18,0-.21,0-.34,.02l-.06-.8Z"/><path class="cls-3" d="M83.7,182.47c.16-.11,.3-.23,.51-.43q.74-.74,.9-.93c0-.09,.02-.53,.04-1.33-.91,.06-1.03,.07-1.24,.11l-.04-.76c.14,0,.2,0,.29,0,.14,0,.68-.02,1.02-.05q0-.12,0-.33c0-.25,.02-.52,.02-.77,0-.1,0-.18-.02-.34l.86,.02c-.03,.19-.06,.62-.1,1.36,.06,0,.06,0,.13-.04l.26,.3c-.13,.1-.22,.22-.43,.5,0,.06,0,.11,0,.15l-.02,.6c.2-.23,.49-.48,1.01-.89,.73-.55,1.25-.79,1.74-.79,.61,0,1.03,.41,1.03,.99,0,.35-.02,.46-.38,2.02-.1,.48-.16,.82-.16,1.04,0,.29,.14,.46,.39,.46,.19,0,.42-.16,.61-.42,.19-.27,.36-.6,.46-.9,.16,.36,.24,.49,.46,.78-.24,.42-.34,.57-.53,.79-.34,.38-.73,.58-1.14,.58-.24,0-.48-.07-.65-.19-.28-.2-.41-.5-.41-.96,0-.42,.02-.52,.34-2,.11-.51,.17-.85,.17-1.04,0-.23-.13-.36-.38-.36-.27,0-.63,.16-1.07,.48-.54,.39-1.12,.91-1.5,1.33,0,.35,0,.58,0,.8,0,1.11,.02,2.02,.05,2.27h-.87q.05-.34,.06-1.98c0-.21,0-.3,.02-.49-.14,.19-.19,.25-.63,.73-.18,.21-.3,.34-.38,.47l-.41-.8Z"/><path class="cls-3" d="M91.2,178.69q.15,0,.28,0c.17,0,.26,0,.49-.02,.94-.06,2.84-.18,4.72-.26,.55-.02,.79-.05,.93-.08l.06,.84h-.14c-.45,0-1.01,.14-1.5,.38-1.09,.54-1.76,1.41-1.76,2.27,0,.64,.4,1.14,1.09,1.38,.37,.12,.9,.22,1.18,.22,.03,0,.08,0,.14,0l-.12,.9c-.1-.02-.14-.02-.26-.05-.87-.13-1.33-.27-1.81-.56-.67-.41-1.04-1.05-1.04-1.81s.35-1.47,1.05-2.12c.32-.3,.5-.42,.96-.64-.56,.09-.88,.12-1.73,.18-1.39,.1-2.07,.16-2.49,.25l-.05-.88Z"/><path class="cls-3" d="M99.73,178.35c-.05,.29-.06,.59-.06,1.06,0,.82,.07,1.82,.17,2.33,.16,.83,.44,1.36,.72,1.36,.13,0,.25-.13,.36-.37,.18-.42,.32-.87,.42-1.42,.23,.27,.34,.37,.66,.62-.41,1.5-.82,2.09-1.46,2.09-.53,0-1.01-.51-1.29-1.37-.26-.82-.38-1.88-.42-3.82,0-.27,0-.32-.02-.49h.93Zm3.81,.38c1.01,1.21,1.54,2.45,1.78,4.17l-.82,.32c-.06-.74-.24-1.54-.53-2.25-.27-.7-.65-1.32-1.13-1.9l.7-.34Z"/><path class="cls-3" d="M107.02,178.04c.26,.04,.41,.05,.85,.05,.73,0,1.67-.04,2.46-.1,.26-.02,.33-.03,.45-.1l.43,.6c-.12,.06-.17,.1-.41,.33-1.11,1.06-1.98,1.78-2.54,2.1l.02,.02c.68-.31,1.16-.42,1.8-.42,1.34,0,2.21,.69,2.21,1.75,0,.74-.38,1.33-1.07,1.72-.52,.29-1.16,.44-1.88,.44-.64,0-1.17-.12-1.48-.34-.3-.21-.48-.54-.48-.9,0-.61,.55-1.06,1.29-1.06,.55,0,1.04,.24,1.36,.66,.16,.21,.25,.38,.37,.74,.27-.09,.43-.17,.6-.29,.31-.23,.49-.57,.49-.95,0-.7-.62-1.13-1.64-1.13-1.17,0-2.38,.5-3.33,1.35l-.46-.71c.72-.38,2.6-1.93,3.64-2.99l.14-.14h0c-.29,.03-1.14,.09-2.36,.14-.18,0-.24,.02-.4,.04l-.04-.82Zm1.65,4.73c-.33,0-.54,.16-.54,.42,0,.35,.41,.57,1.08,.57,.16,0,.21,0,.46-.03-.16-.63-.5-.95-1-.95Z"/><path class="cls-3" d="M114.25,183.8c0,.47,.02,.74,.05,.95h-.79c.03-.23,.05-.48,.05-.95v-5.2c0-.42,0-.64-.03-.9,.22,.02,.42,.03,.82,.03h1.31c.41,0,.59,0,.82-.03-.02,.25-.02,.44-.02,.75v1.14c0,.34,0,.54,.02,.73-.22-.02-.46-.02-.77-.02h-1.46v3.49Zm0-5.03h1.54v-.49h-1.54v.49Zm0,1.01h1.54v-.5h-1.54v.5Zm4.14,3.28c0,.3,0,.51,.02,.71-.24-.02-.46-.02-.78-.02h-1.7v.49h-.7c.03-.23,.04-.46,.04-.78v-1.89c0-.29,0-.51-.02-.74,.22,.02,.42,.03,.76,.03h1.66c.34,0,.54,0,.76-.03-.02,.22-.02,.42-.02,.74v1.49Zm-2.46-1.05h1.81v-.58h-1.81v.58Zm0,1.18h1.81v-.62h-1.81v.62Zm4.22,.67c0,.62-.21,.8-.98,.8-.18,0-.63-.02-.77-.02-.05-.31-.09-.46-.19-.72,.42,.06,.7,.08,.91,.08,.27,0,.34-.04,.34-.22v-3.47h-1.6c-.3,0-.55,0-.77,.02,.02-.22,.02-.42,.02-.73v-1.14c0-.27,0-.52-.02-.75,.22,.02,.41,.03,.82,.03h1.45c.42,0,.62,0,.84-.03-.03,.3-.04,.5-.04,.89v5.26Zm-2.38-5.08h1.69v-.49h-1.69v.49Zm0,1.01h1.69v-.5h-1.69v.5Z"/><path class="cls-3" d="M121.78,182.39c.71,.55,1.13,.98,1.72,1.74l-.66,.61c-.56-.78-1.02-1.26-1.67-1.79l.61-.55Z"/><path class="cls-3" d="M19.85,188.96v-.72c0-.52,0-.62-.03-.82h.86c-.02,.19-.02,.24-.03,.54v1h.58c.53,0,.7,0,1-.06v.83c-.27-.03-.5-.04-.98-.04h-.6q-.02,1.08-.06,1.38c-.11,.99-.46,1.67-1.14,2.25-.42,.35-.79,.56-1.5,.81-.13-.29-.22-.41-.5-.7,.72-.22,1.13-.42,1.53-.77,.54-.48,.78-1.01,.85-1.95,.02-.22,.02-.5,.03-1.01h-2.21v.94c0,.42,.02,.77,.04,.97h-.9c.02-.26,.04-.57,.04-.94v-.97h-.57c-.47,0-.66,0-.98,.04v-.83c.33,.05,.49,.06,1,.06h.55v-.74c0-.28-.02-.64-.04-.81h.9c-.03,.23-.05,.51-.05,.8v.74h2.22Z"/><path class="cls-3" d="M29.19,187.85c-.14,.12-.15,.13-.36,.34-.52,.55-1.17,1.11-1.84,1.59v3.22c0,.55,.02,.81,.05,1.06h-.95c.04-.3,.05-.47,.05-1.06v-2.69c-.98,.6-1.48,.82-2.94,1.34-.14-.34-.22-.46-.45-.77,1.54-.41,2.9-1.08,4.17-2.07,.72-.56,1.27-1.11,1.5-1.5l.77,.54Z"/><path class="cls-3" d="M31.48,193.28c-.6,0-.74,0-1.02,.04v-.88c.3,.05,.45,.06,1.03,.06h3.61v-3.64h-3.46c-.6,0-.75,0-1.06,.04v-.88c.33,.05,.42,.06,1.07,.06h3.65q.4,0,.67-.02c-.02,.22-.02,.31-.02,.65v4.2c0,.4,0,.58,.04,.86h-.9v-.48h-3.63Z"/><path class="cls-3" d="M38.74,193.21v.55h-.87c.02-.22,.04-.5,.04-.98v-3.98c0-.41,0-.61-.04-.83,.39,.02,.54,.03,.99,.03h3.79c.48,0,.68,0,.97-.04-.02,.22-.03,.44-.03,.84v3.97c0,.53,0,.78,.03,.98h-.86v-.55h-4.01Zm4.01-4.45h-4.01v3.7h4.01v-3.7Z"/><path class="cls-3" d="M44.92,189.28c.29,0,1.06-.08,1.73-.18,.14-.75,.22-1.38,.22-1.64,0-.03,0-.08,0-.14l.88,.09c-.02,.1-.04,.16-.06,.26l-.19,1.06c-.03,.18-.03,.2-.06,.3,.22-.02,.34-.02,.52-.02,.51,0,.88,.13,1.13,.39,.28,.29,.38,.66,.38,1.37,0,1.32-.22,2.4-.58,2.85-.22,.26-.45,.36-.85,.36-.33,0-.68-.08-1.22-.26,.02-.14,.02-.24,.02-.3,0-.15,0-.28-.06-.55,.43,.2,.9,.34,1.17,.34,.26,0,.4-.18,.53-.62,.13-.42,.21-1.18,.21-1.87,0-.75-.22-.99-.88-.99-.17,0-.3,0-.51,.03-.32,1.33-.63,2.22-1.14,3.29-.06,.13-.24,.48-.53,1.06l-.78-.43c.24-.3,.56-.88,.83-1.48,.35-.78,.54-1.32,.82-2.38-.62,.08-1.2,.18-1.51,.27l-.08-.8Zm5.36-.73c.81,.92,1.3,1.81,1.66,3l-.75,.39c-.15-.64-.34-1.15-.66-1.73-.3-.57-.55-.92-.93-1.32l.67-.34Zm.29-1.37c.38,.42,.55,.68,.83,1.2l-.5,.27c-.26-.5-.49-.83-.83-1.22l.5-.25Zm.94-.46c.38,.42,.55,.66,.82,1.17l-.49,.28c-.25-.46-.47-.8-.82-1.2l.48-.25Z"/><path class="cls-3" d="M55.69,187.86c0-.38-.02-.57-.06-.77h.86c-.04,.23-.06,.42-.06,.77v1.86h1.87v-1.39c0-.25,0-.42-.03-.61h.82c-.03,.23-.04,.39-.04,.66v1.59c0,.2,0,.34,.02,.47-.18-.02-.35-.02-.54-.02h-2.1v2.75h2.14v-1.41c0-.28,0-.48-.04-.68h.82c-.02,.19-.04,.42-.04,.74v1.76c0,.35,.02,.54,.05,.75h-.79v-.44h-4.93v.44h-.79c.03-.22,.05-.45,.05-.75v-1.72c0-.31,0-.53-.04-.74h.82c-.03,.18-.04,.38-.04,.69v1.37h2.04v-2.75h-1.94c-.19,0-.36,0-.55,.02,.02-.16,.02-.32,.02-.47v-1.58c0-.25-.02-.45-.04-.66h.82c-.02,.16-.03,.36-.03,.62v1.38h1.73v-1.86Z"/><path class="cls-3" d="M62.1,187.43c-.04,.22-.06,.45-.09,1.03-.03,.69-.08,2.45-.08,3,0,.74,.05,1.04,.22,1.29,.19,.29,.59,.45,1.13,.45,.88,0,1.59-.5,2-1.38,.18-.4,.28-.74,.38-1.31,.35,.3,.48,.38,.81,.53-.32,1.03-.55,1.53-.92,1.95-.59,.67-1.37,1.01-2.33,1.01-.55,0-1.05-.13-1.37-.35-.52-.37-.74-.94-.74-1.97,0-.46,0-.9,.06-3.24,0-.25,0-.4,0-.54,0-.19,0-.29-.03-.48l.95,.02Z"/><path class="cls-3" d="M67.5,188.53c.3,.06,.52,.07,.98,.07,.18,0,.3,0,.47,0,.1-.5,.17-1.05,.17-1.29,0-.02,0-.06,0-.11l.89,.08q-.06,.18-.15,.76c-.04,.24-.05,.32-.09,.53,.61-.06,1.02-.14,1.39-.26l.04,.77q-.06,0-.24,.04c-.38,.08-.94,.15-1.33,.18-.1,.54-.31,1.42-.52,2.15-.24,.83-.43,1.38-.9,2.57l-.84-.34c.57-1.03,1.15-2.77,1.46-4.35-.07,0-.48,0-.65,0-.06,0-.12,0-.23,0-.12,0-.26,0-.37,0h-.09v-.78Zm3.82,3.03c-.21,.26-.27,.34-.33,.46-.06,.14-.1,.3-.1,.42,0,.42,.45,.65,1.28,.65,.59,0,1.34-.12,1.79-.29l.06,.83c-.13,.02-.18,.02-.38,.06-.63,.1-1,.14-1.46,.14-.68,0-1.18-.1-1.54-.3-.35-.2-.56-.56-.56-.97,0-.38,.14-.7,.58-1.28l.66,.28Zm2.41-1.18c-.38-.04-.61-.05-.98-.05-.76,0-1.28,.06-2.06,.24l-.06-.74c1.06-.21,1.46-.26,2.27-.26,.22,0,.35,0,.82,0l.02,.8Z"/><path class="cls-3" d="M78.21,188.6c.26,0,.42,0,.53-.02v.62c-.13-.02-.27-.02-.53-.02h-.65c.21,.24,.47,.44,.82,.62-.18,.19-.19,.21-.4,.54-.42-.34-.54-.46-.8-.85,.02,.16,.02,.28,.02,.35v.36c0,.1,0,.22,.02,.31h-.71c.02-.1,.03-.2,.03-.29v-.36c0-.09,0-.22,.02-.37-.49,.66-.7,.88-1.38,1.35-.14-.23-.24-.35-.45-.54,.7-.38,1.05-.68,1.39-1.14h-.58c-.28,0-.48,0-.65,.04v-.66c.18,.03,.35,.04,.66,.04h.99v-.99c0-.22,0-.37-.04-.54h.73c-.02,.15-.03,.3-.03,.53v1h1Zm-.32,5.29c-.32-.24-.44-.32-.8-.51-.53,.47-.98,.7-1.92,1-.1-.24-.2-.41-.35-.62,.71-.17,1.22-.38,1.65-.7-.37-.17-.59-.26-1.2-.48,.26-.36,.34-.47,.54-.82h-.34c-.28,0-.43,0-.6,.04v-.68c.16,.03,.31,.04,.6,.04h.65c.09-.19,.13-.3,.22-.59l.7,.14c-.1,.23-.12,.3-.19,.45h1.34c.28,0,.43,0,.58-.04v.68c-.17-.03-.33-.04-.62-.04h-.06c-.16,.51-.27,.74-.54,1.11,.34,.16,.42,.2,.73,.4l-.39,.62Zm-2.21-6.7c.3,.42,.41,.64,.58,1.05l-.58,.23c-.17-.44-.3-.7-.56-1.06l.57-.22Zm.85,4.57c-.1,.18-.16,.27-.33,.54,.38,.14,.51,.19,.76,.3,.22-.29,.34-.5,.43-.84h-.86Zm2.13-4.34c-.29,.58-.38,.74-.64,1.11l-.58-.26c.28-.36,.46-.69,.61-1.1l.61,.26Zm3.52,1.76c-.17-.02-.3-.03-.62-.03-.05,.82-.1,1.19-.25,1.74-.15,.53-.34,.97-.59,1.41,.47,.62,.94,1,1.62,1.36-.16,.2-.25,.36-.41,.7-.66-.38-1.15-.82-1.65-1.46-.5,.6-1.08,1.06-1.85,1.49-.13-.26-.23-.42-.44-.63,.86-.42,1.42-.85,1.89-1.45-.38-.66-.58-1.22-.74-2.05-.16,.27-.25,.41-.45,.66-.16-.21-.3-.34-.5-.47,.53-.63,.91-1.46,1.16-2.46,.09-.35,.15-.7,.16-.94l.75,.15q-.03,.1-.1,.39c-.1,.43-.17,.65-.25,.92h1.5c.38,0,.54,0,.75-.05v.72Zm-2.49-.03c-.04,.1-.05,.14-.1,.23,.14,.92,.35,1.59,.71,2.27,.37-.71,.53-1.42,.58-2.5h-1.19Z"/><path class="cls-3" d="M86.13,191.2c0-.21,0-.38-.03-.56h.4c.48-.24,.78-.44,1.15-.78h-2.73c-.34,0-.58,.02-.82,.05v-.74c.23,.03,.46,.04,.82,.04h2.98c.3,0,.46,0,.62-.03l.36,.45c-.13,.1-.15,.13-.31,.26-.57,.49-.94,.76-1.71,1.22v.12h2.21c.36,0,.69-.02,.92-.05v.77c-.24-.03-.56-.05-.92-.05h-2.21v1.57c0,.62-.25,.81-1.02,.81-.3,0-.6-.02-.98-.05-.04-.26-.07-.38-.21-.73,.38,.06,.82,.11,1.12,.11,.27,0,.36-.06,.36-.22v-1.49h-2.25c-.36,0-.66,.02-.92,.05v-.77c.26,.03,.57,.05,.92,.05h2.25v-.04Zm-.11-3.53c0-.25-.02-.43-.04-.62h.82c-.02,.19-.04,.37-.04,.62v.2h2.25c.37,0,.6,0,.9-.04-.03,.21-.04,.37-.04,.62v.58c0,.21,.02,.4,.04,.59h-.74v-1.1h-5.37v1.1h-.74c.02-.19,.04-.38,.04-.6v-.58c0-.24,0-.43-.04-.62,.29,.03,.54,.04,.9,.04h2.07v-.2Z"/><path class="cls-3" d="M93.99,191.77c-.46,1.06-.95,1.52-1.58,1.52-.85,0-1.47-.89-1.47-2.1,0-.86,.3-1.66,.86-2.28,.66-.72,1.58-1.09,2.69-1.09,1.86,0,3.09,1.14,3.09,2.87,0,1.33-.7,2.41-1.9,2.9-.38,.15-.69,.24-1.23,.34-.12-.37-.19-.5-.41-.78,.62-.1,.98-.18,1.33-.33,.86-.37,1.39-1.21,1.39-2.17,0-.83-.39-1.5-1.09-1.87-.27-.14-.49-.2-.86-.22-.14,1.19-.43,2.36-.82,3.22Zm-1.09-2.83c-.73,.49-1.18,1.34-1.18,2.25,0,.7,.3,1.25,.69,1.25,.29,0,.58-.35,.9-1.08,.31-.74,.58-1.86,.69-2.81-.44,.05-.75,.15-1.09,.38Z"/><path class="cls-3" d="M100.08,193.83c-.58,0-.7,0-.98,.04,.06-.5,.11-.75,.22-1.04,.21-.54,.56-1.03,1.07-1.49,.27-.24,.52-.42,1.28-.93s.98-.81,.98-1.3c0-.55-.46-.9-1.18-.9-.5,0-.86,.17-1.09,.5-.14,.2-.2,.38-.26,.77l-.95-.13c.1-.58,.25-.9,.54-1.23,.38-.44,.98-.67,1.74-.67,1.33,0,2.15,.65,2.15,1.69,0,.61-.23,1.03-.81,1.47-.25,.18-.36,.26-1.07,.74-.9,.6-1.29,1.05-1.5,1.68h2.38c.46,0,.82-.02,1.09-.06v.9c-.35-.03-.66-.05-1.12-.05h-2.5Z"/><path class="cls-3" d="M105.93,191.08c0-.35,0-.56,.02-.92-.23,.4-.37,.59-.66,.9-.13-.36-.18-.49-.35-.74,.59-.62,1.06-1.38,1.42-2.32,.14-.37,.25-.76,.29-1.03l.74,.22c-.06,.13-.08,.2-.14,.38-.14,.49-.34,.94-.62,1.52v4.36c0,.39,0,.65,.04,.93h-.8c.03-.27,.05-.53,.05-.96v-2.33Zm2.54-1.02c-.15-.5-.29-.82-.5-1.21l.67-.24c.24,.49,.3,.63,.5,1.21l-.64,.24h1.56c.31-.53,.45-.82,.66-1.46l.73,.21c-.29,.63-.39,.82-.65,1.25h.83c.35,0,.6-.02,.8-.04v.74c-.21-.03-.39-.04-.8-.04h-3.92c-.31,0-.5,0-.7,.04v-.74c.16,.03,.34,.04,.69,.04h.78Zm2.89-2.12c.41,0,.64,0,.85-.04v.73c-.19-.03-.37-.04-.79-.04h-3.3c-.43,0-.61,0-.79,.04v-.73c.21,.03,.41,.04,.83,.04h1.14v-.28c0-.22-.02-.42-.04-.58h.82c-.02,.19-.04,.37-.04,.58v.28h1.32Zm-3,6.37h-.75c.03-.19,.04-.42,.04-.76v-1.54c0-.28,0-.45-.03-.66,.21,.02,.38,.03,.65,.03h2.84c.3,0,.4,0,.58-.03-.02,.2-.03,.34-.03,.69v1.57c0,.32,0,.5,.04,.71h-.78v-.44h-2.56v.44Zm0-1.09h2.57v-1.21h-2.57v1.21Z"/><path class="cls-3" d="M113.18,190.13c.2,.03,.34,.04,.63,.04h.52c.23,0,.42,0,.61-.04-.02,.25-.03,.45-.03,.86v1.62c.18,.36,.33,.51,.63,.65,.38,.17,.86,.23,1.78,.23,1.49,0,2.48-.05,3.27-.17-.13,.34-.16,.46-.22,.8-.75,.03-1.71,.05-2.61,.05-1.46,0-1.96-.06-2.42-.27-.3-.14-.55-.36-.78-.69-.35,.34-.53,.49-.95,.8-.06,.05-.17,.14-.26,.22l-.34-.75c.32-.14,.73-.43,1.21-.86v-1.81h-.47c-.25,0-.37,0-.56,.04v-.73Zm.64-2.93c.55,.49,.97,.94,1.34,1.43l-.56,.53c-.47-.66-.72-.94-1.31-1.48l.53-.48Zm4.66,5h1.05c.39,0,.6,0,.79-.04v.7c-.23-.03-.46-.04-.78-.04h-3.1c-.32,0-.47,0-.69,.03,.02-.24,.03-.43,.03-.81v-2.05c0-.2,0-.36,.02-.56-.18,.28-.31,.44-.56,.69-.18-.28-.26-.38-.46-.56,.79-.74,1.21-1.33,1.54-2.18,.05-.13,.08-.22,.1-.34l.76,.15q-.05,.1-.16,.35c-.1,.2-.16,.33-.34,.66h1.14c.27-.45,.41-.74,.53-1.12l.74,.14c-.06,.08-.06,.11-.21,.39-.12,.23-.18,.35-.34,.58h.93c.34,0,.58-.02,.78-.04v.69c-.21-.02-.39-.03-.69-.03h-1.07v.7h.72c.43,0,.59,0,.8-.03v.66c-.22-.02-.39-.03-.8-.03h-.72v.7h.72c.43,0,.59,0,.8-.03v.66c-.22-.02-.39-.03-.8-.03h-.72v.8Zm-.67-3.39h-1.34v.7h1.34v-.7Zm0,1.29h-1.34v.7h1.34v-.7Zm-1.34,1.3v.8h1.34v-.8h-1.34Z"/><path class="cls-3" d="M121.39,188.29c.22,.06,.49,.08,1.06,.08h.41q0-.39,0-.55c0-.29,0-.36-.03-.54h.85q-.06,.28-.08,1.06c.6-.05,1.13-.14,1.42-.25l.03,.74c-.09,0-.12,0-.24,.03-.46,.08-.86,.14-1.22,.16-.02,.62-.02,.78-.02,.93,.26,.22,.37,.46,.37,.85,0,.26-.06,.5-.18,.74-.05,.1-.06,.11-.27,.46-.22,.36-.3,.57-.3,.78,0,.18,.09,.3,.28,.38,.22,.08,.6,.13,1.11,.13,.62,0,1.29-.1,1.6-.23,.3-.13,.42-.31,.42-.62,0-.4-.16-.99-.41-1.48,.35,.1,.5,.14,.89,.17,.02,.05,.07,.22,.17,.53,.11,.34,.15,.59,.15,.9,0,.5-.19,.86-.57,1.07-.3,.18-.62,.26-1.19,.34-.36,.05-.79,.07-1.14,.07-.8,0-1.35-.1-1.69-.32-.29-.18-.42-.42-.42-.77,0-.27,.07-.48,.28-.8-.11,.08-.2,.1-.34,.1-.55,0-.96-.49-.96-1.14,0-.74,.58-1.35,1.31-1.35,.02,0,.07,0,.15,0,0-.15,0-.17,0-.35,0-.18,0-.22,0-.36-.21,0-.49,0-.58,0-.22,0-.36,0-.61-.02-.07,0-.13,0-.16,0-.02,0-.06,0-.12,0v-.74Zm.7,2.8c0,.3,.19,.51,.46,.51,.35,0,.63-.33,.63-.74,0-.34-.17-.52-.46-.52-.37,0-.63,.31-.63,.74Zm4.17-3.17c.74,.53,1.29,1.06,1.82,1.74l-.63,.53c-.42-.65-1.16-1.39-1.77-1.8l.58-.46Z"/><path class="cls-3" d="M16.66,202.94c0,.44,0,.66,.04,.98h-.76c.03-.3,.05-.55,.05-.97v-2.21c0-.42,0-.62,.02-1.04-.22,.42-.34,.61-.6,.94-.11-.35-.2-.54-.34-.74,.73-.83,1.33-2.13,1.52-3.26l.7,.25c-.04,.1-.1,.28-.13,.38-.12,.45-.26,.81-.51,1.35v4.32Zm1.66-3.63c-.27,.76-.6,1.34-1.12,1.98-.14-.26-.26-.44-.42-.62,.7-.8,1.08-1.67,1.25-2.93h-.06c-.29,0-.42,0-.63,.03v-.7c.21,.03,.4,.04,.74,.04h1.24c.37,0,.58,0,.78-.04v.7c-.19-.02-.36-.03-.66-.03h-.75c-.06,.45-.1,.62-.18,.94h.62c.3,0,.46,0,.61-.03l.21,.27c-.02,.1-.02,.1-.04,.29-.11,1.05-.42,2.08-.86,2.85-.4,.7-.93,1.3-1.65,1.88-.17-.24-.29-.37-.51-.56,.82-.58,1.32-1.13,1.76-1.98-.22-.26-.38-.42-.74-.75l.34-.55c.36,.33,.49,.46,.68,.66,.18-.49,.25-.78,.34-1.46h-.94Zm4.05,3.8c0,.59-.21,.74-1.09,.74-.22,0-.4,0-.79-.02-.04-.29-.08-.44-.19-.7,.38,.05,.76,.07,.98,.07,.37,0,.42-.02,.42-.21v-5.35c0-.4,0-.58-.05-.86h.76c-.03,.22-.05,.46-.05,.86v5.47Zm-2.06-1.1c.03-.2,.04-.42,.04-.74v-3.33c0-.31,0-.49-.04-.74h.74c-.03,.22-.04,.38-.04,.74v3.32c0,.36,0,.54,.03,.74h-.74Z"/><path class="cls-3" d="M25.5,199.08h-1.02v-1.02h1.02v1.02Zm-1.02,3.46v-1.01h1.02v1.01h-1.02Z"/><path class="cls-3" d="M28.86,201.79c.1,.37,.2,.52,.42,.69,.27,.2,.6,.3,1,.3,.84,0,1.38-.44,1.38-1.12,0-.72-.52-1.11-1.47-1.11-.3,0-.52,.02-.78,.05v-.85c.19,.02,.44,.04,.64,.04,.41,0,.78-.08,.98-.22,.3-.19,.45-.48,.45-.84,0-.62-.42-.94-1.21-.94-.44,0-.76,.14-.97,.4-.11,.14-.16,.26-.23,.51l-.95-.18c.14-.44,.26-.66,.52-.91,.39-.38,.97-.58,1.69-.58,1.26,0,2.08,.65,2.08,1.65,0,.49-.21,.92-.56,1.17-.19,.14-.36,.21-.76,.3,.55,.07,.86,.21,1.14,.51,.26,.29,.38,.63,.38,1.1,0,.43-.18,.86-.47,1.15-.42,.41-1.06,.62-1.86,.62-.88,0-1.51-.23-1.94-.71-.19-.22-.29-.42-.43-.85l.95-.2Z"/><path class="cls-3" d="M34.12,198.88c.29,0,1.06-.08,1.73-.18,.14-.75,.22-1.38,.22-1.64,0-.03,0-.08,0-.14l.88,.09c-.02,.1-.04,.16-.06,.26l-.19,1.06c-.03,.18-.03,.2-.06,.3,.22-.02,.34-.02,.52-.02,.51,0,.88,.13,1.13,.39,.28,.29,.38,.66,.38,1.37,0,1.32-.22,2.4-.58,2.85-.22,.26-.45,.36-.85,.36-.33,0-.68-.08-1.22-.26,.02-.14,.02-.24,.02-.3,0-.15,0-.28-.06-.55,.43,.2,.9,.34,1.17,.34,.26,0,.4-.18,.53-.62,.13-.42,.21-1.18,.21-1.87,0-.75-.22-.99-.88-.99-.17,0-.3,0-.51,.03-.32,1.33-.63,2.22-1.14,3.29-.06,.13-.24,.48-.53,1.05l-.78-.43c.24-.3,.56-.88,.83-1.48,.35-.78,.54-1.32,.82-2.37-.62,.08-1.2,.18-1.51,.27l-.08-.8Zm5.36-.73c.81,.92,1.3,1.81,1.66,3l-.75,.39c-.15-.64-.34-1.15-.66-1.74-.3-.57-.55-.92-.93-1.32l.67-.34Zm.29-1.37c.38,.42,.55,.68,.83,1.2l-.5,.27c-.26-.5-.49-.83-.83-1.22l.5-.25Zm.94-.46c.38,.42,.55,.66,.82,1.17l-.49,.28c-.25-.46-.47-.8-.82-1.2l.48-.25Z"/><path class="cls-3" d="M44.89,197.46c0-.38-.02-.57-.06-.77h.86c-.04,.23-.06,.42-.06,.77v1.86h1.87v-1.39c0-.25,0-.42-.03-.61h.82c-.03,.23-.04,.39-.04,.66v1.59c0,.2,0,.34,.02,.47-.18-.02-.35-.02-.54-.02h-2.1v2.75h2.14v-1.41c0-.28,0-.48-.04-.68h.82c-.02,.19-.04,.42-.04,.74v1.76c0,.35,.02,.54,.05,.75h-.79v-.44h-4.93v.44h-.79c.03-.22,.05-.45,.05-.75v-1.72c0-.31,0-.53-.04-.74h.82c-.03,.18-.04,.38-.04,.69v1.37h2.04v-2.75h-1.94c-.19,0-.36,0-.55,.02,.02-.16,.02-.32,.02-.47v-1.58c0-.25-.02-.45-.04-.66h.82c-.02,.16-.03,.36-.03,.62v1.38h1.73v-1.86Z"/><path class="cls-3" d="M49.71,198.13c.3,.06,.52,.07,.98,.07,.18,0,.3,0,.47,0,.1-.5,.17-1.05,.17-1.29,0-.02,0-.06,0-.11l.89,.08q-.06,.18-.15,.76c-.04,.24-.05,.32-.09,.53,.61-.06,1.02-.14,1.39-.26l.04,.77q-.06,0-.24,.04c-.38,.08-.94,.15-1.33,.18-.1,.54-.31,1.42-.52,2.15-.24,.83-.43,1.38-.9,2.57l-.84-.34c.57-1.03,1.15-2.77,1.46-4.35-.07,0-.48,0-.65,0-.06,0-.12,0-.23,0-.12,0-.26,0-.37,0h-.09v-.78Zm3.82,3.03c-.21,.26-.27,.34-.33,.46-.06,.14-.1,.3-.1,.42,0,.42,.45,.65,1.28,.65,.59,0,1.34-.12,1.79-.29l.06,.83c-.13,.02-.18,.02-.38,.06-.63,.1-1,.14-1.46,.14-.68,0-1.18-.1-1.54-.3-.35-.2-.56-.56-.56-.97,0-.38,.14-.7,.58-1.28l.66,.28Zm2.41-1.18c-.38-.04-.61-.05-.98-.05-.76,0-1.28,.06-2.06,.24l-.06-.74c1.06-.21,1.46-.26,2.27-.26,.22,0,.35,0,.82,0l.02,.8Z"/><path class="cls-3" d="M60.29,201.44c-.31,.3-.6,.52-1.02,.76-.08-.14-.12-.19-.29-.38-.26,.14-1.02,.47-1.33,.59-.22,.09-.42,.18-.46,.2l-.15-.79c.31-.06,.42-.09,.94-.27v-2.25h-.28c-.24,0-.44,.02-.64,.04v-.73c.2,.03,.38,.04,.66,.04h.26v-1.04c0-.39-.02-.64-.05-.88h.79c-.04,.26-.05,.48-.05,.89v1.03h.16c.29,0,.46,0,.61-.03v.71c-.22-.02-.38-.03-.6-.03h-.17v1.98c.23-.1,.32-.14,.57-.27v.5c.5-.32,.87-.66,1.1-1.06h-.3c-.34,0-.57,.02-.74,.04v-.68c.18,.03,.38,.04,.74,.04h3.46c.38,0,.62-.02,.82-.05v.68c-.2-.02-.46-.03-.82-.03h-2.44c-.1,.17-.14,.23-.29,.43h2.59c.38,0,.56,0,.78-.03-.02,.13-.02,.15-.04,.48-.06,1.08-.19,1.89-.36,2.19-.16,.3-.39,.39-.98,.39-.22,0-.45,0-.7-.02-.03-.29-.09-.46-.22-.71,.39,.06,.69,.08,.94,.08,.22,0,.34-.05,.39-.14,.1-.23,.2-.87,.25-1.66h-.39c-.21,.47-.46,.89-.77,1.24-.25,.28-.68,.67-1.01,.91-.2,.14-.35,.24-.68,.42-.18-.25-.24-.32-.5-.51,.68-.33,1.01-.54,1.44-.94,.34-.31,.62-.69,.82-1.13h-.61c-.48,.76-1.18,1.34-2.21,1.85-.12-.2-.22-.33-.44-.51,.89-.37,1.54-.82,1.92-1.33h-.72Zm.23-2.02c-.31,0-.55,0-.73,.03,.02-.22,.03-.44,.03-.75v-1.11c0-.35,0-.48-.03-.72,.24,.03,.43,.04,.79,.04h2.24c.38,0,.62,0,.85-.04-.03,.22-.03,.38-.03,.77v1.06c0,.35,0,.58,.03,.74-.18-.02-.41-.02-.73-.02h-2.42Zm0-1.5h2.43v-.43h-2.43v.43Zm0,.97h2.43v-.45h-2.43v.45Z"/><path class="cls-3" d="M66.75,199.15c-.56,.37-.87,.54-1.44,.81-.09-.25-.19-.42-.42-.67,.75-.3,1.46-.73,2.1-1.25,.56-.46,.91-.84,1.24-1.36h.82c.34,.53,.7,.9,1.33,1.39,.66,.51,1.33,.89,2.1,1.18-.18,.26-.27,.43-.38,.73-.58-.27-.9-.46-1.48-.85v.64c-.19-.02-.41-.03-.7-.03h-2.5c-.23,0-.46,0-.66,.03v-.62Zm-.71,4.77c.03-.24,.05-.48,.05-.81v-1.83c0-.31-.02-.54-.04-.77,.17,.02,.36,.03,.66,.03h3.89c.3,0,.5,0,.67-.03-.03,.22-.04,.44-.04,.77v1.83c0,.34,0,.56,.05,.81h-.8v-.42h-3.64v.42h-.8Zm.8-1.07h3.64v-1.65h-3.64v1.65Zm3.07-3.79c.25,0,.38,0,.55-.02-.83-.6-1.3-1.04-1.81-1.73-.53,.74-.96,1.17-1.74,1.73,.17,0,.3,.02,.51,.02h2.49Z"/><path class="cls-3" d="M73.6,201.59c.71,.55,1.13,.98,1.72,1.74l-.66,.61c-.56-.78-1.02-1.26-1.67-1.79l.61-.55Z"/><path class="cls-3" d="M81.36,198.64c-.22-.59-.56-.84-1.14-.84s-1.03,.3-1.3,.9c-.2,.44-.29,.83-.33,1.54,.16-.24,.25-.34,.43-.48,.36-.28,.74-.4,1.26-.4,1.32,0,2.12,.79,2.12,2.1s-.91,2.11-2.23,2.11c-.62,0-1.18-.19-1.55-.52-.57-.5-.88-1.44-.88-2.62,0-.97,.24-1.89,.63-2.43,.46-.62,1.06-.92,1.86-.92,.64,0,1.16,.19,1.53,.56,.22,.22,.34,.41,.5,.78l-.9,.23Zm-2.62,2.8c0,.79,.6,1.37,1.41,1.37,.5,0,.94-.22,1.18-.6,.12-.19,.19-.47,.19-.77,0-.86-.5-1.36-1.33-1.36s-1.44,.58-1.44,1.36Z"/><path class="cls-3" d="M85.32,199.56c.46,.37,.72,.61,1.06,.94q.43,.43,.49,.49c.38-.31,.77-.69,1.06-1,.38-.42,.88-1.07,1.12-1.48t.04-.06s0-.02,.02-.04c-.08,0-.17,.02-.32,.02h-3.93c-.51,0-.7,0-1.07,.04v-.86c.32,.04,.58,.06,1.09,.06h4.45c.31,0,.41,0,.58-.06l.46,.54c-.1,.11-.16,.18-.34,.46-.75,1.2-1.64,2.22-2.61,3.01,.3,.34,.65,.78,1.1,1.39l-.7,.56c-.43-.68-.86-1.23-1.54-1.98-.59-.66-1.01-1.05-1.59-1.53l.64-.47Z"/><path class="cls-3" d="M97.06,203.59c-.63-.8-1.51-1.64-2.49-2.42-.93,1.05-1.8,1.72-3.05,2.34-.18-.34-.26-.45-.54-.74,.62-.24,1-.46,1.61-.89,1.23-.89,2.22-2.11,2.76-3.4q.02-.07,.05-.12s.02-.03,.03-.07c-.1,0-.14,0-.25,0l-2.32,.04c-.5,0-.65,.02-1.02,.06l-.02-.87c.27,.03,.47,.05,.82,.05h.22l2.66-.04c.38,0,.46-.02,.63-.08l.45,.47c-.1,.1-.16,.22-.24,.41-.38,.89-.79,1.59-1.28,2.21,1.01,.73,1.65,1.29,2.66,2.31l-.66,.74Z"/><path class="cls-3" d="M98.45,199.73c.2,.03,.34,.04,.63,.04h.52c.23,0,.42,0,.61-.04-.02,.25-.03,.45-.03,.86v1.62c.18,.36,.33,.51,.63,.65,.38,.17,.86,.23,1.78,.23,1.49,0,2.48-.05,3.27-.17-.13,.34-.16,.46-.22,.8-.75,.03-1.71,.05-2.61,.05-1.46,0-1.96-.06-2.42-.27-.3-.14-.55-.36-.78-.69-.35,.34-.53,.49-.95,.8-.06,.05-.17,.14-.26,.22l-.34-.75c.32-.14,.73-.43,1.21-.86v-1.81h-.47c-.25,0-.37,0-.56,.04v-.73Zm.64-2.93c.55,.49,.97,.94,1.34,1.43l-.56,.53c-.47-.66-.72-.94-1.31-1.48l.53-.48Zm4.66,5h1.05c.39,0,.6,0,.79-.04v.7c-.23-.03-.46-.04-.78-.04h-3.1c-.32,0-.47,0-.69,.03,.02-.24,.03-.43,.03-.81v-2.05c0-.2,0-.36,.02-.56-.18,.28-.31,.44-.56,.69-.18-.28-.26-.38-.46-.56,.79-.74,1.21-1.33,1.54-2.18,.05-.13,.08-.22,.1-.34l.76,.15q-.05,.1-.16,.35c-.1,.2-.16,.33-.34,.66h1.14c.27-.45,.41-.74,.53-1.12l.74,.14c-.06,.08-.06,.11-.21,.39-.12,.23-.18,.35-.34,.58h.93c.34,0,.58-.02,.78-.04v.69c-.21-.02-.39-.03-.69-.03h-1.07v.7h.72c.43,0,.59,0,.8-.03v.66c-.22-.02-.39-.03-.8-.03h-.72v.7h.72c.43,0,.59,0,.8-.03v.66c-.22-.02-.39-.03-.8-.03h-.72v.8Zm-.67-3.39h-1.34v.7h1.34v-.7Zm0,1.29h-1.34v.7h1.34v-.7Zm-1.34,1.29v.8h1.34v-.8h-1.34Z"/><path class="cls-3" d="M106.66,197.89c.22,.06,.49,.08,1.06,.08h.41q0-.39,0-.55c0-.29,0-.36-.03-.54h.85q-.06,.28-.08,1.06c.6-.05,1.13-.14,1.42-.25l.03,.74c-.09,0-.12,0-.24,.03-.46,.08-.86,.14-1.22,.16-.02,.62-.02,.78-.02,.93,.26,.22,.37,.46,.37,.85,0,.26-.06,.5-.18,.74-.05,.1-.06,.11-.27,.46-.22,.36-.3,.57-.3,.78,0,.18,.09,.3,.28,.38,.22,.08,.6,.13,1.11,.13,.62,0,1.29-.1,1.6-.23,.3-.13,.42-.31,.42-.62,0-.4-.16-.99-.41-1.48,.35,.1,.5,.14,.89,.17,.02,.05,.07,.22,.17,.53,.11,.34,.15,.59,.15,.9,0,.5-.19,.86-.57,1.07-.3,.18-.62,.26-1.19,.34-.36,.05-.79,.07-1.14,.07-.8,0-1.35-.1-1.69-.32-.29-.18-.42-.42-.42-.77,0-.27,.07-.48,.28-.8-.11,.08-.2,.1-.34,.1-.55,0-.96-.49-.96-1.14,0-.74,.58-1.35,1.31-1.35,.02,0,.07,0,.15,0,0-.15,0-.17,0-.35,0-.18,0-.22,0-.36-.21,0-.49,0-.58,0-.22,0-.36,0-.61-.02-.07,0-.13,0-.16,0-.02,0-.06,0-.12,0v-.74Zm.7,2.8c0,.3,.19,.51,.46,.51,.35,0,.63-.33,.63-.74,0-.34-.17-.52-.46-.52-.37,0-.63,.31-.63,.74Zm4.17-3.17c.74,.53,1.29,1.05,1.82,1.73l-.63,.53c-.42-.65-1.16-1.39-1.77-1.8l.58-.46Z"/></g><g><rect class="cls-1" x="10.02" y="8.43" width="9.96" height="14.52" rx=".68" ry=".68"/><path class="cls-1" d="M19.3,8.96c.09,0,.16,.07,.16,.16v13.15c0,.09-.07,.16-.16,.16H10.7c-.09,0-.16-.07-.16-.16V9.12c0-.09,.07-.16,.16-.16h8.6m0-1.04H10.7c-.66,0-1.2,.54-1.2,1.2v13.15c0,.66,.54,1.2,1.2,1.2h8.6c.66,0,1.2-.54,1.2-1.2V9.12c0-.66-.54-1.2-1.2-1.2h0Z"/></g><line class="cls-5" x1="12" y1="11.63" x2="18" y2="11.63"/><line class="cls-5" x1="12" y1="14.19" x2="18" y2="14.19"/><line class="cls-5" x1="12" y1="16.74" x2="15" y2="16.74"/><g><rect class="cls-4" x="61.76" y="69.66" width="47.06" height="47.06" rx="4.01" ry="4.01"/><rect class="cls-1" x="67.76" y="75.66" width="47.06" height="47.06" rx="4.01" ry="4.01"/><rect class="cls-4" x="69.76" y="77.66" width="47.06" height="47.06" rx="4.01" ry="4.01"/><g><circle class="cls-1" cx="93.29" cy="101.19" r="3.98"/><circle class="cls-1" cx="81.35" cy="89.25" r="3.98"/><circle class="cls-1" cx="105.23" cy="89.25" r="3.98"/><circle class="cls-1" cx="105.23" cy="113.13" r="3.98"/><circle class="cls-1" cx="81.35" cy="113.13" r="3.98"/></g></g></svg>