<?xml version="1.0" encoding="UTF-8"?><svg id="Layer_1" xmlns="http://www.w3.org/2000/svg" viewBox="0 0 178.58 249.45"><defs><style>.cls-1{fill:#fff;}.cls-2{fill:#31de4b;}.cls-3{fill:gray;}.cls-4{fill:#4d4d4d;}.cls-5{fill:none;stroke:#31de4b;stroke-linecap:round;stroke-miterlimit:10;}</style></defs><g><path class="cls-1" d="M13.95,3H164.63c6.04,0,10.95,4.91,10.95,10.95V235.5c0,6.04-4.91,10.95-10.95,10.95H13.95c-6.04,0-10.95-4.91-10.95-10.95V13.95C3,7.91,7.91,3,13.95,3Z"/><path class="cls-2" d="M164.63,6c4.38,0,7.95,3.57,7.95,7.95V235.5c0,4.38-3.57,7.95-7.95,7.95H13.95c-4.38,0-7.95-3.57-7.95-7.95V13.95c0-4.38,3.57-7.95,7.95-7.95H164.63m0-6H13.95C6.25,0,0,6.25,0,13.95V235.5C0,243.2,6.25,249.45,13.95,249.45H164.63c7.71,0,13.95-6.25,13.95-13.95V13.95c0-7.71-6.25-13.95-13.95-13.95h0Z"/></g><g><path class="cls-2" d="M41.78,12.72h-2.44c.04,.31,.05,.6,.05,1.01v.47l-.06,7.7c0,.53-.03,.75-.14,1.09l1.12,1.17c.17-.1,.27-.14,.64-.27,1.31-.48,1.95-.82,2.73-1.48,.99-.84,1.66-1.85,2.25-3.3-.74-.57-1.08-.91-1.73-1.72-.23,.88-.55,1.56-1.01,2.22-.44,.61-.86,.99-1.56,1.43l.06-6.81c.01-.77,.03-.98,.1-1.51h0Zm-6.14,.06c.04,.34,.05,.62,.05,1.2,0,3.37-.21,4.98-.82,6.25-.4,.86-.81,1.4-1.55,2.07,.83,.58,1.2,.95,1.86,1.82,.88-.94,1.38-1.64,1.81-2.6,.62-1.42,.88-2.86,.96-5.58q.09-2.57,.14-3.02l-2.46-.14h0Z"/><path class="cls-2" d="M58.26,16.97c-.87,.09-1.37,.12-2.67,.12h-6.21c-1.35,0-2.05-.03-2.67-.12v2.51c.79-.06,1.22-.08,2.68-.08h6.19c1.48,0,2.05,.01,2.68,.08v-2.51h0Z"/><path class="cls-2" d="M67.57,12.72h-2.44c.04,.31,.05,.6,.05,1.01v.47l-.06,7.7c0,.53-.03,.75-.14,1.09l1.12,1.17c.17-.1,.27-.14,.64-.27,1.31-.48,1.95-.82,2.73-1.48,.99-.84,1.66-1.85,2.25-3.3-.74-.57-1.08-.91-1.73-1.72-.23,.88-.55,1.56-1.01,2.22-.44,.61-.86,.99-1.56,1.43l.06-6.81c.01-.77,.03-.98,.1-1.51h0Zm-6.14,.06c.04,.34,.05,.62,.05,1.2,0,3.37-.21,4.98-.82,6.25-.4,.86-.81,1.4-1.55,2.07,.83,.58,1.2,.95,1.86,1.82,.88-.94,1.38-1.64,1.81-2.6,.62-1.42,.88-2.86,.96-5.58q.09-2.57,.14-3.02l-2.46-.14h0Z"/><path class="cls-2" d="M76.08,12.4c.04,.27,.04,.38,.04,.65,0,.4-.03,1.16-.06,1.66h-1.79c-.92,0-1.16-.01-1.81-.1v2.22c.62-.06,.9-.08,1.77-.08h1.62c-.18,1.09-.33,1.56-.65,2.22-.65,1.31-1.65,2.24-3.38,3.15,.71,.61,1.1,1.05,1.69,1.98,2.64-1.74,3.87-3.43,4.45-6.06q.09-.44,.19-1.3h2.48c0,1.12-.12,2.76-.25,3.63-.17,1.13-.33,1.34-.95,1.34-.4,0-1.04-.09-1.69-.26,.3,.82,.39,1.25,.44,2.29,1,.09,1.2,.1,1.7,.1,1.44,0,2.07-.42,2.44-1.62,.26-.86,.46-3.03,.55-5.81,.01-.6,.04-.7,.18-.96l-1.01-.88c-.29,.12-.44,.14-.87,.14h-2.83q.03-.31,.04-.66c.08-1.24,.08-1.27,.14-1.57l-2.44-.06h0Z"/><path class="cls-2" d="M96.21,16.97c-.87,.09-1.37,.12-2.67,.12h-6.21c-1.35,0-2.05-.03-2.67-.12v2.51c.79-.06,1.22-.08,2.68-.08h6.19c1.48,0,2.05,.01,2.68,.08v-2.51h0Z"/><path class="cls-2" d="M106.49,12.46l-1.17,.53c.46,.52,.82,1.04,1.27,1.86l1.2-.58c-.46-.79-.82-1.29-1.3-1.81h0Zm-5.11,.05h-2.51c.08,.7,.08,.77,.09,1.89v7.57c-.01,1.07-.03,1.44-.08,1.99h2.51c-.05-.34-.08-1.03-.08-1.99v-3.38c.05,.04,.08,.05,.12,.06,.04,.03,.08,.04,.47,.19,1.51,.66,3.02,1.5,4.1,2.26l1.23-2.21c-1.82-1.12-3.86-2.04-5.92-2.7v-1.78c.01-1.35,.01-1.56,.06-1.9h0Zm3.38,.73l-1.23,.56c.52,.6,.86,1.08,1.29,1.9l1.23-.6c-.36-.69-.78-1.29-1.29-1.86h0Z"/></g><path class="cls-2" d="M13.95,0H30V16.05c0,7.7-6.25,13.95-13.95,13.95H0V13.95C0,6.25,6.25,0,13.95,0Z"/><g><path d="M25.21,162.25c-.1,.22-.12,.38-.13,.8-.04,1.36-.17,3.2-.29,3.99-.31,2.08-.73,2.57-2.17,2.57-.46,0-.86-.04-1.49-.13-.02-.76-.06-.98-.28-1.54,.71,.19,1.19,.28,1.58,.28,.52,0,.7-.26,.89-1.31,.14-.83,.26-2.46,.26-3.84h-2.79c-.17,1.51-.42,2.41-.96,3.44-.66,1.27-1.73,2.36-3.24,3.32-.41-.64-.58-.83-1.08-1.27,1.5-.79,2.48-1.74,3.12-3.02,.32-.66,.5-1.25,.61-2.09,.02-.17,.05-.29,.06-.37h-1.99c-.73,.01-.9,.02-1.3,.07v-1.48c.4,.07,.72,.1,1.32,.1h2.1c.04-.47,.06-1.16,.06-1.51v-.3c0-.16,0-.25-.04-.47l1.61,.04c-.02,.16-.04,.2-.05,.37,0,.07-.01,.14-.01,.23q-.02,.25-.05,.88c-.01,.26-.01,.37-.05,.75h2.66c.54-.01,.65-.02,.95-.12l.68,.6Z"/><path d="M27.05,163.9c.53,.07,.76,.08,1.94,.08h6.39c1.19,0,1.42-.01,1.94-.08v1.67c-.48-.06-.61-.06-1.96-.06h-6.37c-1.34,0-1.48,0-1.96,.06v-1.67Z"/><path d="M40.13,169.88c.05-.33,.07-.66,.07-1.34v-7.69c-.01-.7-.02-.94-.07-1.22h1.64c-.04,.32-.05,.55-.05,1.26v2.23c1.39,.46,3.55,1.46,5.45,2.53l-.84,1.42c-.84-.6-2.54-1.52-4.25-2.29-.28-.13-.31-.14-.41-.2,.04,.34,.05,.54,.05,.82v3.17c0,.65,.01,.98,.05,1.33h-1.64Zm4.94-9.63c.53,.56,.85,1.02,1.26,1.76l-.84,.44c-.4-.73-.73-1.21-1.26-1.79l.84-.42Zm1.86,1.45c-.36-.66-.76-1.22-1.22-1.74l.8-.42c.54,.55,.88,1.01,1.25,1.69l-.83,.47Z"/><path d="M49.36,160.71c.49,.11,1.26,.16,2.78,.16,.32-.72,.43-1.08,.48-1.49l1.57,.17q-.07,.12-.48,1.08c-.06,.13-.08,.17-.11,.22q.1-.01,.76-.05c1.39-.08,2.48-.22,3.14-.41l.08,1.37q-.34,.02-.95,.1c-.88,.11-2.4,.2-3.61,.24-.35,.68-.68,1.16-1.1,1.59v.02q.1-.06,.25-.18c.44-.34,1.08-.54,1.69-.54,.94,0,1.52,.44,1.72,1.27,.92-.34,1.54-.55,1.83-.65,.65-.23,.7-.24,.89-.36l.56,1.38c-.34,.05-.7,.14-1.33,.32-.17,.05-.77,.25-1.8,.61v.13q.01,.31,.01,.48v.48c-.01,.2-.01,.31-.01,.4,0,.26,.01,.43,.04,.64l-1.39,.04c.05-.22,.07-.83,.07-1.39v-.29c-.59,.28-.9,.44-1.15,.62-.42,.31-.62,.64-.62,.98,0,.62,.58,.88,2.03,.88s2.67-.18,3.53-.5l.12,1.55c-.2,0-.26,.01-.55,.05-.86,.13-2.02,.22-3.07,.22-1.27,0-2.06-.14-2.67-.5-.55-.31-.88-.89-.88-1.55,0-.49,.14-.88,.53-1.33,.54-.67,1.22-1.13,2.58-1.69-.06-.44-.3-.65-.73-.65-.7,0-1.54,.42-2.46,1.24-.5,.42-.78,.72-1.04,1.09l-1.09-1.08c.31-.24,.66-.58,1.08-1.07,.47-.55,1.2-1.6,1.44-2.05q.05-.1,.1-.16s-.2,.01-.2,.01c-.19,0-1.25-.02-1.51-.02q-.23-.01-.34-.01s-.11,0-.19,.01l.02-1.37Z"/><path d="M62.66,169.55c-.94,0-1.13,.01-1.55,.06,.07-.68,.16-1.1,.31-1.54,.32-.88,.86-1.64,1.64-2.35,.42-.37,.78-.65,1.98-1.45,1.1-.76,1.44-1.15,1.44-1.76,0-.82-.64-1.32-1.66-1.32-.7,0-1.22,.24-1.52,.71-.2,.29-.29,.55-.37,1.1l-1.72-.2c.17-.91,.38-1.4,.83-1.92,.6-.7,1.55-1.07,2.75-1.07,2.1,0,3.39,1.01,3.39,2.65,0,.79-.26,1.37-.85,1.92-.34,.31-.46,.41-2.02,1.47-.53,.37-1.13,.88-1.43,1.2-.36,.38-.5,.62-.68,1.08h3.36c.76,0,1.36-.04,1.75-.1v1.58c-.56-.05-1.04-.07-1.81-.07h-3.85Z"/><path d="M79.56,170.33v-.66h-7.47v.66h-1.39c.05-.38,.07-.9,.07-1.56v-7.59c0-.56-.02-1-.07-1.44,.44,.05,.82,.06,1.4,.06h7.44c.6,0,.97-.01,1.43-.06-.05,.44-.07,.84-.07,1.44v7.6c0,.65,.02,1.25,.07,1.55h-1.4Zm-7.47-1.85h7.47v-7.48h-7.47v7.48Zm5-6.12c.53,0,.85-.01,1.16-.05-.04,.29-.05,.59-.05,.96v2.87c0,.38,.01,.65,.05,.96-.35-.04-.66-.05-1.16-.05h-2.55c-.6,0-.8,.01-1.16,.05,.04-.32,.05-.6,.05-.96v-2.87c0-.35-.01-.65-.05-.96,.3,.04,.64,.05,1.16,.05h2.55Zm-2.41,3.56h2.25v-2.43h-2.25v2.43Z"/><path d="M83.39,165.41c0-.37,0-.56,.04-1.33-.26,.47-.46,.75-.84,1.26-.17-.58-.3-.92-.55-1.43,1.1-1.2,2.03-3.18,2.24-4.77l1.37,.32c-.48,1.49-.55,1.7-.98,2.66v6.82c0,.52,.01,.91,.06,1.39h-1.4c.05-.46,.07-.82,.07-1.4v-3.53Zm6.24,.61c-.13,.76-.32,1.26-.67,1.83,1.27,.7,2.5,.97,4.5,1.06-.22,.43-.41,.89-.52,1.33-2.03-.22-3.41-.65-4.72-1.49-.7,.67-1.45,1.1-2.67,1.54-.22-.43-.47-.8-.74-1.13,1.1-.3,1.81-.64,2.44-1.15-.31-.29-.47-.47-.74-.83-.16-.2-.25-.31-.37-.44l1.04-.55c.14,.29,.38,.59,.79,.96,.22-.4,.32-.68,.42-1.13h-1.76c-.38,0-.67,.01-.97,.05,.04-.35,.05-.58,.05-1.01v-1.67c0-.52-.01-.72-.05-1.01,.36,.02,.54,.04,1.12,.04h1.86v-.86h-1.99c-.48,0-.79,.01-1.15,.06v-1.29c.36,.05,.82,.07,1.3,.07h1.83c-.01-.62-.02-.84-.07-1.21h1.38q-.04,.34-.04,1.21h2.09c.55,0,.95-.02,1.36-.07v1.29c-.36-.05-.72-.06-1.2-.06h-2.24v.86h1.76c.54,0,.79-.01,1.13-.04-.02,.3-.04,.6-.04,1.04v1.55c0,.58,.01,.8,.04,1.09-.35-.04-.62-.05-1.16-.05h-1.97Zm-2.7-2.45v1.31h1.59c.05-.54,.05-.63,.07-1.31h-1.67Zm2.91,0c-.02,.62-.04,.85-.08,1.31h1.7v-1.31h-1.62Z"/><path d="M96.36,166.55c-.17,1.59-.53,2.72-1.22,3.79-.5-.48-.67-.61-1.16-.95,.43-.62,.71-1.26,.88-2.03,.12-.56,.2-1.19,.24-1.83,.06-1.01,.11-2.71,.11-4.13,0-.86-.01-1.25-.06-1.74,.42,.04,.73,.05,1.38,.05h6.73c.67,0,1.01-.01,1.38-.05-.04,.41-.05,.71-.05,1.36v7.88c0,1-.36,1.25-1.73,1.25-.37,0-.98-.02-1.34-.05-.06-.46-.14-.74-.34-1.25,.6,.06,1.13,.1,1.51,.1,.49,0,.6-.05,.6-.3v-2.1h-2.88v1.97c0,.7,.01,1.08,.06,1.43h-1.42c.05-.36,.07-.71,.07-1.42v-1.98h-2.76Zm2.76-2.83h-2.65c0,.35-.01,.59-.01,.76-.01,.56-.01,.65-.01,.89h2.67v-1.64Zm0-2.75h-2.62v1.57h2.62v-1.57Zm4.16,1.57v-1.57h-2.88v1.57h2.88Zm0,2.82v-1.64h-2.88v1.64h2.88Z"/></g><g><path class="cls-3" d="M17.33,181.36c-.52,.42-.74,.77-.74,1.13,0,.33,.21,.55,.62,.69,.28,.08,.81,.14,1.42,.14,.97,0,1.96-.14,2.45-.33l.08,.92c-.13,0-.17,0-.31,.03-.84,.12-1.48,.18-2.16,.18-.83,0-1.52-.09-1.94-.26-.66-.26-.98-.68-.98-1.27s.29-1.07,.98-1.66l.58,.44Zm-1.06-3.14c.46,.12,1.24,.19,2.17,.19,1.09,0,1.69-.04,2.18-.15l.04,.75c-.5,.22-1.29,.7-2.09,1.28l-.58-.46c.5-.33,.62-.39,.9-.56,.09-.05,.11-.06,.21-.11,.06-.04,.08-.05,.16-.1-.42,.06-.74,.08-1.17,.08-.5,0-1.17-.04-1.62-.1-.14-.02-.17-.02-.28-.02l.06-.8Z"/><path class="cls-3" d="M25.34,182.17c-.46,1.06-.95,1.52-1.58,1.52-.85,0-1.47-.89-1.47-2.1,0-.86,.3-1.66,.86-2.28,.66-.72,1.58-1.1,2.69-1.1,1.86,0,3.09,1.14,3.09,2.87,0,1.34-.7,2.41-1.9,2.9-.38,.15-.69,.24-1.23,.34-.12-.37-.19-.5-.41-.78,.62-.1,.98-.18,1.33-.33,.86-.37,1.39-1.21,1.39-2.17,0-.83-.39-1.5-1.1-1.87-.27-.14-.49-.2-.86-.22-.14,1.19-.43,2.36-.82,3.22Zm-1.1-2.83c-.73,.49-1.18,1.34-1.18,2.25,0,.7,.3,1.25,.69,1.25,.29,0,.58-.35,.9-1.08,.31-.74,.58-1.85,.69-2.81-.44,.05-.75,.15-1.1,.38Z"/><path class="cls-3" d="M32.13,178.01q-.03,.21-.08,1.78c-.06,1.54-.23,2.4-.66,3.21-.27,.53-.58,.92-1.11,1.44-.24-.32-.35-.42-.67-.64,.63-.51,1.02-1.07,1.29-1.83,.24-.71,.34-1.72,.34-3.37,0-.34,0-.45-.02-.64l.91,.05Zm2.06-.1c-.04,.27-.05,.4-.05,.97l-.05,4.44c.61-.26,.96-.5,1.33-.92,.4-.44,.67-.92,.86-1.52,.23,.3,.32,.39,.63,.64-.33,.76-.73,1.34-1.23,1.8-.46,.41-.89,.65-1.71,.97-.15,.06-.24,.1-.33,.14l-.43-.47c.05-.19,.06-.32,.06-.73l.04-4.36v-.19c0-.42,0-.57-.04-.78h.92Z"/><path class="cls-3" d="M37.7,180.61c.3,.04,.64,.06,1.23,.06h4.33c.69,0,.88,0,1.19-.05v.93c-.35-.03-.61-.04-1.2-.04h-4.31c-.67,0-.91,0-1.24,.04v-.94Z"/><path class="cls-3" d="M47.55,178.01q-.03,.21-.08,1.78c-.06,1.54-.23,2.4-.66,3.21-.27,.53-.58,.92-1.11,1.44-.24-.32-.35-.42-.67-.64,.63-.51,1.02-1.07,1.29-1.83,.24-.71,.34-1.72,.34-3.37,0-.34,0-.45-.02-.64l.91,.05Zm2.06-.1c-.04,.27-.05,.4-.05,.97l-.05,4.44c.61-.26,.96-.5,1.33-.92,.4-.44,.67-.92,.86-1.52,.23,.3,.32,.39,.63,.64-.33,.76-.73,1.34-1.23,1.8-.46,.41-.89,.65-1.71,.97-.15,.06-.24,.1-.33,.14l-.43-.47c.05-.19,.06-.32,.06-.73l.04-4.36v-.19c0-.42,0-.57-.04-.78h.92Z"/><path class="cls-3" d="M52.91,179.68c.29,0,1.06-.08,1.73-.18,.14-.75,.22-1.38,.22-1.64,0-.03,0-.08,0-.14l.88,.09c-.02,.1-.04,.16-.06,.26l-.19,1.06c-.03,.18-.03,.2-.06,.3,.22-.02,.34-.02,.52-.02,.51,0,.88,.13,1.13,.39,.28,.29,.38,.66,.38,1.37,0,1.32-.22,2.4-.58,2.85-.22,.26-.45,.36-.85,.36-.33,0-.68-.08-1.22-.26,.02-.14,.02-.24,.02-.3,0-.15,0-.28-.06-.55,.43,.2,.9,.34,1.17,.34,.26,0,.4-.18,.53-.62,.13-.42,.21-1.18,.21-1.87,0-.75-.22-.99-.88-.99-.17,0-.3,0-.51,.03-.32,1.33-.63,2.22-1.14,3.29-.06,.13-.24,.48-.53,1.05l-.78-.43c.24-.3,.56-.88,.83-1.48,.35-.78,.54-1.32,.82-2.37-.62,.08-1.2,.18-1.51,.27l-.08-.8Zm5.36-.73c.81,.92,1.3,1.81,1.66,3l-.75,.39c-.15-.64-.34-1.15-.66-1.74-.3-.57-.55-.92-.93-1.32l.67-.34Zm.29-1.37c.38,.42,.55,.68,.83,1.2l-.5,.27c-.26-.5-.49-.83-.83-1.22l.5-.25Zm.94-.46c.38,.42,.55,.66,.82,1.17l-.49,.28c-.25-.46-.47-.8-.82-1.2l.48-.25Z"/><path class="cls-3" d="M60.7,178.78c.19,.03,.34,.04,.64,.04h1.61c.33,0,.46,0,.64-.03v.7c-.17-.02-.29-.03-.59-.03h-1.66c-.27,0-.44,0-.64,.03v-.7Zm6.8,2.41q-.05,.08-.15,.31c-.14,.3-.46,.85-.65,1.1-.14,.21-.28,.37-.48,.58,.54,.38,.99,.58,1.88,.85-.16,.26-.25,.43-.35,.7-.94-.34-1.48-.62-2.04-1.06-.52,.42-1.12,.75-1.95,1.07-.11-.24-.22-.42-.41-.61,0,.21,0,.35,.03,.54h-.67v-.3h-1.08v.4h-.7c.03-.22,.05-.48,.05-.78v-1.14c0-.26,0-.44-.04-.65,.22,.02,.38,.03,.63,.03h1.24c.33,0,.42,0,.56-.02-.02,.18-.02,.29-.02,.59v1.3c.78-.25,1.34-.53,1.85-.9-.5-.53-.75-.94-1.09-1.73-.18,0-.26,0-.41,.03v-.71c.16,.03,.31,.04,.54,.04h2.3c.32,0,.46,0,.58-.03l.38,.38Zm-6.54-3.53c.21,.03,.34,.04,.65,.04h1.12c.31,0,.44,0,.65-.04v.67c-.19-.02-.37-.03-.65-.03h-1.12c-.27,0-.46,0-.65,.03v-.67Zm0,2.31c.16,.02,.28,.02,.55,.02h1.3c.27,0,.38,0,.54-.02v.64c-.18-.02-.3-.02-.54-.02h-1.3c-.26,0-.39,0-.55,.02v-.64Zm0,1.11c.17,.02,.28,.02,.55,.02h1.3c.27,0,.38,0,.54-.02v.64c-.22-.02-.27-.02-.54-.02h-1.3c-.26,0-.37,0-.54,.02v-.64Zm.66,2.71h1.08v-.98h-1.08v.98Zm3.37-5.43c-.02,.77-.11,1.16-.35,1.62-.17,.32-.33,.51-.62,.76-.19-.2-.38-.35-.58-.46,.66-.46,.89-.99,.89-2.08,0-.22,0-.29-.03-.5,.21,.02,.4,.03,.62,.03h1.12c.28,0,.48,0,.68-.03-.02,.19-.03,.4-.03,.71v1.21c0,.12,.06,.15,.3,.15s.32-.02,.35-.12c.05-.12,.07-.36,.1-.86,.22,.13,.37,.19,.61,.26-.1,1.21-.19,1.33-1.09,1.33-.79,0-.94-.07-.94-.49v-1.52h-1.02Zm-.21,3.11c.24,.55,.46,.87,.91,1.29,.4-.42,.6-.7,.89-1.29h-1.8Z"/><path class="cls-3" d="M71.98,180.42h-1.27c-.36,0-.57,0-.81,.04v-.73c.21,.02,.45,.04,.81,.04h3.16c.36,0,.6-.02,.81-.04v.73c-.21-.02-.44-.04-.81-.04h-1.19v1.13h1.53c.35,0,.57-.02,.78-.05v.73c-.24-.03-.44-.04-.78-.04h-1.53v1.54c.34,.05,.81,.08,1.3,.08,.55,0,1.1-.02,1.85-.09-.12,.27-.17,.45-.21,.77-.58,.02-.94,.02-1.5,.02-1.22,0-2.09-.15-2.69-.47-.46-.24-.79-.56-1.05-.98-.32,.68-.6,1.09-1.14,1.67-.18-.25-.27-.33-.58-.54,.55-.53,.83-.9,1.1-1.5,.25-.54,.44-1.29,.44-1.7l.76,.14q-.03,.13-.1,.46c-.03,.12-.12,.46-.22,.76,.2,.37,.29,.5,.51,.7,.24,.22,.47,.37,.82,.5v-3.13Zm-.13-2.45c0-.19,0-.31-.05-.5h.84c-.03,.18-.05,.3-.05,.5v.34h2.21c.31,0,.57,0,.86-.03-.02,.18-.03,.35-.03,.57v.58c0,.24,0,.42,.03,.61h-.73v-1.06h-5.33v1.06h-.74c.02-.2,.03-.34,.03-.61v-.58c0-.2,0-.41-.03-.57,.3,.02,.54,.03,.85,.03h2.13v-.34Z"/><path class="cls-3" d="M76.96,179.18c.22,.03,.42,.04,.73,.04,.63,0,1.66-.07,2.23-.16-.03-.1-.04-.11-.15-.36-.07-.18-.18-.46-.29-.73-.05-.11-.06-.14-.11-.23l.87-.12c.04,.26,.19,.69,.47,1.34,.83-.14,1.54-.32,1.94-.49l.1,.8c-.19,.03-.26,.05-.53,.11-.58,.13-.59,.14-1.24,.26,.26,.51,.45,.86,.54,1.02,.24,.39,.57,.89,.86,1.28l-.77,.38c-.2-.18-.32-.26-.55-.33-.38-.13-.79-.19-1.31-.19-.63,0-1.1,.1-1.43,.3-.24,.15-.39,.41-.39,.67,0,.56,.63,.88,1.75,.88,.83,0,1.73-.2,2.35-.53l.11,.86c-.91,.3-1.65,.43-2.44,.43-1.07,0-1.85-.23-2.24-.66-.23-.26-.36-.59-.36-.95,0-.51,.29-.98,.79-1.29,.46-.27,.97-.39,1.71-.39,.64,0,1.14,.08,1.52,.25l-.07-.1c-.24-.34-.47-.71-.74-1.25-.07-.14-.09-.17-.14-.26-.78,.11-1.77,.18-2.84,.2-.18,0-.21,0-.34,.02l-.06-.8Z"/><path class="cls-3" d="M83.7,182.47c.16-.11,.3-.23,.51-.43q.74-.74,.9-.93c0-.09,.02-.53,.04-1.33-.91,.06-1.03,.07-1.24,.11l-.04-.76c.14,0,.2,0,.29,0,.14,0,.68-.02,1.02-.05q0-.12,0-.33c0-.25,.02-.52,.02-.77,0-.1,0-.18-.02-.34l.86,.02c-.03,.19-.06,.62-.1,1.36,.06,0,.06,0,.13-.04l.26,.3c-.13,.1-.22,.22-.43,.5,0,.06,0,.11,0,.15l-.02,.6c.2-.23,.49-.48,1.01-.89,.73-.55,1.25-.79,1.74-.79,.61,0,1.03,.41,1.03,.99,0,.35-.02,.46-.38,2.02-.1,.48-.16,.82-.16,1.04,0,.29,.14,.46,.39,.46,.19,0,.42-.16,.61-.42,.19-.27,.36-.6,.46-.9,.16,.36,.24,.49,.46,.78-.24,.42-.34,.57-.53,.79-.34,.38-.73,.58-1.14,.58-.24,0-.48-.07-.65-.19-.28-.2-.41-.5-.41-.96,0-.42,.02-.52,.34-2,.11-.51,.17-.85,.17-1.04,0-.23-.13-.36-.38-.36-.27,0-.63,.16-1.07,.48-.54,.39-1.12,.91-1.5,1.33,0,.35,0,.58,0,.8,0,1.11,.02,2.02,.05,2.27h-.87q.05-.34,.06-1.98c0-.21,0-.3,.02-.49-.14,.19-.19,.25-.63,.73-.18,.21-.3,.34-.38,.47l-.41-.8Z"/><path class="cls-3" d="M91.2,178.69q.15,0,.28,0c.17,0,.26,0,.49-.02,.94-.06,2.84-.18,4.72-.26,.55-.02,.79-.05,.93-.08l.06,.84h-.14c-.45,0-1.01,.14-1.5,.38-1.09,.54-1.76,1.41-1.76,2.27,0,.64,.4,1.14,1.09,1.38,.37,.12,.9,.22,1.18,.22,.03,0,.08,0,.14,0l-.12,.9c-.1-.02-.14-.02-.26-.05-.87-.13-1.33-.27-1.81-.56-.67-.41-1.04-1.05-1.04-1.81s.35-1.47,1.05-2.12c.32-.3,.5-.42,.96-.64-.56,.09-.88,.12-1.73,.18-1.39,.1-2.07,.16-2.49,.25l-.05-.88Z"/><path class="cls-3" d="M99.73,178.35c-.05,.29-.06,.59-.06,1.06,0,.82,.07,1.82,.17,2.33,.16,.83,.44,1.36,.72,1.36,.13,0,.25-.13,.36-.37,.18-.42,.32-.87,.42-1.42,.23,.27,.34,.37,.66,.62-.41,1.5-.82,2.09-1.46,2.09-.53,0-1.01-.51-1.29-1.37-.26-.82-.38-1.88-.42-3.82,0-.27,0-.32-.02-.49h.93Zm3.81,.38c1.01,1.21,1.54,2.45,1.78,4.17l-.82,.32c-.06-.74-.24-1.54-.53-2.25-.27-.7-.65-1.32-1.13-1.9l.7-.34Z"/><path class="cls-3" d="M107.02,178.04c.26,.04,.41,.05,.85,.05,.73,0,1.67-.04,2.46-.1,.26-.02,.33-.03,.45-.1l.43,.6c-.12,.06-.17,.1-.41,.33-1.11,1.06-1.98,1.78-2.54,2.1l.02,.02c.68-.31,1.16-.42,1.8-.42,1.34,0,2.21,.69,2.21,1.75,0,.74-.38,1.33-1.07,1.72-.52,.29-1.16,.44-1.88,.44-.64,0-1.17-.12-1.48-.34-.3-.21-.48-.54-.48-.9,0-.61,.55-1.06,1.29-1.06,.55,0,1.04,.24,1.36,.66,.16,.21,.25,.38,.37,.74,.27-.09,.43-.17,.6-.29,.31-.23,.49-.57,.49-.95,0-.7-.62-1.13-1.64-1.13-1.17,0-2.38,.5-3.33,1.35l-.46-.71c.72-.38,2.6-1.93,3.64-2.99l.14-.14h0c-.29,.03-1.14,.09-2.36,.14-.18,0-.24,.02-.4,.04l-.04-.82Zm1.65,4.73c-.33,0-.54,.16-.54,.42,0,.35,.41,.57,1.08,.57,.16,0,.21,0,.46-.03-.16-.63-.5-.95-1-.95Z"/><path class="cls-3" d="M114.25,183.8c0,.47,.02,.74,.05,.95h-.79c.03-.23,.05-.48,.05-.95v-5.2c0-.42,0-.64-.03-.9,.22,.02,.42,.03,.82,.03h1.31c.41,0,.59,0,.82-.03-.02,.25-.02,.44-.02,.75v1.14c0,.34,0,.54,.02,.73-.22-.02-.46-.02-.77-.02h-1.46v3.49Zm0-5.03h1.54v-.49h-1.54v.49Zm0,1.01h1.54v-.5h-1.54v.5Zm4.14,3.28c0,.3,0,.51,.02,.71-.24-.02-.46-.02-.78-.02h-1.7v.49h-.7c.03-.23,.04-.46,.04-.78v-1.89c0-.29,0-.51-.02-.74,.22,.02,.42,.03,.76,.03h1.66c.34,0,.54,0,.76-.03-.02,.22-.02,.42-.02,.74v1.49Zm-2.46-1.05h1.81v-.58h-1.81v.58Zm0,1.18h1.81v-.62h-1.81v.62Zm4.22,.67c0,.62-.21,.8-.98,.8-.18,0-.63-.02-.77-.02-.05-.31-.09-.46-.19-.72,.42,.06,.7,.08,.91,.08,.27,0,.34-.04,.34-.22v-3.47h-1.6c-.3,0-.55,0-.77,.02,.02-.22,.02-.42,.02-.73v-1.14c0-.27,0-.52-.02-.75,.22,.02,.41,.03,.82,.03h1.45c.42,0,.62,0,.84-.03-.03,.3-.04,.5-.04,.89v5.26Zm-2.38-5.08h1.69v-.49h-1.69v.49Zm0,1.01h1.69v-.5h-1.69v.5Z"/><path class="cls-3" d="M121.78,182.39c.71,.55,1.13,.98,1.72,1.74l-.66,.61c-.56-.78-1.02-1.26-1.67-1.79l.61-.55Z"/><path class="cls-3" d="M18,188.82c.03-.38,.05-.8,.05-1.14,0-.2,0-.26-.02-.42l.9,.02c-.03,.17-.03,.22-.07,1,0,.14,0,.24-.03,.54h1.86c.36-.02,.42-.02,.59-.08l.39,.35c-.06,.13-.07,.22-.08,.5-.05,1.76-.19,3.04-.41,3.61-.2,.51-.5,.7-1.12,.7-.3,0-.57-.03-1-.11,0-.41-.02-.54-.14-.85,.46,.14,.78,.2,1.05,.2,.36,0,.48-.18,.62-.92,.11-.58,.19-1.68,.19-2.68h-2.01c-.06,.57-.07,.62-.14,.91-.22,1.03-.65,1.83-1.36,2.57-.41,.42-.74,.69-1.28,1.01-.22-.33-.31-.44-.59-.69,.98-.52,1.65-1.17,2.08-2.05,.26-.53,.35-.88,.46-1.74h-1.38c-.5,0-.58,0-.86,.05v-.83c.27,.05,.46,.06,.86,.06h1.44Z"/><path class="cls-3" d="M23,190.21c.3,.04,.64,.06,1.23,.06h4.33c.69,0,.88,0,1.19-.05v.93c-.35-.03-.61-.04-1.2-.04h-4.31c-.67,0-.91,0-1.24,.04v-.94Z"/><path class="cls-3" d="M31.71,194.06c.04-.34,.05-.54,.05-1.02v-4.77c0-.55,0-.73-.05-.95h.95c-.04,.26-.05,.53-.05,.98v1.35c1.14,.4,2.26,.93,3.6,1.69l-.47,.79c-.35-.24-.57-.38-.98-.61-.61-.33-1.48-.76-1.92-.94q-.13-.06-.26-.14l.02,.31c0,.07,0,.32,0,.4v1.89c0,.42,.02,.72,.05,1.02h-.94Zm3.37-6.36c.38,.42,.55,.68,.83,1.2l-.5,.27c-.26-.5-.49-.83-.83-1.22l.5-.25Zm.94-.46c.38,.42,.55,.66,.82,1.17l-.49,.28c-.25-.46-.47-.8-.82-1.2l.48-.25Z"/><path class="cls-3" d="M39.64,188.2c.22-.5,.32-.78,.34-1.03l.88,.11c-.05,.07-.06,.1-.1,.18q-.09,.21-.25,.58s-.05,.1-.06,.14t.06,0h.04s.18,0,.4-.02c.86-.03,1.7-.14,2.13-.27l.05,.76q-.18,.02-.62,.07c-.56,.07-1.59,.14-2.38,.16-.28,.54-.53,.9-.86,1.25v.02q.06-.05,.18-.13c.35-.27,.78-.42,1.22-.42,.3,0,.59,.1,.78,.26,.18,.15,.27,.32,.33,.61,.65-.24,1.08-.4,1.3-.47,.41-.14,.44-.15,.57-.23l.33,.77c-.45,.08-.98,.25-2.1,.66q0,.29,0,.43v.38c0,.14,0,.22,0,.28,0,.15,0,.27,.02,.39l-.78,.02c.02-.16,.05-.61,.05-1.04v-.19c-.98,.45-1.34,.77-1.34,1.19,0,.48,.42,.66,1.54,.66,.84,0,1.71-.13,2.21-.33l.08,.86c-.14,0-.18,0-.35,.04-.59,.09-1.34,.14-1.99,.14-.81,0-1.34-.1-1.73-.32-.35-.2-.56-.56-.56-.98,0-.74,.66-1.38,2.05-1.97-.04-.34-.22-.51-.54-.51-.48,0-1.07,.29-1.7,.83-.32,.27-.5,.47-.66,.7l-.62-.62c.38-.28,.86-.83,1.29-1.46,.1-.15,.26-.42,.5-.81h-.91c-.2-.02-.35-.02-.46-.02h-.05s-.06,0-.12,0l.02-.76c.4,.07,.83,.1,1.56,.1h.29Z"/><path class="cls-3" d="M46.49,193.83c-.58,0-.7,0-.98,.04,.06-.5,.11-.75,.22-1.04,.21-.54,.56-1.03,1.07-1.49,.27-.24,.52-.42,1.28-.93,.76-.51,.98-.81,.98-1.3,0-.55-.46-.9-1.18-.9-.5,0-.86,.17-1.09,.5-.14,.2-.2,.38-.26,.77l-.95-.13c.1-.58,.25-.9,.54-1.23,.38-.44,.98-.67,1.73-.67,1.33,0,2.15,.65,2.15,1.69,0,.61-.23,1.03-.81,1.47-.25,.18-.36,.26-1.07,.74-.9,.6-1.3,1.05-1.5,1.68h2.38c.46,0,.82-.02,1.09-.06v.9c-.35-.03-.66-.05-1.12-.05h-2.5Z"/><path class="cls-3" d="M57.76,194.39v-.46h-5.17v.46h-.78c.03-.24,.05-.56,.05-1.01v-5c0-.39-.02-.67-.05-.98,.28,.03,.55,.04,.94,.04h4.86c.38,0,.66,0,.94-.04-.03,.3-.05,.56-.05,.98v5.01c0,.44,.02,.8,.05,1h-.78Zm-5.17-1.11h5.17v-5.17h-5.17v5.17Zm3.36-4.13c.36,0,.59,0,.8-.03-.02,.17-.03,.37-.03,.63v1.85c0,.26,0,.43,.03,.62-.23-.02-.46-.03-.8-.03h-1.58c-.42,0-.56,0-.79,.03,.02-.22,.03-.38,.03-.62v-1.85c0-.24,0-.43-.03-.63,.2,.02,.44,.03,.79,.03h1.58Zm-1.65,2.42h1.71v-1.8h-1.71v1.8Z"/><path class="cls-3" d="M62.92,190.99c0-.3,0-.46,.02-.92-.18,.36-.32,.58-.62,.97-.1-.31-.18-.49-.34-.74,.76-.84,1.41-2.22,1.55-3.29l.77,.18q-.1,.32-.24,.73c-.1,.29-.22,.59-.43,1.08v4.47c0,.34,.02,.63,.04,.94h-.79c.03-.3,.05-.54,.05-.94v-2.46Zm2.13,.47c-.28,0-.46,0-.67,.03,.02-.22,.02-.37,.02-.62v-1.09c0-.32,0-.44-.02-.63,.22,.02,.34,.02,.73,.02h1.26q0-.16,0-.22s0-.21,0-.45h-1.39c-.32,0-.54,0-.76,.04v-.74c.22,.03,.52,.05,.82,.05h1.33c0-.46-.02-.59-.06-.85h.79c-.02,.22-.03,.38-.03,.85h1.51c.34,0,.6-.02,.86-.05v.74c-.24-.03-.46-.04-.78-.04h-1.59v.66h1.22c.36,0,.54,0,.75-.02-.02,.19-.02,.38-.02,.66v.99c0,.37,0,.5,.02,.69-.22-.02-.42-.03-.78-.03h-1.35c-.1,.54-.23,.91-.45,1.26,.82,.5,1.76,.76,3.07,.85-.13,.22-.24,.5-.31,.74-1.32-.17-2.28-.49-3.16-1.07-.5,.5-.94,.77-1.85,1.11-.14-.26-.27-.45-.42-.62,.83-.25,1.31-.5,1.75-.9-.23-.22-.34-.34-.72-.78-.02-.02-.03-.04-.06-.07l.61-.34c.1,.21,.29,.45,.56,.7,.14-.27,.22-.5,.3-.86h-1.17Zm.05-1.65v1.02h1.21c.03-.36,.04-.54,.06-1.02h-1.26Zm1.95,0c-.02,.43-.02,.63-.06,1.02h1.33v-1.02h-1.26Z"/><path class="cls-3" d="M74.12,193.2c0,.44,0,.7,.04,.92h-.79c.03-.24,.04-.47,.04-.92v-1.39h-1.98c-.12,1.14-.35,1.84-.84,2.57-.27-.26-.37-.34-.65-.52,.31-.43,.49-.82,.61-1.35,.17-.75,.24-1.87,.24-3.91,0-.66,0-.9-.03-1.24,.26,.02,.47,.03,.9,.03h4.41c.43,0,.65,0,.89-.03-.02,.24-.03,.44-.03,.86v5.29c0,.61-.22,.75-1.1,.75-.24,0-.65-.02-.91-.03-.03-.26-.07-.43-.18-.71,.4,.05,.78,.07,1.06,.07,.34,0,.41-.03,.41-.22v-1.56h-2.09v1.39Zm-2.61-3.28c0,.22,0,.4,0,.51,0,.43,0,.44-.02,.71h1.93v-1.22h-1.9Zm1.9-1.85h-1.88v1.19h1.88v-1.19Zm2.8,1.19v-1.19h-2.09v1.19h2.09Zm-2.09,1.88h2.09v-1.22h-2.09v1.22Z"/><path class="cls-3" d="M77.96,188.35c.17,.02,.23,.02,.36,.02,.22,0,.54,0,1.43-.05q.52-.02,1.93-.06c0-.68-.02-.82-.05-1.02h.85c-.03,.24-.04,.38-.04,1.01,1.46,0,2.06-.02,2.34-.06v.78c-.29-.03-.66-.04-1.34-.04-.22,0-.35,0-.99,.02v1.47c.16,.34,.22,.66,.22,1.05,0,.86-.41,1.61-1.14,2.13-.32,.22-.68,.4-1.38,.65-.18-.38-.26-.49-.49-.74,.66-.15,.98-.28,1.35-.52,.56-.38,.85-.81,.9-1.35-.22,.43-.64,.67-1.19,.67-.81,0-1.41-.57-1.41-1.34,0-.82,.64-1.4,1.54-1.4,.37,0,.66,.1,.85,.27t0-.1v-.78c-1.28,.02-3.21,.12-3.71,.2l-.02-.8Zm2.14,2.54c0,.42,.3,.7,.73,.7,.49,0,.84-.34,.84-.81,0-.18-.05-.3-.16-.39-.14-.14-.35-.22-.59-.22-.46,0-.82,.3-.82,.71Z"/><path class="cls-3" d="M86.42,187.64c.26,.04,.41,.05,.85,.05,.73,0,1.67-.04,2.45-.1,.26-.02,.34-.03,.45-.1l.43,.6c-.12,.06-.17,.1-.41,.33-1.11,1.05-1.98,1.77-2.54,2.1l.02,.02c.68-.31,1.16-.42,1.8-.42,1.34,0,2.21,.69,2.21,1.75,0,.74-.38,1.33-1.07,1.72-.52,.29-1.16,.44-1.88,.44-.64,0-1.17-.12-1.48-.34-.3-.21-.48-.54-.48-.9,0-.61,.55-1.06,1.29-1.06,.55,0,1.04,.24,1.36,.66,.16,.21,.25,.38,.37,.74,.27-.09,.43-.17,.6-.29,.31-.23,.49-.57,.49-.95,0-.7-.62-1.13-1.64-1.13-1.17,0-2.38,.5-3.33,1.35l-.46-.71c.72-.38,2.6-1.93,3.64-2.99,.02-.02,.11-.11,.14-.14h0c-.29,.03-1.14,.09-2.36,.14-.18,0-.24,.02-.4,.04l-.04-.82Zm1.65,4.73c-.33,0-.54,.16-.54,.42,0,.35,.41,.57,1.08,.57,.16,0,.21,0,.46-.03-.16-.63-.5-.95-1-.95Z"/><path class="cls-3" d="M94.59,190.96c-.52,.42-.74,.77-.74,1.13,0,.33,.21,.55,.62,.69,.28,.08,.81,.14,1.42,.14,.97,0,1.96-.14,2.45-.33l.08,.92c-.13,0-.17,0-.31,.03-.84,.12-1.48,.18-2.16,.18-.83,0-1.52-.09-1.94-.26-.66-.26-.98-.68-.98-1.27s.29-1.07,.98-1.66l.58,.44Zm-1.06-3.14c.46,.12,1.24,.19,2.17,.19,1.09,0,1.69-.04,2.18-.15l.04,.75c-.5,.22-1.29,.7-2.09,1.28l-.58-.46c.5-.33,.62-.39,.9-.56,.09-.05,.11-.06,.21-.11,.06-.04,.08-.05,.16-.1-.42,.06-.74,.08-1.17,.08-.5,0-1.17-.04-1.62-.1-.14-.02-.17-.02-.28-.02l.06-.8Z"/><path class="cls-3" d="M101.72,187.24c.03,.54,.3,1.76,.56,2.57,.38-.15,.63-.24,1.04-.38l1.07-.36c.14-.05,.18-.06,.3-.12l.3,.84c-.65,.13-1.69,.45-2.55,.78-1.22,.47-1.83,1.01-1.83,1.62,0,.39,.25,.65,.75,.78,.26,.06,.75,.1,1.26,.1,.93,0,1.87-.12,2.42-.3l.07,.92c-.17,0-.19,0-.62,.06-.85,.09-1.26,.11-1.83,.11-1.07,0-1.74-.12-2.23-.41-.43-.26-.68-.72-.68-1.28,0-.5,.26-1.01,.71-1.38,.31-.26,.56-.42,1.07-.68-.22-.65-.34-1.13-.56-2.19-.08-.39-.08-.4-.13-.52l.87-.14Z"/><path class="cls-3" d="M106.28,189.28c.29,0,1.06-.08,1.74-.18,.14-.75,.22-1.38,.22-1.64,0-.03,0-.08,0-.14l.88,.09c-.02,.1-.04,.16-.06,.26l-.19,1.06c-.03,.18-.03,.2-.06,.3,.22-.02,.34-.02,.52-.02,.51,0,.88,.13,1.13,.39,.28,.29,.38,.66,.38,1.37,0,1.32-.22,2.4-.58,2.85-.22,.26-.45,.36-.85,.36-.33,0-.68-.08-1.22-.26,.02-.14,.02-.24,.02-.3,0-.15,0-.28-.06-.55,.43,.2,.9,.34,1.17,.34,.26,0,.4-.18,.53-.62,.13-.42,.21-1.18,.21-1.87,0-.75-.22-.99-.88-.99-.17,0-.3,0-.51,.03-.32,1.33-.63,2.22-1.13,3.29-.06,.13-.24,.48-.53,1.06l-.78-.43c.24-.3,.56-.88,.83-1.48,.35-.78,.54-1.32,.82-2.38-.62,.08-1.2,.18-1.51,.27l-.08-.8Zm5.36-.73c.81,.92,1.3,1.81,1.66,3l-.75,.39c-.15-.64-.34-1.15-.66-1.73-.3-.57-.55-.92-.93-1.32l.67-.34Zm.29-1.37c.38,.42,.55,.68,.83,1.2l-.5,.27c-.26-.5-.49-.83-.83-1.22l.5-.25Zm.94-.46c.38,.42,.55,.66,.82,1.17l-.49,.28c-.25-.46-.47-.8-.82-1.2l.48-.25Z"/><path class="cls-3" d="M113.95,188.26c.13,0,.22,0,.31,0,.14,0,.26,0,.46-.02,.92-.06,2.84-.17,4.72-.26,.55-.02,.79-.05,.93-.08l.06,.85c-.06,0-.1,0-.14,0-.45,0-1.01,.14-1.5,.38-1.09,.54-1.76,1.41-1.76,2.27,0,.63,.4,1.14,1.09,1.38,.37,.12,.9,.22,1.17,.22,.03,0,.08,0,.14,0l-.12,.9c-.1-.02-.14-.02-.26-.04-.87-.13-1.34-.28-1.82-.57-.67-.41-1.03-1.05-1.03-1.81s.35-1.46,1.05-2.11c.31-.3,.5-.42,.96-.64-.56,.08-.88,.11-1.73,.17-1.39,.1-2.07,.17-2.49,.25l-.05-.89Zm5.48,1.42c.38,.42,.55,.68,.83,1.2l-.5,.27c-.26-.5-.49-.83-.83-1.22l.5-.25Zm.94-.46c.38,.42,.55,.66,.82,1.17l-.49,.28c-.25-.46-.47-.8-.82-1.2l.48-.25Z"/><path class="cls-3" d="M121.9,188.38c.25,.02,.34,.02,.79,.02,.58,0,1.15-.03,1.66-.1-.15-.38-.38-.89-.44-1l.84-.12c.03,.18,.12,.43,.36,1.03,.79-.11,1.61-.3,2.16-.5l.06,.72q-.08,.02-.26,.06s-.1,.02-.2,.05c-.41,.1-1.22,.26-1.51,.31,.12,.28,.17,.38,.36,.75,1.02-.2,1.55-.34,1.86-.48l.07,.74c-.14,.03-.3,.06-.48,.1q-.54,.14-.84,.2t-.3,.06c.42,.7,.61,.95,1.1,1.52l-.61,.43c-.51-.25-1.06-.35-1.84-.35-1.16,0-1.82,.29-1.82,.8,0,.21,.15,.42,.38,.52,.27,.12,.7,.19,1.21,.19,.83,0,1.94-.24,2.42-.53l.14,.83c-.15,.03-.21,.05-.46,.12-.77,.22-1.35,.3-2.09,.3-.85,0-1.41-.11-1.83-.37-.38-.23-.62-.62-.62-1.05s.24-.8,.66-1.07c.41-.26,1.04-.39,1.85-.39,.55,0,1.04,.06,1.47,.2-.18-.19-.38-.48-.72-1.04-.77,.13-1.5,.18-2.8,.22-.4,0-.43,0-.6,.03l-.02-.74c.19,.02,.34,.03,.71,.03,.86,0,1.82-.07,2.41-.18-.1-.18-.14-.25-.38-.76-.66,.08-1.24,.11-2.14,.13-.33,0-.36,0-.53,.02l-.03-.71Z"/><path class="cls-3" d="M129.66,187.64c.26,.04,.41,.05,.85,.05,.73,0,1.67-.04,2.45-.1,.26-.02,.34-.03,.45-.1l.43,.6c-.12,.06-.17,.1-.41,.33-1.11,1.05-1.98,1.77-2.54,2.1l.02,.02c.68-.31,1.16-.42,1.8-.42,1.34,0,2.21,.69,2.21,1.75,0,.74-.38,1.33-1.07,1.72-.52,.29-1.16,.44-1.88,.44-.64,0-1.17-.12-1.48-.34-.3-.21-.48-.54-.48-.9,0-.61,.55-1.06,1.29-1.06,.55,0,1.04,.24,1.36,.66,.16,.21,.25,.38,.37,.74,.27-.09,.43-.17,.6-.29,.31-.23,.49-.57,.49-.95,0-.7-.62-1.13-1.64-1.13-1.17,0-2.38,.5-3.33,1.35l-.46-.71c.72-.38,2.6-1.93,3.64-2.99,.02-.02,.11-.11,.14-.14h0c-.29,.03-1.14,.09-2.36,.14-.18,0-.24,.02-.4,.04l-.04-.82Zm1.65,4.73c-.33,0-.54,.16-.54,.42,0,.35,.41,.57,1.08,.57,.16,0,.21,0,.46-.03-.16-.63-.5-.95-1-.95Z"/></g><g><path class="cls-1" d="M10.7,8.43h8.6c.38,0,.68,.3,.68,.68v13.15c0,.38-.3,.68-.68,.68H10.7c-.38,0-.68-.3-.68-.68V9.12c0-.38,.3-.68,.68-.68Z"/><path class="cls-1" d="M19.3,8.96c.09,0,.16,.07,.16,.16v13.15c0,.09-.07,.16-.16,.16H10.7c-.09,0-.16-.07-.16-.16V9.12c0-.09,.07-.16,.16-.16h8.6m0-1.04H10.7c-.66,0-1.2,.54-1.2,1.2v13.15c0,.66,.54,1.2,1.2,1.2h8.6c.66,0,1.2-.54,1.2-1.2V9.12c0-.66-.54-1.2-1.2-1.2h0Z"/></g><line class="cls-5" x1="12" y1="11.63" x2="18" y2="11.63"/><line class="cls-5" x1="12" y1="14.19" x2="18" y2="14.19"/><line class="cls-5" x1="12" y1="16.74" x2="15" y2="16.74"/><g><rect class="cls-4" x="62.09" y="57.46" width="46.41" height="64.83" rx="3" ry="3"/><rect class="cls-1" x="67.09" y="62.46" width="46.41" height="64.83" rx="3" ry="3"/><rect class="cls-4" x="70.09" y="65.46" width="46.41" height="64.83" rx="3" ry="3"/></g></svg>